<svg width="143" height="212" viewBox="0 0 143 212" fill="none" xmlns="http://www.w3.org/2000/svg">
<path d="M15.3111 169.312C33.8 153.928 48.5333 141.141 59.5111 130.95C70.4889 120.566 79.637 109.798 86.9556 98.6449C94.2741 87.4921 97.9333 76.5315 97.9333 65.7633C97.9333 55.9565 95.6222 48.2649 91 42.6884C86.3778 37.112 79.2518 34.3238 69.6222 34.3238C59.9926 34.3238 52.5778 37.5928 47.3778 44.1306C42.1778 50.4762 39.4815 59.2254 39.2889 70.3782H0C0.77037 47.3034 7.6074 29.805 20.5111 17.883C33.6074 5.961 50.1704 0 70.2 0C92.1555 0 109.007 5.86486 120.756 17.5946C132.504 29.132 138.378 44.4191 138.378 63.4558C138.378 78.4544 134.333 92.78 126.244 106.433C118.156 120.085 108.911 132.007 98.5111 142.199C88.1111 152.198 74.5333 164.312 57.7778 178.542H143V212H0.288889V182.003L15.3111 169.312Z" fill="#E8F8FF"/>
</svg>
