<svg width="141" height="213" viewBox="0 0 141 213" fill="none" xmlns="http://www.w3.org/2000/svg">
<path d="M2.84274 59.277C3.79032 40.3688 10.4234 25.8096 22.7419 15.5992C35.25 5.19974 51.6432 0 71.9214 0C85.7561 0 97.6008 2.45806 107.456 7.37417C117.311 12.1012 124.702 18.6245 129.629 26.9441C134.746 35.0746 137.304 44.3396 137.304 54.739C137.304 66.6511 134.177 76.767 127.923 85.0866C121.859 93.217 114.563 98.7004 106.034 101.537V102.671C117.026 106.075 125.554 112.125 131.619 120.823C137.873 129.521 141 140.676 141 154.29C141 165.635 138.347 175.751 133.04 184.638C127.923 193.525 120.248 200.521 110.014 205.626C99.9698 210.542 87.8407 213 73.627 213C52.2117 213 34.7762 207.611 21.3206 196.834C7.86492 186.056 0.758065 170.173 0 149.185H38.6613C39.0403 158.45 42.1673 165.919 48.0423 171.591C54.1069 177.075 62.3508 179.816 72.7742 179.816C82.4395 179.816 89.8307 177.169 94.9476 171.875C100.254 166.391 102.907 159.395 102.907 150.887C102.907 139.542 99.3065 131.411 92.1049 126.495C84.9032 121.579 73.7218 119.121 58.5605 119.121H50.3165V86.5047H58.5605C85.4718 86.5047 98.9274 77.5233 98.9274 59.5606C98.9274 51.4301 96.4637 45.0959 91.5363 40.5579C86.7984 36.02 79.8811 33.751 70.7843 33.751C61.877 33.751 54.9597 36.2091 50.0323 41.1252C45.2944 45.8522 42.5464 51.9028 41.7883 59.277H2.84274Z" fill="#E8F8FF"/>
</svg>
