<svg width="149" height="213" viewBox="0 0 149 213" fill="none" xmlns="http://www.w3.org/2000/svg">
<path d="M135.295 35.8399H40.8219V85.6662C44.9041 80.6156 50.7358 76.5362 58.317 73.4282C65.8982 70.1258 73.9654 68.4747 82.5186 68.4747C98.0698 68.4747 110.802 71.8741 120.716 78.673C130.63 85.472 137.823 94.2134 142.294 104.897C146.765 115.387 149 126.654 149 138.698C149 161.037 142.585 179.005 129.755 192.603C117.12 206.201 99.0417 213 75.5205 213C53.3601 213 35.6706 207.464 22.4521 196.391C9.23353 185.319 1.74951 170.847 0 152.975H39.6556C41.4051 160.746 45.2929 166.962 51.319 171.624C57.5395 176.286 65.4123 178.617 74.9374 178.617C86.4064 178.617 95.0567 175.023 100.888 167.836C106.72 160.648 109.636 151.13 109.636 139.28C109.636 127.237 106.623 118.107 100.597 111.891C94.7652 105.48 86.1148 102.275 74.6458 102.275C66.4814 102.275 59.6777 104.315 54.2348 108.394C48.7919 112.473 44.9041 117.912 42.5714 124.711H3.49902V0H135.295V35.8399Z" fill="#E8F8FF"/>
</svg>
