<svg width="146" height="213" viewBox="0 0 146 213" fill="none" xmlns="http://www.w3.org/2000/svg">
<path d="M103.025 56.6671C101.128 48.6938 97.8077 42.7139 93.0643 38.7273C88.5107 34.7406 81.87 32.7473 73.1423 32.7473C60.0507 32.7473 50.3743 38.0628 44.1131 48.6938C38.0416 59.135 34.911 76.2206 34.7213 99.9505C39.2749 92.357 45.9155 86.4719 54.6433 82.2955C63.371 77.9291 72.8577 75.746 83.1033 75.746C95.436 75.746 106.346 78.4037 115.832 83.7193C125.319 89.0348 132.719 96.8182 138.031 107.07C143.344 117.131 146 129.281 146 143.519C146 156.997 143.249 169.052 137.747 179.683C132.434 190.124 124.56 198.287 114.125 204.172C103.689 210.057 91.2619 213 76.8421 213C57.1098 213 41.5517 208.634 30.1676 199.901C18.9734 191.168 11.0994 179.019 6.54581 163.452C2.18194 147.695 0 128.332 0 105.361C0 70.6203 5.97661 44.4225 17.9298 26.7674C29.883 8.92247 48.7615 0 74.5653 0C94.4873 0 109.951 5.41043 120.955 16.2313C131.96 27.0521 138.316 40.5307 140.023 56.6671H103.025ZM73.9961 108.493C63.9402 108.493 55.4971 111.436 48.6667 117.321C41.8363 123.206 38.4211 131.749 38.4211 142.949C38.4211 154.15 41.5517 162.977 47.8129 169.432C54.2638 175.886 63.2762 179.114 74.8499 179.114C85.0955 179.114 93.1592 175.981 99.041 169.717C105.112 163.452 108.148 155.004 108.148 144.373C108.148 133.362 105.207 124.63 99.3255 118.175C93.6335 111.721 85.1904 108.493 73.9961 108.493Z" fill="#E8F8FF"/>
</svg>
