<svg width="273" height="218" viewBox="0 0 273 218" fill="none" xmlns="http://www.w3.org/2000/svg">
<path d="M134.459 214.428C208.719 215.896 269.64 180.649 270.528 135.701C271.417 90.7537 211.937 53.1264 137.677 51.6583C63.4174 50.1901 2.49741 85.4371 1.6088 130.385C0.720184 175.332 60.1995 212.959 134.459 214.428Z" fill="#93E0FF"/>
<path d="M134.459 204.706C208.719 206.174 269.64 170.927 270.528 125.98C271.417 81.0324 211.937 43.4051 137.677 41.937C63.4174 40.4688 2.49741 75.7158 1.6088 120.663C0.720184 165.611 60.1995 203.238 134.459 204.706Z" fill="#EFF6FF"/>
<path d="M87.7556 24.4701C87.6806 24.4701 87.6086 24.4407 87.555 24.3883C87.5014 24.3359 87.4704 24.2645 87.4688 24.1896V12.7147C87.4688 7.92709 90.1016 2.51477 93.3337 0.653288C94.6852 -0.124454 96.0303 -0.213705 97.1204 0.417414C98.6185 1.27803 99.4727 3.35626 99.4727 6.11023V17.515C99.4736 17.5521 99.467 17.5889 99.4532 17.6234C99.4394 17.6578 99.4188 17.6891 99.3925 17.7153C99.3663 17.7415 99.335 17.7621 99.3006 17.7759C99.2662 17.7897 99.2293 17.7964 99.1923 17.7955C99.1549 17.7963 99.1177 17.7897 99.083 17.776C99.0482 17.7623 99.0165 17.7418 98.9898 17.7156C98.9631 17.6895 98.9418 17.6583 98.9273 17.6238C98.9128 17.5894 98.9054 17.5524 98.9054 17.515V6.12936C98.9054 3.57938 98.1531 1.6669 96.8335 0.927406C95.9155 0.398286 94.8063 0.481162 93.6461 1.16328C90.5733 2.94189 88.068 8.13109 88.068 12.7338V24.2087C88.0656 24.2467 88.0556 24.2839 88.0384 24.3179C88.0212 24.3519 87.9973 24.3821 87.968 24.4065C87.9388 24.431 87.9049 24.4493 87.8684 24.4602C87.8318 24.4711 87.7935 24.4745 87.7556 24.4701Z" fill="#455A64"/>
<path d="M120.875 64.7979L119.619 10.8468L110.439 5.55562L109.349 58.1488L120.875 64.7979Z" fill="#6ED0FF"/>
<g opacity="0.2">
<path opacity="0.2" d="M120.875 64.7979L119.619 10.8468L110.439 5.55562L109.349 58.1488L120.875 64.7979Z" fill="black"/>
</g>
<path d="M78.1687 24.1896L77.085 76.7764L109.349 58.1488L110.439 5.55562L78.1687 24.1896Z" fill="#6ED0FF"/>
<g opacity="0.4">
<path opacity="0.4" d="M78.1687 24.1896L77.085 76.7764L109.349 58.1488L110.439 5.55562L78.1687 24.1896Z" fill="black"/>
</g>
<path d="M87.3545 29.4744L88.604 83.4254L120.874 64.7979L119.618 10.8468L87.3545 29.4744Z" fill="#6ED0FF"/>
<path d="M78.1687 24.1895L87.355 29.4744L88.6045 83.4254L77.085 76.7764L78.1687 24.1895Z" fill="#6ED0FF"/>
<g opacity="0.2">
<path opacity="0.2" d="M78.1687 24.1895L87.355 29.4744L88.6045 83.4254L77.085 76.7764L78.1687 24.1895Z" fill="black"/>
</g>
<path opacity="0.2" d="M88.6045 83.4254L83.9444 75.4122L83.1093 42.7852L82.2805 74.934L77.085 76.7764L88.6045 83.4254Z" fill="black"/>
<g opacity="0.2">
<path opacity="0.2" d="M96.9615 28.1229C96.626 28.3415 96.3467 28.6361 96.1462 28.9827C95.9458 29.3294 95.8298 29.7184 95.8076 30.1182C95.8076 30.8513 96.324 31.1573 96.9615 30.794C97.3021 30.5716 97.5845 30.271 97.7852 29.9172C97.986 29.5634 98.0992 29.1668 98.1154 28.7604C98.1154 28.0272 97.599 27.7212 96.9615 28.1229Z" fill="black"/>
</g>
<g opacity="0.2">
<path opacity="0.2" d="M108.399 21.4356C108.063 21.6542 107.784 21.9488 107.584 22.2955C107.383 22.6421 107.267 23.0311 107.245 23.4309C107.245 24.1704 107.761 24.4701 108.399 24.1067C108.733 23.8873 109.011 23.5925 109.211 23.2459C109.41 22.8992 109.525 22.5106 109.546 22.1113C109.546 21.3718 109.036 21.0722 108.399 21.4356Z" fill="black"/>
</g>
<path d="M96.9621 29.7102C96.9201 29.7142 96.8777 29.7088 96.838 29.6945C96.7983 29.6802 96.7623 29.6573 96.7325 29.6275C96.7026 29.5976 96.6797 29.5616 96.6654 29.5219C96.6511 29.4822 96.6458 29.4399 96.6497 29.3979V17.923C96.6497 13.1418 99.2825 7.72309 102.508 5.86798C103.866 5.08386 105.211 5.00099 106.295 5.62573C107.793 6.49273 108.654 8.57096 108.654 11.3249V22.7679C108.66 22.8088 108.657 22.8504 108.646 22.8901C108.634 22.9297 108.614 22.9665 108.587 22.9977C108.56 23.029 108.527 23.0541 108.49 23.0713C108.452 23.0885 108.411 23.0975 108.37 23.0975C108.329 23.0975 108.288 23.0885 108.25 23.0713C108.213 23.0541 108.18 23.029 108.153 22.9977C108.126 22.9665 108.106 22.9297 108.094 22.8901C108.083 22.8504 108.08 22.8088 108.086 22.7679V11.3696C108.086 8.81958 107.334 6.9071 106.014 6.16123C105.096 5.63211 103.981 5.71498 102.827 6.40348C99.7543 8.17571 97.2489 13.3649 97.2489 17.9676V29.4425C97.2441 29.5152 97.2117 29.5834 97.1584 29.6331C97.1052 29.6828 97.0349 29.7104 96.9621 29.7102Z" fill="#455A64"/>
<path d="M46.9249 52.1564C46.8934 52.1572 46.862 52.1518 46.8326 52.1403C46.8033 52.1288 46.7765 52.1116 46.7539 52.0896C46.7314 52.0676 46.7134 52.0413 46.7012 52.0123C46.6889 51.9832 46.6826 51.952 46.6826 51.9205V42.3581C46.6826 38.3483 48.8883 33.8221 51.5913 32.2602C52.0543 31.9403 52.5959 31.7528 53.1576 31.718C53.7193 31.6832 54.2798 31.8023 54.7788 32.0626C56.0538 32.7829 56.755 34.5233 56.755 36.831V46.3934C56.7457 46.4501 56.7166 46.5017 56.6728 46.5389C56.629 46.5761 56.5734 46.5965 56.516 46.5965C56.4585 46.5965 56.4029 46.5761 56.3591 46.5389C56.3153 46.5017 56.2862 46.4501 56.2769 46.3934V36.831C56.2769 34.6954 55.6394 33.1081 54.5429 32.4706C54.1172 32.2568 53.6413 32.1629 53.1663 32.1988C52.6913 32.2348 52.235 32.3992 51.8463 32.6746C49.2963 34.1599 47.1799 38.5013 47.1799 42.3581V51.9205C47.18 51.9532 47.1733 51.9855 47.1603 52.0154C47.1472 52.0454 47.1281 52.0723 47.1042 52.0944C47.0802 52.1166 47.0519 52.1336 47.021 52.1442C46.9902 52.1549 46.9574 52.159 46.9249 52.1564Z" fill="#455A64"/>
<path d="M74.6614 85.9181L73.6096 40.7516L65.9214 36.3274L65.0098 80.3527L74.6614 85.9181Z" fill="#6ED0FF"/>
<g opacity="0.2">
<path opacity="0.2" d="M74.6614 85.9181L73.6096 40.7516L65.9214 36.3274L65.0098 80.3527L74.6614 85.9181Z" fill="black"/>
</g>
<path d="M38.9116 51.9205L38 95.9458L65.0106 80.3527L65.9222 36.3274L38.9116 51.9205Z" fill="#6ED0FF"/>
<g opacity="0.4">
<path opacity="0.4" d="M38.9116 51.9205L38 95.9458L65.0106 80.3527L65.9222 36.3274L38.9116 51.9205Z" fill="black"/>
</g>
<path d="M46.5996 56.3447L47.6451 101.518L74.6621 85.9181L73.6102 40.7516L46.5996 56.3447Z" fill="#6ED0FF"/>
<path d="M38.9116 51.9205L46.5998 56.3447L47.6453 101.518L38 95.9458L38.9116 51.9205Z" fill="#6ED0FF"/>
<g opacity="0.2">
<path opacity="0.2" d="M38.9116 51.9205L46.5998 56.3447L47.6453 101.518L38 95.9458L38.9116 51.9205Z" fill="black"/>
</g>
<path opacity="0.2" d="M47.6453 101.518L43.7438 94.8047L43.0489 67.4945L42.3477 94.4031L38 95.9458L47.6453 101.518Z" fill="black"/>
<g opacity="0.2">
<path opacity="0.2" d="M54.6384 55.1845C54.3584 55.3696 54.1256 55.6177 53.9585 55.9087C53.7914 56.1998 53.6946 56.5259 53.6758 56.8611C53.6758 57.4986 54.1093 57.7281 54.6384 57.4221C54.9215 57.2413 55.1573 56.9953 55.3258 56.7047C55.4944 56.4141 55.591 56.0874 55.6074 55.7518C55.6074 55.1335 55.1739 54.8976 54.6384 55.1845Z" fill="#455A64"/>
</g>
<g opacity="0.2">
<path opacity="0.2" d="M64.2146 49.6192C63.934 49.8022 63.7007 50.0489 63.5334 50.3391C63.3661 50.6293 63.2697 50.9549 63.252 51.2894C63.252 51.9269 63.6854 52.1564 64.2146 51.8568C64.4958 51.6745 64.7297 51.428 64.8971 51.1376C65.0644 50.8472 65.1604 50.5213 65.1772 50.1866C65.1772 49.5618 64.7756 49.3132 64.2146 49.6192Z" fill="#455A64"/>
</g>
<path d="M54.6382 56.5424C54.5762 56.5407 54.5171 56.5154 54.4732 56.4715C54.4293 56.4276 54.404 56.3685 54.4023 56.3065V46.7122C54.4023 42.7087 56.6017 38.1825 59.311 36.6207C59.7737 36.3004 60.3149 36.1122 60.8765 36.0763C61.438 36.0403 61.9988 36.158 62.4985 36.4167C63.7735 37.1434 64.4684 38.8838 64.4684 41.1851V50.7475C64.4692 50.7787 64.4637 50.8098 64.4522 50.8388C64.4407 50.8678 64.4233 50.8942 64.4012 50.9163C64.3792 50.9384 64.3528 50.9557 64.3238 50.9672C64.2948 50.9788 64.2637 50.9843 64.2325 50.9834C64.1699 50.9834 64.1099 50.9586 64.0657 50.9143C64.0215 50.8701 63.9966 50.8101 63.9966 50.7475V41.1851C63.9966 39.0559 63.3591 37.4685 62.2563 36.831C61.8324 36.6144 61.3571 36.5188 60.8825 36.5548C60.4078 36.5908 59.9523 36.757 59.566 37.035C57.0161 38.5204 54.8996 42.8617 54.8996 46.7122V56.3065C54.8988 56.3394 54.8913 56.3719 54.8776 56.4018C54.8639 56.4318 54.8442 56.4586 54.8197 56.4807C54.7952 56.5028 54.7665 56.5196 54.7353 56.5302C54.7041 56.5408 54.6711 56.545 54.6382 56.5424Z" fill="#455A64"/>
<path d="M179.575 82.0739L164.798 73.5442L146.138 62.7706H146.094C144.417 61.8398 143.372 59.7935 143.372 56.8674C143.372 54.0624 142.415 52.067 140.866 51.0853L153.616 58.442L155.631 59.6022L174.264 70.3567L174.469 70.4778C176.069 71.4341 177.057 73.4549 177.057 76.3045C177.057 79.1541 178 81.0985 179.575 82.0739Z" fill="#6ED0FF"/>
<g opacity="0.1">
<path opacity="0.1" d="M179.575 82.0739L164.798 73.5442L146.138 62.7706H146.094C144.417 61.8398 143.372 59.7935 143.372 56.8674C143.372 54.0624 142.415 52.067 140.866 51.0853L153.616 58.442L155.631 59.6022L174.264 70.3567L174.469 70.4778C176.069 71.4341 177.057 73.4549 177.057 76.3045C177.057 79.1541 178 81.0985 179.575 82.0739Z" fill="black"/>
</g>
<path d="M195.161 61.3171V65.8114C195.161 71.5935 191.107 78.6186 186.103 81.5065C183.636 82.9345 181.392 83.0875 179.76 82.1822L179.575 82.0739C178 81.0985 177.025 79.0967 177.025 76.279C177.025 73.4613 176.037 71.4086 174.437 70.4523L174.233 70.3312L155.599 59.5767C159.041 56.1024 161.489 50.8622 161.489 46.3742V41.9118L195.161 61.3171Z" fill="#6ED0FF"/>
<path d="M174.244 70.3312C172.612 69.4706 170.419 69.6364 167.971 71.0452C166.802 71.7323 165.73 72.5727 164.784 73.5442C161.341 77.0122 158.9 82.2524 158.9 86.7403C158.9 92.5224 154.839 99.5476 149.835 102.442L140.77 107.676L107.116 88.2384L116.181 83.0046C121.186 80.1168 125.247 73.0852 125.247 67.3031C125.247 61.5211 129.301 54.4959 134.312 51.608C136.772 50.1864 139.01 50.0334 140.642 50.9323L140.859 51.0534L153.609 58.4101L155.623 59.5703L174.244 70.3312Z" fill="#6ED0FF"/>
<g opacity="0.4">
<path opacity="0.4" d="M174.244 70.3312C172.612 69.4706 170.419 69.6364 167.971 71.0452C166.802 71.7323 165.73 72.5727 164.784 73.5442C161.341 77.0122 158.9 82.2524 158.9 86.7403C158.9 92.5224 154.839 99.5476 149.835 102.442L140.77 107.676L107.116 88.2384L116.181 83.0046C121.186 80.1168 125.247 73.0852 125.247 67.3031C125.247 61.5211 129.301 54.4959 134.312 51.608C136.772 50.1864 139.01 50.0334 140.642 50.9323L140.859 51.0534L153.609 58.4101L155.623 59.5703L174.244 70.3312Z" fill="white"/>
</g>
<path d="M148.522 90.9478C148.311 89.5453 147.17 89.0353 145.793 89.8321L140.782 92.72L130.583 98.6041C128.719 99.6255 126.924 100.767 125.208 102.021C122.574 104.283 120.129 106.756 117.896 109.416C113.434 114.516 108.971 120.049 104.509 122.625L81.3744 135.98C80.5711 136.505 79.9027 137.211 79.4231 138.041C78.9435 138.872 78.6664 139.804 78.614 140.762V149.336C78.614 150.968 79.6787 151.701 81.0493 151.095C80.2234 151.448 79.3306 151.615 78.4332 151.587C77.5357 151.558 76.6554 151.334 75.8537 150.93L45.1392 133.188C44.336 132.664 43.6675 131.958 43.188 131.127C42.7084 130.297 42.4312 129.365 42.3789 128.407V119.833C42.4302 118.875 42.707 117.942 43.1866 117.112C43.6663 116.281 44.3353 115.575 45.1392 115.051L68.2739 101.664C72.7364 99.114 77.1988 93.5551 81.6613 88.4615C83.9026 85.8076 86.3566 83.3409 88.9988 81.0857C90.7128 79.8345 92.5057 78.6953 94.3665 77.6751L104.566 71.7911L109.571 68.8969C110.426 68.4629 111.372 68.2367 112.331 68.2367C113.29 68.2367 114.236 68.4629 115.091 68.8969L145.825 86.6447C146.554 87.1299 147.171 87.7644 147.636 88.5063C148.101 89.2482 148.403 90.0804 148.522 90.9478Z" fill="#455A64"/>
<path d="M81.2219 142.056C81.2219 142.056 42.3794 119.826 42.3857 119.635C42.3857 119.635 42.3857 119.762 42.3857 119.826V128.401C42.4371 129.358 42.7138 130.291 43.1935 131.122C43.6731 131.952 44.3421 132.658 45.1461 133.182L75.8797 150.93C76.7351 151.364 77.6808 151.59 78.64 151.59C79.5992 151.59 80.5449 151.364 81.4003 150.93L82.7136 150.171L81.2219 142.056Z" fill="#37474F"/>
<path d="M145.787 89.8258L130.596 98.604C128.734 99.6256 126.939 100.765 125.222 102.015C118.324 107.586 111.426 118.647 104.529 122.618L81.3941 136.006C80.5902 136.529 79.9212 137.235 79.4415 138.066C78.9619 138.897 78.6851 139.829 78.6338 140.787V149.361C78.6338 151.121 79.8705 151.835 81.3941 150.955L145.781 113.776C146.584 113.252 147.253 112.546 147.732 111.716C148.212 110.885 148.489 109.953 148.541 108.995V91.4195C148.554 89.66 147.317 88.946 145.787 89.8258Z" fill="#263238"/>
<path d="M125.419 95.6142C123.556 96.6357 121.761 97.7771 120.045 99.0312C118.717 100.127 117.459 101.304 116.278 102.557C116.019 102.806 115.688 102.968 115.333 103.02C114.977 103.071 114.614 103.009 114.295 102.843L90.5994 89.1628C90.4597 89.0946 90.3386 88.9933 90.2468 88.8678C90.1551 88.7423 90.0953 88.5963 90.0727 88.4424C90.0501 88.2885 90.0653 88.1315 90.1171 87.9849C90.1689 87.8382 90.2557 87.7064 90.3699 87.6009C91.5556 86.3485 92.8182 85.1711 94.1503 84.0756C95.8642 82.8244 97.6572 81.6851 99.518 80.665C102.419 78.982 105.67 77.1014 108.602 75.4184C108.945 75.2458 109.324 75.1558 109.708 75.1558C110.092 75.1558 110.471 75.2458 110.814 75.4184L134.504 89.0927C134.636 89.1391 134.75 89.2253 134.831 89.3395C134.912 89.4537 134.955 89.5902 134.955 89.7302C134.955 89.8701 134.912 90.0066 134.831 90.1208C134.75 90.235 134.636 90.3212 134.504 90.3677L125.419 95.6142Z" fill="#37474F"/>
<path d="M110.813 76.5723C110.47 76.3991 110.091 76.3089 109.707 76.3089C109.323 76.3089 108.944 76.3991 108.601 76.5723L99.5167 81.8252C97.6559 82.8454 95.8629 83.9846 94.149 85.2358C92.8185 86.3308 91.556 87.506 90.3687 88.7548L90.2539 88.9014C90.3487 89.0221 90.4655 89.1237 90.5981 89.201L114.294 102.882C114.613 103.048 114.976 103.109 115.331 103.058C115.687 103.006 116.018 102.844 116.276 102.595C117.458 101.342 118.716 100.165 120.044 99.0694C121.759 97.8153 123.555 96.6739 125.418 95.6525L134.502 90.4059L134.611 90.3294L134.502 90.2529L110.813 76.5723Z" fill="white"/>
<path d="M76.046 145.045C76.046 145.874 75.4085 146.187 74.6627 145.747L46.3516 129.401C45.9578 129.154 45.6279 128.817 45.3887 128.419C45.1494 128.02 45.0076 127.57 44.9746 127.106C44.9746 126.278 45.6121 125.965 46.3516 126.405L74.6627 142.757C75.0568 143.003 75.3874 143.338 75.6278 143.736C75.8681 144.134 76.0114 144.582 76.046 145.045Z" fill="#263238"/>
<path d="M86.245 115.523V114.388L84.9317 114.293L81.9865 112.578C81.5587 112.361 81.0859 112.248 80.6064 112.248C80.1268 112.248 79.654 112.361 79.2262 112.578L77.2372 113.725L76.2363 113.649V114.752C76.2463 114.927 76.3046 115.096 76.4048 115.24C76.5049 115.384 76.643 115.497 76.8037 115.568L80.5139 117.71C80.9417 117.926 81.4145 118.039 81.8941 118.039C82.3736 118.039 82.8465 117.926 83.2743 117.71L85.6967 116.314C85.8514 116.244 85.985 116.134 86.0845 115.997C86.184 115.859 86.2459 115.698 86.2641 115.53L86.245 115.523Z" fill="#E0E0E0"/>
<path d="M81.9868 111.456L85.7034 113.598C85.8699 113.654 86.0145 113.762 86.117 113.905C86.2194 114.048 86.2745 114.219 86.2745 114.395C86.2745 114.571 86.2194 114.742 86.117 114.885C86.0145 115.028 85.8699 115.135 85.7034 115.192L83.2809 116.588C82.8531 116.805 82.3803 116.917 81.9007 116.917C81.4212 116.917 80.9484 116.805 80.5206 116.588L76.8104 114.446C76.6438 114.389 76.4992 114.282 76.3968 114.139C76.2943 113.996 76.2393 113.825 76.2393 113.649C76.2393 113.473 76.2943 113.302 76.3968 113.159C76.4992 113.016 76.6438 112.909 76.8104 112.852L79.2265 111.456C79.6542 111.239 80.1271 111.126 80.6066 111.126C81.0862 111.126 81.559 111.239 81.9868 111.456Z" fill="#F5F5F5"/>
<path d="M76.5361 109.9V108.766L75.2229 108.67L72.2521 106.955C71.8244 106.738 71.3515 106.626 70.872 106.626C70.3924 106.626 69.9196 106.738 69.4918 106.955L67.5028 108.103L66.502 108.033V109.129C66.5144 109.304 66.5744 109.471 66.6756 109.614C66.7768 109.757 66.9151 109.869 67.0757 109.939L70.7859 112.081C71.2128 112.3 71.686 112.415 72.1661 112.415C72.6462 112.415 73.1194 112.3 73.5462 112.081L75.9624 110.685C76.1189 110.616 76.2546 110.508 76.3554 110.37C76.4562 110.232 76.5186 110.07 76.5361 109.9Z" fill="#E0E0E0"/>
<path d="M72.2515 105.833L75.9617 107.982C76.1282 108.038 76.2728 108.145 76.3753 108.288C76.4777 108.431 76.5328 108.603 76.5328 108.778C76.5328 108.954 76.4777 109.126 76.3753 109.269C76.2728 109.412 76.1282 109.519 75.9617 109.575L73.5456 110.997C73.1178 111.214 72.645 111.327 72.1654 111.327C71.6858 111.327 71.213 111.214 70.7852 110.997L67.075 108.849C66.9085 108.792 66.7639 108.685 66.6614 108.542C66.559 108.399 66.5039 108.228 66.5039 108.052C66.5039 107.876 66.559 107.704 66.6614 107.562C66.7639 107.419 66.9085 107.311 67.075 107.255L69.4911 105.859C69.9169 105.638 70.3887 105.521 70.8682 105.516C71.3478 105.512 71.8217 105.62 72.2515 105.833Z" fill="#F5F5F5"/>
<path d="M95.9534 121.127V119.992L94.6785 119.896L91.7014 118.181C91.2736 117.965 90.8008 117.852 90.3212 117.852C89.8416 117.852 89.3688 117.965 88.941 118.181L86.9584 119.329L85.9512 119.252V120.355C85.9619 120.53 86.0205 120.699 86.1205 120.843C86.2206 120.987 86.3583 121.1 86.5185 121.171L90.2351 123.313C90.6629 123.53 91.1357 123.643 91.6153 123.643C92.0949 123.643 92.5677 123.53 92.9955 123.313L95.4116 121.917C95.567 121.848 95.7013 121.739 95.801 121.602C95.9006 121.464 95.962 121.302 95.9789 121.133L95.9534 121.127Z" fill="#E0E0E0"/>
<path d="M91.6748 117.06L95.385 119.201C95.5516 119.258 95.6962 119.365 95.7986 119.508C95.901 119.651 95.9561 119.822 95.9561 119.998C95.9561 120.174 95.901 120.346 95.7986 120.489C95.6962 120.631 95.5516 120.739 95.385 120.795L92.9689 122.191C92.5411 122.408 92.0683 122.521 91.5888 122.521C91.1092 122.521 90.6364 122.408 90.2086 122.191L86.492 120.049C86.3255 119.993 86.1808 119.886 86.0784 119.743C85.976 119.6 85.9209 119.428 85.9209 119.252C85.9209 119.077 85.976 118.905 86.0784 118.762C86.1808 118.619 86.3255 118.512 86.492 118.456L88.9145 117.06C89.3423 116.843 89.8151 116.73 90.2946 116.73C90.7742 116.73 91.247 116.843 91.6748 117.06Z" fill="#F5F5F5"/>
<path d="M94.0156 111.042V109.907L92.7024 109.811L89.7316 108.096C89.3038 107.88 88.831 107.767 88.3515 107.767C87.8719 107.767 87.3991 107.88 86.9713 108.096L84.9823 109.244L83.9814 109.167V110.27C83.9921 110.445 84.0507 110.614 84.1508 110.758C84.2508 110.902 84.3885 111.015 84.5488 111.086L88.2654 113.228C88.6932 113.445 89.166 113.558 89.6456 113.558C90.1251 113.558 90.598 113.445 91.0257 113.228L93.4418 111.832C93.5969 111.762 93.7312 111.653 93.8317 111.515C93.9323 111.378 93.9956 111.217 94.0156 111.048V111.042Z" fill="#E0E0E0"/>
<path d="M89.7325 106.974L93.4427 109.116C93.6092 109.173 93.7539 109.28 93.8563 109.423C93.9587 109.566 94.0138 109.737 94.0138 109.913C94.0138 110.089 93.9587 110.26 93.8563 110.403C93.7539 110.546 93.6092 110.654 93.4427 110.71L91.0266 112.106C90.5988 112.323 90.126 112.436 89.6464 112.436C89.1669 112.436 88.6941 112.323 88.2663 112.106L84.5369 109.964C84.3704 109.908 84.2258 109.8 84.1233 109.658C84.0209 109.515 83.9658 109.343 83.9658 109.167C83.9658 108.991 84.0209 108.82 84.1233 108.677C84.2258 108.534 84.3704 108.427 84.5369 108.37L86.9594 106.974C87.3888 106.755 87.864 106.641 88.346 106.641C88.8279 106.641 89.3031 106.755 89.7325 106.974Z" fill="#F5F5F5"/>
<path d="M84.3076 105.419V104.284L82.9944 104.188L80.0236 102.474C79.5958 102.257 79.123 102.144 78.6435 102.144C78.1639 102.144 77.6911 102.257 77.2633 102.474L75.2743 103.621L74.2734 103.551V104.622C74.2834 104.797 74.3417 104.966 74.4419 105.11C74.542 105.254 74.6801 105.368 74.8408 105.438L78.5574 107.58C78.9852 107.797 79.458 107.91 79.9376 107.91C80.4171 107.91 80.89 107.797 81.3177 107.58L83.7339 106.184C83.8896 106.115 84.0243 106.007 84.1241 105.869C84.2238 105.731 84.285 105.569 84.3012 105.4L84.3076 105.419Z" fill="#E0E0E0"/>
<path d="M80.0218 101.352L83.7321 103.5C83.8986 103.557 84.0432 103.664 84.1456 103.807C84.2481 103.95 84.3032 104.121 84.3032 104.297C84.3032 104.473 84.2481 104.644 84.1456 104.787C84.0432 104.93 83.8986 105.037 83.7321 105.094L81.3478 106.49C80.9201 106.707 80.4472 106.82 79.9677 106.82C79.4881 106.82 79.0153 106.707 78.5875 106.49L74.8709 104.341C74.7044 104.285 74.5598 104.178 74.4573 104.035C74.3549 103.892 74.2998 103.72 74.2998 103.545C74.2998 103.369 74.3549 103.197 74.4573 103.054C74.5598 102.912 74.7044 102.804 74.8709 102.748L77.2934 101.352C77.717 101.14 78.1841 101.03 78.6576 101.03C79.1311 101.03 79.5982 101.14 80.0218 101.352Z" fill="#F5F5F5"/>
<path d="M103.726 116.645V115.51L102.412 115.415L99.4416 113.7C99.0138 113.483 98.541 113.37 98.0614 113.37C97.5819 113.37 97.109 113.483 96.6813 113.7L94.6923 114.847L93.6914 114.771V115.874C93.7041 116.049 93.7642 116.218 93.8652 116.361C93.9663 116.505 94.1045 116.619 94.2651 116.69L97.9754 118.832C98.4031 119.048 98.876 119.161 99.3555 119.161C99.8351 119.161 100.308 119.048 100.736 118.832L103.158 117.436C103.313 117.366 103.446 117.256 103.546 117.119C103.645 116.981 103.707 116.82 103.726 116.651V116.645Z" fill="#E0E0E0"/>
<path d="M99.4409 112.578L103.157 114.72C103.324 114.776 103.469 114.884 103.571 115.027C103.674 115.17 103.729 115.341 103.729 115.517C103.729 115.693 103.674 115.864 103.571 116.007C103.469 116.15 103.324 116.257 103.157 116.314L100.735 117.71C100.307 117.926 99.8344 118.039 99.3548 118.039C98.8753 118.039 98.4025 117.926 97.9747 117.71L94.2645 115.568C94.0979 115.511 93.9533 115.404 93.8509 115.261C93.7484 115.118 93.6934 114.947 93.6934 114.771C93.6934 114.595 93.7484 114.424 93.8509 114.281C93.9533 114.138 94.0979 114.031 94.2645 113.974L96.6806 112.578C97.1083 112.361 97.5812 112.248 98.0607 112.248C98.5403 112.248 99.0131 112.361 99.4409 112.578Z" fill="#F5F5F5"/>
<path d="M78.4795 120.024V118.889L77.1662 118.793L74.1955 117.079C73.7686 116.859 73.2955 116.744 72.8153 116.744C72.3352 116.744 71.862 116.859 71.4352 117.079L69.4462 118.226L68.4453 118.15V119.284C68.4574 119.459 68.5165 119.627 68.6164 119.771C68.7163 119.914 68.8532 120.028 69.0127 120.1L72.7293 122.242C73.1571 122.459 73.6299 122.572 74.1094 122.572C74.589 122.572 75.0618 122.459 75.4896 122.242L77.9057 120.846C78.0608 120.776 78.1951 120.667 78.2956 120.53C78.3961 120.392 78.4595 120.231 78.4795 120.062V120.024Z" fill="#E0E0E0"/>
<path d="M74.1963 115.957L77.9065 118.099C78.073 118.155 78.2177 118.262 78.3201 118.405C78.4225 118.548 78.4776 118.72 78.4776 118.895C78.4776 119.071 78.4225 119.243 78.3201 119.386C78.2177 119.529 78.073 119.636 77.9065 119.692L75.4904 121.088C75.0626 121.305 74.5898 121.418 74.1102 121.418C73.6307 121.418 73.1579 121.305 72.7301 121.088L69.0135 118.946C68.847 118.89 68.7023 118.783 68.5999 118.64C68.4975 118.497 68.4424 118.325 68.4424 118.15C68.4424 117.974 68.4975 117.802 68.5999 117.659C68.7023 117.516 68.847 117.409 69.0135 117.353L71.436 115.957C71.8637 115.74 72.3366 115.627 72.8161 115.627C73.2957 115.627 73.7685 115.74 74.1963 115.957Z" fill="#F5F5F5"/>
<path d="M68.764 114.401V113.266L67.489 113.171L64.5119 111.456C64.0841 111.239 63.6113 111.126 63.1317 111.126C62.6522 111.126 62.1793 111.239 61.7516 111.456L59.769 112.603L58.7617 112.527V113.63C58.7724 113.805 58.831 113.973 58.9311 114.117C59.0311 114.261 59.1688 114.375 59.3291 114.446L63.0457 116.588C63.4735 116.805 63.9463 116.917 64.4259 116.917C64.9054 116.917 65.3782 116.805 65.806 116.588L68.2221 115.192C68.3775 115.123 68.5119 115.014 68.6115 114.876C68.7112 114.738 68.7726 114.577 68.7895 114.408L68.764 114.401Z" fill="#E0E0E0"/>
<path d="M64.4809 110.359L68.1975 112.501C68.364 112.558 68.5087 112.665 68.6111 112.808C68.7136 112.951 68.7686 113.122 68.7686 113.298C68.7686 113.474 68.7136 113.646 68.6111 113.788C68.5087 113.931 68.364 114.039 68.1975 114.095L65.7814 115.459C65.3537 115.676 64.8808 115.789 64.4013 115.789C63.9217 115.789 63.4489 115.676 63.0211 115.459L59.3045 113.317C59.138 113.261 58.9933 113.154 58.8909 113.011C58.7885 112.868 58.7334 112.696 58.7334 112.521C58.7334 112.345 58.7885 112.173 58.8909 112.03C58.9933 111.887 59.138 111.78 59.3045 111.724L61.7206 110.328C62.1509 110.116 62.625 110.008 63.1046 110.014C63.5841 110.019 64.0557 110.138 64.4809 110.359Z" fill="#F5F5F5"/>
<path d="M88.1899 125.659V124.525L86.8766 124.429L83.8996 122.682C83.4727 122.462 82.9995 122.348 82.5194 122.348C82.0393 122.348 81.5661 122.462 81.1392 122.682L79.1502 123.83L78.1621 123.747V124.85C78.1755 125.025 78.2358 125.193 78.3368 125.337C78.4378 125.48 78.5756 125.594 78.7358 125.666L82.4461 127.808C82.8739 128.024 83.3467 128.137 83.8262 128.137C84.3058 128.137 84.7786 128.024 85.2064 127.808L87.6225 126.412C87.7776 126.341 87.9119 126.232 88.0124 126.095C88.1129 125.957 88.1763 125.796 88.1963 125.627L88.1899 125.659Z" fill="#E0E0E0"/>
<path d="M83.8995 121.56L87.6097 123.702C87.7762 123.759 87.9208 123.866 88.0233 124.009C88.1257 124.152 88.1808 124.323 88.1808 124.499C88.1808 124.675 88.1257 124.846 88.0233 124.989C87.9208 125.132 87.7762 125.239 87.6097 125.296L85.1745 126.692C84.7467 126.909 84.2739 127.022 83.7943 127.022C83.3147 127.022 82.8419 126.909 82.4141 126.692L78.7039 124.55C78.5374 124.494 78.3928 124.386 78.2903 124.243C78.1879 124.1 78.1328 123.929 78.1328 123.753C78.1328 123.577 78.1879 123.406 78.2903 123.263C78.3928 123.12 78.5374 123.013 78.7039 122.956L81.12 121.56C81.5503 121.34 82.0266 121.226 82.5098 121.226C82.9929 121.226 83.4692 121.34 83.8995 121.56Z" fill="#F5F5F5"/>
<path d="M70.7031 124.499V123.364L69.3899 123.269L66.4191 121.547C65.9914 121.331 65.5185 121.218 65.039 121.218C64.5594 121.218 64.0866 121.331 63.6588 121.547L61.6698 122.695L60.6689 122.625V123.747C60.6814 123.921 60.7414 124.089 60.8426 124.232C60.9437 124.375 61.0821 124.487 61.2427 124.556L64.9529 126.705C65.3807 126.922 65.8535 127.034 66.3331 127.034C66.8126 127.034 67.2855 126.922 67.7133 126.705L70.1357 125.309C70.2912 125.238 70.4255 125.128 70.525 124.989C70.6246 124.851 70.686 124.688 70.7031 124.518V124.499Z" fill="#E0E0E0"/>
<path d="M66.4194 120.425L70.136 122.574C70.3025 122.63 70.4472 122.738 70.5496 122.88C70.652 123.023 70.7071 123.195 70.7071 123.371C70.7071 123.547 70.652 123.718 70.5496 123.861C70.4472 124.004 70.3025 124.111 70.136 124.168L67.7135 125.564C67.2858 125.78 66.8129 125.893 66.3334 125.893C65.8538 125.893 65.381 125.78 64.9532 125.564L61.243 123.422C61.0765 123.365 60.9318 123.258 60.8294 123.115C60.727 122.972 60.6719 122.801 60.6719 122.625C60.6719 122.449 60.727 122.278 60.8294 122.135C60.9318 121.992 61.0765 121.884 61.243 121.828L63.6591 120.425C64.0869 120.209 64.5597 120.096 65.0392 120.096C65.5188 120.096 65.9916 120.209 66.4194 120.425Z" fill="#F5F5F5"/>
<path d="M60.9931 118.876V117.742L59.6799 117.646L56.7092 115.931C56.2814 115.714 55.8086 115.601 55.329 115.601C54.8494 115.601 54.3766 115.714 53.9488 115.931L51.9598 117.079L50.959 117.002V118.105C50.9697 118.28 51.0283 118.449 51.1283 118.592C51.2284 118.736 51.3661 118.85 51.5264 118.921L55.2429 121.063C55.6707 121.28 56.1435 121.393 56.6231 121.393C57.1027 121.393 57.5755 121.28 58.0033 121.063L60.4194 119.667C60.5745 119.597 60.7088 119.488 60.8093 119.35C60.9098 119.213 60.9731 119.052 60.9931 118.883V118.876Z" fill="#E0E0E0"/>
<path d="M56.71 114.822L60.4202 116.964C60.5867 117.02 60.7313 117.128 60.8338 117.271C60.9362 117.413 60.9913 117.585 60.9913 117.761C60.9913 117.937 60.9362 118.108 60.8338 118.251C60.7313 118.394 60.5867 118.501 60.4202 118.558L58.0041 119.922C57.5763 120.139 57.1035 120.252 56.6239 120.252C56.1444 120.252 55.6715 120.139 55.2437 119.922L51.5272 117.78C51.3606 117.723 51.216 117.616 51.1136 117.473C51.0111 117.33 50.9561 117.159 50.9561 116.983C50.9561 116.807 51.0111 116.636 51.1136 116.493C51.216 116.35 51.3606 116.243 51.5272 116.186L53.9369 114.822C54.3663 114.603 54.8415 114.489 55.3234 114.489C55.8054 114.489 56.2806 114.603 56.71 114.822Z" fill="#F5F5F5"/>
<path d="M80.4121 130.122V128.987L79.1052 128.891L76.1281 127.17C75.7003 126.953 75.2275 126.84 74.748 126.84C74.2684 126.84 73.7956 126.953 73.3678 127.17L71.3788 128.318L70.3779 128.248V129.35C70.3891 129.524 70.4479 129.692 70.548 129.835C70.6481 129.978 70.7855 130.09 70.9453 130.16L74.6555 132.308C75.0833 132.525 75.5561 132.638 76.0357 132.638C76.5153 132.638 76.9881 132.525 77.4159 132.308L79.8383 130.912C79.9946 130.843 80.1295 130.733 80.2293 130.594C80.329 130.455 80.3899 130.292 80.4057 130.122H80.4121Z" fill="#E0E0E0"/>
<path d="M76.1274 126.029L79.844 128.177C80.0105 128.234 80.1552 128.341 80.2576 128.484C80.36 128.627 80.4151 128.798 80.4151 128.974C80.4151 129.15 80.36 129.322 80.2576 129.464C80.1552 129.607 80.0105 129.715 79.844 129.771L77.4215 131.167C76.9938 131.384 76.5209 131.497 76.0414 131.497C75.5618 131.497 75.089 131.384 74.6612 131.167L70.951 129.025C70.7845 128.969 70.6398 128.862 70.5374 128.719C70.435 128.576 70.3799 128.404 70.3799 128.228C70.3799 128.053 70.435 127.881 70.5374 127.738C70.6398 127.595 70.7845 127.488 70.951 127.432L73.3671 126.029C73.7949 125.812 74.2677 125.699 74.7473 125.699C75.2268 125.699 75.6996 125.812 76.1274 126.029Z" fill="#F5F5F5"/>
<path d="M90.6678 97.6861L90.4319 96.7107L89.4502 96.6278L86.2627 94.7727C84.7391 93.893 82.7182 94.0778 81.7365 95.1616C81.5282 95.3891 81.3754 95.6619 81.2903 95.9585H81.0098L81.2584 96.9912C81.3687 97.3575 81.5514 97.698 81.7955 97.9926C82.0397 98.2871 82.3405 98.5297 82.68 98.7061L86.5942 100.963C86.9121 101.133 87.2759 101.197 87.6326 101.145C87.9893 101.093 88.3202 100.929 88.5768 100.676C89.1931 100.017 89.8114 99.3372 90.4319 98.6359C90.5477 98.5101 90.63 98.3571 90.6712 98.1911C90.7124 98.0251 90.7113 97.8515 90.6678 97.6861Z" fill="#E0E0E0"/>
<path d="M86.3475 99.9747L82.4333 97.7179C80.9097 96.8382 80.5208 95.27 81.4834 94.1862C82.4461 93.1025 84.486 92.9112 86.0096 93.7974L89.9239 96.0541C90.0631 96.1262 90.1836 96.2299 90.2757 96.3569C90.3678 96.4839 90.429 96.6306 90.4544 96.7854C90.4798 96.9402 90.4687 97.0987 90.4219 97.2485C90.3752 97.3982 90.2942 97.5349 90.1852 97.6478C89.5647 98.3491 88.9464 99.0291 88.3301 99.6878C88.074 99.9417 87.7431 100.107 87.3861 100.158C87.0292 100.21 86.6651 100.146 86.3475 99.9747Z" fill="#F5F5F5"/>
<path d="M110.673 109.862L110.437 108.874H110.157C109.89 108.556 109.569 108.288 109.207 108.084L105.299 105.827C104.984 105.658 104.623 105.598 104.27 105.656C103.917 105.713 103.593 105.885 103.349 106.146C102.711 106.828 102.131 107.503 101.525 108.154L100.971 108.109L101.219 109.135C101.253 109.27 101.313 109.396 101.398 109.506C101.482 109.615 101.589 109.706 101.71 109.773L105.618 112.03C107.142 112.909 109.207 112.769 110.195 111.685C110.426 111.449 110.591 111.156 110.675 110.837C110.758 110.517 110.758 110.182 110.673 109.862Z" fill="#E0E0E0"/>
<path d="M105.401 110.997L101.493 108.74C101.355 108.671 101.235 108.569 101.144 108.444C101.053 108.318 100.994 108.172 100.971 108.019C100.949 107.866 100.963 107.709 101.014 107.563C101.065 107.417 101.151 107.285 101.264 107.178C101.88 106.515 102.498 105.835 103.119 105.138C103.364 104.878 103.688 104.706 104.04 104.648C104.393 104.591 104.755 104.651 105.069 104.82L108.977 107.076C110.507 107.956 110.96 109.569 109.978 110.653C108.996 111.736 106.931 111.864 105.401 110.997Z" fill="#F5F5F5"/>
<path d="M100.881 103.679L100.645 102.716L99.8995 102.665L95.2139 99.9619C94.8208 99.7518 94.3695 99.6767 93.9295 99.7481C93.4895 99.8195 93.0852 100.034 92.7787 100.357C92.3005 100.893 91.8288 101.415 91.3507 101.932C91.3068 101.984 91.2663 102.04 91.2296 102.098H90.7578L91.0001 103.105C91.0427 103.276 91.1217 103.437 91.2316 103.576C91.3416 103.714 91.48 103.828 91.6376 103.908L96.6546 106.802C97.0509 107.015 97.505 107.095 97.9501 107.031C98.3953 106.967 98.8081 106.761 99.1281 106.445C99.6062 105.935 100.084 105.406 100.556 104.877C100.708 104.722 100.818 104.53 100.874 104.32C100.931 104.11 100.934 103.889 100.881 103.679Z" fill="#E0E0E0"/>
<path d="M100.328 103.87C99.8559 104.399 99.3778 104.928 98.906 105.438C98.5845 105.754 98.1706 105.959 97.7246 106.023C97.2786 106.087 96.8237 106.007 96.4262 105.795L91.4091 102.901C91.2364 102.814 91.0872 102.687 90.974 102.53C90.8608 102.373 90.787 102.191 90.7589 102C90.7308 101.809 90.7491 101.613 90.8123 101.431C90.8756 101.248 90.9819 101.083 91.1222 100.95C91.6004 100.434 92.0721 99.9109 92.5502 99.3754C92.8567 99.0518 93.2611 98.8378 93.701 98.7664C94.141 98.6949 94.5923 98.7701 94.9854 98.9802L100.003 101.874C100.175 101.967 100.323 102.098 100.436 102.257C100.55 102.416 100.625 102.599 100.657 102.792C100.688 102.985 100.675 103.182 100.618 103.369C100.561 103.556 100.461 103.727 100.328 103.87Z" fill="#F5F5F5"/>
<path d="M245.153 77.1525L230.242 68.5399L229.158 93.7018L245.153 102.977V77.1525Z" fill="#6ED0FF"/>
<path d="M245.152 102.977L252.605 98.6743L248.136 75.4313L245.152 77.1525V102.977Z" fill="#37474F"/>
<path d="M252.605 98.6742L247.741 98.0431L245.152 102.977L252.605 98.6742Z" fill="#37474F"/>
<path d="M252.605 98.6742L247.741 98.0431L245.152 102.977L252.605 98.6742Z" fill="#37474F"/>
<path d="M252.605 98.6742L247.741 98.0431L245.152 102.977L252.605 98.6742Z" fill="#6ED0FF"/>
<path opacity="0.1" d="M252.605 98.6742L247.741 98.0431L245.152 102.977L252.605 98.6742Z" fill="black"/>
<path d="M247.741 98.0431L245.152 75.4313V77.1525V102.977L247.741 98.0431Z" fill="#6ED0FF"/>
<path opacity="0.2" d="M247.741 98.0431L245.152 75.4313V77.1525V102.977L247.741 98.0431Z" fill="black"/>
<path d="M230.242 68.5399L232.85 68.3487L233.226 66.8187L248.137 75.4312H245.153V77.1525L230.242 68.5399Z" fill="#6ED0FF"/>
<path opacity="0.2" d="M230.242 68.5399L232.85 68.3487L233.226 66.8187L248.137 75.4312H245.153V77.1525L230.242 68.5399Z" fill="black"/>
<path d="M240.283 76.0815C240.283 76.2982 240.123 76.3939 239.932 76.2791C239.832 76.2132 239.748 76.1247 239.688 76.0206C239.629 75.9165 239.594 75.7998 239.588 75.6799C239.588 75.4567 239.741 75.3675 239.932 75.4759C240.034 75.542 240.119 75.6314 240.18 75.7366C240.241 75.8419 240.276 75.96 240.283 76.0815Z" fill="#6ED0FF"/>
<path opacity="0.3" d="M240.283 76.0815C240.283 76.2982 240.123 76.3939 239.932 76.2791C239.832 76.2132 239.748 76.1247 239.688 76.0206C239.629 75.9165 239.594 75.7998 239.588 75.6799C239.588 75.4567 239.741 75.3675 239.932 75.4759C240.034 75.542 240.119 75.6314 240.18 75.7366C240.241 75.8419 240.276 75.96 240.283 76.0815Z" fill="black"/>
<path d="M235.858 73.455C235.858 73.6781 235.699 73.7674 235.507 73.659C235.402 73.5894 235.315 73.4948 235.255 73.3836C235.195 73.2723 235.163 73.1479 235.163 73.0215C235.163 72.8047 235.316 72.7091 235.507 72.8239C235.613 72.8925 235.7 72.9859 235.761 73.0959C235.822 73.2059 235.855 73.3292 235.858 73.455Z" fill="#6ED0FF"/>
<path opacity="0.3" d="M235.858 73.455C235.858 73.6781 235.699 73.7674 235.507 73.659C235.402 73.5894 235.315 73.4948 235.255 73.3836C235.195 73.2723 235.163 73.1479 235.163 73.0215C235.163 72.8047 235.316 72.7091 235.507 72.8239C235.613 72.8925 235.7 72.9859 235.761 73.0959C235.822 73.2059 235.855 73.3292 235.858 73.455Z" fill="black"/>
<g style="mix-blend-mode:multiply">
<path d="M243.272 74.3156C243.272 74.5387 243.113 74.628 242.921 74.5196C242.82 74.4531 242.736 74.3635 242.676 74.2582C242.616 74.153 242.582 74.035 242.577 73.914C242.577 73.6972 242.73 73.608 242.921 73.7164C243.023 73.7819 243.107 73.8702 243.168 73.9743C243.229 74.0784 243.264 74.1953 243.272 74.3156Z" fill="#6ED0FF"/>
</g>
<g style="mix-blend-mode:multiply" opacity="0.2">
<path d="M243.272 74.3156C243.272 74.5387 243.113 74.628 242.921 74.5196C242.82 74.4531 242.736 74.3635 242.676 74.2582C242.616 74.153 242.582 74.035 242.577 73.914C242.577 73.6972 242.73 73.608 242.921 73.7164C243.023 73.7819 243.107 73.8702 243.168 73.9743C243.229 74.0784 243.264 74.1953 243.272 74.3156Z" fill="black"/>
</g>
<g style="mix-blend-mode:multiply">
<path d="M238.811 71.6955C238.811 71.9186 238.652 72.0079 238.46 71.8995C238.359 71.833 238.275 71.7435 238.215 71.6382C238.156 71.5329 238.122 71.4149 238.116 71.2939C238.116 71.0771 238.269 70.9815 238.46 71.0963C238.562 71.1618 238.646 71.2501 238.707 71.3542C238.768 71.4583 238.804 71.5752 238.811 71.6955Z" fill="#6ED0FF"/>
</g>
<g style="mix-blend-mode:multiply" opacity="0.2">
<path d="M238.811 71.6955C238.811 71.9186 238.652 72.0079 238.46 71.8995C238.359 71.833 238.275 71.7435 238.215 71.6382C238.156 71.5329 238.122 71.4149 238.116 71.2939C238.116 71.0771 238.269 70.9815 238.46 71.0963C238.562 71.1618 238.646 71.2501 238.707 71.3542C238.768 71.4583 238.804 71.5752 238.811 71.6955Z" fill="black"/>
</g>
<path d="M248.136 75.4313H245.152L247.741 98.0431L252.605 98.6743L248.136 75.4313Z" fill="#6ED0FF"/>
<path d="M233.225 66.8187L232.849 68.3487L233.225 70.2612L233.977 70.701L233.225 66.8187Z" fill="#6ED0FF"/>
<path d="M228.209 25.031C230.281 25.031 234.45 25.7067 236.611 35.1799C237.102 37.3282 237.51 39.6742 237.886 42.6896C238.466 47.152 239.161 50.8367 239.709 55.0569C239.786 55.6434 240.066 57.371 240.136 57.9065C240.532 60.7689 241.329 62.5602 241.329 64.7341C241.003 66.0473 240.245 67.5008 237.312 67.8004C234.558 66.9143 235.094 66.4872 235.03 64.0201C234.966 61.553 235.738 60.9856 235.489 58.0468C234.431 51.079 232.346 39.2025 232.346 39.2025L228.209 25.031Z" fill="#FFA8A7"/>
<path d="M242.89 74.3156C242.843 74.315 242.798 74.2981 242.762 74.2679C242.726 74.2377 242.701 74.196 242.692 74.1499C242.692 74.1499 242.176 71.0835 241.538 68.7758C241.028 66.9462 239.728 66.4681 238.58 66.0473C238.325 65.9581 238.083 65.8688 237.873 65.7732C237.849 65.7628 237.827 65.7478 237.809 65.729C237.791 65.7102 237.777 65.688 237.767 65.6637C237.758 65.6395 237.753 65.6135 237.754 65.5874C237.755 65.5614 237.76 65.5357 237.771 65.5118C237.781 65.4879 237.796 65.4663 237.815 65.4482C237.834 65.4301 237.856 65.4159 237.88 65.4064C237.905 65.3969 237.931 65.3923 237.957 65.3929C237.983 65.3935 238.008 65.3993 238.032 65.4098C238.243 65.5054 238.472 65.5883 238.714 65.6776C239.894 66.1047 241.354 66.6402 241.902 68.6674C242.539 71.0006 243.068 74.0542 243.075 74.0861C243.082 74.1384 243.069 74.1915 243.038 74.2343C243.007 74.2771 242.961 74.3062 242.909 74.3156H242.89Z" fill="#455A64"/>
<path d="M239.932 62.1331C239.427 62.9655 239.037 63.8617 238.771 64.7978C238.669 65.3015 237.86 64.8552 237.707 64.1604C237.629 63.0993 237.629 62.034 237.707 60.9729C237.447 61.9539 237.331 62.9675 237.363 63.9819C237.528 64.9636 237.79 65.1803 238.465 65.4226C239.141 65.6648 239.103 65.0465 239.294 64.2368C239.485 63.4272 239.932 62.1331 239.932 62.1331Z" fill="#F28F8F"/>
<path d="M239.761 75.6671V69.7002C239.761 68.3742 239.761 66.8761 237.612 65.6138C236.847 65.1676 236.267 65.0273 235.98 65.2122C235.694 65.3971 235.732 65.8943 235.732 65.9007V73.2191C235.732 73.2715 235.711 73.3218 235.674 73.3589C235.637 73.3959 235.587 73.4168 235.534 73.4168C235.482 73.4168 235.432 73.3959 235.394 73.3589C235.357 73.3218 235.337 73.2715 235.337 73.2191V65.9198C235.318 65.7234 235.347 65.5253 235.423 65.343C235.499 65.1607 235.618 64.9998 235.77 64.8743C236.204 64.6002 236.886 64.7341 237.81 65.2696C240.169 66.6529 240.162 68.3423 240.156 69.7002V75.6671C240.156 75.7195 240.135 75.7698 240.098 75.8069C240.061 75.8439 240.011 75.8647 239.958 75.8647C239.906 75.8647 239.856 75.8439 239.819 75.8069C239.782 75.7698 239.761 75.7195 239.761 75.6671Z" fill="#455A64"/>
<path d="M238.466 71.6955C238.419 71.6961 238.373 71.6797 238.337 71.6493C238.3 71.6189 238.276 71.5765 238.268 71.5298L237.535 67.0099C237.526 66.9584 237.538 66.9052 237.568 66.8622C237.597 66.8192 237.643 66.7897 237.695 66.7804C237.747 66.773 237.8 66.7861 237.843 66.817C237.886 66.8479 237.915 66.8942 237.924 66.9462L238.664 71.4469C238.673 71.4985 238.661 71.5516 238.632 71.5946C238.602 71.6377 238.556 71.6671 238.504 71.6764L238.466 71.6955Z" fill="#455A64"/>
<path d="M237.121 65.3333C236.037 64.8935 234.896 64.0584 234.495 64.511C234.299 64.7498 234.164 65.0324 234.101 65.3347C234.039 65.637 234.05 65.95 234.135 66.2469C234.219 66.5438 234.374 66.8159 234.587 67.0398C234.8 67.2637 235.063 67.4328 235.355 67.5327C236.591 67.9504 237.936 67.9074 239.142 67.4116L237.121 65.3333Z" fill="#FFA8A7"/>
<path d="M226.641 24.8079C229.873 24.8079 233.774 25.8279 235.33 28.8177C236.994 32.0052 238.09 40.554 238.09 40.554C238.09 40.554 236.866 43.1868 232.353 42.8936L226.641 24.8079Z" fill="#37474F"/>
<path d="M200.822 104.431C200.019 104.01 199.502 105.036 198.776 105.859C198.259 106.433 197.462 107.344 197.341 108.001C197.169 108.976 198.042 110.506 199.011 111.348C199.98 112.189 201.109 112.795 201.459 114.643C201.548 115.491 201.877 116.296 202.406 116.965C202.936 117.633 203.644 118.137 204.449 118.417C206.547 119.323 209.358 119.055 210.314 118.417C211.442 117.684 210.41 116.887 208.829 114.592C206.763 111.634 205.15 109.524 205.15 106.764L200.822 104.431Z" fill="#263238"/>
<path d="M202.473 102.008L200.777 104.495C200.418 105.012 200.277 105.649 200.385 106.27C200.492 106.89 200.839 107.443 201.351 107.81L201.402 107.841C201.916 108.155 202.524 108.276 203.12 108.184C203.715 108.092 204.258 107.792 204.653 107.338L207.299 104.45L202.473 102.008Z" fill="#FFA8A7"/>
<path d="M233.646 53.4696C233.755 56.657 232.856 69.4515 230.669 75.1444C228.483 80.8372 227.208 84.3306 226.519 85.51C225.831 86.6894 205.979 106.018 205.979 106.018C205.979 106.018 202.607 105.77 202.071 102.506C202.071 102.506 210.206 88.6783 211.972 85.8415C213.737 83.0047 219.972 78.6569 219.972 78.6569L219.405 53.8521L233.646 53.4696Z" fill="#37474F"/>
<path d="M229.271 121.006L233.467 120.052L232.077 113.941L227.881 114.895L229.271 121.006Z" fill="#FFA8A7"/>
<path d="M233.646 53.4696H213.514C213.335 55.7008 212.876 56.9503 212.755 62.3435C212.602 71.0708 220.717 86.9252 220.717 86.9252C220.615 88.111 220.112 93.0834 221.24 97.4885C223.025 104.444 227.876 116.205 227.876 116.205C227.876 116.205 230.911 116.639 232.422 114.886C232.422 114.886 229.738 90.9925 229.011 84.8725C228.227 78.249 226.219 66.1557 226.219 66.1557C227.548 64.8289 228.753 63.3844 229.821 61.8399C231.683 59.3573 232.987 56.5022 233.646 53.4696Z" fill="#37474F"/>
<path d="M206.074 48.5226C206.979 39.1897 209.803 32.6299 210.218 30.284L212.959 41.8353C212.096 44.934 211.413 48.08 210.913 51.2575C210.798 52.0544 209.497 58.9903 209.701 61.9483C209.736 62.4704 209.963 62.9612 210.339 63.3252C211.346 64.3134 211.646 65.1676 212.321 66.2768C212.851 67.1502 213.399 67.4562 213.259 67.6666C213.071 67.8899 212.806 68.0342 212.516 68.0708C212.227 68.1074 211.934 68.0337 211.697 67.8642C211.161 67.4989 210.671 67.0709 210.237 66.5892C210.409 67.7329 210.764 68.8415 211.289 69.8723C212.481 72.2374 212.283 73.4805 208.975 72.7856C206.903 72.3458 205.532 70.7074 204.984 65.8051C204.884 64.0382 204.894 62.2667 205.016 60.5011C205.175 56.3893 205.8 51.3212 206.074 48.5226Z" fill="#FFA8A7"/>
<path d="M219.991 24.9991C216.134 25.9299 210.868 27.1411 209.345 31.3231C207.821 35.505 206.157 43.4354 206.157 43.4354C207.362 44.8443 211.111 45.5838 212.73 44.7104L213.488 42.2051V53.4377C216.504 56.7208 227.029 58.2508 233.62 53.4377V32.4833C233.62 29.1301 231.759 25.1075 226.608 24.8334L219.991 24.9991Z" fill="#455A64"/>
<path d="M213.515 42.2306L215.446 36.1425L213.515 44.959V42.2306Z" fill="#37474F"/>
<path d="M218.545 7.84416C218.198 7.79784 217.846 7.83119 217.515 7.94167C217.183 8.05214 216.881 8.23683 216.632 8.48165C215.816 9.31677 215.995 10.8595 216.632 14.404L219.15 14.6972L218.545 7.84416Z" fill="#263238"/>
<path d="M233.232 6.81782C233.773 6.82049 234.309 6.712 234.807 6.49907C235.578 6.05283 235.782 6.93257 235.361 7.69118C235.079 8.23736 234.662 8.70255 234.15 9.04277C233.638 9.383 233.048 9.58702 232.435 9.63554C232.435 9.52717 231.715 7.66569 231.715 7.66569L233.232 6.81782Z" fill="#263238"/>
<path d="M219.724 14.7355C219.348 14.9586 218.819 14.2382 218.354 13.7537C218.172 13.5462 217.941 13.3883 217.682 13.2951C217.422 13.2019 217.144 13.1765 216.872 13.2212C216.6 13.2659 216.344 13.3792 216.128 13.5505C215.912 13.7218 215.743 13.9453 215.638 14.2C214.873 15.8128 216.613 17.9548 217.633 18.6624C217.918 18.9093 218.274 19.06 218.649 19.0932C219.024 19.1264 219.401 19.0403 219.724 18.8473L219.992 25.0119C220.443 26.0007 221.132 26.8623 221.998 27.5198C222.863 28.1772 223.878 28.61 224.952 28.7794C228.573 29.2703 227.827 26.2805 226.641 24.8206V22.5766C227.546 22.7715 228.476 22.8189 229.395 22.7169C229.867 22.5894 230.995 21.2315 231.722 19.7015C232.538 17.993 233.896 14.9522 232.685 9.81401C231.41 4.29331 225.455 4.12756 221.917 6.35242C218.379 8.57727 219.724 14.7355 219.724 14.7355Z" fill="#FFA8A7"/>
<path d="M219.723 15.373C219.538 15.373 218.818 14.1872 218.352 13.7601C217.715 13.1736 218.544 7.86329 218.544 7.86329C218.544 7.86329 217.906 5.84244 219.181 4.51007C220.456 3.17771 222.93 3.39446 224.734 3.33071C226.951 3.35108 229.148 2.91717 231.191 2.05573C233.741 0.940112 233.952 0.780737 234.271 1.9346C234.589 3.08846 234.71 5.64481 233.18 7.37242L232.345 8.73028C232.345 8.73028 231.568 9.36778 229.158 9.68015C226.748 9.99252 222.687 8.68566 222.145 8.61553C221.457 8.51991 221.304 9.19565 220.934 11.0316C220.628 12.6062 220.354 15.373 219.723 15.373Z" fill="#263238"/>
<path d="M218.544 8.25216L216.287 7.04092C216.439 6.73951 216.704 6.51055 217.024 6.4042C217.344 6.29785 217.694 6.32279 217.996 6.47355C218.299 6.64217 218.525 6.92132 218.627 7.25273C218.729 7.58413 218.699 7.94219 218.544 8.25216Z" fill="#263238"/>
<path d="M226.634 22.5639C226.634 22.5639 223.281 21.8881 222.108 21.2889C221.419 20.9297 220.852 20.3724 220.482 19.6888C220.658 20.3822 220.973 21.0328 221.407 21.6013C222.261 22.6978 226.634 23.5138 226.634 23.5138V22.5639Z" fill="#F28F8F"/>
<path d="M226.743 14.6016C226.738 14.734 226.694 14.8621 226.617 14.9698C226.539 15.0775 226.432 15.1602 226.308 15.2074C226.184 15.2547 226.049 15.2645 225.92 15.2356C225.791 15.2067 225.673 15.1404 225.581 15.045C225.489 14.9495 225.427 14.8292 225.403 14.6988C225.379 14.5685 225.394 14.4339 225.445 14.3119C225.497 14.1899 225.584 14.0859 225.694 14.0127C225.805 13.9395 225.934 13.9004 226.067 13.9003C226.157 13.902 226.246 13.9215 226.329 13.9576C226.412 13.9937 226.487 14.0459 226.55 14.111C226.613 14.1761 226.662 14.2529 226.695 14.3371C226.728 14.4213 226.744 14.5112 226.743 14.6016Z" fill="#263238"/>
<path d="M226.06 12.0644L224.619 12.8549C224.516 12.6581 224.494 12.4288 224.557 12.2158C224.62 12.0028 224.763 11.8227 224.957 11.7138C225.052 11.6614 225.156 11.6289 225.264 11.6182C225.372 11.6076 225.481 11.619 225.584 11.6518C225.687 11.6846 225.783 11.7381 225.864 11.8091C225.946 11.88 226.013 11.9669 226.06 12.0644Z" fill="#263238"/>
<path d="M226.327 19.0959L227.863 19.6697C227.83 19.7728 227.776 19.8681 227.704 19.95C227.633 20.0318 227.546 20.0985 227.449 20.1461C227.351 20.1937 227.245 20.2212 227.137 20.2269C227.028 20.2327 226.92 20.2166 226.818 20.1796C226.612 20.097 226.446 19.9381 226.355 19.7363C226.264 19.5344 226.254 19.305 226.327 19.0959Z" fill="#F28F8F"/>
<path d="M232.735 12.619L231.422 11.6118C231.483 11.5226 231.562 11.4471 231.654 11.3897C231.746 11.3324 231.848 11.2944 231.955 11.2783C232.062 11.2622 232.171 11.2682 232.276 11.2959C232.38 11.3237 232.478 11.3726 232.563 11.4396C232.738 11.576 232.854 11.7749 232.886 11.9947C232.918 12.2145 232.864 12.4382 232.735 12.619Z" fill="#263238"/>
<path d="M232.327 14.4103C232.322 14.543 232.278 14.6713 232.2 14.7792C232.123 14.887 232.015 14.9697 231.891 15.0167C231.767 15.0638 231.631 15.0732 231.502 15.0438C231.372 15.0144 231.254 14.9475 231.163 14.8514C231.071 14.7553 231.009 14.6344 230.986 14.5036C230.963 14.3729 230.978 14.2381 231.031 14.1163C231.084 13.9944 231.172 13.8908 231.283 13.8183C231.394 13.7459 231.524 13.7079 231.657 13.7091C231.747 13.7107 231.836 13.7302 231.919 13.7665C232.001 13.8027 232.076 13.8549 232.138 13.9201C232.2 13.9853 232.249 14.0622 232.281 14.1464C232.314 14.2305 232.329 14.3202 232.327 14.4103Z" fill="#263238"/>
<path d="M229.165 14.3275L228.527 18.3246L230.746 18.0632L229.165 14.3275Z" fill="#F28F8F"/>
<path d="M232.99 118.009L232.856 117.41C233.296 117.493 235.176 120.598 237.051 121.981C239.097 123.473 240.876 124.352 241.787 125.022C243.011 125.921 241.239 127.757 238.23 127.922C236.732 128.005 234.01 127.546 233.175 126.756C232.339 125.965 231.727 124.639 231.064 124.066C230.402 123.492 229.05 122.995 228.597 122.262C228.347 121.537 228.258 120.767 228.336 120.005C228.336 119.214 228.387 118.354 228.655 118.366C228.655 118.456 228.763 118.825 228.763 118.825C229.552 119.226 230.429 119.419 231.313 119.386C232.021 119.323 233.34 119.157 232.99 118.009Z" fill="#263238"/>
<path d="M228.482 80.818C228.482 80.818 226.697 68.1192 226.219 66.1557C226.219 66.1557 229.1 64.5556 230.19 63.3061C229.363 64.4986 228.455 65.6338 227.475 66.7039L228.482 80.818Z" fill="#263238"/>
<path d="M217.703 80.3973C217.703 80.3973 219.851 85.7459 220.718 86.9252C220.718 86.9252 220.502 90.9988 220.534 91.8212L219.405 92.8093C219.372 90.9647 219.541 89.122 219.909 87.3141C218.923 85.0961 218.183 82.7766 217.703 80.3973Z" fill="#263238"/>
<path d="M77.1478 159.364L155.215 114.287C155.557 114.113 155.935 114.023 156.318 114.023C156.701 114.023 157.079 114.113 157.421 114.287L207.005 142.916C207.327 143.125 207.595 143.408 207.786 143.74C207.978 144.073 208.088 144.446 208.108 144.829V145.269C208.088 145.652 207.977 146.025 207.786 146.357C207.594 146.689 207.327 146.972 207.005 147.181L128.938 192.252C128.597 192.427 128.221 192.518 127.838 192.518C127.456 192.518 127.079 192.427 126.738 192.252L77.1414 163.144C76.8215 162.934 76.5555 162.651 76.365 162.319C76.1746 161.986 76.0649 161.614 76.0449 161.232C76.0705 160.856 76.1835 160.491 76.375 160.167C76.5664 159.843 76.8311 159.568 77.1478 159.364Z" fill="#6ED0FF"/>
<g opacity="0.2">
<path opacity="0.2" d="M77.1478 159.364L155.215 114.287C155.557 114.113 155.935 114.023 156.318 114.023C156.701 114.023 157.079 114.113 157.421 114.287L207.005 142.916C207.327 143.125 207.595 143.408 207.786 143.74C207.978 144.073 208.088 144.446 208.108 144.829V145.269C208.088 145.652 207.977 146.025 207.786 146.357C207.594 146.689 207.327 146.972 207.005 147.181L128.938 192.252C128.597 192.427 128.221 192.518 127.838 192.518C127.456 192.518 127.079 192.427 126.738 192.252L77.1414 163.144C76.8215 162.934 76.5555 162.651 76.365 162.319C76.1746 161.986 76.0649 161.614 76.0449 161.232C76.0705 160.856 76.1835 160.491 76.375 160.167C76.5664 159.843 76.8311 159.568 77.1478 159.364Z" fill="white"/>
</g>
<path d="M76.0449 161.251C76.0649 161.633 76.1746 162.005 76.365 162.338C76.5555 162.67 76.8215 162.953 77.1414 163.163L126.738 192.265C127.089 192.406 127.459 192.496 127.835 192.533V183.92L125.247 149.534L96.7635 148.035L77.1478 159.364C76.8286 159.569 76.5624 159.848 76.3708 160.175C76.1792 160.503 76.0675 160.872 76.0449 161.251Z" fill="#6ED0FF"/>
<path d="M76.0449 161.251C76.0649 161.633 76.1746 162.005 76.365 162.338C76.5555 162.67 76.8215 162.953 77.1414 163.163L126.738 192.265C127.089 192.406 127.459 192.496 127.835 192.533V183.92L125.247 149.534L96.7635 148.035L77.1478 159.364C76.8286 159.569 76.5624 159.848 76.3708 160.175C76.1792 160.503 76.0675 160.872 76.0449 161.251Z" fill="#6ED0FF"/>
<g opacity="0.2">
<path opacity="0.2" d="M76.0449 161.251C76.0649 161.633 76.1746 162.005 76.365 162.338C76.5555 162.67 76.8215 162.953 77.1414 163.163L126.738 192.265C127.089 192.406 127.459 192.496 127.835 192.533V183.92L125.247 149.534L96.7635 148.035L77.1478 159.364C76.8286 159.569 76.5624 159.848 76.3708 160.175C76.1792 160.503 76.0675 160.872 76.0449 161.251Z" fill="black"/>
</g>
<path d="M157.421 114.287L207.005 142.916C207.14 142.96 207.258 143.045 207.342 143.159C207.426 143.274 207.471 143.412 207.471 143.554C207.471 143.696 207.426 143.834 207.342 143.948C207.258 144.063 207.14 144.148 207.005 144.191L128.938 189.262C128.596 189.435 128.218 189.525 127.835 189.525C127.452 189.525 127.074 189.435 126.732 189.262L77.1479 160.639C77.0159 160.592 76.9015 160.506 76.8206 160.392C76.7397 160.278 76.6963 160.141 76.6963 160.001C76.6963 159.861 76.7397 159.725 76.8206 159.611C76.9015 159.496 77.0159 159.41 77.1479 159.364L155.215 114.287C155.557 114.113 155.935 114.023 156.318 114.023C156.701 114.023 157.079 114.113 157.421 114.287Z" fill="white"/>
<path d="M120.472 146.697C120.33 146.684 120.193 146.638 120.071 146.563L115.226 143.764C115.079 143.681 115.003 143.599 114.99 143.528C114.977 143.458 115.041 143.375 115.175 143.299L117.336 142.056C117.83 141.75 118.399 141.588 118.981 141.588C119.562 141.588 120.131 141.75 120.625 142.056C120.842 142.164 121.023 142.332 121.148 142.54C121.194 142.615 121.218 142.701 121.218 142.789C121.218 142.877 121.194 142.963 121.148 143.038C121.47 142.955 121.805 142.938 122.133 142.987C122.462 143.036 122.777 143.151 123.061 143.324C123.564 143.618 123.826 143.962 123.845 144.306C123.864 144.65 123.571 145.026 122.978 145.371L120.874 146.55C120.758 146.639 120.618 146.69 120.472 146.697ZM119.287 143.509C119.433 143.42 119.51 143.331 119.503 143.235C119.497 143.14 119.414 143.037 119.248 142.942C119.097 142.847 118.923 142.795 118.745 142.789C118.579 142.792 118.416 142.838 118.273 142.923L117.476 143.388L118.49 143.968L119.287 143.509ZM121.658 144.74C121.817 144.65 121.881 144.548 121.862 144.44C121.841 144.372 121.806 144.31 121.759 144.257C121.711 144.204 121.653 144.162 121.588 144.134C121.416 144.03 121.221 143.973 121.021 143.968C120.839 143.964 120.661 144.01 120.504 144.102L119.612 144.618L120.74 145.256L121.658 144.74Z" fill="#2DBDFF"/>
<path d="M124.526 144.268C124.478 144.234 124.435 144.194 124.399 144.147L121.147 140.15C121.097 140.092 121.064 140.021 121.052 139.946C121.052 139.895 121.103 139.844 121.198 139.793L121.836 139.41C121.919 139.36 122.013 139.332 122.11 139.327C122.227 139.329 122.343 139.348 122.454 139.385L129.384 141.259C129.453 141.271 129.52 141.295 129.581 141.329C129.632 141.329 129.658 141.386 129.658 141.418C129.658 141.45 129.658 141.482 129.588 141.508L128.466 142.145C128.401 142.181 128.329 142.202 128.255 142.209C128.171 142.213 128.086 142.2 128.007 142.171L126.949 141.858L125.431 142.732L125.986 143.337C126.007 143.356 126.023 143.378 126.034 143.403C126.045 143.429 126.05 143.456 126.05 143.484C126.025 143.538 125.982 143.581 125.929 143.605L124.813 144.242C124.772 144.272 124.724 144.29 124.673 144.295C124.623 144.299 124.572 144.29 124.526 144.268ZM125.514 141.393L123.646 140.832L124.628 141.909L125.514 141.393Z" fill="#2DBDFF"/>
<path d="M130.221 141.036C130.078 141.023 129.941 140.977 129.819 140.902L124.968 138.097C124.823 138.016 124.747 137.94 124.738 137.867C124.73 137.795 124.793 137.719 124.929 137.638L125.503 137.306C125.58 137.26 125.664 137.228 125.752 137.211C125.857 137.192 125.965 137.192 126.07 137.211L130.533 137.848L127.983 136.369C127.843 136.286 127.76 136.204 127.747 136.133C127.734 136.063 127.798 135.98 127.932 135.904L128.64 135.496C128.761 135.423 128.9 135.386 129.041 135.388C129.186 135.4 129.325 135.446 129.449 135.521L134.3 138.326C134.445 138.407 134.521 138.484 134.53 138.556C134.53 138.626 134.466 138.703 134.326 138.785L133.759 139.111C133.682 139.159 133.598 139.194 133.51 139.213C133.407 139.231 133.301 139.231 133.198 139.213L128.735 138.575L131.285 140.06C131.43 140.145 131.506 140.222 131.515 140.29C131.515 140.36 131.451 140.437 131.311 140.519L130.609 140.927C130.492 140.998 130.358 141.035 130.221 141.036Z" fill="#2DBDFF"/>
<path d="M139.559 135.579C139.604 135.579 139.636 135.636 139.636 135.668C139.636 135.7 139.636 135.732 139.566 135.757L138.444 136.395C138.388 136.428 138.328 136.453 138.265 136.471C138.207 136.484 138.146 136.484 138.087 136.471L134.306 135.929L136.353 137.115C136.499 137.198 136.576 137.275 136.589 137.351C136.601 137.428 136.531 137.498 136.391 137.581L135.683 137.982C135.568 138.059 135.433 138.099 135.295 138.097C135.151 138.085 135.013 138.037 134.893 137.957L130.048 135.164C129.901 135.082 129.825 134.999 129.812 134.929C129.799 134.858 129.863 134.776 129.997 134.699L130.698 134.291C130.82 134.219 130.959 134.181 131.1 134.183C131.245 134.194 131.385 134.24 131.508 134.317L133.516 135.477L132.56 133.354C132.55 133.338 132.545 133.319 132.545 133.3C132.545 133.281 132.55 133.262 132.56 133.246C132.599 133.201 132.647 133.164 132.7 133.137L133.816 132.5C133.863 132.474 133.915 132.461 133.969 132.462C134.025 132.46 134.08 132.476 134.128 132.506C134.178 132.531 134.217 132.574 134.236 132.627L135.186 134.967L139.349 135.509C139.424 135.515 139.496 135.539 139.559 135.579Z" fill="#2DBDFF"/>
<path d="M142.409 133.386C141.376 133.351 140.368 133.053 139.483 132.519C138.508 131.951 138.004 131.397 137.959 130.836C137.915 130.275 138.329 129.759 139.183 129.261C139.543 129.054 139.923 128.885 140.318 128.758C140.682 128.638 141.058 128.561 141.44 128.528C141.519 128.519 141.6 128.534 141.67 128.573C141.719 128.605 141.761 128.649 141.791 128.7L142.09 129.236C142.135 129.293 142.135 129.338 142.09 129.363C142.026 129.394 141.957 129.411 141.886 129.414C141.437 129.473 141.003 129.62 140.611 129.848C140.159 130.103 139.974 130.39 140.018 130.702C140.063 131.014 140.388 131.339 140.968 131.677C141.488 131.993 142.076 132.177 142.683 132.213C143.212 132.243 143.738 132.122 144.2 131.862C144.534 131.696 144.805 131.425 144.972 131.091C144.992 131.046 145.022 131.006 145.061 130.976C145.131 130.952 145.207 130.952 145.278 130.976L146.247 131.155C146.313 131.166 146.378 131.187 146.438 131.218C146.462 131.232 146.482 131.253 146.494 131.278C146.507 131.303 146.512 131.331 146.508 131.359C146.425 131.779 145.985 132.219 145.195 132.672C144.352 133.166 143.386 133.414 142.409 133.386Z" fill="#2DBDFF"/>
<path d="M146.922 131.34C146.871 131.306 146.826 131.266 146.788 131.218L143.543 127.221C143.486 127.168 143.451 127.095 143.447 127.017C143.447 126.966 143.498 126.915 143.588 126.864L144.225 126.482C144.306 126.431 144.398 126.403 144.493 126.399C144.612 126.4 144.73 126.42 144.843 126.456L151.773 128.331C151.84 128.342 151.905 128.366 151.964 128.401C152.015 128.401 152.041 128.458 152.041 128.49C152.041 128.522 152.041 128.554 151.971 128.579L150.849 129.217C150.786 129.253 150.717 129.275 150.645 129.28C150.56 129.284 150.475 129.271 150.396 129.242L149.338 128.93L147.814 129.81L148.375 130.447C148.42 130.498 148.445 130.549 148.432 130.587C148.42 130.626 148.388 130.67 148.311 130.708L147.196 131.346C147.154 131.37 147.106 131.382 147.058 131.38C147.01 131.379 146.962 131.365 146.922 131.34ZM147.903 128.464L146.042 127.903L147.024 128.981L147.903 128.464Z" fill="#2DBDFF"/>
<path d="M152.614 128.107C152.469 128.095 152.33 128.049 152.206 127.974L147.361 125.175C147.221 125.092 147.144 125.016 147.132 124.939C147.119 124.863 147.176 124.792 147.316 124.71L149.095 123.683C149.678 123.311 150.354 123.113 151.046 123.113C151.737 123.113 152.414 123.311 152.997 123.683C153.793 124.142 154.074 124.614 153.844 125.098L156.363 125.736C156.418 125.746 156.472 125.766 156.522 125.793C156.542 125.803 156.561 125.817 156.575 125.835C156.589 125.853 156.599 125.873 156.605 125.895C156.605 125.934 156.605 125.965 156.528 125.997L155.515 126.584C155.45 126.618 155.382 126.644 155.311 126.66C155.24 126.679 155.165 126.679 155.094 126.66L152.793 126.023L152.232 126.348L153.672 127.177C153.819 127.26 153.895 127.342 153.902 127.413C153.908 127.483 153.851 127.559 153.711 127.642L153.003 128.05C152.881 128.104 152.746 128.124 152.614 128.107ZM151.575 125.296C152.015 125.041 151.996 124.78 151.53 124.512C151.335 124.381 151.107 124.307 150.871 124.298C150.636 124.289 150.403 124.346 150.198 124.461L149.624 124.792L151.039 125.608L151.575 125.296Z" fill="#2DBDFF"/>
<path d="M157.212 125.449C157.069 125.436 156.932 125.39 156.81 125.315L151.965 122.517C151.825 122.434 151.742 122.357 151.729 122.281C151.716 122.204 151.78 122.134 151.914 122.058L153.514 121.133C154.295 120.669 155.188 120.429 156.096 120.438C157.089 120.486 158.054 120.784 158.901 121.305C159.851 121.86 160.348 122.395 160.386 122.918C160.425 123.441 160.029 123.945 159.201 124.423L157.607 125.341C157.489 125.416 157.351 125.454 157.212 125.449ZM158.053 123.683C158.404 123.479 158.538 123.262 158.461 123.046C158.385 122.829 158.047 122.517 157.441 122.166C156.982 121.871 156.468 121.674 155.93 121.586C155.538 121.537 155.141 121.62 154.802 121.822L154.228 122.153L157.479 124.034L158.053 123.683Z" fill="#2DBDFF"/>
<path d="M118.695 178.027L129.632 171.772C129.913 171.632 130.224 171.559 130.539 171.559C130.854 171.559 131.165 171.632 131.447 171.772L140.255 176.81C140.366 176.845 140.462 176.914 140.531 177.007C140.6 177.1 140.636 177.213 140.636 177.328C140.636 177.443 140.6 177.555 140.531 177.648C140.462 177.741 140.366 177.81 140.255 177.846L129.318 184.095C129.037 184.236 128.727 184.309 128.413 184.309C128.099 184.309 127.789 184.236 127.508 184.095L118.695 179.062C118.586 179.025 118.493 178.955 118.426 178.862C118.36 178.769 118.324 178.658 118.324 178.545C118.324 178.431 118.36 178.32 118.426 178.227C118.493 178.135 118.586 178.064 118.695 178.027Z" fill="#E0E0E0"/>
<path d="M134.642 183.671L127.021 179.339C126.742 179.18 126.427 179.097 126.106 179.097C125.786 179.097 125.471 179.18 125.192 179.339L119.86 182.427L119.599 181.975L124.93 178.882C125.288 178.678 125.692 178.571 126.104 178.571C126.515 178.571 126.92 178.678 127.277 178.882L134.898 183.214L134.642 183.671Z" fill="white"/>
<path d="M132.419 177.296C132.012 177.297 131.611 177.186 131.258 176.975L124.062 172.649L124.315 172.196L131.517 176.517C131.792 176.682 132.104 176.769 132.422 176.769C132.739 176.769 133.051 176.682 133.326 176.517L138.47 173.429L138.724 173.888L133.58 176.975C133.227 177.187 132.826 177.298 132.419 177.296Z" fill="white"/>
<path d="M130.377 176.021L130.104 175.594L136.355 172.355L134.683 171.486L128.159 174.868L127.886 174.446L134.683 170.921L137.448 172.355L130.377 176.021Z" fill="white"/>
<path d="M124.084 184.946L121.512 183.513L128.123 179.846L128.377 180.268L122.532 183.513L124.084 184.377L130.183 180.975L130.437 181.397L124.084 184.946Z" fill="white"/>
<path d="M111.357 172.502L123.584 165.445C124.097 165.184 124.665 165.048 125.241 165.048C125.817 165.048 126.385 165.184 126.899 165.445L128.76 166.523C129.678 167.046 129.678 167.906 128.76 168.435L116.539 175.492C116.026 175.753 115.458 175.889 114.882 175.889C114.306 175.889 113.738 175.753 113.224 175.492L111.357 174.415C110.445 173.886 110.445 173.025 111.357 172.502Z" fill="#6ED0FF"/>
<g opacity="0.7">
<path opacity="0.7" d="M111.993 172.502L124.22 165.445C124.734 165.184 125.302 165.048 125.878 165.048C126.454 165.048 127.022 165.184 127.535 165.445L129.397 166.523C130.315 167.046 130.315 167.906 129.397 168.435L117.176 175.492C116.663 175.753 116.095 175.889 115.519 175.889C114.943 175.889 114.375 175.753 113.861 175.492L111.993 174.415C111.082 173.886 111.082 173.025 111.993 172.502Z" fill="white"/>
</g>
<path d="M129.486 162.035L141.707 154.984C142.221 154.723 142.789 154.587 143.365 154.587C143.941 154.587 144.509 154.723 145.022 154.984L146.89 156.062C147.802 156.591 147.802 157.445 146.89 157.974L134.663 165.031C134.15 165.292 133.584 165.428 133.009 165.428C132.433 165.428 131.867 165.292 131.354 165.031L129.486 163.954C128.568 163.418 128.568 162.564 129.486 162.035Z" fill="#6ED0FF"/>
<path d="M129.486 162.035L141.707 154.984C142.221 154.723 142.789 154.587 143.365 154.587C143.941 154.587 144.509 154.723 145.022 154.984L146.89 156.062C147.802 156.591 147.802 157.445 146.89 157.974L134.663 165.031C134.15 165.292 133.584 165.428 133.009 165.428C132.433 165.428 131.867 165.292 131.354 165.031L129.486 163.954C128.568 163.418 128.568 162.564 129.486 162.035Z" fill="#6ED0FF"/>
<path opacity="0.7" d="M129.486 162.035L141.707 154.984C142.221 154.723 142.789 154.587 143.365 154.587C143.941 154.587 144.509 154.723 145.022 154.984L146.89 156.062C147.802 156.591 147.802 157.445 146.89 157.974L134.663 165.031C134.15 165.292 133.584 165.428 133.009 165.428C132.433 165.428 131.867 165.292 131.354 165.031L129.486 163.954C128.568 163.418 128.568 162.564 129.486 162.035Z" fill="white"/>
<path d="M147.61 151.567L159.838 144.51C160.35 144.249 160.917 144.113 161.492 144.113C162.067 144.113 162.634 144.249 163.146 144.51L165.014 145.587C165.932 146.117 165.932 146.971 165.014 147.5L152.793 154.557C152.28 154.818 151.712 154.954 151.136 154.954C150.56 154.954 149.992 154.818 149.478 154.557L147.61 153.48C146.699 152.951 146.699 152.096 147.61 151.567Z" fill="#6ED0FF"/>
<path opacity="0.7" d="M147.61 151.567L159.838 144.51C160.35 144.249 160.917 144.113 161.492 144.113C162.067 144.113 162.634 144.249 163.146 144.51L165.014 145.587C165.932 146.117 165.932 146.971 165.014 147.5L152.793 154.557C152.28 154.818 151.712 154.954 151.136 154.954C150.56 154.954 149.992 154.818 149.478 154.557L147.61 153.48C146.699 152.951 146.699 152.096 147.61 151.567Z" fill="white"/>
<path d="M165.741 141.106L177.962 134.049C178.476 133.788 179.043 133.652 179.619 133.652C180.195 133.652 180.763 133.788 181.277 134.049L183.145 135.126C184.056 135.649 184.056 136.51 183.145 137.039L170.918 144.096C170.404 144.357 169.836 144.493 169.26 144.493C168.684 144.493 168.116 144.357 167.603 144.096L165.741 143.018C164.823 142.489 164.823 141.629 165.741 141.106Z" fill="#6ED0FF"/>
<path opacity="0.7" d="M165.741 141.106L177.962 134.049C178.476 133.788 179.043 133.652 179.619 133.652C180.195 133.652 180.763 133.788 181.277 134.049L183.145 135.126C184.056 135.649 184.056 136.51 183.145 137.039L170.918 144.096C170.404 144.357 169.836 144.493 169.26 144.493C168.684 144.493 168.116 144.357 167.603 144.096L165.741 143.018C164.823 142.489 164.823 141.629 165.741 141.106Z" fill="white"/>
<path d="M191.579 139.997C192.115 140.309 192.057 140.845 191.445 141.202L159.991 159.357C159.676 159.533 159.323 159.632 158.962 159.645C158.6 159.659 158.241 159.586 157.913 159.434C157.378 159.121 157.435 158.586 158.047 158.235L189.501 140.073C189.818 139.9 190.17 139.803 190.531 139.79C190.892 139.777 191.251 139.847 191.579 139.997Z" fill="#6ED0FF"/>
<g opacity="0.1">
<path opacity="0.1" d="M191.579 139.997C192.115 140.309 192.057 140.845 191.445 141.202L159.991 159.357C159.676 159.533 159.323 159.632 158.962 159.645C158.6 159.659 158.241 159.586 157.913 159.434C157.378 159.121 157.435 158.586 158.047 158.235L189.501 140.073C189.818 139.9 190.17 139.803 190.531 139.79C190.892 139.777 191.251 139.847 191.579 139.997Z" fill="black"/>
</g>
<path d="M196.779 142.993C197.321 143.305 197.264 143.841 196.652 144.191L176.507 155.813C176.191 155.989 175.838 156.088 175.477 156.101C175.116 156.114 174.757 156.042 174.429 155.889C173.893 155.583 173.951 155.042 174.563 154.691L194.701 143.069C195.017 142.893 195.37 142.795 195.731 142.781C196.092 142.768 196.452 142.841 196.779 142.993Z" fill="#6ED0FF"/>
<g opacity="0.1">
<path opacity="0.1" d="M196.779 142.993C197.321 143.305 197.264 143.841 196.652 144.191L176.507 155.813C176.191 155.989 175.838 156.088 175.477 156.101C175.116 156.114 174.757 156.042 174.429 155.889C173.893 155.583 173.951 155.042 174.563 154.691L194.701 143.069C195.017 142.893 195.37 142.795 195.731 142.781C196.092 142.768 196.452 142.841 196.779 142.993Z" fill="black"/>
</g>
<path d="M104.676 161.825C104.668 161.83 104.66 161.834 104.66 161.834C104.644 161.844 104.628 161.853 104.62 161.866C104.636 161.857 104.644 161.844 104.652 161.839C104.668 161.839 104.668 161.83 104.676 161.825Z" fill="#0074FE"/>
<path d="M99.3153 162.181C99.7824 161.912 99.7824 161.474 99.3153 161.205C98.8483 160.935 98.091 160.935 97.624 161.205C97.1569 161.474 97.1569 161.912 97.624 162.181C98.091 162.451 98.8483 162.451 99.3153 162.181Z" fill="#2DBDFF"/>
<path d="M107.258 162.879C107.725 162.61 107.725 162.173 107.258 161.903C106.791 161.633 106.033 161.633 105.566 161.903C105.099 162.173 105.099 162.61 105.566 162.879C106.033 163.149 106.791 163.149 107.258 162.879Z" fill="#2DBDFF"/>
<path d="M97.1421 163.755C97.4477 163.579 97.4477 163.293 97.1421 163.117C96.8366 162.94 96.3412 162.94 96.0357 163.117C95.7301 163.293 95.7301 163.579 96.0357 163.755C96.3412 163.932 96.8366 163.932 97.1421 163.755Z" fill="#2DBDFF"/>
<path d="M102.517 164.714C102.823 164.537 102.823 164.251 102.517 164.075C102.212 163.898 101.716 163.898 101.411 164.075C101.105 164.251 101.105 164.537 101.411 164.714C101.716 164.89 102.212 164.89 102.517 164.714Z" fill="#2DBDFF"/>
<path d="M102.343 166.438C102.53 166.33 102.53 166.154 102.343 166.046C102.155 165.937 101.851 165.937 101.663 166.046C101.475 166.154 101.475 166.33 101.663 166.438C101.851 166.547 102.155 166.547 102.343 166.438Z" fill="#2DBDFF"/>
<path d="M99.3711 165.298C99.5588 165.189 99.5588 165.014 99.3711 164.905C99.1834 164.797 98.8791 164.797 98.6914 164.905C98.5037 165.014 98.5037 165.189 98.6914 165.298C98.8791 165.406 99.1834 165.406 99.3711 165.298Z" fill="#2DBDFF"/>
<path d="M111.053 163.71C111.359 163.533 111.359 163.247 111.053 163.071C110.748 162.895 110.252 162.895 109.947 163.071C109.641 163.247 109.641 163.533 109.947 163.71C110.252 163.886 110.748 163.886 111.053 163.71Z" fill="#2DBDFF"/>
<path d="M107.71 164.782C107.893 164.676 107.893 164.505 107.71 164.399C107.526 164.293 107.229 164.293 107.046 164.399C106.862 164.505 106.862 164.676 107.046 164.782C107.229 164.888 107.526 164.888 107.71 164.782Z" fill="#2DBDFF"/>
<path d="M109.914 165.462C110.097 165.356 110.097 165.184 109.914 165.079C109.73 164.973 109.433 164.973 109.25 165.079C109.067 165.184 109.067 165.356 109.25 165.462C109.433 165.568 109.73 165.568 109.914 165.462Z" fill="#2DBDFF"/>
<path d="M105.587 165.967C105.77 165.862 105.77 165.69 105.587 165.584C105.403 165.478 105.106 165.478 104.923 165.584C104.739 165.69 104.739 165.862 104.923 165.967C105.106 166.073 105.403 166.073 105.587 165.967Z" fill="#2DBDFF"/>
<path d="M104.676 161.825C104.668 161.83 104.66 161.835 104.66 161.835C104.644 161.844 104.628 161.853 104.62 161.867C104.636 161.857 104.644 161.844 104.652 161.839C104.668 161.839 104.668 161.83 104.676 161.825Z" fill="#0074FE"/>
<path d="M104.67 161.839C104.654 161.848 104.638 161.857 104.638 161.867C104.638 161.857 104.654 161.848 104.67 161.839Z" fill="#0074FE"/>
<path d="M112.531 154.023C109.757 151.528 103.948 150.766 99.5851 152.326C95.5465 153.772 94.0528 156.679 95.8705 159.115C95.9021 159.161 95.8784 159.202 95.8073 159.225C95.7362 159.248 95.665 159.28 95.6018 159.307C95.2383 159.48 95.0328 159.745 95.1118 160.019C95.262 160.589 96.1867 160.867 96.977 160.721C97.0877 160.703 97.2062 160.671 97.309 160.63C97.3406 160.621 97.3643 160.607 97.388 160.603C97.4196 160.594 97.4354 160.584 97.4591 160.571C98.4075 160.388 99.5061 160.603 100.075 161.114C100.21 161.237 100.304 161.365 100.36 161.497C100.375 161.533 100.36 161.57 100.336 161.602C100.281 161.67 100.233 161.743 100.202 161.816C100.107 162.008 100.099 162.213 100.17 162.41C100.225 162.578 100.344 162.747 100.526 162.898C101.166 163.432 102.422 163.619 103.434 163.317C103.79 163.213 104.066 163.062 104.272 162.889C104.438 162.747 104.541 162.597 104.604 162.432C104.659 162.291 104.675 162.136 104.635 161.985C104.635 161.976 104.628 161.962 104.628 161.953C104.628 161.944 104.62 161.93 104.62 161.921C104.62 161.903 104.627 161.889 104.643 161.871C104.651 161.857 104.667 161.848 104.683 161.839C104.691 161.835 104.699 161.83 104.699 161.83C104.849 161.716 105.038 161.616 105.26 161.533C106.082 161.232 107.109 161.278 107.836 161.606C107.923 161.648 107.979 161.707 107.994 161.771C108.01 161.862 108.058 161.944 108.129 162.031C108.152 162.054 108.176 162.086 108.2 162.108C108.318 162.213 108.469 162.3 108.635 162.359C109.259 162.592 110.152 162.524 110.65 162.081C110.95 161.816 110.911 161.474 110.595 161.219C110.587 161.205 110.587 161.196 110.595 161.191C110.602 161.187 110.602 161.187 110.61 161.182C110.61 161.182 110.61 161.182 110.618 161.178L110.626 161.173C114.238 159.435 115.139 156.369 112.531 154.023Z" fill="#2DBDFF"/>
<path d="M103.396 158.989L103.412 158.979L101.349 157.789C101.42 157.629 101.341 157.446 101.12 157.319C100.788 157.127 100.242 157.122 99.9025 157.319C99.5706 157.51 99.5627 157.825 99.9025 158.021C100.124 158.149 100.432 158.19 100.717 158.154L102.779 159.344L102.795 159.335C102.716 159.5 102.787 159.687 103.016 159.819C103.348 160.011 103.894 160.015 104.234 159.819C104.566 159.627 104.573 159.313 104.234 159.116C104.004 158.984 103.68 158.943 103.396 158.989ZM103.846 159.586C103.728 159.655 103.538 159.655 103.42 159.586C103.301 159.518 103.301 159.408 103.42 159.34C103.538 159.271 103.728 159.271 103.846 159.34C103.957 159.413 103.957 159.522 103.846 159.586ZM100.732 157.789C100.614 157.857 100.424 157.857 100.306 157.789C100.187 157.72 100.187 157.611 100.306 157.542C100.424 157.474 100.614 157.474 100.732 157.542C100.843 157.615 100.843 157.725 100.732 157.789Z" fill="white"/>
<path d="M103.054 157.55C103.228 157.449 103.22 157.289 103.054 157.194L101.484 156.288C101.31 156.187 101.034 156.192 100.868 156.288C100.702 156.383 100.702 156.548 100.868 156.643L102.437 157.55C102.603 157.645 102.88 157.65 103.054 157.55Z" fill="white"/>
<path d="M103.578 154.704C103.404 154.805 103.412 154.964 103.578 155.06L105.546 156.196L103.127 157.592C102.954 157.693 102.961 157.852 103.127 157.948L105.404 159.262C105.577 159.363 105.854 159.358 106.02 159.262C106.186 159.167 106.186 159.002 106.02 158.906L104.052 157.77L106.471 156.374C106.644 156.274 106.636 156.114 106.471 156.018L104.194 154.704C104.028 154.608 103.752 154.604 103.578 154.704Z" fill="white"/>
<path d="M106.535 156.381C106.33 156.5 106.355 156.698 106.569 156.821L108.323 157.834C108.548 157.964 108.889 157.967 109.086 157.853C109.282 157.74 109.266 157.537 109.052 157.413L107.298 156.401C107.073 156.271 106.741 156.263 106.535 156.381Z" fill="white"/>
<path d="M108.273 158.637C108.258 158.619 108.234 158.605 108.21 158.592L106.44 157.57C106.266 157.469 105.989 157.474 105.823 157.57C105.649 157.67 105.649 157.825 105.823 157.925L107.594 158.948C107.617 158.961 107.641 158.975 107.673 158.984C107.594 159.148 107.673 159.331 107.894 159.459C108.226 159.65 108.771 159.655 109.111 159.459C109.443 159.267 109.451 158.952 109.111 158.756C108.874 158.637 108.566 158.596 108.273 158.637ZM108.7 159.24C108.582 159.308 108.392 159.308 108.273 159.24C108.155 159.171 108.155 159.062 108.273 158.993C108.392 158.925 108.582 158.925 108.7 158.993C108.819 159.062 108.819 159.171 108.7 159.24Z" fill="white"/>
<path d="M108.787 155.731L106.961 154.677C107.032 154.517 106.953 154.335 106.732 154.207C106.4 154.015 105.855 154.011 105.515 154.207C105.183 154.399 105.175 154.713 105.515 154.91C105.736 155.037 106.044 155.078 106.329 155.042L108.155 156.096C108.083 156.256 108.162 156.438 108.384 156.566C108.716 156.757 109.261 156.762 109.601 156.566C109.933 156.374 109.941 156.059 109.601 155.863C109.387 155.731 109.071 155.685 108.787 155.731ZM109.206 156.329C109.087 156.397 108.897 156.397 108.779 156.329C108.66 156.26 108.66 156.151 108.779 156.082C108.897 156.014 109.087 156.014 109.206 156.082C109.324 156.151 109.324 156.26 109.206 156.329ZM106.345 154.677C106.226 154.745 106.036 154.745 105.918 154.677C105.799 154.608 105.799 154.499 105.918 154.43C106.036 154.362 106.226 154.362 106.345 154.43C106.463 154.499 106.463 154.608 106.345 154.677Z" fill="white"/>
<path d="M100.891 154.732C100.559 154.923 100.551 155.238 100.891 155.434C101.112 155.562 101.42 155.603 101.705 155.567L103.459 156.579C103.633 156.68 103.91 156.675 104.076 156.579C104.25 156.479 104.242 156.319 104.076 156.224L102.321 155.211C102.392 155.051 102.313 154.869 102.092 154.741C101.768 154.535 101.231 154.535 100.891 154.732ZM101.792 155.069C101.792 155.115 101.76 155.161 101.697 155.197C101.634 155.234 101.555 155.252 101.476 155.243C101.405 155.238 101.333 155.224 101.278 155.192C101.16 155.124 101.16 155.015 101.278 154.946C101.397 154.878 101.586 154.878 101.705 154.946C101.76 154.987 101.792 155.024 101.792 155.069Z" fill="white"/>
</svg>
