<svg width="78" height="172" viewBox="0 0 78 172" fill="none" xmlns="http://www.w3.org/2000/svg">
<g opacity="0.6">
<rect x="28.5833" y="105.6" width="5.55787" height="5.55787" fill="#82D8FF"/>
<rect y="60.5996" width="5.55787" height="5.55787" fill="#82D8FF"/>
<rect x="57.1667" y="105.6" width="5.55787" height="5.55787" fill="#82D8FF"/>
<rect x="42.875" y="105.6" width="5.55787" height="5.55787" fill="#82D8FF"/>
<rect x="14.2917" y="105.6" width="5.55787" height="5.55787" fill="#82D8FF"/>
<rect x="71.4583" y="105.6" width="5.55787" height="5.55787" fill="#82D8FF"/>
<rect x="28.5833" y="45.2568" width="5.55787" height="5.55787" fill="#82D8FF"/>
<rect x="57.1667" y="45.2568" width="5.55787" height="5.55787" fill="#82D8FF"/>
<rect x="42.875" y="45.2568" width="5.55787" height="5.55787" fill="#82D8FF"/>
<rect x="14.2917" y="45.2568" width="5.55787" height="5.55787" fill="#82D8FF"/>
<rect x="71.4583" y="45.2568" width="5.55787" height="5.55787" fill="#82D8FF"/>
<rect y="120.942" width="5.55787" height="5.55787" fill="#82D8FF"/>
<rect x="28.5833" y="15.0854" width="5.55787" height="5.55787" fill="#82D8FF"/>
<rect x="57.1667" y="15.0854" width="5.55787" height="5.55787" fill="#82D8FF"/>
<rect x="42.875" y="15.0854" width="5.55787" height="5.55787" fill="#82D8FF"/>
<rect x="14.2917" y="15.0854" width="5.55787" height="5.55787" fill="#82D8FF"/>
<rect x="71.4583" y="15.0854" width="5.55787" height="5.55787" fill="#82D8FF"/>
<rect x="28.5833" y="135.771" width="5.55787" height="5.55787" fill="#82D8FF"/>
<rect y="90.771" width="5.55787" height="5.55787" fill="#82D8FF"/>
<rect x="57.1667" y="135.771" width="5.55787" height="5.55787" fill="#82D8FF"/>
<rect x="57.1667" y="165.942" width="5.55787" height="5.55787" fill="#82D8FF"/>
<rect x="42.875" y="135.771" width="5.55787" height="5.55787" fill="#82D8FF"/>
<rect x="14.2917" y="135.771" width="5.55787" height="5.55787" fill="#82D8FF"/>
<rect x="28.5833" y="75.4282" width="5.55787" height="5.55787" fill="#82D8FF"/>
<rect y="30.4282" width="5.55787" height="5.55787" fill="#82D8FF"/>
<rect x="57.1667" y="75.4282" width="5.55787" height="5.55787" fill="#82D8FF"/>
<rect x="42.875" y="75.4282" width="5.55787" height="5.55787" fill="#82D8FF"/>
<rect x="14.2917" y="75.4282" width="5.55787" height="5.55787" fill="#82D8FF"/>
<rect x="71.4583" y="75.4282" width="5.55787" height="5.55787" fill="#82D8FF"/>
<rect x="28.5833" width="5.55787" height="5.55787" fill="#82D8FF"/>
<rect x="57.1667" width="5.55787" height="5.55787" fill="#82D8FF"/>
<rect x="42.875" width="5.55787" height="5.55787" fill="#82D8FF"/>
<rect x="14.2917" width="5.55787" height="5.55787" fill="#82D8FF"/>
<rect x="71.4583" width="5.55787" height="5.55787" fill="#82D8FF"/>
<rect x="28.5833" y="120.685" width="5.55787" height="5.55787" fill="#82D8FF"/>
<rect y="75.6851" width="5.55787" height="5.55787" fill="#82D8FF"/>
<rect x="57.1667" y="120.685" width="5.55787" height="5.55787" fill="#82D8FF"/>
<rect x="57.1667" y="150.856" width="5.55787" height="5.55787" fill="#82D8FF"/>
<rect x="42.875" y="120.685" width="5.55787" height="5.55787" fill="#82D8FF"/>
<rect x="14.2917" y="120.685" width="5.55787" height="5.55787" fill="#82D8FF"/>
<rect x="71.4583" y="120.685" width="5.55787" height="5.55787" fill="#82D8FF"/>
<rect x="28.5833" y="60.3428" width="5.55787" height="5.55787" fill="#82D8FF"/>
<rect y="15.3428" width="5.55787" height="5.55787" fill="#82D8FF"/>
<rect x="57.1667" y="60.3428" width="5.55787" height="5.55787" fill="#82D8FF"/>
<rect x="42.875" y="60.3428" width="5.55787" height="5.55787" fill="#82D8FF"/>
<rect x="14.2917" y="60.3428" width="5.55787" height="5.55787" fill="#82D8FF"/>
<rect x="71.4583" y="60.3428" width="5.55787" height="5.55787" fill="#82D8FF"/>
<rect x="28.5833" y="30.1714" width="5.55787" height="5.55787" fill="#82D8FF"/>
<rect x="57.1667" y="30.1714" width="5.55787" height="5.55787" fill="#82D8FF"/>
<rect x="42.875" y="30.1714" width="5.55787" height="5.55787" fill="#82D8FF"/>
<rect x="14.2917" y="30.1714" width="5.55787" height="5.55787" fill="#82D8FF"/>
<rect x="71.4583" y="30.1714" width="5.55787" height="5.55787" fill="#82D8FF"/>
<rect y="105.856" width="5.55787" height="5.55787" fill="#82D8FF"/>
<rect x="14.2917" y="150.856" width="5.55787" height="5.55787" fill="#82D8FF"/>
<rect x="28.5833" y="90.5142" width="5.55787" height="5.55787" fill="#82D8FF"/>
<rect y="45.5142" width="5.55787" height="5.55787" fill="#82D8FF"/>
<rect x="57.1667" y="90.5142" width="5.55787" height="5.55787" fill="#82D8FF"/>
<rect x="42.875" y="90.5142" width="5.55787" height="5.55787" fill="#82D8FF"/>
<rect x="14.2917" y="90.5142" width="5.55787" height="5.55787" fill="#82D8FF"/>
<rect x="71.4583" y="90.5142" width="5.55787" height="5.55787" fill="#82D8FF"/>
</g>
</svg>
