<svg width="82" height="145" viewBox="0 0 82 145" fill="none" xmlns="http://www.w3.org/2000/svg">
<g opacity="0.6">
<rect width="4.18417" height="4.18417" transform="matrix(4.37114e-08 1 1 -4.37114e-08 79.499 64.5557)" fill="#82D8FF"/>
<rect width="4.18417" height="4.18417" transform="matrix(4.37114e-08 1 1 -4.37114e-08 79.499 107.593)" fill="#82D8FF"/>
<rect width="4.18417" height="4.18417" transform="matrix(4.37114e-08 1 1 -4.37114e-08 79.499 86.0742)" fill="#82D8FF"/>
<rect width="4.18417" height="4.18417" transform="matrix(4.37114e-08 1 1 -4.37114e-08 79.499 129.111)" fill="#82D8FF"/>
<rect width="4.18417" height="4.18417" transform="matrix(4.37114e-08 1 1 -4.37114e-08 79.499 75.3149)" fill="#82D8FF"/>
<rect width="4.18417" height="4.18417" transform="matrix(4.37114e-08 1 1 -4.37114e-08 79.499 118.352)" fill="#82D8FF"/>
<rect width="4.18417" height="4.18417" transform="matrix(4.37114e-08 1 1 -4.37114e-08 79.499 96.8335)" fill="#82D8FF"/>
<rect width="4.18417" height="4.18417" transform="matrix(4.37114e-08 1 1 -4.37114e-08 79.499 139.871)" fill="#82D8FF"/>
<rect width="4.18417" height="4.18417" transform="matrix(4.37114e-08 1 1 -4.37114e-08 34.071 64.5557)" fill="#82D8FF"/>
<rect width="4.18417" height="4.18417" transform="matrix(4.37114e-08 1 1 -4.37114e-08 34.071 107.593)" fill="#82D8FF"/>
<rect width="4.18417" height="4.18417" transform="matrix(4.37114e-08 1 1 -4.37114e-08 34.071 86.0742)" fill="#82D8FF"/>
<rect width="4.18417" height="4.18417" transform="matrix(4.37114e-08 1 1 -4.37114e-08 34.071 75.3149)" fill="#82D8FF"/>
<rect width="4.18417" height="4.18417" transform="matrix(4.37114e-08 1 1 -4.37114e-08 34.071 118.352)" fill="#82D8FF"/>
<rect width="4.18417" height="4.18417" transform="matrix(4.37114e-08 1 1 -4.37114e-08 34.071 96.8335)" fill="#82D8FF"/>
<rect width="4.18417" height="4.18417" transform="matrix(4.37114e-08 1 1 -4.37114e-08 11.3571 64.5557)" fill="#82D8FF"/>
<rect width="4.18417" height="4.18417" transform="matrix(4.37114e-08 1 1 -4.37114e-08 11.3571 86.0742)" fill="#82D8FF"/>
<rect width="4.18417" height="4.18417" transform="matrix(4.37114e-08 1 1 -4.37114e-08 11.3571 75.3149)" fill="#82D8FF"/>
<rect width="4.18417" height="4.18417" transform="matrix(4.37114e-08 1 1 -4.37114e-08 11.3571 96.8335)" fill="#82D8FF"/>
<rect width="4.18417" height="4.18417" transform="matrix(4.37114e-08 1 1 -4.37114e-08 56.7853 64.5557)" fill="#82D8FF"/>
<rect width="4.18417" height="4.18417" transform="matrix(4.37114e-08 1 1 -4.37114e-08 56.7853 107.593)" fill="#82D8FF"/>
<rect width="4.18417" height="4.18417" transform="matrix(4.37114e-08 1 1 -4.37114e-08 56.7853 86.0742)" fill="#82D8FF"/>
<rect width="4.18417" height="4.18417" transform="matrix(4.37114e-08 1 1 -4.37114e-08 56.7853 129.111)" fill="#82D8FF"/>
<rect width="4.18417" height="4.18417" transform="matrix(4.37114e-08 1 1 -4.37114e-08 56.7853 75.3149)" fill="#82D8FF"/>
<rect width="4.18417" height="4.18417" transform="matrix(4.37114e-08 1 1 -4.37114e-08 56.7853 118.352)" fill="#82D8FF"/>
<rect width="4.18417" height="4.18417" transform="matrix(4.37114e-08 1 1 -4.37114e-08 56.7853 96.8335)" fill="#82D8FF"/>
<rect width="4.18417" height="4.18417" transform="matrix(4.37114e-08 1 1 -4.37114e-08 56.7853 139.871)" fill="#82D8FF"/>
<rect width="4.18417" height="4.18417" transform="matrix(4.37114e-08 1 1 -4.37114e-08 -0.00012207 86.0742)" fill="#82D8FF"/>
<rect width="4.18417" height="4.18417" transform="matrix(4.37114e-08 1 1 -4.37114e-08 -0.00012207 75.3149)" fill="#82D8FF"/>
<rect width="4.18417" height="4.18417" transform="matrix(4.37114e-08 1 1 -4.37114e-08 -0.00012207 96.8335)" fill="#82D8FF"/>
<rect width="4.18417" height="4.18417" transform="matrix(4.37114e-08 1 1 -4.37114e-08 45.4282 64.5557)" fill="#82D8FF"/>
<rect width="4.18417" height="4.18417" transform="matrix(4.37114e-08 1 1 -4.37114e-08 45.4282 107.593)" fill="#82D8FF"/>
<rect width="4.18417" height="4.18417" transform="matrix(4.37114e-08 1 1 -4.37114e-08 45.4282 86.0742)" fill="#82D8FF"/>
<rect width="4.18417" height="4.18417" transform="matrix(4.37114e-08 1 1 -4.37114e-08 45.4282 75.3149)" fill="#82D8FF"/>
<rect width="4.18417" height="4.18417" transform="matrix(4.37114e-08 1 1 -4.37114e-08 45.4282 118.352)" fill="#82D8FF"/>
<rect width="4.18417" height="4.18417" transform="matrix(4.37114e-08 1 1 -4.37114e-08 45.4282 96.8335)" fill="#82D8FF"/>
<rect width="4.18417" height="4.18417" transform="matrix(4.37114e-08 1 1 -4.37114e-08 22.7141 64.5557)" fill="#82D8FF"/>
<rect width="4.18417" height="4.18417" transform="matrix(4.37114e-08 1 1 -4.37114e-08 22.7141 107.593)" fill="#82D8FF"/>
<rect width="4.18417" height="4.18417" transform="matrix(4.37114e-08 1 1 -4.37114e-08 22.7141 86.0742)" fill="#82D8FF"/>
<rect width="4.18417" height="4.18417" transform="matrix(4.37114e-08 1 1 -4.37114e-08 22.7141 75.3149)" fill="#82D8FF"/>
<rect width="4.18417" height="4.18417" transform="matrix(4.37114e-08 1 1 -4.37114e-08 22.7141 118.352)" fill="#82D8FF"/>
<rect width="4.18417" height="4.18417" transform="matrix(4.37114e-08 1 1 -4.37114e-08 22.7141 96.8335)" fill="#82D8FF"/>
<rect width="4.18417" height="4.18417" transform="matrix(4.37114e-08 1 1 -4.37114e-08 68.1422 64.5557)" fill="#82D8FF"/>
<rect width="4.18417" height="4.18417" transform="matrix(4.37114e-08 1 1 -4.37114e-08 68.1422 107.593)" fill="#82D8FF"/>
<rect width="4.18417" height="4.18417" transform="matrix(4.37114e-08 1 1 -4.37114e-08 68.1422 86.0742)" fill="#82D8FF"/>
<rect width="4.18417" height="4.18417" transform="matrix(4.37114e-08 1 1 -4.37114e-08 68.1422 129.111)" fill="#82D8FF"/>
<rect width="4.18417" height="4.18417" transform="matrix(4.37114e-08 1 1 -4.37114e-08 68.1422 75.3149)" fill="#82D8FF"/>
<rect width="4.18417" height="4.18417" transform="matrix(4.37114e-08 1 1 -4.37114e-08 68.1422 118.352)" fill="#82D8FF"/>
<rect width="4.18417" height="4.18417" transform="matrix(4.37114e-08 1 1 -4.37114e-08 68.1422 96.8335)" fill="#82D8FF"/>
<rect width="4.18417" height="4.18417" transform="matrix(4.37114e-08 1 1 -4.37114e-08 68.1422 139.871)" fill="#82D8FF"/>
<rect width="4.18417" height="4.18417" transform="matrix(4.37114e-08 1 1 -4.37114e-08 56.7847 21.5186)" fill="#82D8FF"/>
<rect width="4.18417" height="4.18417" transform="matrix(4.37114e-08 1 1 -4.37114e-08 56.7847 0)" fill="#82D8FF"/>
<rect width="4.18417" height="4.18417" transform="matrix(4.37114e-08 1 1 -4.37114e-08 56.7847 43.0371)" fill="#82D8FF"/>
<rect width="4.18417" height="4.18417" transform="matrix(4.37114e-08 1 1 -4.37114e-08 56.7847 32.2778)" fill="#82D8FF"/>
<rect width="4.18417" height="4.18417" transform="matrix(4.37114e-08 1 1 -4.37114e-08 56.7847 10.7593)" fill="#82D8FF"/>
<rect width="4.18417" height="4.18417" transform="matrix(4.37114e-08 1 1 -4.37114e-08 56.7847 53.7964)" fill="#82D8FF"/>
<rect width="4.18417" height="4.18417" transform="matrix(4.37114e-08 1 1 -4.37114e-08 34.0704 21.5186)" fill="#82D8FF"/>
<rect width="4.18417" height="4.18417" transform="matrix(4.37114e-08 1 1 -4.37114e-08 34.0704 43.0371)" fill="#82D8FF"/>
<rect width="4.18417" height="4.18417" transform="matrix(4.37114e-08 1 1 -4.37114e-08 34.0704 32.2778)" fill="#82D8FF"/>
<rect width="4.18417" height="4.18417" transform="matrix(4.37114e-08 1 1 -4.37114e-08 34.0704 53.7964)" fill="#82D8FF"/>
<rect width="4.18417" height="4.18417" transform="matrix(4.37114e-08 1 1 -4.37114e-08 79.499 21.5186)" fill="#82D8FF"/>
<rect width="4.18417" height="4.18417" transform="matrix(4.37114e-08 1 1 -4.37114e-08 79.499 0)" fill="#82D8FF"/>
<rect width="4.18417" height="4.18417" transform="matrix(4.37114e-08 1 1 -4.37114e-08 79.499 43.0371)" fill="#82D8FF"/>
<rect width="4.18417" height="4.18417" transform="matrix(4.37114e-08 1 1 -4.37114e-08 79.499 32.2778)" fill="#82D8FF"/>
<rect width="4.18417" height="4.18417" transform="matrix(4.37114e-08 1 1 -4.37114e-08 79.499 10.7593)" fill="#82D8FF"/>
<rect width="4.18417" height="4.18417" transform="matrix(4.37114e-08 1 1 -4.37114e-08 79.499 53.7964)" fill="#82D8FF"/>
<rect width="4.18417" height="4.18417" transform="matrix(4.37114e-08 1 1 -4.37114e-08 22.7137 43.0371)" fill="#82D8FF"/>
<rect width="4.18417" height="4.18417" transform="matrix(4.37114e-08 1 1 -4.37114e-08 22.7137 32.2778)" fill="#82D8FF"/>
<rect width="4.18417" height="4.18417" transform="matrix(4.37114e-08 1 1 -4.37114e-08 22.7137 53.7964)" fill="#82D8FF"/>
<rect width="4.18417" height="4.18417" transform="matrix(4.37114e-08 1 1 -4.37114e-08 13.5508 53.7964)" fill="#82D8FF"/>
<rect width="4.18417" height="4.18417" transform="matrix(4.37114e-08 1 1 -4.37114e-08 68.1418 21.5186)" fill="#82D8FF"/>
<rect width="4.18417" height="4.18417" transform="matrix(4.37114e-08 1 1 -4.37114e-08 68.1418 0)" fill="#82D8FF"/>
<rect width="4.18417" height="4.18417" transform="matrix(4.37114e-08 1 1 -4.37114e-08 68.1418 43.0371)" fill="#82D8FF"/>
<rect width="4.18417" height="4.18417" transform="matrix(4.37114e-08 1 1 -4.37114e-08 68.1418 32.2778)" fill="#82D8FF"/>
<rect width="4.18417" height="4.18417" transform="matrix(4.37114e-08 1 1 -4.37114e-08 68.1418 10.7593)" fill="#82D8FF"/>
<rect width="4.18417" height="4.18417" transform="matrix(4.37114e-08 1 1 -4.37114e-08 68.1418 53.7964)" fill="#82D8FF"/>
<rect width="4.18417" height="4.18417" transform="matrix(4.37114e-08 1 1 -4.37114e-08 45.428 21.5186)" fill="#82D8FF"/>
<rect width="4.18417" height="4.18417" transform="matrix(4.37114e-08 1 1 -4.37114e-08 45.428 43.0371)" fill="#82D8FF"/>
<rect width="4.18417" height="4.18417" transform="matrix(4.37114e-08 1 1 -4.37114e-08 45.428 32.2778)" fill="#82D8FF"/>
<rect width="4.18417" height="4.18417" transform="matrix(4.37114e-08 1 1 -4.37114e-08 45.428 10.7593)" fill="#82D8FF"/>
<rect width="4.18417" height="4.18417" transform="matrix(4.37114e-08 1 1 -4.37114e-08 45.428 53.7964)" fill="#82D8FF"/>
</g>
</svg>
