<svg width="185" height="113" viewBox="0 0 185 113" fill="none" xmlns="http://www.w3.org/2000/svg">
<g opacity="0.6">
<rect x="110.437" y="112.746" width="5.80311" height="5.63731" transform="rotate(-180 110.437 112.746)" fill="#82D8FF"/>
<rect x="50.7482" y="112.746" width="5.80311" height="5.63731" transform="rotate(-180 50.7482 112.746)" fill="#82D8FF"/>
<rect x="50.748" y="36.2393" width="5.80311" height="5.63731" transform="rotate(-180 50.748 36.2393)" fill="#82D8FF"/>
<rect x="80.5927" y="112.746" width="5.80311" height="5.63731" transform="rotate(-180 80.5927 112.746)" fill="#82D8FF"/>
<rect x="20.9036" y="112.746" width="5.80311" height="5.63731" transform="rotate(-180 20.9036 112.746)" fill="#82D8FF"/>
<rect x="95.515" y="112.746" width="5.80311" height="5.63731" transform="rotate(-180 95.515 112.746)" fill="#82D8FF"/>
<rect x="35.8258" y="112.746" width="5.80311" height="5.63731" transform="rotate(-180 35.8258 112.746)" fill="#82D8FF"/>
<rect x="65.6704" y="112.746" width="5.80311" height="5.63731" transform="rotate(-180 65.6704 112.746)" fill="#82D8FF"/>
<rect x="5.9812" y="112.746" width="5.80311" height="5.63731" transform="rotate(-180 5.9812 112.746)" fill="#82D8FF"/>
<rect x="110.437" y="51.541" width="5.80311" height="5.63731" transform="rotate(-180 110.437 51.541)" fill="#82D8FF"/>
<rect x="80.5927" y="51.541" width="5.80311" height="5.63731" transform="rotate(-180 80.5927 51.541)" fill="#82D8FF"/>
<rect x="80.5927" y="36.2393" width="5.80311" height="5.63731" transform="rotate(-180 80.5927 36.2393)" fill="#82D8FF"/>
<rect x="95.5149" y="51.541" width="5.80311" height="5.63731" transform="rotate(-180 95.5149 51.541)" fill="#82D8FF"/>
<rect x="110.437" y="82.1436" width="5.80311" height="5.63731" transform="rotate(-180 110.437 82.1436)" fill="#82D8FF"/>
<rect x="50.748" y="82.1436" width="5.80311" height="5.63731" transform="rotate(-180 50.748 82.1436)" fill="#82D8FF"/>
<rect x="50.7482" y="5.63672" width="5.80311" height="5.63731" transform="rotate(-180 50.7482 5.63672)" fill="#82D8FF"/>
<rect x="80.5927" y="82.1436" width="5.80311" height="5.63731" transform="rotate(-180 80.5927 82.1436)" fill="#82D8FF"/>
<rect x="20.9036" y="82.1436" width="5.80311" height="5.63731" transform="rotate(-180 20.9036 82.1436)" fill="#82D8FF"/>
<rect x="20.9036" y="51.541" width="5.80311" height="5.63731" transform="rotate(-180 20.9036 51.541)" fill="#82D8FF"/>
<rect x="35.8258" y="51.541" width="5.80311" height="5.63731" transform="rotate(-180 35.8258 51.541)" fill="#82D8FF"/>
<rect x="95.515" y="82.1436" width="5.80311" height="5.63731" transform="rotate(-180 95.515 82.1436)" fill="#82D8FF"/>
<rect x="35.8258" y="82.1436" width="5.80311" height="5.63731" transform="rotate(-180 35.8258 82.1436)" fill="#82D8FF"/>
<rect x="65.6704" y="82.1436" width="5.80311" height="5.63731" transform="rotate(-180 65.6704 82.1436)" fill="#82D8FF"/>
<rect x="65.6704" y="36.2393" width="5.80311" height="5.63731" transform="rotate(-180 65.6704 36.2393)" fill="#82D8FF"/>
<rect x="50.748" y="66.8418" width="5.80311" height="5.63731" transform="rotate(-180 50.748 66.8418)" fill="#82D8FF"/>
<rect x="110.437" y="20.9385" width="5.80311" height="5.63731" transform="rotate(-180 110.437 20.9385)" fill="#82D8FF"/>
<rect x="95.5149" y="20.9385" width="5.80311" height="5.63731" transform="rotate(-180 95.5149 20.9385)" fill="#82D8FF"/>
<rect x="110.437" y="97.4443" width="5.80311" height="5.63731" transform="rotate(-180 110.437 97.4443)" fill="#82D8FF"/>
<rect x="50.7482" y="97.4443" width="5.80311" height="5.63731" transform="rotate(-180 50.7482 97.4443)" fill="#82D8FF"/>
<rect x="50.748" y="20.9385" width="5.80311" height="5.63731" transform="rotate(-180 50.748 20.9385)" fill="#82D8FF"/>
<rect x="80.5927" y="97.4443" width="5.80311" height="5.63731" transform="rotate(-180 80.5927 97.4443)" fill="#82D8FF"/>
<rect x="20.9036" y="97.4443" width="5.80311" height="5.63731" transform="rotate(-180 20.9036 97.4443)" fill="#82D8FF"/>
<rect x="20.9036" y="66.8418" width="5.80311" height="5.63731" transform="rotate(-180 20.9036 66.8418)" fill="#82D8FF"/>
<rect x="35.8258" y="66.8418" width="5.80311" height="5.63731" transform="rotate(-180 35.8258 66.8418)" fill="#82D8FF"/>
<rect x="95.515" y="97.4443" width="5.80311" height="5.63731" transform="rotate(-180 95.515 97.4443)" fill="#82D8FF"/>
<rect x="35.8258" y="97.4443" width="5.80311" height="5.63731" transform="rotate(-180 35.8258 97.4443)" fill="#82D8FF"/>
<rect x="65.6704" y="97.4443" width="5.80311" height="5.63731" transform="rotate(-180 65.6704 97.4443)" fill="#82D8FF"/>
<rect x="65.6704" y="51.541" width="5.80311" height="5.63731" transform="rotate(-180 65.6704 51.541)" fill="#82D8FF"/>
<rect x="5.9812" y="97.4443" width="5.80311" height="5.63731" transform="rotate(-180 5.9812 97.4443)" fill="#82D8FF"/>
<rect x="110.437" y="36.2393" width="5.80311" height="5.63731" transform="rotate(-180 110.437 36.2393)" fill="#82D8FF"/>
<rect x="95.5149" y="36.2393" width="5.80311" height="5.63731" transform="rotate(-180 95.5149 36.2393)" fill="#82D8FF"/>
<rect x="110.437" y="66.8418" width="5.80311" height="5.63731" transform="rotate(-180 110.437 66.8418)" fill="#82D8FF"/>
<rect x="80.5927" y="66.8418" width="5.80311" height="5.63731" transform="rotate(-180 80.5927 66.8418)" fill="#82D8FF"/>
<rect x="95.515" y="66.8418" width="5.80311" height="5.63731" transform="rotate(-180 95.515 66.8418)" fill="#82D8FF"/>
<rect x="65.6704" y="66.8418" width="5.80311" height="5.63731" transform="rotate(-180 65.6704 66.8418)" fill="#82D8FF"/>
<rect x="65.6704" y="20.9385" width="5.80311" height="5.63731" transform="rotate(-180 65.6704 20.9385)" fill="#82D8FF"/>
<rect x="50.748" y="51.541" width="5.80311" height="5.63731" transform="rotate(-180 50.748 51.541)" fill="#82D8FF"/>
<rect x="110.437" y="5.63672" width="5.80311" height="5.63731" transform="rotate(-180 110.437 5.63672)" fill="#82D8FF"/>
<rect x="169.297" y="112.746" width="5.80311" height="5.63731" transform="rotate(-180 169.297 112.746)" fill="#82D8FF"/>
<rect x="169.297" y="36.2393" width="5.80311" height="5.63731" transform="rotate(-180 169.297 36.2393)" fill="#82D8FF"/>
<rect x="139.453" y="112.746" width="5.80311" height="5.63731" transform="rotate(-180 139.453 112.746)" fill="#82D8FF"/>
<rect x="154.375" y="112.746" width="5.80311" height="5.63731" transform="rotate(-180 154.375 112.746)" fill="#82D8FF"/>
<rect x="184.22" y="112.746" width="5.80311" height="5.63731" transform="rotate(-180 184.22 112.746)" fill="#82D8FF"/>
<rect x="124.531" y="112.746" width="5.80311" height="5.63731" transform="rotate(-180 124.531 112.746)" fill="#82D8FF"/>
<rect x="124.531" y="51.541" width="5.80311" height="5.63731" transform="rotate(-180 124.531 51.541)" fill="#82D8FF"/>
<rect x="124.531" y="82.1436" width="5.80311" height="5.63731" transform="rotate(-180 124.531 82.1436)" fill="#82D8FF"/>
<rect x="169.297" y="82.1436" width="5.80311" height="5.63731" transform="rotate(-180 169.297 82.1436)" fill="#82D8FF"/>
<rect x="169.297" y="5.63672" width="5.80311" height="5.63731" transform="rotate(-180 169.297 5.63672)" fill="#82D8FF"/>
<rect x="139.453" y="82.1436" width="5.80311" height="5.63731" transform="rotate(-180 139.453 82.1436)" fill="#82D8FF"/>
<rect x="139.453" y="51.541" width="5.80311" height="5.63731" transform="rotate(-180 139.453 51.541)" fill="#82D8FF"/>
<rect x="154.375" y="51.541" width="5.80311" height="5.63731" transform="rotate(-180 154.375 51.541)" fill="#82D8FF"/>
<rect x="154.375" y="82.1436" width="5.80311" height="5.63731" transform="rotate(-180 154.375 82.1436)" fill="#82D8FF"/>
<rect x="184.22" y="82.1436" width="5.80311" height="5.63731" transform="rotate(-180 184.22 82.1436)" fill="#82D8FF"/>
<rect x="184.22" y="36.2393" width="5.80311" height="5.63731" transform="rotate(-180 184.22 36.2393)" fill="#82D8FF"/>
<rect x="169.297" y="66.8418" width="5.80311" height="5.63731" transform="rotate(-180 169.297 66.8418)" fill="#82D8FF"/>
<rect x="124.531" y="20.9385" width="5.80311" height="5.63731" transform="rotate(-180 124.531 20.9385)" fill="#82D8FF"/>
<rect x="169.297" y="97.4443" width="5.80311" height="5.63731" transform="rotate(-180 169.297 97.4443)" fill="#82D8FF"/>
<rect x="169.297" y="20.9385" width="5.80311" height="5.63731" transform="rotate(-180 169.297 20.9385)" fill="#82D8FF"/>
<rect x="139.453" y="97.4443" width="5.80311" height="5.63731" transform="rotate(-180 139.453 97.4443)" fill="#82D8FF"/>
<rect x="139.453" y="66.8418" width="5.80311" height="5.63731" transform="rotate(-180 139.453 66.8418)" fill="#82D8FF"/>
<rect x="154.375" y="66.8418" width="5.80311" height="5.63731" transform="rotate(-180 154.375 66.8418)" fill="#82D8FF"/>
<rect x="154.375" y="97.4443" width="5.80311" height="5.63731" transform="rotate(-180 154.375 97.4443)" fill="#82D8FF"/>
<rect x="184.22" y="97.4443" width="5.80311" height="5.63731" transform="rotate(-180 184.22 97.4443)" fill="#82D8FF"/>
<rect x="184.22" y="51.541" width="5.80311" height="5.63731" transform="rotate(-180 184.22 51.541)" fill="#82D8FF"/>
<rect x="124.531" y="97.4443" width="5.80311" height="5.63731" transform="rotate(-180 124.531 97.4443)" fill="#82D8FF"/>
<rect x="124.531" y="36.2393" width="5.80311" height="5.63731" transform="rotate(-180 124.531 36.2393)" fill="#82D8FF"/>
<rect x="124.531" y="66.8418" width="5.80311" height="5.63731" transform="rotate(-180 124.531 66.8418)" fill="#82D8FF"/>
<rect x="184.22" y="66.8418" width="5.80311" height="5.63731" transform="rotate(-180 184.22 66.8418)" fill="#82D8FF"/>
<rect x="184.22" y="20.9385" width="5.80311" height="5.63731" transform="rotate(-180 184.22 20.9385)" fill="#82D8FF"/>
<rect x="169.297" y="51.541" width="5.80311" height="5.63731" transform="rotate(-180 169.297 51.541)" fill="#82D8FF"/>
<rect x="124.531" y="5.63672" width="5.80311" height="5.63731" transform="rotate(-180 124.531 5.63672)" fill="#82D8FF"/>
</g>
</svg>
