<svg width="139" height="145" viewBox="0 0 139 145" fill="none" xmlns="http://www.w3.org/2000/svg">
<g opacity="0.6">
<rect x="94.5905" y="57.8887" width="4.54876" height="4.68254" transform="rotate(90 94.5905 57.8887)" fill="#82D8FF"/>
<rect x="94.5905" y="104.676" width="4.54876" height="4.68254" transform="rotate(90 94.5905 104.676)" fill="#82D8FF"/>
<rect x="31.0415" y="104.676" width="4.54876" height="4.68254" transform="rotate(90 31.0415 104.676)" fill="#82D8FF"/>
<rect x="94.5905" y="81.2822" width="4.54876" height="4.68254" transform="rotate(90 94.5905 81.2822)" fill="#82D8FF"/>
<rect x="94.5905" y="128.069" width="4.54876" height="4.68254" transform="rotate(90 94.5905 128.069)" fill="#82D8FF"/>
<rect x="94.5905" y="69.5859" width="4.54876" height="4.68254" transform="rotate(90 94.5905 69.5859)" fill="#82D8FF"/>
<rect x="94.5905" y="116.373" width="4.54876" height="4.68254" transform="rotate(90 94.5905 116.373)" fill="#82D8FF"/>
<rect x="94.5905" y="92.9795" width="4.54876" height="4.68254" transform="rotate(90 94.5905 92.9795)" fill="#82D8FF"/>
<rect x="94.5905" y="139.767" width="4.54876" height="4.68254" transform="rotate(90 94.5905 139.767)" fill="#82D8FF"/>
<rect x="43.7512" y="57.8887" width="4.54876" height="4.68254" transform="rotate(90 43.7512 57.8887)" fill="#82D8FF"/>
<rect x="43.7512" y="81.2822" width="4.54876" height="4.68254" transform="rotate(90 43.7512 81.2822)" fill="#82D8FF"/>
<rect x="31.0415" y="81.2822" width="4.54876" height="4.68254" transform="rotate(90 31.0415 81.2822)" fill="#82D8FF"/>
<rect x="43.7512" y="69.5859" width="4.54876" height="4.68254" transform="rotate(90 43.7512 69.5859)" fill="#82D8FF"/>
<rect x="69.1709" y="57.8887" width="4.54876" height="4.68254" transform="rotate(90 69.1709 57.8887)" fill="#82D8FF"/>
<rect x="69.1709" y="104.676" width="4.54876" height="4.68254" transform="rotate(90 69.1709 104.676)" fill="#82D8FF"/>
<rect x="5.62219" y="104.676" width="4.54876" height="4.68254" transform="rotate(90 5.62219 104.676)" fill="#82D8FF"/>
<rect x="69.1709" y="81.2822" width="4.54876" height="4.68254" transform="rotate(90 69.1709 81.2822)" fill="#82D8FF"/>
<rect x="69.1709" y="128.069" width="4.54876" height="4.68254" transform="rotate(90 69.1709 128.069)" fill="#82D8FF"/>
<rect x="43.7516" y="128.069" width="4.54876" height="4.68254" transform="rotate(90 43.7516 128.069)" fill="#82D8FF"/>
<rect x="43.7512" y="116.373" width="4.54876" height="4.68254" transform="rotate(90 43.7512 116.373)" fill="#82D8FF"/>
<rect x="69.1709" y="69.5859" width="4.54876" height="4.68254" transform="rotate(90 69.1709 69.5859)" fill="#82D8FF"/>
<rect x="69.1709" y="116.373" width="4.54876" height="4.68254" transform="rotate(90 69.1709 116.373)" fill="#82D8FF"/>
<rect x="69.1709" y="92.9795" width="4.54876" height="4.68254" transform="rotate(90 69.1709 92.9795)" fill="#82D8FF"/>
<rect x="31.0415" y="92.9795" width="4.54876" height="4.68254" transform="rotate(90 31.0415 92.9795)" fill="#82D8FF"/>
<rect x="120.01" y="57.8887" width="4.54876" height="4.68254" transform="rotate(90 120.01 57.8887)" fill="#82D8FF"/>
<rect x="120.01" y="104.676" width="4.54876" height="4.68254" transform="rotate(90 120.01 104.676)" fill="#82D8FF"/>
<rect x="56.4611" y="104.676" width="4.54876" height="4.68254" transform="rotate(90 56.4611 104.676)" fill="#82D8FF"/>
<rect x="120.01" y="81.2822" width="4.54876" height="4.68254" transform="rotate(90 120.01 81.2822)" fill="#82D8FF"/>
<rect x="120.01" y="128.069" width="4.54876" height="4.68254" transform="rotate(90 120.01 128.069)" fill="#82D8FF"/>
<rect x="120.01" y="69.5859" width="4.54876" height="4.68254" transform="rotate(90 120.01 69.5859)" fill="#82D8FF"/>
<rect x="120.01" y="116.373" width="4.54876" height="4.68254" transform="rotate(90 120.01 116.373)" fill="#82D8FF"/>
<rect x="120.01" y="92.9795" width="4.54876" height="4.68254" transform="rotate(90 120.01 92.9795)" fill="#82D8FF"/>
<rect x="120.01" y="139.767" width="4.54876" height="4.68254" transform="rotate(90 120.01 139.767)" fill="#82D8FF"/>
<rect x="18.3317" y="57.8887" width="4.54876" height="4.68254" transform="rotate(90 18.3317 57.8887)" fill="#82D8FF"/>
<rect x="18.3317" y="69.5859" width="4.54876" height="4.68254" transform="rotate(90 18.3317 69.5859)" fill="#82D8FF"/>
<rect x="81.8806" y="57.8887" width="4.54876" height="4.68254" transform="rotate(90 81.8806 57.8887)" fill="#82D8FF"/>
<rect x="81.8806" y="104.676" width="4.54876" height="4.68254" transform="rotate(90 81.8806 104.676)" fill="#82D8FF"/>
<rect x="18.3317" y="104.676" width="4.54876" height="4.68254" transform="rotate(90 18.3317 104.676)" fill="#82D8FF"/>
<rect x="81.8806" y="81.2822" width="4.54876" height="4.68254" transform="rotate(90 81.8806 81.2822)" fill="#82D8FF"/>
<rect x="81.8806" y="128.069" width="4.54876" height="4.68254" transform="rotate(90 81.8806 128.069)" fill="#82D8FF"/>
<rect x="56.4611" y="128.069" width="4.54876" height="4.68254" transform="rotate(90 56.4611 128.069)" fill="#82D8FF"/>
<rect x="56.4611" y="116.373" width="4.54876" height="4.68254" transform="rotate(90 56.4611 116.373)" fill="#82D8FF"/>
<rect x="81.8806" y="69.5859" width="4.54876" height="4.68254" transform="rotate(90 81.8806 69.5859)" fill="#82D8FF"/>
<rect x="81.8806" y="116.373" width="4.54876" height="4.68254" transform="rotate(90 81.8806 116.373)" fill="#82D8FF"/>
<rect x="81.8806" y="92.9795" width="4.54876" height="4.68254" transform="rotate(90 81.8806 92.9795)" fill="#82D8FF"/>
<rect x="43.7512" y="92.9795" width="4.54876" height="4.68254" transform="rotate(90 43.7512 92.9795)" fill="#82D8FF"/>
<rect x="81.8806" y="139.767" width="4.54876" height="4.68254" transform="rotate(90 81.8806 139.767)" fill="#82D8FF"/>
<rect x="132.719" y="57.8887" width="4.54876" height="4.68254" transform="rotate(90 132.719 57.8887)" fill="#82D8FF"/>
<rect x="132.719" y="104.676" width="4.54876" height="4.68254" transform="rotate(90 132.719 104.676)" fill="#82D8FF"/>
<rect x="132.719" y="81.2822" width="4.54876" height="4.68254" transform="rotate(90 132.719 81.2822)" fill="#82D8FF"/>
<rect x="132.719" y="128.069" width="4.54876" height="4.68254" transform="rotate(90 132.719 128.069)" fill="#82D8FF"/>
<rect x="132.719" y="69.5859" width="4.54876" height="4.68254" transform="rotate(90 132.719 69.5859)" fill="#82D8FF"/>
<rect x="132.719" y="116.373" width="4.54876" height="4.68254" transform="rotate(90 132.719 116.373)" fill="#82D8FF"/>
<rect x="132.719" y="92.9795" width="4.54876" height="4.68254" transform="rotate(90 132.719 92.9795)" fill="#82D8FF"/>
<rect x="132.719" y="139.767" width="4.54876" height="4.68254" transform="rotate(90 132.719 139.767)" fill="#82D8FF"/>
<rect x="31.0415" y="57.8887" width="4.54876" height="4.68254" transform="rotate(90 31.0415 57.8887)" fill="#82D8FF"/>
<rect x="31.0415" y="69.5859" width="4.54876" height="4.68254" transform="rotate(90 31.0415 69.5859)" fill="#82D8FF"/>
<rect x="56.4611" y="57.8887" width="4.54876" height="4.68254" transform="rotate(90 56.4611 57.8887)" fill="#82D8FF"/>
<rect x="56.4611" y="81.2822" width="4.54876" height="4.68254" transform="rotate(90 56.4611 81.2822)" fill="#82D8FF"/>
<rect x="56.4611" y="69.5859" width="4.54876" height="4.68254" transform="rotate(90 56.4611 69.5859)" fill="#82D8FF"/>
<rect x="56.4611" y="92.9795" width="4.54876" height="4.68254" transform="rotate(90 56.4611 92.9795)" fill="#82D8FF"/>
<rect x="18.3317" y="92.9795" width="4.54876" height="4.68254" transform="rotate(90 18.3317 92.9795)" fill="#82D8FF"/>
<rect x="107.3" y="57.8887" width="4.54876" height="4.68254" transform="rotate(90 107.3 57.8887)" fill="#82D8FF"/>
<rect x="107.3" y="104.676" width="4.54876" height="4.68254" transform="rotate(90 107.3 104.676)" fill="#82D8FF"/>
<rect x="43.7512" y="104.676" width="4.54876" height="4.68254" transform="rotate(90 43.7512 104.676)" fill="#82D8FF"/>
<rect x="107.3" y="81.2822" width="4.54876" height="4.68254" transform="rotate(90 107.3 81.2822)" fill="#82D8FF"/>
<rect x="107.3" y="128.069" width="4.54876" height="4.68254" transform="rotate(90 107.3 128.069)" fill="#82D8FF"/>
<rect x="107.3" y="69.5859" width="4.54876" height="4.68254" transform="rotate(90 107.3 69.5859)" fill="#82D8FF"/>
<rect x="107.3" y="116.373" width="4.54876" height="4.68254" transform="rotate(90 107.3 116.373)" fill="#82D8FF"/>
<rect x="107.3" y="92.9795" width="4.54876" height="4.68254" transform="rotate(90 107.3 92.9795)" fill="#82D8FF"/>
<rect x="107.3" y="139.767" width="4.54876" height="4.68254" transform="rotate(90 107.3 139.767)" fill="#82D8FF"/>
<rect x="5.62219" y="57.8887" width="4.54876" height="4.68254" transform="rotate(90 5.62219 57.8887)" fill="#82D8FF"/>
<rect x="94.5905" y="11.752" width="4.54876" height="4.68254" transform="rotate(90 94.5905 11.752)" fill="#82D8FF"/>
<rect x="31.0415" y="11.752" width="4.54876" height="4.68254" transform="rotate(90 31.0415 11.752)" fill="#82D8FF"/>
<rect x="94.5905" y="35.1455" width="4.54876" height="4.68254" transform="rotate(90 94.5905 35.1455)" fill="#82D8FF"/>
<rect x="94.5905" y="23.4482" width="4.54876" height="4.68254" transform="rotate(90 94.5905 23.4482)" fill="#82D8FF"/>
<rect x="94.5905" y="0.0546875" width="4.54876" height="4.68254" transform="rotate(90 94.5905 0.0546875)" fill="#82D8FF"/>
<rect x="94.5905" y="46.8418" width="4.54876" height="4.68254" transform="rotate(90 94.5905 46.8418)" fill="#82D8FF"/>
<rect x="43.7512" y="46.8418" width="4.54876" height="4.68254" transform="rotate(90 43.7512 46.8418)" fill="#82D8FF"/>
<rect x="69.1709" y="46.8418" width="4.54876" height="4.68254" transform="rotate(90 69.1709 46.8418)" fill="#82D8FF"/>
<rect x="69.1709" y="11.752" width="4.54876" height="4.68254" transform="rotate(90 69.1709 11.752)" fill="#82D8FF"/>
<rect x="5.62219" y="11.752" width="4.54876" height="4.68254" transform="rotate(90 5.62219 11.752)" fill="#82D8FF"/>
<rect x="69.1709" y="35.1455" width="4.54876" height="4.68254" transform="rotate(90 69.1709 35.1455)" fill="#82D8FF"/>
<rect x="43.7512" y="35.1455" width="4.54876" height="4.68254" transform="rotate(90 43.7512 35.1455)" fill="#82D8FF"/>
<rect x="43.7512" y="23.4482" width="4.54876" height="4.68254" transform="rotate(90 43.7512 23.4482)" fill="#82D8FF"/>
<rect x="69.1709" y="23.4482" width="4.54876" height="4.68254" transform="rotate(90 69.1709 23.4482)" fill="#82D8FF"/>
<rect x="69.1709" y="0.0546875" width="4.54876" height="4.68254" transform="rotate(90 69.1709 0.0546875)" fill="#82D8FF"/>
<rect x="31.0415" y="0.0546875" width="4.54876" height="4.68254" transform="rotate(90 31.0415 0.0546875)" fill="#82D8FF"/>
<rect x="120.01" y="11.752" width="4.54876" height="4.68254" transform="rotate(90 120.01 11.752)" fill="#82D8FF"/>
<rect x="56.4611" y="11.752" width="4.54876" height="4.68254" transform="rotate(90 56.4611 11.752)" fill="#82D8FF"/>
<rect x="120.01" y="35.1455" width="4.54876" height="4.68254" transform="rotate(90 120.01 35.1455)" fill="#82D8FF"/>
<rect x="120.01" y="23.4482" width="4.54876" height="4.68254" transform="rotate(90 120.01 23.4482)" fill="#82D8FF"/>
<rect x="120.01" y="0.0546875" width="4.54876" height="4.68254" transform="rotate(90 120.01 0.0546875)" fill="#82D8FF"/>
<rect x="120.01" y="46.8418" width="4.54876" height="4.68254" transform="rotate(90 120.01 46.8418)" fill="#82D8FF"/>
<rect x="18.3317" y="46.8418" width="4.54876" height="4.68254" transform="rotate(90 18.3317 46.8418)" fill="#82D8FF"/>
<rect x="81.8806" y="11.752" width="4.54876" height="4.68254" transform="rotate(90 81.8806 11.752)" fill="#82D8FF"/>
<rect x="18.3317" y="11.752" width="4.54876" height="4.68254" transform="rotate(90 18.3317 11.752)" fill="#82D8FF"/>
<rect x="81.8806" y="35.1455" width="4.54876" height="4.68254" transform="rotate(90 81.8806 35.1455)" fill="#82D8FF"/>
<rect x="56.4611" y="35.1455" width="4.54876" height="4.68254" transform="rotate(90 56.4611 35.1455)" fill="#82D8FF"/>
<rect x="56.4611" y="23.4482" width="4.54876" height="4.68254" transform="rotate(90 56.4611 23.4482)" fill="#82D8FF"/>
<rect x="81.8806" y="23.4482" width="4.54876" height="4.68254" transform="rotate(90 81.8806 23.4482)" fill="#82D8FF"/>
<rect x="81.8806" y="0.0546875" width="4.54876" height="4.68254" transform="rotate(90 81.8806 0.0546875)" fill="#82D8FF"/>
<rect x="43.7516" y="0.0546875" width="4.54876" height="4.68254" transform="rotate(90 43.7516 0.0546875)" fill="#82D8FF"/>
<rect x="81.8806" y="46.8418" width="4.54876" height="4.68254" transform="rotate(90 81.8806 46.8418)" fill="#82D8FF"/>
<rect x="132.719" y="11.752" width="4.54876" height="4.68254" transform="rotate(90 132.719 11.752)" fill="#82D8FF"/>
<rect x="132.719" y="35.1455" width="4.54876" height="4.68254" transform="rotate(90 132.719 35.1455)" fill="#82D8FF"/>
<rect x="132.719" y="23.4482" width="4.54876" height="4.68254" transform="rotate(90 132.719 23.4482)" fill="#82D8FF"/>
<rect x="132.719" y="0.0546875" width="4.54876" height="4.68254" transform="rotate(90 132.719 0.0546875)" fill="#82D8FF"/>
<rect x="132.719" y="46.8418" width="4.54876" height="4.68254" transform="rotate(90 132.719 46.8418)" fill="#82D8FF"/>
<rect x="31.0415" y="46.8418" width="4.54876" height="4.68254" transform="rotate(90 31.0415 46.8418)" fill="#82D8FF"/>
<rect x="56.4611" y="46.8418" width="4.54876" height="4.68254" transform="rotate(90 56.4611 46.8418)" fill="#82D8FF"/>
<rect x="56.4611" y="0.0546875" width="4.54876" height="4.68254" transform="rotate(90 56.4611 0.0546875)" fill="#82D8FF"/>
<rect x="18.3317" y="0.0546875" width="4.54876" height="4.68254" transform="rotate(90 18.3317 0.0546875)" fill="#82D8FF"/>
<rect x="107.3" y="11.752" width="4.54876" height="4.68254" transform="rotate(90 107.3 11.752)" fill="#82D8FF"/>
<rect x="43.7512" y="11.752" width="4.54876" height="4.68254" transform="rotate(90 43.7512 11.752)" fill="#82D8FF"/>
<rect x="107.3" y="35.1455" width="4.54876" height="4.68254" transform="rotate(90 107.3 35.1455)" fill="#82D8FF"/>
<rect x="107.3" y="23.4482" width="4.54876" height="4.68254" transform="rotate(90 107.3 23.4482)" fill="#82D8FF"/>
<rect x="107.3" y="0.0546875" width="4.54876" height="4.68254" transform="rotate(90 107.3 0.0546875)" fill="#82D8FF"/>
<rect x="107.3" y="46.8418" width="4.54876" height="4.68254" transform="rotate(90 107.3 46.8418)" fill="#82D8FF"/>
<rect x="5.62219" y="46.8418" width="4.54876" height="4.68254" transform="rotate(90 5.62219 46.8418)" fill="#82D8FF"/>
</g>
</svg>
