<svg width="165" height="101" viewBox="0 0 165 101" fill="none" xmlns="http://www.w3.org/2000/svg">
<g opacity="0.6">
<rect x="66.0537" y="0.457031" width="5.175" height="5.02714" fill="#82D8FF"/>
<rect x="119.282" y="0.457031" width="5.175" height="5.02714" fill="#82D8FF"/>
<rect x="119.282" y="68.6826" width="5.175" height="5.02714" fill="#82D8FF"/>
<rect x="92.6682" y="0.457031" width="5.175" height="5.02714" fill="#82D8FF"/>
<rect x="145.897" y="0.457031" width="5.175" height="5.02714" fill="#82D8FF"/>
<rect x="79.3608" y="0.457031" width="5.175" height="5.02714" fill="#82D8FF"/>
<rect x="132.589" y="0.457031" width="5.175" height="5.02714" fill="#82D8FF"/>
<rect x="105.975" y="0.457031" width="5.175" height="5.02714" fill="#82D8FF"/>
<rect x="159.204" y="0.457031" width="5.175" height="5.02714" fill="#82D8FF"/>
<rect x="66.0537" y="55.0371" width="5.175" height="5.02714" fill="#82D8FF"/>
<rect x="92.6678" y="55.0371" width="5.175" height="5.02714" fill="#82D8FF"/>
<rect x="92.6678" y="68.6826" width="5.175" height="5.02714" fill="#82D8FF"/>
<rect x="79.3608" y="55.0371" width="5.175" height="5.02714" fill="#82D8FF"/>
<rect x="66.0537" y="27.7471" width="5.175" height="5.02714" fill="#82D8FF"/>
<rect x="119.282" y="27.7471" width="5.175" height="5.02714" fill="#82D8FF"/>
<rect x="119.282" y="95.9727" width="5.175" height="5.02714" fill="#82D8FF"/>
<rect x="92.6682" y="27.7471" width="5.175" height="5.02714" fill="#82D8FF"/>
<rect x="145.897" y="27.7471" width="5.175" height="5.02714" fill="#82D8FF"/>
<rect x="145.897" y="55.0371" width="5.175" height="5.02714" fill="#82D8FF"/>
<rect x="132.589" y="55.0371" width="5.175" height="5.02714" fill="#82D8FF"/>
<rect x="79.3608" y="27.7471" width="5.175" height="5.02714" fill="#82D8FF"/>
<rect x="132.589" y="27.7471" width="5.175" height="5.02714" fill="#82D8FF"/>
<rect x="105.975" y="27.7471" width="5.175" height="5.02714" fill="#82D8FF"/>
<rect x="105.975" y="68.6826" width="5.175" height="5.02714" fill="#82D8FF"/>
<rect x="119.282" y="41.3926" width="5.175" height="5.02714" fill="#82D8FF"/>
<rect x="66.0537" y="82.3281" width="5.175" height="5.02714" fill="#82D8FF"/>
<rect x="79.3608" y="82.3281" width="5.175" height="5.02714" fill="#82D8FF"/>
<rect x="66.0537" y="14.1025" width="5.175" height="5.02714" fill="#82D8FF"/>
<rect x="119.282" y="14.1025" width="5.175" height="5.02714" fill="#82D8FF"/>
<rect x="119.282" y="82.3281" width="5.175" height="5.02714" fill="#82D8FF"/>
<rect x="92.6682" y="14.1025" width="5.175" height="5.02714" fill="#82D8FF"/>
<rect x="145.897" y="14.1025" width="5.175" height="5.02714" fill="#82D8FF"/>
<rect x="145.897" y="41.3926" width="5.175" height="5.02714" fill="#82D8FF"/>
<rect x="132.589" y="41.3926" width="5.175" height="5.02714" fill="#82D8FF"/>
<rect x="79.3608" y="14.1025" width="5.175" height="5.02714" fill="#82D8FF"/>
<rect x="132.589" y="14.1025" width="5.175" height="5.02714" fill="#82D8FF"/>
<rect x="105.975" y="14.1025" width="5.175" height="5.02714" fill="#82D8FF"/>
<rect x="105.975" y="55.0371" width="5.175" height="5.02714" fill="#82D8FF"/>
<rect x="159.204" y="14.1025" width="5.175" height="5.02714" fill="#82D8FF"/>
<rect x="66.0537" y="68.6826" width="5.175" height="5.02714" fill="#82D8FF"/>
<rect x="79.3608" y="68.6826" width="5.175" height="5.02714" fill="#82D8FF"/>
<rect x="66.0537" y="41.3926" width="5.175" height="5.02714" fill="#82D8FF"/>
<rect x="92.6682" y="41.3926" width="5.175" height="5.02714" fill="#82D8FF"/>
<rect x="79.3608" y="41.3926" width="5.175" height="5.02714" fill="#82D8FF"/>
<rect x="105.975" y="41.3926" width="5.175" height="5.02714" fill="#82D8FF"/>
<rect x="105.975" y="82.3281" width="5.175" height="5.02714" fill="#82D8FF"/>
<rect x="119.282" y="55.0371" width="5.175" height="5.02714" fill="#82D8FF"/>
<rect x="66.0537" y="95.9727" width="5.175" height="5.02714" fill="#82D8FF"/>
<rect x="13.5646" y="0.457031" width="5.175" height="5.02714" fill="#82D8FF"/>
<rect x="13.5646" y="68.6826" width="5.175" height="5.02714" fill="#82D8FF"/>
<rect x="40.1787" y="0.457031" width="5.175" height="5.02714" fill="#82D8FF"/>
<rect x="26.8716" y="0.457031" width="5.175" height="5.02714" fill="#82D8FF"/>
<rect x="0.257324" y="0.457031" width="5.175" height="5.02714" fill="#82D8FF"/>
<rect x="53.4858" y="0.457031" width="5.175" height="5.02714" fill="#82D8FF"/>
<rect x="53.4858" y="55.0371" width="5.175" height="5.02714" fill="#82D8FF"/>
<rect x="53.4858" y="27.7471" width="5.175" height="5.02714" fill="#82D8FF"/>
<rect x="13.5646" y="27.7471" width="5.175" height="5.02714" fill="#82D8FF"/>
<rect x="13.5646" y="95.9727" width="5.175" height="5.02714" fill="#82D8FF"/>
<rect x="40.1787" y="27.7471" width="5.175" height="5.02714" fill="#82D8FF"/>
<rect x="40.1787" y="55.0371" width="5.175" height="5.02714" fill="#82D8FF"/>
<rect x="26.8716" y="55.0371" width="5.175" height="5.02714" fill="#82D8FF"/>
<rect x="26.8716" y="27.7471" width="5.175" height="5.02714" fill="#82D8FF"/>
<rect x="0.257324" y="27.7471" width="5.175" height="5.02714" fill="#82D8FF"/>
<rect x="0.257324" y="68.6826" width="5.175" height="5.02714" fill="#82D8FF"/>
<rect x="13.5646" y="41.3926" width="5.175" height="5.02714" fill="#82D8FF"/>
<rect x="53.4858" y="82.3281" width="5.175" height="5.02714" fill="#82D8FF"/>
<rect x="13.5646" y="14.1025" width="5.175" height="5.02714" fill="#82D8FF"/>
<rect x="13.5646" y="82.3281" width="5.175" height="5.02714" fill="#82D8FF"/>
<rect x="40.1787" y="14.1025" width="5.175" height="5.02714" fill="#82D8FF"/>
<rect x="40.1787" y="41.3926" width="5.175" height="5.02714" fill="#82D8FF"/>
<rect x="26.8716" y="41.3926" width="5.175" height="5.02714" fill="#82D8FF"/>
<rect x="26.8716" y="14.1025" width="5.175" height="5.02714" fill="#82D8FF"/>
<rect x="0.257324" y="14.1025" width="5.175" height="5.02714" fill="#82D8FF"/>
<rect x="0.257324" y="55.0371" width="5.175" height="5.02714" fill="#82D8FF"/>
<rect x="53.4858" y="14.1025" width="5.175" height="5.02714" fill="#82D8FF"/>
<rect x="53.4858" y="68.6826" width="5.175" height="5.02714" fill="#82D8FF"/>
<rect x="53.4858" y="41.3926" width="5.175" height="5.02714" fill="#82D8FF"/>
<rect x="0.257324" y="41.3926" width="5.175" height="5.02714" fill="#82D8FF"/>
<rect x="0.257324" y="82.3281" width="5.175" height="5.02714" fill="#82D8FF"/>
<rect x="13.5646" y="55.0371" width="5.175" height="5.02714" fill="#82D8FF"/>
<rect x="53.4858" y="95.9727" width="5.175" height="5.02714" fill="#82D8FF"/>
</g>
</svg>
