<svg width="266" height="256" viewBox="0 0 266 256" fill="none" xmlns="http://www.w3.org/2000/svg">
<path d="M226.72 124.781C174.764 94.7646 90.777 94.7646 39.1539 124.781C-12.4692 154.797 -12.2182 203.469 39.7376 233.485C91.6935 263.501 175.681 263.501 227.31 233.485C278.939 203.469 278.676 154.803 226.72 124.781Z" fill="#93E0FF"/>
<path d="M226.117 115.738C174.161 85.7217 90.1739 85.7217 38.5508 115.738C-13.0722 145.754 -12.8212 194.426 39.1346 224.442C91.0905 254.458 175.078 254.458 226.707 224.442C278.336 194.426 278.073 145.76 226.117 115.738Z" fill="#F1FBFF"/>
<path d="M117.58 39.0651H117.93C118.728 39.1331 119.473 39.4929 120.022 40.0757C120.572 40.6585 120.887 41.4234 120.908 42.2241L121.354 58.9594L124.187 76.0805C123.513 76.8566 122.632 77.4251 121.647 77.7197C120.661 78.0143 119.613 78.0228 118.623 77.7444L117.58 39.0651Z" fill="#E0E0E0"/>
<path opacity="0.2" d="M117.58 39.0651H117.93C118.728 39.1331 119.473 39.4929 120.022 40.0757C120.572 40.6585 120.887 41.4234 120.908 42.2241L121.354 58.9594L124.187 76.0805C123.513 76.8566 122.632 77.4251 121.647 77.7197C120.661 78.0143 119.613 78.0228 118.623 77.7444L117.58 39.0651Z" fill="black"/>
<path opacity="0.3" d="M119.769 47.3303L117.665 42.0553L118.63 77.7746C119.205 77.9266 119.801 77.9876 120.396 77.9554L120.492 51.1283C120.497 49.8276 120.251 48.5383 119.769 47.3303Z" fill="black"/>
<path d="M96.4565 61.5698V89.1022C96.2696 92.2371 102.166 91.4835 111.034 86.2929C118.81 81.7414 119.377 82.7843 119.377 77.3405C119.377 71.8967 119.781 50.0492 119.781 50.0492C119.685 46.842 117.581 39.0651 117.581 39.0651L111.721 38.5708L102.708 43.0982L96.4565 48.5963V61.5698Z" fill="#E0E0E0"/>
<path opacity="0.2" d="M96.4565 61.5698V89.1022C96.2696 92.2371 102.166 91.4835 111.034 86.2929C118.81 81.7414 119.377 82.7843 119.377 77.3405C119.377 71.8967 119.781 50.0492 119.781 50.0492C119.685 46.842 117.581 39.0651 117.581 39.0651L111.721 38.5708L102.708 43.0982L96.4565 48.5963V61.5698Z" fill="black"/>
<path opacity="0.3" d="M98.4157 86.8415V74.3744L99.4949 61.2563L96.4806 62.3294V89.1022C96.3841 90.6877 97.843 91.2725 100.447 90.8083C99.3321 90.3803 98.4157 89.2891 98.4157 86.8415Z" fill="black"/>
<path d="M96.456 48.5963L94.2315 50.9776C92.8749 52.4315 91.9847 54.2582 91.6753 56.2224L89.2217 71.8967C88.9202 73.8221 88.9202 75.7828 89.2217 77.7082L91.6814 93.3162C95.823 94.2808 97.8185 91.4172 97.8185 91.4172L96.456 74.6276L99.4703 61.2442L96.456 48.5963Z" fill="#E0E0E0"/>
<path opacity="0.2" d="M96.456 48.5963L94.2315 50.9776C92.8749 52.4315 91.9847 54.2582 91.6753 56.2224L89.2217 71.8967C88.9202 73.8221 88.9202 75.7828 89.2217 77.7082L91.6814 93.3162C95.823 94.2808 97.8185 91.4172 97.8185 91.4172L96.456 74.6276L99.4703 61.2442L96.456 48.5963Z" fill="black"/>
<path d="M103.703 40.6868L110.178 37.787V48.9218L103.703 40.6868Z" fill="#E0E0E0"/>
<path opacity="0.3" d="M103.703 40.6868L110.178 37.787V48.9218L103.703 40.6868Z" fill="black"/>
<path d="M103.805 43.5383C103.849 43.966 103.989 44.3782 104.215 44.744L111.033 40.7953C111.238 40.2407 110.864 39.9754 110.924 39.4329L108.893 40.6386L107.488 41.4223L106.723 41.8624L103.805 43.5383Z" fill="#F28F8F"/>
<path d="M107.489 41.4223V40.8194V39.9996C108.279 39.4007 108.93 38.637 109.395 37.7615C109.86 36.8859 110.13 35.9196 110.184 34.9295C110.184 32.9702 108.785 32.1865 107.091 33.1632C105.702 34.0649 104.686 35.44 104.234 37.0335C104.092 37.5048 104.019 37.9942 104.017 38.4864C104.017 38.7336 104.191 38.83 104.402 38.7094C104.513 38.6366 104.606 38.5386 104.672 38.4233C104.738 38.3081 104.776 38.1789 104.782 38.0463C104.786 37.6768 104.84 37.3096 104.945 36.9551C105.281 35.7549 106.044 34.7191 107.091 34.0433C108.375 33.3018 109.412 33.9047 109.418 35.3696C109.375 36.1713 109.143 36.9514 108.742 37.6469C108.341 38.3423 107.781 38.9335 107.109 39.3726C106.996 39.4437 106.902 39.5411 106.835 39.6566C106.767 39.7722 106.729 39.9022 106.723 40.0357V41.8443L107.489 41.4223Z" fill="#E0E0E0"/>
<path d="M103.703 40.6868L110.178 48.9218L105.325 53.5879L102.708 43.0982L103.703 40.6868Z" fill="#E0E0E0"/>
<path d="M110.177 48.9218V37.787L111.286 38.7878L112.878 49.6452L110.177 48.9218Z" fill="#E0E0E0"/>
<path opacity="0.1" d="M103.703 40.6868L110.178 48.9218L105.325 53.5879L102.708 43.0982L103.703 40.6868Z" fill="black"/>
<path opacity="0.1" d="M110.177 48.9218V37.787L111.286 38.7878L112.878 49.6452L110.177 48.9218Z" fill="black"/>
<path d="M112.595 50.1456L110.931 51.1765C108.235 52.8573 105.933 55.0984 104.179 57.7477L100.562 63.2096C102.299 65.6394 104.909 67.3029 107.845 67.8516V95.384C107.658 98.5249 113.427 97.5423 122.422 92.5807C131.416 87.6192 132.501 88.5235 132.501 83.0797C132.501 77.6359 131.169 56.337 131.169 56.337C132.43 55.1343 133.399 53.66 134.004 52.0261C134.609 50.3922 134.833 48.6419 134.66 46.9083L130.542 44.6476C129.283 43.9609 127.815 43.7613 126.419 44.0869L123.109 44.8526L112.595 50.1456Z" fill="#455A64"/>
<path d="M114.946 70.8176C113.728 71.5476 112.374 72.0234 110.967 72.2162C110.411 72.2681 109.85 72.2067 109.319 72.0358C108.787 71.8648 108.296 71.5878 107.875 71.2215V78.07C108.296 78.4363 108.787 78.7133 109.319 78.8842C109.85 79.0552 110.411 79.1166 110.967 79.0647C112.374 78.8719 113.728 78.3961 114.946 77.6661C120.803 74.6325 126.443 71.1981 131.826 67.3874C131.693 64.9759 131.555 62.673 131.446 60.8042C126.179 64.5108 120.666 67.8563 114.946 70.8176Z" fill="white"/>
<path opacity="0.15" d="M109.05 93.4428V67.7129C108.657 67.8163 108.251 67.863 107.844 67.8515V95.384C107.784 96.439 108.405 97.0178 109.581 97.1504C108.803 96.427 109.14 95.2092 109.05 93.4428Z" fill="black"/>
<path d="M122.132 45.3529L113.771 49.5729C116.694 54.3295 122.693 52.1411 122.132 45.3529Z" fill="#455A64"/>
<path opacity="0.4" d="M122.132 45.3529L113.771 49.5729C116.694 54.3295 122.693 52.1411 122.132 45.3529Z" fill="black"/>
<path d="M114.114 50.4651C114.159 50.8926 114.299 51.3046 114.524 51.6709L122.433 47.1012C122.634 46.5648 122.77 46.0062 122.837 45.4373L120.293 46.9143L118.888 47.7282L118.129 48.1683L114.114 50.4651Z" fill="#F28F8F"/>
<path d="M118.889 47.698V47.0952V46.2753C119.679 45.6752 120.33 44.9104 120.795 44.0339C121.26 43.1574 121.53 42.1901 121.584 41.1992C121.584 39.246 120.191 38.4562 118.491 39.4389C117.099 40.3381 116.083 41.7143 115.634 43.3092C115.494 43.7811 115.421 44.2701 115.417 44.7621C115.417 45.0093 115.591 45.0997 115.802 44.9791C115.914 44.9066 116.006 44.8087 116.072 44.6934C116.138 44.5781 116.176 44.4487 116.182 44.316C116.186 43.9485 116.24 43.5832 116.345 43.2309C116.685 42.0295 117.45 40.9925 118.497 40.313C119.775 39.5776 120.812 40.1744 120.818 41.6453C120.774 42.4467 120.541 43.2264 120.139 43.9209C119.737 44.6154 119.176 45.2052 118.503 45.6423C118.392 45.7152 118.3 45.8132 118.234 45.9284C118.168 46.0436 118.13 46.1728 118.123 46.3054V48.114L118.889 47.698Z" fill="#E0E0E0"/>
<path d="M123.121 44.8525L122.132 45.3529C122.693 52.1411 116.706 54.3295 113.77 49.5729L112.595 50.1758C116.194 56.554 124.091 53.7206 123.121 44.8525Z" fill="white"/>
<path d="M144.86 55.4508H145.216C146.014 55.5188 146.759 55.8786 147.308 56.4614C147.858 57.0442 148.173 57.8091 148.194 58.6098L148.64 75.339L151.473 92.4602C150.799 93.2373 149.919 93.807 148.933 94.1026C147.948 94.3983 146.899 94.4078 145.909 94.1301L144.86 55.4508Z" fill="#6ED0FF"/>
<path opacity="0.2" d="M144.86 55.4508H145.216C146.014 55.5188 146.759 55.8786 147.308 56.4614C147.858 57.0442 148.173 57.8091 148.194 58.6098L148.64 75.339L151.473 92.4602C150.799 93.2373 149.919 93.807 148.933 94.1026C147.948 94.3983 146.899 94.4078 145.909 94.1301L144.86 55.4508Z" fill="black"/>
<path opacity="0.3" d="M147.042 63.728L144.938 58.453L145.909 94.1723C146.484 94.3249 147.08 94.3859 147.675 94.3531L147.765 67.526C147.77 66.2253 147.525 64.9358 147.042 63.728Z" fill="black"/>
<path d="M123.741 77.9554V105.488C123.548 108.623 129.444 107.869 138.318 102.679C146.095 98.127 146.656 99.17 146.656 93.7262C146.656 88.2824 147.06 66.4348 147.06 66.4348C146.963 63.2276 144.859 55.4508 144.859 55.4508L139 54.9564L130.017 59.508L123.759 65.0061L123.741 77.9554Z" fill="#6ED0FF"/>
<path opacity="0.2" d="M123.741 77.9554V105.488C123.548 108.623 129.444 107.869 138.318 102.679C146.095 98.127 146.656 99.17 146.656 93.7262C146.656 88.2824 147.06 66.4348 147.06 66.4348C146.963 63.2276 144.859 55.4508 144.859 55.4508L139 54.9564L130.017 59.508L123.759 65.0061L123.741 77.9554Z" fill="black"/>
<path opacity="0.3" d="M125.695 103.227V90.7601L126.774 77.6419L123.759 78.715V105.488C123.663 107.067 125.116 107.658 127.72 107.194C126.617 106.766 125.695 105.675 125.695 103.227Z" fill="black"/>
<path d="M123.736 64.9819L121.511 67.3451C120.155 68.7988 119.267 70.6259 118.961 72.59L116.501 88.2643C116.197 90.1895 116.197 92.1506 116.501 94.0758L118.955 109.684C123.097 110.648 125.092 107.785 125.092 107.785L123.736 90.9952L126.75 77.6118L123.736 64.9819Z" fill="#6ED0FF"/>
<path opacity="0.2" d="M123.736 64.9819L121.511 67.3451C120.155 68.7988 119.267 70.6259 118.961 72.59L116.501 88.2643C116.197 90.1895 116.197 92.1506 116.501 94.0758L118.955 109.684C123.097 110.648 125.092 107.785 125.092 107.785L123.736 90.9952L126.75 77.6118L123.736 64.9819Z" fill="black"/>
<path d="M130.988 57.0725L137.457 54.1727V65.3015L130.988 57.0725Z" fill="#6ED0FF"/>
<path opacity="0.3" d="M130.988 57.0725L137.457 54.1727V65.3015L130.988 57.0725Z" fill="black"/>
<path d="M131.084 59.924C131.131 60.351 131.271 60.7625 131.494 61.1297L138.319 57.181C138.518 56.6264 138.144 56.3611 138.204 55.8185L136.179 57.0242L134.768 57.8321L134.008 58.2782L131.084 59.924Z" fill="#F28F8F"/>
<path d="M134.769 57.7959V57.193V56.3731C135.557 55.7729 136.205 55.0087 136.67 54.1333C137.134 53.258 137.403 52.2924 137.457 51.3031C137.457 49.3438 136.065 48.5601 134.365 49.5367C132.975 50.4371 131.961 51.8131 131.513 53.4071C131.372 53.8788 131.297 54.3677 131.29 54.86C131.29 55.1071 131.465 55.2036 131.676 55.083C131.787 55.0105 131.88 54.9126 131.946 54.7973C132.012 54.682 132.049 54.5526 132.056 54.4199C132.059 54.0503 132.114 53.6831 132.218 53.3287C132.559 52.129 133.324 51.0941 134.371 50.4169C135.649 49.6754 136.686 50.2722 136.692 51.7432C136.65 52.5452 136.418 53.3259 136.017 54.0216C135.616 54.7172 135.056 55.3082 134.383 55.7462C134.271 55.8187 134.179 55.9166 134.113 56.0319C134.047 56.1472 134.009 56.2766 134.003 56.4093V58.2179L134.769 57.7959Z" fill="#E0E0E0"/>
<path d="M130.988 57.0725L137.457 65.3015L132.604 69.9736L129.994 59.4839L130.988 57.0725Z" fill="#6ED0FF"/>
<path d="M137.457 65.3015V54.1727L138.566 55.1735L140.164 66.0309L137.457 65.3015Z" fill="#6ED0FF"/>
<path opacity="0.1" d="M130.988 57.0725L137.457 65.3015L132.604 69.9736L129.994 59.4839L130.988 57.0725Z" fill="black"/>
<path opacity="0.1" d="M137.457 65.3015V54.1727L138.566 55.1735L140.164 66.0309L137.457 65.3015Z" fill="black"/>
<path d="M156.651 61.3166L157.007 61.3467C157.805 61.4132 158.55 61.7718 159.099 62.3536C159.649 62.9354 159.964 63.6996 159.985 64.4996L160.431 81.2349L163.265 98.3561C162.59 99.1322 161.709 99.7006 160.724 99.9952C159.739 100.29 158.69 100.298 157.7 100.02L156.651 61.3166Z" fill="#6ED0FF"/>
<path opacity="0.3" d="M156.651 61.3166L157.007 61.3467C157.805 61.4132 158.55 61.7718 159.099 62.3536C159.649 62.9354 159.964 63.6996 159.985 64.4996L160.431 81.2349L163.265 98.3561C162.59 99.1322 161.709 99.7006 160.724 99.9952C159.739 100.29 158.69 100.298 157.7 100.02L156.651 61.3166Z" fill="white"/>
<path opacity="0.2" d="M158.84 69.5516L156.736 64.2766L157.7 99.9898C158.276 100.142 158.872 100.205 159.467 100.177L159.557 73.3737C159.568 72.0652 159.324 70.7671 158.84 69.5516Z" fill="black"/>
<path d="M135.534 83.785V111.318C135.341 114.458 141.243 113.729 150.111 108.514C157.888 103.957 158.455 105.006 158.455 99.5558C158.455 94.1059 158.859 72.2705 158.859 72.2705C158.762 69.0573 156.652 61.2864 156.652 61.2864L150.799 60.7861L141.756 65.3135L135.498 70.8176L135.534 83.785Z" fill="#6ED0FF"/>
<path opacity="0.4" d="M135.534 83.785V111.318C135.341 114.458 141.243 113.729 150.111 108.514C157.888 103.957 158.455 105.006 158.455 99.5558C158.455 94.1059 158.859 72.2705 158.859 72.2705C158.762 69.0573 156.652 61.2864 156.652 61.2864L150.799 60.7861L141.756 65.3135L135.498 70.8176L135.534 83.785Z" fill="white"/>
<path opacity="0.2" d="M137.487 109.063V96.5897L138.566 83.4715L135.551 84.5507V111.318C135.455 112.903 136.914 113.494 139.518 113.024C138.409 112.596 137.487 111.504 137.487 109.063Z" fill="black"/>
<path d="M135.528 70.8176L133.309 73.229C131.952 74.6823 131.061 76.5093 130.753 78.4739L128.299 94.1482C127.998 96.0716 127.998 98.0302 128.299 99.9537L130.759 115.568C134.901 116.532 136.896 113.669 136.896 113.669L135.534 96.8851L138.548 83.4957L139.018 81.4098C139.395 79.7178 139.355 77.9597 138.901 76.2867C138.447 74.6138 137.594 73.0761 136.414 71.8063L135.528 70.8176Z" fill="#6ED0FF"/>
<path opacity="0.3" d="M135.528 70.8176L133.309 73.229C131.952 74.6823 131.061 76.5093 130.753 78.4739L128.299 94.1482C127.998 96.0716 127.998 98.0302 128.299 99.9537L130.759 115.568C134.901 116.532 136.896 113.669 136.896 113.669L135.534 96.8851L138.548 83.4957L139.018 81.4098C139.395 79.7178 139.355 77.9597 138.901 76.2867C138.447 74.6138 137.594 73.0761 136.414 71.8063L135.528 70.8176Z" fill="white"/>
<path d="M142.78 62.9021L149.255 60.0023V71.1371L142.78 62.9021Z" fill="#6ED0FF"/>
<path opacity="0.3" d="M142.78 62.9021L149.255 60.0023V71.1371L142.78 62.9021Z" fill="black"/>
<path d="M142.882 65.7596C142.924 66.1877 143.064 66.6003 143.292 66.9653L150.11 63.0166C150.315 62.462 149.941 62.1967 150.002 61.6481L147.97 62.8539L146.565 63.6677L145.8 64.1078L142.882 65.7596Z" fill="#F28F8F"/>
<path d="M146.566 63.6315V63.0287V62.2088C147.355 61.6076 148.005 60.8425 148.47 59.9662C148.935 59.09 149.205 58.1233 149.261 57.1327C149.261 55.1795 147.862 54.3897 146.168 55.3724C144.774 56.2696 143.758 57.6465 143.311 59.2427C143.169 59.714 143.095 60.2034 143.094 60.6956C143.094 60.9428 143.269 61.0332 143.474 60.9126C143.587 60.8416 143.681 60.7441 143.748 60.6286C143.815 60.5131 143.854 60.383 143.859 60.2495C143.86 59.8817 143.915 59.5161 144.022 59.1644C144.358 57.9627 145.121 56.925 146.168 56.2465C147.446 55.511 148.489 56.1079 148.489 57.5788C148.448 58.3795 148.218 59.159 147.817 59.8536C147.417 60.5483 146.858 61.1384 146.186 61.5758C146.074 61.6476 145.98 61.7453 145.913 61.8606C145.846 61.9759 145.807 62.1057 145.801 62.2389V64.0475L146.566 63.6315Z" fill="#E0E0E0"/>
<path d="M142.779 62.9021L149.254 71.1371L144.401 75.8032L141.785 65.3135L142.779 62.9021Z" fill="#6ED0FF"/>
<path d="M149.255 71.1371V60.0023L150.364 61.0091L151.956 71.8666L149.255 71.1371Z" fill="#6ED0FF"/>
<path opacity="0.1" d="M142.779 62.9021L149.254 71.1371L144.401 75.8032L141.785 65.3135L142.779 62.9021Z" fill="white"/>
<path opacity="0.1" d="M149.255 71.1371V60.0023L150.364 61.0091L151.956 71.8666L149.255 71.1371Z" fill="white"/>
<path d="M156.211 75.5681L144.19 88.638C145.932 91.0632 148.543 92.722 151.479 93.268V120.8C151.286 123.935 157.055 122.959 166.05 117.991C175.045 113.024 176.13 113.934 176.13 108.49C176.13 103.046 174.797 81.7474 174.797 81.7474C176.061 80.5469 177.033 79.0728 177.638 77.4384C178.243 75.8039 178.465 74.0525 178.288 72.3187L166.737 70.269L156.211 75.5681Z" fill="#455A64"/>
<path opacity="0.15" d="M152.667 118.865V93.1354C152.274 93.242 151.868 93.2907 151.461 93.28V120.813C151.395 121.868 152.015 122.446 153.191 122.573C152.419 121.855 152.757 120.638 152.667 118.865Z" fill="black"/>
<path opacity="0.2" d="M156.211 75.5681L144.19 88.638C145.932 91.0632 148.543 92.722 151.479 93.268V120.8C151.286 123.935 157.055 122.959 166.05 117.991C175.045 113.024 176.13 113.934 176.13 108.49C176.13 103.046 174.797 81.7474 174.797 81.7474C176.061 80.5469 177.033 79.0728 177.638 77.4384C178.243 75.8039 178.465 74.0525 178.288 72.3187L166.737 70.269L156.211 75.5681Z" fill="black"/>
<path opacity="0.1" d="M156.211 75.5681L144.19 88.638C145.932 91.0632 148.543 92.722 151.479 93.268V120.8C151.286 123.935 157.055 122.959 166.05 117.991C175.045 113.024 176.13 113.934 176.13 108.49C176.13 103.046 174.797 81.7474 174.797 81.7474C176.061 80.5469 177.033 79.0728 177.638 77.4384C178.243 75.8039 178.465 74.0525 178.288 72.3187L166.737 70.269L156.211 75.5681Z" fill="white"/>
<path d="M165.748 70.7754L157.387 74.9954C160.311 79.7519 166.309 77.5937 165.748 70.7754Z" fill="#455A64"/>
<path opacity="0.4" d="M165.748 70.7754L157.387 74.9954C160.311 79.7519 166.309 77.5937 165.748 70.7754Z" fill="black"/>
<path d="M157.749 75.8695C157.793 76.2972 157.933 76.7094 158.159 77.0753L166.068 72.5056C166.27 71.9695 166.406 71.4107 166.472 70.8417L163.934 72.3247L162.524 73.1326L161.764 73.5787L157.749 75.8695Z" fill="#F28F8F"/>
<path d="M162.506 73.1205V72.5176V71.6978C163.295 71.0968 163.944 70.3317 164.408 69.4552C164.872 68.5788 165.141 67.612 165.195 66.6217C165.195 64.6684 163.802 63.8847 162.102 64.8614C160.712 65.763 159.697 67.1382 159.244 68.7317C159.108 69.2043 159.035 69.6929 159.027 70.1846C159.027 70.4318 159.202 70.5282 159.413 70.4076C159.525 70.3351 159.617 70.2372 159.683 70.1219C159.749 70.0066 159.787 69.8772 159.793 69.7445C159.796 69.375 159.851 69.0077 159.956 68.6533C160.296 67.4537 161.061 66.4187 162.108 65.7415C163.386 65 164.423 65.5968 164.429 67.0678C164.387 67.8698 164.156 68.6505 163.754 69.3462C163.353 70.0418 162.793 70.6328 162.12 71.0708C162.009 71.1433 161.916 71.2412 161.85 71.3565C161.784 71.4718 161.746 71.6012 161.74 71.7339V73.5425L162.506 73.1205Z" fill="#E0E0E0"/>
<path d="M166.737 70.281L165.748 70.7754C166.309 77.5696 160.322 79.7519 157.386 74.9954L156.211 75.5982C159.816 81.9825 167.707 79.1491 166.737 70.281Z" fill="white"/>
<path d="M167.997 82.5733L155.976 95.6372C157.716 98.067 160.327 99.7302 163.265 100.279V127.812C163.072 130.953 168.841 129.976 177.842 125.008C186.842 120.041 187.921 120.951 187.921 115.507C187.921 110.064 186.589 88.7647 186.589 88.7647C187.85 87.562 188.819 86.0876 189.424 84.4538C190.029 82.8199 190.253 81.0696 190.08 79.336L178.529 77.2863L167.997 82.5733Z" fill="#6ED0FF"/>
<path opacity="0.15" d="M164.464 125.87V100.141C164.071 100.244 163.665 100.291 163.259 100.279V127.812C163.192 128.867 163.819 129.445 164.995 129.578C164.217 128.837 164.555 127.631 164.464 125.87Z" fill="black"/>
<path opacity="0.2" d="M167.997 82.5733L155.976 95.6372C157.716 98.067 160.327 99.7302 163.265 100.279V127.812C163.072 130.953 168.841 129.976 177.842 125.008C186.842 120.041 187.921 120.951 187.921 115.507C187.921 110.064 186.589 88.7647 186.589 88.7647C187.85 87.562 188.819 86.0876 189.424 84.4538C190.029 82.8199 190.253 81.0696 190.08 79.336L178.529 77.2863L167.997 82.5733Z" fill="black"/>
<path opacity="0.1" d="M167.997 82.5733L155.976 95.6372C157.716 98.067 160.327 99.7302 163.265 100.279V127.812C163.072 130.953 168.841 129.976 177.842 125.008C186.842 120.041 187.921 120.951 187.921 115.507C187.921 110.064 186.589 88.7647 186.589 88.7647C187.85 87.562 188.819 86.0876 189.424 84.4538C190.029 82.8199 190.253 81.0696 190.08 79.336L178.529 77.2863L167.997 82.5733Z" fill="white"/>
<path d="M177.546 77.7806L169.179 82.0006C172.103 86.7571 178.107 84.5688 177.546 77.7806Z" fill="#6ED0FF"/>
<path opacity="0.4" d="M177.546 77.7806L169.179 82.0006C172.103 86.7571 178.107 84.5688 177.546 77.7806Z" fill="black"/>
<path d="M169.523 82.8687C169.571 83.2956 169.711 83.7069 169.933 84.0744L177.848 79.5048C178.049 78.9684 178.185 78.4097 178.252 77.8409L175.708 79.3179L174.304 80.1317L173.538 80.5718L169.523 82.8687Z" fill="#F28F8F"/>
<path d="M174.303 80.1257V79.5229V78.703C175.092 78.1018 175.741 77.3367 176.207 76.4604C176.672 75.5841 176.942 74.6175 176.997 73.6269C176.997 71.6737 175.599 70.8839 173.905 71.8666C172.513 72.7654 171.496 74.1417 171.047 75.7369C170.906 76.2086 170.831 76.6975 170.824 77.1898C170.824 77.437 171.005 77.5274 171.21 77.4068C171.323 77.3358 171.417 77.2383 171.485 77.1228C171.552 77.0073 171.59 76.8772 171.596 76.7437C171.596 76.3759 171.651 76.0103 171.759 75.6585C172.096 74.4576 172.859 73.4204 173.905 72.7407C175.183 72.0052 176.226 72.6021 176.226 74.073C176.184 74.8737 175.954 75.6532 175.554 76.3478C175.154 77.0425 174.595 77.6326 173.923 78.07C173.811 78.1422 173.717 78.2399 173.65 78.3552C173.583 78.4704 173.544 78.6 173.537 78.7331V80.5417L174.303 80.1257Z" fill="#E0E0E0"/>
<path d="M178.536 77.2863L177.547 77.7806C178.108 84.5688 172.121 86.7571 169.179 82.0006L168.004 82.6035C171.615 88.9877 179.506 86.1483 178.536 77.2863Z" fill="white"/>
<path d="M94.6177 27.7615C93.6827 27.2266 92.6236 26.9464 91.5463 26.949C90.4691 26.9516 89.4114 27.2369 88.4789 27.7764C87.5465 28.3158 86.7719 29.0906 86.2327 30.0232C85.6935 30.9558 85.4084 32.0135 85.4061 33.0908V98.2536L75.1575 104.119C74.9115 104.262 74.7074 104.467 74.5656 104.714C74.4238 104.96 74.3493 105.24 74.3497 105.524V107.978C74.3362 108.199 74.3681 108.42 74.4433 108.628C74.5186 108.836 74.6356 109.027 74.7872 109.188C74.9389 109.349 75.1219 109.477 75.325 109.565C75.5281 109.653 75.7471 109.698 75.9684 109.698C76.1897 109.698 76.4086 109.653 76.6117 109.565C76.8149 109.477 76.9979 109.349 77.1495 109.188C77.3011 109.027 77.4182 108.836 77.4934 108.628C77.5687 108.42 77.6005 108.199 77.587 107.978V106.458L87.4679 100.755C87.6921 100.682 87.8977 100.56 88.0707 100.4L97.6742 94.8535C97.7438 95.2527 97.9604 95.6115 98.2813 95.859C98.6022 96.1065 99.0042 96.2249 99.408 96.1909C99.8118 96.1569 100.188 95.9729 100.463 95.6751C100.738 95.3774 100.892 94.9875 100.893 94.5822V92.0623C100.891 91.7806 100.816 91.5044 100.675 91.2608C100.534 91.0171 100.331 90.8144 100.088 90.6727C99.8447 90.5309 99.5687 90.455 99.2871 90.4524C99.0055 90.4497 98.728 90.5205 98.4821 90.6576L88.6012 96.3606V33.0607C88.6053 32.5481 88.7443 32.0456 89.0043 31.6038C89.2642 31.162 89.636 30.7965 90.0822 30.5441C90.5284 30.2916 91.0331 30.1612 91.5457 30.1659C92.0583 30.1706 92.5606 30.3103 93.0021 30.5709L101.786 35.6409L105.023 33.772L94.6177 27.7615Z" fill="#263238"/>
<path opacity="0.2" d="M94.6177 27.7615C93.6827 27.2266 92.6236 26.9464 91.5463 26.949C90.4691 26.9516 89.4114 27.2369 88.4789 27.7764C87.5465 28.3158 86.7719 29.0906 86.2327 30.0232C85.6935 30.9558 85.4084 32.0135 85.4061 33.0908V98.2536L75.1575 104.119C74.9115 104.262 74.7074 104.467 74.5656 104.714C74.4238 104.96 74.3493 105.24 74.3497 105.524V107.978C74.3362 108.199 74.3681 108.42 74.4433 108.628C74.5186 108.836 74.6356 109.027 74.7872 109.188C74.9389 109.349 75.1219 109.477 75.325 109.565C75.5281 109.653 75.7471 109.698 75.9684 109.698C76.1897 109.698 76.4086 109.653 76.6117 109.565C76.8149 109.477 76.9979 109.349 77.1495 109.188C77.3011 109.027 77.4182 108.836 77.4934 108.628C77.5687 108.42 77.6005 108.199 77.587 107.978V106.458L87.4679 100.755C87.6921 100.682 87.8977 100.56 88.0707 100.4L97.6742 94.8535C97.7438 95.2527 97.9604 95.6115 98.2813 95.859C98.6022 96.1065 99.0042 96.2249 99.408 96.1909C99.8118 96.1569 100.188 95.9729 100.463 95.6751C100.738 95.3774 100.892 94.9875 100.893 94.5822V92.0623C100.891 91.7806 100.816 91.5044 100.675 91.2608C100.534 91.0171 100.331 90.8144 100.088 90.6727C99.8447 90.5309 99.5687 90.455 99.2871 90.4524C99.0055 90.4497 98.728 90.5205 98.4821 90.6576L88.6012 96.3606V33.0607C88.6053 32.5481 88.7443 32.0456 89.0043 31.6038C89.2642 31.162 89.636 30.7965 90.0822 30.5441C90.5284 30.2916 91.0331 30.1612 91.5457 30.1659C92.0583 30.1706 92.5606 30.3103 93.0021 30.5709L101.786 35.6409L105.023 33.772L94.6177 27.7615Z" fill="white"/>
<path d="M204.428 151.703C204.181 151.561 203.901 151.486 203.617 151.486C203.332 151.486 203.052 151.561 202.806 151.703L193.576 157.032V93.3102C193.571 90.7525 192.895 88.241 191.616 86.026C190.337 83.811 188.5 81.9699 186.288 80.6864L105.022 33.772L101.785 35.6409L184.666 83.4896C186.387 84.4876 187.816 85.9198 188.811 87.6431C189.805 89.3664 190.33 91.3205 190.333 93.3102V158.901L179.481 165.165C179.235 165.307 179.031 165.512 178.889 165.759C178.748 166.005 178.673 166.285 178.674 166.569V169.023C178.66 169.244 178.692 169.465 178.767 169.673C178.842 169.881 178.959 170.072 179.111 170.233C179.263 170.394 179.446 170.523 179.649 170.61C179.852 170.698 180.071 170.743 180.292 170.743C180.513 170.743 180.732 170.698 180.936 170.61C181.139 170.523 181.322 170.394 181.473 170.233C181.625 170.072 181.742 169.881 181.817 169.673C181.892 169.465 181.924 169.244 181.911 169.023V167.504L202.016 155.893C202.086 156.292 202.302 156.65 202.622 156.897C202.942 157.145 203.344 157.264 203.747 157.231C204.15 157.197 204.527 157.014 204.802 156.718C205.078 156.421 205.232 156.032 205.235 155.627V153.102C205.235 152.818 205.161 152.54 205.019 152.294C204.877 152.049 204.673 151.845 204.428 151.703Z" fill="#263238"/>
<path opacity="0.2" d="M204.428 151.703C204.181 151.561 203.901 151.486 203.617 151.486C203.332 151.486 203.052 151.561 202.806 151.703L193.576 157.032V93.3102C193.571 90.7525 192.895 88.241 191.616 86.026C190.337 83.811 188.5 81.9699 186.288 80.6864L105.022 33.772L101.785 35.6409L184.666 83.4896C186.387 84.4876 187.816 85.9198 188.811 87.6431C189.805 89.3664 190.33 91.3205 190.333 93.3102V158.901L179.481 165.165C179.235 165.307 179.031 165.512 178.889 165.759C178.748 166.005 178.673 166.285 178.674 166.569V169.023C178.66 169.244 178.692 169.465 178.767 169.673C178.842 169.881 178.959 170.072 179.111 170.233C179.263 170.394 179.446 170.523 179.649 170.61C179.852 170.698 180.071 170.743 180.292 170.743C180.513 170.743 180.732 170.698 180.936 170.61C181.139 170.523 181.322 170.394 181.473 170.233C181.625 170.072 181.742 169.881 181.817 169.673C181.892 169.465 181.924 169.244 181.911 169.023V167.504L202.016 155.893C202.086 156.292 202.302 156.65 202.622 156.897C202.942 157.145 203.344 157.264 203.747 157.231C204.15 157.197 204.527 157.014 204.802 156.718C205.078 156.421 205.232 156.032 205.235 155.627V153.102C205.235 152.818 205.161 152.54 205.019 152.294C204.877 152.049 204.673 151.845 204.428 151.703Z" fill="white"/>
<path d="M98.3438 22.794V31.0833C98.3496 31.1406 98.3705 31.1954 98.4044 31.242C98.4383 31.2886 98.4839 31.3254 98.5367 31.3486C98.6788 31.4201 98.8357 31.4574 98.9948 31.4574C99.154 31.4574 99.3109 31.4201 99.453 31.3486C99.505 31.3251 99.5498 31.2881 99.5826 31.2414C99.6155 31.1948 99.6353 31.1402 99.6399 31.0833V22.794H98.3438Z" fill="#263238"/>
<path opacity="0.4" d="M98.3438 22.794V31.0833C98.3496 31.1406 98.3705 31.1954 98.4044 31.242C98.4383 31.2886 98.4839 31.3254 98.5367 31.3486C98.6788 31.4201 98.8357 31.4574 98.9948 31.4574C99.154 31.4574 99.3109 31.4201 99.453 31.3486C99.505 31.3251 99.5498 31.2881 99.5826 31.2414C99.6155 31.1948 99.6353 31.1402 99.6399 31.0833V22.794H98.3438Z" fill="white"/>
<path d="M90.5 0L107.989 10.1039V30.2996L90.5 20.2017V0Z" fill="#6ED0FF"/>
<path opacity="0.1" d="M90.5 0L107.989 10.1039V30.2996L90.5 20.2017V0Z" fill="black"/>
<path opacity="0.1" d="M90.5 0L107.989 10.1039V30.2996L90.5 20.2017V0Z" fill="white"/>
<path d="M95.8295 5.64274V6.70377L94.0631 5.67891L93.9727 7.40308C94.1596 7.16194 94.4429 7.1318 94.8529 7.36691C95.2356 7.61832 95.5419 7.96993 95.7386 8.38344C95.9353 8.79695 96.0146 9.2565 95.9681 9.71203V11.3699C95.9681 12.5756 95.4497 12.9373 94.449 12.3646C93.9707 12.0892 93.5772 11.6877 93.3115 11.204C93.0457 10.7203 92.9178 10.173 92.9418 9.6216V9.01874L93.9003 9.57337V10.2606C93.8841 10.4652 93.9272 10.6702 94.0246 10.8509C94.1219 11.0316 94.2692 11.1804 94.449 11.2795C94.7685 11.4663 94.9734 11.394 94.9734 10.8575V9.22974C94.9933 9.02496 94.9545 8.81875 94.8617 8.63516C94.7688 8.45157 94.6257 8.29816 94.449 8.19282C94.1294 8.00594 93.9245 8.09034 93.9245 8.62085V8.86803L92.9659 8.31942L93.1588 4.09943L95.8295 5.64274Z" fill="#6ED0FF"/>
<path d="M98.1269 6.88461C98.6108 7.16058 99.0099 7.56382 99.2809 8.05056C99.5519 8.5373 99.6845 9.08896 99.6642 9.64569V13.504C99.6642 14.7097 99.1156 15.0533 98.1208 14.4806C97.6369 14.2046 97.2378 13.8014 96.9668 13.3146C96.6958 12.8279 96.5633 12.2762 96.5836 11.7195V7.86124C96.5836 6.67361 97.1322 6.31189 98.1269 6.88461ZM98.6695 12.9855V8.98255C98.6886 8.77786 98.6495 8.57192 98.5567 8.38847C98.4639 8.20502 98.3212 8.05151 98.145 7.94564C97.8194 7.75875 97.6205 7.84315 97.6145 8.37366V12.3827C97.5958 12.5865 97.6351 12.7914 97.7279 12.9738C97.8207 13.1562 97.9632 13.3087 98.1389 13.4135C98.4645 13.6004 98.6634 13.5221 98.6695 12.9855Z" fill="#6ED0FF"/>
<path d="M104.444 13.2809C104.751 13.4558 105.005 13.7121 105.176 14.0216C105.347 14.3311 105.43 14.6819 105.415 15.0353V17.4467C105.415 18.2123 105.071 18.4414 104.438 18.0495C104.129 17.876 103.874 17.6202 103.702 17.3105C103.529 17.0008 103.446 16.6493 103.461 16.2952V13.8838C103.491 13.1423 103.805 12.9132 104.444 13.2809ZM104.763 17.1513V14.6133C104.777 14.4833 104.754 14.352 104.696 14.2347C104.639 14.1174 104.549 14.0187 104.438 13.9501C104.221 13.8235 104.1 13.8959 104.1 14.2274V16.7715C104.088 16.9012 104.112 17.0318 104.171 17.1482C104.229 17.2645 104.32 17.3618 104.432 17.4286C104.637 17.5431 104.763 17.4828 104.763 17.1513Z" fill="#6ED0FF"/>
<path d="M102.214 12.9132C102.214 13.6728 101.87 13.9019 101.231 13.516C100.925 13.3396 100.673 13.083 100.502 12.7739C100.331 12.4647 100.247 12.1148 100.261 11.7617V9.3503C100.261 8.58467 100.604 8.35558 101.243 8.74744C101.551 8.92306 101.804 9.17932 101.976 9.48852C102.148 9.79772 102.232 10.1481 102.22 10.5018L102.214 12.9132ZM100.906 12.2078C100.894 12.3375 100.918 12.4678 100.977 12.584C101.036 12.7002 101.126 12.7976 101.237 12.8649C101.436 12.9795 101.569 12.9192 101.569 12.5937V10.0436C101.579 9.91345 101.554 9.78294 101.494 9.66681C101.434 9.55068 101.343 9.45356 101.231 9.38647C101.02 9.25987 100.9 9.33221 100.9 9.65775V12.2078" fill="#6ED0FF"/>
<path d="M103.793 10.2425L104.396 10.5862L101.828 16.5424L101.225 16.1927L103.793 10.2425Z" fill="#6ED0FF"/>
<path d="M94.123 15.5658L94.6414 19.6772L94.117 19.3698L94.0265 18.6283L93.3875 18.2605L93.2971 18.8996L92.8208 18.6222L93.3634 15.1257L94.123 15.5658ZM93.4598 17.7843L93.9602 18.0736L93.7191 16.0058L93.4719 17.8144" fill="#6ED0FF"/>
<path d="M95.4198 16.3073L95.4078 19.5748L96.2638 20.0691V20.6117L94.8833 19.8159L94.8954 16.0119L95.4198 16.3073Z" fill="#6ED0FF"/>
<path d="M97.0233 17.2357L97.0113 20.5032L97.8674 20.9975V21.5401L96.4868 20.7443L96.4989 16.9342L97.0233 17.2357Z" fill="#6ED0FF"/>
<path d="M99.3562 18.5861L99.3502 22.3962L98.8257 22.0947L98.8377 18.2847L99.3562 18.5861Z" fill="#6ED0FF"/>
<path d="M101.201 19.6471L101.195 20.1957L100.652 19.8822L100.64 23.1376L100.122 22.8362L100.134 19.5808L99.585 19.2613V18.7187L101.201 19.6471Z" fill="#6ED0FF"/>
<path d="M102.847 20.5996V21.1482L101.942 20.6237V21.6848L102.654 22.1007V22.6373L101.936 22.2273V23.3426L102.835 23.8671V24.4036L101.418 23.5898L101.424 19.7797L102.847 20.5996Z" fill="#6ED0FF"/>
<path d="M105.355 22.0465L105.343 25.8505L104.842 25.5672L104.854 22.8362L104.487 25.3622L103.998 25.0789L103.625 22.1671L103.606 24.8558L103.154 24.5905L103.166 20.7805L103.89 21.2025L104.258 24.1203L104.27 24.1263L104.625 21.6245L105.355 22.0465Z" fill="#6ED0FF"/>
<g opacity="0.5">
<path opacity="0.5" d="M95.829 5.64273V6.70376L94.0626 5.6789L93.9722 7.40307C94.1591 7.16193 94.4424 7.13178 94.8524 7.3669C95.2351 7.6183 95.5415 7.96991 95.7381 8.38342C95.9348 8.79694 96.0142 9.25649 95.9677 9.71201V11.3699C95.9677 12.5756 95.4492 12.9373 94.4485 12.3646C93.9702 12.0892 93.5768 11.6877 93.311 11.204C93.0452 10.7203 92.9174 10.173 92.9413 9.62158V9.01873L93.8999 9.57335V10.2606C93.8836 10.4652 93.9268 10.6701 94.0241 10.8508C94.1214 11.0316 94.2687 11.1804 94.4485 11.2794C94.768 11.4663 94.9729 11.394 94.9729 10.8574V9.22972C94.9928 9.02495 94.9541 8.81874 94.8612 8.63515C94.7683 8.45156 94.6252 8.29815 94.4485 8.19281C94.1289 8.00592 93.924 8.09032 93.924 8.62084V8.86801L92.9654 8.31941L93.1583 4.09941L95.829 5.64273Z" fill="white"/>
<path opacity="0.5" d="M98.1259 6.88461C98.6098 7.16058 99.009 7.56382 99.28 8.05056C99.551 8.5373 99.6835 9.08896 99.6632 9.64569V13.504C99.6632 14.7097 99.1146 15.0533 98.1199 14.4806C97.6359 14.2046 97.2368 13.8014 96.9658 13.3146C96.6948 12.8279 96.5623 12.2762 96.5826 11.7195V7.86124C96.5826 6.67361 97.1312 6.31189 98.1259 6.88461ZM98.6685 12.9855V8.98255C98.6876 8.77786 98.6485 8.57192 98.5557 8.38847C98.4629 8.20502 98.3202 8.05151 98.144 7.94564C97.8184 7.75875 97.6195 7.84315 97.6135 8.37366V12.3827C97.5948 12.5865 97.6341 12.7914 97.7269 12.9738C97.8197 13.1562 97.9622 13.3087 98.138 13.4135C98.4635 13.6004 98.6624 13.5221 98.6685 12.9855Z" fill="white"/>
<path opacity="0.5" d="M104.444 13.2809C104.751 13.4558 105.005 13.7121 105.176 14.0216C105.347 14.3311 105.43 14.6818 105.415 15.0352V17.4467C105.415 18.2123 105.071 18.4414 104.438 18.0495C104.129 17.876 103.874 17.6201 103.702 17.3104C103.529 17.0008 103.446 16.6493 103.461 16.2952V13.8838C103.491 13.1423 103.805 12.9132 104.444 13.2809ZM104.763 17.1513V14.6132C104.777 14.4833 104.754 14.352 104.696 14.2347C104.639 14.1174 104.549 14.0187 104.438 13.9501C104.221 13.8235 104.1 13.8958 104.1 14.2274V16.7715C104.088 16.9012 104.112 17.0318 104.171 17.1481C104.229 17.2645 104.32 17.3618 104.432 17.4286C104.637 17.5431 104.763 17.4828 104.763 17.1513Z" fill="white"/>
<path opacity="0.5" d="M102.214 12.9132C102.214 13.6728 101.87 13.9019 101.231 13.5161C100.925 13.3396 100.673 13.083 100.502 12.7739C100.331 12.4648 100.247 12.1148 100.261 11.7617V9.35031C100.261 8.58469 100.604 8.3556 101.243 8.74746C101.551 8.92308 101.804 9.17934 101.976 9.48854C102.148 9.79774 102.232 10.1481 102.22 10.5018L102.214 12.9132ZM100.906 12.2079C100.894 12.3375 100.918 12.4678 100.977 12.584C101.036 12.7003 101.126 12.7976 101.237 12.865C101.436 12.9795 101.569 12.9192 101.569 12.5937V10.0436C101.579 9.91347 101.554 9.78296 101.494 9.66682C101.434 9.55069 101.343 9.45358 101.231 9.38648C101.02 9.25988 100.9 9.33222 100.9 9.65777V12.2079" fill="white"/>
<path opacity="0.5" d="M103.792 10.2425L104.395 10.5862L101.827 16.5424L101.224 16.1927L103.792 10.2425Z" fill="white"/>
<path opacity="0.5" d="M94.123 15.5657L94.6414 19.6772L94.117 19.3698L94.0265 18.6283L93.3875 18.2605L93.2971 18.8995L92.8208 18.6222L93.3634 15.1257L94.123 15.5657ZM93.4598 17.7843L93.9602 18.0736L93.7191 16.0058L93.4719 17.8144" fill="white"/>
<path opacity="0.5" d="M95.4198 16.3073L95.4078 19.5748L96.2638 20.0691V20.6117L94.8833 19.8159L94.8954 16.0119L95.4198 16.3073Z" fill="white"/>
<path opacity="0.5" d="M97.0229 17.2357L97.0108 20.5032L97.8669 20.9975V21.5401L96.4863 20.7443L96.4984 16.9342L97.0229 17.2357Z" fill="white"/>
<path opacity="0.5" d="M99.3557 18.5861L99.3497 22.3961L98.8252 22.0947L98.8372 18.2846L99.3557 18.5861Z" fill="white"/>
<path opacity="0.5" d="M101.201 19.6471L101.195 20.1957L100.652 19.8822L100.64 23.1376L100.122 22.8362L100.134 19.5808L99.585 19.2613V18.7187L101.201 19.6471Z" fill="white"/>
<path opacity="0.5" d="M102.846 20.5996V21.1482L101.941 20.6237V21.6848L102.653 22.1007V22.6373L101.935 22.2273V23.3426L102.834 23.8671V24.4036L101.417 23.5898L101.423 19.7797L102.846 20.5996Z" fill="white"/>
<path opacity="0.5" d="M105.355 22.0465L105.343 25.8505L104.842 25.5672L104.854 22.8362L104.487 25.3622L103.998 25.0788L103.625 22.167L103.606 24.8558L103.154 24.5905L103.166 20.7805L103.89 21.2025L104.258 24.1203L104.27 24.1263L104.625 21.6245L105.355 22.0465Z" fill="white"/>
</g>
<path d="M173.899 71.8726C172.507 72.7714 171.491 74.1477 171.042 75.7429C170.901 76.2146 170.826 76.7036 170.819 77.1958C170.819 77.443 171 77.5334 171.205 77.4129C171.318 77.3418 171.412 77.2443 171.479 77.1288C171.546 77.0133 171.585 76.8832 171.591 76.7497C171.591 76.382 171.646 76.0163 171.753 75.6646C172.091 74.4636 172.853 73.4265 173.899 72.7468C174.205 72.5642 174.551 72.4606 174.906 72.4453L174.147 71.74L173.899 71.8726Z" fill="#E0E0E0"/>
<path d="M162.102 64.8734C160.712 65.7751 159.697 67.1503 159.244 68.7438C159.108 69.2164 159.035 69.7049 159.027 70.1966C159.027 70.4438 159.202 70.5403 159.413 70.4197C159.525 70.3476 159.618 70.2497 159.684 70.1343C159.75 70.0189 159.787 69.8894 159.793 69.7566C159.796 69.3871 159.851 69.0198 159.956 68.6654C160.296 67.4657 161.061 66.4308 162.108 65.7536C162.412 65.5662 162.758 65.4603 163.115 65.4461L162.355 64.7468C162.268 64.7842 162.184 64.8264 162.102 64.8734Z" fill="#E0E0E0"/>
<path d="M146.162 55.3845C144.771 56.2845 143.756 57.6603 143.305 59.2548C143.163 59.7261 143.09 60.2155 143.088 60.7077C143.088 60.9549 143.263 61.0513 143.468 60.9307C143.58 60.8589 143.674 60.7613 143.741 60.6459C143.808 60.5306 143.847 60.4009 143.854 60.2676C143.854 59.8979 143.909 59.5302 144.016 59.1764C144.352 57.9762 145.115 56.9404 146.162 56.2646C146.466 56.078 146.813 55.9722 147.169 55.9572L146.41 55.288L146.162 55.3845Z" fill="#E0E0E0"/>
<path d="M134.365 49.5367C132.975 50.4371 131.961 51.8131 131.513 53.4071C131.372 53.8788 131.297 54.3677 131.29 54.86C131.29 55.1071 131.465 55.2036 131.676 55.083C131.788 55.0109 131.88 54.913 131.946 54.7976C132.013 54.6823 132.05 54.5527 132.056 54.4199C132.059 54.0504 132.114 53.6831 132.218 53.3287C132.559 52.129 133.324 51.0941 134.371 50.4169C134.674 50.2295 135.021 50.1236 135.377 50.1095L134.618 49.4101L134.365 49.5367Z" fill="#E0E0E0"/>
<path d="M118.485 39.4449C117.093 40.3442 116.077 41.7203 115.627 43.3153C115.488 43.7872 115.415 44.2761 115.41 44.7681C115.41 45.0153 115.585 45.1057 115.796 44.9852C115.907 44.9127 116 44.8147 116.066 44.6994C116.132 44.5841 116.17 44.4548 116.176 44.322C116.179 43.9545 116.234 43.5893 116.339 43.2369C116.68 42.0365 117.445 41.0001 118.491 40.3191C118.795 40.133 119.141 40.0292 119.498 40.0176L118.738 39.3123L118.485 39.4449Z" fill="#E0E0E0"/>
<path d="M107.109 33.1631C105.717 34.0624 104.701 35.4385 104.251 37.0335C104.109 37.5047 104.036 37.9941 104.034 38.4864C104.034 38.7275 104.209 38.824 104.42 38.7034C104.531 38.6309 104.624 38.5329 104.69 38.4176C104.756 38.3023 104.794 38.173 104.8 38.0403C104.804 37.6708 104.859 37.3036 104.963 36.9491C105.3 35.7499 106.063 34.7147 107.109 34.0373C107.415 33.8504 107.763 33.7446 108.122 33.7298L107.362 33.0305L107.109 33.1631Z" fill="#E0E0E0"/>
<path d="M187.509 98.4251L185.013 100.837C182.451 97.563 178.985 95.3505 175.97 90.7628C175.102 89.6656 175.193 87.4772 174.602 86.3559C174.144 85.4818 173.336 84.1676 172.998 83.4321C172.969 83.367 172.927 83.3089 172.874 83.2618C172.82 83.2146 172.757 83.1796 172.689 83.159C172.621 83.1384 172.549 83.1327 172.479 83.1424C172.408 83.1521 172.341 83.1768 172.281 83.215C171.425 83.8179 171.877 85.319 172.323 86.8864C172.853 88.695 170.092 86.2354 169.719 85.8134C167.97 84.1856 166.463 80.1947 165.27 80.5926C164.076 80.9905 165.022 83.004 165.022 83.004C163.925 83.2331 164.341 84.9874 164.341 84.9874C163.69 86.1329 163.871 87.9053 165.209 89.545C166.174 90.7508 168.826 92.3785 170.159 93.1622C170.727 93.4995 171.213 93.9586 171.581 94.5066L180.148 107.233C180.542 107.82 181.052 108.321 181.647 108.705C182.241 109.088 182.908 109.346 183.606 109.462C184.303 109.578 185.018 109.551 185.704 109.381C186.391 109.211 187.036 108.903 187.599 108.475L192.271 105.014L187.509 98.4251Z" fill="#FFA8A7"/>
<path d="M202.007 87.1879C197.263 86.9769 190.824 94.6753 187.195 98.3045C187.472 102.742 192.253 105.653 192.253 105.653C195.654 103.308 198.911 100.761 202.007 98.0272V87.1879Z" fill="#6ED0FF"/>
<path opacity="0.3" d="M202.007 87.1879C197.263 86.9769 190.824 94.6753 187.195 98.3045C187.472 102.742 192.253 105.653 192.253 105.653C195.654 103.308 198.911 100.761 202.007 98.0272V87.1879Z" fill="white"/>
<path d="M199.542 188.19C199.626 190.21 199.542 192.579 199.542 192.579L200.711 192.646C201.268 192.675 201.803 192.868 202.251 193.2C202.698 193.533 203.037 193.99 203.225 194.514V194.587C203.324 194.855 203.521 195.075 203.777 195.201C204.032 195.328 204.327 195.352 204.6 195.268C204.746 195.219 204.882 195.14 204.997 195.036C205.112 194.932 205.204 194.806 205.269 194.665L205.872 189.601L199.542 188.19Z" fill="#FFA8A7"/>
<path d="M197.818 205.758C194.749 207.072 190.047 207.325 188.094 204.19V205.04C190.047 208.175 194.725 207.922 197.818 206.608C200.911 205.294 200.229 203.153 202.972 202.002C203.978 201.636 204.893 201.058 205.655 200.308C205.655 200.055 205.709 199.741 205.751 199.38C204.939 200.132 203.997 200.732 202.972 201.152C200.217 202.303 200.892 204.45 197.818 205.758Z" fill="#37474F"/>
<path d="M205.751 196.594C205.626 195.998 205.626 195.382 205.751 194.786C205.789 194.649 205.796 194.506 205.772 194.366C205.748 194.227 205.693 194.094 205.612 193.978L205.383 193.755L205.274 194.689C205.21 194.83 205.117 194.956 205.002 195.06C204.887 195.164 204.752 195.243 204.605 195.292C204.333 195.376 204.038 195.352 203.782 195.225C203.527 195.099 203.329 194.879 203.231 194.611V194.539C203.043 194.014 202.704 193.557 202.256 193.224C201.809 192.892 201.273 192.699 200.717 192.67L199.511 192.603C199.335 192.594 199.159 192.64 199.01 192.734C198.86 192.827 198.742 192.965 198.673 193.128C197.467 196.088 194.369 199.367 191.994 200.875C190.245 200.832 188.087 202.279 188.087 204.04V204.214C190.04 207.349 194.718 207.096 197.811 205.782C200.904 204.468 200.223 202.327 202.966 201.176C203.991 200.757 204.932 200.156 205.745 199.404C205.883 198.472 205.885 197.526 205.751 196.594Z" fill="#6ED0FF"/>
<path d="M199.807 199.018C199.876 199.082 199.966 199.119 200.06 199.122C200.155 199.125 200.247 199.094 200.32 199.035C200.393 198.976 200.443 198.892 200.459 198.799C200.476 198.706 200.458 198.61 200.41 198.529C199.95 197.915 199.339 197.43 198.637 197.122C197.934 196.814 197.164 196.692 196.401 196.769C196.232 196.974 196.069 197.173 195.894 197.372C196.633 197.282 197.383 197.387 198.069 197.676C198.755 197.964 199.354 198.427 199.807 199.018Z" fill="white"/>
<path d="M201.019 197.661C201.051 197.701 201.091 197.733 201.136 197.757C201.181 197.781 201.23 197.796 201.28 197.8C201.331 197.805 201.382 197.799 201.43 197.783C201.479 197.768 201.523 197.743 201.562 197.71C201.641 197.647 201.692 197.555 201.705 197.455C201.717 197.355 201.69 197.253 201.628 197.173C201.142 196.54 200.503 196.042 199.771 195.726C199.039 195.409 198.238 195.285 197.444 195.364C197.294 195.581 197.143 195.799 196.98 196.016C197.739 195.909 198.512 196.005 199.221 196.294C199.931 196.583 200.551 197.055 201.019 197.661Z" fill="white"/>
<path d="M198.547 200.344C198.616 200.408 198.706 200.445 198.8 200.448C198.894 200.452 198.987 200.421 199.06 200.361C199.133 200.302 199.183 200.218 199.199 200.125C199.216 200.032 199.198 199.937 199.15 199.856C198.701 199.255 198.107 198.778 197.424 198.469C196.741 198.16 195.99 198.029 195.243 198.089C195.044 198.294 194.845 198.499 194.64 198.692C195.379 198.606 196.127 198.712 196.812 199.002C197.497 199.291 198.094 199.754 198.547 200.344Z" fill="white"/>
<path d="M192 200.85C190.252 200.808 188.093 202.255 188.093 204.015V204.19C190.016 207.283 194.604 207.078 197.679 205.812C197.444 201.592 193.392 200.832 192 200.85Z" fill="white"/>
<path d="M197.251 201.61C197.318 201.687 197.413 201.735 197.515 201.744C197.618 201.753 197.719 201.723 197.799 201.658C197.878 201.595 197.928 201.503 197.939 201.402C197.95 201.302 197.922 201.201 197.86 201.122C197.411 200.52 196.816 200.041 196.132 199.732C195.447 199.423 194.696 199.294 193.947 199.355C193.7 199.572 193.459 199.777 193.218 199.958C193.976 199.851 194.749 199.948 195.458 200.238C196.167 200.528 196.786 201.002 197.251 201.61Z" fill="white"/>
<path d="M215.867 191.922C215.952 193.942 215.867 196.317 215.867 196.317L217.037 196.377C217.593 196.409 218.127 196.602 218.574 196.935C219.021 197.267 219.361 197.723 219.551 198.246V198.325C219.648 198.592 219.845 198.811 220.1 198.937C220.355 199.063 220.648 199.085 220.919 199C221.067 198.951 221.202 198.873 221.318 198.769C221.433 198.665 221.525 198.538 221.589 198.397L222.191 193.333L215.867 191.922Z" fill="#FFA8A7"/>
<path d="M214.144 209.495C211.075 210.804 206.373 211.063 204.419 207.928V208.772C206.373 211.913 211.051 211.654 214.144 210.345C217.236 209.037 216.555 206.885 219.298 205.734C220.306 205.37 221.223 204.792 221.987 204.04C221.987 203.792 222.035 203.479 222.077 203.117C221.263 203.868 220.322 204.468 219.298 204.89C216.543 206.041 217.218 208.181 214.144 209.495Z" fill="#37474F"/>
<path d="M222.076 200.332C221.952 199.736 221.952 199.12 222.076 198.523C222.114 198.388 222.121 198.246 222.097 198.107C222.073 197.968 222.019 197.837 221.938 197.722L221.708 197.493L221.6 198.427C221.536 198.568 221.444 198.695 221.329 198.799C221.214 198.903 221.078 198.981 220.931 199.03C220.655 199.107 220.36 199.075 220.108 198.938C219.856 198.802 219.667 198.573 219.58 198.3V198.222C219.39 197.699 219.051 197.243 218.604 196.911C218.157 196.578 217.622 196.385 217.066 196.353L215.861 196.287C215.682 196.277 215.505 196.323 215.354 196.418C215.203 196.513 215.085 196.652 215.017 196.817C213.811 199.771 210.712 203.057 208.337 204.558C206.589 204.522 204.431 205.969 204.431 207.729V207.946C206.384 211.081 211.062 210.822 214.155 209.514C217.247 208.205 216.566 206.059 219.309 204.908C220.33 204.481 221.267 203.877 222.076 203.123C222.211 202.198 222.211 201.258 222.076 200.332Z" fill="#6ED0FF"/>
<path d="M216.132 202.756C216.199 202.832 216.293 202.88 216.394 202.889C216.495 202.898 216.596 202.868 216.675 202.804C216.754 202.741 216.805 202.649 216.818 202.549C216.83 202.449 216.803 202.347 216.741 202.267C216.282 201.653 215.671 201.168 214.968 200.86C214.266 200.551 213.496 200.43 212.732 200.507C212.564 200.706 212.401 200.905 212.226 201.11C212.964 201.023 213.712 201.129 214.396 201.418C215.081 201.706 215.679 202.167 216.132 202.756Z" fill="white"/>
<path d="M217.344 201.399C217.41 201.476 217.504 201.524 217.605 201.533C217.707 201.542 217.807 201.511 217.886 201.447C217.966 201.384 218.017 201.293 218.029 201.193C218.042 201.092 218.014 200.991 217.953 200.911C217.467 200.278 216.828 199.78 216.096 199.463C215.364 199.147 214.563 199.022 213.769 199.102C213.618 199.325 213.468 199.542 213.305 199.759C214.063 199.651 214.836 199.746 215.546 200.034C216.255 200.322 216.876 200.793 217.344 201.399Z" fill="white"/>
<path d="M214.878 204.082C214.944 204.16 215.038 204.209 215.139 204.218C215.241 204.227 215.342 204.195 215.42 204.13C215.499 204.066 215.549 203.974 215.56 203.874C215.571 203.774 215.543 203.673 215.481 203.593C215.031 202.993 214.438 202.516 213.755 202.206C213.072 201.896 212.322 201.764 211.574 201.821C211.381 202.032 211.176 202.231 210.971 202.424C211.71 202.338 212.459 202.446 213.144 202.736C213.829 203.027 214.426 203.491 214.878 204.082Z" fill="white"/>
<path d="M208.325 204.582C206.577 204.546 204.419 205.993 204.419 207.753V207.946C206.342 211.033 210.936 210.828 214.004 209.568C213.769 205.33 209.718 204.57 208.325 204.582Z" fill="white"/>
<path d="M213.582 205.348C213.648 205.426 213.742 205.475 213.843 205.484C213.945 205.493 214.046 205.461 214.125 205.396C214.203 205.332 214.253 205.24 214.264 205.14C214.275 205.04 214.247 204.939 214.185 204.859C213.736 204.257 213.142 203.778 212.458 203.468C211.773 203.157 211.021 203.027 210.272 203.087C210.025 203.304 209.784 203.509 209.543 203.69C210.303 203.584 211.077 203.682 211.786 203.973C212.496 204.264 213.116 204.739 213.582 205.348Z" fill="white"/>
<path d="M195.569 124.469L196.142 163.654L197.992 191.09C202.67 194.05 207.511 191.247 207.511 191.247C209.32 178.249 209.356 170.213 208.392 164.806L208.958 143.874L209.887 165.517L214.288 193.248C219.11 196.359 224.313 193.152 224.313 193.152C224.313 183.187 225.338 171.347 222.595 164.167C224.53 141.963 221.269 124.903 221.269 124.903L195.569 124.469Z" fill="#37474F"/>
<path opacity="0.3" d="M207.023 136.007L208.958 143.881L208.687 153.99L205.781 137.713C201.604 136.08 201.061 133.777 201.061 133.777C202.829 135.01 204.88 135.777 207.023 136.007Z" fill="black"/>
<path d="M219.399 90.9919C212.611 87.8088 207.517 87.4411 201.965 87.1999C193.657 92.5473 196.768 97.0024 196.907 104.152C196.984 112.007 196.124 119.844 194.344 127.495C205.232 136.194 219.664 134.126 222.938 132.058C222.178 110.778 223.113 92.5111 219.399 90.9919Z" fill="#6ED0FF"/>
<path opacity="0.6" d="M219.399 90.9919C212.611 87.8088 207.517 87.4411 201.965 87.1999C193.657 92.5473 196.768 97.0024 196.907 104.152C196.984 112.007 196.124 119.844 194.344 127.495C205.232 136.194 219.664 134.126 222.938 132.058C222.178 110.778 223.113 92.5111 219.399 90.9919Z" fill="white"/>
<path d="M198.807 76.6801C197.659 75.8577 196.861 74.6354 196.57 73.254C196.279 71.8727 196.515 70.4323 197.233 69.2167C196.588 68.9365 196.061 68.4396 195.744 67.812C195.607 67.5113 195.564 67.1762 195.621 66.8507C195.678 66.5251 195.832 66.2244 196.063 65.9878C196.293 65.7512 196.59 65.5899 196.914 65.5249C197.238 65.4599 197.574 65.4943 197.878 65.6237C197.706 65.1362 197.704 64.6051 197.871 64.116C198.039 63.627 198.366 63.2088 198.801 62.9289C199.24 62.6864 199.75 62.6038 200.243 62.695C200.737 62.7863 201.184 63.0457 201.507 63.4293C201.498 63.1104 201.591 62.7968 201.773 62.535C201.956 62.2733 202.218 62.0774 202.52 61.9764C203.144 61.811 203.804 61.8533 204.401 62.0969C205.004 62.3019 205.607 62.6034 206.21 62.7963C207.257 63.0574 208.331 63.195 209.411 63.2062C210.492 63.2149 211.554 63.4969 212.498 64.0261C213.408 64.6289 214.204 65.9854 213.703 67.1609C213.858 66.9648 214.053 66.8029 214.274 66.6856C214.495 66.5684 214.738 66.4983 214.987 66.4797C215.234 66.4753 215.48 66.5229 215.707 66.6195C215.935 66.7161 216.139 66.8595 216.308 67.0404C215.632 67.4563 214.981 67.9085 214.306 68.3245C214.691 68.2142 215.102 68.2349 215.474 68.3832C215.846 68.5316 216.158 68.7993 216.362 69.1443C216.678 69.8211 216.804 70.5717 216.724 71.3146C216.636 74.1416 216.134 76.9405 215.234 79.622C214.776 81.0025 213.498 83.3537 212.184 83.9927L198.807 76.6801Z" fill="#263238"/>
<path d="M198.794 69.3734C200.079 70.6074 201.776 71.3206 203.557 71.3749C205.233 71.3749 206.855 70.8384 208.47 70.3983C208.611 71.1827 209 71.9012 209.58 72.448C210.224 73.002 211.02 73.3487 211.864 73.4427C211.623 74.9543 211.623 76.4947 211.864 78.0063C211.887 78.1686 211.956 78.3209 212.063 78.445C212.169 78.569 212.31 78.6596 212.467 78.7057C213.01 78.8624 213.371 78.3078 213.637 77.8556C213.912 77.3229 214.314 76.8656 214.806 76.5233C215.054 76.3553 215.34 76.2513 215.637 76.2208C215.935 76.1903 216.236 76.2342 216.512 76.3485C216.728 76.4614 216.919 76.6168 217.074 76.8054C217.228 76.9939 217.343 77.2117 217.411 77.4457C217.54 77.9148 217.565 78.4067 217.483 78.8865C217.379 79.6965 217.054 80.4621 216.543 81.099C216.285 81.4123 215.966 81.6696 215.605 81.8552C215.244 82.0407 214.849 82.1506 214.445 82.1781C214.049 82.2156 213.65 82.1424 213.294 81.9668C212.937 81.7912 212.636 81.52 212.425 81.1834L212.389 81.3341C212.327 81.5731 212.253 81.8085 212.166 82.0394C211.808 82.9884 211.216 83.8317 210.446 84.4914C209.676 85.1511 208.752 85.6058 207.759 85.8133C206.734 86.0243 205.595 86.2293 204.437 86.4162C203.87 86.5006 203.298 86.579 202.725 86.6513C201.677 86.7755 200.62 86.4945 199.772 85.8659C198.924 85.2373 198.348 84.3085 198.161 83.2693C197.384 78.8745 197.094 73.7381 198.794 69.3734Z" fill="#FFA8A7"/>
<path d="M212.166 82.0575V89.7379C211.444 90.7213 210.518 91.5365 209.451 92.1277C208.385 92.7188 207.202 93.0717 205.986 93.1622C205.199 93.2741 204.399 93.0704 203.762 92.5955C203.558 92.4095 203.399 92.1793 203.297 91.9224C203.196 91.6655 203.155 91.3888 203.177 91.1135C203.199 90.8382 203.284 90.5717 203.425 90.3343C203.566 90.0969 203.76 89.8949 203.991 89.744C204.128 89.6554 204.24 89.534 204.318 89.3908C204.396 89.2476 204.437 89.0871 204.437 88.9241V86.4282C205.594 86.2474 206.734 86.0424 207.759 85.8254C208.751 85.6184 209.675 85.1646 210.445 84.506C211.215 83.8475 211.807 83.0054 212.166 82.0575Z" fill="#FFA8A7"/>
<path d="M207.035 87.5194C206.182 87.7432 205.313 87.8984 204.436 87.9836V86.4283C205.594 86.2474 206.733 86.0424 207.758 85.8254C208.689 85.6282 209.56 85.2135 210.299 84.6152C211.039 84.0169 211.627 83.252 212.014 82.3831C211.829 83.5856 211.287 84.7049 210.459 85.5963C209.514 86.5381 208.33 87.2032 207.035 87.5194Z" fill="#F28F8F"/>
<path d="M202.64 75.9385L199.819 79.3567L202.405 80.2671L202.64 75.9385Z" fill="#F28F8F"/>
<path d="M206.625 76.3666C206.626 76.4684 206.606 76.5694 206.568 76.6637C206.53 76.758 206.473 76.8438 206.401 76.9161C206.329 76.9884 206.244 77.0458 206.15 77.0849C206.056 77.1241 205.955 77.1443 205.853 77.1443C205.752 77.1459 205.651 77.1272 205.557 77.0895C205.462 77.0517 205.377 76.9956 205.304 76.9243C205.232 76.8531 205.174 76.7681 205.135 76.6744C205.096 76.5807 205.076 76.4802 205.076 76.3786C205.074 76.2768 205.093 76.1756 205.13 76.081C205.168 75.9864 205.224 75.9002 205.295 75.8273C205.366 75.7544 205.451 75.6964 205.545 75.6565C205.639 75.6166 205.739 75.5957 205.841 75.5949C206.047 75.5949 206.245 75.6758 206.391 75.8202C206.538 75.9646 206.622 76.1608 206.625 76.3666Z" fill="#263238"/>
<path d="M200.108 76.1556C200.109 76.2574 200.09 76.3584 200.051 76.4527C200.013 76.547 199.956 76.6328 199.885 76.7051C199.813 76.7774 199.727 76.8348 199.633 76.8739C199.539 76.9131 199.439 76.9333 199.337 76.9333C199.132 76.9333 198.936 76.852 198.791 76.7072C198.646 76.5625 198.565 76.3663 198.565 76.1616C198.565 75.9569 198.646 75.7607 198.791 75.616C198.936 75.4712 199.132 75.3899 199.337 75.3899C199.54 75.3899 199.736 75.4704 199.88 75.6138C200.025 75.7572 200.107 75.952 200.108 76.1556Z" fill="#263238"/>
<path d="M200.524 72.7193L198.451 72.9544C198.487 72.7318 198.589 72.5254 198.746 72.3628C198.902 72.2002 199.104 72.089 199.325 72.0441C199.568 72.0326 199.809 72.0898 200.022 72.2092C200.234 72.3287 200.408 72.5054 200.524 72.7193Z" fill="#263238"/>
<path d="M205.154 72.7193L207.155 73.3221C207.161 73.0967 207.097 72.8749 206.974 72.6864C206.85 72.4979 206.671 72.3517 206.462 72.2671C206.224 72.2141 205.975 72.2282 205.744 72.308C205.513 72.3879 205.309 72.5302 205.154 72.7193Z" fill="#263238"/>
<path d="M205.612 81.3884L203.448 82.4434C203.634 82.6882 203.894 82.8659 204.19 82.9496C204.486 83.0333 204.801 83.0186 205.088 82.9076C205.336 82.7526 205.523 82.5172 205.619 82.2407C205.714 81.9643 205.712 81.6634 205.612 81.3884Z" fill="#F28F8F"/>
<path opacity="0.3" d="M205.612 81.3884L203.448 82.4434C203.634 82.6882 203.894 82.8659 204.19 82.9496C204.486 83.0333 204.801 83.0186 205.088 82.9076C205.336 82.7526 205.523 82.5172 205.619 82.2407C205.714 81.9643 205.712 81.6634 205.612 81.3884Z" fill="black"/>
<path d="M204.329 82.9799C204.579 83.0327 204.84 83.0075 205.076 82.9076C205.279 82.7994 205.444 82.6332 205.552 82.4301C205.659 82.2271 205.704 81.9966 205.679 81.7682C205.346 81.7625 205.023 81.8842 204.777 82.1082C204.53 82.3322 204.379 82.6418 204.353 82.9739L204.329 82.9799Z" fill="#F28F8F"/>
<path d="M225.344 135.29L234.936 118.458C235.37 117.582 235.61 116.623 235.639 115.646C235.668 114.669 235.486 113.697 235.104 112.797L229.769 100.252C228.904 98.2175 227.634 96.3802 226.037 94.8517C224.44 93.3231 222.549 92.135 220.479 91.3596L219.135 90.8532C218.369 98.3769 220.642 102 227.526 115.07C227.526 115.07 223.909 127.254 221.064 132.673C218.789 133.756 216.734 135.248 214.999 137.074C214.816 137.268 214.709 137.521 214.698 137.786C214.687 138.052 214.773 138.313 214.939 138.521C215.086 138.706 215.292 138.835 215.522 138.885C215.753 138.936 215.994 138.905 216.205 138.798C217.127 138.322 218.05 137.828 218.972 137.358C218.004 139.478 216.79 141.478 215.355 143.314C215.19 143.526 215.107 143.791 215.12 144.06C215.133 144.328 215.242 144.583 215.427 144.779C215.552 144.912 215.707 145.013 215.879 145.073C216.051 145.133 216.235 145.15 216.416 145.122L219.43 144.676C220.3 144.547 221.125 144.209 221.835 143.69C222.545 143.171 223.118 142.488 223.505 141.698C224.5 139.691 225.123 137.519 225.344 135.29Z" fill="#FFA8A7"/>
<path d="M219.134 90.8532C224.97 92.8547 228.273 94.187 232.903 106.751C230.588 110.332 224.204 109.849 224.204 109.849C215.909 97.3279 219.134 90.8532 219.134 90.8532Z" fill="#6ED0FF"/>
<path opacity="0.3" d="M219.134 90.8532C224.97 92.8547 228.273 94.187 232.903 106.751C230.588 110.332 224.204 109.849 224.204 109.849C215.909 97.3279 219.134 90.8532 219.134 90.8532Z" fill="white"/>
<path d="M116.953 102.277C116.819 102.646 116.652 103.001 116.452 103.338L105.939 120.948C105.563 121.582 105.053 122.125 104.444 122.538C103.835 122.952 103.142 123.226 102.415 123.342C101.688 123.457 100.944 123.41 100.237 123.205C99.5299 122.999 98.8769 122.64 98.3244 122.154L91.6327 116.209L98.4209 108.975L101.821 112.508L111.593 100.011L113.094 93.4577C113.197 93.0107 113.393 92.5907 113.671 92.2257C113.948 91.8608 114.301 91.5594 114.704 91.3416L118.864 89.1051C119.019 89.0203 119.198 88.9885 119.373 89.0146C119.548 89.0408 119.71 89.1233 119.834 89.2497C119.919 89.3364 119.984 89.4408 120.023 89.5554C120.063 89.6701 120.076 89.792 120.063 89.9125C120.05 90.033 120.01 90.1491 119.946 90.2523C119.883 90.3556 119.797 90.4435 119.696 90.5097L116.681 92.469L120.636 94.8081C120.864 94.9421 121.051 95.1348 121.178 95.366C121.305 95.5973 121.368 95.8585 121.36 96.1223L121.317 98.0213C121.309 98.417 121.154 98.7955 120.884 99.0847C120.614 99.3738 120.247 99.5533 119.852 99.5887L119.201 99.649L119.051 100.047C118.675 101.035 117.926 101.837 116.965 102.277H116.953Z" fill="#B06D6D"/>
<path d="M103.901 116.849C103.901 116.849 103.341 114.094 101.822 112.508L102.756 111.266C103.461 112.574 104.462 115.112 103.901 116.849Z" fill="#623636"/>
<path d="M59.8462 116.835L58.2344 120.23L62.0925 124.469L61.8133 134.622L49.3823 123.834C48.8273 123.35 48.4462 122.696 48.2972 121.974C48.1482 121.253 48.2396 120.502 48.5574 119.837L52.3647 111.956L59.8462 116.835Z" fill="#B06D6D"/>
<path d="M56.0195 123.27C56.0195 123.27 57.7582 121.829 58.2341 120.236L59.1987 121.296C58.4371 122.344 57.2962 123.052 56.0195 123.27Z" fill="#8C4D4D"/>
<path d="M60.1574 117.66C55.2269 117.222 51.8638 112.108 51.8638 112.108C56.2739 103.072 60.113 93.014 67.8356 95.4127L60.1574 117.66Z" fill="white"/>
<path opacity="0.1" d="M64.547 104.944L60.1558 117.635C58.6328 117.472 57.174 116.933 55.9106 116.067C57.6978 111.628 60.6888 107.775 64.547 104.944Z" fill="black"/>
<path d="M79.416 223.961C79.8856 225.427 81.491 226.271 83.0266 226.391C84.5622 226.512 86.0788 226.081 87.5954 225.808C90.984 225.173 94.2519 225.808 97.6341 225.725C98.7462 225.729 99.8553 225.608 100.94 225.364C102.029 225.11 103.014 224.53 103.764 223.701C104.187 223.194 104.468 222.582 104.576 221.931C104.645 222.426 104.607 222.93 104.465 223.41C104.322 223.889 104.079 224.332 103.751 224.71C103.003 225.541 102.017 226.121 100.927 226.372C99.8436 226.623 98.7338 226.745 97.6214 226.734C94.2392 226.81 90.9713 226.201 87.5827 226.817C86.0661 227.09 84.5496 227.521 83.0139 227.4C81.4783 227.28 79.8729 226.442 79.4033 224.97C79.2604 224.463 79.2215 223.932 79.2891 223.409C79.3158 223.596 79.3583 223.781 79.416 223.961Z" fill="#6ED0FF"/>
<path d="M79.5049 221.15C79.7143 220.122 79.9238 219.1 80.1395 218.072C80.2184 217.522 80.3969 216.991 80.6662 216.505C80.8029 216.263 81.0024 216.062 81.2435 215.924C81.4847 215.785 81.7587 215.714 82.0368 215.718C83.8961 215.471 86.4787 214.798 88.0461 215.864C90.4871 217.533 93.3974 218.378 96.3524 218.275C97.8881 218.218 99.4237 217.901 100.947 218.091C102.47 218.282 104.056 219.126 104.506 220.592C104.638 221.025 104.667 221.484 104.589 221.931C104.481 222.582 104.2 223.194 103.777 223.701C103.027 224.53 102.042 225.11 100.953 225.363C99.8681 225.608 98.759 225.729 97.6469 225.725C94.2647 225.801 90.9968 225.192 87.6082 225.808C86.0916 226.081 84.575 226.512 83.0394 226.391C81.5038 226.271 79.8984 225.427 79.4288 223.961C79.3743 223.774 79.3361 223.583 79.3146 223.39C79.2612 222.638 79.3255 221.882 79.5049 221.15Z" fill="#07567C"/>
<g opacity="0.5">
<path opacity="0.6" d="M79.416 223.961C79.8856 225.427 81.491 226.271 83.0266 226.391C84.5622 226.512 86.0788 226.081 87.5954 225.808C90.984 225.173 94.2519 225.808 97.6341 225.725C98.7462 225.729 99.8553 225.608 100.94 225.364C102.029 225.11 103.014 224.53 103.764 223.701C104.187 223.194 104.468 222.582 104.576 221.931C104.645 222.426 104.607 222.93 104.465 223.41C104.322 223.889 104.079 224.332 103.751 224.71C103.003 225.541 102.017 226.121 100.927 226.372C99.8436 226.623 98.7338 226.745 97.6214 226.734C94.2392 226.81 90.9713 226.201 87.5827 226.817C86.0661 227.09 84.5496 227.521 83.0139 227.4C81.4783 227.28 79.8729 226.442 79.4033 224.97C79.2604 224.463 79.2215 223.932 79.2891 223.409C79.3158 223.596 79.3583 223.781 79.416 223.961Z" fill="white"/>
</g>
<path d="M88.4833 212.653L88.6166 216.67C88.6308 217.08 88.4853 217.48 88.2108 217.786C87.9362 218.091 87.554 218.278 87.1444 218.307C85.7962 218.406 84.4421 218.393 83.096 218.269C82.551 218.217 82.0427 217.971 81.6632 217.577C81.2838 217.182 81.0582 216.665 81.0273 216.118L80.8687 213.155L88.4833 212.653Z" fill="#B06D6D"/>
<path d="M62.2759 210.502C62.2936 211.095 62.4807 211.669 62.8153 212.158C63.2949 212.739 63.9737 213.119 64.719 213.224C65.6024 213.38 66.5117 213.284 67.3431 212.947C68.1745 212.61 68.8945 212.047 69.421 211.321C69.9287 210.591 70.2142 209.728 70.6902 208.979C71.419 207.989 72.3118 207.13 73.3299 206.441C74.3486 205.748 75.245 204.89 75.9824 203.903C76.3321 203.419 76.5607 202.858 76.649 202.267C76.7373 201.676 76.6828 201.073 76.49 200.508C76.588 200.641 76.673 200.784 76.7438 200.933C76.9676 201.529 77.0406 202.171 76.9565 202.802C76.8724 203.433 76.6336 204.034 76.2616 204.55C75.5114 205.571 74.5955 206.459 73.552 207.177C72.5081 207.893 71.5976 208.787 70.8615 209.817C70.3792 210.591 70.081 211.473 69.5924 212.228C69.0641 212.981 68.3326 213.568 67.4831 213.921C66.6337 214.274 65.7014 214.378 64.7951 214.221C64.0461 214.104 63.3673 213.713 62.8914 213.123C62.4564 212.438 62.258 211.628 62.3267 210.819C62.2632 210.667 62.2759 210.585 62.2759 210.502Z" fill="#6ED0FF"/>
<path d="M63.4952 205.464C64.7136 203.319 67.2327 201.764 69.1745 200.254C70.2352 199.329 71.543 198.733 72.9374 198.541C73.6328 198.459 74.3367 198.586 74.9601 198.904C75.5836 199.223 76.0986 199.719 76.4402 200.33C76.4557 200.367 76.4684 200.405 76.4782 200.444C76.671 201.01 76.7255 201.613 76.6372 202.204C76.5489 202.794 76.3203 203.355 75.9706 203.839C75.2332 204.827 74.3369 205.684 73.3181 206.378C72.3 207.067 71.4072 207.925 70.6784 208.916C70.2025 209.665 69.9169 210.528 69.4093 211.257C68.8828 211.983 68.1627 212.547 67.3313 212.884C66.4999 213.22 65.5906 213.316 64.7072 213.161C63.962 213.055 63.2831 212.675 62.8035 212.095C62.469 211.606 62.2818 211.031 62.2642 210.439C62.2642 210.242 62.2642 210.045 62.2642 209.855C62.3075 208.312 62.7303 206.804 63.4952 205.464Z" fill="#07567C"/>
<g opacity="0.5">
<path opacity="0.6" d="M62.2769 210.502C62.2945 211.094 62.4817 211.669 62.8163 212.158C63.2958 212.738 63.9747 213.119 64.7199 213.224C65.6034 213.38 66.5126 213.284 67.344 212.947C68.1754 212.61 68.8955 212.047 69.422 211.321C69.9297 210.591 70.2152 209.728 70.6911 208.979C71.42 207.989 72.3127 207.13 73.3309 206.441C74.3496 205.748 75.246 204.89 75.9833 203.903C76.333 203.419 76.5616 202.858 76.65 202.267C76.7383 201.676 76.6838 201.073 76.491 200.508C76.589 200.641 76.6739 200.783 76.7448 200.933C76.9685 201.529 77.0416 202.171 76.9575 202.802C76.8733 203.433 76.6346 204.033 76.2625 204.55C75.5123 205.571 74.5965 206.459 73.553 207.177C72.5091 207.893 71.5985 208.787 70.8625 209.817C70.3802 210.591 70.082 211.473 69.5934 212.228C69.0651 212.981 68.3336 213.568 67.4841 213.921C66.6347 214.274 65.7024 214.378 64.7961 214.221C64.047 214.104 63.3683 213.713 62.8924 213.123C62.4574 212.437 62.259 211.628 62.3277 210.819C62.2642 210.667 62.2769 210.585 62.2769 210.502Z" fill="white"/>
</g>
<path d="M68.7871 203.604V207.253C67.8908 207.674 66.906 207.871 65.917 207.828C64.928 207.785 63.9641 207.503 63.1078 207.006L62.7651 203.719L68.7871 203.604Z" fill="#B06D6D"/>
<path d="M61.8065 137.42C60.7151 140.707 62.0603 156.298 62.7012 171.255C60.328 176.909 60.9689 192.957 62.3332 204.36C62.3332 204.36 64.7064 205.819 68.9897 204.36L74.3707 172.898L75.1195 155.131C75.1195 155.131 76.4711 170.912 78.0194 181.033C76.5599 188.781 76.928 190.241 80.5259 214.087C81.7785 214.715 83.1605 215.042 84.5617 215.042C85.963 215.042 87.3449 214.715 88.5975 214.087C90.6344 180.589 89.8666 150.061 89.4986 139.083L61.8065 137.42Z" fill="#455A64"/>
<path opacity="0.3" d="M61.8065 137.42C60.7151 140.707 62.0603 156.298 62.7012 171.255C60.328 176.909 60.9689 192.957 62.3332 204.36C62.3332 204.36 64.7064 205.819 68.9897 204.36L74.3707 172.898L75.1195 155.131C75.1195 155.131 76.4711 170.912 78.0194 181.033C76.5599 188.781 76.928 190.241 80.5259 214.087C81.7785 214.715 83.1605 215.042 84.5617 215.042C85.963 215.042 87.3449 214.715 88.5975 214.087C90.6344 180.589 89.8666 150.061 89.4986 139.083L61.8065 137.42Z" fill="black"/>
<path opacity="0.2" d="M61.8065 137.42C60.7151 140.707 62.0603 156.298 62.7012 171.255C60.328 176.909 60.9689 192.957 62.3332 204.36C62.3332 204.36 64.7064 205.819 68.9897 204.36L74.3707 172.898L75.1195 155.131C75.1195 155.131 76.4711 170.912 78.0194 181.033C76.5599 188.781 76.928 190.241 80.5259 214.087C81.7785 214.715 83.1605 215.042 84.5617 215.042C85.963 215.042 87.3449 214.715 88.5975 214.087C90.6344 180.589 89.8666 150.061 89.4986 139.083L61.8065 137.42Z" fill="white"/>
<path opacity="0.3" d="M74.6625 165.944L75.297 151.438C71.5468 151.438 68.0694 148.639 65.4233 145.98C67.9616 150.505 72.8921 152.516 72.8921 152.516L74.6625 165.944Z" fill="black"/>
<path d="M90.0702 111.549V139.952C73.3496 146.932 62.5114 140.631 61.0392 137.338C61.8134 125.776 59.0784 112.247 59.2878 106.505C59.4972 100.762 60.2016 94.2832 69.1108 95.584L78.5847 96.5295L83.3947 97.7035L90.0702 111.549Z" fill="white"/>
<path opacity="0.1" d="M90.069 115.204L83.2222 107.666C84.3326 112.846 86.682 117.68 90.069 121.753V115.204Z" fill="black"/>
<path d="M99.7341 110.026L90.7551 101.193C88.7562 99.2268 86.16 97.9812 83.3752 97.6525H83.2102C79.4029 105.984 84.4349 110.045 84.4349 110.045L92.7857 117.717C95.9386 116.056 98.4006 113.331 99.7341 110.026Z" fill="white"/>
<path d="M83.127 76.9977C83.3042 76.7994 83.4178 76.5524 83.4529 76.2887C83.4879 76.0251 83.4429 75.757 83.3237 75.5192C83.5601 75.5881 83.8084 75.6062 84.0523 75.5723C84.2961 75.5384 84.5301 75.4533 84.7387 75.3225C84.9442 75.1983 85.1118 75.0203 85.2236 74.8079C85.3354 74.5954 85.3872 74.3565 85.3733 74.1168C85.3473 73.8783 85.2439 73.6548 85.0789 73.4806C84.9139 73.3065 84.6963 73.1911 84.4595 73.1523C84.9014 73.0571 85.2885 72.7929 85.5383 72.4162C85.8123 72.0534 85.9352 71.5986 85.8809 71.1471C85.8008 70.7371 85.6109 70.3565 85.3315 70.0458C85.0522 69.7352 84.6938 69.5061 84.2945 69.3831C83.4921 69.1546 82.6485 69.109 81.8261 69.2498C81.958 68.8004 81.9257 68.3187 81.735 67.8909C81.5444 67.4631 81.2078 67.1171 80.7854 66.9146C80.4068 66.7841 80.0017 66.7493 79.6064 66.8136C79.2111 66.8778 78.8379 67.039 78.5201 67.2827C77.8893 67.7785 77.3466 68.377 76.9146 69.0531C76.0108 68.578 75.0171 68.2985 73.9981 68.2329C72.9792 68.1673 71.9578 68.3171 71.0006 68.6724C70.0514 69.0622 69.1938 69.6455 68.4826 70.3852C67.7713 71.1248 67.222 72.0046 66.8696 72.9683C66.1196 73.2169 65.4418 73.6452 64.8954 74.2159C64.349 74.7867 63.9506 75.4825 63.7349 76.2426C63.3478 77.7648 63.4409 79.3695 64.0014 80.8368C64.5627 82.2915 65.2842 83.6791 66.1526 84.9741C66.5396 85.6087 66.9394 86.2432 67.3328 86.8778C67.8341 87.6646 69.1032 89.6127 69.5982 90.3996C70.7062 90.9121 71.9243 91.1411 73.1428 91.0657C74.3613 90.9904 75.5419 90.6132 76.5783 89.9681C78.6166 88.6137 80.1876 86.6637 81.0773 84.384C82.0062 81.9968 82.6928 79.5222 83.127 76.9977Z" fill="#263238"/>
<path d="M72.5999 91.1928C71.5353 91.2002 70.4836 90.959 69.5286 90.4884C69.2812 90.095 68.8433 89.416 68.3991 88.7307L67.2633 86.9666C66.8698 86.3321 66.4701 85.6975 66.083 85.063C65.2066 83.7627 64.4826 82.366 63.9255 80.9003C63.361 79.412 63.2657 77.7866 63.6526 76.2426C63.8693 75.4705 64.2718 74.7632 64.8248 74.1824C65.3779 73.6017 66.0648 73.1653 66.8254 72.9112C67.1843 71.9436 67.7401 71.061 68.4578 70.3194C69.1754 69.5777 70.0392 68.9931 70.9945 68.6026C71.9501 68.2423 72.9706 68.0861 73.9903 68.144C75.0099 68.2019 76.0062 68.4727 76.9149 68.9389C77.3432 68.2844 77.8772 67.7054 78.4949 67.2256C78.8277 66.9699 79.2186 66.8007 79.6328 66.7332C80.047 66.6656 80.4714 66.7018 80.8682 66.8385C81.2887 67.0436 81.6299 67.3818 81.8387 67.8005C82.0475 68.2193 82.1123 68.6953 82.0231 69.1546C82.8077 69.0311 83.61 69.0853 84.3709 69.3133C84.7802 69.4448 85.1461 69.6848 85.4299 70.0077C85.7137 70.3306 85.9047 70.7244 85.9827 71.1471C86.0417 71.6255 85.9119 72.1081 85.621 72.4924C85.4162 72.7763 85.1464 73.0069 84.8341 73.165C85.0096 73.2581 85.1594 73.3932 85.2701 73.5581C85.3808 73.7231 85.449 73.9128 85.4687 74.1105C85.4889 74.3695 85.4374 74.6291 85.3199 74.8608C85.2024 75.0925 85.0234 75.2874 84.8024 75.424C84.4228 75.6565 83.9738 75.7485 83.5333 75.6842C83.6228 75.9156 83.6452 76.1675 83.5981 76.411C83.5509 76.6546 83.4361 76.8799 83.2668 77.0612C82.8285 79.5765 82.1419 82.0422 81.2172 84.4221C80.3225 86.7253 78.735 88.6942 76.6737 90.0569C75.4463 90.8036 74.0365 91.1966 72.5999 91.1928ZM69.6619 90.298C70.7523 90.8025 71.9514 91.0267 73.1504 90.9502C74.3494 90.8737 75.5103 90.4991 76.5278 89.8602C78.5351 88.5087 80.0842 86.5789 80.9697 84.3269C81.8904 81.951 82.5727 79.4895 83.0066 76.9787V76.9406C83.1689 76.7593 83.2722 76.5329 83.3028 76.2915C83.3334 76.0501 83.2899 75.8051 83.1779 75.589L83.0637 75.3479L83.3175 75.4367C83.5368 75.5027 83.7677 75.5204 83.9945 75.4886C84.2212 75.4568 84.4384 75.3764 84.6311 75.2527C84.8189 75.1397 84.9714 74.9764 85.0712 74.7813C85.171 74.5862 85.2142 74.367 85.1958 74.1486C85.1734 73.9364 85.0817 73.7375 84.9349 73.5826C84.7881 73.4278 84.5943 73.3256 84.3836 73.2919L83.5587 73.1904L84.3773 73.0698C84.789 72.9714 85.1489 72.7224 85.3862 72.3718C85.6406 72.0366 85.7544 71.6156 85.7035 71.1979C85.6264 70.809 85.4452 70.4484 85.1793 70.1545C84.9133 69.8606 84.5725 69.6444 84.1932 69.529C83.4073 69.3043 82.5807 69.2609 81.7756 69.4021H81.5979L81.6614 69.2308C81.7757 68.8082 81.741 68.3592 81.563 67.9593C81.385 67.5594 81.0746 67.233 80.6841 67.0352C80.3218 66.9139 79.9353 66.8828 79.5582 66.9447C79.1811 67.0067 78.8248 67.1597 78.5203 67.3905C77.9008 67.8809 77.3668 68.4705 76.9403 69.1356L76.8831 69.2117L76.8006 69.1673C75.9107 68.6983 74.9315 68.4229 73.9274 68.3595C72.9234 68.2961 71.9174 68.4459 70.9754 68.7993C70.0443 69.1875 69.2047 69.7663 68.5107 70.4985C67.8167 71.2308 67.2837 72.1002 66.946 73.0508V73.1079H66.8889C66.1603 73.3496 65.5012 73.7646 64.9685 74.3172C64.4357 74.8699 64.0451 75.5437 63.8303 76.2807C63.455 77.7806 63.548 79.3596 64.0968 80.8051C64.6543 82.2531 65.3715 83.6344 66.2353 84.9234C66.6224 85.5579 67.0221 86.1925 67.4155 86.827L68.5451 88.5847C68.9766 89.232 69.4081 89.9046 69.6619 90.298Z" fill="#272525"/>
<path d="M84.2129 81.8648L85.7105 84.4665L84.2319 85.0122C84.2795 83.9634 84.2732 82.9129 84.2129 81.8648Z" fill="#8C4D4D"/>
<path d="M83.1278 76.9978C83.6827 78.5709 84.047 80.2049 84.2129 81.8648C84.2677 82.9217 84.2677 83.9807 84.2129 85.0376C84.15 86.5141 83.9782 87.9839 83.6989 89.4351C83.5994 90.2326 83.3004 90.9921 82.8295 91.6434C82.208 92.3103 81.3482 92.7048 80.4373 92.7411C79.5331 92.7768 78.6282 92.6914 77.7467 92.4873V96.7515C74.5105 97.513 71.8327 97.8493 69.2944 95.8949L69.5609 90.4123C71.1178 90.6287 72.7038 90.3769 74.1171 89.6889C76.357 88.4833 76.9789 86.5606 76.6553 85.4818C76.4573 85.7471 76.1859 85.9486 75.8746 86.0614C75.5634 86.1742 75.2259 86.1933 74.9039 86.1164C74.5974 86.0313 74.3112 85.8851 74.0626 85.6867C73.814 85.4882 73.608 85.2415 73.4571 84.9615C73.156 84.399 72.9705 83.7819 72.9114 83.1466C72.7545 82.3803 72.8713 81.5832 73.2414 80.894C73.528 80.5112 73.9244 80.2248 74.3779 80.073C74.8313 79.9211 75.3202 79.9108 75.7796 80.0437C76.2347 80.1862 76.6573 80.4171 77.0231 80.723C77.3889 81.029 77.6909 81.4041 77.9117 81.8268C78.0557 82.0883 78.1808 82.3597 78.2861 82.639C78.3219 82.7499 78.3953 82.8449 78.4935 82.9076C78.5918 82.9702 78.7088 82.9967 78.8245 82.9825C78.9402 82.9682 79.0473 82.9141 79.1274 82.8294C79.2075 82.7447 79.2555 82.6347 79.2633 82.5184C79.3821 81.292 79.1626 80.0564 78.6288 78.9459C79.002 79.1291 79.4122 79.2246 79.8281 79.2251C80.0457 79.2242 80.2605 79.176 80.4577 79.084C80.6549 78.992 80.8298 78.8582 80.9703 78.6921C81.1062 78.5213 81.1838 78.3115 81.1918 78.0934C81.1998 77.8753 81.1377 77.6603 81.0147 77.48C82.1125 77.975 83.1278 76.9978 83.1278 76.9978Z" fill="#B06D6D"/>
<path d="M69.6773 143.878C69.1824 155.034 70.1786 164.489 75.5787 166.761C80.9788 169.032 88.9425 166.335 91.9249 165.491C94.9073 164.647 100.523 161.728 101.875 159.736C102.37 154.266 100.523 148.866 99.2477 147.089C97.9722 145.313 69.6773 143.878 69.6773 143.878Z" fill="#6ED0FF"/>
<path d="M73.5229 142.882C68.3005 124.575 63.535 98.0063 67.5073 95.6775C67.0477 95.3006 66.4813 95.0776 65.8881 95.04C65.2948 95.0024 64.7048 95.1522 64.2013 95.4681L63.9982 95.6013C58.9535 101.414 70.1915 144.183 70.1915 144.183L73.5229 142.882Z" fill="#3A92BC"/>
<path opacity="0.2" d="M69.6773 143.878C69.1824 155.034 70.1786 164.489 75.5787 166.761C80.9788 169.032 88.9425 166.335 91.9249 165.491C94.9073 164.647 100.523 161.728 101.875 159.736C102.37 154.266 100.523 148.866 99.2477 147.089C97.9722 145.313 69.6773 143.878 69.6773 143.878Z" fill="black"/>
<path d="M90.2695 136.987C83.8731 138.199 75.7825 140.648 69.6527 143.878C70.8837 146.651 72.6034 149.475 73.8344 152.248C74.2029 153.274 74.7897 154.207 75.5541 154.983C76.9628 156.208 79.0378 156.214 80.8971 156.03C86.1152 155.502 91.187 153.995 95.8472 151.588C97.44 150.763 99.0961 149.685 99.6546 147.984C100.092 146.569 99.6546 145.04 99.0961 143.669C98.7344 142.774 98.3156 141.803 97.827 140.832C97.1718 139.444 96.0739 138.313 94.7059 137.617C93.3378 136.921 91.7773 136.7 90.2695 136.987Z" fill="#6ED0FF"/>
</svg>
