<svg width="193" height="38" viewBox="0 0 193 38" fill="none" xmlns="http://www.w3.org/2000/svg">
<path fill-rule="evenodd" clip-rule="evenodd" d="M120.309 18.0874V31.24H117.086V18.0874H114.135V15.2662H117.091V12.574C117.091 9.02041 119.449 7.09277 122.338 7.09277C123.402 7.09277 124.066 7.32538 124.205 7.43247V10.2157C124.034 10.15 123.64 10.0153 122.847 10.0153C121.751 10.0153 120.323 10.5473 120.323 12.7398V15.2662H124.176V18.0886L120.309 18.0874ZM36.5251 31.24V7.19296H39.648V31.24H36.5251ZM20.5605 7.69156C25.0456 7.69156 27.6676 10.3481 27.6676 14.0687C27.6676 16.5928 26.2075 18.3868 24.1486 19.1583C26.8385 19.8228 28.3988 22.211 28.3988 24.8376C28.3988 28.557 25.4429 31.2481 21.1247 31.2481H12.8891V7.69156H20.5605ZM20.1955 17.9803C22.8198 17.9803 24.3801 16.42 24.3801 14.2276C24.3801 12.0028 22.7541 10.5404 20.063 10.5404H16.1433V17.9803H20.1955ZM20.6607 28.3831C23.285 28.3831 25.071 26.9207 25.071 24.6303C25.071 22.3711 23.6431 20.7762 20.7873 20.7762H16.1433V28.3831H20.6607ZM54.9205 31.7421C59.697 31.7421 63.0905 28.1217 63.0905 23.2393C63.0905 18.3857 59.697 14.7711 54.9205 14.7711C50.1441 14.7711 46.7505 18.3914 46.7505 23.2393C46.7505 28.1171 50.1429 31.7421 54.9205 31.7421ZM54.9205 17.56C57.5782 17.56 59.902 19.5522 59.902 23.2393C59.902 26.9541 57.5759 28.9531 54.9205 28.9531C52.2628 28.9531 49.9391 26.9599 49.9391 23.2393C49.9391 19.5476 52.2617 17.56 54.9205 17.56ZM73.3839 23.2393C73.3839 26.8931 75.6754 28.853 78.2664 28.853C81.2545 28.853 82.3508 26.8274 82.7158 25.5654L85.4725 26.7526C84.7091 29.043 82.4187 31.7329 78.2664 31.7329C73.6154 31.7375 70.1954 28.0849 70.1954 23.2393C70.1954 18.259 73.6845 14.7711 78.233 14.7711C82.4844 14.7711 84.6803 17.4276 85.3413 19.8608L82.5189 21.0468C82.1205 19.4865 80.9586 17.6545 78.2341 17.6545C75.7088 17.6545 73.3839 19.5165 73.3839 23.2393V23.2393ZM107.024 31.24L100.082 22.006L106.892 15.2662H102.574L95.6646 22.3388V7.19296H92.5751V31.24H95.6646V26.4233L97.8905 24.1985L103.106 31.24H107.024ZM139.469 31.7421C144.246 31.7421 147.639 28.1217 147.639 23.2393C147.639 18.3857 144.246 14.7711 139.469 14.7711C134.692 14.7711 131.299 18.3914 131.299 23.2393C131.299 28.1171 134.692 31.7421 139.469 31.7421ZM139.469 17.56C142.126 17.56 144.451 19.5522 144.451 23.2393C144.451 26.9541 142.129 28.9531 139.473 28.9531C136.815 28.9531 134.49 26.9599 134.49 23.2393C134.49 19.5476 136.813 17.56 139.469 17.56V17.56ZM154.744 31.24V7.19296H157.866V31.24H154.744ZM168.064 7.44399C167.894 7.32671 167.703 7.24458 167.501 7.20244C167.3 7.1603 167.091 7.159 166.889 7.19862C166.687 7.23825 166.495 7.31799 166.324 7.43314C166.153 7.54829 166.007 7.69652 165.894 7.86908C165.781 8.04164 165.704 8.23503 165.667 8.43783C165.631 8.64063 165.635 8.84874 165.68 9.04987C165.725 9.25099 165.81 9.44107 165.93 9.60886C166.049 9.77666 166.201 9.91878 166.377 10.0268C166.719 10.2376 167.13 10.3065 167.523 10.2186C167.915 10.1308 168.258 9.89331 168.478 9.55665C168.698 9.22 168.777 8.81081 168.7 8.41622C168.623 8.02162 168.394 7.67278 168.064 7.44399V7.44399ZM168.758 15.2639H165.669V31.24H168.758V15.2639ZM184.731 31.7421C189.508 31.7421 192.901 28.1217 192.901 23.2393C192.901 18.3857 189.51 14.7711 184.732 14.7711C179.956 14.7711 176.562 18.3914 176.562 23.2393C176.562 28.1171 179.953 31.7421 184.731 31.7421ZM184.731 17.56C187.389 17.56 189.713 19.5522 189.713 23.2393C189.713 26.9541 187.387 28.9531 184.731 28.9531C182.074 28.9531 179.751 26.9599 179.751 23.2393C179.751 19.5533 182.072 17.56 184.731 17.56Z" fill="black"/>
<path opacity="0.7" d="M36.2694 38H3.01937C2.70737 38.0002 2.39839 37.9388 2.1101 37.8195C1.82182 37.7001 1.55987 37.5252 1.33925 37.3045C1.11863 37.0839 0.943651 36.822 0.824321 36.5337C0.704991 36.2454 0.643648 35.9364 0.643799 35.6244V2.37442C0.643799 2.06251 0.705253 1.75366 0.824651 1.46551C0.944049 1.17735 1.11905 0.915546 1.33966 0.695046C1.56027 0.474545 1.82216 0.29967 2.11037 0.180412C2.39858 0.0611537 2.70746 -0.000150987 3.01937 2.79248e-07H36.2694C36.899 0.000305413 37.5028 0.250565 37.948 0.69579C38.3932 1.14101 38.6435 1.74478 38.6438 2.37442V3.86909H37.7951V2.37442C37.7948 1.96966 37.6338 1.58158 37.3475 1.29548C37.0612 1.00938 36.673 0.848667 36.2682 0.848667H3.01822C2.61366 0.848972 2.22576 1.00982 1.93969 1.29589C1.65362 1.58196 1.49277 1.96986 1.49247 2.37442V35.6244C1.49247 36.0292 1.65318 36.4174 1.93928 36.7037C2.22538 36.99 2.61346 37.151 3.01822 37.1513H36.2682C36.6732 37.1513 37.0616 36.9905 37.3479 36.7041C37.6343 36.4178 37.7951 36.0294 37.7951 35.6244V34.7976H38.6438V35.6244C38.6439 35.9364 38.5826 36.2454 38.4633 36.5337C38.3439 36.822 38.169 37.0839 37.9483 37.3045C37.7277 37.5252 37.4658 37.7001 37.1775 37.8195C36.8892 37.9388 36.5802 38.0002 36.2682 38H36.2694Z" fill="black"/>
</svg>
