<svg width="115" height="61" viewBox="0 0 115 61" fill="none" xmlns="http://www.w3.org/2000/svg">
<path d="M79.772 2.16992H10.3785C5.86079 2.16992 2.19846 5.83226 2.19846 10.35V23.4052C2.19846 27.9229 5.86079 31.5852 10.3785 31.5852H79.772C84.2897 31.5852 87.952 27.9229 87.952 23.4052V10.35C87.952 5.83226 84.2897 2.16992 79.772 2.16992Z" fill="#E99E05"/>
<path d="M79.7205 2.1084H10.327C5.80931 2.1084 2.14697 5.77074 2.14697 10.2885V23.3437C2.14697 27.8614 5.80931 31.5237 10.327 31.5237H79.7205C84.2382 31.5237 87.9006 27.8614 87.9006 23.3437V10.2885C87.9006 5.77074 84.2382 2.1084 79.7205 2.1084Z" fill="#E99E05"/>
<path d="M79.669 2.04883H10.2755C5.75783 2.04883 2.09549 5.71116 2.09549 10.2289V23.2841C2.09549 27.8018 5.75783 31.4642 10.2755 31.4642H79.669C84.1867 31.4642 87.8491 27.8018 87.8491 23.2841V10.2289C87.8491 5.71116 84.1867 2.04883 79.669 2.04883Z" fill="#E99E05"/>
<path d="M79.6172 1.98438H10.2237C5.70601 1.98438 2.04367 5.64671 2.04367 10.1644V23.2196C2.04367 27.7374 5.70601 31.3997 10.2237 31.3997H79.6172C84.1349 31.3997 87.7972 27.7374 87.7972 23.2196V10.1644C87.7972 5.64671 84.1349 1.98438 79.6172 1.98438Z" fill="#E99E05"/>
<path d="M79.5657 1.9209H10.1722C5.65452 1.9209 1.99219 5.58324 1.99219 10.101V23.1562C1.99219 27.6739 5.65452 31.3362 10.1722 31.3362H79.5657C84.0834 31.3362 87.7458 27.6739 87.7458 23.1562V10.101C87.7458 5.58324 84.0834 1.9209 79.5657 1.9209Z" fill="#E99E05"/>
<path d="M79.5139 1.86035H10.1205C5.60274 1.86035 1.9404 5.52269 1.9404 10.0404V23.0956C1.9404 27.6133 5.60274 31.2757 10.1205 31.2757H79.5139C84.0316 31.2757 87.694 27.6133 87.694 23.0956V10.0404C87.694 5.52269 84.0316 1.86035 79.5139 1.86035Z" fill="#E99E05"/>
<path d="M79.4624 1.7998H10.069C5.55125 1.7998 1.88892 5.46214 1.88892 9.97986V23.0351C1.88892 27.5528 5.55125 31.2151 10.069 31.2151H79.4624C83.9802 31.2151 87.6425 27.5528 87.6425 23.0351V9.97986C87.6425 5.46214 83.9802 1.7998 79.4624 1.7998Z" fill="#E99E05"/>
<path d="M79.4111 1.73926H10.0176C5.49986 1.73926 1.83752 5.4016 1.83752 9.91932V22.9745C1.83752 27.4922 5.49986 31.1546 10.0176 31.1546H79.4111C83.9288 31.1546 87.5911 27.4922 87.5911 22.9745V9.91932C87.5911 5.4016 83.9288 1.73926 79.4111 1.73926Z" fill="#E99E05"/>
<path d="M79.3591 1.67188H9.96567C5.44795 1.67188 1.78561 5.33421 1.78561 9.85193V22.9071C1.78561 27.4249 5.44795 31.0872 9.96567 31.0872H79.3591C83.8769 31.0872 87.5392 27.4249 87.5392 22.9071V9.85193C87.5392 5.33421 83.8769 1.67188 79.3591 1.67188Z" fill="#E99E05"/>
<path d="M79.3077 1.61133H9.91419C5.39647 1.61133 1.73413 5.27367 1.73413 9.79139V22.8466C1.73413 27.3643 5.39647 31.0267 9.91419 31.0267H79.3077C83.8254 31.0267 87.4877 27.3643 87.4877 22.8466V9.79139C87.4877 5.27367 83.8254 1.61133 79.3077 1.61133Z" fill="#E99E05"/>
<path d="M79.2562 1.55176H9.86271C5.34498 1.55176 1.68265 5.2141 1.68265 9.73182V22.787C1.68265 27.3047 5.34498 30.9671 9.86271 30.9671H79.2562C83.7739 30.9671 87.4362 27.3047 87.4362 22.787V9.73182C87.4362 5.2141 83.7739 1.55176 79.2562 1.55176Z" fill="#E99E05"/>
<path d="M79.2044 1.49023H9.81089C5.29317 1.49023 1.63083 5.15257 1.63083 9.67029V22.7255C1.63083 27.2432 5.29317 30.9056 9.81089 30.9056H79.2044C83.7221 30.9056 87.3844 27.2432 87.3844 22.7255V9.67029C87.3844 5.15257 83.7221 1.49023 79.2044 1.49023Z" fill="#E99E05"/>
<path d="M79.153 1.42676H9.75953C5.2418 1.42676 1.57947 5.0891 1.57947 9.60682V22.662C1.57947 27.1797 5.2418 30.8421 9.75953 30.8421H79.153C83.6707 30.8421 87.333 27.1797 87.333 22.662V9.60682C87.333 5.0891 83.6707 1.42676 79.153 1.42676Z" fill="#E99E05"/>
<path d="M79.1015 1.3623H9.70804C5.19032 1.3623 1.52798 5.02464 1.52798 9.54236V22.5976C1.52798 27.1153 5.19032 30.7776 9.70804 30.7776H79.1015C83.6192 30.7776 87.2816 27.1153 87.2816 22.5976V9.54236C87.2816 5.02464 83.6192 1.3623 79.1015 1.3623Z" fill="#E99E05"/>
<path d="M79.0496 1.30176H9.65613C5.13841 1.30176 1.47607 4.96409 1.47607 9.48182V22.537C1.47607 27.0547 5.13841 30.7171 9.65613 30.7171H79.0496C83.5673 30.7171 87.2297 27.0547 87.2297 22.537V9.48182C87.2297 4.96409 83.5673 1.30176 79.0496 1.30176Z" fill="#E99E05"/>
<path d="M78.9982 1.24121H9.60474C5.08702 1.24121 1.42468 4.90355 1.42468 9.42127V22.4765C1.42468 26.9942 5.08702 30.6565 9.60474 30.6565H78.9982C83.5159 30.6565 87.1783 26.9942 87.1783 22.4765V9.42127C87.1783 4.90355 83.5159 1.24121 78.9982 1.24121Z" fill="#E99E05"/>
<path d="M78.9464 1.17773H9.55295C5.03523 1.17773 1.37289 4.84007 1.37289 9.35779V22.413C1.37289 26.9307 5.03523 30.5931 9.55295 30.5931H78.9464C83.4641 30.5931 87.1265 26.9307 87.1265 22.413V9.35779C87.1265 4.84007 83.4641 1.17773 78.9464 1.17773Z" fill="#E99E05"/>
<path d="M78.8917 1.11621H9.49827C4.98054 1.11621 1.31821 4.77855 1.31821 9.29627V22.3515C1.31821 26.8692 4.98054 30.5315 9.49827 30.5315H78.8917C83.4094 30.5315 87.0718 26.8692 87.0718 22.3515V9.29627C87.0718 4.77855 83.4094 1.11621 78.8917 1.11621Z" fill="#E99E05"/>
<path d="M78.8402 1.05273H9.44678C4.92906 1.05273 1.26672 4.71507 1.26672 9.23279V22.288C1.26672 26.8057 4.92906 30.4681 9.44678 30.4681H78.8402C83.358 30.4681 87.0203 26.8057 87.0203 22.288V9.23279C87.0203 4.71507 83.358 1.05273 78.8402 1.05273Z" fill="#E99E05"/>
<path d="M78.7883 0.992188H9.39487C4.87715 0.992188 1.21481 4.65453 1.21481 9.17225V22.2275C1.21481 26.7452 4.87715 30.4075 9.39487 30.4075H78.7883C83.3061 30.4075 86.9684 26.7452 86.9684 22.2275V9.17225C86.9684 4.65453 83.3061 0.992188 78.7883 0.992188Z" fill="#E99E05"/>
<path d="M78.7369 0.928711H9.34348C4.82576 0.928711 1.16342 4.59105 1.16342 9.10877V22.164C1.16342 26.6817 4.82576 30.344 9.34348 30.344H78.7369C83.2547 30.344 86.917 26.6817 86.917 22.164V9.10877C86.917 4.59105 83.2547 0.928711 78.7369 0.928711Z" fill="#E99E05"/>
<path d="M78.6855 0.868164H9.292C4.77428 0.868164 1.11194 4.5305 1.11194 9.04822V22.1034C1.11194 26.6212 4.77428 30.2835 9.292 30.2835H78.6855C83.2032 30.2835 86.8655 26.6212 86.8655 22.1034V9.04822C86.8655 4.5305 83.2032 0.868164 78.6855 0.868164Z" fill="#E99E05"/>
<path d="M78.6341 0.806641H9.24061C4.72288 0.806641 1.06055 4.46898 1.06055 8.9867V22.0419C1.06055 26.5596 4.72288 30.222 9.24061 30.222H78.6341C83.1518 30.222 86.8141 26.5596 86.8141 22.0419V8.9867C86.8141 4.46898 83.1518 0.806641 78.6341 0.806641Z" fill="#E99E05"/>
<path d="M78.5822 0.743164H9.18869C4.67097 0.743164 1.00864 4.4055 1.00864 8.92322V21.9784C1.00864 26.4962 4.67097 30.1585 9.18869 30.1585H78.5822C83.0999 30.1585 86.7622 26.4962 86.7622 21.9784V8.92322C86.7622 4.4055 83.0999 0.743164 78.5822 0.743164Z" fill="#E99E05"/>
<path d="M78.5307 0.682617H9.13721C4.61949 0.682617 0.957153 4.34495 0.957153 8.86268V21.9179C0.957153 26.4356 4.61949 30.0979 9.13721 30.0979H78.5307C83.0484 30.0979 86.7107 26.4356 86.7107 21.9179V8.86268C86.7107 4.34495 83.0484 0.682617 78.5307 0.682617Z" fill="#E99E05"/>
<path d="M78.4789 0.619141H9.08542C4.5677 0.619141 0.905365 4.28148 0.905365 8.7992V21.8544C0.905365 26.3721 4.5677 30.0345 9.08542 30.0345H78.4789C82.9966 30.0345 86.6589 26.3721 86.6589 21.8544V8.7992C86.6589 4.28148 82.9966 0.619141 78.4789 0.619141Z" fill="#E99E05"/>
<path d="M78.4275 0.558594H9.03403C4.51631 0.558594 0.853973 4.22093 0.853973 8.73865V21.7939C0.853973 26.3116 4.51631 29.9739 9.03403 29.9739H78.4275C82.9452 29.9739 86.6076 26.3116 86.6076 21.7939V8.73865C86.6076 4.22093 82.9452 0.558594 78.4275 0.558594Z" fill="#E99E05"/>
<path d="M78.3756 0.498047H8.98212C4.4644 0.498047 0.802063 4.16038 0.802063 8.67811V21.7333C0.802063 26.251 4.4644 29.9134 8.98212 29.9134H78.3756C82.8933 29.9134 86.5556 26.251 86.5556 21.7333V8.67811C86.5556 4.16038 82.8933 0.498047 78.3756 0.498047Z" fill="#E99E05"/>
<path d="M78.3245 0.433594H8.93107C4.41334 0.433594 0.751007 4.09593 0.751007 8.61365V21.6689C0.751007 26.1866 4.41334 29.8489 8.93107 29.8489H78.3245C82.8423 29.8489 86.5046 26.1866 86.5046 21.6689V8.61365C86.5046 4.09593 82.8423 0.433594 78.3245 0.433594Z" fill="#E99E05"/>
<path d="M78.2726 0.370117H8.87916C4.36143 0.370117 0.699097 4.03245 0.699097 8.55018V21.6054C0.699097 26.1231 4.36143 29.7854 8.87916 29.7854H78.2726C82.7903 29.7854 86.4527 26.1231 86.4527 21.6054V8.55018C86.4527 4.03245 82.7903 0.370117 78.2726 0.370117Z" fill="#E99E05"/>
<path d="M78.2212 0.30957H8.82776C4.31004 0.30957 0.647705 3.97191 0.647705 8.48963V21.5448C0.647705 26.0626 4.31004 29.7249 8.82776 29.7249H78.2212C82.739 29.7249 86.4013 26.0626 86.4013 21.5448V8.48963C86.4013 3.97191 82.739 0.30957 78.2212 0.30957Z" fill="#E99E05"/>
<path d="M78.1694 0.249023H8.77598C4.25825 0.249023 0.595917 3.91136 0.595917 8.42908V21.4843C0.595917 26.002 4.25825 29.6643 8.77598 29.6643H78.1694C82.6872 29.6643 86.3495 26.002 86.3495 21.4843V8.42908C86.3495 3.91136 82.6872 0.249023 78.1694 0.249023Z" fill="#E99E05"/>
<path d="M78.118 0.188477H8.72449C4.20677 0.188477 0.544434 3.85081 0.544434 8.36854V21.4237C0.544434 25.9415 4.20677 29.6038 8.72449 29.6038H78.118C82.6357 29.6038 86.298 25.9415 86.298 21.4237V8.36854C86.298 3.85081 82.6357 0.188477 78.118 0.188477Z" fill="#E99E05"/>
<path d="M78.0665 0.12207H8.67301C4.15529 0.12207 0.49295 3.78441 0.49295 8.30213V21.3573C0.49295 25.8751 4.15529 29.5374 8.67301 29.5374H78.0665C82.5842 29.5374 86.2465 25.8751 86.2465 21.3573V8.30213C86.2465 3.78441 82.5842 0.12207 78.0665 0.12207Z" fill="#E99E05"/>
<path d="M78.0147 0.0605469H8.62119C4.10347 0.0605469 0.441132 3.72288 0.441132 8.24061V21.2958C0.441132 25.8135 4.10347 29.4759 8.62119 29.4759H78.0147C82.5324 29.4759 86.1947 25.8135 86.1947 21.2958V8.24061C86.1947 3.72288 82.5324 0.0605469 78.0147 0.0605469Z" fill="#E99E05"/>
<path d="M77.9632 0H8.56971C4.05199 0 0.389648 3.66234 0.389648 8.18006V21.2353C0.389648 25.753 4.05199 29.4153 8.56971 29.4153H77.9632C82.4809 29.4153 86.1432 25.753 86.1432 21.2353V8.18006C86.1432 3.66234 82.4809 0 77.9632 0Z" fill="#E99E05"/>
<path d="M105.937 31.585H36.5438C32.026 31.585 28.3637 35.2473 28.3637 39.765V52.8202C28.3637 57.3379 32.026 61.0003 36.5438 61.0003H105.937C110.455 61.0003 114.117 57.3379 114.117 52.8202V39.765C114.117 35.2473 110.455 31.585 105.937 31.585Z" fill="#333333"/>
<path d="M105.847 31.4766H36.4532C31.9355 31.4766 28.2732 35.1389 28.2732 39.6566V52.7118C28.2732 57.2296 31.9355 60.8919 36.4532 60.8919H105.847C110.364 60.8919 114.027 57.2296 114.027 52.7118V39.6566C114.027 35.1389 110.364 31.4766 105.847 31.4766Z" fill="#303030"/>
<path d="M105.757 31.3691H36.3631C31.8454 31.3691 28.1831 35.0315 28.1831 39.5492V52.6044C28.1831 57.1221 31.8454 60.7845 36.3631 60.7845H105.757C110.274 60.7845 113.937 57.1221 113.937 52.6044V39.5492C113.937 35.0315 110.274 31.3691 105.757 31.3691Z" fill="#2E2E2E"/>
<path d="M105.667 31.2598H36.273C31.7553 31.2598 28.093 34.9221 28.093 39.4398V52.495C28.093 57.0128 31.7553 60.6751 36.273 60.6751H105.667C110.184 60.6751 113.847 57.0128 113.847 52.495V39.4398C113.847 34.9221 110.184 31.2598 105.667 31.2598Z" fill="#2B2B2B"/>
<path d="M105.576 31.1523H36.1828C31.6651 31.1523 28.0028 34.8147 28.0028 39.3324V52.3876C28.0028 56.9053 31.6651 60.5677 36.1828 60.5677H105.576C110.094 60.5677 113.756 56.9053 113.756 52.3876V39.3324C113.756 34.8147 110.094 31.1523 105.576 31.1523Z" fill="#292929"/>
<path d="M105.486 31.0439H36.0923C31.5746 31.0439 27.9122 34.7063 27.9122 39.224V52.2792C27.9122 56.7969 31.5746 60.4593 36.0923 60.4593H105.486C110.003 60.4593 113.666 56.7969 113.666 52.2792V39.224C113.666 34.7063 110.003 31.0439 105.486 31.0439Z" fill="#262626"/>
<path d="M105.396 30.9346H36.0022C31.4845 30.9346 27.8221 34.5969 27.8221 39.1146V52.1698C27.8221 56.6876 31.4845 60.3499 36.0022 60.3499H105.396C109.913 60.3499 113.576 56.6876 113.576 52.1698V39.1146C113.576 34.5969 109.913 30.9346 105.396 30.9346Z" fill="#242424"/>
<path d="M105.305 30.8262H35.9117C31.394 30.8262 27.7316 34.4885 27.7316 39.0062V52.0614C27.7316 56.5792 31.394 60.2415 35.9117 60.2415H105.305C109.823 60.2415 113.485 56.5792 113.485 52.0614V39.0062C113.485 34.4885 109.823 30.8262 105.305 30.8262Z" fill="#212121"/>
<path d="M105.215 30.7178H35.8215C31.3038 30.7178 27.6414 34.3801 27.6414 38.8978V51.953C27.6414 56.4708 31.3038 60.1331 35.8215 60.1331H105.215C109.733 60.1331 113.395 56.4708 113.395 51.953V38.8978C113.395 34.3801 109.733 30.7178 105.215 30.7178Z" fill="#1F1F1F"/>
<path d="M105.125 30.6094H35.7314C31.2136 30.6094 27.5513 34.2717 27.5513 38.7894V51.8446C27.5513 56.3624 31.2136 60.0247 35.7314 60.0247H105.125C109.643 60.0247 113.305 56.3624 113.305 51.8446V38.7894C113.305 34.2717 109.643 30.6094 105.125 30.6094Z" fill="#1C1C1C"/>
<path d="M105.034 30.501H35.6408C31.1231 30.501 27.4608 34.1633 27.4608 38.681V51.7362C27.4608 56.254 31.1231 59.9163 35.6408 59.9163H105.034C109.552 59.9163 113.214 56.254 113.214 51.7362V38.681C113.214 34.1633 109.552 30.501 105.034 30.501Z" fill="#1A1A1A"/>
<path d="M104.944 30.3926H35.5508C31.033 30.3926 27.3707 34.0549 27.3707 38.5726V51.6278C27.3707 56.1456 31.033 59.8079 35.5508 59.8079H104.944C109.462 59.8079 113.124 56.1456 113.124 51.6278V38.5726C113.124 34.0549 109.462 30.3926 104.944 30.3926Z" fill="#171717"/>
<path d="M104.854 30.2842H35.4605C30.9428 30.2842 27.2805 33.9465 27.2805 38.4642V51.5194C27.2805 56.0372 30.9428 59.6995 35.4605 59.6995H104.854C109.372 59.6995 113.034 56.0372 113.034 51.5194V38.4642C113.034 33.9465 109.372 30.2842 104.854 30.2842Z" fill="#141414"/>
<path d="M104.76 30.1748H35.3668C30.8491 30.1748 27.1868 33.8371 27.1868 38.3549V51.4101C27.1868 55.9278 30.8491 59.5901 35.3668 59.5901H104.76C109.278 59.5901 112.94 55.9278 112.94 51.4101V38.3549C112.94 33.8371 109.278 30.1748 104.76 30.1748Z" fill="#121212"/>
<path d="M104.67 30.0664H35.2766C30.7589 30.0664 27.0966 33.7287 27.0966 38.2465V51.3017C27.0966 55.8194 30.7589 59.4817 35.2766 59.4817H104.67C109.188 59.4817 112.85 55.8194 112.85 51.3017V38.2465C112.85 33.7287 109.188 30.0664 104.67 30.0664Z" fill="#0F0F0F"/>
<path d="M104.58 29.9619H35.1861C30.6684 29.9619 27.006 33.6243 27.006 38.142V51.1972C27.006 55.7149 30.6684 59.3772 35.1861 59.3772H104.58C109.097 59.3772 112.76 55.7149 112.76 51.1972V38.142C112.76 33.6243 109.097 29.9619 104.58 29.9619Z" fill="#0D0D0D"/>
<path d="M104.489 29.8496H35.096C30.5783 29.8496 26.9159 33.5119 26.9159 38.0297V51.0849C26.9159 55.6026 30.5783 59.2649 35.096 59.2649H104.489C109.007 59.2649 112.67 55.6026 112.67 51.0849V38.0297C112.67 33.5119 109.007 29.8496 104.489 29.8496Z" fill="#0A0A0A"/>
<path d="M104.399 29.7422H35.0059C30.4882 29.7422 26.8258 33.4045 26.8258 37.9222V50.9775C26.8258 55.4952 30.4882 59.1575 35.0059 59.1575H104.399C108.917 59.1575 112.579 55.4952 112.579 50.9775V37.9222C112.579 33.4045 108.917 29.7422 104.399 29.7422Z" fill="#080808"/>
<path d="M104.309 29.6367H34.9154C30.3976 29.6367 26.7353 33.2991 26.7353 37.8168V50.872C26.7353 55.3897 30.3976 59.052 34.9154 59.052H104.309C108.827 59.052 112.489 55.3897 112.489 50.872V37.8168C112.489 33.2991 108.827 29.6367 104.309 29.6367Z" fill="#050505"/>
<path d="M104.219 29.5244H34.8251C30.3074 29.5244 26.6451 33.1868 26.6451 37.7045V50.7597C26.6451 55.2774 30.3074 58.9397 34.8251 58.9397H104.219C108.736 58.9397 112.399 55.2774 112.399 50.7597V37.7045C112.399 33.1868 108.736 29.5244 104.219 29.5244Z" fill="#030303"/>
<path d="M104.129 29.416H34.735C30.2173 29.416 26.555 33.0784 26.555 37.5961V50.6513C26.555 55.169 30.2173 58.8313 34.735 58.8313H104.129C108.646 58.8313 112.309 55.169 112.309 50.6513V37.5961C112.309 33.0784 108.646 29.416 104.129 29.416Z" fill="black"/>
<path d="M104.129 29.416H34.735C30.2173 29.416 26.555 33.0784 26.555 37.5961V50.6513C26.555 55.169 30.2173 58.8313 34.735 58.8313H104.129C108.646 58.8313 112.309 55.169 112.309 50.6513V37.5961C112.309 33.0784 108.646 29.416 104.129 29.416Z" fill="#231F20"/>
<path d="M77.9632 0H8.56971C4.05199 0 0.389648 3.66234 0.389648 8.18006V21.2353C0.389648 25.753 4.05199 29.4153 8.56971 29.4153H77.9632C82.4809 29.4153 86.1432 25.753 86.1432 21.2353V8.18006C86.1432 3.66234 82.4809 0 77.9632 0Z" fill="#FFCB0A"/>
<path d="M31.359 52.9013V34.3164H35.0057L42.6119 46.7268V34.3164H46.0973V52.9013H42.3346L34.8445 40.7811V52.9013H31.359Z" fill="#FFCB0A"/>
<path d="M50.0699 52.9013V34.3164H63.8473V37.4601H53.8198V41.5808H63.1509V44.7116H53.8198V49.7705H64.202V52.9013H50.0699Z" fill="#FFCB0A"/>
<path d="M92.3983 46.8532L96.0482 46.4985C96.2631 47.7238 96.7092 48.6244 97.3863 49.2005C98.1578 49.8077 99.1239 50.1137 100.104 50.0614C101.315 50.0614 102.226 49.8056 102.839 49.294C103.119 49.0856 103.347 48.8155 103.507 48.5047C103.666 48.1938 103.752 47.8505 103.757 47.5013C103.768 47.0929 103.63 46.6944 103.371 46.3792C102.997 45.9987 102.532 45.721 102.02 45.5732C101.59 45.4227 100.588 45.1529 99.0145 44.7639C97.0026 44.2652 95.5914 43.6525 94.781 42.926C93.8758 42.1537 93.2841 41.0771 93.1172 39.899C92.9504 38.7208 93.2199 37.5223 93.875 36.529C94.4415 35.6818 95.2507 35.0255 96.1965 34.646C97.3598 34.1883 98.6032 33.969 99.8529 34.0011C102.183 34.0011 103.938 34.5127 105.118 35.5359C105.703 36.0446 106.172 36.6734 106.492 37.3794C106.813 38.0854 106.978 38.8522 106.975 39.6275L103.225 39.7952C103.064 38.8387 102.719 38.1519 102.19 37.7349C101.662 37.3157 100.872 37.09 99.8142 37.09C98.7566 37.09 97.8796 37.3157 97.2541 37.7639C97.0663 37.8906 96.9133 38.0623 96.8091 38.2634C96.7049 38.4645 96.6528 38.6885 96.6576 38.915C96.6582 39.1332 96.7088 39.3484 96.8055 39.544C96.9021 39.7396 97.0424 39.9105 97.2154 40.0435C97.6883 40.4411 98.8372 40.8549 100.662 41.2848C102.06 41.5701 103.419 42.0192 104.712 42.6229C105.556 43.0536 106.266 43.707 106.766 44.5124C107.281 45.4304 107.54 46.4706 107.514 47.5233C107.488 48.5759 107.178 49.6021 106.617 50.4934C106.018 51.4289 105.141 52.1536 104.109 52.5667C102.818 53.0546 101.445 53.2846 100.066 53.2438C97.7162 53.2438 95.9117 52.701 94.6521 51.6155C93.3924 50.53 92.6412 48.9426 92.3983 46.8532Z" fill="#FFCB0A"/>
<path fill-rule="evenodd" clip-rule="evenodd" d="M81.1457 41.6394C81.2425 41.5427 81.2457 41.4782 81.1457 41.3815C80.3268 40.5647 79.5099 39.7478 78.6953 38.931C78.6082 38.844 78.5437 38.8375 78.4534 38.931L75.9901 41.3976C75.9578 41.4298 75.9159 41.4621 75.9192 41.5169C75.9224 41.5717 75.974 41.6104 76.0159 41.6491C76.822 42.4584 77.628 43.2613 78.4341 44.077C78.5373 44.177 78.605 44.1834 78.7082 44.077C79.5175 43.258 80.3332 42.4487 81.1457 41.6394Z" fill="#FFCB0A"/>
<path fill-rule="evenodd" clip-rule="evenodd" d="M74.2037 48.5731L76.4994 46.2807C76.6832 46.0937 76.6832 46.0937 76.4994 45.9034L72.3079 41.7118C72.1079 41.5087 72.1079 41.5087 72.3079 41.3088C73.7115 39.9073 75.1162 38.5101 76.522 37.1172C76.6542 36.985 76.6542 36.9076 76.522 36.7754C75.7546 36.0113 74.9969 35.2406 74.2328 34.4733C74.0458 34.2863 74.0457 34.2863 73.862 34.4733L66.9942 41.341C66.8072 41.5248 66.8072 41.528 66.9942 41.715L72.0273 46.7482L73.8781 48.5957C73.9164 48.6523 73.9718 48.6952 74.0361 48.7182C74.1102 48.6924 74.1522 48.6247 74.2037 48.5731Z" fill="#FFCB0A"/>
<path fill-rule="evenodd" clip-rule="evenodd" d="M80.6716 36.7328C80.4749 36.9295 80.4749 36.9295 80.6716 37.1229L84.8793 41.3306C85.0534 41.5047 85.0566 41.508 84.8793 41.6789L83.1994 43.3587C82.3396 44.2185 81.4798 45.0784 80.62 45.9382C80.5265 46.0317 80.4523 46.1091 80.5845 46.238C81.3874 47.0344 82.1967 47.8341 82.9834 48.6337C83.0127 48.6744 83.0566 48.7021 83.1059 48.7111C83.1769 48.7111 83.2188 48.6401 83.2639 48.595C85.5661 46.2928 87.8693 43.9918 90.1736 41.6918C90.3026 41.5628 90.3155 41.4854 90.1736 41.35C87.8693 39.05 85.5682 36.7478 83.2704 34.4435C83.1414 34.3145 83.0672 34.3274 82.9479 34.4435C82.2031 35.2077 81.4357 35.9815 80.6716 36.7328Z" fill="#FFCB0A"/>
<path fill-rule="evenodd" clip-rule="evenodd" d="M78.7015 53.1626L81.11 50.754C81.1906 50.6734 81.2067 50.6122 81.11 50.5251L78.6886 48.1037C78.5983 48.0102 78.5306 48.0198 78.4435 48.1037C77.6439 48.9097 76.8421 49.7137 76.0382 50.5154C76.0158 50.5301 75.9969 50.5496 75.983 50.5725C75.9691 50.5953 75.9604 50.621 75.9576 50.6476C75.979 50.6794 76.0027 50.7096 76.0285 50.7379L78.45 53.1626C78.5338 53.2593 78.6144 53.2496 78.7015 53.1626Z" fill="#FFCB0A"/>
<path d="M14.8185 4.06337H22.8502C24.0358 4.03932 25.2215 4.10615 26.3969 4.26328C27.1474 4.384 27.8626 4.66677 28.4927 5.09192C29.1265 5.52957 29.6542 6.10356 30.0372 6.77178C30.4509 7.48534 30.6637 8.29757 30.653 9.1223C30.6539 10.0442 30.3877 10.9466 29.8864 11.7202C29.3851 12.4939 28.6703 13.1057 27.8285 13.4816C28.9433 13.765 29.935 14.4047 30.653 15.3033C31.3142 16.1722 31.662 17.2393 31.6396 18.3309C31.6349 19.2578 31.4141 20.1708 30.9948 20.9974C30.6024 21.8259 30.0027 22.5389 29.2537 23.0674C28.4436 23.6112 27.5079 23.9387 26.5356 24.0186C25.8585 24.0938 24.227 24.14 21.6411 24.1572H14.8185V4.06337ZM18.8843 7.3973V12.0435H21.5443C23.1243 12.0435 24.1066 12.0199 24.4914 11.9726C25.1036 11.9276 25.6818 11.6738 26.1293 11.2536C26.3304 11.0462 26.487 10.8 26.5896 10.53C26.6921 10.26 26.7385 9.97188 26.7258 9.68333C26.7505 9.13227 26.5662 8.59221 26.2099 8.17113C25.8091 7.75324 25.2659 7.5012 24.688 7.46501C24.2882 7.41987 23.1307 7.3973 21.2219 7.3973H18.8843ZM18.8843 15.3871V20.7588H22.6309C23.5602 20.7874 24.4903 20.7464 25.4135 20.6363C25.9821 20.5453 26.5023 20.2619 26.887 19.8334C27.2832 19.356 27.4857 18.7473 27.4545 18.1278C27.4721 17.583 27.3187 17.0463 27.016 16.593C26.7053 16.1566 26.2602 15.8338 25.7488 15.6741C25.1964 15.4806 23.997 15.385 22.1505 15.3871H18.8843Z" fill="#231F20"/>
<path d="M34.0385 17.6042L37.9851 17.2205C38.2237 18.5446 38.7052 19.5183 39.4295 20.1417C40.1539 20.7651 41.1341 21.0757 42.3701 21.0735C43.6598 21.0735 44.6626 20.7962 45.3236 20.2449C45.6261 20.0199 45.873 19.7285 46.0451 19.3931C46.2173 19.0577 46.3102 18.6873 46.3167 18.3103C46.3286 17.8693 46.1809 17.4388 45.9007 17.098C45.4957 16.6885 44.993 16.3889 44.4401 16.2274C43.9651 16.0619 42.8828 15.7695 41.1932 15.3504C39.0179 14.8108 37.4917 14.1488 36.6147 13.3642C36.0279 12.8678 35.5578 12.2481 35.2379 11.5492C34.918 10.8503 34.7562 10.0895 34.764 9.32094C34.763 8.29819 35.066 7.29824 35.6345 6.44808C36.2463 5.53239 37.1208 4.82316 38.1431 4.41355C39.4004 3.91276 40.7463 3.67253 42.0993 3.70742C44.6207 3.70742 46.5187 4.26093 47.7934 5.36794C49.0681 6.47495 49.7376 7.94953 49.8021 9.79169L45.746 9.97225C45.5718 8.94047 45.2011 8.19565 44.6271 7.74425C44.0532 7.29285 43.202 7.06715 42.0477 7.06715C40.8934 7.06715 39.9487 7.30897 39.2812 7.79262C39.0777 7.92987 38.912 8.11608 38.7994 8.33412C38.6867 8.55217 38.6306 8.79505 38.6364 9.04042C38.637 9.27616 38.6916 9.50861 38.7962 9.71991C38.9007 9.9312 39.0523 10.1157 39.2393 10.2592C39.7509 10.6891 40.9933 11.1373 42.9666 11.6037C44.9399 12.0702 46.3994 12.5517 47.3452 13.0482C48.2572 13.5143 49.0252 14.2199 49.5668 15.0892C50.122 16.0792 50.4003 17.2005 50.3725 18.3352C50.3447 19.4699 50.0118 20.5762 49.4088 21.5378C48.7631 22.5564 47.8133 23.3461 46.6939 23.7948C45.2988 24.324 43.8131 24.5727 42.3218 24.5268C39.7831 24.5268 37.8324 23.9399 36.4696 22.7663C35.1068 21.5926 34.2965 19.8719 34.0385 17.6042Z" fill="#231F20"/>
<path d="M66.6524 16.7563L70.586 18.0041C69.982 20.1966 68.9792 21.8249 67.5777 22.8889C66.1762 23.9529 64.3964 24.4903 62.2383 24.501C59.5729 24.501 57.3803 23.5896 55.6607 21.7668C53.9411 19.944 53.0813 17.4516 53.0813 14.2897C53.0813 10.9471 53.9411 8.35051 55.6607 6.49976C57.3803 4.64901 59.6513 3.72363 62.4737 3.72363C64.9306 3.72363 66.9264 4.45018 68.4612 5.90326C69.3769 6.76308 70.0626 7.99691 70.5183 9.60476L66.504 10.5721C66.3174 9.59663 65.7874 8.72038 65.0101 8.10222C64.2328 7.48406 63.2597 7.16491 62.2673 7.20266C61.5808 7.18127 60.8984 7.31514 60.2709 7.59428C59.6434 7.87343 59.087 8.29064 58.6432 8.81481C57.7146 9.88958 57.2503 11.621 57.2503 14.0092C57.2503 16.5499 57.7071 18.3587 58.6206 19.4357C59.0528 19.9584 59.5988 20.3754 60.2169 20.6549C60.835 20.9343 61.5087 21.0687 62.1867 21.0478C63.2224 21.0658 64.2258 20.6875 64.9918 19.9902C65.7614 19.3045 66.3149 18.2265 66.6524 16.7563Z" fill="#231F20"/>
</svg>
