<svg width="390" height="436" viewBox="0 0 390 436" fill="none" xmlns="http://www.w3.org/2000/svg">
<path d="M195.074 436C302.491 436 389.569 389.778 389.569 332.761C389.569 275.744 302.491 229.522 195.074 229.522C87.6576 229.522 0.579346 275.744 0.579346 332.761C0.579346 389.778 87.6576 436 195.074 436Z" fill="#EFF6FF"/>
<path d="M295.407 370.273C318.677 370.273 337.542 359.382 337.542 345.947C337.542 332.512 318.677 321.621 295.407 321.621C272.137 321.621 253.273 332.512 253.273 345.947C253.273 359.382 272.137 370.273 295.407 370.273Z" fill="#D0F0FF"/>
<path d="M227.06 30.4001V261.794L87.2629 342.495V111.12L227.06 30.4001Z" fill="#6ED0FF"/>
<path opacity="0.25" d="M227.06 30.4001V261.794L87.2629 342.495V111.12L227.06 30.4001Z" fill="black"/>
<path opacity="0.15" d="M227.059 30.3999L192.299 50.2918L192.29 241.708L227.059 261.793V30.3999Z" fill="black"/>
<path d="M192.29 241.708L231.77 264.494L87.2629 347.933V181.101L192.29 241.708Z" fill="#6ED0FF"/>
<path opacity="0.8" d="M192.29 241.708L231.77 264.494L87.2629 347.933V181.101L192.29 241.708Z" fill="white"/>
<path opacity="0.1" d="M97.4396 309.265L140.92 334.365L219.188 289.18L175.708 264.08L97.4396 309.265Z" fill="black"/>
<path d="M99.3202 305.172L141.455 329.498L217.308 285.714L175.173 261.379L99.3202 305.172Z" fill="#6ED0FF"/>
<path opacity="0.1" d="M99.3202 305.172L141.455 329.498L217.308 285.714L175.173 261.379L99.3202 305.172Z" fill="black"/>
<path d="M99.3198 305.173V307.376L141.454 331.711V329.498L99.3198 305.173Z" fill="#6ED0FF"/>
<path opacity="0.35" d="M99.3198 305.173V307.376L141.454 331.711V329.498L99.3198 305.173Z" fill="black"/>
<path d="M141.454 329.498L217.307 285.714V287.917L141.454 331.71V329.498Z" fill="#6ED0FF"/>
<path opacity="0.2" d="M141.454 329.498L217.307 285.714V287.917L141.454 331.71V329.498Z" fill="black"/>
<path d="M132.614 310.03L128.992 306.961C128.881 306.868 128.844 306.785 128.872 306.712C128.903 306.627 128.966 306.558 129.047 306.518L130.78 305.513C130.869 305.471 130.967 305.448 131.066 305.449C131.169 305.447 131.271 305.472 131.361 305.523C131.394 305.54 131.425 305.562 131.453 305.587L138.099 311.394C138.151 311.429 138.191 311.478 138.216 311.535C138.24 311.592 138.248 311.656 138.237 311.717C138.218 311.794 138.181 311.865 138.13 311.926C138.079 311.987 138.015 312.035 137.942 312.067L136.845 312.703C136.666 312.808 136.463 312.862 136.255 312.86C136.063 312.864 135.871 312.842 135.684 312.795L131.702 311.643L133.702 313.938C133.777 314.033 133.816 314.15 133.813 314.27C133.813 314.399 133.711 314.51 133.536 314.611L132.439 315.247C132.253 315.352 132.044 315.409 131.831 315.413C131.643 315.429 131.453 315.4 131.278 315.33L121.221 311.496L121.101 311.44C121.067 311.429 121.037 311.406 121.015 311.377C120.994 311.347 120.982 311.311 120.982 311.274C120.982 311.238 120.994 311.202 121.015 311.172C121.037 311.143 121.067 311.12 121.101 311.109L122.834 310.104C122.938 310.049 123.05 310.015 123.166 310.002C123.315 309.992 123.463 310.017 123.6 310.076L128.909 312.169L127.296 310.325C127.246 310.265 127.208 310.196 127.185 310.122C127.185 310.03 127.185 309.938 127.37 309.846L128.605 309.127C128.747 309.037 128.917 309.001 129.084 309.025C129.206 309.036 129.326 309.057 129.444 309.09L132.614 310.03Z" fill="#FAFAFA"/>
<path d="M146.128 304.896C146.238 304.836 146.362 304.808 146.487 304.813C146.609 304.809 146.73 304.837 146.838 304.896L148.239 305.707C148.281 305.723 148.318 305.751 148.343 305.788C148.369 305.825 148.383 305.869 148.383 305.915C148.383 305.96 148.369 306.004 148.343 306.041C148.318 306.078 148.281 306.106 148.239 306.122L141.98 309.745C141.869 309.802 141.745 309.831 141.62 309.828C141.494 309.833 141.369 309.801 141.261 309.735L132.725 304.813C132.683 304.795 132.647 304.766 132.621 304.729C132.594 304.691 132.58 304.647 132.578 304.601C132.579 304.558 132.593 304.516 132.618 304.48C132.642 304.444 132.676 304.416 132.716 304.398L138.883 300.84C138.993 300.78 139.117 300.752 139.242 300.757C139.364 300.753 139.485 300.782 139.592 300.84L140.994 301.651C141.037 301.665 141.075 301.691 141.102 301.728C141.129 301.765 141.144 301.809 141.144 301.854C141.144 301.9 141.129 301.944 141.102 301.98C141.075 302.017 141.037 302.044 140.994 302.057L136.929 304.407L138.357 305.237L142.137 303.052C142.244 302.994 142.365 302.965 142.487 302.969C142.612 302.964 142.736 302.993 142.846 303.052L144.247 303.864C144.289 303.88 144.325 303.907 144.351 303.943C144.377 303.979 144.393 304.022 144.395 304.066C144.395 304.149 144.349 304.214 144.247 304.278L140.468 306.454L141.952 307.311L146.128 304.896Z" fill="#FAFAFA"/>
<path d="M154.516 300.075C154.628 300.02 154.751 299.992 154.875 299.992C155 299.992 155.123 300.02 155.235 300.075L156.636 300.886C156.676 300.904 156.711 300.932 156.737 300.967C156.763 301.003 156.779 301.045 156.783 301.089C156.78 301.134 156.764 301.177 156.738 301.215C156.712 301.252 156.677 301.282 156.636 301.301L150.515 304.831C150.403 304.886 150.28 304.914 150.156 304.914C150.031 304.914 149.908 304.886 149.796 304.831L141.261 299.9C141.219 299.884 141.183 299.856 141.157 299.82C141.131 299.784 141.116 299.741 141.113 299.697C141.113 299.614 141.159 299.549 141.261 299.485L142.994 298.489C143.101 298.431 143.222 298.402 143.344 298.406C143.469 298.401 143.593 298.43 143.703 298.489L150.488 302.407L154.516 300.075Z" fill="#FAFAFA"/>
<path d="M154.35 295.973L154.811 296.259L155.428 296.619L156.064 296.987L156.571 297.255C156.798 297.36 157.032 297.45 157.272 297.522C157.527 297.592 157.79 297.629 158.055 297.632C158.338 297.637 158.62 297.606 158.894 297.54C159.2 297.459 159.495 297.338 159.77 297.181C160.011 297.056 160.227 296.887 160.406 296.683C160.511 296.564 160.587 296.422 160.627 296.268C160.648 296.146 160.629 296.019 160.572 295.909C160.523 295.804 160.457 295.708 160.378 295.623C160.304 295.554 160.253 295.464 160.231 295.365C160.231 295.3 160.295 295.227 160.443 295.134L162.176 294.139C162.266 294.089 162.367 294.063 162.471 294.065C162.571 294.063 162.67 294.089 162.756 294.139C163.141 294.357 163.46 294.676 163.678 295.061C163.861 295.395 163.917 295.785 163.835 296.158C163.737 296.589 163.527 296.986 163.226 297.31C162.84 297.747 162.382 298.115 161.871 298.398C161.247 298.758 160.578 299.034 159.88 299.218C159.211 299.39 158.525 299.485 157.834 299.504C157.177 299.524 156.52 299.459 155.88 299.31C155.287 299.185 154.713 298.98 154.175 298.702C153.797 298.508 153.4 298.287 152.986 298.047C152.571 297.808 152.184 297.577 151.815 297.347C151.396 297.097 151.034 296.761 150.755 296.36C150.525 296.032 150.408 295.637 150.423 295.236C150.47 294.798 150.646 294.384 150.93 294.047C151.328 293.581 151.81 293.193 152.35 292.904C152.929 292.564 153.548 292.298 154.193 292.111C154.843 291.928 155.51 291.81 156.184 291.761C156.822 291.716 157.462 291.747 158.092 291.853C158.651 291.943 159.19 292.127 159.687 292.397C159.72 292.41 159.749 292.433 159.77 292.463C159.792 292.492 159.804 292.527 159.807 292.563C159.806 292.6 159.794 292.637 159.773 292.668C159.752 292.699 159.722 292.724 159.687 292.738L157.954 293.733C157.838 293.808 157.705 293.852 157.567 293.862C157.417 293.847 157.268 293.816 157.124 293.77L156.627 293.66C156.421 293.636 156.214 293.636 156.009 293.66C155.759 293.674 155.512 293.718 155.272 293.789C154.975 293.872 154.69 293.992 154.423 294.148C154.184 294.275 153.971 294.447 153.797 294.655C153.686 294.794 153.628 294.967 153.631 295.144C153.644 295.313 153.716 295.473 153.834 295.595C153.989 295.743 154.162 295.87 154.35 295.973V295.973Z" fill="#FAFAFA"/>
<path d="M161.135 291.982C160.714 291.726 160.35 291.388 160.065 290.987C159.827 290.662 159.709 290.264 159.733 289.862C159.78 289.431 159.953 289.024 160.231 288.691C160.637 288.218 161.128 287.824 161.678 287.53C162.304 287.162 162.977 286.883 163.679 286.7C164.347 286.522 165.034 286.423 165.725 286.405C166.376 286.386 167.027 286.451 167.661 286.599C168.259 286.731 168.838 286.938 169.384 287.216C169.781 287.428 170.186 287.65 170.601 287.889C171.016 288.129 171.394 288.359 171.735 288.571C172.153 288.83 172.517 289.168 172.804 289.567C173.041 289.893 173.162 290.289 173.145 290.692C173.099 291.127 172.923 291.538 172.638 291.871C172.23 292.34 171.739 292.731 171.191 293.024C170.565 293.391 169.892 293.673 169.191 293.862C168.526 294.038 167.842 294.134 167.154 294.148C166.5 294.164 165.847 294.099 165.209 293.955C164.61 293.823 164.031 293.615 163.485 293.337C163.107 293.134 162.711 292.922 162.296 292.683C161.881 292.443 161.494 292.203 161.135 291.982ZM169.265 289.945L168.758 289.632L168.177 289.272L167.578 288.94L167.043 288.664C166.803 288.551 166.553 288.462 166.297 288.396C166.034 288.331 165.765 288.297 165.495 288.295C165.211 288.296 164.93 288.333 164.656 288.406C164.366 288.483 164.087 288.598 163.826 288.747C163.599 288.869 163.396 289.031 163.227 289.226C163.118 289.366 163.057 289.537 163.052 289.714C163.049 289.882 163.104 290.045 163.209 290.175C163.339 290.344 163.498 290.487 163.679 290.599C163.817 290.701 163.974 290.802 164.158 290.913L164.739 291.263L165.338 291.604L165.9 291.89C166.388 292.121 166.919 292.247 167.458 292.259C168.042 292.264 168.616 292.107 169.117 291.807C169.661 291.484 169.919 291.171 169.891 290.885C169.867 290.691 169.798 290.504 169.689 290.341C169.58 290.178 169.435 290.042 169.265 289.945Z" fill="#FAFAFA"/>
<path d="M178.27 286.092H177.874L174.445 285.548L178.823 288.074C178.864 288.091 178.899 288.119 178.924 288.155C178.95 288.191 178.966 288.232 178.971 288.276C178.967 288.322 178.951 288.365 178.925 288.402C178.9 288.439 178.864 288.469 178.823 288.488L177.09 289.484C176.98 289.542 176.856 289.571 176.731 289.567C176.609 289.571 176.488 289.542 176.381 289.484L167.836 284.552C167.795 284.535 167.76 284.507 167.735 284.471C167.709 284.435 167.693 284.393 167.688 284.35C167.688 284.267 167.734 284.202 167.836 284.138L169.366 283.216C169.53 283.118 169.719 283.069 169.91 283.078H170.297L176.095 283.953L174.583 280.607C174.558 280.536 174.542 280.461 174.537 280.386C174.537 280.275 174.611 280.174 174.786 280.073L176.325 279.151C176.433 279.092 176.553 279.064 176.676 279.068C176.801 279.062 176.925 279.091 177.035 279.151L185.58 284.082C185.672 284.138 185.727 284.202 185.718 284.285C185.709 284.368 185.718 284.433 185.58 284.488L183.847 285.493C183.736 285.55 183.612 285.579 183.487 285.576C183.365 285.58 183.244 285.551 183.137 285.493L178.759 282.967L179.681 284.939C179.69 285.016 179.69 285.093 179.681 285.17C179.681 285.262 179.616 285.336 179.478 285.419L178.639 285.907C178.532 285.996 178.405 286.059 178.27 286.092Z" fill="#FAFAFA"/>
<path d="M192.309 278.247C192.416 278.189 192.537 278.16 192.659 278.164C192.784 278.161 192.908 278.19 193.019 278.247L194.42 279.058C194.461 279.074 194.497 279.102 194.523 279.138C194.55 279.174 194.565 279.217 194.567 279.261C194.563 279.305 194.547 279.347 194.521 279.383C194.495 279.418 194.46 279.446 194.42 279.464L188.152 283.087C188.042 283.146 187.917 283.175 187.792 283.17C187.67 283.174 187.549 283.145 187.442 283.087L178.897 278.155C178.856 278.136 178.821 278.106 178.795 278.069C178.769 278.032 178.753 277.988 178.75 277.943C178.753 277.899 178.769 277.857 178.795 277.821C178.821 277.785 178.856 277.757 178.897 277.74L185.054 274.182C185.165 274.125 185.289 274.096 185.414 274.099C185.539 274.095 185.663 274.124 185.773 274.182L187.175 274.993C187.217 275.009 187.253 275.037 187.279 275.074C187.305 275.112 187.319 275.156 187.319 275.201C187.319 275.246 187.305 275.29 187.279 275.327C187.253 275.364 187.217 275.392 187.175 275.408L183.091 277.759L184.52 278.579L188.299 276.395C188.411 276.34 188.534 276.312 188.659 276.312C188.783 276.312 188.906 276.34 189.018 276.395L190.419 277.206C190.462 277.221 190.498 277.25 190.524 277.287C190.55 277.324 190.563 277.368 190.563 277.413C190.563 277.458 190.55 277.502 190.524 277.539C190.498 277.576 190.462 277.605 190.419 277.62L186.64 279.805L188.115 280.653L192.309 278.247Z" fill="#FAFAFA"/>
<path d="M171.458 171.589C169.615 172.05 165.209 172.925 165.209 172.925C165.209 172.925 167.578 169.911 166.61 169.238C165.642 168.565 164.96 170.649 162.176 171.792C159.392 172.935 158.305 174.382 156.59 174.4L135.389 174.695C135.389 174.695 120.641 157.052 118.207 155.264C117.306 154.528 116.256 153.997 115.129 153.705C114.003 153.414 112.826 153.37 111.681 153.577L114.658 169.247L126.863 181.406C129.702 184.226 130.808 185.194 134.597 185.001C138.901 184.779 149.806 183.074 156.092 182.042C160.222 181.701 161.623 181.867 164.508 181.378C167.615 180.862 170.887 180.853 173.062 176.917C175.579 172.345 174.196 170.925 171.458 171.589Z" fill="#F28F8F"/>
<path d="M130.495 86.7302V277.418L192.29 241.708V51.0667L130.495 86.7302Z" fill="#1F6180"/>
<path d="M132.937 175C132.977 174.237 133.197 173.495 133.578 172.833C133.959 172.172 134.491 171.61 135.131 171.193C136.348 170.492 137.325 171.064 137.325 172.465C137.264 173.619 136.793 174.714 135.997 175.553V177.396C135.982 177.655 135.907 177.906 135.777 178.13C135.647 178.354 135.467 178.545 135.251 178.687L134.993 178.834C134.587 179.074 134.255 178.834 134.255 178.401V176.557C133.481 176.622 132.937 176.041 132.937 175Z" fill="#263238"/>
<path d="M154.958 81.7341L139.187 90.8413V163.219L154.958 154.112V81.7341Z" fill="#6ED0FF"/>
<path opacity="0.3" d="M154.958 81.7341L139.187 90.8413V163.219L154.958 154.112V81.7341Z" fill="black"/>
<path d="M181.091 66.6172L165.31 75.7243V148.102L181.091 138.995V66.6172Z" fill="#6ED0FF"/>
<path opacity="0.3" d="M181.091 66.6172L165.31 75.7243V148.102L181.091 138.995V66.6172Z" fill="black"/>
<path d="M154.958 154.112L157.456 155.55L139.187 166.104V163.219L154.958 154.112Z" fill="#05354C"/>
<path d="M181.09 138.995L183.588 140.442L165.319 150.987L162.821 149.54L181.09 138.995Z" fill="#05354C"/>
<path d="M181.091 138.995V66.5895L183.598 65.1423L183.589 140.433L181.091 138.995Z" fill="#23536A"/>
<path d="M157.456 155.55L165.319 150.987V75.7241L157.456 80.2869V155.55Z" fill="#1F6180"/>
<path d="M157.456 155.55L154.958 154.112V81.7338L157.456 80.2866V155.55Z" fill="#23536A"/>
<path opacity="0.1" d="M157.456 167.561L139.187 178.106V259.121L157.456 248.566V167.561Z" fill="black"/>
<path d="M155.696 173.386L143.224 180.585V251.968L155.696 244.769V173.386Z" fill="#1F6180"/>
<path d="M139.187 178.106L143.224 180.586V251.968L139.187 259.121V178.106Z" fill="#23536A"/>
<path d="M157.456 167.561L155.696 173.386V244.769L157.456 248.566V167.561Z" fill="#23536A"/>
<path d="M157.456 248.567L155.696 244.769L143.224 251.968L139.187 259.121L157.456 248.567Z" fill="#05354C"/>
<path opacity="0.1" d="M183.598 152.434L165.319 162.989V244.004L183.598 233.449V152.434Z" fill="black"/>
<path d="M181.837 158.269L169.365 165.468V236.851L181.837 229.652V158.269Z" fill="#1F6180"/>
<path d="M165.319 162.989L169.365 165.468V236.85L165.319 244.003V162.989Z" fill="#23536A"/>
<path d="M183.598 152.434L181.837 158.269V229.651L183.598 233.449V152.434Z" fill="#23536A"/>
<path d="M183.598 233.449L181.837 229.652L169.365 236.851L165.319 244.004L183.598 233.449Z" fill="#05354C"/>
<path d="M127.812 275.925L130.495 277.418V86.73L127.812 88.2509V275.925Z" fill="#05354C"/>
<path opacity="0.1" d="M192.29 50.2922V71.8157L87.2629 132.644V111.12L192.29 50.2922Z" fill="black"/>
<path opacity="0.1" d="M108.068 317.911C113.045 318.612 117.285 321.23 122.088 322.244C125.24 322.898 128.632 323.101 131.545 321.709C132.467 321.257 133.868 320.28 134.181 319.276C134.661 317.755 133.462 316.51 132.495 315.588C131.293 314.472 130.028 313.426 128.706 312.454C125.943 310.598 122.942 309.125 119.783 308.076C117.018 307.053 114.253 306.113 111.423 305.311C108.798 304.693 106.124 304.314 103.431 304.177C97.345 303.491 91.1848 303.922 85.2536 305.449C79.5202 307.044 74.1923 308.583 69.9798 313.09C68.4687 314.527 67.4658 316.417 67.1223 318.474C67.0706 319.621 67.266 320.767 67.6954 321.832C68.1248 322.898 68.7781 323.858 69.6111 324.65C70.8914 326.04 72.4462 327.149 74.1772 327.907C75.9082 328.666 77.7778 329.057 79.6676 329.056C81.0021 329.036 82.3188 328.746 83.5385 328.204C84.7582 327.663 85.8558 326.88 86.7653 325.903C88.5536 323.875 89.927 321.506 92.296 320.031C96.8495 317.174 102.896 317.229 108.068 317.911Z" fill="black"/>
<path d="M103.325 148.636C103.168 150.379 103.427 152.213 100.385 153.485C100.385 153.485 101.915 157.928 98.366 159.403C98.366 159.403 99.5735 163.569 96.6239 164.933C96.9009 165.803 96.8939 166.738 96.6039 167.603C96.3138 168.468 95.7558 169.218 95.0108 169.745C95.5985 170.551 95.9091 171.525 95.8958 172.523C95.8825 173.52 95.5461 174.486 94.937 175.276C95.2687 175.532 95.5398 175.858 95.731 176.231C95.9222 176.603 96.0288 177.014 96.0431 177.433C96.1722 178.981 95.4901 180.834 93.9784 181.184C94.2495 180.854 94.3978 180.441 94.3978 180.014C94.3978 179.587 94.2495 179.173 93.9784 178.843C93.0013 177.728 92.5681 176.327 93.6097 175.303C93.6097 175.303 89.9963 174.206 92.0887 169.985C91.6685 169.588 91.35 169.097 91.16 168.551C90.9701 168.006 90.9144 167.423 90.9976 166.851C91.0808 166.28 91.3004 165.737 91.638 165.268C91.9755 164.799 92.421 164.419 92.9368 164.159C92.9368 164.159 90.9918 159.79 94.6421 158.195C94.6421 158.195 92.5127 155.651 95.3149 152.665C95.3149 152.665 92.651 148.157 98.2554 144.276L103.325 148.636Z" fill="#263238"/>
<path d="M123.908 302.048C124.104 301.683 124.2 301.273 124.185 300.859C124.18 300.409 124.198 299.96 124.24 299.513C124.461 296.102 127.171 263.72 127.844 256.282C128.978 243.792 129.033 210.396 126.526 199.638L92.9179 202.302C90.5121 208.358 88.7607 215.806 89.1663 227.495C89.4705 236.408 89.3322 260.586 89.3322 260.586C86.2979 263.576 83.9294 267.172 82.382 271.141C79.8287 277.344 77.9114 292.341 76.5011 298.388C76.2338 299.531 75.9296 301.154 75.9296 301.154C75.2043 302.166 74.8026 303.374 74.7773 304.62C74.7891 308.323 75.1907 312.015 75.9757 315.635C76.1663 316.517 76.5862 317.334 77.1931 318.002C77.7999 318.671 78.5723 319.167 79.4323 319.442C79.8432 319.612 80.2882 319.685 80.732 319.654C80.9657 319.652 81.1911 319.567 81.368 319.414C81.6814 319.101 81.368 318.354 81.368 317.976C81.2678 317.366 81.2093 316.75 81.1929 316.132C81.1929 314.925 81.1929 313.459 81.2666 312.252C81.4155 309.574 81.8323 306.919 82.511 304.325L83.1563 302.785C83.1563 302.785 97.536 273.593 101.592 266.467C104.836 260.89 108.136 239.21 110.422 227.365L114.404 255.646C113.439 258.588 112.723 261.607 112.266 264.67C111.676 269.915 114.681 290.129 115.806 297.439C115.97 298.509 116.028 299.593 115.981 300.674C115.926 301.001 115.926 301.334 115.981 301.661C116.118 301.997 116.352 302.286 116.654 302.49C117.262 302.791 117.902 303.023 118.562 303.182C119.463 303.421 120.402 303.483 121.327 303.366C121.677 303.311 122.009 303.191 122.359 303.126C122.757 303.047 123.127 302.863 123.429 302.592C123.622 302.443 123.785 302.258 123.908 302.048Z" fill="#FFA8A7"/>
<path d="M86.0142 326.346H85.7561C83.5009 326.632 81.2105 326.421 79.0455 325.728C77.1205 325.101 75.3922 323.982 74.0311 322.483C73.4953 321.752 73.0927 320.931 72.842 320.059C72.5624 319.155 72.3528 318.23 72.2152 317.294C71.6437 314.317 72.4456 313.478 71.5515 310.546C71.1433 309.527 70.8075 308.479 70.5468 307.412C70.6935 306.863 70.9541 306.351 71.3118 305.91L74.9989 311.072L77.4416 314.501L78.7413 316.344C79.0271 316.75 79.2483 317.266 79.5709 317.653C80.0678 318.108 80.6264 318.489 81.2301 318.787C81.8293 319.165 82.4469 319.525 83.0737 319.856C84.3005 320.52 85.5656 321.111 86.8622 321.626C87.4109 321.812 87.9343 322.066 88.42 322.382C88.6624 322.545 88.8663 322.759 89.0175 323.009C89.1688 323.259 89.2637 323.539 89.2957 323.829C89.2953 324.333 89.0966 324.817 88.7426 325.175C87.9955 325.868 87.0315 326.282 86.0142 326.346V326.346Z" fill="#37474F"/>
<path d="M82.2625 304.739L82.8801 303.495C83.3871 303.919 82.6773 306.5 82.5851 309.191C82.5513 310.394 82.6285 311.598 82.8156 312.786C82.9815 313.875 83.398 314.91 84.0323 315.81C84.9668 317.255 86.1349 318.536 87.489 319.598C88.1209 319.993 88.6488 320.533 89.0284 321.174C89.2378 321.53 89.3595 321.93 89.3836 322.342C89.4076 322.754 89.3333 323.166 89.1666 323.543C88.8584 324.076 88.3768 324.486 87.8024 324.705C87.0251 325.009 86.2029 325.184 85.3689 325.221C82.6922 325.435 80.0086 324.902 77.6168 323.682C76.3199 323.015 75.2012 322.048 74.3537 320.861C73.7496 319.795 73.3612 318.62 73.2107 317.404C72.7682 315.294 72.9157 313.137 72.6576 311.514C72.3995 309.892 71.0814 307.56 71.3118 305.984C71.4409 305.108 72.5931 303.633 73.6624 302.453C74.7316 301.273 75.7179 300.121 76.0866 300.462L75.9391 301.2C76.4733 302.494 77.4546 303.554 78.7045 304.186C79.7883 304.784 81.0484 304.98 82.2625 304.739Z" fill="#455A64"/>
<path d="M84.2261 316.307C84.2934 316.3 84.3569 316.272 84.408 316.228C84.459 316.183 84.4953 316.124 84.5118 316.059C84.5229 316.016 84.5255 315.972 84.5194 315.929C84.5133 315.885 84.4987 315.844 84.4764 315.806C84.4542 315.768 84.4246 315.735 84.3896 315.709C84.3545 315.683 84.3146 315.664 84.2722 315.653C82.3825 315.164 78.9259 315.284 77.3035 316.169C77.2654 316.19 77.2318 316.219 77.2046 316.253C77.1775 316.287 77.1573 316.326 77.1453 316.368C77.1334 316.41 77.1298 316.454 77.1348 316.497C77.1398 316.541 77.1533 316.583 77.1745 316.621C77.1947 316.66 77.2227 316.694 77.2567 316.722C77.2908 316.75 77.3301 316.771 77.3724 316.783C77.4148 316.795 77.4591 316.798 77.5027 316.793C77.5463 316.787 77.5883 316.772 77.6262 316.75C79.0826 315.948 82.3641 315.828 84.0786 316.298L84.2261 316.307Z" fill="#E0E0E0"/>
<path d="M83.3043 313.727C83.3709 313.722 83.4347 313.698 83.4874 313.657C83.54 313.616 83.579 313.56 83.5992 313.496C83.6135 313.455 83.6193 313.411 83.6163 313.368C83.6133 313.325 83.6016 313.282 83.5817 313.244C83.5619 313.205 83.5345 313.17 83.5011 313.143C83.4676 313.115 83.4289 313.094 83.3872 313.081C81.2668 312.459 79.001 312.546 76.9348 313.33C76.8889 313.344 76.8465 313.368 76.8107 313.4C76.7748 313.432 76.7462 313.471 76.727 313.515C76.7077 313.559 76.6982 313.606 76.6992 313.654C76.7001 313.702 76.7114 313.749 76.7323 313.793C76.7532 313.836 76.7832 313.874 76.8203 313.904C76.8574 313.935 76.9006 313.957 76.947 313.969C76.9934 313.981 77.0419 313.983 77.0891 313.975C77.1363 313.966 77.1812 313.948 77.2206 313.92C79.1448 313.217 81.2429 313.142 83.2121 313.708C83.2414 313.72 83.2727 313.726 83.3043 313.727V313.727Z" fill="#E0E0E0"/>
<path d="M82.7786 311.081C82.838 311.082 82.8963 311.066 82.9469 311.035C82.9975 311.004 83.0382 310.959 83.0644 310.906C83.0856 310.868 83.0991 310.826 83.1041 310.782C83.1091 310.739 83.1055 310.695 83.0935 310.653C83.0815 310.611 83.0614 310.572 83.0343 310.538C83.0071 310.504 82.9735 310.475 82.9353 310.454C80.9194 309.664 78.6757 309.688 76.6765 310.519C76.6371 310.537 76.6019 310.564 76.5727 310.596C76.5435 310.629 76.521 310.666 76.5065 310.707C76.4919 310.749 76.4856 310.792 76.4879 310.836C76.4902 310.879 76.501 310.922 76.5198 310.961C76.5593 311.039 76.6279 311.098 76.7107 311.126C76.7935 311.153 76.8839 311.147 76.9622 311.109C78.7679 310.367 80.7883 310.34 82.6127 311.035C82.6637 311.063 82.7205 311.079 82.7786 311.081V311.081Z" fill="#E0E0E0"/>
<path d="M139.173 316.695C139.228 317.242 139.14 317.794 138.919 318.298C138.698 318.802 138.35 319.24 137.91 319.57C135.425 320.995 132.511 321.483 129.697 320.944C124.931 319.746 124 318.464 122.323 316.741C120.24 314.547 120.479 313.404 118.129 311.422C117.235 310.782 116.388 310.079 115.594 309.32C115.399 308.594 115.325 307.84 115.373 307.09L139.173 316.695Z" fill="#37474F"/>
<path d="M124.093 300.536L124.24 299.513C124.886 299.596 125.393 301.789 126.766 304.122C127.96 306.017 129.48 307.687 131.255 309.053C134.02 311.127 137.431 313.173 138.989 315.506C140.547 317.838 135.707 320.022 132.039 319.939C130.401 319.91 128.785 319.555 127.285 318.897C125.785 318.239 124.431 317.29 123.3 316.105C121.788 314.565 120.747 312.666 119.613 311.44C118.479 310.215 116.156 308.961 115.493 307.486C115.116 306.09 115.069 304.626 115.354 303.209C115.594 301.762 115.511 299.771 116 299.854C116 299.992 116 300.637 116 300.637C117.416 301.554 119.079 302.017 120.765 301.965C122.01 301.903 123.191 301.396 124.093 300.536V300.536Z" fill="#455A64"/>
<path d="M133.707 310.629C133.765 310.595 133.812 310.545 133.841 310.484C133.871 310.423 133.882 310.355 133.873 310.288C133.866 310.246 133.851 310.205 133.828 310.168C133.805 310.131 133.775 310.1 133.74 310.075C133.705 310.05 133.665 310.032 133.623 310.023C133.581 310.014 133.537 310.013 133.495 310.021C131.559 310.316 128.434 311.8 127.3 313.266C127.273 313.3 127.254 313.339 127.242 313.381C127.231 313.423 127.228 313.467 127.234 313.51C127.24 313.553 127.255 313.594 127.277 313.631C127.3 313.669 127.33 313.701 127.365 313.726C127.434 313.779 127.52 313.803 127.606 313.793C127.693 313.782 127.771 313.739 127.826 313.671C128.849 312.353 131.817 310.952 133.596 310.675L133.707 310.629Z" fill="#E0E0E0"/>
<path d="M131.089 308.823C131.147 308.791 131.195 308.742 131.224 308.683C131.254 308.624 131.265 308.556 131.255 308.491C131.241 308.404 131.194 308.326 131.123 308.274C131.052 308.223 130.964 308.201 130.877 308.214C128.697 308.614 126.706 309.715 125.208 311.348C125.154 311.418 125.13 311.506 125.142 311.593C125.153 311.681 125.198 311.76 125.268 311.814C125.338 311.868 125.426 311.891 125.513 311.88C125.6 311.869 125.68 311.824 125.733 311.754C127.128 310.256 128.967 309.245 130.978 308.869C131.018 308.861 131.056 308.846 131.089 308.823Z" fill="#E0E0E0"/>
<path d="M128.877 306.942C128.928 306.912 128.97 306.869 128.999 306.817C129.028 306.765 129.043 306.707 129.043 306.647C129.043 306.559 129.008 306.475 128.945 306.413C128.883 306.35 128.799 306.315 128.711 306.315C126.564 306.59 124.607 307.687 123.254 309.376C123.204 309.448 123.185 309.537 123.2 309.623C123.216 309.71 123.265 309.786 123.337 309.837C123.408 309.887 123.496 309.908 123.582 309.894C123.669 309.881 123.746 309.833 123.798 309.763C125.025 308.246 126.786 307.256 128.72 306.998C128.776 306.994 128.831 306.975 128.877 306.942V306.942Z" fill="#E0E0E0"/>
<path d="M96.587 192.163C93.9726 197.242 91.9143 202.588 90.448 208.11C88.6045 215.963 88.669 221.125 88.7427 234.841C88.8165 248.557 89.01 260.439 89.01 260.439C89.01 260.439 82.2165 264.928 79.9674 280.487C79.9674 280.487 85.3229 286.018 92.4298 284.175C92.4298 284.175 100.062 270.615 102.569 266.366C105.077 262.116 110.441 227.375 110.441 227.375L113.668 255.701C113.668 255.701 111.234 262.476 111.547 267.26C111.861 272.044 113.161 279.529 113.161 279.529C117.467 280.841 122.107 280.512 126.185 278.607C126.185 278.607 128.49 256.374 128.794 248.308C129.098 240.243 130.084 211.741 126.121 193.923L96.587 192.163Z" fill="#455A64"/>
<path d="M110.441 227.43L113.63 214.912C113.63 214.912 119.76 215.622 124.581 212.055C124.581 212.055 123.595 216.664 115.05 217.991L111.363 230.241L111.418 236.095L110.441 227.43Z" fill="#263238"/>
<path d="M125.955 188.724C125.601 185.281 125.564 181.813 125.844 178.364C127.794 176.55 129.036 174.103 129.348 171.459C129.66 168.815 129.023 166.146 127.549 163.929C122.894 156.388 116.995 153.577 116.995 153.577L109.224 153.337C108.118 153.466 98.5686 154.84 97.3519 155.181C97.3519 155.181 94.0611 157.946 93.167 161.163C92.66 163.007 92.5125 164.85 94.1625 170.741L98.2091 181.055C98.2091 181.055 99.389 184.143 98.7898 186.309C98.1907 188.476 94.8999 193.859 93.167 199.085C93.167 199.085 100.541 205.694 114.082 204.164C125.65 202.846 127.337 198.956 127.337 198.956C127.337 198.956 126.093 190.835 125.955 188.724Z" fill="#FAFAFA"/>
<path opacity="0.1" d="M104.173 176.29C104.963 177.679 106.138 178.81 107.556 179.548C108.973 180.285 110.574 180.597 112.165 180.447C113.702 180.354 115.188 179.856 116.471 179.005C117.755 178.154 118.791 176.979 119.475 175.598C119.475 175.598 119.419 181.701 112.211 181.913C105.003 182.125 104.173 176.29 104.173 176.29Z" fill="black"/>
<path d="M156.41 175.81C156.44 174.963 156.187 174.129 155.691 173.441C155.622 173.315 155.524 173.207 155.406 173.125C155.287 173.044 155.152 172.991 155.009 172.971C154.656 172.993 154.326 173.152 154.087 173.414C153.092 174.335 152.244 175.257 151.202 176.179C150.223 177.043 148.984 177.559 147.681 177.644C147.692 177.387 147.789 177.14 147.957 176.944C148.363 176.382 148.667 175.976 149.1 175.368C149.377 175.066 149.583 174.708 149.704 174.317C149.825 173.927 149.858 173.514 149.801 173.109C149.774 173 149.72 172.9 149.642 172.819C149.564 172.738 149.466 172.679 149.359 172.648C149.176 172.633 148.993 172.682 148.842 172.787C147.416 173.496 146.08 174.371 144.86 175.395C143.524 176.52 142.731 178.382 140.417 179.294C138.104 180.207 135.633 180.428 131.365 180.991C128.038 181.424 122.563 182.134 118.875 182.456C113.594 177.101 107.132 167.505 103.611 162.739C101.736 160.061 99.6455 157.539 97.3612 155.199C94.2732 156.121 92.485 157.697 91.766 159.909C89.9224 165.007 92.5219 170.833 99.426 178.511C101.675 181.027 108.487 188.512 111.962 192.006C112.475 192.528 113.095 192.932 113.779 193.19C114.464 193.448 115.196 193.553 115.926 193.499C118.008 193.273 120.076 192.931 122.12 192.476C125.927 191.554 130.757 190.171 134.555 189.25C137.624 188.503 140.814 187.6 143.422 186.835C145.202 186.364 146.951 185.782 148.658 185.092C150.102 184.571 151.467 183.851 152.714 182.954C153.534 182.382 154.251 181.674 154.834 180.861C155.338 180.091 155.723 179.249 155.977 178.363C156.26 177.542 156.406 176.679 156.41 175.81V175.81Z" fill="#FFA8A7"/>
<path d="M96.2089 126.929C94.0704 129.694 93.6648 133.307 94.1902 136.865C95.112 142.848 98.7345 147.503 103.067 149.466C105.657 150.646 109.031 151.144 110.764 149.632C113.465 147.291 116.202 145.023 119.115 142.931C121.29 141.391 123.724 139.852 124.784 137.4C125.706 135.317 125.706 131.75 123.752 130.21C125.294 129.004 126.369 127.3 126.793 125.389C126.986 124.889 127.026 124.342 126.908 123.818C126.79 123.295 126.519 122.818 126.13 122.449C125.577 121.97 123.835 121.887 123.097 121.804C120.515 121.416 117.969 120.821 115.483 120.025C112.402 119.366 109.231 119.244 106.109 119.665C103.675 120.135 100.901 121.094 99.6563 124.486C98.2554 124.869 97.0345 125.734 96.2089 126.929V126.929Z" fill="#263238"/>
<path d="M118.332 125.279C120.175 126.2 122.544 130.422 122.941 139.585C123.245 147.346 120.848 149.42 119.622 150.056C118.396 150.692 115.935 150.498 113.548 150.259L113.797 154.139C113.797 154.139 120.682 159.108 115.29 160.14C112.308 160.55 109.28 159.823 106.809 158.103C105.474 157.253 104.327 156.139 103.436 154.831L102.892 145.198C102.892 145.198 101.583 146.636 99.0942 144.719C97.0387 143.133 96.1998 140.304 97.6194 138.663C97.991 138.272 98.45 137.975 98.9586 137.796C99.4672 137.618 100.011 137.562 100.545 137.634C101.08 137.706 101.589 137.903 102.032 138.21C102.476 138.517 102.84 138.925 103.095 139.4C103.095 139.4 104.533 140.128 105.759 137.464C108.098 137.089 110.324 136.198 112.276 134.856C113.875 133.746 115.235 132.327 116.275 130.682C117.316 129.036 118.015 127.199 118.332 125.279V125.279Z" fill="#FFA8A7"/>
<path d="M112.718 137.778C112.752 138.039 112.681 138.304 112.52 138.513C112.359 138.722 112.122 138.859 111.861 138.893C111.594 138.914 111.331 138.828 111.127 138.656C110.924 138.483 110.796 138.237 110.773 137.971C110.745 137.714 110.82 137.455 110.983 137.253C111.145 137.051 111.381 136.921 111.639 136.893C111.897 136.865 112.156 136.94 112.358 137.103C112.56 137.265 112.69 137.502 112.718 137.759V137.778Z" fill="#263238"/>
<path d="M112.875 143.659L116.562 144.719C116.504 144.969 116.396 145.205 116.245 145.412C116.094 145.62 115.902 145.794 115.682 145.926C115.461 146.058 115.217 146.144 114.963 146.178C114.708 146.213 114.45 146.197 114.202 146.129C113.706 145.966 113.292 145.619 113.045 145.159C112.799 144.699 112.737 144.162 112.875 143.659Z" fill="#B16668"/>
<path d="M115.096 146.157C115.054 145.687 114.834 145.252 114.481 144.94C114.128 144.628 113.669 144.463 113.198 144.479C113.079 144.488 112.962 144.506 112.847 144.534C112.908 144.905 113.071 145.251 113.319 145.533C113.567 145.815 113.889 146.022 114.248 146.129C114.525 146.204 114.815 146.214 115.096 146.157Z" fill="#F28F8F"/>
<path d="M121.346 134.192L119.253 132.948C119.327 132.809 119.428 132.688 119.551 132.59C119.673 132.493 119.814 132.421 119.965 132.379C120.116 132.338 120.274 132.328 120.429 132.349C120.584 132.371 120.733 132.424 120.867 132.505C121.149 132.669 121.357 132.937 121.447 133.252C121.536 133.566 121.5 133.903 121.346 134.192Z" fill="#263238"/>
<path d="M111.133 134.192L108.948 135.188C108.875 135.049 108.831 134.896 108.819 134.74C108.807 134.583 108.827 134.426 108.878 134.278C108.929 134.129 109.01 133.993 109.115 133.877C109.221 133.76 109.349 133.667 109.492 133.602C109.789 133.471 110.125 133.459 110.431 133.569C110.736 133.678 110.988 133.902 111.133 134.192Z" fill="#263238"/>
<path d="M120.986 137.04C121 137.168 120.989 137.297 120.953 137.42C120.917 137.544 120.857 137.659 120.777 137.759C120.696 137.859 120.597 137.942 120.484 138.004C120.371 138.066 120.248 138.105 120.12 138.119C119.992 138.133 119.863 138.121 119.74 138.085C119.616 138.049 119.501 137.989 119.401 137.909C119.301 137.828 119.218 137.729 119.156 137.616C119.094 137.504 119.055 137.38 119.042 137.252C119.008 136.991 119.079 136.726 119.239 136.517C119.4 136.308 119.637 136.171 119.899 136.137C120.162 136.116 120.423 136.199 120.626 136.368C120.829 136.536 120.958 136.778 120.986 137.04V137.04Z" fill="#263238"/>
<path d="M116.267 136.773L116.793 142.635L119.825 141.483L116.267 136.773Z" fill="#F28F8F"/>
<path d="M113.501 150.259C110.985 150.084 105.768 148.931 104.837 146.959C105.225 147.963 105.91 148.825 106.8 149.429C108.413 150.646 113.603 151.807 113.603 151.807L113.501 150.259Z" fill="#F28F8F"/>
<path d="M103.048 137.483L103.297 141.557C103.663 141.537 104.021 141.445 104.351 141.285C104.681 141.126 104.976 140.902 105.218 140.628C105.461 140.353 105.647 140.033 105.765 139.687C105.883 139.34 105.931 138.973 105.906 138.607L105.666 134.837L103.048 137.483Z" fill="#263238"/>
<path d="M227.06 261.794L231.77 264.494V27.6809L227.06 30.4001V261.794Z" fill="#6ED0FF"/>
<path opacity="0.4" d="M227.06 261.794L231.77 264.494V27.6809L227.06 30.4001V261.794Z" fill="white"/>
<path opacity="0.1" d="M227.06 261.794L231.77 264.494V27.6809L227.06 30.4001V261.794Z" fill="black"/>
<path d="M231.77 264.494L246.195 256.162V2.68237L72.8186 102.787V356.239L87.2628 347.934V111.12L231.76 27.6809L231.77 264.494Z" fill="#6ED0FF"/>
<path opacity="0.7" d="M231.77 264.494L246.195 256.162V2.68237L72.8186 102.787V356.239L87.2628 347.934V111.12L231.76 27.6809L231.77 264.494Z" fill="white"/>
<path d="M246.196 2.68237L72.819 102.787L68.1825 100.096L241.569 0L246.196 2.68237Z" fill="#6ED0FF"/>
<path opacity="0.85" d="M246.196 2.68237L72.819 102.787L68.1825 100.096L241.569 0L246.196 2.68237Z" fill="white"/>
<path d="M72.819 356.239V102.787L68.1825 100.096V353.566L72.819 356.239Z" fill="#6ED0FF"/>
<path opacity="0.6" d="M68.1825 100.096V353.566L72.819 356.239V102.787" fill="white"/>
<path d="M321.014 338.554C318.618 339.937 315.908 339.909 312.967 338.794L311.013 322.995L321.153 320.653L321.014 338.554Z" fill="#B16668"/>
<path d="M291.729 331.955C289.794 336.471 286.973 334.996 282.687 332.268L282.355 316.699L293.416 315.943L291.729 331.955Z" fill="#B16668"/>
<path d="M303.777 353.164C303.553 354.056 303.607 354.996 303.934 355.856C304.266 356.345 306.017 357.838 309.327 357.976C312.488 358.105 315.29 357.598 317.106 356.372C317.891 355.93 318.554 355.3 319.036 354.539C319.519 353.779 319.806 352.911 319.872 352.012C320.001 350.169 319.743 348.482 320.563 347.071C321.383 345.661 322.333 344.491 322.591 343.79C322.906 342.526 322.944 341.208 322.702 339.928L303.777 353.164Z" fill="#263238"/>
<path d="M311.815 338.13C311.792 338.811 311.684 339.486 311.492 340.14C311.042 341.546 310.423 342.893 309.649 344.15C309.27 344.81 308.848 345.444 308.386 346.049C307.464 347.21 306.312 348.178 305.335 349.293C304.283 350.352 303.632 351.743 303.491 353.229C303.427 355.709 306.137 356.465 308.22 356.778C310.469 357.102 312.762 356.916 314.93 356.234C316.084 355.915 317.12 355.266 317.91 354.367C318.701 353.468 319.213 352.359 319.383 351.174C319.475 350.482 319.383 349.782 319.475 349.081C319.705 347.493 320.322 345.986 321.272 344.694C321.823 343.947 322.293 343.143 322.673 342.297C323.272 340.748 322.673 339.034 322.249 337.522C321.853 336.213 321.549 334.646 321.088 334.757C321.088 335.024 321.088 335.605 321.088 335.605C320.95 335.891 320.618 336.093 320.526 336.434C320.44 336.787 320.326 337.132 320.184 337.467C319.965 337.979 319.595 338.413 319.124 338.711L318.94 335.946C318.951 335.654 318.867 335.366 318.7 335.125C318.478 334.931 318.194 334.82 317.898 334.812C316.157 334.446 314.369 334.35 312.598 334.526C312.464 334.527 312.332 334.558 312.211 334.615C312.09 334.672 311.983 334.755 311.898 334.858C311.789 335.051 311.753 335.277 311.796 335.494C311.852 336.372 311.859 337.252 311.815 338.13V338.13Z" fill="#37474F"/>
<path d="M309.354 344.675C310.276 343.956 312.322 343.892 313.456 343.974C314.607 344.04 315.723 344.395 316.701 345.007C316.842 345.1 317.011 345.14 317.18 345.122C317.348 345.103 317.504 345.027 317.622 344.905V344.905C317.693 344.834 317.746 344.747 317.779 344.652C317.813 344.557 317.825 344.457 317.815 344.357C317.806 344.257 317.774 344.16 317.724 344.073C317.673 343.986 317.604 343.912 317.521 343.855C316.435 343.101 315.155 342.676 313.834 342.629C311.069 342.509 310.248 343.016 310.248 343.016C310.248 343.016 309.059 343.864 309.354 344.675Z" fill="#F5F5F5"/>
<path d="M307.317 347.274C308.45 346.555 310.727 346.592 311.861 346.675C312.99 346.758 314.077 347.136 315.013 347.772C315.156 347.862 315.325 347.9 315.492 347.882C315.659 347.863 315.815 347.789 315.935 347.671V347.671C316.005 347.599 316.059 347.512 316.092 347.418C316.126 347.323 316.138 347.222 316.128 347.122C316.119 347.022 316.087 346.925 316.036 346.838C315.985 346.752 315.916 346.677 315.834 346.62C314.739 345.835 313.445 345.372 312.101 345.283C309.335 345.173 308.607 345.763 308.607 345.763C308.292 345.901 308.012 346.109 307.789 346.371C307.565 346.633 307.404 346.942 307.317 347.274V347.274Z" fill="#F5F5F5"/>
<path d="M314.921 339.937C313.745 339.76 312.543 339.897 311.437 340.334C310.948 340.619 310.653 341.403 310.976 341.587C311.944 341.166 313.002 340.988 314.055 341.071C315.101 341.14 316.127 341.389 317.087 341.808C317.327 341.91 317.613 342.048 317.862 342.177C317.942 342.222 318.03 342.25 318.122 342.258C318.213 342.266 318.305 342.255 318.392 342.226C318.479 342.196 318.559 342.149 318.626 342.086C318.694 342.024 318.747 341.948 318.783 341.864V341.864C318.847 341.725 318.855 341.567 318.807 341.421C318.76 341.276 318.659 341.154 318.525 341.08C317.419 340.446 316.19 340.056 314.921 339.937V339.937Z" fill="#F5F5F5"/>
<path d="M265.689 342.324C265.476 343.054 265.545 343.837 265.883 344.518C266.205 345.154 269.634 346.951 274.179 346.509C277.525 346.168 280.72 344.94 283.433 342.951C285.129 341.753 286.927 341.485 289.167 341.292C291.407 341.098 293.121 340.37 293.582 339.292C293.809 338.34 293.751 337.343 293.416 336.425L265.689 342.324Z" fill="#263238"/>
<path d="M283.646 328.378C283.239 328.281 282.839 328.158 282.447 328.009C282.238 327.906 281.998 327.887 281.775 327.954C281.643 328.036 281.533 328.148 281.452 328.281C281.372 328.414 281.325 328.564 281.314 328.719C281.228 329.391 281.083 330.054 280.88 330.701C280.557 331.234 280.139 331.703 279.645 332.084C278.542 333.019 277.347 333.84 276.078 334.536C274.621 335.374 273.184 336.038 271.672 336.766C270.16 337.494 268.068 338.011 266.869 338.868C265.127 340.121 265.026 343.145 267.054 344.279C268.833 345.256 273.506 346.233 278.272 344.721C280.88 343.892 283.719 341.034 287.167 340.619C289.361 340.389 292.283 340.112 293.619 338.407C294.117 337.651 293.748 335.494 293.417 332.95C293.122 330.664 292.891 327.106 292.163 327.327C292.163 327.327 291.868 328.157 291.813 328.249C291.627 328.531 291.418 328.796 291.186 329.042C290.988 329.244 290.779 329.435 290.559 329.613C290.309 329.885 290.044 330.144 289.766 330.388C289.406 330.685 288.96 330.859 288.494 330.885C288.272 330.895 288.051 330.84 287.858 330.729C287.489 330.507 287.453 330.019 287.158 329.705C286.817 329.355 286.409 329.076 285.959 328.885C285.328 328.638 284.663 328.486 283.987 328.433C283.885 328.424 283.756 328.396 283.646 328.378Z" fill="#37474F"/>
<path d="M278.096 333.291C278.245 332.984 278.468 332.72 278.745 332.522C279.022 332.324 279.344 332.199 279.682 332.157C280.677 331.945 282.447 332.627 283.59 333.503C283.696 333.584 283.781 333.69 283.837 333.811C283.894 333.933 283.919 334.066 283.912 334.2C283.905 334.334 283.865 334.463 283.796 334.578C283.727 334.693 283.631 334.789 283.516 334.858C283.373 334.94 283.208 334.976 283.044 334.963C282.88 334.95 282.723 334.888 282.594 334.784C281.348 333.718 279.733 333.182 278.096 333.291V333.291Z" fill="#F5F5F5"/>
<path d="M275.045 335.134C275.254 334.819 275.536 334.56 275.866 334.377C276.197 334.194 276.567 334.093 276.944 334.083C278.485 334.108 279.978 334.617 281.212 335.54C281.313 335.619 281.394 335.721 281.447 335.838C281.501 335.955 281.525 336.083 281.519 336.211C281.513 336.339 281.476 336.464 281.411 336.575C281.346 336.686 281.256 336.78 281.148 336.849V336.849C281.006 336.935 280.84 336.974 280.675 336.96C280.509 336.947 280.352 336.882 280.226 336.775C279.541 336.13 278.72 335.647 277.823 335.363C276.926 335.079 275.977 335.001 275.045 335.134V335.134Z" fill="#F5F5F5"/>
<path d="M271.671 336.766C271.915 336.48 272.217 336.25 272.558 336.091C272.898 335.932 273.268 335.848 273.644 335.844C275.13 335.89 276.563 336.407 277.737 337.319C277.838 337.399 277.918 337.502 277.972 337.62C278.025 337.737 278.05 337.866 278.043 337.995C278.037 338.124 278 338.249 277.936 338.361C277.871 338.473 277.781 338.567 277.672 338.637C277.529 338.722 277.363 338.759 277.198 338.744C277.033 338.729 276.876 338.663 276.75 338.554C276.101 337.882 275.304 337.37 274.422 337.06C273.541 336.749 272.599 336.649 271.671 336.766Z" fill="#F5F5F5"/>
<path d="M247.926 194.914C246.175 193.301 244.331 189.439 242.903 191.559C241.981 192.988 243.935 193.955 243.825 195.762C243.714 197.569 238.211 193.283 235.916 191.679C234.386 190.609 230.855 193.955 232.275 197.578C233.528 200.795 235.538 202.832 239.142 204.353C242.949 205.966 244.94 206.768 249.715 208.916C251.853 205.883 253.346 202.887 252.821 199.975C249.069 197.79 249.438 196.306 247.926 194.914Z" fill="#6ED0FF"/>
<path opacity="0.7" d="M247.926 194.914C246.175 193.301 244.331 189.439 242.903 191.559C241.981 192.988 243.935 193.955 243.825 195.762C243.714 197.569 238.211 193.283 235.916 191.679C234.386 190.609 230.855 193.955 232.275 197.578C233.528 200.795 235.538 202.832 239.142 204.353C242.949 205.966 244.94 206.768 249.715 208.916C251.853 205.883 253.346 202.887 252.821 199.975C249.069 197.79 249.438 196.306 247.926 194.914Z" fill="#FFA8A7"/>
<path opacity="0.1" d="M243.456 197.67C243.456 199.292 243.899 201.873 246.222 203.201C245.64 203.122 245.085 202.905 244.604 202.568C244.123 202.231 243.73 201.785 243.456 201.265C243.157 200.713 243 200.095 243 199.468C243 198.84 243.157 198.222 243.456 197.67V197.67Z" fill="black"/>
<path d="M293.158 176.801C291.084 179.566 291.941 178.433 291.315 182.654C290.798 186.056 283.655 218.788 277.184 220.143C274.345 220.742 253.863 211.368 248.895 208.63C250.77 206.037 252.106 203.094 252.821 199.975C258.776 202.307 269.035 204.583 272.722 205.745C274.428 200.988 276.511 196.103 278.465 191.301C282.171 182.166 284.282 175.667 293.158 176.801Z" fill="#7AD4FF"/>
<path d="M319.964 232.172C319.964 239.436 320.461 281.672 320.461 281.672C320.646 283.764 322.655 287.479 322.812 295.01C323.042 305.923 322.609 338.01 322.609 338.01C322.609 338.01 315.788 340.508 311.013 338.517C311.013 338.517 305.934 297.139 304.561 286.336C303.372 276.906 300.947 255.373 300.947 255.373L297.583 283.948C298.078 288.506 298.208 293.095 297.97 297.674C297.62 302.679 293.287 330.673 293.287 330.673C293.287 330.673 286.07 332.185 280.871 330.433C280.871 330.433 281.148 285.377 281.065 280.787C280.963 275.56 283.24 230.587 283.24 230.587L319.964 232.172Z" fill="#6ED0FF"/>
<path opacity="0.4" d="M319.964 232.172C319.964 239.436 320.461 281.672 320.461 281.672C320.646 283.764 322.655 287.479 322.812 295.01C323.042 305.923 322.609 338.01 322.609 338.01C322.609 338.01 315.788 340.508 311.013 338.517C311.013 338.517 305.934 297.139 304.561 286.336C303.372 276.906 300.947 255.373 300.947 255.373L297.583 283.948C298.078 288.506 298.208 293.095 297.97 297.674C297.62 302.679 293.287 330.673 293.287 330.673C293.287 330.673 286.07 332.185 280.871 330.433C280.871 330.433 281.148 285.377 281.065 280.787C280.963 275.56 283.24 230.587 283.24 230.587L319.964 232.172Z" fill="black"/>
<path opacity="0.15" d="M300.947 255.373L300.348 250.921C298.2 250.553 292.817 247.004 289.646 243.943C291.869 247.484 294.918 250.433 298.532 252.534L298.081 280.824L300.947 255.373Z" fill="black"/>
<path d="M306.856 176.672C308.469 177.059 312.387 177.539 315.226 178.359C317.327 178.958 318.212 181.53 318.655 183.466C320.056 189.66 320.305 202.648 320.305 202.648L320.388 232.901C315.143 236.717 293.656 238.652 282.595 230.605C282.595 230.605 283.941 194.573 283.941 188.969C283.941 183.364 287.056 176.626 295.656 176.119L306.856 176.672Z" fill="#DDF3FE"/>
<path opacity="0.15" d="M289.094 235.066C289.537 236.209 290.276 237.214 291.234 237.979C292.193 238.743 293.337 239.239 294.55 239.417C297.281 239.653 300.024 239.143 302.487 237.942L301.187 235.066H289.094Z" fill="black"/>
<path d="M320.351 259.069L319.726 275.277C319.695 276.064 320.235 276.537 320.897 276.962L322.565 278.014C322.75 278.159 322.964 278.261 323.192 278.316C323.42 278.37 323.657 278.375 323.888 278.329C324.209 278.256 324.518 278.142 324.809 277.988L324.848 277.97L324.94 277.921L342.752 268.537C343.391 268.2 343.93 267.701 344.315 267.09C344.7 266.478 344.918 265.776 344.945 265.055L345.515 250.292C345.511 250.108 345.464 249.928 345.378 249.765C345.292 249.603 345.169 249.463 345.019 249.357L342.185 247.566C342.025 247.476 341.846 247.425 341.663 247.418C341.479 247.411 341.297 247.448 341.131 247.525L320.917 258.185C320.756 258.277 320.621 258.406 320.522 258.562C320.424 258.718 320.365 258.896 320.35 259.08L320.351 259.069Z" fill="#37474F"/>
<path d="M320.351 259.069L319.726 275.277C319.695 276.064 320.235 276.537 320.897 276.962L322.565 278.014C322.75 278.159 322.964 278.261 323.192 278.316C323.42 278.37 323.657 278.375 323.887 278.329C324.208 278.257 324.518 278.142 324.809 277.988V277.988C324.119 278.278 323.598 277.903 323.629 277.102L324.219 261.827C324.238 261.548 324.329 261.279 324.482 261.045L320.525 258.548C320.425 258.704 320.365 258.883 320.351 259.069V259.069Z" fill="#263238"/>
<path d="M324.219 261.827C324.244 261.55 324.335 261.283 324.483 261.048C324.631 260.812 324.832 260.615 325.07 260.472L344.164 250.41C344.933 250.013 345.511 250.386 345.478 251.237L344.945 265.054C344.918 265.777 344.701 266.479 344.316 267.091C343.931 267.703 343.392 268.203 342.752 268.54L324.94 277.928C324.171 278.325 323.597 277.952 323.63 277.101L324.219 261.827Z" fill="#455A64"/>
<path d="M343.098 248.148L322.853 258.927C322.569 259.082 322.33 259.307 322.158 259.581C321.986 259.855 321.888 260.169 321.873 260.492L321.229 277.175L321.524 277.359L322.174 260.496C322.184 260.227 322.263 259.964 322.404 259.735C322.545 259.505 322.743 259.316 322.979 259.185L343.382 248.325L343.098 248.148Z" fill="#6ED0FF"/>
<path opacity="0.4" d="M322.156 259.579C321.984 259.854 321.886 260.168 321.872 260.492L321.229 277.175L321.523 277.359L322.174 260.496C322.188 260.232 322.269 259.976 322.41 259.751L322.156 259.579Z" fill="black"/>
<path opacity="0.3" d="M322.41 259.751C322.555 259.522 322.757 259.333 322.996 259.205L343.399 248.344L343.105 248.16L322.86 258.939C322.575 259.093 322.336 259.318 322.163 259.591" fill="black"/>
<path d="M334.588 249.019L334.49 251.545L335.451 252.151L335.58 248.819C335.586 248.646 335.468 248.574 335.318 248.651L334.588 249.019Z" fill="#6ED0FF"/>
<path opacity="0.4" d="M334.588 249.019L334.49 251.545L335.451 252.151L335.58 248.819C335.586 248.646 335.468 248.574 335.318 248.651L334.588 249.019Z" fill="black"/>
<path d="M327.606 251.231L327.449 255.297L328.366 255.875L329.009 255.523L329.138 252.187C329.147 252.094 329.178 252.005 329.228 251.926C329.279 251.848 329.347 251.782 329.427 251.734L334.315 249.159L335.331 248.621C335.481 248.544 335.598 248.632 335.592 248.79L335.464 252.122L336.111 251.77L336.266 247.73C336.266 247.73 336.268 247.696 336.268 247.677C336.259 247.593 336.231 247.511 336.188 247.438C336.145 247.365 336.086 247.302 336.017 247.253L335.627 247.008C335.545 246.962 335.454 246.936 335.36 246.932C335.267 246.929 335.173 246.947 335.088 246.987L327.895 250.778C327.815 250.826 327.747 250.891 327.697 250.97C327.647 251.049 327.616 251.138 327.606 251.231V251.231Z" fill="#6ED0FF"/>
<path opacity="0.15" d="M327.606 251.231L327.449 255.297L328.366 255.875L329.009 255.523L329.138 252.187C329.147 252.094 329.178 252.005 329.228 251.926C329.279 251.848 329.347 251.782 329.427 251.734L334.315 249.159L335.331 248.621C335.481 248.544 335.598 248.632 335.592 248.79L335.464 252.122L336.111 251.77L336.266 247.73C336.266 247.73 336.268 247.696 336.268 247.677C336.259 247.593 336.231 247.511 336.188 247.438C336.145 247.365 336.086 247.302 336.017 247.253L335.627 247.008C335.545 246.962 335.454 246.936 335.36 246.932C335.267 246.929 335.173 246.947 335.088 246.987L327.895 250.778C327.815 250.826 327.747 250.891 327.697 250.97C327.647 251.049 327.616 251.138 327.606 251.231V251.231Z" fill="black"/>
<path opacity="0.15" d="M328.523 251.813L328.366 255.875L329.009 255.523L329.138 252.187C329.147 252.094 329.178 252.005 329.228 251.926C329.279 251.848 329.347 251.782 329.427 251.735L334.315 249.159L335.331 248.622C335.481 248.544 335.598 248.632 335.592 248.79L335.464 252.122L336.111 251.77L336.266 247.73C336.266 247.73 336.268 247.696 336.268 247.677C336.247 247.545 336.14 247.495 336.005 247.565L328.812 251.356C328.731 251.404 328.663 251.471 328.613 251.55C328.563 251.629 328.532 251.719 328.523 251.813V251.813Z" fill="black"/>
<path d="M327.152 237.672C327.458 238.567 327.707 239.366 327.89 240C328.104 240.774 327.31 241.686 326.963 242.417C326.023 244.363 326.025 245.754 325.631 247.707C325.321 249.265 324.693 249.973 325.004 250.199C325.391 250.426 325.849 250.498 326.287 250.4C326.724 250.302 327.108 250.042 327.361 249.672C327.951 248.875 328.443 248.011 328.827 247.097C329.175 248.838 329.366 250.349 327.976 251.562C327.484 255.593 330.084 252.019 334.738 251.649C337.499 249.94 337.757 250.604 336.013 243.239C335.665 241.794 334.835 238.788 334.118 235.983C332.903 235.774 331.658 235.816 330.46 236.106C329.262 236.397 328.136 236.93 327.152 237.672Z" fill="#FFA8A7"/>
<path d="M327.969 186.771C324.388 177.981 320.796 177.603 315.445 177.758C311.019 188.007 318.827 195.471 318.827 195.471L325.489 209.977C324.805 210.925 332.444 233.765 327.701 237.579C329.301 238.62 328.202 234.852 328.424 236.882C329.644 236.041 332.614 236.621 333.559 235.993C335.256 228.623 337.304 215.928 337.05 211.995C336.796 208.062 331.69 196.036 327.969 186.771Z" fill="#7AD4FF"/>
<path d="M297.112 158.937C297.123 159.17 297.202 159.394 297.339 159.582C297.476 159.77 297.665 159.914 297.884 159.995C298.102 160.077 298.339 160.093 298.566 160.041C298.792 159.989 298.999 159.872 299.16 159.703C299.321 159.535 299.429 159.323 299.47 159.094C299.512 158.865 299.485 158.629 299.394 158.415C299.302 158.201 299.15 158.018 298.956 157.89C298.762 157.761 298.534 157.693 298.302 157.693C297.98 157.702 297.674 157.838 297.452 158.071C297.229 158.304 297.107 158.615 297.112 158.937V158.937Z" fill="#263238"/>
<path d="M298.302 154.909L300.763 156.31C300.942 155.974 300.982 155.582 300.875 155.216C300.769 154.851 300.523 154.542 300.191 154.356C300.032 154.265 299.855 154.208 299.673 154.187C299.491 154.166 299.306 154.182 299.13 154.233C298.954 154.285 298.79 154.371 298.647 154.487C298.505 154.603 298.388 154.747 298.302 154.909Z" fill="#263238"/>
<path d="M297.417 166.201L294.652 167.233C294.71 167.416 294.804 167.586 294.929 167.732C295.054 167.878 295.207 167.997 295.379 168.083C295.551 168.169 295.738 168.22 295.93 168.232C296.121 168.244 296.314 168.218 296.495 168.155C296.875 168.015 297.184 167.732 297.356 167.367C297.529 167.001 297.551 166.582 297.417 166.201V166.201Z" fill="#F28F8F"/>
<path d="M287.619 155.895L289.858 154.172C289.754 154.02 289.62 153.891 289.464 153.793C289.308 153.695 289.134 153.629 288.951 153.601C288.769 153.572 288.583 153.581 288.405 153.627C288.227 153.673 288.059 153.755 287.914 153.867C287.611 154.101 287.411 154.443 287.356 154.822C287.301 155.2 287.395 155.585 287.619 155.895Z" fill="#263238"/>
<path d="M288.125 158.937C288.134 159.163 288.21 159.381 288.342 159.565C288.474 159.748 288.658 159.889 288.87 159.969C289.081 160.049 289.312 160.064 289.532 160.014C289.753 159.964 289.954 159.85 290.11 159.686C290.266 159.522 290.371 159.316 290.411 159.093C290.45 158.871 290.424 158.641 290.334 158.433C290.244 158.226 290.095 158.049 289.906 157.926C289.716 157.802 289.494 157.737 289.268 157.739C289.114 157.742 288.963 157.776 288.822 157.838C288.682 157.9 288.554 157.99 288.448 158.101C288.342 158.212 288.259 158.343 288.204 158.487C288.148 158.63 288.121 158.783 288.125 158.937Z" fill="#263238"/>
<path d="M294.366 156.946L293.969 164.182L290.181 162.891L294.366 156.946Z" fill="#F28F8F"/>
<path d="M309.612 147.092C309.612 147.092 312.258 147.461 313.226 149.452C314.064 151.185 313.76 155.37 312.636 159.933C311.995 162.882 311.043 165.756 309.797 168.505C309.356 169.282 308.633 169.86 307.778 170.118L307.907 164.707L308.1 160.937C308.1 160.937 305.685 157.628 305.418 154.918C305.077 151.434 305.805 150.005 305.805 150.005L309.612 147.092Z" fill="#263238"/>
<path d="M305.335 152.319C305.318 154.997 304.242 157.559 302.342 159.447C300.443 161.334 297.873 162.394 295.195 162.394C292.655 162.183 290.287 161.022 288.563 159.144C286.84 157.265 285.887 154.806 285.896 152.257C285.904 149.707 286.872 147.255 288.607 145.387C290.343 143.519 292.718 142.374 295.26 142.179C297.938 142.196 300.5 143.272 302.388 145.172C304.275 147.071 305.335 149.641 305.335 152.319Z" fill="#263238"/>
<path d="M307.962 160.329C308.884 161.113 309.612 159.075 310.377 158.273C311.142 157.472 313.631 156.43 314.866 159.02C316.101 161.61 313.779 165.473 311.861 166.182C311.285 166.403 310.653 166.425 310.063 166.244C309.474 166.064 308.961 165.692 308.607 165.187V177.17C305.731 182.35 300.652 182.194 297.942 181.899C295.232 181.604 294.633 178.792 296.615 176.515V172.828C295.109 173.062 293.583 173.134 292.061 173.04C289.573 172.653 288.273 170.782 287.536 168.09C286.337 163.767 285.858 156.494 287.536 148.106C290.301 145.949 299.961 146.263 305.796 150.005C305.381 157.444 307.05 159.536 307.962 160.329Z" fill="#FFA8A7"/>
<path d="M288.586 144.428C289.723 143.195 291.108 142.218 292.651 141.562C293.899 141.027 295.239 140.742 296.597 140.723C298.357 140.723 300.118 140.465 301.878 140.52C304.939 140.612 308.626 141.857 310.008 144.834C310.644 146.198 310.746 147.599 309.501 148.521C308.385 149.275 307.106 149.752 305.768 149.913C303.51 150.309 301.261 150.835 298.975 151.111C296.531 151.527 294.032 151.493 291.601 151.01C290.463 150.744 289.381 150.283 288.402 149.646C287.907 149.305 287.444 148.919 287.019 148.493C286.863 148.327 286.429 147.986 286.374 147.756C286.319 147.525 286.623 147.083 286.734 146.834C287.238 145.951 287.861 145.141 288.586 144.428V144.428Z" fill="#263238"/>
<path d="M296.642 172.819C296.642 172.819 302.173 171.713 304.127 170.69C305.272 170.106 306.211 169.186 306.819 168.053C306.522 169.184 306.002 170.243 305.289 171.169C303.86 173.013 296.633 174.294 296.633 174.294L296.642 172.819Z" fill="#F28F8F"/>
<path d="M297.647 158.485C297.642 158.634 297.667 158.782 297.72 158.921C297.773 159.06 297.854 159.187 297.957 159.295C298.06 159.402 298.184 159.488 298.32 159.546C298.457 159.605 298.604 159.636 298.753 159.637C299.053 159.63 299.338 159.505 299.547 159.29C299.755 159.074 299.871 158.785 299.868 158.485C299.882 158.331 299.864 158.175 299.815 158.028C299.765 157.881 299.686 157.746 299.581 157.632C299.477 157.517 299.35 157.426 299.208 157.363C299.066 157.301 298.913 157.269 298.758 157.269C298.603 157.269 298.449 157.301 298.308 157.363C298.166 157.426 298.038 157.517 297.934 157.632C297.829 157.746 297.75 157.881 297.701 158.028C297.651 158.175 297.633 158.331 297.647 158.485V158.485Z" fill="#263238"/>
<path d="M298.753 154.614L301.223 155.729C301.366 155.391 301.373 155.01 301.242 154.667C301.112 154.324 300.854 154.044 300.523 153.886C300.359 153.812 300.183 153.773 300.004 153.77C299.825 153.767 299.647 153.801 299.481 153.869C299.316 153.937 299.166 154.038 299.041 154.167C298.915 154.295 298.817 154.447 298.753 154.614V154.614Z" fill="#263238"/>
<path d="M297.536 166.053L293.988 167.371C294.061 167.612 294.183 167.835 294.346 168.026C294.508 168.218 294.708 168.374 294.934 168.485C295.159 168.597 295.405 168.661 295.656 168.674C295.907 168.687 296.158 168.648 296.393 168.56C296.869 168.369 297.253 168.002 297.465 167.535C297.678 167.068 297.704 166.538 297.536 166.053V166.053Z" fill="#B16668"/>
<path d="M296.393 168.56C296.077 168.671 295.737 168.697 295.407 168.634C295.424 168.191 295.612 167.771 295.931 167.463C296.251 167.156 296.678 166.984 297.122 166.984C297.284 166.985 297.446 167.01 297.601 167.058C297.549 167.392 297.41 167.707 297.198 167.971C296.987 168.235 296.709 168.438 296.393 168.56V168.56Z" fill="#F28F8F"/>
<path d="M288.355 155.278L290.927 154.356C290.874 154.185 290.787 154.027 290.671 153.891C290.555 153.755 290.412 153.644 290.251 153.566C290.091 153.487 289.916 153.442 289.737 153.434C289.558 153.425 289.38 153.454 289.213 153.517C288.875 153.65 288.6 153.904 288.441 154.23C288.282 154.557 288.252 154.93 288.355 155.278V155.278Z" fill="#263238"/>
<path d="M288.494 158.153C288.48 158.308 288.498 158.463 288.548 158.61C288.597 158.757 288.677 158.892 288.781 159.007C288.886 159.121 289.013 159.213 289.155 159.275C289.297 159.338 289.45 159.37 289.605 159.37C289.76 159.37 289.913 159.338 290.055 159.275C290.197 159.213 290.324 159.121 290.429 159.007C290.533 158.892 290.613 158.757 290.662 158.61C290.711 158.463 290.73 158.308 290.716 158.153C290.721 158.005 290.696 157.856 290.642 157.717C290.589 157.578 290.509 157.451 290.405 157.344C290.302 157.237 290.179 157.151 290.042 157.092C289.905 157.033 289.758 157.002 289.609 157.001C289.31 157.008 289.025 157.133 288.816 157.349C288.607 157.564 288.492 157.853 288.494 158.153V158.153Z" fill="#263238"/>
<path d="M294.771 155.278L294.366 164.182L289.858 162.993L294.771 155.278Z" fill="#F28F8F"/>
<path d="M299.703 147.839C297.795 147.194 292.918 146.816 291.49 147.267C290.83 146.724 290.252 146.087 289.775 145.378C289.111 144.318 289.333 142.981 289.959 142.714C290.586 142.446 290.632 143.258 293.057 144.465C292.737 143.688 292.666 142.832 292.854 142.013C293.25 141.027 294.089 142.797 295.886 143.93C297.684 145.064 299.472 145.654 299.703 147.839Z" fill="#263238"/>
<path d="M299.565 118.517L302.477 113.042L300.136 106.276V102.137L307.307 106.276V110.415L304.229 115.752C304.179 115.834 304.105 115.899 304.017 115.936V115.936L299.565 118.517Z" fill="#6ED0FF"/>
<path opacity="0.2" d="M299.565 118.517L302.477 113.042L300.136 106.276V102.137L307.307 106.276V110.415L304.229 115.752C304.179 115.834 304.105 115.899 304.017 115.936V115.936L299.565 118.517Z" fill="black"/>
<path d="M286.697 71.7467C286.744 71.0065 286.963 70.2876 287.338 69.6474C287.712 69.0072 288.232 68.4634 288.854 68.0596L290.596 67.0549C291.262 66.7142 292 66.5366 292.748 66.5366C293.496 66.5366 294.234 66.7142 294.9 67.0549L316.71 79.5818C317.331 79.9856 317.849 80.5295 318.222 81.1699C318.595 81.8102 318.813 82.5292 318.857 83.2689V112.766C318.812 113.505 318.594 114.224 318.221 114.864C317.848 115.504 317.331 116.049 316.71 116.453L314.958 117.467C314.291 117.803 313.554 117.978 312.806 117.978C312.058 117.978 311.321 117.803 310.654 117.467L302.791 113.051L299.712 118.379C299.67 118.458 299.605 118.522 299.526 118.564C299.448 118.606 299.358 118.623 299.27 118.614C299.181 118.605 299.097 118.571 299.028 118.514C298.959 118.457 298.909 118.382 298.883 118.296L295.629 108.913L288.826 105.004C288.206 104.599 287.689 104.055 287.316 103.415C286.944 102.775 286.725 102.056 286.678 101.317L286.697 71.7467Z" fill="#6ED0FF"/>
<path opacity="0.2" d="M318.857 112.839C318.813 113.578 318.595 114.297 318.222 114.938C317.849 115.578 317.331 116.122 316.71 116.526L314.958 117.54C314.351 117.845 313.687 118.017 313.008 118.046C312.33 118.074 311.653 117.958 311.022 117.706C312.036 118.093 312.811 117.521 312.811 116.295V86.7984C312.787 86.0484 312.567 85.3177 312.175 84.6783L318.231 81.1848C318.617 81.8266 318.832 82.5564 318.857 83.3049V112.839Z" fill="black"/>
<path opacity="0.5" d="M286.771 71.1376C287.02 70.2158 287.85 69.9301 288.845 70.5016L310.664 83.0746C311.3 83.4666 311.822 84.02 312.175 84.6785L318.222 81.185C317.866 80.5285 317.345 79.9758 316.711 79.5811L294.901 67.0173C294.235 66.681 293.5 66.5059 292.754 66.5059C292.007 66.5059 291.272 66.681 290.606 67.0173L288.845 68.0312C288.307 68.381 287.845 68.8369 287.489 69.371C287.132 69.905 286.888 70.5061 286.771 71.1376V71.1376Z" fill="white"/>
<path d="M296.707 103.861H296.44C296.118 103.816 295.813 103.692 295.552 103.499C295.291 103.305 295.083 103.049 294.947 102.755L291.075 94.5323C290.95 94.2999 290.873 94.0442 290.849 93.7809C290.825 93.5177 290.856 93.2524 290.938 93.0013C291.021 92.7502 291.153 92.5185 291.328 92.3203C291.503 92.1222 291.716 91.9618 291.955 91.8489C292.194 91.736 292.454 91.673 292.718 91.6637C292.982 91.6544 293.245 91.6991 293.492 91.7949C293.738 91.8908 293.962 92.0358 294.15 92.2212C294.339 92.4066 294.487 92.6284 294.587 92.8731L297.187 98.4038L306.109 88.0154C306.274 87.8164 306.477 87.6522 306.706 87.5325C306.935 87.4127 307.186 87.3398 307.443 87.318C307.701 87.2962 307.96 87.3258 308.206 87.4053C308.452 87.4848 308.679 87.6125 308.875 87.7809C309.071 87.9493 309.231 88.1551 309.347 88.3862C309.463 88.6173 309.531 88.8691 309.548 89.127C309.565 89.3848 309.531 89.6434 309.447 89.8878C309.363 90.1322 309.231 90.3574 309.059 90.5503L298.182 103.188C298 103.401 297.774 103.572 297.519 103.688C297.265 103.804 296.987 103.863 296.707 103.861V103.861Z" fill="#FAFAFA"/>
<path d="M260.89 205.31L227.937 188.18L200.819 228.65L233.474 248.096L260.89 205.31Z" fill="#455A64"/>
<path d="M256.064 206.294L228.959 191.117C228.959 191.117 208.193 225.817 198.762 224.355L230.55 242.675C230.55 242.675 246.839 227.24 256.064 206.294Z" fill="#F5F5F5"/>
<path d="M241.715 205.44C242.933 206.25 244.199 206.984 245.506 207.639C246.76 208.371 248.056 209.028 249.388 209.606C248.174 208.796 246.913 208.062 245.61 207.406C244.354 206.67 243.053 206.013 241.715 205.44V205.44Z" fill="#263238"/>
<path d="M249.297 197.379L245.675 202.27L235.751 196.603L238.753 191.156L249.297 197.379Z" fill="#E0E0E0"/>
<path d="M226.811 203.835C227.039 204.011 227.281 204.167 227.536 204.301L229.593 205.479L236.411 209.282L243.268 213.008L245.364 214.121C245.614 214.269 245.878 214.391 246.153 214.483C245.918 214.316 245.672 214.165 245.416 214.031L243.359 212.84L236.54 209.049L229.683 205.31L227.587 204.211C227.338 204.068 227.078 203.942 226.811 203.835Z" fill="#263238"/>
<path d="M225.841 205.09C226.075 205.263 226.321 205.419 226.578 205.556L228.622 206.733L235.441 210.537L242.298 214.263L244.394 215.363C244.643 215.515 244.908 215.641 245.183 215.738C244.949 215.565 244.702 215.409 244.445 215.272L242.401 214.095L235.57 210.291L228.713 206.565L226.63 205.466C226.377 205.321 226.113 205.195 225.841 205.09V205.09Z" fill="#263238"/>
<path d="M224.793 206.708C225.024 206.885 225.271 207.04 225.53 207.173L227.574 208.351L234.393 212.154L241.25 215.88L243.346 216.993C243.602 217.131 243.866 217.257 244.135 217.368C243.905 217.19 243.658 217.034 243.397 216.903L241.353 215.725L234.522 211.921L227.665 208.182L225.569 207.083C225.319 206.94 225.06 206.814 224.793 206.708V206.708Z" fill="#263238"/>
<path d="M223.835 208.364C224.072 208.533 224.318 208.688 224.573 208.829L226.63 210.007L233.448 213.81L240.305 217.536L242.401 218.649C242.649 218.793 242.908 218.914 243.177 219.011C242.951 218.838 242.708 218.686 242.453 218.559L240.396 217.368L233.577 213.578L226.72 209.838L224.624 208.739C224.371 208.594 224.107 208.468 223.835 208.364V208.364Z" fill="#263238"/>
<path d="M222.567 210.149C222.8 210.324 223.047 210.48 223.305 210.615L225.362 211.792L232.18 215.596L239.037 219.335L241.133 220.435C241.385 220.583 241.649 220.708 241.922 220.81C241.689 220.635 241.443 220.479 241.185 220.344L239.128 219.167L232.309 215.363L225.452 211.624L223.356 210.524C223.105 210.376 222.841 210.251 222.567 210.149Z" fill="#263238"/>
<path d="M221.222 211.779C221.452 211.958 221.699 212.114 221.959 212.245L224.016 213.422L230.834 217.226C233.422 218.623 235.712 219.891 237.692 220.952L239.775 222.065C240.029 222.207 240.293 222.332 240.564 222.44C240.34 222.259 240.097 222.103 239.839 221.974L237.782 220.797L230.964 216.993L224.107 213.254L222.011 212.154C221.758 212.009 221.494 211.884 221.222 211.779V211.779Z" fill="#263238"/>
<path d="M230.214 222.983C231.074 223.681 232.006 224.284 232.995 224.782C233.94 225.348 234.948 225.804 235.997 226.14C235.997 226.076 234.703 225.416 233.125 224.536C232.183 223.967 231.211 223.449 230.214 222.983V222.983Z" fill="#263238"/>
<path d="M224.184 225.015L224.585 225.338L225.737 226.218L230.032 229.426L233.021 231.626C233.163 231.754 233.341 231.835 233.531 231.858C233.721 231.881 233.913 231.845 234.082 231.755C234.176 231.698 234.25 231.611 234.292 231.509C234.334 231.407 234.342 231.293 234.315 231.186C234.258 231 234.156 230.831 234.017 230.694C233.5 230.177 232.969 229.685 232.413 229.194C231.248 228.138 230.021 227.153 228.738 226.244C228.367 225.965 227.908 225.827 227.445 225.856C227.217 225.893 227.003 225.991 226.825 226.138C226.648 226.286 226.513 226.479 226.436 226.697C226.27 227.107 226.191 227.548 226.203 227.99C226.196 228.453 226.336 228.906 226.604 229.284C226.825 229.527 227.123 229.686 227.448 229.736C227.773 229.785 228.105 229.722 228.389 229.556C228.928 229.248 229.375 228.801 229.683 228.262C230.292 227.289 230.611 226.162 230.602 225.015V224.626L230.369 224.937C229.556 226.028 228.987 227.281 228.7 228.611C228.523 229.229 228.475 229.876 228.557 230.513C228.594 230.677 228.668 230.83 228.773 230.96C228.879 231.09 229.013 231.194 229.165 231.264C229.322 231.316 229.488 231.329 229.65 231.302C229.813 231.275 229.966 231.208 230.097 231.108C230.843 230.44 231.439 229.623 231.847 228.709C232.255 227.795 232.465 226.805 232.465 225.804V225.61L232.335 225.739C231.528 226.574 231.066 227.683 231.041 228.844C231.025 229.252 231.082 229.66 231.21 230.047C231.142 229.65 231.112 229.247 231.119 228.844C231.171 227.723 231.631 226.66 232.413 225.856H232.283C232.278 226.833 232.068 227.798 231.667 228.69C231.266 229.581 230.683 230.379 229.955 231.031C229.852 231.107 229.733 231.158 229.608 231.18C229.482 231.203 229.353 231.196 229.23 231.16C229.111 231.103 229.007 231.019 228.924 230.916C228.841 230.813 228.782 230.693 228.751 230.565C228.667 229.963 228.711 229.35 228.881 228.767C229.157 227.471 229.713 226.253 230.511 225.196L230.278 225.118C230.275 226.214 229.971 227.288 229.398 228.223C229.123 228.712 228.726 229.122 228.247 229.413C228.017 229.551 227.747 229.604 227.483 229.564C227.218 229.524 226.976 229.393 226.798 229.194C226.6 228.846 226.485 228.457 226.462 228.057C226.44 227.658 226.51 227.258 226.668 226.891C226.727 226.714 226.833 226.557 226.974 226.436C227.115 226.315 227.287 226.235 227.471 226.205C227.853 226.19 228.228 226.309 228.531 226.541C229.803 227.441 231.021 228.413 232.18 229.452C232.736 229.944 233.28 230.436 233.784 230.927C234.03 231.16 234.147 231.497 233.888 231.652C233.754 231.712 233.606 231.732 233.461 231.709C233.316 231.686 233.181 231.621 233.073 231.522L230.084 229.349L225.737 226.218L224.547 225.377C224.34 225.105 224.184 225.015 224.184 225.015Z" fill="#263238"/>
<path d="M217.534 215.376C218.833 216.432 220.243 217.343 221.739 218.093C221.118 217.529 220.437 217.034 219.708 216.618C219.032 216.124 218.303 215.707 217.534 215.376V215.376Z" fill="#263238"/>
<path d="M218.591 221.265L220.695 222.666L219.425 224.575L217.321 223.174L218.591 221.265L218.591 221.265ZM218.011 223.07L219.254 223.898L220.005 222.77L218.762 221.942L218.011 223.07L218.011 223.07Z" fill="#676767"/>
<path d="M219.354 222.868L218.923 222.581L218.663 222.972L219.094 223.258L219.354 222.868Z" fill="#676767"/>
<path d="M217.299 227.769L215.195 226.368L216.465 224.459L218.569 225.86L217.299 227.769ZM217.879 225.964L216.636 225.136L215.885 226.264L217.128 227.092L217.879 225.964Z" fill="#676767"/>
<path d="M212.816 222.312L213.246 222.598L212.366 223.922L212.787 224.202L212.98 223.912L213.411 224.198L213.217 224.488L213.743 224.838L213.483 225.229L211.675 224.026L212.816 222.312Z" fill="#676767"/>
<path d="M217.228 226.062L216.797 225.776L216.537 226.166L216.968 226.453L217.228 226.062Z" fill="#676767"/>
<path d="M215.072 218.923L217.176 220.323L215.905 222.232L213.801 220.832L215.072 218.923ZM214.491 220.728L215.735 221.555L216.485 220.427L215.242 219.6L214.491 220.728Z" fill="#676767"/>
<path d="M215.833 220.525L215.402 220.239L215.142 220.63L215.573 220.916L215.833 220.525Z" fill="#676767"/>
<path d="M218.266 224.449L217.023 223.622L216.763 224.012L218.006 224.84L218.266 224.449Z" fill="#676767"/>
<path d="M219.127 225.022L218.697 224.736L218.437 225.126L218.867 225.412L219.127 225.022Z" fill="#676767"/>
<path d="M216.593 223.335L214.991 222.269L214.731 222.66L216.333 223.726L216.593 223.335Z" fill="#676767"/>
<path d="M213.076 221.921L213.503 221.279L214.561 221.983L214.301 222.373L213.674 221.956L213.506 222.208L213.076 221.921Z" fill="#676767"/>
<path d="M217.579 221.719L217.148 221.432L216.398 222.56L216.828 222.846L217.579 221.719Z" fill="#676767"/>
<path d="M218.098 220.938L217.668 220.651L217.408 221.042L217.838 221.328L218.098 220.938Z" fill="#676767"/>
<path d="M214.792 224.972L214.472 224.759L214.731 224.369L215.052 224.582L215.542 223.844L215.973 224.131L214.702 226.04L213.913 225.515L214.173 225.124L214.532 225.363L214.792 224.972Z" fill="#676767"/>
<path d="M214.205 223.937L213.775 223.651L213.968 223.36L213.619 223.128L213.879 222.737L215.007 223.489L214.748 223.879L214.398 223.647L214.205 223.937Z" fill="#676767"/>
<path d="M216.237 218.572L215.977 218.962L214.901 218.246L214.251 219.222L213.82 218.936L214.73 217.569L216.237 218.572Z" fill="#676767"/>
<path d="M221.386 222.562L220.309 221.845L220.569 221.455L222.076 222.458L221.166 223.824L220.736 223.538L221.386 222.562Z" fill="#676767"/>
<path d="M210.985 224.13L212.061 224.846L211.801 225.237L210.294 224.234L211.204 222.867L211.634 223.153L210.985 224.13Z" fill="#676767"/>
<path d="M218.119 227.469L218.549 227.756L217.64 229.123L216.133 228.12L216.393 227.729L217.469 228.446L218.119 227.469Z" fill="#676767"/>
<path d="M295.174 216.019L299.583 187.699C299.903 188.047 301.052 187.844 301.587 187.699L303.591 216.019L300.448 222.852C300.099 223.612 299.025 223.632 298.648 222.885L295.174 216.019Z" fill="#7AD4FF"/>
<path d="M302.128 216.019L300.445 187.699C300.765 188.047 300.852 187.844 301.386 187.699L303.39 216.019L299.803 223.471L302.128 216.019Z" fill="#6ACCFB"/>
<path d="M311.166 176.659C310.493 175.312 309.202 176.097 308.641 176.659C305.948 180.699 303.03 181.428 301.907 181.288L311.587 188.863C311.727 185.356 311.84 178.005 311.166 176.659Z" fill="#7AD4FF"/>
<path d="M295.174 175.495C296.577 174.947 296.397 175.544 296.437 176.336C294.332 180.966 298.035 181.579 298.962 182.228L288.019 186.016C290.267 183.32 293.771 176.042 295.174 175.495Z" fill="#7AD4FF"/>
<path d="M297.699 184.332L298.962 181.807H302.328L303.591 184.332C303.591 185.342 302.328 187.278 301.907 188.12C301.487 188.26 300.056 188.456 299.382 188.12C298.709 187.783 297.98 185.454 297.699 184.332Z" fill="#9DE0FF"/>
<path d="M302.86 184.332L301.597 181.807H302.439L303.701 184.332C303.701 185.342 302.439 187.278 302.018 188.12C301.597 188.26 301.85 188.456 301.176 188.12C300.503 187.783 303.14 185.454 302.86 184.332Z" fill="#89D7FC"/>
</svg>
