<svg width="463" height="518" viewBox="0 0 463 518" fill="none" xmlns="http://www.w3.org/2000/svg">
<path d="M231.074 518C358.693 518 462.148 463.085 462.148 395.345C462.148 327.604 358.693 272.689 231.074 272.689C103.455 272.689 0 327.604 0 395.345C0 463.085 103.455 518 231.074 518Z" fill="#EFF6FF"/>
<path d="M350.277 439.911C377.924 439.911 400.336 426.972 400.336 411.011C400.336 395.049 377.924 382.11 350.277 382.11C322.631 382.11 300.219 395.049 300.219 411.011C300.219 426.972 322.631 439.911 350.277 439.911Z" fill="#D0F0FF"/>
<path d="M269.075 36.1177V311.03L102.986 406.909V132.019L269.075 36.1177Z" fill="#6ED0FF"/>
<path opacity="0.25" d="M269.075 36.1177V311.03L102.986 406.909V132.019L269.075 36.1177Z" fill="black"/>
<path opacity="0.15" d="M269.075 36.1174L227.777 59.7505L227.766 287.167L269.075 311.03V36.1174Z" fill="black"/>
<path d="M227.766 287.167L274.671 314.238L102.986 413.37V215.161L227.766 287.167Z" fill="#6ED0FF"/>
<path opacity="0.8" d="M227.766 287.167L274.671 314.238L102.986 413.37V215.161L227.766 287.167Z" fill="white"/>
<path opacity="0.1" d="M115.077 367.43L166.735 397.25L259.723 343.567L208.065 313.746L115.077 367.43Z" fill="black"/>
<path d="M117.312 362.567L167.37 391.468L257.489 339.449L207.43 310.537L117.312 362.567Z" fill="#6ED0FF"/>
<path opacity="0.1" d="M117.312 362.567L167.37 391.468L257.489 339.449L207.43 310.537L117.312 362.567Z" fill="black"/>
<path d="M117.311 362.567V365.185L167.37 394.096V391.468L117.311 362.567Z" fill="#6ED0FF"/>
<path opacity="0.35" d="M117.311 362.567V365.185L167.37 394.096V391.468L117.311 362.567Z" fill="black"/>
<path d="M167.37 391.468L257.489 339.449V342.066L167.37 394.096V391.468Z" fill="#6ED0FF"/>
<path opacity="0.2" d="M167.37 391.468L257.489 339.449V342.066L167.37 394.096V391.468Z" fill="black"/>
<path d="M156.868 368.338L152.564 364.692C152.432 364.582 152.388 364.484 152.421 364.396C152.458 364.295 152.533 364.213 152.629 364.166L154.688 362.972C154.794 362.921 154.91 362.895 155.028 362.896C155.15 362.893 155.271 362.923 155.378 362.983C155.418 363.004 155.455 363.03 155.488 363.06L163.384 369.959C163.445 370.001 163.493 370.059 163.522 370.127C163.552 370.195 163.56 370.27 163.548 370.343C163.525 370.434 163.481 370.519 163.42 370.591C163.36 370.663 163.284 370.72 163.197 370.759L161.894 371.514C161.682 371.638 161.439 371.703 161.193 371.701C160.965 371.705 160.736 371.68 160.514 371.624L155.783 370.255L158.16 372.982C158.248 373.094 158.295 373.233 158.291 373.376C158.291 373.529 158.171 373.661 157.963 373.781L156.66 374.537C156.438 374.661 156.19 374.729 155.937 374.734C155.713 374.752 155.488 374.719 155.28 374.636L143.332 370.08L143.189 370.014C143.148 370 143.112 369.974 143.087 369.938C143.061 369.903 143.048 369.86 143.048 369.817C143.048 369.773 143.061 369.731 143.087 369.696C143.112 369.66 143.148 369.634 143.189 369.62L145.248 368.426C145.371 368.361 145.505 368.32 145.642 368.306C145.819 368.293 145.995 368.323 146.157 368.393L152.465 370.879L150.549 368.689C150.489 368.618 150.445 368.536 150.417 368.448C150.417 368.338 150.417 368.229 150.636 368.119L152.104 367.265C152.273 367.159 152.475 367.116 152.673 367.145C152.818 367.157 152.961 367.183 153.1 367.221L156.868 368.338Z" fill="#FAFAFA"/>
<path d="M172.922 362.239C173.053 362.168 173.201 362.134 173.35 362.14C173.495 362.135 173.638 362.169 173.766 362.239L175.43 363.202C175.481 363.221 175.524 363.255 175.555 363.299C175.585 363.343 175.602 363.395 175.602 363.449C175.602 363.503 175.585 363.555 175.555 363.599C175.524 363.643 175.481 363.677 175.43 363.695L167.994 367.999C167.863 368.068 167.716 368.102 167.567 368.098C167.417 368.104 167.268 368.066 167.14 367.988L156.999 362.14C156.949 362.119 156.906 362.084 156.875 362.04C156.844 361.995 156.826 361.943 156.824 361.888C156.826 361.837 156.842 361.787 156.871 361.744C156.9 361.702 156.941 361.668 156.988 361.647L164.315 357.42C164.446 357.349 164.593 357.315 164.742 357.322C164.887 357.317 165.031 357.351 165.158 357.42L166.823 358.384C166.874 358.4 166.919 358.432 166.952 358.475C166.984 358.518 167.001 358.571 167.001 358.625C167.001 358.679 166.984 358.731 166.952 358.775C166.919 358.818 166.874 358.85 166.823 358.866L161.993 361.658L163.69 362.644L168.181 360.048C168.308 359.979 168.452 359.945 168.597 359.95C168.745 359.943 168.893 359.978 169.024 360.048L170.688 361.012C170.738 361.031 170.781 361.064 170.812 361.107C170.843 361.149 170.861 361.2 170.864 361.253C170.864 361.352 170.809 361.428 170.688 361.505L166.198 364.09L167.962 365.108L172.922 362.239Z" fill="#FAFAFA"/>
<path d="M182.888 356.511C183.021 356.446 183.167 356.412 183.315 356.412C183.463 356.412 183.609 356.446 183.742 356.511L185.407 357.475C185.455 357.496 185.496 357.529 185.527 357.572C185.558 357.614 185.577 357.664 185.582 357.716C185.577 357.769 185.559 357.821 185.528 357.865C185.497 357.909 185.455 357.945 185.407 357.968L178.135 362.162C178.002 362.227 177.856 362.261 177.708 362.261C177.56 362.261 177.414 362.227 177.281 362.162L167.14 356.303C167.09 356.284 167.048 356.251 167.017 356.208C166.985 356.166 166.967 356.115 166.965 356.062C166.965 355.964 167.019 355.887 167.14 355.81L169.199 354.627C169.326 354.558 169.47 354.524 169.615 354.529C169.763 354.522 169.911 354.557 170.042 354.627L178.102 359.282L182.888 356.511Z" fill="#FAFAFA"/>
<path d="M182.69 351.638L183.238 351.977L183.972 352.405L184.727 352.843L185.33 353.16C185.599 353.286 185.877 353.392 186.162 353.478C186.465 353.561 186.778 353.605 187.093 353.609C187.428 353.615 187.763 353.578 188.089 353.5C188.453 353.403 188.803 353.259 189.13 353.073C189.417 352.925 189.673 352.724 189.885 352.481C190.01 352.339 190.1 352.171 190.148 351.988C190.174 351.843 190.15 351.693 190.083 351.561C190.024 351.437 189.947 351.322 189.853 351.222C189.765 351.139 189.704 351.033 189.677 350.915C189.677 350.838 189.754 350.751 189.929 350.641L191.988 349.459C192.095 349.399 192.216 349.369 192.339 349.371C192.458 349.368 192.575 349.399 192.678 349.459C193.136 349.718 193.514 350.096 193.773 350.554C193.991 350.951 194.057 351.414 193.959 351.857C193.843 352.369 193.594 352.841 193.237 353.226C192.778 353.745 192.233 354.182 191.627 354.518C190.885 354.947 190.09 355.275 189.261 355.493C188.466 355.697 187.651 355.811 186.83 355.832C186.049 355.856 185.269 355.779 184.508 355.602C183.804 355.453 183.122 355.21 182.482 354.879C182.033 354.65 181.562 354.387 181.07 354.102C180.577 353.817 180.117 353.543 179.679 353.27C179.181 352.973 178.751 352.573 178.419 352.098C178.146 351.707 178.008 351.238 178.025 350.762C178.081 350.241 178.291 349.75 178.627 349.349C179.101 348.796 179.672 348.335 180.314 347.991C181.002 347.588 181.738 347.271 182.504 347.049C183.277 346.831 184.069 346.692 184.87 346.633C185.627 346.581 186.388 346.617 187.137 346.743C187.8 346.849 188.441 347.068 189.031 347.389C189.071 347.405 189.105 347.432 189.131 347.467C189.156 347.502 189.171 347.543 189.174 347.586C189.173 347.631 189.159 347.674 189.134 347.711C189.108 347.748 189.073 347.777 189.031 347.794L186.972 348.977C186.834 349.065 186.676 349.118 186.512 349.13C186.334 349.111 186.158 349.075 185.987 349.02L185.395 348.889C185.152 348.861 184.905 348.861 184.662 348.889C184.365 348.907 184.071 348.958 183.786 349.042C183.433 349.141 183.094 349.284 182.778 349.47C182.493 349.62 182.24 349.825 182.033 350.072C181.902 350.237 181.833 350.442 181.836 350.652C181.852 350.854 181.937 351.043 182.077 351.189C182.262 351.364 182.468 351.515 182.69 351.638V351.638Z" fill="#FAFAFA"/>
<path d="M190.752 346.896C190.252 346.592 189.82 346.19 189.481 345.713C189.198 345.328 189.058 344.855 189.087 344.377C189.142 343.865 189.348 343.381 189.678 342.986C190.161 342.424 190.744 341.956 191.398 341.607C192.141 341.17 192.94 340.838 193.774 340.621C194.568 340.41 195.384 340.292 196.205 340.27C196.979 340.247 197.752 340.324 198.505 340.5C199.216 340.657 199.904 340.904 200.553 341.234C201.024 341.486 201.506 341.749 201.999 342.034C202.491 342.318 202.94 342.592 203.346 342.844C203.843 343.151 204.274 343.553 204.616 344.027C204.898 344.414 205.041 344.885 205.021 345.363C204.967 345.88 204.757 346.369 204.419 346.765C203.934 347.321 203.351 347.785 202.7 348.134C201.955 348.57 201.156 348.905 200.323 349.13C199.533 349.339 198.72 349.453 197.903 349.47C197.126 349.489 196.35 349.411 195.592 349.24C194.881 349.083 194.193 348.837 193.544 348.506C193.095 348.265 192.624 348.013 192.131 347.728C191.639 347.444 191.179 347.159 190.752 346.896ZM200.411 344.476L199.808 344.103L199.118 343.676L198.407 343.282L197.771 342.954C197.486 342.82 197.189 342.714 196.884 342.636C196.573 342.558 196.253 342.518 195.932 342.515C195.595 342.517 195.26 342.561 194.935 342.647C194.59 342.739 194.259 342.875 193.949 343.052C193.679 343.197 193.438 343.39 193.238 343.622C193.109 343.788 193.036 343.991 193.029 344.202C193.026 344.401 193.092 344.594 193.216 344.75C193.37 344.95 193.559 345.12 193.774 345.253C193.938 345.374 194.125 345.494 194.344 345.626L195.034 346.042L195.745 346.447L196.413 346.787C196.993 347.061 197.623 347.21 198.264 347.225C198.958 347.231 199.64 347.045 200.235 346.688C200.882 346.305 201.188 345.932 201.155 345.593C201.127 345.362 201.044 345.14 200.915 344.946C200.786 344.752 200.613 344.591 200.411 344.476Z" fill="#FAFAFA"/>
<path d="M211.11 339.898H210.639L206.565 339.252L211.767 342.253C211.815 342.274 211.857 342.307 211.887 342.349C211.918 342.392 211.937 342.441 211.942 342.493C211.938 342.547 211.919 342.599 211.888 342.643C211.858 342.687 211.816 342.722 211.767 342.745L209.708 343.928C209.577 343.998 209.43 344.031 209.281 344.027C209.136 344.032 208.992 343.998 208.865 343.928L198.713 338.069C198.665 338.048 198.624 338.015 198.593 337.972C198.562 337.93 198.543 337.88 198.538 337.828C198.538 337.73 198.593 337.653 198.713 337.576L200.531 336.481C200.726 336.364 200.95 336.307 201.177 336.317H201.637L208.526 337.357L206.729 333.382C206.699 333.297 206.681 333.209 206.675 333.119C206.675 332.988 206.762 332.867 206.97 332.747L208.799 331.652C208.927 331.582 209.07 331.548 209.215 331.553C209.364 331.547 209.512 331.581 209.643 331.652L219.794 337.511C219.904 337.576 219.97 337.653 219.959 337.751C219.948 337.85 219.959 337.927 219.794 337.992L217.736 339.186C217.604 339.255 217.457 339.289 217.309 339.285C217.163 339.29 217.02 339.256 216.892 339.186L211.69 336.185L212.786 338.529C212.797 338.62 212.797 338.712 212.786 338.803C212.786 338.912 212.709 339 212.545 339.098L211.548 339.679C211.42 339.784 211.271 339.859 211.11 339.898Z" fill="#FAFAFA"/>
<path d="M227.789 330.578C227.916 330.509 228.06 330.475 228.205 330.48C228.354 330.476 228.5 330.51 228.632 330.578L230.297 331.542C230.346 331.561 230.389 331.594 230.42 331.637C230.451 331.679 230.469 331.73 230.472 331.783C230.467 331.835 230.448 331.885 230.417 331.927C230.386 331.969 230.345 332.003 230.297 332.024L222.85 336.328C222.719 336.399 222.571 336.433 222.423 336.426C222.278 336.431 222.134 336.397 222.007 336.328L211.855 330.469C211.806 330.446 211.764 330.41 211.733 330.366C211.703 330.322 211.684 330.271 211.679 330.217C211.684 330.164 211.702 330.114 211.733 330.072C211.764 330.029 211.806 329.996 211.855 329.976L219.17 325.749C219.302 325.68 219.449 325.646 219.597 325.65C219.746 325.645 219.893 325.679 220.024 325.749L221.689 326.712C221.739 326.731 221.783 326.765 221.813 326.809C221.844 326.853 221.86 326.905 221.86 326.959C221.86 327.012 221.844 327.065 221.813 327.109C221.783 327.153 221.739 327.187 221.689 327.205L216.838 329.998L218.535 330.973L223.025 328.377C223.158 328.312 223.304 328.278 223.452 328.278C223.6 328.278 223.746 328.312 223.879 328.377L225.544 329.341C225.594 329.359 225.638 329.393 225.668 329.437C225.699 329.481 225.715 329.533 225.715 329.587C225.715 329.641 225.699 329.693 225.668 329.737C225.638 329.781 225.594 329.815 225.544 329.834L221.054 332.429L222.806 333.437L227.789 330.578Z" fill="#FAFAFA"/>
<path d="M203.017 203.86C200.826 204.408 195.592 205.448 195.592 205.448C195.592 205.448 198.406 201.867 197.256 201.067C196.106 200.268 195.296 202.743 191.989 204.101C188.681 205.459 187.389 207.178 185.352 207.2L160.164 207.551C160.164 207.551 142.642 186.59 139.751 184.465C138.68 183.591 137.432 182.959 136.094 182.613C134.755 182.267 133.358 182.215 131.997 182.461L135.534 201.078L150.034 215.523C153.407 218.874 154.721 220.024 159.222 219.794C164.336 219.531 177.292 217.505 184.761 216.279C189.667 215.874 191.332 216.071 194.759 215.49C198.45 214.877 202.338 214.866 204.922 210.19C207.912 204.758 206.269 203.071 203.017 203.86Z" fill="#F28F8F"/>
<path d="M154.349 103.042V329.593L227.767 287.167V60.6709L154.349 103.042Z" fill="#1F6180"/>
<path d="M157.25 207.912C157.298 207.007 157.559 206.125 158.012 205.339C158.465 204.553 159.097 203.885 159.857 203.39C161.303 202.557 162.463 203.236 162.463 204.901C162.391 206.272 161.832 207.573 160.886 208.57V210.76C160.868 211.067 160.779 211.365 160.625 211.632C160.471 211.898 160.257 212.124 159.999 212.293L159.693 212.468C159.211 212.753 158.817 212.468 158.817 211.954V209.763C157.897 209.84 157.25 209.15 157.25 207.912Z" fill="#263238"/>
<path d="M183.413 97.1062L164.676 107.926V193.916L183.413 183.096V97.1062Z" fill="#6ED0FF"/>
<path opacity="0.3" d="M183.413 97.1062L164.676 107.926V193.916L183.413 183.096V97.1062Z" fill="black"/>
<path d="M214.46 79.146L195.712 89.966V175.956L214.46 165.136V79.146Z" fill="#6ED0FF"/>
<path opacity="0.3" d="M214.46 79.146L195.712 89.966V175.956L214.46 165.136V79.146Z" fill="black"/>
<path d="M183.413 183.096L186.381 184.805L164.676 197.344V193.916L183.413 183.096Z" fill="#05354C"/>
<path d="M214.46 165.136L217.428 166.855L195.722 179.383L192.754 177.664L214.46 165.136Z" fill="#05354C"/>
<path d="M214.461 165.136V79.1132L217.439 77.3938L217.429 166.845L214.461 165.136Z" fill="#23536A"/>
<path d="M186.381 184.805L195.722 179.384V89.9658L186.381 95.3867V184.805Z" fill="#1F6180"/>
<path d="M186.381 184.804L183.413 183.096V97.1058L186.381 95.3865V184.804Z" fill="#23536A"/>
<path opacity="0.1" d="M186.381 199.074L164.676 211.603V307.854L186.381 295.315V199.074Z" fill="black"/>
<path d="M184.289 205.996L169.472 214.549V299.356L184.289 290.803V205.996Z" fill="#1F6180"/>
<path d="M164.676 211.603L169.472 214.549V299.356L164.676 307.855V211.603Z" fill="#23536A"/>
<path d="M186.381 199.074L184.289 205.996V290.803L186.381 295.315V199.074Z" fill="#23536A"/>
<path d="M186.381 295.315L184.289 290.803L169.472 299.356L164.676 307.854L186.381 295.315Z" fill="#05354C"/>
<path opacity="0.1" d="M217.439 181.103L195.722 193.643V289.894L217.439 277.355V181.103Z" fill="black"/>
<path d="M215.347 188.035L200.53 196.588V281.396L215.347 272.843V188.035Z" fill="#1F6180"/>
<path d="M195.722 193.642L200.53 196.588V281.396L195.722 289.894V193.642Z" fill="#23536A"/>
<path d="M217.439 181.103L215.348 188.035V272.843L217.439 277.355V181.103Z" fill="#23536A"/>
<path d="M217.439 277.355L215.347 272.843L200.53 281.396L195.722 289.894L217.439 277.355Z" fill="#05354C"/>
<path d="M151.162 327.818L154.349 329.593V103.042L151.162 104.848V327.818Z" fill="#05354C"/>
<path opacity="0.1" d="M227.766 59.7507V85.3222L102.986 157.59V132.019L227.766 59.7507Z" fill="black"/>
<path opacity="0.1" d="M127.704 377.702C133.618 378.534 138.655 381.644 144.361 382.849C148.106 383.627 152.137 383.868 155.597 382.214C156.692 381.677 158.357 380.516 158.729 379.323C159.299 377.516 157.875 376.037 156.725 374.942C155.297 373.616 153.794 372.373 152.224 371.219C148.942 369.014 145.376 367.264 141.623 366.017C138.338 364.801 135.052 363.684 131.69 362.731C128.572 361.998 125.394 361.547 122.195 361.384C114.965 360.569 107.646 361.082 100.599 362.896C93.7876 364.79 87.4577 366.619 82.4529 371.974C80.6576 373.682 79.4661 375.926 79.058 378.37C78.9966 379.733 79.2288 381.094 79.7389 382.36C80.2491 383.626 81.0252 384.767 82.0149 385.707C83.536 387.359 85.3832 388.677 87.4398 389.578C89.4964 390.479 91.7175 390.943 93.9628 390.942C95.5483 390.918 97.1126 390.575 98.5617 389.931C100.011 389.287 101.315 388.357 102.395 387.197C104.52 384.787 106.152 381.973 108.966 380.221C114.376 376.826 121.56 376.892 127.704 377.702Z" fill="black"/>
<path d="M122.07 176.591C121.884 178.661 122.19 180.84 118.576 182.351C118.576 182.351 120.394 187.63 116.178 189.382C116.178 189.382 117.613 194.332 114.108 195.953C114.437 196.986 114.429 198.097 114.084 199.125C113.74 200.152 113.077 201.044 112.192 201.67C112.89 202.627 113.259 203.785 113.243 204.97C113.227 206.154 112.828 207.302 112.104 208.24C112.498 208.545 112.82 208.932 113.047 209.375C113.274 209.818 113.401 210.305 113.418 210.803C113.572 212.643 112.761 214.844 110.965 215.26C111.287 214.868 111.463 214.377 111.463 213.869C111.463 213.362 111.287 212.87 110.965 212.479C109.804 211.153 109.29 209.489 110.527 208.273C110.527 208.273 106.234 206.97 108.72 201.954C108.221 201.484 107.842 200.899 107.617 200.251C107.391 199.603 107.325 198.911 107.424 198.232C107.523 197.553 107.784 196.907 108.185 196.351C108.586 195.794 109.115 195.342 109.728 195.033C109.728 195.033 107.417 189.842 111.754 187.947C111.754 187.947 109.224 184.925 112.553 181.377C112.553 181.377 109.388 176.021 116.047 171.411L122.07 176.591Z" fill="#263238"/>
<path d="M146.524 358.855C146.757 358.421 146.87 357.934 146.852 357.442C146.847 356.908 146.869 356.375 146.918 355.843C147.181 351.791 150.4 313.319 151.2 304.481C152.547 289.642 152.613 249.965 149.634 237.185L109.705 240.35C106.847 247.545 104.766 256.394 105.248 270.28C105.609 280.87 105.445 309.596 105.445 309.596C101.84 313.147 99.0262 317.42 97.1877 322.135C94.1542 329.505 91.8763 347.323 90.2007 354.507C89.8832 355.865 89.5218 357.793 89.5218 357.793C88.6601 358.995 88.1829 360.431 88.1528 361.91C88.1668 366.31 88.644 370.697 89.5765 374.997C89.803 376.046 90.3019 377.016 91.0229 377.81C91.7439 378.604 92.6615 379.194 93.6833 379.52C94.1715 379.723 94.7001 379.809 95.2274 379.772C95.5051 379.77 95.7729 379.669 95.9831 379.487C96.3554 379.115 95.9831 378.228 95.9831 377.779C95.864 377.054 95.7945 376.323 95.775 375.589C95.775 374.154 95.775 372.413 95.8626 370.978C96.0394 367.797 96.5347 364.642 97.341 361.56L98.1076 359.731C98.1076 359.731 115.192 325.048 120.01 316.583C123.865 309.957 127.786 284.199 130.502 270.127L135.233 303.726C134.085 307.221 133.235 310.808 132.692 314.447C131.991 320.678 135.561 344.695 136.897 353.379C137.093 354.651 137.162 355.938 137.105 357.223C137.04 357.611 137.04 358.007 137.105 358.395C137.269 358.795 137.547 359.138 137.905 359.381C138.627 359.738 139.388 360.014 140.172 360.202C141.243 360.486 142.358 360.561 143.457 360.421C143.873 360.355 144.268 360.213 144.684 360.136C145.157 360.042 145.595 359.823 145.954 359.501C146.184 359.324 146.377 359.105 146.524 358.855Z" fill="#FFA8A7"/>
<path d="M101.503 387.723H101.196C98.517 388.063 95.7958 387.812 93.2236 386.989C90.9366 386.243 88.8833 384.915 87.2661 383.134C86.6295 382.264 86.1513 381.289 85.8534 380.254C85.5211 379.179 85.2722 378.081 85.1087 376.968C84.4297 373.431 85.3824 372.434 84.3202 368.952C83.8352 367.74 83.4363 366.496 83.1265 365.228C83.3008 364.576 83.6105 363.968 84.0354 363.443L88.416 369.576L91.3181 373.65L92.8622 375.84C93.2017 376.322 93.4646 376.935 93.8479 377.395C94.4382 377.935 95.1018 378.389 95.8191 378.742C96.5309 379.191 97.2647 379.619 98.0094 380.013C99.467 380.802 100.97 381.504 102.51 382.115C103.162 382.336 103.784 382.638 104.361 383.013C104.649 383.207 104.891 383.461 105.071 383.758C105.251 384.055 105.364 384.388 105.402 384.733C105.401 385.331 105.165 385.906 104.744 386.332C103.857 387.156 102.712 387.647 101.503 387.723V387.723Z" fill="#37474F"/>
<path d="M97.0456 362.053L97.7794 360.574C98.3817 361.078 97.5384 364.144 97.4289 367.342C97.3887 368.771 97.4804 370.201 97.7027 371.613C97.8998 372.906 98.3947 374.136 99.1483 375.205C100.259 376.923 101.646 378.444 103.255 379.706C104.006 380.175 104.633 380.817 105.084 381.579C105.333 382.001 105.477 382.477 105.506 382.966C105.535 383.456 105.446 383.945 105.248 384.393C104.882 385.026 104.31 385.513 103.627 385.773C102.704 386.135 101.727 386.342 100.736 386.387C97.5561 386.641 94.3678 386.008 91.5261 384.558C89.9854 383.765 88.6562 382.616 87.6493 381.207C86.9316 379.94 86.4702 378.545 86.2914 377.1C85.7657 374.592 85.9409 372.029 85.6343 370.102C85.3276 368.174 83.7616 365.404 84.0354 363.531C84.1887 362.491 85.5576 360.738 86.828 359.337C88.0984 357.935 89.2701 356.566 89.7082 356.971L89.533 357.847C90.1676 359.385 91.3335 360.645 92.8184 361.396C94.1061 362.106 95.6031 362.338 97.0456 362.053Z" fill="#455A64"/>
<path d="M99.3785 375.796C99.4585 375.788 99.5339 375.755 99.5946 375.702C99.6553 375.649 99.6984 375.579 99.718 375.501C99.7312 375.45 99.7342 375.398 99.727 375.346C99.7198 375.295 99.7025 375.245 99.676 375.2C99.6495 375.156 99.6145 375.117 99.5728 375.085C99.5311 375.054 99.4837 375.032 99.4333 375.019C97.1883 374.438 93.0815 374.581 91.154 375.632C91.1087 375.657 91.0688 375.691 91.0365 375.732C91.0043 375.772 90.9803 375.819 90.9661 375.869C90.9519 375.918 90.9476 375.971 90.9535 376.022C90.9595 376.074 90.9755 376.123 91.0007 376.169C91.0247 376.215 91.058 376.256 91.0984 376.289C91.1389 376.322 91.1857 376.347 91.2359 376.361C91.2862 376.376 91.3389 376.38 91.3907 376.373C91.4425 376.366 91.4924 376.349 91.5373 376.322C93.2677 375.369 97.1663 375.227 99.2033 375.785L99.3785 375.796Z" fill="#E0E0E0"/>
<path d="M98.2832 372.73C98.3624 372.725 98.4382 372.696 98.5007 372.647C98.5633 372.598 98.6096 372.532 98.6337 372.456C98.6506 372.407 98.6575 372.356 98.654 372.304C98.6504 372.253 98.6364 372.202 98.6129 372.156C98.5894 372.11 98.5567 372.069 98.517 372.036C98.4773 372.003 98.4313 371.978 98.3818 371.963C95.8625 371.224 93.1706 371.328 90.7158 372.259C90.6613 372.276 90.611 372.304 90.5683 372.342C90.5257 372.379 90.4918 372.426 90.4689 372.478C90.4461 372.531 90.4348 372.587 90.4359 372.644C90.437 372.701 90.4504 372.757 90.4752 372.808C90.5001 372.86 90.5357 372.905 90.5798 372.941C90.6238 372.977 90.6752 373.004 90.7303 373.018C90.7854 373.032 90.8431 373.035 90.8992 373.025C90.9553 373.015 91.0086 372.993 91.0553 372.96C93.3415 372.124 95.8342 372.036 98.1737 372.708C98.2085 372.722 98.2457 372.73 98.2832 372.73V372.73Z" fill="#E0E0E0"/>
<path d="M97.659 369.587C97.7295 369.588 97.7988 369.569 97.8589 369.532C97.919 369.495 97.9674 369.442 97.9985 369.379C98.0237 369.334 98.0397 369.284 98.0457 369.232C98.0516 369.181 98.0474 369.129 98.0331 369.079C98.0189 369.029 97.9949 368.982 97.9627 368.942C97.9304 368.901 97.8905 368.867 97.8452 368.842C95.4501 367.904 92.7844 367.932 90.4092 368.919C90.3624 368.941 90.3205 368.973 90.2859 369.011C90.2512 369.049 90.2245 369.094 90.2072 369.143C90.1899 369.192 90.1824 369.244 90.1851 369.295C90.1878 369.347 90.2007 369.398 90.223 369.445C90.27 369.537 90.3515 369.607 90.4499 369.64C90.5483 369.673 90.6556 369.666 90.7487 369.62C92.8939 368.738 95.2944 368.707 97.4619 369.532C97.5225 369.565 97.5899 369.584 97.659 369.587V369.587Z" fill="#E0E0E0"/>
<path d="M164.659 376.256C164.724 376.907 164.62 377.563 164.358 378.162C164.095 378.76 163.682 379.281 163.159 379.673C160.206 381.366 156.744 381.945 153.401 381.305C147.74 379.881 146.633 378.359 144.64 376.311C142.165 373.705 142.45 372.347 139.657 369.992C138.596 369.232 137.59 368.397 136.646 367.495C136.415 366.632 136.326 365.737 136.383 364.845L164.659 376.256Z" fill="#37474F"/>
<path d="M146.743 357.059L146.918 355.843C147.685 355.942 148.287 358.548 149.919 361.319C151.338 363.571 153.143 365.554 155.252 367.178C158.538 369.642 162.59 372.073 164.441 374.844C166.291 377.614 160.542 380.21 156.183 380.111C154.238 380.076 152.318 379.655 150.536 378.873C148.754 378.091 147.145 376.963 145.801 375.555C144.005 373.727 142.768 371.471 141.421 370.014C140.074 368.558 137.314 367.068 136.526 365.316C136.078 363.658 136.022 361.918 136.361 360.235C136.646 358.515 136.547 356.15 137.128 356.248C137.128 356.412 137.128 357.179 137.128 357.179C138.811 358.268 140.786 358.818 142.79 358.756C144.269 358.683 145.672 358.081 146.743 357.059V357.059Z" fill="#455A64"/>
<path d="M158.165 369.05C158.234 369.01 158.29 368.95 158.325 368.878C158.36 368.806 158.373 368.725 158.362 368.645C158.354 368.594 158.336 368.546 158.309 368.502C158.282 368.459 158.247 368.421 158.205 368.391C158.163 368.362 158.116 368.341 158.066 368.33C158.015 368.319 157.964 368.318 157.913 368.328C155.613 368.678 151.901 370.441 150.554 372.182C150.522 372.223 150.499 372.27 150.485 372.32C150.472 372.369 150.468 372.421 150.476 372.473C150.483 372.524 150.5 372.573 150.527 372.617C150.553 372.661 150.589 372.7 150.631 372.73C150.712 372.793 150.815 372.821 150.918 372.809C151.02 372.797 151.114 372.745 151.178 372.664C152.394 371.098 155.92 369.434 158.034 369.105L158.165 369.05Z" fill="#E0E0E0"/>
<path d="M155.055 366.904C155.125 366.866 155.181 366.808 155.216 366.738C155.251 366.667 155.264 366.588 155.252 366.51C155.236 366.407 155.18 366.314 155.096 366.253C155.012 366.191 154.906 366.165 154.803 366.181C152.213 366.656 149.848 367.964 148.068 369.904C148.004 369.987 147.976 370.092 147.989 370.196C148.003 370.299 148.057 370.394 148.139 370.458C148.222 370.521 148.327 370.55 148.431 370.536C148.534 370.523 148.629 370.469 148.692 370.386C150.35 368.607 152.534 367.405 154.924 366.959C154.971 366.95 155.016 366.931 155.055 366.904Z" fill="#E0E0E0"/>
<path d="M152.427 364.67C152.487 364.634 152.537 364.582 152.572 364.521C152.606 364.459 152.624 364.39 152.624 364.32C152.624 364.215 152.582 364.115 152.508 364.041C152.434 363.967 152.334 363.925 152.23 363.925C149.679 364.251 147.355 365.555 145.746 367.561C145.687 367.647 145.664 367.753 145.683 367.855C145.701 367.958 145.759 368.049 145.845 368.109C145.929 368.169 146.034 368.194 146.137 368.177C146.239 368.161 146.331 368.105 146.392 368.021C147.85 366.219 149.943 365.043 152.24 364.736C152.307 364.731 152.372 364.709 152.427 364.67V364.67Z" fill="#E0E0E0"/>
<path d="M114.064 228.303C110.958 234.338 108.513 240.69 106.771 247.249C104.58 256.58 104.657 262.713 104.745 279.008C104.832 295.304 105.062 309.42 105.062 309.42C105.062 309.42 96.991 314.754 94.3188 333.24C94.3188 333.24 100.682 339.81 109.125 337.62C109.125 337.62 118.193 321.511 121.172 316.462C124.15 311.413 130.524 270.138 130.524 270.138L134.357 303.791C134.357 303.791 131.466 311.841 131.838 317.524C132.211 323.208 133.755 332.101 133.755 332.101C138.871 333.659 144.383 333.269 149.229 331.005C149.229 331.005 151.967 304.591 152.328 295.008C152.69 285.426 153.861 251.564 149.152 230.395L114.064 228.303Z" fill="#455A64"/>
<path d="M130.524 270.203L134.313 255.331C134.313 255.331 141.596 256.175 147.323 251.937C147.323 251.937 146.151 257.412 135.999 258.989L131.619 273.544L131.685 280.498L130.524 270.203Z" fill="#263238"/>
<path d="M148.955 224.218C148.535 220.128 148.491 216.008 148.823 211.909C151.14 209.755 152.615 206.848 152.986 203.706C153.357 200.565 152.6 197.394 150.849 194.759C145.319 185.801 138.31 182.461 138.31 182.461L129.078 182.176C127.764 182.329 116.418 183.961 114.973 184.366C114.973 184.366 111.063 187.652 110.001 191.474C109.399 193.664 109.223 195.854 111.184 202.852L115.991 215.107C115.991 215.107 117.393 218.776 116.681 221.349C115.969 223.923 112.06 230.318 110.001 236.528C110.001 236.528 118.762 244.38 134.85 242.562C148.593 240.996 150.598 236.374 150.598 236.374C150.598 236.374 149.119 226.726 148.955 224.218Z" fill="#FAFAFA"/>
<path opacity="0.1" d="M123.077 209.445C124.016 211.095 125.411 212.439 127.096 213.316C128.78 214.192 130.682 214.563 132.572 214.384C134.399 214.274 136.163 213.683 137.688 212.671C139.213 211.66 140.444 210.263 141.256 208.624C141.256 208.624 141.191 215.874 132.627 216.125C124.063 216.377 123.077 209.445 123.077 209.445Z" fill="black"/>
<path d="M185.138 208.875C185.174 207.869 184.873 206.879 184.284 206.061C184.202 205.911 184.086 205.783 183.945 205.686C183.805 205.589 183.643 205.526 183.474 205.502C183.054 205.529 182.662 205.718 182.379 206.028C181.196 207.123 180.188 208.218 178.951 209.314C177.787 210.34 176.316 210.953 174.767 211.055C174.781 210.748 174.896 210.455 175.096 210.222C175.578 209.554 175.939 209.073 176.454 208.35C176.782 207.992 177.027 207.566 177.171 207.102C177.315 206.638 177.355 206.148 177.286 205.667C177.255 205.537 177.19 205.418 177.097 205.322C177.005 205.226 176.889 205.156 176.761 205.119C176.543 205.1 176.326 205.158 176.147 205.283C174.453 206.126 172.865 207.166 171.416 208.383C169.828 209.719 168.887 211.931 166.138 213.015C163.389 214.099 160.454 214.362 155.384 215.03C151.43 215.545 144.925 216.388 140.544 216.771C134.269 210.409 126.592 199.008 122.409 193.346C120.181 190.164 117.698 187.168 114.984 184.388C111.315 185.483 109.191 187.356 108.336 189.984C106.146 196.04 109.234 202.962 117.437 212.084C120.109 215.074 128.202 223.966 132.331 228.117C132.94 228.737 133.676 229.217 134.49 229.524C135.303 229.83 136.173 229.955 137.04 229.891C139.514 229.623 141.971 229.217 144.399 228.676C148.922 227.58 154.661 225.938 159.173 224.843C162.82 223.956 166.609 222.882 169.708 221.973C171.823 221.414 173.9 220.723 175.928 219.903C177.644 219.284 179.266 218.429 180.747 217.363C181.722 216.683 182.574 215.843 183.266 214.877C183.864 213.961 184.322 212.961 184.624 211.909C184.96 210.933 185.134 209.908 185.138 208.875V208.875Z" fill="#FFA8A7"/>
<path d="M113.615 150.801C111.074 154.086 110.592 158.379 111.217 162.606C112.312 169.714 116.616 175.244 121.763 177.577C124.84 178.979 128.848 179.57 130.907 177.774C134.116 174.992 137.369 172.298 140.829 169.812C143.414 167.983 146.305 166.155 147.564 163.241C148.659 160.766 148.659 156.528 146.338 154.699C148.17 153.267 149.447 151.242 149.952 148.972C150.181 148.377 150.228 147.727 150.088 147.105C149.948 146.483 149.626 145.917 149.163 145.478C148.506 144.909 146.436 144.81 145.56 144.712C142.493 144.252 139.468 143.545 136.514 142.598C132.854 141.815 129.086 141.671 125.377 142.171C122.486 142.73 119.189 143.868 117.711 147.899C116.046 148.353 114.596 149.381 113.615 150.801V150.801Z" fill="#263238"/>
<path d="M139.899 148.84C142.089 149.935 144.903 154.951 145.374 165.837C145.736 175.058 142.888 177.522 141.432 178.277C139.975 179.033 137.051 178.803 134.215 178.518L134.51 183.129C134.51 183.129 142.691 189.032 136.285 190.258C132.741 190.746 129.145 189.882 126.209 187.838C124.623 186.828 123.259 185.505 122.201 183.95L121.555 172.506C121.555 172.506 120 174.214 117.043 171.937C114.601 170.053 113.604 166.691 115.291 164.741C115.732 164.277 116.278 163.925 116.882 163.712C117.486 163.5 118.132 163.434 118.767 163.519C119.402 163.605 120.007 163.839 120.534 164.204C121.06 164.569 121.493 165.053 121.796 165.618C121.796 165.618 123.504 166.483 124.961 163.318C127.74 162.872 130.385 161.814 132.703 160.219C134.604 158.9 136.219 157.214 137.455 155.259C138.691 153.305 139.522 151.122 139.899 148.84V148.84Z" fill="#FFA8A7"/>
<path d="M133.229 163.69C133.269 164.001 133.185 164.315 132.994 164.564C132.803 164.812 132.521 164.974 132.21 165.015C131.894 165.04 131.581 164.938 131.339 164.733C131.097 164.528 130.946 164.236 130.918 163.92C130.885 163.614 130.974 163.307 131.167 163.066C131.36 162.826 131.641 162.672 131.947 162.639C132.254 162.606 132.561 162.695 132.801 162.888C133.042 163.081 133.195 163.362 133.229 163.668V163.69Z" fill="#263238"/>
<path d="M133.415 170.677L137.796 171.937C137.727 172.234 137.599 172.514 137.419 172.76C137.239 173.007 137.012 173.214 136.75 173.371C136.488 173.527 136.198 173.629 135.896 173.671C135.594 173.712 135.286 173.692 134.992 173.612C134.403 173.418 133.912 173.005 133.618 172.459C133.325 171.913 133.252 171.275 133.415 170.677Z" fill="#B16668"/>
<path d="M136.055 173.645C136.005 173.087 135.743 172.57 135.324 172.199C134.904 171.829 134.358 171.633 133.799 171.652C133.659 171.662 133.519 171.684 133.383 171.718C133.455 172.158 133.649 172.569 133.943 172.904C134.237 173.239 134.62 173.484 135.047 173.612C135.376 173.701 135.721 173.713 136.055 173.645Z" fill="#F28F8F"/>
<path d="M143.479 159.43L140.993 157.951C141.081 157.787 141.201 157.643 141.347 157.527C141.492 157.411 141.659 157.326 141.839 157.277C142.018 157.227 142.205 157.215 142.39 157.241C142.574 157.267 142.751 157.329 142.91 157.426C143.246 157.621 143.493 157.939 143.599 158.313C143.705 158.687 143.662 159.087 143.479 159.43Z" fill="#263238"/>
<path d="M131.346 159.43L128.75 160.613C128.663 160.448 128.611 160.267 128.597 160.081C128.583 159.895 128.607 159.708 128.667 159.532C128.728 159.355 128.823 159.193 128.949 159.055C129.074 158.917 129.227 158.806 129.396 158.729C129.749 158.573 130.148 158.559 130.511 158.689C130.874 158.82 131.173 159.085 131.346 159.43Z" fill="#263238"/>
<path d="M143.053 162.814C143.069 162.966 143.056 163.119 143.013 163.266C142.97 163.412 142.899 163.549 142.803 163.668C142.708 163.787 142.59 163.886 142.456 163.959C142.322 164.033 142.175 164.079 142.023 164.095C141.871 164.112 141.718 164.098 141.571 164.056C141.425 164.013 141.288 163.942 141.169 163.846C141.05 163.75 140.951 163.632 140.878 163.498C140.805 163.365 140.758 163.218 140.742 163.066C140.701 162.755 140.786 162.441 140.977 162.193C141.168 161.944 141.45 161.782 141.76 161.741C142.073 161.716 142.383 161.815 142.624 162.015C142.866 162.215 143.019 162.502 143.053 162.814V162.814Z" fill="#263238"/>
<path d="M137.446 162.496L138.07 169.461L141.673 168.092L137.446 162.496Z" fill="#F28F8F"/>
<path d="M134.16 178.518C131.17 178.31 124.972 176.941 123.865 174.598C124.326 175.791 125.14 176.815 126.198 177.533C128.115 178.978 134.28 180.358 134.28 180.358L134.16 178.518Z" fill="#F28F8F"/>
<path d="M121.741 163.34L122.036 168.18C122.471 168.157 122.897 168.047 123.288 167.857C123.68 167.668 124.031 167.402 124.319 167.076C124.607 166.75 124.828 166.37 124.968 165.958C125.108 165.546 125.165 165.11 125.136 164.676L124.851 160.197L121.741 163.34Z" fill="#263238"/>
<path d="M269.075 311.03L274.671 314.239V32.887L269.075 36.1176V311.03Z" fill="#6ED0FF"/>
<path opacity="0.4" d="M269.075 311.03L274.671 314.239V32.887L269.075 36.1176V311.03Z" fill="white"/>
<path opacity="0.1" d="M269.075 311.03L274.671 314.239V32.887L269.075 36.1176V311.03Z" fill="black"/>
<path d="M274.671 314.239L291.81 304.339V3.18677L85.8254 122.119V423.238L102.986 413.371V132.019L274.66 32.8869L274.671 314.239Z" fill="#6ED0FF"/>
<path opacity="0.7" d="M274.671 314.239L291.81 304.339V3.18677L85.8254 122.119V423.238L102.986 413.371V132.019L274.66 32.8869L274.671 314.239Z" fill="white"/>
<path d="M291.81 3.18685L85.8259 122.119L80.3174 118.921L286.313 0L291.81 3.18685Z" fill="#6ED0FF"/>
<path opacity="0.85" d="M291.81 3.18685L85.8259 122.119L80.3174 118.921L286.313 0L291.81 3.18685Z" fill="white"/>
<path d="M85.8259 423.238V122.119L80.3174 118.921V420.062L85.8259 423.238Z" fill="#6ED0FF"/>
<path opacity="0.6" d="M80.3174 118.921V420.062L85.8259 423.238V122.119" fill="white"/>
<path d="M380.7 402.227C377.853 403.87 374.633 403.837 371.14 402.512L368.818 383.741L380.865 380.96L380.7 402.227Z" fill="#B16668"/>
<path d="M345.908 394.387C343.608 399.753 340.257 398.001 335.164 394.759L334.77 376.262L347.912 375.364L345.908 394.387Z" fill="#B16668"/>
<path d="M360.221 419.585C359.954 420.645 360.019 421.761 360.408 422.783C360.802 423.364 362.883 425.138 366.814 425.302C370.571 425.455 373.9 424.853 376.057 423.396C376.989 422.871 377.777 422.122 378.35 421.219C378.923 420.315 379.264 419.284 379.343 418.216C379.496 416.026 379.189 414.022 380.164 412.346C381.139 410.671 382.267 409.28 382.573 408.448C382.948 406.946 382.993 405.38 382.705 403.859L360.221 419.585Z" fill="#263238"/>
<path d="M369.771 401.724C369.744 402.533 369.615 403.335 369.387 404.111C368.853 405.782 368.117 407.382 367.197 408.875C366.747 409.659 366.246 410.413 365.697 411.131C364.602 412.511 363.233 413.661 362.072 414.986C360.823 416.245 360.049 417.897 359.881 419.662C359.805 422.608 363.025 423.506 365.5 423.879C368.172 424.263 370.897 424.042 373.472 423.232C374.843 422.853 376.073 422.082 377.013 421.014C377.952 419.946 378.56 418.628 378.762 417.22C378.871 416.399 378.762 415.566 378.871 414.734C379.144 412.848 379.878 411.057 381.007 409.521C381.661 408.634 382.219 407.68 382.671 406.674C383.383 404.834 382.671 402.797 382.167 401.001C381.697 399.446 381.335 397.584 380.788 397.716C380.788 398.033 380.788 398.723 380.788 398.723C380.623 399.063 380.229 399.304 380.12 399.709C380.018 400.128 379.882 400.538 379.714 400.935C379.453 401.544 379.014 402.059 378.455 402.414L378.236 399.128C378.249 398.781 378.15 398.439 377.951 398.154C377.687 397.923 377.35 397.791 376.998 397.781C374.929 397.346 372.805 397.232 370.701 397.442C370.542 397.443 370.386 397.479 370.242 397.547C370.098 397.615 369.971 397.714 369.869 397.836C369.739 398.065 369.697 398.334 369.749 398.592C369.815 399.635 369.823 400.68 369.771 401.724V401.724Z" fill="#37474F"/>
<path d="M366.847 409.499C367.942 408.645 370.373 408.568 371.72 408.667C373.088 408.745 374.414 409.167 375.575 409.894C375.743 410.004 375.945 410.052 376.144 410.03C376.344 410.008 376.53 409.917 376.67 409.773V409.773C376.754 409.688 376.817 409.585 376.857 409.472C376.897 409.36 376.911 409.24 376.9 409.121C376.888 409.002 376.851 408.887 376.791 408.784C376.73 408.681 376.648 408.593 376.55 408.525C375.259 407.63 373.739 407.124 372.169 407.068C368.884 406.926 367.909 407.528 367.909 407.528C367.909 407.528 366.496 408.536 366.847 409.499Z" fill="#F5F5F5"/>
<path d="M364.426 412.587C365.773 411.733 368.478 411.777 369.825 411.876C371.166 411.974 372.458 412.423 373.571 413.179C373.74 413.285 373.94 413.331 374.139 413.309C374.338 413.287 374.524 413.199 374.666 413.058V413.058C374.749 412.973 374.813 412.87 374.852 412.758C374.892 412.645 374.907 412.525 374.895 412.406C374.884 412.287 374.846 412.172 374.786 412.069C374.726 411.966 374.643 411.878 374.545 411.81C373.244 410.877 371.708 410.327 370.11 410.222C366.825 410.091 365.959 410.791 365.959 410.791C365.585 410.956 365.253 411.203 364.987 411.514C364.722 411.825 364.53 412.192 364.426 412.587V412.587Z" fill="#F5F5F5"/>
<path d="M373.461 403.87C372.064 403.66 370.636 403.823 369.321 404.341C368.741 404.681 368.391 405.612 368.774 405.831C369.925 405.33 371.181 405.119 372.432 405.217C373.674 405.299 374.893 405.595 376.035 406.093C376.319 406.214 376.659 406.378 376.955 406.531C377.05 406.585 377.155 406.618 377.264 406.627C377.372 406.637 377.482 406.624 377.585 406.589C377.688 406.554 377.783 406.498 377.863 406.424C377.943 406.35 378.007 406.259 378.05 406.159V406.159C378.125 405.994 378.135 405.806 378.078 405.634C378.021 405.461 377.902 405.316 377.743 405.228C376.429 404.475 374.969 404.012 373.461 403.87V403.87Z" fill="#F5F5F5"/>
<path d="M314.97 406.706C314.716 407.573 314.798 408.504 315.2 409.313C315.583 410.068 319.657 412.204 325.056 411.678C329.032 411.274 332.828 409.814 336.051 407.451C338.066 406.027 340.202 405.71 342.863 405.48C345.524 405.25 347.561 404.385 348.109 403.103C348.378 401.973 348.31 400.789 347.912 399.698L314.97 406.706Z" fill="#263238"/>
<path d="M336.304 390.137C335.82 390.022 335.345 389.876 334.88 389.699C334.631 389.577 334.346 389.554 334.08 389.634C333.924 389.731 333.793 389.865 333.698 390.023C333.603 390.18 333.546 390.359 333.533 390.543C333.431 391.341 333.259 392.129 333.018 392.897C332.635 393.531 332.137 394.087 331.551 394.54C330.24 395.651 328.82 396.627 327.313 397.453C325.582 398.449 323.874 399.238 322.078 400.103C320.282 400.968 317.796 401.582 316.372 402.6C314.302 404.089 314.182 407.681 316.591 409.028C318.705 410.189 324.257 411.35 329.919 409.554C333.018 408.569 336.391 405.174 340.487 404.681C343.093 404.407 346.565 404.078 348.153 402.052C348.744 401.154 348.306 398.592 347.912 395.569C347.562 392.853 347.288 388.626 346.423 388.889C346.423 388.889 346.072 389.875 346.007 389.984C345.786 390.319 345.537 390.634 345.262 390.926C345.027 391.166 344.778 391.393 344.517 391.605C344.22 391.928 343.905 392.235 343.575 392.525C343.147 392.878 342.618 393.085 342.064 393.116C341.8 393.127 341.537 393.063 341.308 392.93C340.87 392.667 340.827 392.087 340.476 391.714C340.071 391.298 339.587 390.967 339.052 390.74C338.302 390.447 337.512 390.266 336.709 390.203C336.588 390.192 336.435 390.159 336.304 390.137Z" fill="#37474F"/>
<path d="M329.71 395.974C329.887 395.61 330.152 395.296 330.481 395.061C330.81 394.825 331.193 394.676 331.594 394.627C332.777 394.375 334.88 395.186 336.237 396.226C336.364 396.322 336.465 396.448 336.531 396.593C336.598 396.737 336.628 396.895 336.62 397.054C336.611 397.213 336.564 397.367 336.482 397.503C336.4 397.64 336.286 397.754 336.15 397.836C335.98 397.933 335.784 397.977 335.589 397.961C335.393 397.945 335.207 397.871 335.055 397.748C333.574 396.481 331.655 395.844 329.71 395.974V395.974Z" fill="#F5F5F5"/>
<path d="M326.086 398.164C326.334 397.79 326.668 397.481 327.061 397.264C327.454 397.047 327.893 396.927 328.342 396.916C330.172 396.945 331.946 397.55 333.412 398.646C333.532 398.74 333.628 398.862 333.692 399C333.755 399.139 333.784 399.291 333.777 399.444C333.769 399.596 333.725 399.744 333.649 399.876C333.572 400.008 333.464 400.119 333.335 400.201V400.201C333.167 400.303 332.97 400.349 332.774 400.334C332.577 400.318 332.391 400.241 332.24 400.114C331.427 399.347 330.451 398.774 329.386 398.436C328.32 398.099 327.192 398.006 326.086 398.164V398.164Z" fill="#F5F5F5"/>
<path d="M322.077 400.103C322.367 399.763 322.726 399.49 323.13 399.301C323.535 399.112 323.975 399.012 324.421 399.008C326.186 399.062 327.889 399.676 329.283 400.76C329.404 400.855 329.499 400.977 329.563 401.117C329.626 401.257 329.655 401.409 329.648 401.563C329.64 401.716 329.596 401.865 329.52 401.998C329.443 402.13 329.336 402.243 329.207 402.326C329.037 402.426 328.84 402.471 328.643 402.453C328.447 402.435 328.261 402.356 328.112 402.227C327.34 401.428 326.393 400.82 325.346 400.451C324.298 400.083 323.179 399.963 322.077 400.103Z" fill="#F5F5F5"/>
<path d="M293.867 231.572C291.786 229.656 289.596 225.067 287.898 227.586C286.803 229.283 289.125 230.433 288.993 232.58C288.862 234.726 282.324 229.634 279.597 227.728C277.779 226.458 273.585 230.433 275.271 234.737C276.761 238.559 279.148 240.979 283.43 242.786C287.953 244.703 290.318 245.656 295.991 248.207C298.532 244.604 300.306 241.045 299.682 237.585C295.225 234.989 295.663 233.226 293.867 231.572Z" fill="#6ED0FF"/>
<path opacity="0.7" d="M293.867 231.572C291.786 229.656 289.596 225.067 287.898 227.586C286.803 229.283 289.125 230.433 288.993 232.58C288.862 234.726 282.324 229.634 279.597 227.728C277.779 226.458 273.585 230.433 275.271 234.737C276.761 238.559 279.148 240.979 283.43 242.786C287.953 244.703 290.318 245.656 295.991 248.207C298.532 244.604 300.306 241.045 299.682 237.585C295.225 234.989 295.663 233.226 293.867 231.572Z" fill="#FFA8A7"/>
<path opacity="0.1" d="M288.556 234.847C288.556 236.774 289.081 239.841 291.841 241.418C291.15 241.323 290.491 241.066 289.92 240.666C289.348 240.266 288.88 239.735 288.556 239.118C288.2 238.462 288.014 237.728 288.014 236.982C288.014 236.236 288.2 235.502 288.556 234.847V234.847Z" fill="black"/>
<path d="M347.605 210.053C345.141 213.338 346.16 211.991 345.415 217.007C344.802 221.048 336.314 259.936 328.626 261.546C325.253 262.258 300.919 251.12 295.017 247.868C297.245 244.787 298.832 241.29 299.682 237.585C306.756 240.355 318.945 243.06 323.326 244.44C325.352 238.789 327.827 232.985 330.149 227.279C334.551 216.426 337.059 208.706 347.605 210.053Z" fill="#7AD4FF"/>
<path d="M379.452 275.837C379.452 284.467 380.043 334.646 380.043 334.646C380.262 337.132 382.65 341.546 382.836 350.493C383.11 363.459 382.595 401.581 382.595 401.581C382.595 401.581 374.491 404.549 368.818 402.184C368.818 402.184 362.784 353.023 361.152 340.188C359.739 328.985 356.859 303.402 356.859 303.402L352.862 337.351C353.451 342.766 353.604 348.219 353.322 353.658C352.906 359.605 347.759 392.864 347.759 392.864C347.759 392.864 339.184 394.66 333.007 392.579C333.007 392.579 333.336 339.049 333.237 333.595C333.117 327.386 335.822 273.954 335.822 273.954L379.452 275.837Z" fill="#6ED0FF"/>
<path opacity="0.4" d="M379.452 275.837C379.452 284.467 380.043 334.646 380.043 334.646C380.262 337.132 382.65 341.546 382.836 350.493C383.11 363.459 382.595 401.581 382.595 401.581C382.595 401.581 374.491 404.549 368.818 402.184C368.818 402.184 362.784 353.023 361.152 340.188C359.739 328.985 356.859 303.402 356.859 303.402L352.862 337.351C353.451 342.766 353.604 348.219 353.322 353.658C352.906 359.605 347.759 392.864 347.759 392.864C347.759 392.864 339.184 394.66 333.007 392.579C333.007 392.579 333.336 339.049 333.237 333.595C333.117 327.386 335.822 273.954 335.822 273.954L379.452 275.837Z" fill="black"/>
<path opacity="0.15" d="M356.859 303.402L356.147 298.113C353.596 297.675 347.2 293.458 343.433 289.823C346.073 294.03 349.696 297.532 353.99 300.029L353.453 333.639L356.859 303.402Z" fill="black"/>
<path d="M363.879 209.9C365.796 210.359 370.45 210.929 373.823 211.904C376.32 212.615 377.371 215.671 377.897 217.971C379.562 225.33 379.857 240.76 379.857 240.76L379.956 276.703C373.724 281.237 348.197 283.537 335.055 273.976C335.055 273.976 336.654 231.167 336.654 224.509C336.654 217.85 340.356 209.845 350.573 209.242L363.879 209.9Z" fill="#DDF3FE"/>
<path opacity="0.1" d="M380.755 258.611C376.889 261.392 371.698 264.974 367.931 267.372C366.836 268.073 365.85 268.675 365.061 269.135C364.098 269.694 362.608 268.927 361.513 268.708C358.589 268.106 356.727 268.577 353.979 268.708C351.788 268.807 350.628 268.204 350.43 268.708C350.259 269.302 350.318 269.939 350.596 270.492C350.875 271.044 351.351 271.471 351.931 271.687C353.198 272.202 354.521 272.57 355.873 272.782C353.658 273.835 351.288 274.523 348.853 274.819C343.892 275.443 341.812 277.009 345.053 280.82C349.851 282.25 354.843 282.923 359.849 282.813C360.944 282.342 362.17 281.718 363.463 281.105C365.28 280.152 369.026 278.039 372.541 276.133C374.184 275.235 375.827 274.381 377.097 273.735C378.367 273.089 379.506 272.552 380.755 271.961V258.611Z" fill="black"/>
<path opacity="0.1" d="M376.911 214.696C371.709 226.14 379.638 235.504 379.638 235.504L380.678 238.625C380.459 234.003 379.682 223.337 376.911 214.696Z" fill="black"/>
<path opacity="0.15" d="M342.776 279.276C343.303 280.634 344.181 281.828 345.319 282.736C346.458 283.644 347.818 284.234 349.259 284.445C352.503 284.725 355.762 284.119 358.688 282.693L357.144 279.276H342.776Z" fill="black"/>
<path d="M365.959 266.212C364.864 266.924 363.879 267.526 363.09 267.986C362.126 268.533 360.637 267.778 359.542 267.559C356.618 266.956 354.756 267.427 352.007 267.559C349.817 267.668 348.656 267.066 348.459 267.559C348.285 268.153 348.343 268.791 348.622 269.344C348.9 269.897 349.378 270.324 349.959 270.537C351.225 271.059 352.549 271.427 353.902 271.633C351.687 272.686 349.317 273.373 346.882 273.67C341.319 274.37 339.358 276.188 344.495 281.182C347.714 284.303 352.215 284.774 361.491 279.956C363.309 279.003 367.054 276.878 370.57 274.973C370.441 273.275 369.965 271.622 369.172 270.115C368.379 268.608 367.286 267.28 365.959 266.212Z" fill="#FFA8A7"/>
<path d="M390.305 224.728C387.02 213.229 382.573 212.265 375.849 211.728C368.906 223.961 377.667 234.376 377.667 234.376L384.03 253.453C383.044 254.548 372.422 262.083 365.96 266.211C367.822 267.734 370.571 272.399 370.571 274.972C372.213 274.085 373.856 273.231 375.127 272.574C384.928 267.701 398.015 262.521 398.234 257.56C398.453 252.599 393.7 236.84 390.305 224.728Z" fill="#7AD4FF"/>
<path d="M352.303 188.829C352.316 189.105 352.41 189.371 352.573 189.595C352.735 189.818 352.96 189.989 353.219 190.086C353.478 190.183 353.76 190.202 354.03 190.14C354.299 190.078 354.545 189.939 354.736 189.739C354.927 189.539 355.055 189.288 355.104 189.015C355.154 188.743 355.122 188.463 355.014 188.208C354.905 187.954 354.724 187.737 354.493 187.585C354.263 187.432 353.992 187.351 353.716 187.35C353.333 187.362 352.971 187.523 352.706 187.8C352.442 188.077 352.297 188.446 352.303 188.829V188.829Z" fill="#263238"/>
<path d="M353.716 184.043L356.64 185.708C356.853 185.309 356.901 184.842 356.774 184.408C356.647 183.975 356.355 183.608 355.961 183.386C355.771 183.279 355.562 183.211 355.345 183.186C355.129 183.161 354.909 183.179 354.7 183.241C354.491 183.302 354.296 183.404 354.127 183.542C353.958 183.68 353.818 183.85 353.716 184.043Z" fill="#263238"/>
<path d="M352.665 197.458L349.379 198.685C349.449 198.903 349.561 199.104 349.709 199.277C349.858 199.451 350.039 199.593 350.243 199.695C350.448 199.797 350.67 199.857 350.898 199.872C351.126 199.887 351.354 199.855 351.57 199.78C352.021 199.615 352.388 199.278 352.593 198.844C352.798 198.409 352.824 197.912 352.665 197.458V197.458Z" fill="#F28F8F"/>
<path d="M341.024 185.215L343.685 183.167C343.561 182.987 343.401 182.833 343.216 182.717C343.031 182.6 342.824 182.523 342.607 182.489C342.391 182.455 342.17 182.466 341.958 182.52C341.746 182.575 341.547 182.672 341.374 182.806C341.015 183.083 340.777 183.49 340.712 183.939C340.647 184.389 340.758 184.846 341.024 185.215Z" fill="#263238"/>
<path d="M341.625 188.829C341.636 189.097 341.726 189.357 341.883 189.575C342.04 189.793 342.258 189.96 342.51 190.055C342.761 190.15 343.035 190.168 343.297 190.109C343.56 190.049 343.798 189.913 343.984 189.719C344.169 189.524 344.294 189.279 344.341 189.015C344.388 188.75 344.356 188.477 344.25 188.231C344.143 187.984 343.966 187.774 343.741 187.627C343.516 187.48 343.252 187.403 342.983 187.405C342.801 187.409 342.621 187.45 342.454 187.523C342.286 187.597 342.136 187.703 342.009 187.836C341.883 187.968 341.784 188.124 341.719 188.294C341.653 188.464 341.621 188.646 341.625 188.829Z" fill="#263238"/>
<path d="M349.04 186.463L348.569 195.06L344.068 193.527L349.04 186.463Z" fill="#F28F8F"/>
<path d="M367.154 174.756C367.154 174.756 370.297 175.194 371.447 177.56C372.443 179.619 372.082 184.591 370.746 190.012C369.985 193.516 368.854 196.93 367.373 200.196C366.849 201.12 365.99 201.806 364.974 202.113L365.128 195.684L365.358 191.205C365.358 191.205 362.488 187.274 362.171 184.054C361.766 179.914 362.631 178.217 362.631 178.217L367.154 174.756Z" fill="#263238"/>
<path d="M362.072 180.966C362.052 184.147 360.773 187.192 358.516 189.434C356.26 191.677 353.207 192.936 350.025 192.936C347.007 192.685 344.194 191.306 342.146 189.074C340.099 186.842 338.967 183.921 338.977 180.892C338.986 177.863 340.137 174.949 342.198 172.73C344.26 170.512 347.082 169.151 350.102 168.919C353.284 168.939 356.328 170.218 358.571 172.475C360.813 174.731 362.072 177.784 362.072 180.966Z" fill="#263238"/>
<path d="M365.193 190.483C366.288 191.414 367.154 188.993 368.063 188.041C368.972 187.088 371.928 185.85 373.396 188.928C374.863 192.005 372.104 196.594 369.826 197.437C369.142 197.699 368.39 197.725 367.689 197.51C366.989 197.296 366.38 196.854 365.96 196.254V210.491C362.543 216.645 356.509 216.459 353.289 216.109C350.069 215.758 349.358 212.418 351.712 209.713V205.333C349.923 205.611 348.109 205.695 346.302 205.585C343.345 205.125 341.801 202.902 340.925 199.704C339.501 194.568 338.932 185.927 340.925 175.961C344.211 173.399 355.688 173.771 362.62 178.217C362.127 187.055 364.109 189.541 365.193 190.483Z" fill="#FFA8A7"/>
<path d="M342.173 171.592C343.523 170.126 345.17 168.965 347.003 168.186C348.485 167.551 350.078 167.212 351.69 167.189C353.782 167.189 355.874 166.882 357.965 166.948C361.601 167.058 365.982 168.536 367.624 172.073C368.38 173.694 368.5 175.359 367.022 176.454C365.696 177.35 364.176 177.917 362.587 178.108C359.904 178.579 357.231 179.203 354.516 179.531C351.612 180.026 348.643 179.985 345.754 179.411C344.403 179.096 343.117 178.547 341.954 177.79C341.366 177.385 340.816 176.927 340.312 176.421C340.125 176.224 339.611 175.819 339.545 175.545C339.479 175.271 339.841 174.746 339.972 174.45C340.571 173.4 341.312 172.439 342.173 171.592V171.592Z" fill="#263238"/>
<path d="M351.745 205.322C351.745 205.322 358.315 204.008 360.637 202.792C361.997 202.098 363.113 201.005 363.835 199.66C363.483 201.003 362.865 202.262 362.017 203.361C360.32 205.552 351.734 207.074 351.734 207.074L351.745 205.322Z" fill="#F28F8F"/>
<path d="M352.938 188.292C352.932 188.469 352.962 188.645 353.025 188.81C353.088 188.975 353.184 189.126 353.307 189.254C353.429 189.381 353.576 189.483 353.738 189.553C353.901 189.623 354.075 189.66 354.252 189.661C354.609 189.652 354.947 189.504 355.195 189.248C355.443 188.992 355.58 188.649 355.577 188.292C355.594 188.109 355.572 187.924 355.514 187.749C355.455 187.575 355.361 187.414 355.236 187.278C355.112 187.142 354.961 187.034 354.793 186.959C354.624 186.885 354.442 186.847 354.258 186.847C354.074 186.847 353.891 186.885 353.723 186.959C353.554 187.034 353.403 187.142 353.279 187.278C353.155 187.414 353.06 187.575 353.002 187.749C352.943 187.924 352.921 188.109 352.938 188.292V188.292Z" fill="#263238"/>
<path d="M354.252 183.693L357.187 185.018C357.356 184.616 357.364 184.164 357.21 183.756C357.055 183.348 356.749 183.016 356.355 182.827C356.161 182.74 355.951 182.694 355.738 182.69C355.525 182.687 355.314 182.727 355.117 182.808C354.921 182.889 354.742 183.009 354.594 183.161C354.445 183.313 354.329 183.494 354.252 183.693V183.693Z" fill="#263238"/>
<path d="M352.807 197.283L348.59 198.849C348.678 199.135 348.822 199.4 349.016 199.627C349.209 199.855 349.447 200.041 349.714 200.173C349.982 200.305 350.274 200.381 350.572 200.397C350.871 200.412 351.169 200.366 351.449 200.262C352.014 200.034 352.47 199.598 352.722 199.044C352.975 198.49 353.005 197.859 352.807 197.283V197.283Z" fill="#B16668"/>
<path d="M351.449 200.262C351.073 200.394 350.668 200.424 350.277 200.35C350.297 199.823 350.52 199.324 350.9 198.959C351.28 198.593 351.787 198.389 352.314 198.389C352.507 198.39 352.699 198.42 352.883 198.477C352.822 198.874 352.657 199.249 352.405 199.562C352.153 199.875 351.823 200.117 351.449 200.262V200.262Z" fill="#F28F8F"/>
<path d="M341.899 184.481L344.954 183.386C344.892 183.183 344.788 182.995 344.65 182.833C344.512 182.672 344.342 182.54 344.152 182.447C343.961 182.354 343.753 182.3 343.54 182.29C343.328 182.281 343.116 182.314 342.917 182.39C342.516 182.547 342.189 182.85 342.001 183.237C341.812 183.624 341.776 184.068 341.899 184.481V184.481Z" fill="#263238"/>
<path d="M342.064 187.898C342.047 188.081 342.069 188.266 342.128 188.441C342.186 188.615 342.281 188.776 342.405 188.912C342.529 189.048 342.68 189.156 342.849 189.231C343.017 189.305 343.199 189.343 343.383 189.343C343.568 189.343 343.75 189.305 343.918 189.231C344.087 189.156 344.238 189.048 344.362 188.912C344.486 188.776 344.581 188.615 344.639 188.441C344.698 188.266 344.72 188.081 344.703 187.898C344.709 187.721 344.679 187.545 344.616 187.38C344.553 187.215 344.457 187.064 344.335 186.936C344.212 186.809 344.065 186.707 343.903 186.637C343.741 186.567 343.566 186.53 343.389 186.529C343.033 186.538 342.694 186.686 342.446 186.942C342.198 187.198 342.061 187.542 342.064 187.898V187.898Z" fill="#263238"/>
<path d="M349.522 184.481L349.04 195.06L343.685 193.647L349.522 184.481Z" fill="#F28F8F"/>
<path d="M355.38 175.643C353.114 174.877 347.32 174.428 345.623 174.964C344.839 174.318 344.153 173.562 343.586 172.719C342.797 171.46 343.06 169.872 343.805 169.554C344.55 169.237 344.604 170.2 347.485 171.635C347.105 170.712 347.02 169.694 347.244 168.722C347.714 167.55 348.711 169.653 350.847 171C352.982 172.347 355.107 173.048 355.38 175.643Z" fill="#263238"/>
<path d="M355.216 140.807L358.677 134.302L355.895 126.263V121.346L364.415 126.263V131.181L360.757 137.521C360.699 137.619 360.611 137.696 360.506 137.74V137.74L355.216 140.807Z" fill="#6ED0FF"/>
<path opacity="0.2" d="M355.216 140.807L358.677 134.302L355.895 126.263V121.346L364.415 126.263V131.181L360.757 137.521C360.699 137.619 360.611 137.696 360.506 137.74V137.74L355.216 140.807Z" fill="black"/>
<path d="M339.928 85.2402C339.984 84.3608 340.245 83.5067 340.69 82.7461C341.135 81.9855 341.752 81.3395 342.491 80.8597L344.561 79.666C345.352 79.2613 346.229 79.0503 347.118 79.0503C348.007 79.0503 348.883 79.2613 349.675 79.666L375.586 94.5489C376.324 95.0287 376.94 95.6749 377.383 96.4357C377.826 97.1965 378.084 98.0506 378.138 98.9295V133.974C378.084 134.853 377.825 135.706 377.382 136.467C376.939 137.228 376.324 137.874 375.586 138.354L373.505 139.559C372.712 139.959 371.836 140.167 370.948 140.167C370.06 140.167 369.184 139.959 368.391 139.559L359.049 134.313L355.392 140.643C355.341 140.736 355.264 140.813 355.171 140.862C355.077 140.912 354.971 140.933 354.866 140.922C354.76 140.912 354.661 140.87 354.579 140.803C354.497 140.736 354.437 140.646 354.406 140.545L350.54 129.396L342.458 124.753C341.721 124.271 341.107 123.624 340.664 122.864C340.222 122.104 339.962 121.25 339.906 120.372L339.928 85.2402Z" fill="#6ED0FF"/>
<path opacity="0.2" d="M378.138 134.061C378.084 134.939 377.826 135.794 377.383 136.554C376.94 137.315 376.324 137.961 375.586 138.441L373.505 139.646C372.784 140.008 371.994 140.213 371.188 140.247C370.382 140.281 369.578 140.143 368.829 139.843C370.034 140.303 370.953 139.624 370.953 138.167V103.123C370.925 102.232 370.664 101.364 370.198 100.604L377.393 96.4536C377.852 97.2161 378.108 98.0831 378.138 98.9724V134.061Z" fill="black"/>
<path opacity="0.5" d="M340.017 84.5168C340.313 83.4216 341.298 83.0821 342.481 83.7611L368.403 98.6988C369.159 99.1646 369.779 99.822 370.199 100.604L377.383 96.4538C376.959 95.6738 376.341 95.0172 375.587 94.5482L349.676 79.6215C348.885 79.222 348.011 79.0139 347.124 79.0139C346.238 79.0139 345.364 79.222 344.573 79.6215L342.481 80.8262C341.841 81.2418 341.293 81.7834 340.869 82.4179C340.445 83.0524 340.155 83.7665 340.017 84.5168V84.5168Z" fill="white"/>
<path d="M351.822 123.394H351.504C351.122 123.342 350.759 123.194 350.449 122.964C350.139 122.734 349.892 122.43 349.73 122.08L345.13 112.311C344.981 112.035 344.89 111.731 344.862 111.419C344.833 111.106 344.87 110.791 344.967 110.492C345.065 110.194 345.223 109.919 345.431 109.683C345.638 109.448 345.892 109.257 346.176 109.123C346.46 108.989 346.768 108.914 347.082 108.903C347.396 108.892 347.709 108.945 348.001 109.059C348.294 109.173 348.56 109.345 348.784 109.566C349.008 109.786 349.184 110.049 349.303 110.34L352.391 116.911L362.992 104.569C363.188 104.332 363.429 104.137 363.701 103.995C363.973 103.853 364.27 103.766 364.576 103.74C364.882 103.714 365.19 103.75 365.482 103.844C365.775 103.938 366.045 104.09 366.278 104.29C366.511 104.49 366.701 104.735 366.838 105.009C366.976 105.284 367.057 105.583 367.077 105.889C367.098 106.196 367.057 106.503 366.957 106.793C366.857 107.084 366.701 107.351 366.496 107.58L353.574 122.595C353.358 122.848 353.089 123.051 352.786 123.189C352.484 123.327 352.154 123.397 351.822 123.394V123.394Z" fill="#FAFAFA"/>
<path d="M309.268 243.924L270.117 223.572L237.899 271.653L276.696 294.756L309.268 243.924Z" fill="#455A64"/>
<path d="M303.534 245.092L271.331 227.062C271.331 227.062 246.661 268.287 235.455 266.55L273.222 288.316C273.222 288.316 292.574 269.978 303.534 245.092Z" fill="#F5F5F5"/>
<path d="M286.487 244.077C287.934 245.04 289.438 245.912 290.991 246.691C292.481 247.56 294.021 248.34 295.603 249.027C294.161 248.065 292.662 247.192 291.114 246.414C289.622 245.539 288.077 244.759 286.487 244.077V244.077Z" fill="#263238"/>
<path d="M295.495 234.501L291.191 240.312L279.401 233.579L282.967 227.108L295.495 234.501Z" fill="#E0E0E0"/>
<path d="M268.78 242.171C269.051 242.38 269.338 242.565 269.641 242.725L272.085 244.124L280.185 248.643L288.332 253.07L290.822 254.391C291.119 254.567 291.433 254.712 291.76 254.822C291.48 254.623 291.187 254.443 290.884 254.284L288.44 252.87L280.339 248.366L272.192 243.924L269.702 242.617C269.405 242.447 269.097 242.298 268.78 242.171Z" fill="#263238"/>
<path d="M267.627 243.662C267.905 243.868 268.198 244.053 268.503 244.216L270.932 245.614L279.032 250.134L287.179 254.561L289.669 255.867C289.966 256.048 290.28 256.197 290.607 256.313C290.329 256.107 290.036 255.922 289.731 255.759L287.302 254.361L279.186 249.842L271.039 245.415L268.565 244.108C268.264 243.936 267.95 243.787 267.627 243.662V243.662Z" fill="#263238"/>
<path d="M266.382 245.584C266.657 245.794 266.95 245.979 267.258 246.137L269.686 247.536L277.787 252.055L285.934 256.482L288.424 257.804C288.729 257.968 289.042 258.117 289.362 258.25C289.088 258.037 288.795 257.852 288.485 257.696L286.057 256.297L277.941 251.778L269.794 247.336L267.304 246.029C267.007 245.86 266.699 245.711 266.382 245.584V245.584Z" fill="#263238"/>
<path d="M265.244 247.551C265.525 247.752 265.818 247.937 266.12 248.105L268.564 249.503L276.665 254.023L284.812 258.449L287.302 259.771C287.596 259.942 287.905 260.086 288.224 260.202C287.955 259.996 287.667 259.816 287.363 259.664L284.919 258.25L276.819 253.746L268.672 249.304L266.182 247.997C265.881 247.825 265.568 247.676 265.244 247.551V247.551Z" fill="#263238"/>
<path d="M263.738 249.672C264.014 249.88 264.308 250.065 264.614 250.226L267.058 251.625L275.159 256.144L283.305 260.586L285.796 261.892C286.094 262.068 286.408 262.217 286.733 262.338C286.457 262.13 286.163 261.945 285.857 261.785L283.413 260.386L275.312 255.867L267.166 251.425L264.676 250.118C264.377 249.942 264.063 249.793 263.738 249.672Z" fill="#263238"/>
<path d="M262.139 251.609C262.413 251.822 262.706 252.007 263.015 252.163L265.459 253.561L273.56 258.081C276.634 259.741 279.355 261.247 281.707 262.508L284.181 263.829C284.484 263.998 284.797 264.147 285.119 264.275C284.853 264.06 284.565 263.874 284.258 263.722L281.814 262.323L273.714 257.804L265.567 253.362L263.077 252.055C262.776 251.883 262.463 251.734 262.139 251.609V251.609Z" fill="#263238"/>
<path d="M272.822 264.921C273.844 265.749 274.952 266.466 276.127 267.057C277.25 267.731 278.447 268.272 279.693 268.671C279.693 268.594 278.156 267.81 276.281 266.765C275.162 266.09 274.007 265.474 272.822 264.921V264.921Z" fill="#263238"/>
<path d="M265.659 267.334L266.136 267.718L267.504 268.763L272.607 272.576L276.158 275.189C276.327 275.34 276.538 275.437 276.764 275.464C276.989 275.492 277.218 275.449 277.418 275.342C277.53 275.274 277.618 275.171 277.668 275.05C277.718 274.928 277.727 274.794 277.695 274.666C277.628 274.445 277.506 274.244 277.341 274.082C276.726 273.467 276.096 272.883 275.435 272.299C274.051 271.044 272.594 269.874 271.07 268.794C270.629 268.463 270.084 268.299 269.533 268.333C269.262 268.377 269.008 268.493 268.797 268.669C268.586 268.845 268.426 269.074 268.334 269.332C268.138 269.82 268.044 270.343 268.057 270.869C268.049 271.419 268.216 271.957 268.534 272.406C268.797 272.695 269.151 272.884 269.537 272.943C269.923 273.002 270.318 272.926 270.655 272.729C271.296 272.364 271.826 271.833 272.192 271.192C272.916 270.036 273.294 268.698 273.283 267.334V266.873L273.007 267.242C272.041 268.538 271.365 270.027 271.024 271.607C270.814 272.341 270.757 273.11 270.855 273.867C270.898 274.061 270.986 274.242 271.111 274.397C271.237 274.552 271.396 274.675 271.577 274.758C271.763 274.82 271.96 274.836 272.153 274.803C272.346 274.771 272.528 274.692 272.684 274.574C273.57 273.78 274.278 272.809 274.763 271.723C275.247 270.637 275.497 269.461 275.497 268.272V268.041L275.343 268.195C274.384 269.187 273.835 270.504 273.806 271.884C273.786 272.368 273.854 272.853 274.006 273.313C273.925 272.841 273.889 272.363 273.898 271.884C273.96 270.552 274.506 269.289 275.435 268.333H275.282C275.275 269.494 275.026 270.641 274.549 271.7C274.073 272.759 273.38 273.707 272.515 274.482C272.393 274.572 272.252 274.633 272.102 274.659C271.953 274.686 271.8 274.678 271.654 274.635C271.513 274.567 271.388 274.468 271.29 274.346C271.192 274.223 271.122 274.081 271.085 273.928C270.985 273.213 271.038 272.485 271.239 271.792C271.567 270.253 272.228 268.805 273.176 267.549L272.899 267.457C272.895 268.759 272.534 270.035 271.854 271.146C271.526 271.727 271.055 272.214 270.486 272.56C270.213 272.723 269.892 272.786 269.578 272.739C269.264 272.691 268.976 272.536 268.764 272.299C268.529 271.886 268.392 271.424 268.366 270.949C268.339 270.474 268.423 270 268.61 269.563C268.68 269.353 268.806 269.166 268.974 269.023C269.142 268.879 269.346 268.784 269.563 268.748C270.017 268.731 270.463 268.872 270.824 269.148C272.334 270.216 273.781 271.371 275.159 272.606C275.819 273.19 276.465 273.774 277.065 274.359C277.357 274.635 277.495 275.035 277.188 275.219C277.029 275.291 276.852 275.315 276.68 275.288C276.508 275.26 276.348 275.183 276.219 275.066L272.668 272.483L267.504 268.763L266.09 267.764C265.844 267.442 265.659 267.334 265.659 267.334Z" fill="#263238"/>
<path d="M257.758 255.882C259.301 257.137 260.976 258.219 262.754 259.11C262.015 258.44 261.206 257.852 260.34 257.358C259.537 256.771 258.671 256.276 257.758 255.882V255.882Z" fill="#263238"/>
<path d="M259.014 262.879L261.514 264.543L260.004 266.811L257.505 265.148L259.014 262.879L259.014 262.879ZM258.325 265.024L259.802 266.007L260.694 264.667L259.217 263.684L258.325 265.024L258.325 265.024Z" fill="#676767"/>
<path d="M259.92 264.783L259.409 264.443L259.1 264.907L259.611 265.247L259.92 264.783Z" fill="#676767"/>
<path d="M257.479 270.606L254.979 268.942L256.489 266.674L258.988 268.338L257.479 270.606ZM258.168 268.462L256.691 267.479L255.799 268.819L257.276 269.802L258.168 268.462Z" fill="#676767"/>
<path d="M252.153 264.123L252.664 264.463L251.618 266.035L252.118 266.368L252.348 266.023L252.859 266.364L252.63 266.709L253.254 267.124L252.945 267.588L250.798 266.159L252.153 264.123Z" fill="#676767"/>
<path d="M257.394 268.578L256.883 268.238L256.574 268.702L257.085 269.042L257.394 268.578Z" fill="#676767"/>
<path d="M254.833 260.097L257.332 261.76L255.823 264.028L253.323 262.365L254.833 260.097ZM254.143 262.241L255.62 263.224L256.512 261.884L255.035 260.901L254.143 262.241Z" fill="#676767"/>
<path d="M255.737 262L255.226 261.66L254.917 262.124L255.428 262.464L255.737 262Z" fill="#676767"/>
<path d="M258.628 266.662L257.151 265.679L256.843 266.143L258.319 267.126L258.628 266.662Z" fill="#676767"/>
<path d="M259.651 267.343L259.139 267.002L258.831 267.466L259.342 267.807L259.651 267.343Z" fill="#676767"/>
<path d="M256.64 265.339L254.737 264.072L254.428 264.536L256.331 265.803L256.64 265.339Z" fill="#676767"/>
<path d="M252.462 263.659L252.969 262.896L254.226 263.732L253.917 264.196L253.172 263.7L252.973 263.999L252.462 263.659Z" fill="#676767"/>
<path d="M257.811 263.418L257.3 263.077L256.408 264.418L256.919 264.758L257.811 263.418Z" fill="#676767"/>
<path d="M258.428 262.49L257.917 262.15L257.608 262.614L258.12 262.954L258.428 262.49Z" fill="#676767"/>
<path d="M254.5 267.284L254.12 267.031L254.429 266.567L254.809 266.82L255.392 265.944L255.903 266.284L254.394 268.552L253.456 267.928L253.765 267.464L254.191 267.748L254.5 267.284Z" fill="#676767"/>
<path d="M253.803 266.054L253.292 265.713L253.521 265.368L253.106 265.092L253.415 264.628L254.756 265.521L254.448 265.985L254.033 265.709L253.803 266.054Z" fill="#676767"/>
<path d="M256.217 259.679L255.908 260.143L254.629 259.292L253.857 260.452L253.346 260.112L254.427 258.488L256.217 259.679Z" fill="#676767"/>
<path d="M262.334 264.42L261.055 263.569L261.364 263.105L263.154 264.296L262.073 265.92L261.562 265.58L262.334 264.42Z" fill="#676767"/>
<path d="M249.977 266.283L251.256 267.134L250.947 267.598L249.157 266.406L250.238 264.782L250.749 265.122L249.977 266.283Z" fill="#676767"/>
<path d="M258.453 270.251L258.964 270.591L257.884 272.215L256.093 271.023L256.402 270.559L257.681 271.411L258.453 270.251Z" fill="#676767"/>
<path d="M350 256.647L355.238 223C355.619 223.414 356.984 223.173 357.619 223L360 256.647L356.104 265.118C355.754 265.878 354.681 265.898 354.303 265.152L350 256.647Z" fill="#7AD4FF"/>
<path d="M358.262 256.647L356.262 223C356.643 223.414 356.746 223.173 357.381 223L359.762 256.647L355.5 265.5L358.262 256.647Z" fill="#6ACCFB"/>
<path d="M369 209.883C368.2 208.283 366.667 209.217 366 209.883C362.8 214.683 359.333 215.55 358 215.384L369.5 224.384C369.667 220.217 369.8 211.483 369 209.883Z" fill="#7AD4FF"/>
<path d="M350 208.5C351.666 207.85 351.453 208.559 351.5 209.5C349 215 353.399 215.73 354.5 216.5L341.5 221C344.17 217.798 348.334 209.151 350 208.5Z" fill="#7AD4FF"/>
<path d="M353 219L354.5 216H358.5L360 219C360 220.2 358.5 222.5 358 223.5C357.5 223.667 355.8 223.9 355 223.5C354.2 223.1 353.333 220.333 353 219Z" fill="#9DE0FF"/>
<path d="M359.131 219L357.631 216H358.631L360.131 219C360.131 220.2 358.631 222.5 358.131 223.5C357.631 223.667 357.931 223.9 357.131 223.5C356.331 223.1 359.465 220.333 359.131 219Z" fill="#89D7FC"/>
</svg>
