<svg width="34" height="34" viewBox="0 0 34 34" fill="none" xmlns="http://www.w3.org/2000/svg">
<circle cx="17" cy="17" r="17" fill="#2DBDFF"/>
<path d="M25.6422 11.2711C18.0056 7.8561 11.3236 9.84816 8.93721 11.2711C10.4059 9.81659 13.1223 8.97859 14.2969 8.7414L14.0622 8.50428C11.621 8.40942 9.13282 9.914 8.1939 10.6781C5.59621 15.769 5.05112 20.678 5.10328 22.4961C6.54296 24.7727 9.92829 25.4473 11.441 25.5L12.7711 23.8004C11.0498 23.3577 9.68052 22.0877 9.21106 21.508C16.5659 25.4289 23.1775 23.0363 25.5639 21.3499C24.7189 22.5831 22.7341 23.4184 21.8474 23.6819L23.1775 25.3419C26.4012 25.5 28.9023 23.4579 29.75 22.4171C29.4683 16.8203 27.5983 12.2591 26.6985 10.6781C24.3199 8.84419 21.8213 8.46475 20.8693 8.50428L20.5564 8.82048C22.7472 9.42126 24.8598 10.7045 25.6422 11.2711Z" fill="#F2F7FD"/>
<path d="M21.4625 21.25C22.6337 21.25 23.5875 20.2967 23.5875 19.121C23.5875 17.9533 22.6387 17 21.4625 17V17.0048C20.2962 17.0048 19.3408 17.9549 19.3375 19.1306C19.3375 20.2967 20.2913 21.25 21.4625 21.25Z" fill="#2DBDFF"/>
<path d="M13.175 21.25C14.3463 21.25 15.3 20.2967 15.3 19.121C15.3 17.9533 14.3529 17 13.1816 17L13.175 17.0048C12.0038 17.0048 11.05 17.9549 11.05 19.1306C11.05 20.2967 12.0038 21.25 13.175 21.25V21.25Z" fill="#2DBDFF"/>
</svg>
