<svg width="184" height="78" viewBox="0 0 184 78" fill="none" xmlns="http://www.w3.org/2000/svg">
<g opacity="0.6">
<rect x="82.3848" y="0.000183105" width="5.33976" height="5.33976" fill="#82D8FF"/>
<rect x="137.308" y="0.000183105" width="5.33976" height="5.33976" fill="#82D8FF"/>
<rect x="109.846" y="0.000183105" width="5.33976" height="5.33976" fill="#82D8FF"/>
<rect x="164.77" y="0.000183105" width="5.33976" height="5.33976" fill="#82D8FF"/>
<rect x="96.1157" y="0.000183105" width="5.33976" height="5.33976" fill="#82D8FF"/>
<rect x="151.039" y="0.000183105" width="5.33976" height="5.33976" fill="#82D8FF"/>
<rect x="123.577" y="0.000183105" width="5.33976" height="5.33976" fill="#82D8FF"/>
<rect x="178.5" y="0.000183105" width="5.33976" height="5.33976" fill="#82D8FF"/>
<rect x="82.3848" y="14.4939" width="5.33976" height="5.33976" fill="#82D8FF"/>
<rect x="137.308" y="14.4939" width="5.33976" height="5.33976" fill="#82D8FF"/>
<rect x="109.846" y="14.4939" width="5.33976" height="5.33976" fill="#82D8FF"/>
<rect x="96.1157" y="14.4939" width="5.33976" height="5.33976" fill="#82D8FF"/>
<rect x="151.039" y="14.4939" width="5.33976" height="5.33976" fill="#82D8FF"/>
<rect x="123.577" y="14.4939" width="5.33976" height="5.33976" fill="#82D8FF"/>
<rect x="27.4617" y="28.9873" width="5.33976" height="5.33976" fill="#82D8FF"/>
<rect y="28.9873" width="5.33976" height="5.33976" fill="#82D8FF"/>
<rect x="41.1924" y="28.9873" width="5.33976" height="5.33976" fill="#82D8FF"/>
<rect x="13.731" y="28.9873" width="5.33976" height="5.33976" fill="#82D8FF"/>
<rect x="13.731" y="57.9748" width="5.33976" height="5.33976" fill="#82D8FF"/>
<rect x="27.4617" width="5.33976" height="5.33976" fill="#82D8FF"/>
<rect width="5.33976" height="5.33976" fill="#82D8FF"/>
<rect x="54.9233" width="5.33976" height="5.33976" fill="#82D8FF"/>
<rect x="41.1924" width="5.33976" height="5.33976" fill="#82D8FF"/>
<rect x="13.731" width="5.33976" height="5.33976" fill="#82D8FF"/>
<rect x="68.6541" width="5.33976" height="5.33976" fill="#82D8FF"/>
<rect y="43.481" width="5.33976" height="5.33976" fill="#82D8FF"/>
<rect x="13.731" y="43.481" width="5.33976" height="5.33976" fill="#82D8FF"/>
<rect x="13.731" y="72.4683" width="5.33976" height="5.33976" fill="#82D8FF"/>
<rect x="27.4617" y="14.4937" width="5.33976" height="5.33976" fill="#82D8FF"/>
<rect y="14.4937" width="5.33976" height="5.33976" fill="#82D8FF"/>
<rect x="54.9233" y="14.4937" width="5.33976" height="5.33976" fill="#82D8FF"/>
<rect x="41.1924" y="14.4937" width="5.33976" height="5.33976" fill="#82D8FF"/>
<rect x="13.731" y="14.4937" width="5.33976" height="5.33976" fill="#82D8FF"/>
<rect x="68.6541" y="14.4937" width="5.33976" height="5.33976" fill="#82D8FF"/>
</g>
</svg>
