<svg width="101" height="184" viewBox="0 0 101 184" fill="none" xmlns="http://www.w3.org/2000/svg">
<g opacity="0.6">
<rect width="5.33976" height="5.33976" transform="matrix(-1.19249e-08 -1 -1 1.19249e-08 48.821 101.456)" fill="#82D8FF"/>
<rect width="5.33976" height="5.33976" transform="matrix(-1.19249e-08 -1 -1 1.19249e-08 48.821 73.9938)" fill="#82D8FF"/>
<rect width="5.33976" height="5.33976" transform="matrix(-1.19249e-08 -1 -1 1.19249e-08 48.821 87.7246)" fill="#82D8FF"/>
<rect width="5.33976" height="5.33976" transform="matrix(-1.19249e-08 -1 -1 1.19249e-08 77.8081 101.456)" fill="#82D8FF"/>
<rect width="5.33976" height="5.33976" transform="matrix(-1.19249e-08 -1 -1 1.19249e-08 77.8081 46.5323)" fill="#82D8FF"/>
<rect width="5.33976" height="5.33976" transform="matrix(-1.19249e-08 -1 -1 1.19249e-08 77.8081 73.9938)" fill="#82D8FF"/>
<rect width="5.33976" height="5.33976" transform="matrix(-1.19249e-08 -1 -1 1.19249e-08 77.8081 19.0706)" fill="#82D8FF"/>
<rect width="5.33976" height="5.33976" transform="matrix(-1.19249e-08 -1 -1 1.19249e-08 48.821 19.0706)" fill="#82D8FF"/>
<rect width="5.33976" height="5.33976" transform="matrix(-1.19249e-08 -1 -1 1.19249e-08 77.8081 87.7246)" fill="#82D8FF"/>
<rect width="5.33976" height="5.33976" transform="matrix(-1.19249e-08 -1 -1 1.19249e-08 77.8081 32.8014)" fill="#82D8FF"/>
<rect width="5.33976" height="5.33976" transform="matrix(-1.19249e-08 -1 -1 1.19249e-08 77.8081 60.263)" fill="#82D8FF"/>
<rect width="5.33976" height="5.33976" transform="matrix(-1.19249e-08 -1 -1 1.19249e-08 19.8337 101.456)" fill="#82D8FF"/>
<rect width="5.33976" height="5.33976" transform="matrix(-1.19249e-08 -1 -1 1.19249e-08 19.8337 87.7246)" fill="#82D8FF"/>
<rect width="5.33976" height="5.33976" transform="matrix(-1.19249e-08 -1 -1 1.19249e-08 92.3018 101.456)" fill="#82D8FF"/>
<rect width="5.33976" height="5.33976" transform="matrix(-1.19249e-08 -1 -1 1.19249e-08 92.3018 46.5323)" fill="#82D8FF"/>
<rect width="5.33976" height="5.33976" transform="matrix(-1.19249e-08 -1 -1 1.19249e-08 92.3018 73.9938)" fill="#82D8FF"/>
<rect width="5.33976" height="5.33976" transform="matrix(-1.19249e-08 -1 -1 1.19249e-08 92.3018 19.0706)" fill="#82D8FF"/>
<rect width="5.33976" height="5.33976" transform="matrix(-1.19249e-08 -1 -1 1.19249e-08 63.3145 19.0706)" fill="#82D8FF"/>
<rect width="5.33976" height="5.33976" transform="matrix(-1.19249e-08 -1 -1 1.19249e-08 92.3018 87.7246)" fill="#82D8FF"/>
<rect width="5.33976" height="5.33976" transform="matrix(-1.19249e-08 -1 -1 1.19249e-08 92.3018 32.8014)" fill="#82D8FF"/>
<rect width="5.33976" height="5.33976" transform="matrix(-1.19249e-08 -1 -1 1.19249e-08 92.3018 60.263)" fill="#82D8FF"/>
<rect width="5.33976" height="5.33976" transform="matrix(-1.19249e-08 -1 -1 1.19249e-08 92.3018 5.33978)" fill="#82D8FF"/>
<rect width="5.33976" height="5.33976" transform="matrix(-1.19249e-08 -1 -1 1.19249e-08 34.3274 101.456)" fill="#82D8FF"/>
<rect width="5.33976" height="5.33976" transform="matrix(-1.19249e-08 -1 -1 1.19249e-08 34.3271 87.7246)" fill="#82D8FF"/>
<rect width="5.33976" height="5.33976" transform="matrix(-1.19249e-08 -1 -1 1.19249e-08 63.3145 101.456)" fill="#82D8FF"/>
<rect width="5.33976" height="5.33976" transform="matrix(-1.19249e-08 -1 -1 1.19249e-08 63.3145 73.9938)" fill="#82D8FF"/>
<rect width="5.33976" height="5.33976" transform="matrix(-1.19249e-08 -1 -1 1.19249e-08 63.3145 87.7246)" fill="#82D8FF"/>
<rect width="5.33976" height="5.33976" transform="matrix(-1.19249e-08 -1 -1 1.19249e-08 63.3145 60.263)" fill="#82D8FF"/>
<rect width="5.33976" height="5.33976" transform="matrix(-1.19249e-08 -1 -1 1.19249e-08 5.33984 101.456)" fill="#82D8FF"/>
<rect width="5.33976" height="5.33976" transform="matrix(-1.19249e-08 -1 -1 1.19249e-08 77.8083 156.379)" fill="#82D8FF"/>
<rect width="5.33976" height="5.33976" transform="matrix(-1.19249e-08 -1 -1 1.19249e-08 77.8083 183.84)" fill="#82D8FF"/>
<rect width="5.33976" height="5.33976" transform="matrix(-1.19249e-08 -1 -1 1.19249e-08 77.8083 128.917)" fill="#82D8FF"/>
<rect width="5.33976" height="5.33976" transform="matrix(-1.19249e-08 -1 -1 1.19249e-08 77.8083 142.648)" fill="#82D8FF"/>
<rect width="5.33976" height="5.33976" transform="matrix(-1.19249e-08 -1 -1 1.19249e-08 77.8083 170.109)" fill="#82D8FF"/>
<rect width="5.33976" height="5.33976" transform="matrix(-1.19249e-08 -1 -1 1.19249e-08 77.8083 115.186)" fill="#82D8FF"/>
<rect width="5.33976" height="5.33976" transform="matrix(-1.19249e-08 -1 -1 1.19249e-08 19.834 183.84)" fill="#82D8FF"/>
<rect width="5.33976" height="5.33976" transform="matrix(-1.19249e-08 -1 -1 1.19249e-08 48.8208 156.379)" fill="#82D8FF"/>
<rect width="5.33976" height="5.33976" transform="matrix(-1.19249e-08 -1 -1 1.19249e-08 48.8208 183.84)" fill="#82D8FF"/>
<rect width="5.33976" height="5.33976" transform="matrix(-1.19249e-08 -1 -1 1.19249e-08 48.8208 128.917)" fill="#82D8FF"/>
<rect width="5.33976" height="5.33976" transform="matrix(-1.19249e-08 -1 -1 1.19249e-08 19.834 128.917)" fill="#82D8FF"/>
<rect width="5.33976" height="5.33976" transform="matrix(-1.19249e-08 -1 -1 1.19249e-08 48.8208 142.648)" fill="#82D8FF"/>
<rect width="5.33976" height="5.33976" transform="matrix(-1.19249e-08 -1 -1 1.19249e-08 48.8208 170.109)" fill="#82D8FF"/>
<rect width="5.33976" height="5.33976" transform="matrix(-1.19249e-08 -1 -1 1.19249e-08 63.3147 156.379)" fill="#82D8FF"/>
<rect width="5.33976" height="5.33976" transform="matrix(-1.19249e-08 -1 -1 1.19249e-08 63.3147 183.84)" fill="#82D8FF"/>
<rect width="5.33976" height="5.33976" transform="matrix(-1.19249e-08 -1 -1 1.19249e-08 63.3147 128.917)" fill="#82D8FF"/>
<rect width="5.33976" height="5.33976" transform="matrix(-1.19249e-08 -1 -1 1.19249e-08 34.3274 128.917)" fill="#82D8FF"/>
<rect width="5.33976" height="5.33976" transform="matrix(-1.19249e-08 -1 -1 1.19249e-08 63.3147 142.648)" fill="#82D8FF"/>
<rect width="5.33976" height="5.33976" transform="matrix(-1.19249e-08 -1 -1 1.19249e-08 63.3147 170.109)" fill="#82D8FF"/>
<rect width="5.33976" height="5.33976" transform="matrix(-1.19249e-08 -1 -1 1.19249e-08 63.3147 115.186)" fill="#82D8FF"/>
<rect width="5.33976" height="5.33976" transform="matrix(-1.19249e-08 -1 -1 1.19249e-08 34.3274 183.84)" fill="#82D8FF"/>
<rect width="5.33976" height="5.33976" transform="matrix(-1.19249e-08 -1 -1 1.19249e-08 34.3274 170.109)" fill="#82D8FF"/>
<rect width="5.33976" height="5.33976" transform="matrix(-1.19249e-08 -1 -1 1.19249e-08 92.302 156.379)" fill="#82D8FF"/>
<rect width="5.33976" height="5.33976" transform="matrix(-1.19249e-08 -1 -1 1.19249e-08 92.302 183.84)" fill="#82D8FF"/>
<rect width="5.33976" height="5.33976" transform="matrix(-1.19249e-08 -1 -1 1.19249e-08 92.302 128.917)" fill="#82D8FF"/>
<rect width="5.33976" height="5.33976" transform="matrix(-1.19249e-08 -1 -1 1.19249e-08 92.302 142.648)" fill="#82D8FF"/>
<rect width="5.33976" height="5.33976" transform="matrix(-1.19249e-08 -1 -1 1.19249e-08 92.302 170.109)" fill="#82D8FF"/>
<rect width="5.33976" height="5.33976" transform="matrix(-1.19249e-08 -1 -1 1.19249e-08 92.302 115.186)" fill="#82D8FF"/>
</g>
</svg>
