<svg width="105" height="184" viewBox="0 0 105 184" fill="none" xmlns="http://www.w3.org/2000/svg">
<g opacity="0.6">
<rect x="-2.54443" y="101.455" width="5.33976" height="5.33976" transform="rotate(-90 -2.54443 101.455)" fill="#82D8FF"/>
<rect x="-2.54443" y="46.5322" width="5.33976" height="5.33976" transform="rotate(-90 -2.54443 46.5322)" fill="#82D8FF"/>
<rect x="-2.54443" y="73.9938" width="5.33976" height="5.33976" transform="rotate(-90 -2.54443 73.9938)" fill="#82D8FF"/>
<rect x="-2.54443" y="19.0706" width="5.33976" height="5.33976" transform="rotate(-90 -2.54443 19.0706)" fill="#82D8FF"/>
<rect x="-2.54443" y="87.7246" width="5.33976" height="5.33976" transform="rotate(-90 -2.54443 87.7246)" fill="#82D8FF"/>
<rect x="-2.54443" y="32.8014" width="5.33976" height="5.33976" transform="rotate(-90 -2.54443 32.8014)" fill="#82D8FF"/>
<rect x="-2.54443" y="60.263" width="5.33976" height="5.33976" transform="rotate(-90 -2.54443 60.263)" fill="#82D8FF"/>
<rect x="-2.54443" y="5.33978" width="5.33976" height="5.33976" transform="rotate(-90 -2.54443 5.33978)" fill="#82D8FF"/>
<rect x="55.4299" y="101.455" width="5.33976" height="5.33976" transform="rotate(-90 55.4299 101.455)" fill="#82D8FF"/>
<rect x="55.4299" y="73.9938" width="5.33976" height="5.33976" transform="rotate(-90 55.4299 73.9938)" fill="#82D8FF"/>
<rect x="55.4299" y="87.7246" width="5.33976" height="5.33976" transform="rotate(-90 55.4299 87.7246)" fill="#82D8FF"/>
<rect x="26.4429" y="101.455" width="5.33976" height="5.33976" transform="rotate(-90 26.4429 101.455)" fill="#82D8FF"/>
<rect x="26.4429" y="46.5322" width="5.33976" height="5.33976" transform="rotate(-90 26.4429 46.5322)" fill="#82D8FF"/>
<rect x="26.4429" y="73.9938" width="5.33976" height="5.33976" transform="rotate(-90 26.4429 73.9938)" fill="#82D8FF"/>
<rect x="26.4429" y="19.0706" width="5.33976" height="5.33976" transform="rotate(-90 26.4429 19.0706)" fill="#82D8FF"/>
<rect x="55.4299" y="19.0706" width="5.33976" height="5.33976" transform="rotate(-90 55.4299 19.0706)" fill="#82D8FF"/>
<rect x="26.4429" y="87.7246" width="5.33976" height="5.33976" transform="rotate(-90 26.4429 87.7246)" fill="#82D8FF"/>
<rect x="26.4429" y="32.8014" width="5.33976" height="5.33976" transform="rotate(-90 26.4429 32.8014)" fill="#82D8FF"/>
<rect x="26.4429" y="60.263" width="5.33976" height="5.33976" transform="rotate(-90 26.4429 60.263)" fill="#82D8FF"/>
<rect x="84.4172" y="101.455" width="5.33976" height="5.33976" transform="rotate(-90 84.4172 101.455)" fill="#82D8FF"/>
<rect x="84.4172" y="87.7246" width="5.33976" height="5.33976" transform="rotate(-90 84.4172 87.7246)" fill="#82D8FF"/>
<rect x="11.9492" y="101.455" width="5.33976" height="5.33976" transform="rotate(-90 11.9492 101.455)" fill="#82D8FF"/>
<rect x="11.9492" y="46.5322" width="5.33976" height="5.33976" transform="rotate(-90 11.9492 46.5322)" fill="#82D8FF"/>
<rect x="11.9492" y="73.9938" width="5.33976" height="5.33976" transform="rotate(-90 11.9492 73.9938)" fill="#82D8FF"/>
<rect x="11.9492" y="19.0706" width="5.33976" height="5.33976" transform="rotate(-90 11.9492 19.0706)" fill="#82D8FF"/>
<rect x="40.9365" y="19.0706" width="5.33976" height="5.33976" transform="rotate(-90 40.9365 19.0706)" fill="#82D8FF"/>
<rect x="11.9492" y="87.7246" width="5.33976" height="5.33976" transform="rotate(-90 11.9492 87.7246)" fill="#82D8FF"/>
<rect x="11.9492" y="32.8014" width="5.33976" height="5.33976" transform="rotate(-90 11.9492 32.8014)" fill="#82D8FF"/>
<rect x="11.9492" y="60.263" width="5.33976" height="5.33976" transform="rotate(-90 11.9492 60.263)" fill="#82D8FF"/>
<rect x="11.9492" y="5.33978" width="5.33976" height="5.33976" transform="rotate(-90 11.9492 5.33978)" fill="#82D8FF"/>
<rect x="69.9236" y="101.455" width="5.33976" height="5.33976" transform="rotate(-90 69.9236 101.455)" fill="#82D8FF"/>
<rect x="69.9238" y="87.7246" width="5.33976" height="5.33976" transform="rotate(-90 69.9238 87.7246)" fill="#82D8FF"/>
<rect x="40.9365" y="101.455" width="5.33976" height="5.33976" transform="rotate(-90 40.9365 101.455)" fill="#82D8FF"/>
<rect x="40.9365" y="73.9938" width="5.33976" height="5.33976" transform="rotate(-90 40.9365 73.9938)" fill="#82D8FF"/>
<rect x="40.9365" y="87.7246" width="5.33976" height="5.33976" transform="rotate(-90 40.9365 87.7246)" fill="#82D8FF"/>
<rect x="40.9365" y="60.263" width="5.33976" height="5.33976" transform="rotate(-90 40.9365 60.263)" fill="#82D8FF"/>
<rect x="98.9111" y="101.455" width="5.33976" height="5.33976" transform="rotate(-90 98.9111 101.455)" fill="#82D8FF"/>
<rect x="26.4426" y="156.379" width="5.33976" height="5.33976" transform="rotate(-90 26.4426 156.379)" fill="#82D8FF"/>
<rect x="26.4426" y="183.84" width="5.33976" height="5.33976" transform="rotate(-90 26.4426 183.84)" fill="#82D8FF"/>
<rect x="26.4426" y="128.917" width="5.33976" height="5.33976" transform="rotate(-90 26.4426 128.917)" fill="#82D8FF"/>
<rect x="26.4426" y="142.648" width="5.33976" height="5.33976" transform="rotate(-90 26.4426 142.648)" fill="#82D8FF"/>
<rect x="26.4426" y="170.109" width="5.33976" height="5.33976" transform="rotate(-90 26.4426 170.109)" fill="#82D8FF"/>
<rect x="26.4426" y="115.186" width="5.33976" height="5.33976" transform="rotate(-90 26.4426 115.186)" fill="#82D8FF"/>
<rect x="84.417" y="183.84" width="5.33976" height="5.33976" transform="rotate(-90 84.417 183.84)" fill="#82D8FF"/>
<rect x="55.4302" y="156.379" width="5.33976" height="5.33976" transform="rotate(-90 55.4302 156.379)" fill="#82D8FF"/>
<rect x="55.4302" y="183.84" width="5.33976" height="5.33976" transform="rotate(-90 55.4302 183.84)" fill="#82D8FF"/>
<rect x="55.4302" y="128.917" width="5.33976" height="5.33976" transform="rotate(-90 55.4302 128.917)" fill="#82D8FF"/>
<rect x="84.417" y="128.917" width="5.33976" height="5.33976" transform="rotate(-90 84.417 128.917)" fill="#82D8FF"/>
<rect x="55.4302" y="142.648" width="5.33976" height="5.33976" transform="rotate(-90 55.4302 142.648)" fill="#82D8FF"/>
<rect x="55.4302" y="170.109" width="5.33976" height="5.33976" transform="rotate(-90 55.4302 170.109)" fill="#82D8FF"/>
<rect x="-2.54468" y="156.379" width="5.33976" height="5.33976" transform="rotate(-90 -2.54468 156.379)" fill="#82D8FF"/>
<rect x="-2.54468" y="183.84" width="5.33976" height="5.33976" transform="rotate(-90 -2.54468 183.84)" fill="#82D8FF"/>
<rect x="-2.54468" y="128.917" width="5.33976" height="5.33976" transform="rotate(-90 -2.54468 128.917)" fill="#82D8FF"/>
<rect x="-2.54468" y="142.648" width="5.33976" height="5.33976" transform="rotate(-90 -2.54468 142.648)" fill="#82D8FF"/>
<rect x="-2.54468" y="170.109" width="5.33976" height="5.33976" transform="rotate(-90 -2.54468 170.109)" fill="#82D8FF"/>
<rect x="-2.54468" y="115.186" width="5.33976" height="5.33976" transform="rotate(-90 -2.54468 115.186)" fill="#82D8FF"/>
<rect x="40.9363" y="156.379" width="5.33976" height="5.33976" transform="rotate(-90 40.9363 156.379)" fill="#82D8FF"/>
<rect x="40.9363" y="183.84" width="5.33976" height="5.33976" transform="rotate(-90 40.9363 183.84)" fill="#82D8FF"/>
<rect x="40.9363" y="128.917" width="5.33976" height="5.33976" transform="rotate(-90 40.9363 128.917)" fill="#82D8FF"/>
<rect x="69.9236" y="128.917" width="5.33976" height="5.33976" transform="rotate(-90 69.9236 128.917)" fill="#82D8FF"/>
<rect x="40.9363" y="142.648" width="5.33976" height="5.33976" transform="rotate(-90 40.9363 142.648)" fill="#82D8FF"/>
<rect x="40.9363" y="170.109" width="5.33976" height="5.33976" transform="rotate(-90 40.9363 170.109)" fill="#82D8FF"/>
<rect x="40.9363" y="115.186" width="5.33976" height="5.33976" transform="rotate(-90 40.9363 115.186)" fill="#82D8FF"/>
<rect x="69.9236" y="183.84" width="5.33976" height="5.33976" transform="rotate(-90 69.9236 183.84)" fill="#82D8FF"/>
<rect x="69.9236" y="170.109" width="5.33976" height="5.33976" transform="rotate(-90 69.9236 170.109)" fill="#82D8FF"/>
<rect x="11.949" y="156.379" width="5.33976" height="5.33976" transform="rotate(-90 11.949 156.379)" fill="#82D8FF"/>
<rect x="11.949" y="183.84" width="5.33976" height="5.33976" transform="rotate(-90 11.949 183.84)" fill="#82D8FF"/>
<rect x="11.949" y="128.917" width="5.33976" height="5.33976" transform="rotate(-90 11.949 128.917)" fill="#82D8FF"/>
<rect x="11.949" y="142.648" width="5.33976" height="5.33976" transform="rotate(-90 11.949 142.648)" fill="#82D8FF"/>
<rect x="11.949" y="170.109" width="5.33976" height="5.33976" transform="rotate(-90 11.949 170.109)" fill="#82D8FF"/>
<rect x="11.949" y="115.186" width="5.33976" height="5.33976" transform="rotate(-90 11.949 115.186)" fill="#82D8FF"/>
</g>
</svg>
