<svg width="184" height="93" viewBox="0 0 184 93" fill="none" xmlns="http://www.w3.org/2000/svg">
<g opacity="0.6">
<rect x="101.456" y="92.7953" width="5.33976" height="5.33976" transform="rotate(180 101.456 92.7953)" fill="#82D8FF"/>
<rect x="46.5322" y="92.7953" width="5.33976" height="5.33976" transform="rotate(180 46.5322 92.7953)" fill="#82D8FF"/>
<rect x="73.9939" y="92.7953" width="5.33976" height="5.33976" transform="rotate(180 73.9939 92.7953)" fill="#82D8FF"/>
<rect x="19.0708" y="92.7953" width="5.33976" height="5.33976" transform="rotate(180 19.0708 92.7953)" fill="#82D8FF"/>
<rect x="87.7246" y="92.7953" width="5.33976" height="5.33976" transform="rotate(180 87.7246 92.7953)" fill="#82D8FF"/>
<rect x="32.8015" y="92.7953" width="5.33976" height="5.33976" transform="rotate(180 32.8015 92.7953)" fill="#82D8FF"/>
<rect x="60.2632" y="92.7953" width="5.33976" height="5.33976" transform="rotate(180 60.2632 92.7953)" fill="#82D8FF"/>
<rect x="5.33984" y="92.7953" width="5.33976" height="5.33976" transform="rotate(180 5.33984 92.7953)" fill="#82D8FF"/>
<rect x="101.456" y="63.808" width="5.33976" height="5.33976" transform="rotate(180 101.456 63.808)" fill="#82D8FF"/>
<rect x="101.456" y="78.3015" width="5.33976" height="5.33976" transform="rotate(180 101.456 78.3015)" fill="#82D8FF"/>
<rect x="46.5322" y="78.3015" width="5.33976" height="5.33976" transform="rotate(180 46.5322 78.3015)" fill="#82D8FF"/>
<rect x="73.9939" y="78.3015" width="5.33976" height="5.33976" transform="rotate(180 73.9939 78.3015)" fill="#82D8FF"/>
<rect x="87.7246" y="78.3015" width="5.33976" height="5.33976" transform="rotate(180 87.7246 78.3015)" fill="#82D8FF"/>
<rect x="32.8015" y="78.3015" width="5.33976" height="5.33976" transform="rotate(180 32.8015 78.3015)" fill="#82D8FF"/>
<rect x="60.2632" y="78.3015" width="5.33976" height="5.33976" transform="rotate(180 60.2632 78.3015)" fill="#82D8FF"/>
<rect x="101.456" y="49.3142" width="5.33976" height="5.33976" transform="rotate(180 101.456 49.3142)" fill="#82D8FF"/>
<rect x="156.379" y="63.8082" width="5.33976" height="5.33976" transform="rotate(180 156.379 63.8082)" fill="#82D8FF"/>
<rect x="183.84" y="63.8082" width="5.33976" height="5.33976" transform="rotate(180 183.84 63.8082)" fill="#82D8FF"/>
<rect x="128.917" y="63.8082" width="5.33976" height="5.33976" transform="rotate(180 128.917 63.8082)" fill="#82D8FF"/>
<rect x="142.648" y="63.8082" width="5.33976" height="5.33976" transform="rotate(180 142.648 63.8082)" fill="#82D8FF"/>
<rect x="170.109" y="63.8082" width="5.33976" height="5.33976" transform="rotate(180 170.109 63.8082)" fill="#82D8FF"/>
<rect x="115.186" y="63.8082" width="5.33976" height="5.33976" transform="rotate(180 115.186 63.8082)" fill="#82D8FF"/>
<rect x="183.84" y="5.83374" width="5.33976" height="5.33976" transform="rotate(180 183.84 5.83374)" fill="#82D8FF"/>
<rect x="156.379" y="34.8208" width="5.33976" height="5.33976" transform="rotate(180 156.379 34.8208)" fill="#82D8FF"/>
<rect x="183.84" y="34.8208" width="5.33976" height="5.33976" transform="rotate(180 183.84 34.8208)" fill="#82D8FF"/>
<rect x="128.917" y="34.8208" width="5.33976" height="5.33976" transform="rotate(180 128.917 34.8208)" fill="#82D8FF"/>
<rect x="128.917" y="5.83374" width="5.33976" height="5.33976" transform="rotate(180 128.917 5.83374)" fill="#82D8FF"/>
<rect x="142.648" y="34.8208" width="5.33976" height="5.33976" transform="rotate(180 142.648 34.8208)" fill="#82D8FF"/>
<rect x="170.109" y="34.8208" width="5.33976" height="5.33976" transform="rotate(180 170.109 34.8208)" fill="#82D8FF"/>
<rect x="156.379" y="92.7955" width="5.33976" height="5.33976" transform="rotate(180 156.379 92.7955)" fill="#82D8FF"/>
<rect x="183.84" y="92.7955" width="5.33976" height="5.33976" transform="rotate(180 183.84 92.7955)" fill="#82D8FF"/>
<rect x="128.917" y="92.7955" width="5.33976" height="5.33976" transform="rotate(180 128.917 92.7955)" fill="#82D8FF"/>
<rect x="142.648" y="92.7955" width="5.33976" height="5.33976" transform="rotate(180 142.648 92.7955)" fill="#82D8FF"/>
<rect x="170.109" y="92.7955" width="5.33976" height="5.33976" transform="rotate(180 170.109 92.7955)" fill="#82D8FF"/>
<rect x="115.186" y="92.7955" width="5.33976" height="5.33976" transform="rotate(180 115.186 92.7955)" fill="#82D8FF"/>
<rect x="156.379" y="49.3145" width="5.33976" height="5.33976" transform="rotate(180 156.379 49.3145)" fill="#82D8FF"/>
<rect x="183.84" y="49.3145" width="5.33976" height="5.33976" transform="rotate(180 183.84 49.3145)" fill="#82D8FF"/>
<rect x="128.917" y="49.3145" width="5.33976" height="5.33976" transform="rotate(180 128.917 49.3145)" fill="#82D8FF"/>
<rect x="128.917" y="20.3273" width="5.33976" height="5.33976" transform="rotate(180 128.917 20.3273)" fill="#82D8FF"/>
<rect x="142.648" y="49.3145" width="5.33976" height="5.33976" transform="rotate(180 142.648 49.3145)" fill="#82D8FF"/>
<rect x="170.109" y="49.3145" width="5.33976" height="5.33976" transform="rotate(180 170.109 49.3145)" fill="#82D8FF"/>
<rect x="115.186" y="49.3145" width="5.33976" height="5.33976" transform="rotate(180 115.186 49.3145)" fill="#82D8FF"/>
<rect x="183.84" y="20.3273" width="5.33976" height="5.33976" transform="rotate(180 183.84 20.3273)" fill="#82D8FF"/>
<rect x="170.109" y="20.3273" width="5.33976" height="5.33976" transform="rotate(180 170.109 20.3273)" fill="#82D8FF"/>
<rect x="156.379" y="78.3018" width="5.33976" height="5.33976" transform="rotate(180 156.379 78.3018)" fill="#82D8FF"/>
<rect x="183.84" y="78.3018" width="5.33976" height="5.33976" transform="rotate(180 183.84 78.3018)" fill="#82D8FF"/>
<rect x="128.917" y="78.3018" width="5.33976" height="5.33976" transform="rotate(180 128.917 78.3018)" fill="#82D8FF"/>
<rect x="142.648" y="78.3018" width="5.33976" height="5.33976" transform="rotate(180 142.648 78.3018)" fill="#82D8FF"/>
<rect x="170.109" y="78.3018" width="5.33976" height="5.33976" transform="rotate(180 170.109 78.3018)" fill="#82D8FF"/>
<rect x="115.186" y="78.3018" width="5.33976" height="5.33976" transform="rotate(180 115.186 78.3018)" fill="#82D8FF"/>
</g>
</svg>
