<svg width="243" height="229" fill="none" xmlns="http://www.w3.org/2000/svg">
  <path fill="#fff" d="M0 0h243v229H0z"/>
  <circle cx="121" cy="114" r="89.5" fill="#fff" stroke="#2DBDFF"/>
  <path d="M168.07 141.146a2.928 2.928 0 00-2.929 2.93v4.646l-11.914-11.718V110.33l-29.297 23.437v30.231l26.151-21.855 10.917 10.722h-4.646c-1.62 0-2.93 1.31-2.93 2.93a2.927 2.927 0 002.93 2.929h11.718a2.942 2.942 0 002.93-2.929v-11.719c0-1.619-1.31-2.93-2.93-2.93z" fill="#3F98FF"/>
  <path d="M88.773 110.329v26.675L76.86 148.722v-4.646c0-1.619-1.31-2.93-2.93-2.93a2.929 2.929 0 00-2.929 2.93v11.719a2.942 2.942 0 002.93 2.929h11.718c1.62 0 2.93-1.31 2.93-2.929 0-1.62-1.31-2.93-2.93-2.93h-4.646l10.917-10.722 26.151 21.855v-30.231l-29.297-23.438z" fill="#0069E3"/>
  <path d="M123.93 84.073V74l3.284 3.284a2.929 2.929 0 104.143-4.142l-8.282-8.282a2.939 2.939 0 00-4.15 0l-8.282 8.282a2.93 2.93 0 104.143 4.143L118.07 74v10.073l-26.368 21.094L121 128.606l29.298-23.439-26.368-21.094z" fill="#2DBDFF"/>
</svg>
