<svg width="34" height="35" viewBox="0 0 34 35" fill="none" xmlns="http://www.w3.org/2000/svg">
<path d="M34 17.4375C34 8.04766 26.3898 0.4375 17 0.4375C7.61016 0.4375 0 8.04766 0 17.4375C0 26.8273 7.61016 34.4375 17 34.4375C17.0996 34.4375 17.1992 34.4375 17.2988 34.4309V21.2027H13.6465V16.9461H17.2988V13.8117C17.2988 10.1793 19.5168 8.20039 22.7574 8.20039C24.3113 8.20039 25.6461 8.31328 26.0312 8.36641V12.1648H23.8C22.0402 12.1648 21.6949 13.0016 21.6949 14.2301V16.9395H25.9117L25.3605 21.1961H21.6949V33.7801C28.8004 31.7414 34 25.2004 34 17.4375V17.4375Z" fill="#2DBDFF"/>
</svg>
