<svg width="402" height="226" viewBox="0 0 402 226" fill="none" xmlns="http://www.w3.org/2000/svg">
<path d="M69.3584 201L47.5843 170.153C46.6491 168.829 47.5966 167 49.2182 167H69.3584V201Z" fill="url(#paint0_linear)"/>
<g filter="url(#filter0_d)">
<path d="M45 50C45 43.3726 50.3726 38 57 38H200.858H344.717C351.344 38 356.716 43.3726 356.716 50V161.273C356.716 167.901 351.344 173.273 344.716 173.273H57C50.3726 173.273 45 167.901 45 161.273V50Z" fill="white"/>
</g>
<path d="M141.1 134.806V151.41H138.348V144.147H130.455V151.41H127.703V134.806H130.455V141.926H138.348V134.806H141.1Z" fill="#002B5D"/>
<path d="M150.492 151.625C149.237 151.625 148.103 151.346 147.089 150.789C146.075 150.216 145.278 149.419 144.699 148.4C144.12 147.365 143.83 146.17 143.83 144.816C143.83 143.479 144.128 142.292 144.723 141.257C145.319 140.222 146.131 139.425 147.161 138.868C148.191 138.31 149.342 138.032 150.613 138.032C151.885 138.032 153.035 138.31 154.065 138.868C155.095 139.425 155.908 140.222 156.503 141.257C157.099 142.292 157.396 143.479 157.396 144.816C157.396 146.154 157.091 147.341 156.479 148.376C155.868 149.411 155.031 150.216 153.969 150.789C152.923 151.346 151.764 151.625 150.492 151.625ZM150.492 149.26C151.201 149.26 151.86 149.093 152.472 148.758C153.1 148.424 153.606 147.922 153.993 147.253C154.379 146.584 154.572 145.772 154.572 144.816C154.572 143.861 154.387 143.056 154.017 142.403C153.647 141.735 153.156 141.233 152.544 140.898C151.933 140.564 151.273 140.397 150.565 140.397C149.857 140.397 149.197 140.564 148.585 140.898C147.99 141.233 147.515 141.735 147.161 142.403C146.807 143.056 146.63 143.861 146.63 144.816C146.63 146.234 146.992 147.333 147.716 148.113C148.457 148.878 149.382 149.26 150.492 149.26Z" fill="#002B5D"/>
<path d="M165.259 148.973L169.024 138.247H171.945L166.876 151.41H163.593L158.548 138.247H161.493L165.259 148.973Z" fill="#002B5D"/>
<path d="M173.108 144.769C173.108 143.447 173.382 142.276 173.929 141.257C174.492 140.237 175.248 139.449 176.198 138.892C177.163 138.318 178.226 138.032 179.384 138.032C180.43 138.032 181.34 138.239 182.112 138.653C182.901 139.051 183.528 139.553 183.995 140.158V138.247H186.771V151.41H183.995V149.451C183.528 150.072 182.893 150.59 182.088 151.004C181.283 151.418 180.366 151.625 179.336 151.625C178.193 151.625 177.147 151.338 176.198 150.765C175.248 150.176 174.492 149.364 173.929 148.328C173.382 147.277 173.108 146.091 173.108 144.769ZM183.995 144.816C183.995 143.909 183.802 143.12 183.416 142.451C183.045 141.782 182.555 141.273 181.943 140.922C181.332 140.572 180.672 140.397 179.964 140.397C179.256 140.397 178.596 140.572 177.984 140.922C177.373 141.257 176.874 141.758 176.488 142.427C176.117 143.08 175.932 143.861 175.932 144.769C175.932 145.676 176.117 146.473 176.488 147.158C176.874 147.843 177.373 148.368 177.984 148.734C178.612 149.085 179.272 149.26 179.964 149.26C180.672 149.26 181.332 149.085 181.943 148.734C182.555 148.384 183.045 147.874 183.416 147.205C183.802 146.521 183.995 145.724 183.995 144.816Z" fill="#002B5D"/>
<path d="M191.496 151.577C190.997 151.577 190.579 151.41 190.241 151.076C189.903 150.741 189.734 150.327 189.734 149.833C189.734 149.34 189.903 148.926 190.241 148.591C190.579 148.257 190.997 148.089 191.496 148.089C191.979 148.089 192.389 148.257 192.727 148.591C193.065 148.926 193.234 149.34 193.234 149.833C193.234 150.327 193.065 150.741 192.727 151.076C192.389 151.41 191.979 151.577 191.496 151.577Z" fill="#002B5D"/>
<path d="M201.784 140.468H199.322V151.41H196.546V140.468H194.977V138.247H196.546V137.315C196.546 135.802 196.949 134.703 197.753 134.018C198.574 133.317 199.853 132.967 201.591 132.967V135.236C200.755 135.236 200.167 135.396 199.829 135.714C199.491 136.017 199.322 136.55 199.322 137.315V138.247H201.784V140.468Z" fill="#002B5D"/>
<path d="M205.623 136.503C205.125 136.503 204.706 136.335 204.368 136.001C204.03 135.666 203.861 135.252 203.861 134.759C203.861 134.265 204.03 133.851 204.368 133.516C204.706 133.182 205.125 133.015 205.623 133.015C206.106 133.015 206.517 133.182 206.855 133.516C207.192 133.851 207.361 134.265 207.361 134.759C207.361 135.252 207.192 135.666 206.855 136.001C206.517 136.335 206.106 136.503 205.623 136.503ZM206.975 138.247V151.41H204.223V138.247H206.975Z" fill="#002B5D"/>
<path d="M217.299 138.032C218.345 138.032 219.278 138.247 220.099 138.677C220.936 139.107 221.588 139.744 222.055 140.588C222.521 141.432 222.755 142.451 222.755 143.646V151.41H220.027V144.052C220.027 142.873 219.729 141.973 219.134 141.352C218.538 140.715 217.725 140.397 216.696 140.397C215.666 140.397 214.845 140.715 214.233 141.352C213.638 141.973 213.34 142.873 213.34 144.052V151.41H210.588V138.247H213.34V139.752C213.791 139.21 214.362 138.788 215.054 138.485C215.762 138.183 216.51 138.032 217.299 138.032Z" fill="#002B5D"/>
<path d="M225.347 144.769C225.347 143.447 225.621 142.276 226.168 141.257C226.731 140.237 227.488 139.449 228.437 138.892C229.403 138.318 230.465 138.032 231.624 138.032C232.67 138.032 233.579 138.239 234.352 138.653C235.14 139.051 235.768 139.553 236.234 140.158V138.247H239.01V151.41H236.234V149.451C235.768 150.072 235.132 150.59 234.327 151.004C233.523 151.418 232.605 151.625 231.575 151.625C230.433 151.625 229.387 151.338 228.437 150.765C227.488 150.176 226.731 149.364 226.168 148.328C225.621 147.277 225.347 146.091 225.347 144.769ZM236.234 144.816C236.234 143.909 236.041 143.12 235.655 142.451C235.285 141.782 234.794 141.273 234.183 140.922C233.571 140.572 232.911 140.397 232.203 140.397C231.495 140.397 230.835 140.572 230.224 140.922C229.612 141.257 229.113 141.758 228.727 142.427C228.357 143.08 228.172 143.861 228.172 144.769C228.172 145.676 228.357 146.473 228.727 147.158C229.113 147.843 229.612 148.368 230.224 148.734C230.851 149.085 231.511 149.26 232.203 149.26C232.911 149.26 233.571 149.085 234.183 148.734C234.794 148.384 235.285 147.874 235.655 147.205C236.041 146.521 236.234 145.724 236.234 144.816Z" fill="#002B5D"/>
<path d="M249.336 138.032C250.382 138.032 251.315 138.247 252.136 138.677C252.973 139.107 253.625 139.744 254.091 140.588C254.558 141.432 254.791 142.451 254.791 143.646V151.41H252.064V144.052C252.064 142.873 251.766 141.973 251.17 141.352C250.575 140.715 249.762 140.397 248.732 140.397C247.702 140.397 246.882 140.715 246.27 141.352C245.675 141.973 245.377 142.873 245.377 144.052V151.41H242.625V138.247H245.377V139.752C245.827 139.21 246.399 138.788 247.091 138.485C247.799 138.183 248.547 138.032 249.336 138.032Z" fill="#002B5D"/>
<path d="M257.384 144.816C257.384 143.463 257.658 142.276 258.205 141.257C258.768 140.222 259.541 139.425 260.522 138.868C261.504 138.31 262.631 138.032 263.902 138.032C265.511 138.032 266.839 138.414 267.885 139.178C268.947 139.927 269.663 141.002 270.033 142.403H267.064C266.823 141.75 266.437 141.241 265.905 140.875C265.374 140.508 264.707 140.325 263.902 140.325C262.775 140.325 261.874 140.723 261.198 141.52C260.538 142.3 260.209 143.399 260.209 144.816C260.209 146.234 260.538 147.341 261.198 148.137C261.874 148.934 262.775 149.332 263.902 149.332C265.495 149.332 266.549 148.639 267.064 147.253H270.033C269.647 148.591 268.923 149.658 267.861 150.455C266.799 151.235 265.479 151.625 263.902 151.625C262.631 151.625 261.504 151.346 260.522 150.789C259.541 150.216 258.768 149.419 258.205 148.4C257.658 147.365 257.384 146.17 257.384 144.816Z" fill="#002B5D"/>
<path d="M284.966 144.506C284.966 145 284.934 145.446 284.87 145.844H274.707C274.787 146.895 275.182 147.739 275.89 148.376C276.598 149.013 277.467 149.332 278.497 149.332C279.977 149.332 281.024 148.719 281.635 147.492H284.604C284.202 148.703 283.47 149.698 282.408 150.478C281.361 151.243 280.058 151.625 278.497 151.625C277.226 151.625 276.083 151.346 275.069 150.789C274.071 150.216 273.283 149.419 272.703 148.4C272.14 147.365 271.859 146.17 271.859 144.816C271.859 143.463 272.132 142.276 272.679 141.257C273.243 140.222 274.023 139.425 275.021 138.868C276.035 138.31 277.193 138.032 278.497 138.032C279.752 138.032 280.871 138.302 281.852 138.844C282.834 139.385 283.598 140.15 284.146 141.137C284.693 142.109 284.966 143.232 284.966 144.506ZM282.094 143.646C282.078 142.642 281.715 141.838 281.007 141.233C280.299 140.628 279.422 140.325 278.376 140.325C277.427 140.325 276.614 140.628 275.938 141.233C275.262 141.822 274.86 142.626 274.731 143.646H282.094Z" fill="#002B5D"/>
<path d="M206.499 72.4868V91.5657C206.499 92.1619 206.499 93.1033 206.53 94.3271C206.53 95.5509 206.561 96.4923 206.561 97.0885C206.561 98.6889 205.871 99.4734 204.459 99.4734H204.145C204.114 99.4734 204.051 99.4734 203.957 99.442C203.863 99.442 203.8 99.4106 203.769 99.4106C203.643 99.4106 203.518 99.4106 203.329 99.442C203.141 99.442 203.016 99.4734 202.89 99.4734C201.635 99.4734 200.882 99.0027 200.568 98.0927C200.474 97.8416 200.442 97.3082 200.442 96.4609C200.442 96.0844 200.442 95.3626 200.474 94.3271C200.505 93.2916 200.505 92.5071 200.505 91.9736C200.505 89.2436 200.191 87.8629 199.532 87.8629C197.399 87.8315 195.798 87.8001 194.731 87.8001C193.664 87.8001 192.064 87.8315 189.93 87.8629C189.805 87.8629 189.616 87.957 189.428 88.1767C189.24 88.365 189.146 88.5532 189.146 88.6788C189.146 88.8984 189.146 89.275 189.114 89.7457C189.114 90.2477 189.083 90.5929 189.083 90.8126V93.2916C189.083 95.2058 189.052 96.6178 188.989 97.5592C188.957 98.1868 188.675 98.6889 188.11 99.0655C187.545 99.442 186.886 99.5989 186.102 99.5989C185.255 99.5989 184.533 99.3793 183.874 98.9399C183.215 98.5006 182.901 97.9044 182.901 97.1199V72.0789C182.901 70.3844 183.999 69.5371 186.165 69.5371C186.196 69.5371 186.227 69.5371 186.259 69.5685C186.29 69.5685 186.322 69.5999 186.353 69.5999C187.232 69.6312 187.922 69.8195 188.393 70.1647C188.863 70.5099 189.114 71.1061 189.114 71.9847C189.114 72.424 189.114 73.1144 189.083 74.0244C189.083 74.9344 189.052 75.6248 189.052 76.0641C189.052 77.3193 189.083 79.2335 189.114 81.7752C189.114 81.9321 189.208 82.1204 189.428 82.34C189.616 82.5597 189.805 82.6538 189.962 82.6538L194.669 82.7166C195.673 82.7166 197.242 82.6852 199.313 82.6538C199.47 82.6538 199.658 82.5283 199.909 82.3087C200.16 82.0576 200.254 81.8693 200.254 81.6811V80.0493C200.254 79.1707 200.223 78.0724 200.191 76.7545C200.16 75.4365 200.129 74.5579 200.129 74.1499C200.129 72.4554 200.317 71.263 200.693 70.5726C201.07 69.8823 201.886 69.5685 203.11 69.5685H203.486C204.616 69.5999 205.4 69.8509 205.808 70.2588C206.279 70.6668 206.499 71.3885 206.499 72.4868Z" fill="#002B5D"/>
<path d="M223.067 77.2247C225.954 77.3503 228.527 78.4799 230.755 80.551C232.983 82.6221 234.113 85.2893 234.113 88.4901V88.898C234.019 91.7849 232.889 94.2953 230.724 96.4605C228.559 98.6257 225.766 99.724 222.377 99.724C222.314 99.724 222.189 99.724 222.063 99.6926C221.906 99.6926 221.812 99.6613 221.718 99.6613C218.925 99.5357 216.415 98.4375 214.218 96.3978C212.022 94.3581 210.923 91.8163 210.923 88.7097C210.923 88.6783 210.923 88.647 210.955 88.5842C210.955 88.5214 210.986 88.4587 210.986 88.4273C210.986 85.2893 212.084 82.6534 214.312 80.4569C216.54 78.2603 219.27 77.1934 222.534 77.1934H223.067V77.2247ZM222.44 94.4836C224.197 94.4836 225.64 93.8874 226.707 92.6636C227.774 91.4398 228.308 90.0591 228.308 88.4273C228.308 86.8269 227.774 85.4462 226.707 84.2538C225.64 83.0928 224.322 82.4338 222.816 82.3396C222.785 82.3396 222.691 82.3396 222.596 82.3083C222.502 82.3083 222.408 82.2769 222.377 82.2769C220.776 82.2769 219.459 82.9045 218.36 84.191C217.262 85.4462 216.697 86.7956 216.634 88.239V88.5215C216.634 90.0591 217.168 91.4398 218.266 92.6636C219.364 93.8874 220.588 94.4836 221.938 94.4836C222.157 94.4836 222.283 94.4836 222.377 94.4522H222.44V94.4836Z" fill="#002B5D"/>
<path d="M250.273 99.4109C248.955 99.4109 247.983 99.0971 247.324 98.5009C246.665 97.9047 246.131 96.9005 245.692 95.5198C243.527 90.4363 241.456 85.2586 239.479 79.9554C239.385 79.7672 239.353 79.5161 239.353 79.2023C239.353 78.7316 239.542 78.3551 239.887 78.0413C240.263 77.7588 240.734 77.6019 241.299 77.5706C241.393 77.5706 241.518 77.5706 241.707 77.5392C241.895 77.5392 242.021 77.5078 242.083 77.5078C243.433 77.5078 244.343 77.6961 244.751 78.104C245.19 78.512 245.661 79.4847 246.163 81.0537C247.041 83.8465 248.391 87.2983 250.242 91.4718C250.807 90.1538 251.591 88.1455 252.596 85.4155C253.6 82.6855 254.384 80.6458 254.949 79.3278C255.388 78.3551 255.922 77.853 256.612 77.8216H257.554C258.558 77.8216 259.374 77.9471 259.907 78.1982C260.472 78.4492 260.754 78.9199 260.754 79.6103C260.754 80.1437 260.629 80.7085 260.378 81.3048C259.123 84.6624 257.24 89.3066 254.729 95.2688C254.165 96.5553 253.568 97.4967 252.941 98.0929C252.376 98.8147 251.466 99.2226 250.273 99.4109Z" fill="#002B5D"/>
<path d="M288.023 88.6152C288.023 89.0231 288.086 89.8704 288.18 91.1256C288.274 92.3808 288.337 93.3536 288.337 94.0753C288.337 96.8681 287.615 98.594 286.172 99.3157C285.858 99.4412 285.482 99.504 285.074 99.504C284.572 99.504 284.132 99.4412 283.756 99.3157C283.316 99.1902 282.971 98.9078 282.689 98.4685C282.406 98.0605 282.249 97.5898 282.187 97.1191L281.465 97.6212C279.865 99.1274 277.888 99.9119 275.534 99.9119C274.907 99.9119 274.122 99.8178 273.212 99.6609C269.886 99.0647 267.47 97.1191 265.932 93.887C265.085 92.1297 264.677 90.3725 264.677 88.6152C264.677 86.1362 265.493 83.9082 267.156 81.9627C268.819 80.0171 271.015 78.5737 273.777 77.6323C274.467 77.4126 275.158 77.2871 275.817 77.2871C277.48 77.2871 279.3 78.0088 281.339 79.4837C281.434 79.5465 281.559 79.672 281.779 79.8603C281.967 80.0485 282.093 80.174 282.155 80.2368C282.187 79.3896 282.5 78.7306 283.034 78.2599C283.567 77.8206 284.195 77.5695 284.948 77.5695C285.764 77.5695 286.486 77.8519 287.082 78.3854C287.678 78.9189 287.992 79.672 287.992 80.6134V88.6152H288.023ZM270.984 88.7093C270.984 90.5607 271.455 92.0356 272.428 93.0711C273.4 94.138 274.718 94.6401 276.381 94.6401C278.233 94.6401 279.676 94.0439 280.68 92.8828C281.685 91.6904 282.187 90.247 282.187 88.4583C282.187 86.6383 281.622 85.1948 280.555 84.1907C279.457 83.1865 278.139 82.6531 276.632 82.6531C275.095 82.6531 273.777 83.1865 272.647 84.2534C271.549 85.3517 270.984 86.8266 270.984 88.7093Z" fill="#002B5D"/>
<path d="M124.817 100.479C124.786 100.479 124.754 100.479 124.754 100.479C124.692 100.479 124.629 100.479 124.566 100.51C124.629 100.51 124.692 100.479 124.723 100.479C124.754 100.51 124.786 100.479 124.817 100.479Z" fill="#0074FE"/>
<path d="M112.956 91.0649C114.81 91.0649 116.313 89.5616 116.313 87.7072C116.313 85.8529 114.81 84.3496 112.956 84.3496C111.101 84.3496 109.598 85.8529 109.598 87.7072C109.598 89.5616 111.101 91.0649 112.956 91.0649Z" fill="#2DBDFF"/>
<path d="M126.323 109.233C128.178 109.233 129.681 107.73 129.681 105.875C129.681 104.021 128.178 102.518 126.323 102.518C124.469 102.518 122.966 104.021 122.966 105.875C122.966 107.73 124.469 109.233 126.323 109.233Z" fill="#2DBDFF"/>
<path d="M103.228 92.1627C104.441 92.1627 105.425 91.1793 105.425 89.9661C105.425 88.753 104.441 87.7695 103.228 87.7695C102.015 87.7695 101.031 88.753 101.031 89.9661C101.031 91.1793 102.015 92.1627 103.228 92.1627Z" fill="#2DBDFF"/>
<path d="M110.602 106.128C111.815 106.128 112.799 105.144 112.799 103.931C112.799 102.718 111.815 101.734 110.602 101.734C109.389 101.734 108.406 102.718 108.406 103.931C108.406 105.144 109.389 106.128 110.602 106.128Z" fill="#2DBDFF"/>
<path d="M104.326 111.712C105.071 111.712 105.676 111.108 105.676 110.363C105.676 109.618 105.071 109.014 104.326 109.014C103.581 109.014 102.977 109.618 102.977 110.363C102.977 111.108 103.581 111.712 104.326 111.712Z" fill="#2DBDFF"/>
<path d="M102.349 101.89C103.095 101.89 103.699 101.286 103.699 100.541C103.699 99.7955 103.095 99.1914 102.349 99.1914C101.604 99.1914 101 99.7955 101 100.541C101 101.286 101.604 101.89 102.349 101.89Z" fill="#2DBDFF"/>
<path d="M130.999 119.62C132.212 119.62 133.196 118.636 133.196 117.423C133.196 116.21 132.212 115.227 130.999 115.227C129.786 115.227 128.802 116.21 128.802 117.423C128.802 118.636 129.786 119.62 130.999 119.62Z" fill="#2DBDFF"/>
<path d="M120.675 116.671C121.403 116.671 121.993 116.081 121.993 115.353C121.993 114.625 121.403 114.035 120.675 114.035C119.947 114.035 119.357 114.625 119.357 115.353C119.357 116.081 119.947 116.671 120.675 116.671Z" fill="#2DBDFF"/>
<path d="M122.715 123.386C123.443 123.386 124.033 122.796 124.033 122.068C124.033 121.34 123.443 120.75 122.715 120.75C121.987 120.75 121.397 121.34 121.397 122.068C121.397 122.796 121.987 123.386 122.715 123.386Z" fill="#2DBDFF"/>
<path d="M112.384 116.532C113.112 116.532 113.702 115.942 113.702 115.214C113.702 114.487 113.112 113.896 112.384 113.896C111.656 113.896 111.066 114.487 111.066 115.214C111.066 115.942 111.656 116.532 112.384 116.532Z" fill="#2DBDFF"/>
<path d="M124.817 100.479C124.786 100.479 124.754 100.479 124.754 100.479C124.692 100.479 124.629 100.479 124.566 100.51C124.629 100.51 124.692 100.479 124.723 100.479C124.754 100.51 124.786 100.479 124.817 100.479Z" fill="#0074FE"/>
<path d="M124.754 100.51C124.692 100.51 124.629 100.51 124.598 100.541C124.629 100.51 124.692 100.51 124.754 100.51Z" fill="#0074FE"/>
<path d="M167.243 89.2452C170.318 75.1557 161.406 61.0035 147.379 57.7086C134.388 54.6647 121.428 61.6938 116.659 73.6809C116.564 73.9005 116.376 73.9947 116.156 73.9319C115.937 73.8692 115.686 73.8378 115.466 73.8064C114.148 73.6809 112.83 74.183 112.046 75.2812C110.383 77.5406 111.261 80.3334 113.332 81.4003C113.615 81.5572 113.96 81.6827 114.305 81.7455C114.399 81.7769 114.493 81.7769 114.556 81.8082C114.65 81.8396 114.713 81.8396 114.807 81.8396C117.318 83.0948 118.761 86.0131 118.133 88.9001C117.976 89.5904 117.725 90.218 117.38 90.7829C117.286 90.9398 117.129 91.0339 116.972 91.0967C116.627 91.2222 116.282 91.3791 115.968 91.5673C115.121 92.038 114.399 92.7284 113.866 93.5443C113.395 94.2346 113.05 95.0505 112.893 95.9291C112.328 99.0357 114.18 102.174 117.223 103.146C118.29 103.492 119.357 103.523 120.361 103.335C121.177 103.178 121.899 102.864 122.589 102.425C123.186 102.048 123.75 101.546 124.19 100.95C124.221 100.919 124.252 100.856 124.284 100.824C124.315 100.793 124.347 100.73 124.378 100.699C124.441 100.636 124.503 100.605 124.598 100.573C124.66 100.542 124.723 100.542 124.786 100.542C124.817 100.542 124.849 100.542 124.849 100.542C125.539 100.448 126.261 100.479 126.982 100.636C129.65 101.232 131.533 103.429 131.846 106.002C131.878 106.316 131.784 106.63 131.595 106.881C131.313 107.226 131.125 107.602 130.968 108.042C130.936 108.167 130.874 108.324 130.842 108.45C130.717 109.046 130.717 109.642 130.842 110.176C131.282 112.215 133.29 113.753 135.8 113.219C137.306 112.906 138.405 111.65 138.656 110.144C138.687 110.081 138.719 110.05 138.75 110.05C138.781 110.05 138.781 110.05 138.813 110.05C138.813 110.05 138.813 110.05 138.844 110.05H138.875C152.024 111.242 164.356 102.487 167.243 89.2452Z" fill="#2DBDFF"/>
<path d="M132.033 88.1852H132.096V79.9951C132.787 79.5872 133.257 78.8027 133.257 77.9241C133.257 76.6061 132.19 75.5078 130.841 75.5078C129.523 75.5078 128.425 76.5747 128.425 77.9241C128.425 78.8027 128.895 79.5558 129.586 79.9951V88.1852H129.649C128.927 88.5932 128.425 89.3777 128.425 90.2877C128.425 91.6056 129.492 92.7039 130.841 92.7039C132.159 92.7039 133.257 91.637 133.257 90.2877C133.257 89.3777 132.755 88.5932 132.033 88.1852ZM130.872 91.1349C130.402 91.1349 130.025 90.7584 130.025 90.2877C130.025 89.817 130.402 89.4404 130.872 89.4404C131.343 89.4404 131.72 89.817 131.72 90.2877C131.688 90.7584 131.312 91.1349 130.872 91.1349ZM130.872 78.7713C130.402 78.7713 130.025 78.3948 130.025 77.9241C130.025 77.4534 130.402 77.0768 130.872 77.0768C131.343 77.0768 131.72 77.4534 131.72 77.9241C131.688 78.3948 131.312 78.7713 130.872 78.7713Z" fill="white"/>
<path d="M136.301 82.5562C136.991 82.5562 137.525 81.9914 137.525 81.3324L137.525 75.1008C137.525 74.4104 136.96 73.877 136.301 73.877C135.642 73.877 135.077 74.4418 135.077 75.1008V81.3324C135.077 81.9914 135.611 82.5562 136.301 82.5562Z" fill="white"/>
<path d="M147.127 73.8125C146.437 73.8125 145.903 74.3773 145.903 75.0363V82.8499H136.301C135.611 82.8499 135.077 83.4147 135.077 84.0737V93.111C135.077 93.8014 135.642 94.3349 136.301 94.3349C136.96 94.3349 137.525 93.77 137.525 93.111V85.2975H147.127C147.817 85.2975 148.351 84.7327 148.351 84.0737V75.0363C148.351 74.3773 147.817 73.8125 147.127 73.8125Z" fill="white"/>
<path d="M147.23 85.4492C146.414 85.4492 145.783 86.1786 145.783 87.0295V93.9947C145.783 94.8862 146.451 95.575 147.23 95.575C148.009 95.575 148.676 94.8456 148.676 93.9947V87.0295C148.676 86.138 148.046 85.4492 147.23 85.4492Z" fill="white"/>
<path d="M142.922 96.6564C142.954 96.5623 142.954 96.4681 142.954 96.374V89.3449C142.954 88.6545 142.389 88.1211 141.73 88.1211C141.039 88.1211 140.506 88.6545 140.506 89.3449V96.374C140.506 96.4681 140.506 96.5623 140.537 96.6564C139.816 97.0643 139.345 97.8488 139.345 98.7274C139.345 100.045 140.412 101.144 141.761 101.144C143.079 101.144 144.177 100.077 144.177 98.7274C144.115 97.8488 143.644 97.0957 142.922 96.6564ZM141.698 99.5747C141.228 99.5747 140.851 99.1981 140.851 98.7274C140.851 98.2568 141.228 97.8802 141.698 97.8802C142.169 97.8802 142.546 98.2568 142.546 98.7274C142.546 99.1981 142.169 99.5747 141.698 99.5747Z" fill="white"/>
<path d="M153.937 87.6833V80.4346C154.627 80.0266 155.098 79.2421 155.098 78.3635C155.098 77.0456 154.031 75.9473 152.681 75.9473C151.363 75.9473 150.265 77.0142 150.265 78.3635C150.265 79.2421 150.736 79.9953 151.426 80.4346V87.6833C150.736 88.0912 150.265 88.8757 150.265 89.7544C150.265 91.0723 151.332 92.1706 152.681 92.1706C153.999 92.1706 155.098 91.1037 155.098 89.7544C155.129 88.8757 154.658 88.0912 153.937 87.6833ZM152.713 90.5702C152.242 90.5702 151.865 90.1937 151.865 89.723C151.865 89.2523 152.242 88.8757 152.713 88.8757C153.183 88.8757 153.56 89.2523 153.56 89.723C153.56 90.1937 153.183 90.5702 152.713 90.5702ZM152.713 79.2108C152.242 79.2108 151.865 78.8342 151.865 78.3635C151.865 77.8928 152.242 77.5163 152.713 77.5163C153.183 77.5163 153.56 77.8928 153.56 78.3635C153.56 78.8342 153.183 79.2108 152.713 79.2108Z" fill="white"/>
<path d="M141.698 68.5723C140.381 68.5723 139.282 69.6392 139.282 70.9885C139.282 71.8671 139.753 72.6203 140.443 73.0596V80.0259C140.443 80.7162 141.008 81.2497 141.667 81.2497C142.357 81.2497 142.891 80.6849 142.891 80.0259V73.0596C143.581 72.6516 144.052 71.8671 144.052 70.9885C144.115 69.6392 143.048 68.5723 141.698 68.5723ZM142.326 71.522C142.169 71.6789 141.95 71.773 141.698 71.773C141.447 71.773 141.228 71.6789 141.102 71.4906C140.977 71.3337 140.883 71.1454 140.883 70.9257C140.883 70.4551 141.259 70.0785 141.73 70.0785C142.201 70.0785 142.577 70.4551 142.577 70.9257C142.546 71.1768 142.483 71.3651 142.326 71.522Z" fill="white"/>
<defs>
<filter id="filter0_d" x="0" y="0" width="401.716" height="225.273" filterUnits="userSpaceOnUse" color-interpolation-filters="sRGB">
<feFlood flood-opacity="0" result="BackgroundImageFix"/>
<feColorMatrix in="SourceAlpha" type="matrix" values="0 0 0 0 0 0 0 0 0 0 0 0 0 0 0 0 0 0 127 0"/>
<feOffset dy="7"/>
<feGaussianBlur stdDeviation="22.5"/>
<feColorMatrix type="matrix" values="0 0 0 0 0 0 0 0 0 0 0 0 0 0 0 0 0 0 0.08 0"/>
<feBlend mode="normal" in2="BackgroundImageFix" result="effect1_dropShadow"/>
<feBlend mode="normal" in="SourceGraphic" in2="effect1_dropShadow" result="shape"/>
</filter>
<linearGradient id="paint0_linear" x1="74.2398" y1="186.975" x2="48.0008" y2="167.457" gradientUnits="userSpaceOnUse">
<stop stop-color="white"/>
<stop offset="1" stop-color="#EDEDED"/>
</linearGradient>
</defs>
</svg>
