<svg width="193" height="199" viewBox="0 0 193 199" fill="none" xmlns="http://www.w3.org/2000/svg">
<path d="M28.1291 182.584C-9.37638 160.928 -9.37638 125.817 28.1291 104.165C65.6347 82.513 126.448 82.5089 163.953 104.165C201.459 125.821 201.459 160.928 163.953 182.584C126.448 204.24 65.6347 204.236 28.1291 182.584Z" fill="#93E0FF"/>
<path d="M28.1291 174C-9.37638 152.344 -9.37638 117.233 28.1291 95.5813C65.6347 73.9292 126.448 73.9252 163.953 95.5813C201.459 117.237 201.459 152.344 163.953 174C126.448 195.657 65.6347 195.653 28.1291 174Z" fill="#EFF6FF"/>
<path d="M24.6074 138.906C24.6074 140.307 25.6573 142.047 26.9495 142.794L77.9462 172.244C78.672 172.612 79.4744 172.804 80.2883 172.804C81.1022 172.804 81.9045 172.612 82.6304 172.244L172.425 120.399C173.721 119.652 174.767 117.912 174.767 116.511C174.767 115.109 173.721 113.365 172.425 112.618L121.432 83.1723C120.706 82.8041 119.904 82.6122 119.09 82.6122C118.276 82.6122 117.474 82.8041 116.748 83.1723L26.9495 135.017C25.6573 135.764 24.6074 137.504 24.6074 138.906Z" fill="#455A64"/>
<path d="M174.783 116.511C174.783 117.912 173.733 119.648 172.441 120.399L82.6302 172.244C81.9088 172.624 81.1032 172.815 80.2881 172.801V167.729C81.1036 167.742 81.9091 167.549 82.6302 167.168L172.429 115.323C173.559 114.673 173.701 113.66 172.853 112.901C173.939 113.765 174.783 115.267 174.783 116.511Z" fill="#37474F"/>
<path d="M80.2923 167.733V172.801C79.4769 172.818 78.6708 172.626 77.9502 172.244L26.9495 142.794C25.6573 142.047 24.6074 140.307 24.6074 138.906C24.6074 137.589 25.5321 135.978 26.7113 135.166C25.6614 135.917 25.7421 137.024 26.9495 137.722L77.9462 167.172C78.6676 167.556 79.4752 167.749 80.2923 167.733Z" fill="#263238"/>
<path d="M22.4124 135.098C21.2656 134.29 21.2656 133.216 21.2656 131.722V56.2586C21.3116 55.4489 21.5475 54.6614 21.9544 53.9599C22.3613 53.2583 22.9277 52.6625 23.6077 52.2205L113.406 0.359697C114.702 -0.387345 115.894 0.153756 117.109 0.852341C118.325 1.55093 119.096 2.16067 119.096 3.65072V79.1141C119.048 79.9234 118.812 80.7103 118.405 81.4116C117.998 82.1129 117.433 82.709 116.754 83.1521L26.9512 135.017C24.9928 136.358 23.6562 135.978 22.4124 135.098Z" fill="#37474F"/>
<path d="M26.9502 135.017C24.9918 136.333 23.6552 135.978 22.4115 135.098C21.2687 134.29 21.2646 133.216 21.2646 131.722V56.2626C21.2925 55.4486 21.5274 54.655 21.9471 53.9569L25.2906 55.8992C24.8696 56.5953 24.6346 57.3879 24.6082 58.2009V133.664C24.6082 135.146 25.654 135.76 26.9502 135.017Z" fill="#263238"/>
<path d="M119.091 3.65072C119.091 2.16067 118.041 1.55496 116.749 2.29797L26.9503 54.1467C26.2562 54.5762 25.6857 55.1787 25.2947 55.8952L21.9512 53.9529C22.3477 53.2381 22.9186 52.6352 23.6108 52.2004L113.405 0.359697C114.697 -0.387345 115.893 0.153756 117.104 0.852341C118.316 1.55093 119.091 2.16067 119.091 3.65072Z" fill="#455A64"/>
<path d="M28.2021 56.8482L114.786 6.8731C115.562 6.42488 116.192 6.7883 116.192 7.68071V76.9012C116.163 77.3868 116.021 77.859 115.777 78.2798C115.533 78.7006 115.194 79.0583 114.786 79.324L28.2021 129.307C27.4268 129.755 26.7969 129.392 26.7969 128.5V59.2791C26.8234 58.7919 26.9645 58.3179 27.2086 57.8955C27.4528 57.4731 27.7932 57.1143 28.2021 56.8482Z" fill="#263238"/>
<path d="M28.2021 56.8482C27.7942 57.1135 27.4545 57.471 27.2104 57.8919C26.9663 58.3128 26.8246 58.7852 26.7969 59.271V128.076L112.864 78.4074C113.272 78.1416 113.611 77.784 113.855 77.3632C114.099 76.9424 114.241 76.4702 114.269 75.9846V7.16789L28.2021 56.8482Z" fill="#6ED0FF"/>
<path opacity="0.65" d="M28.2021 56.8482C27.7942 57.1135 27.4545 57.471 27.2104 57.8919C26.9663 58.3128 26.8246 58.7852 26.7969 59.271V128.076L112.864 78.4074C113.272 78.1416 113.611 77.784 113.855 77.3632C114.099 76.9424 114.241 76.4702 114.269 75.9846V7.16789L28.2021 56.8482Z" fill="white"/>
<path d="M33.4515 135.146L116.785 87.0327C117.148 86.8477 117.549 86.7512 117.956 86.7512C118.363 86.7512 118.765 86.8477 119.127 87.0327L121.55 88.3047C122.196 88.6803 122.196 89.286 121.55 89.6575L38.1882 137.771C37.8256 137.956 37.4243 138.053 37.0172 138.053C36.61 138.053 36.2087 137.956 35.8461 137.771L33.4233 136.507C32.7853 136.132 32.7853 135.526 33.4515 135.146Z" fill="#37474F"/>
<path d="M39.97 139.043L123.32 90.9173C123.644 90.735 124.005 90.6296 124.376 90.6093C124.747 90.5889 125.118 90.6543 125.46 90.8002L147.156 103.318C147.689 103.629 147.601 104.182 146.954 104.554L63.7017 152.607C63.3783 152.792 63.0161 152.9 62.6439 152.921C62.2717 152.942 61.8997 152.876 61.5575 152.728L39.7721 140.275C39.2351 139.968 39.3239 139.414 39.97 139.043Z" fill="#263238"/>
<path d="M111.507 110.918L114.116 109.412C114.225 109.347 114.241 109.254 114.152 109.202L111.851 107.869C111.792 107.844 111.728 107.833 111.664 107.837C111.6 107.841 111.538 107.86 111.483 107.893L108.875 109.4C108.766 109.464 108.749 109.557 108.838 109.61L111.14 110.938C111.198 110.964 111.262 110.976 111.326 110.972C111.39 110.969 111.452 110.95 111.507 110.918ZM107.873 105.802L105.261 107.308C105.151 107.372 105.135 107.465 105.224 107.518L107.53 108.846C107.588 108.872 107.651 108.883 107.714 108.879C107.777 108.876 107.839 108.858 107.893 108.826L110.502 107.32C110.615 107.255 110.631 107.162 110.538 107.11L108.237 105.781C108.176 105.757 108.111 105.748 108.046 105.754C107.982 105.76 107.919 105.782 107.865 105.818L107.873 105.802ZM99.4336 110.688L95.016 113.236C94.9069 113.3 94.8908 113.393 94.9796 113.446L97.2813 114.774C97.3398 114.8 97.4036 114.812 97.4675 114.808C97.5314 114.805 97.5935 114.786 97.6488 114.754L102.062 112.206C102.175 112.141 102.192 112.044 102.099 111.992L99.797 110.663C99.7388 110.639 99.6755 110.628 99.6124 110.632C99.5493 110.636 99.488 110.655 99.4336 110.688ZM104.049 108.019L101.441 109.525C101.327 109.589 101.311 109.686 101.404 109.739L103.706 111.067C103.764 111.093 103.827 111.104 103.89 111.1C103.953 111.097 104.015 111.079 104.069 111.047L106.682 109.541C106.791 109.476 106.807 109.379 106.718 109.327L104.417 107.998C104.358 107.972 104.294 107.961 104.23 107.964C104.167 107.968 104.104 107.986 104.049 108.019ZM93.8126 113.93L91.1959 115.436C91.0829 115.501 91.0667 115.598 91.1556 115.646L93.4613 116.979C93.5195 117.004 93.5828 117.014 93.6459 117.01C93.709 117.006 93.7703 116.987 93.8247 116.955L96.4333 115.449C96.5464 115.384 96.5625 115.291 96.4697 115.239L94.168 113.91C94.1111 113.886 94.0495 113.875 93.9879 113.879C93.9263 113.882 93.8664 113.9 93.8126 113.93ZM89.9845 116.135L87.3759 117.641C87.2629 117.702 87.2467 117.799 87.3396 117.851L89.6413 119.18C89.6976 119.208 89.7599 119.223 89.823 119.223C89.8861 119.223 89.9484 119.208 90.0047 119.18L92.6173 117.674C92.7264 117.609 92.7425 117.512 92.6537 117.46L90.352 116.131C90.2948 116.103 90.2316 116.088 90.1678 116.089C90.1039 116.089 90.0411 116.105 89.9845 116.135ZM99.6759 121.95L102.284 120.44C102.398 120.379 102.414 120.282 102.321 120.23L100.019 118.901C99.9612 118.876 99.8981 118.864 99.835 118.868C99.7719 118.871 99.7105 118.89 99.6557 118.921L97.0471 120.427C96.934 120.492 96.9179 120.589 97.0107 120.641L99.3125 121.97C99.3704 121.995 99.4334 122.007 99.4966 122.003C99.5597 122 99.6211 121.981 99.6759 121.95ZM95.8639 124.151L98.4645 122.628C98.5735 122.564 98.5896 122.471 98.5008 122.418L96.1991 121.09C96.1422 121.061 96.0793 121.046 96.0154 121.046C95.9515 121.046 95.8885 121.061 95.8316 121.09L93.215 122.628C93.1059 122.693 93.0898 122.786 93.1786 122.838L95.4803 124.167C95.5395 124.195 95.6047 124.208 95.6701 124.205C95.7355 124.202 95.7993 124.184 95.8559 124.151H95.8639ZM92.048 126.351L94.6566 124.845C94.7696 124.781 94.7858 124.688 94.6929 124.635L92.3912 123.307C92.3333 123.281 92.2702 123.27 92.2071 123.273C92.144 123.277 92.0826 123.295 92.0278 123.327L89.4152 124.833C89.3061 124.898 89.29 124.991 89.3829 125.043L91.6846 126.372C91.7414 126.396 91.803 126.406 91.8646 126.403C91.9262 126.399 91.9861 126.382 92.0399 126.351H92.048ZM88.232 128.556L90.8446 127.05C90.9537 126.985 90.9698 126.888 90.881 126.836L88.5793 125.507C88.5208 125.481 88.457 125.47 88.3931 125.473C88.3292 125.477 88.2671 125.495 88.2118 125.528L85.6032 127.034C85.4902 127.098 85.474 127.195 85.5669 127.248L87.8686 128.576C87.9254 128.6 87.987 128.611 88.0486 128.607C88.1102 128.604 88.1702 128.586 88.2239 128.556H88.232ZM107.7 113.135L110.308 111.629C110.421 111.564 110.437 111.471 110.344 111.419L108.035 110.11C107.977 110.085 107.914 110.074 107.851 110.077C107.787 110.081 107.726 110.099 107.671 110.13L105.059 111.637C104.95 111.701 104.933 111.794 105.022 111.847L107.324 113.175C107.384 113.198 107.449 113.206 107.513 113.199C107.576 113.192 107.638 113.17 107.691 113.135H107.7ZM103.492 119.745L109.311 116.385C109.424 116.321 109.44 116.228 109.347 116.175L103.427 112.755C103.369 112.729 103.305 112.717 103.241 112.721C103.177 112.724 103.115 112.743 103.06 112.775L100.051 114.516C99.9383 114.58 99.9222 114.673 100.015 114.726L103.306 116.624C103.395 116.676 103.379 116.773 103.27 116.838L100.847 118.227C100.738 118.291 100.722 118.384 100.811 118.437L103.112 119.765C103.171 119.792 103.236 119.804 103.3 119.8C103.365 119.797 103.428 119.778 103.484 119.745H103.492ZM86.1928 118.336L83.5802 119.842C83.4711 119.907 83.455 119.999 83.5438 120.052L85.8455 121.38C85.904 121.406 85.9678 121.418 86.0317 121.415C86.0956 121.411 86.1577 121.393 86.213 121.36L88.8216 119.854C88.9346 119.789 88.9508 119.697 88.8579 119.644L86.5562 118.316C86.4972 118.289 86.4326 118.277 86.368 118.28C86.3033 118.284 86.2405 118.303 86.1847 118.336H86.1928ZM82.3768 120.537L79.7682 122.043C79.6552 122.107 79.639 122.204 79.7319 122.257L82.0336 123.585C82.0918 123.61 82.155 123.621 82.2182 123.616C82.2813 123.612 82.3426 123.593 82.397 123.561L85.0096 122.055C85.1187 121.994 85.1348 121.897 85.046 121.845L82.716 120.516C82.6603 120.494 82.6002 120.484 82.5401 120.487C82.48 120.491 82.4215 120.507 82.3687 120.537H82.3768ZM61.1608 143.99C61.2172 144.018 61.2794 144.033 61.3425 144.033C61.4057 144.033 61.4679 144.018 61.5243 143.99L64.1369 142.483C64.2459 142.419 64.2621 142.326 64.1732 142.273L61.8715 140.945C61.8131 140.919 61.7493 140.907 61.6854 140.911C61.6215 140.914 61.5593 140.933 61.5041 140.965L58.8914 142.451C58.7824 142.516 58.7663 142.609 58.8551 142.661L61.1608 143.99ZM51.8733 138.155L49.2607 139.661C49.1516 139.725 49.1355 139.818 49.2243 139.871L51.526 141.199C51.5845 141.225 51.6483 141.237 51.7122 141.233C51.7761 141.23 51.8382 141.211 51.8935 141.179L54.5021 139.673C54.6151 139.608 54.6313 139.515 54.5384 139.463L52.2367 138.134C52.1766 138.106 52.1106 138.094 52.0444 138.097C51.9782 138.101 51.9139 138.12 51.8571 138.155H51.8733ZM56.5534 142.479C56.6113 142.505 56.6744 142.516 56.7375 142.513C56.8006 142.509 56.8621 142.491 56.9168 142.459L59.5295 140.953C59.6385 140.888 59.6546 140.795 59.5658 140.743L57.2641 139.41C57.2053 139.385 57.1413 139.374 57.0774 139.378C57.0136 139.382 56.9516 139.402 56.8966 139.435L54.288 140.941C54.175 141.005 54.1588 141.098 54.2517 141.151L56.5534 142.479ZM67.1695 144.902L69.7781 143.396C69.8911 143.331 69.9073 143.234 69.8144 143.182L67.5127 141.853C67.4548 141.828 67.3917 141.817 67.3286 141.82C67.2655 141.824 67.204 141.842 67.1493 141.874L64.5447 143.384C64.4317 143.444 64.4155 143.541 64.5084 143.594L66.8101 144.922C66.8652 144.944 66.9246 144.954 66.984 144.951C67.0433 144.947 67.1011 144.931 67.1533 144.902H67.1695ZM62.9901 147.123C63.0485 147.149 63.1123 147.161 63.1762 147.157C63.2401 147.154 63.3023 147.135 63.3575 147.103L65.9661 145.597C66.0752 145.532 66.0913 145.439 66.0025 145.387L63.7008 144.058C63.6423 144.032 63.5785 144.021 63.5146 144.024C63.4507 144.028 63.3886 144.046 63.3333 144.078L60.7247 145.585C60.6157 145.649 60.5995 145.742 60.6884 145.795L62.9901 147.123ZM55.661 135.954L53.0524 137.46C52.9393 137.525 52.9232 137.618 53.0161 137.67L55.3177 138.999C55.3757 139.024 55.4387 139.035 55.5019 139.032C55.565 139.028 55.6264 139.01 55.6812 138.978L58.2938 137.472C58.4028 137.408 58.419 137.315 58.3301 137.262L56.0285 135.93C55.9697 135.904 55.9057 135.893 55.8418 135.897C55.7779 135.902 55.7159 135.921 55.661 135.954ZM74.7328 124.942L72.1242 126.448C72.0111 126.513 71.9949 126.606 72.0878 126.658L74.3895 127.987C74.4459 128.015 74.5081 128.03 74.5712 128.03C74.6343 128.03 74.6966 128.015 74.7529 127.987L77.3615 126.481C77.4746 126.416 77.4908 126.323 77.3979 126.271L75.0962 124.942C75.0409 124.915 74.9801 124.901 74.9185 124.901C74.8569 124.901 74.7961 124.915 74.7408 124.942H74.7328ZM59.477 133.749L56.8724 135.255C56.7634 135.32 56.7472 135.417 56.8361 135.469L59.1378 136.798C59.1946 136.827 59.2576 136.842 59.3215 136.842C59.3854 136.842 59.4483 136.827 59.5052 136.798L62.1219 135.267C62.235 135.207 62.2511 135.11 62.1582 135.057L59.8565 133.729C59.7975 133.702 59.733 133.69 59.6683 133.694C59.6037 133.697 59.5408 133.716 59.485 133.749H59.477ZM78.5447 122.741L75.9442 124.243C75.8351 124.304 75.819 124.401 75.9078 124.453L78.2095 125.782C78.268 125.808 78.3318 125.82 78.3957 125.816C78.4596 125.813 78.5217 125.794 78.577 125.762L81.1856 124.256C81.2946 124.191 81.3108 124.094 81.2219 124.042L78.9202 122.713C78.8611 122.688 78.797 122.678 78.7331 122.683C78.6692 122.688 78.6074 122.708 78.5528 122.741H78.5447ZM70.9168 127.143L68.3082 128.649C68.1992 128.714 68.183 128.811 68.2719 128.863L70.5735 130.192C70.6323 130.217 70.6963 130.228 70.7602 130.224C70.8241 130.22 70.8861 130.2 70.941 130.167L73.5496 128.661C73.6586 128.601 73.6748 128.504 73.5859 128.451L71.2843 127.123C71.2269 127.098 71.1645 127.087 71.1022 127.09C71.0398 127.094 70.9791 127.112 70.9249 127.143H70.9168ZM67.1049 129.348L64.4963 130.854C64.3832 130.918 64.367 131.011 64.4599 131.064L66.7616 132.392C66.8196 132.418 66.8826 132.429 66.9457 132.425C67.0089 132.422 67.0703 132.404 67.125 132.372L69.7336 130.866C69.8467 130.801 69.8629 130.704 69.77 130.656L67.4683 129.323C67.4111 129.3 67.3494 129.29 67.2878 129.294C67.2262 129.298 67.1664 129.317 67.1129 129.348H67.1049ZM63.2889 131.548L60.6803 133.055C60.5713 133.119 60.5551 133.212 60.644 133.264L62.9456 134.593C63.0041 134.619 63.0679 134.631 63.1318 134.627C63.1957 134.624 63.2578 134.605 63.3131 134.573L65.9217 133.067C66.0307 133.002 66.0469 132.909 65.958 132.857L63.6564 131.528C63.599 131.503 63.5366 131.492 63.4743 131.496C63.4119 131.499 63.3512 131.517 63.297 131.548H63.2889ZM80.5879 132.958L83.2006 131.451C83.3096 131.387 83.3258 131.294 83.2369 131.241L80.9393 129.897C80.8829 129.868 80.8207 129.854 80.7575 129.854C80.6944 129.854 80.6322 129.868 80.5758 129.897L77.9673 131.403C77.8542 131.468 77.838 131.56 77.9309 131.613L80.2326 132.945C80.288 132.976 80.3498 132.993 80.4129 132.995C80.476 132.997 80.5387 132.984 80.596 132.958H80.5879ZM116.288 100.948L113.676 102.458C113.567 102.519 113.551 102.616 113.639 102.668L115.945 103.997C116.003 104.022 116.066 104.033 116.129 104.03C116.192 104.026 116.254 104.008 116.309 103.976L118.917 102.47C119.03 102.406 119.046 102.309 118.954 102.256L116.652 100.928C116.595 100.904 116.533 100.893 116.472 100.897C116.41 100.9 116.35 100.918 116.297 100.948H116.288ZM111.669 103.617L109.06 105.123C108.951 105.188 108.935 105.281 109.024 105.333L111.326 106.662C111.382 106.69 111.444 106.705 111.507 106.705C111.571 106.705 111.633 106.69 111.689 106.662L114.302 105.156C114.411 105.091 114.427 104.998 114.338 104.946L112.036 103.613C111.98 103.586 111.919 103.572 111.856 103.573C111.794 103.574 111.733 103.589 111.677 103.617H111.669ZM120.1 98.7471L117.492 100.253C117.383 100.318 117.367 100.415 117.455 100.467L119.757 101.796C119.815 101.821 119.879 101.831 119.942 101.827C120.005 101.823 120.066 101.804 120.121 101.772L122.733 100.265C122.842 100.201 122.858 100.108 122.77 100.055L120.468 98.7269C120.41 98.7023 120.348 98.6913 120.286 98.6948C120.223 98.6983 120.163 98.7162 120.108 98.7471H120.1ZM98.8683 118.235L101.477 116.729C101.586 116.664 101.602 116.571 101.513 116.519L99.2115 115.19C99.153 115.164 99.0892 115.152 99.0253 115.156C98.9614 115.159 98.8993 115.178 98.844 115.21L96.2354 116.716C96.1264 116.781 96.1103 116.874 96.1991 116.926L98.5008 118.255C98.5593 118.281 98.6231 118.293 98.687 118.289C98.7509 118.286 98.813 118.267 98.8683 118.235ZM124.308 96.5262C124.252 96.4978 124.189 96.483 124.126 96.483C124.063 96.483 124.001 96.4978 123.945 96.5262L121.336 98.0324C121.223 98.097 121.207 98.1899 121.3 98.2424L123.601 99.5709C123.659 99.5962 123.722 99.6076 123.786 99.6041C123.849 99.6006 123.91 99.5823 123.965 99.5507L126.573 98.0445C126.686 97.9799 126.703 97.887 126.61 97.8345L124.308 96.5262ZM84.412 130.757L87.0206 129.251C87.1337 129.186 87.1498 129.093 87.0569 129.041L84.7552 127.712C84.6973 127.687 84.6342 127.675 84.5711 127.679C84.508 127.682 84.4466 127.701 84.3918 127.732L81.7792 129.239C81.6701 129.303 81.654 129.396 81.7428 129.449L84.0445 130.777C84.103 130.803 84.1668 130.815 84.2307 130.811C84.2946 130.808 84.3567 130.789 84.412 130.757ZM131.173 103.75L133.781 102.244C133.894 102.179 133.911 102.087 133.818 102.034L131.516 100.706C131.458 100.68 131.395 100.669 131.332 100.672C131.269 100.676 131.207 100.694 131.153 100.726L128.544 102.232C128.431 102.297 128.415 102.389 128.508 102.442L130.809 103.775C130.868 103.799 130.931 103.81 130.994 103.806C131.057 103.801 131.118 103.783 131.173 103.75ZM123.739 103.863L126.347 102.357C126.46 102.293 126.477 102.2 126.384 102.147L124.082 100.819C124.024 100.793 123.961 100.782 123.898 100.785C123.835 100.789 123.773 100.807 123.719 100.839L121.11 102.345C120.997 102.41 120.981 102.503 121.074 102.555L123.375 103.884C123.435 103.911 123.5 103.923 123.566 103.92C123.631 103.916 123.695 103.897 123.751 103.863H123.739ZM127.898 98.6139C127.839 98.5879 127.776 98.5762 127.712 98.5797C127.648 98.5832 127.586 98.6018 127.53 98.634L124.922 100.144C124.813 100.205 124.797 100.302 124.885 100.354L127.187 101.683C127.246 101.709 127.309 101.721 127.373 101.717C127.437 101.713 127.499 101.695 127.555 101.663L130.163 100.156C130.272 100.092 130.288 99.9949 130.2 99.9424L127.898 98.6139ZM128.706 98.1495L134.625 101.57C134.684 101.596 134.748 101.607 134.811 101.604C134.875 101.6 134.938 101.582 134.993 101.55L137.601 100.043C137.71 99.9787 137.727 99.8858 137.638 99.8334L131.714 96.4131C131.658 96.3847 131.595 96.3699 131.532 96.3699C131.469 96.3699 131.407 96.3847 131.35 96.4131L128.75 97.9395C128.637 97.996 128.621 98.097 128.714 98.1495H128.706ZM119.907 103.04L117.298 104.546C117.189 104.61 117.169 104.703 117.262 104.756L119.563 106.088C119.622 106.114 119.686 106.125 119.75 106.121C119.814 106.116 119.876 106.097 119.931 106.064L122.539 104.558C122.648 104.493 122.665 104.4 122.576 104.348L120.274 103.019C120.217 102.995 120.154 102.984 120.092 102.987C120.03 102.991 119.969 103.009 119.915 103.04H119.907ZM91.1959 119.616L88.5873 121.122C88.4743 121.187 88.4581 121.28 88.551 121.332L90.8527 122.661C90.9106 122.686 90.9737 122.697 91.0368 122.694C91.0999 122.69 91.1614 122.672 91.2161 122.64L93.8288 121.134C93.9378 121.07 93.9539 120.973 93.8651 120.924L91.5634 119.592C91.5046 119.566 91.4406 119.555 91.3768 119.559C91.3129 119.564 91.2509 119.583 91.1959 119.616ZM126.993 105.975C127.052 106.001 127.116 106.013 127.18 106.009C127.243 106.006 127.306 105.987 127.361 105.955L129.969 104.449C130.078 104.384 130.095 104.287 130.006 104.235L127.704 102.906C127.647 102.877 127.584 102.862 127.52 102.862C127.456 102.862 127.393 102.877 127.337 102.906L124.74 104.457C124.631 104.518 124.615 104.614 124.704 104.667L126.993 105.975ZM95.0119 117.411L92.4074 118.917C92.2983 118.982 92.2822 119.079 92.3751 119.131L94.6768 120.46C94.7347 120.485 94.7977 120.496 94.8609 120.493C94.924 120.489 94.9854 120.471 95.0402 120.44L97.6488 118.929C97.7618 118.869 97.778 118.772 97.6851 118.719L95.3834 117.391C95.326 117.366 95.2637 117.355 95.2013 117.359C95.139 117.362 95.0783 117.38 95.024 117.411H95.0119ZM64.9647 141.789C65.0226 141.814 65.0857 141.826 65.1488 141.822C65.2119 141.819 65.2733 141.8 65.3281 141.769L67.9367 140.262C68.0498 140.198 68.0659 140.101 67.973 140.048L65.6713 138.72C65.615 138.692 65.5527 138.677 65.4896 138.677C65.4265 138.677 65.3643 138.692 65.3079 138.72L62.6993 140.23C62.5863 140.291 62.5701 140.388 62.663 140.44L64.9647 141.789ZM60.6843 137.23L58.0838 138.736C57.9748 138.801 57.9586 138.898 58.0475 138.95L60.3492 140.279C60.4061 140.308 60.469 140.323 60.5329 140.323C60.5968 140.323 60.6598 140.308 60.7166 140.279L63.3252 138.768C63.4383 138.708 63.4545 138.611 63.3616 138.558L61.0599 137.23C61.0035 137.201 60.9413 137.187 60.8782 137.187C60.815 137.187 60.7528 137.201 60.6965 137.23H60.6843ZM69.1441 139.564L71.7527 138.058C71.8617 137.993 71.8778 137.9 71.789 137.848L69.4873 136.519C69.4288 136.493 69.365 136.481 69.3011 136.485C69.2373 136.488 69.1751 136.507 69.1199 136.539L66.5113 138.046C66.4022 138.11 66.3861 138.203 66.4749 138.256L68.7766 139.588C68.837 139.616 68.9032 139.628 68.9694 139.623C69.0356 139.619 69.0998 139.599 69.1562 139.564H69.1441ZM72.956 137.363L75.5646 135.857C75.6777 135.792 75.6938 135.699 75.6009 135.647L73.2992 134.318C73.2413 134.293 73.1783 134.282 73.1151 134.285C73.052 134.289 72.9906 134.307 72.9358 134.339L70.3272 135.845C70.2142 135.909 70.198 136.002 70.2909 136.055L72.5926 137.383C72.6521 137.411 72.7174 137.423 72.7828 137.42C72.8483 137.416 72.9119 137.397 72.9681 137.363H72.956ZM76.772 135.162L79.3806 133.656C79.4896 133.592 79.5057 133.495 79.4169 133.442L77.1152 132.114C77.0567 132.088 76.9929 132.076 76.9291 132.079C76.8652 132.083 76.803 132.102 76.7478 132.134L74.1392 133.644C74.0301 133.705 74.014 133.802 74.1028 133.854L76.4045 135.183C76.4659 135.208 76.5326 135.218 76.5989 135.212C76.6651 135.206 76.7287 135.183 76.7841 135.146L76.772 135.162ZM64.4963 135.029L61.8877 136.535C61.7787 136.6 61.7625 136.693 61.8513 136.745L64.153 138.074C64.2115 138.1 64.2753 138.112 64.3392 138.108C64.4031 138.105 64.4652 138.086 64.5205 138.054L67.1291 136.547C67.2381 136.483 67.2543 136.39 67.1654 136.337L64.8637 135.009C64.8069 134.985 64.7453 134.974 64.6837 134.978C64.6221 134.981 64.5621 134.999 64.5084 135.029H64.4963ZM68.3122 132.828L65.7158 134.339C65.6027 134.403 65.5865 134.496 65.6794 134.549L67.9811 135.877C68.039 135.902 68.1021 135.914 68.1652 135.91C68.2284 135.907 68.2898 135.889 68.3445 135.857L70.9531 134.351C71.0662 134.286 71.0824 134.193 70.9895 134.141L68.6878 132.808C68.6298 132.783 68.5668 132.772 68.5037 132.775C68.4405 132.779 68.3791 132.797 68.3244 132.828H68.3122ZM83.568 124.017L80.9594 125.524C80.8464 125.588 80.8302 125.685 80.9231 125.738L83.2248 127.066C83.2827 127.091 83.3458 127.103 83.4089 127.099C83.472 127.096 83.5335 127.077 83.5882 127.046L86.2009 125.536C86.3099 125.475 86.326 125.378 86.2372 125.326L83.9274 123.997C83.8717 123.974 83.8116 123.964 83.7515 123.968C83.6914 123.971 83.6329 123.988 83.5802 124.017H83.568ZM79.7521 126.222L77.1435 127.728C77.0345 127.793 77.0183 127.886 77.1071 127.938L79.4088 129.267C79.4673 129.293 79.5311 129.305 79.595 129.301C79.6589 129.297 79.721 129.279 79.7763 129.247L82.3849 127.74C82.4939 127.676 82.5141 127.583 82.4212 127.53L80.1195 126.198C80.0624 126.174 80.0006 126.164 79.939 126.169C79.8774 126.173 79.8176 126.191 79.7642 126.222H79.7521ZM87.3961 121.821L84.7835 123.327C84.6745 123.391 84.6583 123.484 84.7472 123.537L87.0489 124.865C87.1057 124.894 87.1687 124.91 87.2326 124.91C87.2965 124.91 87.3594 124.894 87.4163 124.865L90.0249 123.359C90.138 123.295 90.1541 123.202 90.0612 123.149L87.7596 121.821C87.7032 121.792 87.6409 121.777 87.5778 121.777C87.5147 121.777 87.4525 121.792 87.3961 121.821ZM72.1363 130.624L69.5277 132.13C69.4187 132.194 69.4025 132.291 69.4914 132.344L71.793 133.672C71.8515 133.698 71.9153 133.71 71.9792 133.707C72.0431 133.703 72.1052 133.684 72.1605 133.652L74.7691 132.142C74.8781 132.081 74.8943 131.984 74.8054 131.932L72.5037 130.603C72.4453 130.577 72.3815 130.566 72.3176 130.569C72.2537 130.573 72.1916 130.591 72.1363 130.624ZM75.9523 128.423L73.3437 129.929C73.2306 129.994 73.2144 130.087 73.3073 130.139L75.609 131.468C75.6669 131.493 75.73 131.504 75.7931 131.501C75.8563 131.497 75.9177 131.479 75.9724 131.447L78.581 129.941C78.6941 129.877 78.7103 129.784 78.6174 129.731L76.3157 128.403C76.2577 128.377 76.1947 128.366 76.1316 128.369C76.0684 128.373 76.007 128.391 75.9523 128.423ZM70.9693 142.697L73.5779 141.191C73.6869 141.127 73.7031 141.034 73.6142 140.981L71.3125 139.653C71.2556 139.624 71.1927 139.608 71.1288 139.608C71.0649 139.608 71.0019 139.624 70.9451 139.653L68.3365 141.159C68.2274 141.224 68.2113 141.316 68.3001 141.369L70.6018 142.701C70.6594 142.728 70.7224 142.742 70.786 142.741C70.8496 142.741 70.9123 142.726 70.9693 142.697ZM50.7103 141.664L48.3925 140.335C48.3361 140.307 48.2739 140.292 48.2108 140.292C48.1476 140.292 48.0854 140.307 48.029 140.335L45.4205 141.841C45.3074 141.906 45.2912 142.003 45.3841 142.055L47.6858 143.384C47.7437 143.409 47.8068 143.421 47.8699 143.417C47.933 143.414 47.9945 143.395 48.0492 143.364L50.6619 141.853C50.783 141.813 50.8153 141.716 50.7103 141.664ZM55.7337 142.944L53.432 141.615C53.374 141.59 53.311 141.579 53.2479 141.582C53.1847 141.586 53.1233 141.604 53.0685 141.635L49.0305 143.953C48.9215 144.018 48.9053 144.111 48.9941 144.163L51.2958 145.492C51.3543 145.518 51.4181 145.529 51.482 145.526C51.5459 145.522 51.608 145.504 51.6633 145.472L55.6771 143.154C55.8104 143.089 55.8265 142.996 55.7337 142.944ZM47.3183 139.011L45.0167 137.682C44.9584 137.657 44.8952 137.647 44.8321 137.651C44.7689 137.655 44.7077 137.674 44.6532 137.706L41.4228 139.56C41.3137 139.624 41.2976 139.717 41.3864 139.77L43.6881 141.098C43.7466 141.124 43.8104 141.136 43.8743 141.133C43.9382 141.129 44.0003 141.11 44.0556 141.078L47.286 139.225C47.3951 139.16 47.4112 139.063 47.3183 139.011ZM49.7816 137.589C49.8395 137.615 49.9026 137.626 49.9657 137.622C50.0288 137.619 50.0902 137.601 50.145 137.569L52.7576 136.063C52.8666 135.998 52.8828 135.905 52.794 135.853L50.4923 134.524C50.4338 134.498 50.37 134.487 50.3061 134.49C50.2422 134.494 50.1801 134.512 50.1248 134.545L47.5162 136.051C47.4031 136.115 47.387 136.208 47.4799 136.261L49.7816 137.589ZM60.3573 144.454L58.0556 143.125C57.9976 143.1 57.9346 143.089 57.8714 143.092C57.8083 143.096 57.7469 143.114 57.6921 143.146L52.6728 146.049C52.5598 146.114 52.5436 146.206 52.6365 146.259L54.9382 147.587C54.9961 147.613 55.0592 147.624 55.1223 147.621C55.1854 147.617 55.2468 147.599 55.3016 147.567L60.3209 144.668C60.434 144.599 60.4501 144.506 60.3573 144.454ZM62.1703 147.587L59.8686 146.259C59.8107 146.234 59.7477 146.222 59.6845 146.226C59.6214 146.229 59.56 146.248 59.5052 146.279L56.2748 148.133C56.1657 148.197 56.1496 148.294 56.2384 148.347L58.5401 149.675C58.5989 149.701 58.6629 149.712 58.7268 149.707C58.7907 149.703 58.8526 149.684 58.9076 149.651L62.1179 147.797C62.2471 147.733 62.2632 147.64 62.1703 147.587ZM78.1409 121.219C78.1988 121.244 78.2619 121.256 78.325 121.252C78.3881 121.249 78.4495 121.23 78.5043 121.199L81.1169 119.689C81.226 119.628 81.2421 119.531 81.1533 119.479L78.8516 118.15C78.7947 118.121 78.7317 118.106 78.6679 118.106C78.604 118.106 78.541 118.121 78.4841 118.15L75.8755 119.656C75.7625 119.721 75.7463 119.818 75.8392 119.87L78.1409 121.219ZM70.513 125.62C70.5709 125.646 70.634 125.657 70.6971 125.654C70.7602 125.65 70.8216 125.632 70.8764 125.6L73.489 124.094C73.5981 124.029 73.6142 123.937 73.5254 123.884L71.2196 122.556C71.1617 122.53 71.0987 122.519 71.0355 122.522C70.9724 122.526 70.911 122.544 70.8562 122.576L68.2476 124.082C68.1346 124.147 68.1184 124.239 68.2113 124.292L70.513 125.62ZM53.5975 135.389C53.6555 135.414 53.7185 135.425 53.7816 135.422C53.8448 135.418 53.9062 135.4 53.961 135.368L56.5695 133.862C56.6826 133.798 56.6988 133.701 56.6059 133.652L54.3042 132.32C54.246 132.295 54.1827 132.284 54.1196 132.288C54.0565 132.293 53.9952 132.312 53.9408 132.344L51.3322 133.85C51.2191 133.915 51.203 134.007 51.2958 134.06L53.5975 135.389ZM74.3249 123.436C74.3818 123.465 74.4448 123.48 74.5086 123.48C74.5725 123.48 74.6355 123.465 74.6924 123.436L77.301 121.93C77.414 121.865 77.4302 121.768 77.3373 121.716L75.0356 120.387C74.9774 120.362 74.9141 120.352 74.851 120.356C74.7879 120.36 74.7266 120.379 74.6722 120.411L72.0596 121.918C71.9505 121.982 71.9344 122.075 72.0232 122.128L74.3249 123.436ZM66.697 127.841C66.7555 127.867 66.8193 127.879 66.8832 127.876C66.9471 127.872 67.0092 127.853 67.0645 127.821L69.6731 126.311C69.7821 126.25 69.7982 126.153 69.7094 126.101L67.4077 124.772C67.3492 124.746 67.2854 124.735 67.2215 124.738C67.1577 124.742 67.0955 124.76 67.0402 124.793L64.4317 126.299C64.3226 126.363 64.3065 126.46 64.3953 126.513L66.697 127.841ZM64.2742 147.902C64.2157 147.876 64.1519 147.865 64.088 147.868C64.0241 147.872 63.962 147.89 63.9067 147.923L59.8929 150.241C59.7798 150.305 59.7637 150.398 59.8565 150.45L62.1582 151.779C62.2146 151.807 62.2768 151.822 62.3399 151.822C62.4031 151.822 62.4653 151.807 62.5217 151.779L66.5597 149.461C66.6687 149.397 66.6849 149.304 66.5961 149.251L64.2742 147.902ZM61.2052 130.999C61.2632 131.024 61.3262 131.036 61.3894 131.032C61.4525 131.029 61.5139 131.011 61.5687 130.979L64.1773 129.473C64.2903 129.408 64.3065 129.315 64.2136 129.263L61.9119 127.934C61.8555 127.906 61.7933 127.891 61.7302 127.891C61.6671 127.891 61.6048 127.906 61.5485 127.934L58.9399 129.44C58.8268 129.505 58.8107 129.598 58.9035 129.65L61.2052 130.999ZM57.3893 133.204C57.4462 133.233 57.5091 133.248 57.573 133.248C57.6369 133.248 57.6999 133.233 57.7567 133.204L60.3653 131.694C60.4744 131.633 60.4905 131.536 60.4017 131.484L58.1 130.155C58.0415 130.129 57.9777 130.117 57.9138 130.121C57.8499 130.124 57.7878 130.143 57.7325 130.175L55.1239 131.682C55.0149 131.746 54.9987 131.843 55.0876 131.896L57.3893 133.204ZM134.92 107.102C134.861 107.078 134.797 107.068 134.734 107.072C134.67 107.076 134.608 107.095 134.553 107.126L128.132 110.833C128.019 110.898 128.003 110.991 128.096 111.043L130.397 112.372C130.455 112.397 130.518 112.408 130.582 112.405C130.645 112.401 130.706 112.383 130.761 112.351L137.23 108.628C137.339 108.564 137.359 108.471 137.266 108.418L134.92 107.102ZM126.489 111.972C126.431 111.946 126.368 111.935 126.305 111.939C126.241 111.942 126.18 111.96 126.125 111.992L123.513 113.498C123.404 113.563 123.387 113.66 123.476 113.712L125.778 115.041C125.837 115.066 125.901 115.077 125.965 115.073C126.028 115.069 126.09 115.049 126.145 115.016L128.754 113.51C128.867 113.45 128.883 113.353 128.79 113.3L126.489 111.972ZM74.7812 140.497L77.3938 138.99C77.5029 138.926 77.519 138.833 77.4302 138.78L75.1285 137.448C75.0697 137.423 75.0057 137.412 74.9418 137.416C74.8779 137.42 74.816 137.439 74.761 137.472L72.1524 138.978C72.0394 139.043 72.0232 139.136 72.1161 139.188L74.4178 140.517C74.4757 140.542 74.5388 140.554 74.6019 140.55C74.665 140.547 74.7264 140.528 74.7812 140.497ZM118.897 116.361C118.84 116.332 118.777 116.317 118.713 116.317C118.649 116.317 118.586 116.332 118.53 116.361L115.921 117.867C115.812 117.932 115.796 118.025 115.885 118.077L118.186 119.406C118.245 119.432 118.309 119.444 118.373 119.44C118.436 119.437 118.499 119.418 118.554 119.386L121.162 117.879C121.271 117.815 121.288 117.722 121.199 117.669L118.897 116.361ZM138.772 104.885C138.714 104.859 138.65 104.847 138.586 104.851C138.522 104.854 138.46 104.873 138.405 104.905L135.796 106.411C135.683 106.476 135.667 106.573 135.76 106.625L138.062 107.954C138.12 107.979 138.183 107.991 138.246 107.987C138.309 107.984 138.37 107.965 138.425 107.934L141.038 106.428C141.147 106.363 141.163 106.266 141.074 106.214L138.772 104.885ZM144.902 104.013L138.978 100.593C138.92 100.567 138.857 100.556 138.794 100.559C138.731 100.563 138.67 100.581 138.615 100.613L136.006 102.123C135.893 102.184 135.877 102.28 135.97 102.333L141.89 105.749C141.948 105.775 142.012 105.787 142.076 105.783C142.14 105.78 142.202 105.761 142.257 105.729L144.866 104.223C144.963 104.158 144.979 104.053 144.902 104.013ZM104.659 124.607C104.601 124.582 104.538 124.57 104.475 124.574C104.412 124.577 104.35 124.595 104.295 124.627L101.065 126.481C100.956 126.545 100.94 126.638 101.029 126.691L103.33 128.019C103.389 128.045 103.453 128.057 103.516 128.053C103.58 128.05 103.643 128.031 103.698 127.999L106.928 126.145C107.041 126.081 107.057 125.988 106.965 125.935L104.659 124.607ZM114.294 119.042C114.236 119.017 114.173 119.006 114.11 119.009C114.046 119.013 113.985 119.031 113.93 119.063L109.916 121.38C109.803 121.445 109.787 121.538 109.88 121.59L112.182 122.919C112.24 122.944 112.303 122.956 112.366 122.952C112.429 122.949 112.49 122.93 112.545 122.899L116.563 120.581C116.672 120.516 116.688 120.423 116.595 120.371L114.294 119.042ZM95.8276 129.703C95.7688 129.678 95.7048 129.666 95.6409 129.671C95.5771 129.675 95.5151 129.694 95.4601 129.727L73.9817 142.128C73.8727 142.193 73.8525 142.286 73.9453 142.338L76.247 143.667C76.305 143.692 76.368 143.703 76.4312 143.7C76.4943 143.696 76.5557 143.678 76.6105 143.646L98.0606 131.229C98.1697 131.165 98.1858 131.072 98.097 131.019L95.8276 129.703ZM73.1418 142.802C73.0838 142.777 73.0208 142.766 72.9576 142.769C72.8945 142.773 72.8331 142.791 72.7783 142.823L69.5479 144.676C69.4389 144.741 69.4227 144.834 69.5115 144.886L71.8132 146.219C71.872 146.244 71.936 146.255 71.9999 146.251C72.0638 146.247 72.1258 146.227 72.1807 146.194L75.4112 144.341C75.5242 144.276 75.5404 144.183 75.4475 144.131L73.1418 142.802ZM100.241 127.155C100.183 127.13 100.12 127.118 100.057 127.122C99.994 127.125 99.9325 127.144 99.8778 127.175L96.6675 129.029C96.5545 129.093 96.5383 129.19 96.6312 129.243L98.9329 130.571C98.9908 130.596 99.0539 130.608 99.117 130.604C99.1801 130.601 99.2415 130.582 99.2963 130.551L102.527 128.693C102.636 128.629 102.652 128.536 102.559 128.483L100.241 127.155ZM68.7241 145.35C68.6678 145.322 68.6055 145.307 68.5424 145.307C68.4793 145.307 68.4171 145.322 68.3607 145.35L65.1504 147.208C65.0374 147.273 65.0212 147.365 65.1141 147.418L67.4158 148.746C67.4737 148.772 67.5368 148.783 67.5999 148.78C67.663 148.776 67.7244 148.758 67.7792 148.726L70.9895 146.873C71.1025 146.808 71.1187 146.711 71.0258 146.659L68.7241 145.35ZM109.076 122.055C109.02 122.026 108.957 122.011 108.893 122.011C108.829 122.011 108.766 122.026 108.709 122.055L105.499 123.912C105.39 123.973 105.374 124.07 105.462 124.122L107.752 125.455C107.81 125.481 107.874 125.493 107.938 125.489C108.002 125.486 108.064 125.467 108.119 125.435L111.35 123.577C111.459 123.517 111.475 123.42 111.386 123.367L109.076 122.055ZM122.693 114.148C122.635 114.124 122.571 114.113 122.508 114.117C122.445 114.121 122.384 114.14 122.329 114.173L119.721 115.679C119.608 115.739 119.592 115.836 119.684 115.889L121.986 117.217C122.044 117.243 122.107 117.254 122.17 117.25C122.233 117.247 122.295 117.229 122.35 117.197L124.958 115.691C125.071 115.626 125.087 115.529 124.995 115.477L122.693 114.148ZM130.975 108.035L133.583 106.528C133.697 106.464 133.713 106.371 133.62 106.318L131.318 104.99C131.26 104.965 131.197 104.953 131.134 104.957C131.071 104.96 131.009 104.979 130.955 105.01L128.346 106.524C128.233 106.589 128.217 106.682 128.31 106.734L130.611 108.067C130.672 108.094 130.738 108.107 130.804 108.102C130.87 108.098 130.935 108.078 130.991 108.043L130.975 108.035ZM115.303 108.725L117.912 107.215C118.025 107.154 118.041 107.057 117.948 107.005L115.646 105.676C115.59 105.648 115.528 105.633 115.465 105.633C115.402 105.633 115.339 105.648 115.283 105.676L112.674 107.183C112.561 107.247 112.545 107.344 112.638 107.397L114.94 108.725C114.998 108.758 115.062 108.775 115.129 108.777C115.195 108.778 115.26 108.763 115.319 108.733L115.303 108.725ZM105.281 122.858L112.909 118.457C113.018 118.392 113.034 118.295 112.945 118.243L110.643 116.914C110.585 116.888 110.521 116.877 110.457 116.88C110.393 116.884 110.331 116.902 110.276 116.935L102.664 121.36C102.555 121.425 102.539 121.518 102.628 121.57L104.929 122.899C104.988 122.925 105.052 122.936 105.116 122.933C105.179 122.929 105.242 122.911 105.297 122.879L105.281 122.858ZM126.796 110.248C126.854 110.274 126.918 110.285 126.982 110.282C127.046 110.278 127.108 110.26 127.163 110.227L129.772 108.721C129.881 108.657 129.897 108.56 129.808 108.507L127.506 107.179C127.449 107.15 127.386 107.134 127.322 107.134C127.259 107.134 127.196 107.15 127.139 107.179L124.53 108.689C124.421 108.749 124.405 108.846 124.494 108.899L126.796 110.248ZM123.541 108.136L126.149 106.629C126.262 106.565 126.279 106.472 126.186 106.419L123.884 105.091C123.826 105.066 123.763 105.054 123.7 105.058C123.637 105.061 123.575 105.08 123.521 105.111L120.912 106.617C120.799 106.682 120.783 106.775 120.876 106.827L123.177 108.156C123.236 108.187 123.301 108.203 123.367 108.203C123.433 108.203 123.499 108.187 123.557 108.156L123.541 108.136ZM101.465 125.063L104.077 123.553C104.186 123.492 104.203 123.395 104.11 123.343L101.808 122.014C101.75 121.989 101.687 121.978 101.624 121.981C101.561 121.985 101.499 122.003 101.445 122.035L98.8683 123.561C98.7552 123.626 98.739 123.723 98.8319 123.775L101.134 125.104C101.189 125.126 101.249 125.136 101.31 125.133C101.37 125.129 101.428 125.112 101.481 125.083L101.465 125.063ZM118.364 115.113C118.423 115.139 118.486 115.151 118.55 115.148C118.614 115.144 118.676 115.125 118.731 115.093L121.34 113.587C121.449 113.522 121.465 113.43 121.376 113.377L119.075 112.048C119.018 112.019 118.955 112.004 118.891 112.004C118.827 112.004 118.764 112.019 118.707 112.048L116.099 113.555C115.99 113.619 115.973 113.712 116.062 113.765L118.364 115.113ZM82.393 136.071L85.0056 134.565C85.1146 134.5 85.1308 134.407 85.0419 134.355L82.7402 133.026C82.6818 133 82.618 132.989 82.5541 132.992C82.4902 132.996 82.428 133.014 82.3728 133.046L79.7642 134.553C79.6511 134.617 79.635 134.71 79.7278 134.763L82.0295 136.091C82.088 136.122 82.1531 136.139 82.2193 136.139C82.2855 136.139 82.3507 136.122 82.4091 136.091L82.393 136.071ZM86.2089 133.87L88.8175 132.364C88.9306 132.299 88.9467 132.207 88.8539 132.154L86.5522 130.821C86.4939 130.797 86.4307 130.786 86.3676 130.79C86.3044 130.794 86.2432 130.813 86.1887 130.846L83.5802 132.352C83.4671 132.416 83.4509 132.509 83.5398 132.562L85.8455 133.89C85.9039 133.922 85.9691 133.938 86.0353 133.938C86.1015 133.938 86.1667 133.922 86.2251 133.89L86.2089 133.87ZM78.5972 138.296L81.2058 136.79C81.3188 136.725 81.335 136.628 81.2421 136.576L78.9404 135.247C78.8825 135.222 78.8194 135.21 78.7563 135.214C78.6932 135.218 78.6318 135.236 78.577 135.267L75.9644 136.761C75.8553 136.826 75.8392 136.923 75.928 136.975L78.2297 138.304C78.2872 138.332 78.3505 138.346 78.4144 138.344C78.4783 138.343 78.5409 138.326 78.5972 138.296ZM93.853 129.493L96.4616 127.987C96.5746 127.922 96.5908 127.829 96.4979 127.777L94.1962 126.448C94.1383 126.423 94.0752 126.412 94.0121 126.415C93.949 126.419 93.8876 126.437 93.8328 126.468L91.2242 127.975C91.1111 128.039 91.095 128.132 91.1879 128.185L93.4896 129.513C93.5475 129.538 93.6106 129.55 93.6737 129.546C93.7368 129.543 93.7982 129.525 93.853 129.493ZM90.0411 131.698L92.6496 130.187C92.7587 130.127 92.7748 130.03 92.686 129.978L90.3843 128.649C90.3258 128.623 90.262 128.611 90.1981 128.615C90.1342 128.618 90.0721 128.637 90.0168 128.669L87.4082 130.175C87.2992 130.24 87.2831 130.337 87.3719 130.389L89.6736 131.718C89.7327 131.743 89.7968 131.753 89.8607 131.748C89.9246 131.743 89.9864 131.723 90.0411 131.69V131.698ZM97.6568 127.284L100.265 125.778C100.374 125.713 100.391 125.62 100.302 125.568L98.0001 124.235C97.9413 124.21 97.8773 124.199 97.8134 124.203C97.7495 124.207 97.6876 124.227 97.6326 124.26L95.024 125.766C94.915 125.83 94.8988 125.923 94.9877 125.976L97.2894 127.304C97.3478 127.33 97.4117 127.342 97.4755 127.339C97.5394 127.335 97.6016 127.316 97.6568 127.284ZM118.744 96.7846C118.8 96.813 118.862 96.8278 118.925 96.8278C118.988 96.8278 119.051 96.813 119.107 96.7846L121.72 95.2784C121.829 95.2138 121.845 95.1169 121.756 95.0644L121.142 94.7131C121.086 94.6847 121.024 94.6699 120.961 94.6699C120.897 94.6699 120.835 94.6847 120.779 94.7131L118.166 96.2193C118.057 96.2839 118.041 96.3768 118.13 96.4293L118.744 96.7846ZM99.7163 108.762C99.7742 108.787 99.8372 108.798 99.9004 108.795C99.9635 108.791 100.025 108.773 100.08 108.741L102.688 107.235C102.801 107.171 102.817 107.078 102.725 107.025L100.423 105.697C100.365 105.671 100.302 105.66 100.239 105.663C100.176 105.667 100.114 105.685 100.059 105.717L97.4469 107.223C97.3378 107.288 97.3217 107.38 97.4105 107.433L99.7163 108.762ZM107.348 104.356C107.406 104.381 107.469 104.393 107.532 104.389C107.595 104.386 107.657 104.367 107.712 104.336L110.32 102.83C110.433 102.765 110.449 102.672 110.357 102.62L108.055 101.291C107.998 101.263 107.936 101.248 107.873 101.248C107.81 101.248 107.748 101.263 107.691 101.291L105.083 102.797C104.97 102.862 104.954 102.955 105.046 103.007L107.348 104.356ZM95.0604 111.451C95.1188 111.477 95.1826 111.489 95.2465 111.485C95.3104 111.482 95.3726 111.463 95.4278 111.431L98.0364 109.924C98.1455 109.86 98.1616 109.767 98.0728 109.714L95.7711 108.382C95.7123 108.357 95.6483 108.346 95.5844 108.35C95.5205 108.354 95.4585 108.373 95.4036 108.406L92.8112 109.912C92.7021 109.977 92.686 110.07 92.7748 110.122L95.0604 111.451ZM103.54 106.561C103.597 106.59 103.66 106.605 103.724 106.605C103.788 106.605 103.851 106.59 103.908 106.561L106.516 105.051C106.625 104.99 106.642 104.893 106.553 104.841L104.251 103.512C104.193 103.486 104.129 103.474 104.065 103.478C104.001 103.481 103.939 103.5 103.884 103.532L101.275 105.038C101.166 105.103 101.15 105.2 101.239 105.252L103.54 106.561ZM87.4405 115.848C87.4985 115.874 87.5615 115.885 87.6247 115.881C87.6878 115.878 87.7492 115.86 87.804 115.828L90.4166 114.318C90.5256 114.257 90.5418 114.16 90.4529 114.108L88.1512 112.779C88.0928 112.753 88.029 112.742 87.9651 112.745C87.9012 112.749 87.8391 112.767 87.7838 112.8L85.1752 114.306C85.0621 114.37 85.046 114.467 85.1388 114.52L87.4405 115.848ZM91.2565 113.644C91.3129 113.672 91.3751 113.687 91.4382 113.687C91.5013 113.687 91.5636 113.672 91.6199 113.644L94.2285 112.137C94.3416 112.073 94.3577 111.98 94.2649 111.927L91.9632 110.599C91.9052 110.574 91.8422 110.562 91.7791 110.566C91.7159 110.569 91.6545 110.587 91.5997 110.619L88.979 112.129C88.866 112.194 88.8498 112.287 88.9427 112.339L91.2565 113.644ZM111.116 101.226C111.174 101.251 111.237 101.262 111.3 101.258C111.363 101.253 111.425 101.234 111.479 101.202L114.092 99.6961C114.201 99.6315 114.217 99.5386 114.128 99.4861L113.514 99.1307C113.456 99.1054 113.392 99.0943 113.328 99.0985C113.264 99.1027 113.202 99.1221 113.147 99.155L110.538 100.661C110.429 100.726 110.413 100.819 110.502 100.871L111.116 101.226ZM122.56 94.6202C122.618 94.6449 122.681 94.6556 122.744 94.6514C122.807 94.6472 122.869 94.6282 122.923 94.596L125.519 93.0696C125.633 93.005 125.649 92.9121 125.556 92.8596L124.946 92.5043C124.887 92.4789 124.823 92.4678 124.759 92.4721C124.696 92.4763 124.634 92.4956 124.579 92.5285L121.97 94.0347C121.857 94.0993 121.841 94.1922 121.934 94.2447L122.56 94.6202ZM127.405 97.4105C127.464 97.4365 127.528 97.4482 127.591 97.4447C127.655 97.4412 127.717 97.4226 127.773 97.3903L130.381 95.8841C130.49 95.8195 130.506 95.7226 130.418 95.6701L128.116 94.3416C128.059 94.3125 127.996 94.2974 127.932 94.2974C127.868 94.2974 127.805 94.3125 127.748 94.3416L125.116 95.8518C125.007 95.9124 124.99 96.0093 125.079 96.0618L127.405 97.4105ZM134.807 105.842L137.416 104.336C137.525 104.271 137.545 104.178 137.452 104.126L135.15 102.797C135.092 102.771 135.028 102.76 134.964 102.763C134.9 102.767 134.838 102.785 134.783 102.817L132.174 104.324C132.065 104.388 132.049 104.481 132.138 104.534L134.44 105.862C134.498 105.888 134.562 105.9 134.626 105.896C134.69 105.893 134.752 105.874 134.807 105.842ZM114.932 99.0015C114.99 99.0268 115.053 99.0382 115.116 99.0347C115.179 99.0312 115.24 99.0129 115.295 98.9813L117.904 97.4751C118.017 97.4105 118.033 97.3176 117.94 97.2652L117.326 96.9098C117.268 96.8845 117.205 96.8731 117.142 96.8766C117.079 96.8801 117.018 96.8984 116.963 96.93L114.354 98.4362C114.241 98.5008 114.225 98.5977 114.318 98.6502L114.932 99.0015ZM83.6125 118.057C83.6709 118.083 83.7347 118.095 83.7986 118.091C83.8625 118.088 83.9247 118.069 83.9799 118.037L86.5885 116.531C86.7016 116.466 86.7177 116.373 86.6249 116.321L84.3232 114.988C84.2649 114.963 84.2017 114.953 84.1386 114.957C84.0754 114.961 84.0142 114.98 83.9597 115.012L81.3471 116.519C81.2381 116.583 81.2219 116.676 81.3108 116.729L83.6125 118.057Z" fill="#455A64"/>
<path d="M95.2949 137.755L95.8279 138.062L110.042 146.267L135.316 131.673L135.841 131.375L121.094 122.862L95.2949 137.755Z" fill="#263238"/>
<path d="M135.081 131.811L121.093 123.743L96.0615 138.199L110.041 146.267L135.081 131.811Z" fill="#37474F"/>
<path opacity="0.15" d="M130.983 119.559C124.009 123.036 120.843 126.686 124.453 129.251C128.063 131.815 137.888 135.275 137.888 135.275L139.176 139.588L153.447 131.346V126.456C153.447 126.456 144.64 120.399 141.203 119.212C137.767 118.025 135.069 117.524 130.983 119.559Z" fill="black"/>
<path d="M150.66 141.66C150.66 141.66 148.507 146.945 148.394 149.029C148.281 151.197 147.756 151.92 148.124 154.279C148.205 154.791 148.475 155.821 148.528 156.241C148.55 156.329 148.553 156.42 148.537 156.51C148.52 156.599 148.483 156.683 148.43 156.756C148.377 156.83 148.308 156.89 148.228 156.934C148.149 156.977 148.061 157.003 147.97 157.008C147.025 157.206 145.463 155.433 144.716 153.507C143.966 151.286 143.354 149.02 142.882 146.723C142.845 146.198 142.949 145.673 143.181 145.201C143.299 144.925 143.444 144.661 143.613 144.414C143.924 143.469 144.074 141.672 144.336 140.428L150.66 141.66Z" fill="#FFA8A7"/>
<path d="M141.025 148.702C140.901 148.923 140.815 149.163 140.771 149.413C140.771 149.845 141.728 151.274 142.111 151.791C142.653 152.495 142.906 153.379 142.818 154.262C142.761 155.647 143.375 156.984 144.267 158.127C145.497 159.615 147.148 160.696 149.004 161.228C151.294 161.931 152.101 160.784 152.101 160.784C152.101 160.784 152.808 159.681 152.384 159.229C151.96 158.777 141.025 148.702 141.025 148.702Z" fill="#263238"/>
<path d="M143.598 144.434C143.529 144.434 143.404 144.413 143.226 144.628C143.157 144.708 142.742 145.738 142.394 146.279C142.047 146.82 141.138 147.846 141.025 148.722C141.554 150.418 143.145 151.597 143.384 153.2C143.622 154.803 143.65 156.657 146.109 158.619C148.568 160.582 151.1 160.78 152.009 160.259C152.917 159.738 152.817 158.769 151.569 156.911C150.224 154.945 149.316 150.677 149.316 150.672C149.198 150.074 149.118 149.468 149.077 148.859C149.09 148.257 149.147 147.656 149.247 147.062C149.296 146.788 149.256 146.505 149.134 146.255C148.961 146.033 148.724 145.87 148.455 145.786C148.052 145.596 147.628 145.452 147.192 145.358C146.753 145.265 146.295 145.32 145.891 145.516C145.631 145.702 145.362 145.875 145.084 146.033C144.882 146.114 144.661 146.138 144.447 146.1C144.233 146.062 144.034 145.965 143.872 145.819C143.709 145.691 143.59 145.515 143.531 145.316C143.472 145.117 143.477 144.904 143.545 144.708C143.558 144.616 143.575 144.524 143.598 144.434Z" fill="#455A64"/>
<path d="M144.672 157.028C145.033 156.412 145.557 155.906 146.185 155.566C146.814 155.225 147.524 155.064 148.237 155.098C150.85 155.098 151.755 156.439 152.15 157.218C152.627 158.151 153.12 159.839 152.041 160.324C150.874 160.844 149.526 160.683 147.406 159.621C145.286 158.559 144.672 157.028 144.672 157.028Z" fill="#FAFAFA"/>
<path d="M145.149 149.158C145.186 149.176 145.226 149.185 145.268 149.185C145.309 149.185 145.35 149.176 145.387 149.158C145.791 148.952 147.927 148.508 149.17 149.659C149.328 149.53 149.296 149.296 149.09 148.964C147.636 148.04 145.613 148.452 145.128 148.698C145.098 148.713 145.071 148.734 145.049 148.76C145.028 148.787 145.011 148.817 145.002 148.849C144.993 148.882 144.99 148.916 144.994 148.95C144.999 148.984 145.01 149.016 145.027 149.045C145.055 149.095 145.097 149.135 145.149 149.158Z" fill="#FAFAFA"/>
<path d="M149.436 151.181C149.47 151.058 149.474 150.929 149.448 150.804C149.422 150.679 149.367 150.562 149.287 150.463C148.698 150.187 148.06 150.031 147.41 150.005C146.761 149.979 146.112 150.082 145.503 150.309C145.474 150.325 145.448 150.347 145.426 150.373C145.405 150.399 145.39 150.429 145.38 150.462C145.371 150.494 145.368 150.528 145.372 150.561C145.375 150.595 145.386 150.627 145.402 150.656C145.431 150.706 145.475 150.745 145.527 150.769C145.564 150.788 145.605 150.798 145.647 150.798C145.688 150.798 145.729 150.788 145.766 150.769C146.157 150.572 148.18 150.148 149.436 151.181Z" fill="#FAFAFA"/>
<path d="M150.502 154.711C150.504 154.366 150.385 154.032 150.167 153.766C148.718 152.889 146.743 153.293 146.262 153.54C146.233 153.555 146.206 153.577 146.185 153.603C146.163 153.629 146.147 153.659 146.138 153.692C146.128 153.724 146.126 153.758 146.13 153.792C146.134 153.825 146.145 153.858 146.162 153.887C146.196 153.948 146.252 153.994 146.319 154.015C146.386 154.036 146.458 154.03 146.521 154C146.949 153.782 149.303 153.317 150.502 154.711Z" fill="#FAFAFA"/>
<path d="M145.904 152.385C145.941 152.403 145.982 152.412 146.023 152.412C146.065 152.412 146.105 152.403 146.142 152.385C146.546 152.179 148.634 151.747 149.886 152.849C149.91 152.712 149.904 152.572 149.866 152.438C149.828 152.305 149.76 152.181 149.668 152.078C149.079 151.802 148.441 151.647 147.791 151.62C147.142 151.594 146.493 151.697 145.884 151.924C145.854 151.94 145.828 151.962 145.807 151.988C145.786 152.015 145.77 152.045 145.761 152.077C145.752 152.109 145.749 152.143 145.753 152.177C145.756 152.21 145.767 152.242 145.783 152.272C145.811 152.321 145.853 152.361 145.904 152.385Z" fill="#FAFAFA"/>
<path d="M152.978 148.149C152.978 148.149 154.048 154.61 155.235 157.093C156.423 159.576 157.036 160.8 158.672 162.694C159.027 163.098 159.839 163.869 160.13 164.204C160.199 164.27 160.252 164.35 160.287 164.438C160.321 164.527 160.336 164.622 160.329 164.717C160.322 164.812 160.295 164.904 160.249 164.987C160.202 165.07 160.138 165.142 160.061 165.197C159.334 165.892 156.249 166.058 154.521 164.761C152.792 163.465 151.218 160.723 150.184 159.661C149.78 159.257 149.433 158.854 149.085 158.45C148.738 158.046 148.843 157.642 148.815 157.19C148.815 156.968 148.815 156.362 148.815 156.362C148.577 155.276 147.939 153.576 147.604 152.518L152.978 148.149Z" fill="#FFA8A7"/>
<path d="M148.225 161.224C148.207 161.489 148.234 161.756 148.306 162.011C148.476 162.415 150.039 163.344 150.636 163.663C151.46 164.088 152.092 164.809 152.405 165.682C152.974 167.019 154.149 168.008 155.506 168.69C157.335 169.547 159.381 169.829 161.373 169.498C163.853 169.143 164.103 167.697 164.103 167.697C164.103 167.697 164.285 166.336 163.679 166.082C163.073 165.827 148.225 161.224 148.225 161.224Z" fill="#263238"/>
<path d="M148.745 156.019C148.681 156.047 148.556 156.084 148.479 156.366C148.455 156.475 148.519 157.634 148.431 158.3C148.342 158.967 147.942 160.34 148.225 161.224C149.484 162.593 151.516 162.997 152.456 164.406C153.397 165.815 154.253 167.56 157.46 168.315C160.666 169.07 163.145 168.133 163.775 167.237C164.405 166.34 163.888 165.456 161.861 164.265C159.709 163.009 156.947 159.375 156.943 159.375C156.564 158.858 156.219 158.319 155.909 157.759C155.65 157.186 155.435 156.593 155.267 155.987C155.19 155.703 155.024 155.451 154.795 155.268C154.533 155.134 154.237 155.084 153.947 155.127C153.479 155.126 153.013 155.179 152.557 155.284C152.099 155.392 151.69 155.649 151.394 156.015C151.231 156.31 151.052 156.596 150.857 156.871C150.703 157.037 150.505 157.157 150.286 157.216C150.066 157.276 149.835 157.272 149.618 157.206C149.406 157.159 149.214 157.046 149.069 156.883C148.924 156.721 148.833 156.518 148.81 156.302C148.783 156.209 148.762 156.114 148.745 156.019Z" fill="#455A64"/>
<path d="M155.401 167.471C155.469 166.727 155.739 166.015 156.182 165.413C156.624 164.811 157.223 164.341 157.913 164.055C160.392 162.896 161.842 163.752 162.565 164.313C163.429 164.983 164.649 166.36 163.845 167.301C162.977 168.315 161.628 168.763 159.145 168.706C156.661 168.65 155.401 167.471 155.401 167.471Z" fill="#FAFAFA"/>
<path d="M152.332 159.811C152.375 159.812 152.418 159.803 152.457 159.784C152.497 159.766 152.531 159.739 152.558 159.706C152.845 159.33 154.666 157.953 156.358 158.494C156.455 158.3 156.318 158.09 155.974 157.868C154.186 157.642 152.457 158.938 152.106 159.391C152.084 159.418 152.068 159.451 152.059 159.485C152.05 159.519 152.048 159.555 152.054 159.59C152.06 159.625 152.073 159.658 152.092 159.688C152.111 159.718 152.137 159.743 152.167 159.762C152.215 159.796 152.273 159.813 152.332 159.811Z" fill="#FAFAFA"/>
<path d="M157.295 159.811C157.27 159.679 157.215 159.556 157.135 159.449C157.054 159.343 156.95 159.256 156.83 159.197C155.126 159.104 153.523 160.311 153.196 160.743C153.175 160.772 153.159 160.804 153.15 160.839C153.142 160.873 153.14 160.909 153.146 160.944C153.152 160.979 153.164 161.013 153.183 161.043C153.202 161.073 153.227 161.099 153.257 161.119C153.305 161.154 153.363 161.172 153.422 161.172C153.466 161.172 153.509 161.162 153.548 161.143C153.587 161.124 153.622 161.097 153.648 161.062C153.919 160.699 155.647 159.395 157.295 159.811Z" fill="#FAFAFA"/>
<path d="M159.878 162.674C159.726 162.348 159.465 162.085 159.139 161.931C157.379 161.749 155.691 163.013 155.344 163.461C155.322 163.489 155.307 163.522 155.298 163.556C155.289 163.591 155.288 163.627 155.293 163.662C155.299 163.697 155.312 163.731 155.331 163.761C155.35 163.791 155.375 163.817 155.404 163.837C155.453 163.87 155.511 163.888 155.57 163.889C155.613 163.889 155.656 163.88 155.695 163.861C155.735 163.842 155.769 163.814 155.796 163.78C156.103 163.384 158.114 161.874 159.878 162.674Z" fill="#FAFAFA"/>
<path d="M154.491 162.528C154.534 162.529 154.576 162.52 154.615 162.502C154.653 162.483 154.687 162.457 154.714 162.423C155 162.052 156.785 160.703 158.461 161.192C158.424 161.051 158.355 160.921 158.26 160.811C158.165 160.701 158.045 160.614 157.912 160.558C157.233 160.561 156.563 160.699 155.939 160.965C155.315 161.23 154.75 161.618 154.277 162.104C154.256 162.132 154.24 162.164 154.231 162.198C154.222 162.232 154.22 162.267 154.226 162.302C154.231 162.337 154.243 162.37 154.262 162.4C154.28 162.43 154.305 162.456 154.334 162.476C154.38 162.508 154.435 162.526 154.491 162.528Z" fill="#FAFAFA"/>
<path d="M138.763 111.451C141.404 113.385 150.607 118.699 154.342 122.156C155.424 123.157 155.78 124.47 155.513 127.337C155.154 131.229 152.097 144.486 152.097 144.486C151.673 145.233 150.934 143.816 150.934 143.816L136.353 125.305L138.763 111.451Z" fill="#6ED0FF"/>
<path opacity="0.3" d="M138.763 111.451C141.404 113.385 150.607 118.699 154.342 122.156C155.424 123.157 155.78 124.47 155.513 127.337C155.154 131.229 152.097 144.486 152.097 144.486C151.673 145.233 150.934 143.816 150.934 143.816L136.353 125.305L138.763 111.451Z" fill="black"/>
<path opacity="0.3" d="M151.465 140.359C148.093 137.533 137.194 120.343 137.194 120.343C138.68 119.091 139.444 114.742 139.444 114.742C140.033 116.418 139.411 118.95 138.955 119.874C139.811 120.617 144.661 124.603 148.028 127.268C149.064 127.981 149.782 129.068 150.031 130.301C150.726 133.935 151.546 139.62 151.465 140.359Z" fill="black"/>
<path d="M138.764 111.451L119.995 115.606C120.912 119.05 121.174 120.831 122.131 122.644C123.088 124.457 124.15 126.404 129.036 128.81C133.737 131.124 139.475 133.507 140.626 134.06C141.49 134.464 141.902 136.204 142.293 138.449C142.697 140.799 142.742 142.645 145.071 147.583C147.349 152.429 147.817 153.463 147.817 153.463C147.817 153.463 151.343 153.83 153.685 151.771C153.685 151.771 150.491 135.187 149.808 132.202C149.429 130.535 149.404 129.658 147.349 127.825C145.576 126.254 137.658 120.254 137.658 120.254C137.658 120.254 140.795 116.018 138.764 111.451Z" fill="#6ED0FF"/>
<path opacity="0.3" d="M138.764 111.451L119.995 115.606C120.912 119.05 121.174 120.831 122.131 122.644C123.088 124.457 124.15 126.404 129.036 128.81C133.737 131.124 139.475 133.507 140.626 134.06C141.49 134.464 141.902 136.204 142.293 138.449C142.697 140.799 142.742 142.645 145.071 147.583C147.349 152.429 147.817 153.463 147.817 153.463C147.817 153.463 151.343 153.83 153.685 151.771C153.685 151.771 150.491 135.187 149.808 132.202C149.429 130.535 149.404 129.658 147.349 127.825C145.576 126.254 137.658 120.254 137.658 120.254C137.658 120.254 140.795 116.018 138.764 111.451Z" fill="black"/>
<path d="M160.339 80.2689C160.017 80.2491 159.695 80.3146 159.407 80.4587C159.072 80.6345 158.754 80.8414 158.458 81.0765C157.989 81.4238 157.513 81.7468 157.02 82.0577C156.598 82.3721 156.117 82.5999 155.607 82.7281C155.433 82.7563 155.062 82.7604 155.251 82.4979C155.518 82.1685 155.755 81.8158 155.958 81.444C156.059 81.2604 156.12 81.0579 156.138 80.8493C156.156 80.6407 156.131 80.4307 156.063 80.2325C156.021 80.111 155.937 80.009 155.825 79.9458C155.659 79.8691 155.575 79.9458 155.482 80.067C155.377 80.1768 155.267 80.2806 155.151 80.3779C154.916 80.5838 154.682 80.7817 154.452 80.9998C153.099 82.2112 151.456 83.2894 150.878 85.0621C150.547 86.1547 150.386 87.2921 150.402 88.4338C150.402 90.3802 150.273 97.152 150.273 97.152C150.273 97.152 144.894 92.6254 142.564 90.6911C141.437 89.7503 139.866 88.6075 138.122 88.4419C136.911 88.3289 136.18 88.3329 136.18 88.3329L139.85 97.2166C139.85 97.2166 146.784 102.377 150.111 104.154C153.111 105.769 154.573 104.602 154.936 103.75C155.538 102.353 156.148 101.699 155.308 93.9135C155.247 93.3118 155.171 91.5876 155.102 90.9859C155.017 89.7301 155.159 88.454 155.647 88.1794C156.552 87.6938 157.405 87.116 158.191 86.4552C158.705 86.0125 159.157 85.5032 159.536 84.9409C159.75 84.6878 159.907 84.3918 159.996 84.0727C159.966 83.776 159.966 83.477 159.996 83.1803C160.057 82.9865 160.19 82.825 160.238 82.615C160.339 82.1829 160.303 81.6903 160.574 81.3188C160.727 81.1169 160.977 80.915 160.941 80.6808C160.913 80.5831 160.857 80.4956 160.781 80.4289C160.704 80.3623 160.61 80.3193 160.509 80.3052C160.453 80.2894 160.397 80.2772 160.339 80.2689Z" fill="#FFA8A7"/>
<path d="M154.851 83.6487C154.658 84.6962 154.172 85.6677 153.45 86.4511C153.946 86.158 154.357 85.7404 154.641 85.2397C155.029 84.4402 154.997 84.0323 154.851 83.6487Z" fill="#F28F8F"/>
<path d="M135.82 88.127C137.694 88.2078 139.152 88.2481 140.751 89.1729C142.35 90.0976 149.473 96.0618 149.473 96.0618C149.473 96.0618 149.546 93.0211 149.727 91.4221C149.853 90.3116 150.038 89.9643 150.386 90.0168C150.386 90.0168 151.003 90.9658 152.752 91.099C154.5 91.2323 155.094 90.5014 155.094 90.5014C155.094 90.5014 155.607 90.3802 155.789 91.099C155.97 91.8178 156.301 99.579 155.982 101.812C155.663 104.045 154.662 105.087 153.317 105.402C151.973 105.717 148.875 103.831 145.124 101.319C141.373 98.8077 137.327 96.4737 137.327 96.4737L135.82 88.127Z" fill="#6ED0FF"/>
<path opacity="0.7" d="M135.82 88.127C137.694 88.2078 139.152 88.2481 140.751 89.1729C142.35 90.0976 149.473 96.0618 149.473 96.0618C149.473 96.0618 149.546 93.0211 149.727 91.4221C149.853 90.3116 150.038 89.9643 150.386 90.0168C150.386 90.0168 151.003 90.9658 152.752 91.099C154.5 91.2323 155.094 90.5014 155.094 90.5014C155.094 90.5014 155.607 90.3802 155.789 91.099C155.97 91.8178 156.301 99.579 155.982 101.812C155.663 104.045 154.662 105.087 153.317 105.402C151.973 105.717 148.875 103.831 145.124 101.319C141.373 98.8077 137.327 96.4737 137.327 96.4737L135.82 88.127Z" fill="white"/>
<path opacity="0.1" d="M149.474 96.0617C149.31 97.5125 149.363 98.9796 149.632 100.415C149.632 100.415 148.263 97.7739 148.683 95.3551L149.474 96.0617Z" fill="black"/>
<path d="M120.431 89.7664C120.12 91.3817 117.015 106.948 120.548 118.542C126.916 119.293 138.094 116.369 139.769 112.158C139.769 112.158 138.643 108.16 138.154 106.201C138.259 102.995 138.154 96.8734 138.09 94.9796C137.96 91.2282 137.375 88.3249 135.513 88.0503C135.513 88.0503 131.774 87.9049 129.513 87.9978C127.558 88.0745 126.088 88.0987 126.088 88.0987L120.431 89.7664Z" fill="#FAFAFA"/>
<path d="M129.779 114.475C129.375 113.563 121.812 108.899 121.812 108.899C121.812 108.899 121.929 106.738 122.377 102.761C122.825 98.7834 122.963 94.0185 121.529 91.6239L120.084 91.6805C119.276 96.506 117.604 108.887 120.548 118.542C123.944 118.945 128.705 118.295 132.662 116.971C131.935 116.478 130.106 115.202 129.779 114.475Z" fill="#F0F0F0"/>
<path d="M125.431 84.4483C125.431 83.6407 123.9 81.2421 123.202 79.3401C122.035 76.1622 121.934 73.3073 124.817 72.0716C124.817 72.0716 126.618 68.9664 131.161 68.8089C135.703 68.6514 139.188 72.4875 137.682 77.6119L125.431 84.4483Z" fill="#455A64"/>
<path d="M126.553 79.538C125.96 79.538 125.746 78.686 125.342 78.2297C125.153 78.0475 124.926 77.9099 124.677 77.827C124.429 77.744 124.164 77.7179 123.904 77.7504C123.644 77.7829 123.394 77.8733 123.173 78.015C122.953 78.1566 122.766 78.3459 122.628 78.5689C121.788 79.7803 122.604 81.5328 123.521 82.2031C124.672 83.0592 125.467 82.2354 125.467 82.2354L125.362 88.6519C125.362 88.6519 125.568 90.0733 128.189 90.9011C131.217 91.8541 133.681 90.2591 131.876 88.2642L131.944 86.5723C132.904 86.7917 133.894 86.8463 134.872 86.7338C135.881 86.5804 136.689 85.8212 137.206 84.2625C138.219 81.2259 137.941 77.1717 136.895 73.4728C135.893 74.2804 131.274 75.7463 127.111 74.2804C127.252 76.8365 127.135 79.538 126.553 79.538Z" fill="#FFA8A7"/>
<path d="M124.904 81.5207C124.904 81.595 124.882 81.6676 124.841 81.7293C124.8 81.7911 124.741 81.8392 124.673 81.8677C124.604 81.8961 124.528 81.9035 124.456 81.889C124.383 81.8745 124.316 81.8388 124.263 81.7863C124.211 81.7337 124.175 81.6668 124.161 81.594C124.146 81.5211 124.153 81.4456 124.182 81.377C124.21 81.3084 124.258 81.2497 124.32 81.2085C124.382 81.1672 124.455 81.1452 124.529 81.1452C124.578 81.1452 124.627 81.1549 124.673 81.1738C124.718 81.1926 124.76 81.2203 124.794 81.2552C124.829 81.29 124.857 81.3314 124.876 81.377C124.895 81.4226 124.904 81.4714 124.904 81.5207Z" fill="#263238"/>
<path d="M131.94 86.5764C131.94 86.5764 129.412 85.8374 128.419 85.1388C127.765 84.6867 127.232 84.0807 126.868 83.3742C127.089 84.1457 127.451 84.8699 127.934 85.5103C129.146 86.8792 131.908 87.5294 131.908 87.5294L131.94 86.5764Z" fill="#F28F8F"/>
<path d="M131.738 79.5057C131.735 79.629 131.696 79.7487 131.625 79.8499C131.554 79.9511 131.456 80.0293 131.341 80.0748C131.226 80.1204 131.101 80.1313 130.98 80.1061C130.859 80.081 130.749 80.021 130.662 79.9334C130.575 79.8459 130.515 79.7348 130.491 79.6139C130.467 79.4929 130.478 79.3675 130.525 79.2531C130.571 79.1388 130.65 79.0405 130.751 78.9705C130.853 78.9006 130.973 78.862 131.096 78.8596C131.181 78.8596 131.265 78.8763 131.343 78.9089C131.421 78.9414 131.492 78.989 131.552 79.0491C131.611 79.1091 131.658 79.1804 131.69 79.2587C131.723 79.3371 131.739 79.421 131.738 79.5057Z" fill="#263238"/>
<path d="M131.047 77.3574L129.69 78.0762C129.598 77.8896 129.581 77.6745 129.644 77.4759C129.706 77.2772 129.843 77.1104 130.025 77.0102C130.115 76.9637 130.213 76.9358 130.313 76.9281C130.414 76.9205 130.515 76.9333 130.61 76.9657C130.706 76.9982 130.794 77.0496 130.869 77.1169C130.944 77.1842 131.004 77.2661 131.047 77.3574Z" fill="#263238"/>
<path d="M131.539 82.8088L133.7 83.4993C133.595 83.7863 133.386 84.023 133.114 84.1623C132.842 84.3016 132.528 84.3331 132.234 84.2504C132.092 84.2043 131.96 84.1298 131.848 84.0314C131.735 83.9331 131.643 83.8129 131.578 83.6782C131.513 83.5434 131.477 83.3969 131.47 83.2475C131.463 83.0981 131.487 82.9489 131.539 82.8088Z" fill="#F28F8F"/>
<path d="M136.866 77.3333L135.376 76.9295C135.398 76.8311 135.44 76.7382 135.499 76.6566C135.558 76.5749 135.633 76.5061 135.72 76.4543C135.806 76.4025 135.902 76.3689 136.002 76.3555C136.102 76.3421 136.204 76.3492 136.301 76.3762C136.5 76.4331 136.669 76.564 136.774 76.742C136.879 76.9201 136.912 77.1317 136.866 77.3333Z" fill="#263238"/>
<path d="M136.482 79.0171C136.479 79.1405 136.44 79.2601 136.369 79.3613C136.299 79.4625 136.2 79.5407 136.085 79.5863C135.971 79.6318 135.845 79.6427 135.724 79.6176C135.603 79.5925 135.493 79.5324 135.406 79.4449C135.319 79.3574 135.259 79.2463 135.235 79.1253C135.211 79.0044 135.222 78.8789 135.269 78.7646C135.315 78.6502 135.394 78.552 135.495 78.482C135.597 78.412 135.717 78.3735 135.84 78.371C135.925 78.371 136.009 78.3878 136.087 78.4203C136.165 78.4528 136.236 78.5005 136.296 78.5605C136.355 78.6206 136.403 78.6918 136.435 78.7702C136.467 78.8486 136.483 78.9325 136.482 79.0171Z" fill="#263238"/>
<path d="M137.177 73.4769C138.574 72.4835 139.349 71.151 138.978 69.3217C138.432 69.8669 136.906 69.9678 135.573 69.3217C133.465 68.2197 131.043 67.8693 128.709 68.3283C126.242 68.8089 124.796 70.6825 124.796 72.0636C125.28 73.0488 125.943 73.5738 127.09 74.2724C128.814 75.5179 130.919 76.1234 133.042 75.9845C134.317 75.9535 135.547 75.5084 136.547 74.7166C136.547 74.7166 135.259 74.8296 134.653 74.4299C135.55 74.2874 136.409 73.9631 137.177 73.4769Z" fill="#37474F"/>
<path d="M133.777 82.0093L135.703 81.129L133.244 77.733L133.777 82.0093Z" fill="#F28F8F"/>
<path opacity="0.15" d="M154.93 122.842C154.763 122.591 154.568 122.361 154.348 122.156C152.103 120.08 147.887 117.334 144.306 115.053L128.008 124.461C127.985 124.475 127.967 124.493 127.954 124.516C127.94 124.539 127.934 124.565 127.934 124.591C127.934 124.617 127.94 124.643 127.954 124.665C127.967 124.688 127.985 124.707 128.008 124.72L139.844 131.556L154.93 122.842Z" fill="black"/>
<path d="M159.872 118.061V118.324C159.872 118.514 159.822 118.7 159.727 118.865C159.632 119.029 159.495 119.166 159.331 119.261L140.384 130.2C140.22 130.295 140.033 130.345 139.843 130.345C139.652 130.345 139.464 130.295 139.298 130.2L128.973 124.243C128.809 124.148 128.673 124.011 128.578 123.847C128.483 123.683 128.433 123.496 128.432 123.307V122.939C128.431 122.964 128.437 122.988 128.449 123.009C128.461 123.031 128.479 123.048 128.5 123.06L139.839 129.61L159.872 118.061Z" fill="#37474F"/>
<path d="M139.844 129.622V130.345C140.034 130.345 140.22 130.295 140.385 130.2L159.331 119.26C159.496 119.166 159.632 119.029 159.727 118.865C159.822 118.7 159.872 118.514 159.873 118.324V118.057L139.844 129.622Z" fill="#263238"/>
<path d="M159.872 118.057L148.638 111.572C148.539 111.516 148.428 111.487 148.315 111.487C148.202 111.487 148.09 111.516 147.992 111.572L128.504 122.826C128.482 122.839 128.464 122.857 128.452 122.879C128.439 122.901 128.433 122.926 128.433 122.951C128.433 122.976 128.439 123.001 128.452 123.023C128.464 123.045 128.482 123.064 128.504 123.076L139.843 129.622L159.872 118.057Z" fill="#455A64"/>
<path d="M139.738 128.669L133.681 125.176L151.4 114.948L157.489 118.421L139.738 128.669Z" fill="#37474F"/>
<path d="M157.489 118.421L157.259 118.554L151.396 115.21L133.911 125.309L133.681 125.176L151.396 114.944L157.489 118.421Z" fill="#263238"/>
<path d="M136.762 118.95L136.875 119.014L139.843 120.726L145.125 117.678L145.234 117.613L142.153 115.836L136.762 118.95Z" fill="#263238"/>
<path d="M136.875 119.014L139.843 120.726L145.125 117.678L142.153 115.965L136.875 119.014Z" fill="#37474F"/>
<path d="M142.508 121.069C141.66 120.23 140.429 119.05 139.391 118.715C139.153 118.626 138.911 118.551 138.664 118.489C139.023 118.443 139.377 118.373 139.726 118.279C140.078 118.172 140.391 117.964 140.627 117.682C140.716 117.564 140.78 117.379 140.667 117.278C140.626 117.245 140.575 117.226 140.522 117.225C139.742 117.201 139.133 117.08 138.426 117.031C138.112 116.979 137.791 116.979 137.477 117.031C137.186 117.108 136.9 117.193 136.617 117.294C135.329 117.738 134.154 118.138 132.333 117.698L129.054 115.949C129.054 115.949 128.351 115.772 127.317 117.52C126.284 119.268 126.889 120.23 126.889 120.23L130.572 121.502L130.624 121.522C131.184 121.822 131.766 122.079 132.365 122.289C133.512 122.64 134.982 122.224 135.979 122.172C136.976 122.119 138.668 122.576 139.613 122.955C140.558 123.335 141.632 121.905 142.113 122.075C142.593 122.245 143.36 121.913 142.508 121.069Z" fill="#FFA8A7"/>
<path d="M138.231 117.94C137.751 117.924 137.272 118.007 136.826 118.186C137.451 118.217 138.069 118.324 138.668 118.505C139.026 118.46 139.381 118.389 139.73 118.295C140.035 118.196 140.312 118.024 140.537 117.795C139.984 118.158 138.906 118.009 138.231 117.94Z" fill="#F28F8F"/>
<path d="M120.431 89.7664C121.364 90.1339 122.58 94.0266 121.828 97.7699L120.092 109.48C120.092 109.48 122.22 110.74 125.208 112.59C127.276 113.874 129.049 115.049 129.053 115.998C127.696 116.482 126.476 118.978 126.888 120.278C125.963 121.376 117.419 116.644 114.431 114.596C113.046 113.648 112.347 113.276 112.88 109C113.47 104.267 113.874 99.0096 114.798 95.5005C115.759 91.8299 116.829 90.4085 120.431 89.7664Z" fill="#6ED0FF"/>
<path opacity="0.7" d="M120.431 89.7664C121.364 90.1339 122.58 94.0266 121.828 97.7699L120.092 109.48C120.092 109.48 122.22 110.74 125.208 112.59C127.276 113.874 129.049 115.049 129.053 115.998C127.696 116.482 126.476 118.978 126.888 120.278C125.963 121.376 117.419 116.644 114.431 114.596C113.046 113.648 112.347 113.276 112.88 109C113.47 104.267 113.874 99.0096 114.798 95.5005C115.759 91.8299 116.829 90.4085 120.431 89.7664Z" fill="white"/>
<path d="M140.149 129.784C140.328 129.853 140.519 129.882 140.71 129.867C140.901 129.852 141.086 129.795 141.252 129.699L160.118 118.796C160.281 118.702 160.421 118.572 160.529 118.417C160.636 118.262 160.708 118.086 160.739 117.9L162.807 105.584C162.813 105.514 162.813 105.443 162.807 105.374C162.808 105.204 162.774 105.036 162.709 104.879C162.644 104.722 162.548 104.58 162.427 104.461L142.827 115.768C142.705 115.837 142.601 115.932 142.52 116.047C142.44 116.161 142.386 116.292 142.362 116.43L140.149 129.784Z" fill="#37474F"/>
<path d="M139.844 129.622L139.973 129.699C140.03 129.731 140.09 129.759 140.151 129.784L142.38 116.458C142.403 116.32 142.457 116.189 142.538 116.075C142.618 115.96 142.723 115.865 142.844 115.796L162.445 104.489C162.366 104.411 162.278 104.343 162.182 104.287L142.541 115.63C142.42 115.699 142.315 115.794 142.236 115.909C142.156 116.024 142.103 116.155 142.081 116.292L139.844 129.622Z" fill="#455A64"/>
<path d="M142.565 116.042L142.259 115.869C142.168 115.987 142.107 116.125 142.081 116.272L139.844 129.618L139.973 129.695C140.03 129.727 140.09 129.755 140.151 129.78L142.38 116.454C142.409 116.304 142.472 116.163 142.565 116.042Z" fill="#263238"/>
<path d="M150.775 118.412C150.912 117.605 151.764 116.494 152.677 115.969C153.589 115.445 154.215 115.683 154.074 116.507C153.932 117.33 153.084 118.429 152.176 118.954C151.267 119.479 150.633 119.24 150.775 118.412Z" fill="#6ED0FF"/>
<path d="M31.4131 58.0339L118.836 7.56141C120.541 6.57252 121.941 7.38363 121.941 9.35586V77.0618C121.913 77.5625 121.768 78.0497 121.517 78.4839C121.266 78.9182 120.917 79.2874 120.497 79.5618L30.8575 131.318C30.0631 131.773 29.4131 131.401 29.4131 130.484V61.495C29.453 60.802 29.6547 60.1279 30.002 59.5269C30.3493 58.9259 30.8326 58.4145 31.4131 58.0339Z" fill="white"/>
<path d="M121.969 10.9791V9.35685C121.969 7.38461 120.569 6.57906 118.864 7.56239L31.4131 58.0349C30.8326 58.4155 30.3493 58.9268 30.002 59.5279C29.6547 60.1289 29.453 60.803 29.4131 61.496V64.4016L121.969 10.9791Z" fill="#6ED0FF"/>
<path d="M108.927 14.6725C108.615 14.8757 108.355 15.1496 108.169 15.472C107.982 15.7944 107.875 16.1562 107.854 16.5281C107.854 17.2114 108.332 17.4892 108.927 17.1448C109.238 16.9422 109.496 16.6691 109.682 16.3476C109.867 16.0261 109.974 15.6653 109.993 15.2947C109.993 14.6114 109.516 14.3336 108.927 14.6725Z" fill="white"/>
<path d="M113.169 12.2225C112.858 12.4263 112.599 12.7004 112.414 13.0228C112.229 13.3452 112.122 13.7067 112.103 14.0781C112.103 14.7614 112.58 15.0336 113.169 14.6947C113.481 14.4916 113.741 14.2177 113.927 13.8953C114.114 13.5729 114.221 13.211 114.241 12.8392C114.241 12.1558 113.764 11.8781 113.169 12.2225Z" fill="white"/>
<path d="M117.421 9.76696C117.11 9.97106 116.851 10.2452 116.664 10.5674C116.478 10.8896 116.37 11.251 116.349 11.6225C116.349 12.3059 116.832 12.5836 117.421 12.2392C117.733 12.0369 117.992 11.764 118.178 11.4425C118.365 11.1211 118.473 10.7602 118.493 10.3892C118.493 9.70585 118.01 9.42807 117.421 9.76696Z" fill="white"/>
<path d="M136.512 32.4522C136.512 31.3901 136.14 30.6391 135.539 30.2878C134.937 29.9364 131.408 27.8972 130.794 27.5499C130.18 27.2027 129.352 27.2552 128.432 27.7882L62.5264 65.851V87.6565L67.2509 90.3822L133.152 52.3315C135.01 51.2615 136.512 48.6609 136.512 46.5167V32.4522Z" fill="#6ED0FF"/>
<path opacity="0.15" d="M136.512 32.4522C136.512 31.3901 136.14 30.6391 135.539 30.2878C134.937 29.9364 131.408 27.8972 130.794 27.5499C130.18 27.2027 129.352 27.2552 128.432 27.7882L62.5264 65.851V87.6565L67.2509 90.3822L133.152 52.3315C135.01 51.2615 136.512 48.6609 136.512 46.5167V32.4522Z" fill="black"/>
<path d="M133.152 30.5139C135.009 29.4438 136.512 30.312 136.512 32.4522V46.5167C136.512 48.6609 135.009 51.2614 133.152 52.3315L67.2305 90.3943V68.5888L133.152 30.5139Z" fill="#6ED0FF"/>
<path d="M132.478 50.5346C133.135 50.1045 133.683 49.5259 134.075 48.8455C134.468 48.1652 134.696 47.4021 134.739 46.6177V33.6232C134.739 32.5975 134.017 32.1816 133.124 32.6904L68.5596 69.9981V87.4667L132.478 50.5346Z" fill="#FAFAFA"/>
<path d="M75.8747 70.8249L76.2535 76.3184L75.6852 76.6972L75.4958 74.3293L73.6962 75.2765L73.8856 77.6444L73.3173 78.0232L72.9385 72.435L73.5068 72.0562L73.6962 74.4241L75.4958 73.4769L75.3064 71.109L75.8747 70.8249Z" fill="#0372A7"/>
<path d="M77.58 75.3712C77.2958 75.2765 77.1064 75.1818 77.0117 74.8976C76.8223 74.6135 76.8223 74.2346 76.7275 73.761C76.7275 73.2875 76.7275 72.9086 76.8223 72.435C76.917 72.0562 77.1064 71.6773 77.2958 71.2985C77.4853 71.0143 77.7694 70.7302 78.0536 70.6354C78.3377 70.446 78.6218 70.446 78.8113 70.446C79.0954 70.5407 79.2849 70.6354 79.3796 70.9196C79.569 71.2037 79.6637 71.5826 79.6637 71.9615C79.6637 72.435 79.6637 72.8139 79.569 73.2875C79.4743 73.6663 79.2849 74.0452 79.0954 74.4241C78.906 74.7082 78.6218 74.9923 78.3377 75.1818C78.1483 75.3712 77.8641 75.3712 77.58 75.3712ZM78.7166 74.0452C78.8113 73.8558 78.906 73.6663 79.0007 73.3822C79.0954 73.098 79.0954 72.8139 79.0954 72.5297C79.0954 72.2456 79.0007 71.9615 78.906 71.772C78.8113 71.5826 78.7166 71.4879 78.5271 71.4879C78.3377 71.4879 78.243 71.4879 78.0536 71.5826C77.8641 71.6773 77.7694 71.772 77.6747 71.9615C77.58 72.1509 77.4853 72.3403 77.3905 72.6245C77.2958 72.9086 77.2958 73.1928 77.2958 73.4769C77.2958 73.9505 77.3905 74.2346 77.58 74.4241C77.7694 74.6135 77.9588 74.6135 78.243 74.4241C78.5271 74.3293 78.6218 74.2346 78.7166 74.0452Z" fill="#0372A7"/>
<path d="M81.5574 72.5298L82.1257 68.5517L82.7887 68.1729L81.9363 73.1928L81.1785 73.5716L79.7578 69.8777L80.5155 69.4042L81.5574 72.5298Z" fill="#0372A7"/>
<path d="M83.3574 68.8358C83.4521 68.457 83.6416 68.0781 83.831 67.794C84.0204 67.5098 84.3046 67.2257 84.494 67.131C84.6834 67.0362 84.9676 66.9415 85.157 67.0362C85.3464 67.0362 85.5359 67.131 85.6306 67.3204V66.6574L86.2936 66.2785L86.5777 70.6354L85.9147 71.0143V70.3513C85.82 70.6354 85.7253 70.8249 85.5359 71.109C85.3464 71.2984 85.157 71.4879 84.9676 71.6773C84.494 71.772 84.3046 71.772 84.1151 71.6773C83.9257 71.5826 83.7363 71.3931 83.5468 71.109C83.3574 70.8249 83.3574 70.446 83.2627 70.0671C83.2627 69.6883 83.2627 69.3094 83.3574 68.8358ZM85.5359 68.0781C85.4411 67.8887 85.3464 67.794 85.157 67.794C84.9676 67.794 84.8729 67.794 84.6834 67.8887C84.494 67.9834 84.3993 68.0781 84.2098 68.2675C84.1151 68.457 84.0204 68.6464 83.9257 68.9305C83.831 69.2147 83.831 69.4988 83.831 69.783C83.831 70.0671 83.9257 70.3513 84.0204 70.5407C84.1151 70.7301 84.2098 70.8249 84.3993 70.8249C84.5887 70.8249 84.6834 70.8249 84.8729 70.7301C85.0623 70.6354 85.157 70.5407 85.3464 70.3513C85.4411 70.1618 85.5359 69.9724 85.6306 69.6883C85.7253 69.4041 85.7253 69.12 85.7253 68.8358C85.6306 68.457 85.6306 68.2675 85.5359 68.0781Z" fill="#0372A7"/>
<path d="M87.2402 70.0671C87.1455 69.9724 87.1455 69.8777 87.1455 69.6883C87.1455 69.4989 87.1455 69.4041 87.2402 69.2147C87.3349 69.0253 87.4297 68.9306 87.5244 68.9306C87.6191 68.8358 87.7138 68.8358 87.8085 68.9306C87.9032 69.0253 87.9032 69.12 87.9032 69.3094C87.9032 69.4989 87.9032 69.5936 87.8085 69.783C87.7138 69.9724 87.6191 70.0671 87.5244 70.0671C87.3349 70.1619 87.2402 70.1619 87.2402 70.0671Z" fill="#0372A7"/>
<path d="M89.5144 65.1419L88.9462 65.4261L89.2303 69.0253L88.5673 69.4041L88.2831 65.8049L87.9043 65.9944L87.8096 65.2367L88.1884 65.0472V64.7631C88.1884 64.2895 88.1884 63.8159 88.3779 63.5318C88.5673 63.2476 88.8514 62.9635 89.2303 62.6793L89.325 63.4371C89.1356 63.5318 89.0409 63.6265 88.9462 63.8159C88.8514 64.0054 88.8514 64.1948 88.8514 64.3842V64.6684L89.4197 64.3842L89.5144 65.1419Z" fill="#0372A7"/>
<path d="M91.0292 63.7212C91.1239 63.5318 91.3133 63.3424 91.5027 63.2476L91.5975 64.1948H91.408C91.1239 64.2895 91.0292 64.4789 90.8397 64.7631C90.745 65.0472 90.6503 65.3314 90.745 65.805L90.9345 68.0781L90.3662 68.457L89.9873 64.1001L90.5556 63.7212V64.3842C90.745 64.1001 90.8397 63.9106 91.0292 63.7212Z" fill="#0372A7"/>
<path d="M94.9118 64.0054L92.6386 65.2367C92.6386 65.6155 92.828 65.805 92.9227 65.8997C93.1122 65.9944 93.3016 65.9944 93.491 65.8997C93.7752 65.7103 94.0593 65.4261 94.154 64.8578L94.817 64.479C94.7223 64.9525 94.6276 65.3314 94.4382 65.7103C94.2488 66.0891 93.9646 66.3733 93.5857 66.5627C93.3016 66.7521 93.0175 66.7521 92.828 66.7521C92.6386 66.6574 92.3544 66.5627 92.2597 66.2785C92.0703 65.9944 91.9756 65.6155 91.9756 65.2367C91.9756 64.7631 91.9756 64.3842 92.0703 63.9107C92.165 63.5318 92.3544 63.1529 92.5439 62.8688C92.7333 62.5846 93.0175 62.3005 93.3016 62.2058C93.5857 62.0164 93.8699 62.0164 94.0593 62.0164C94.2488 62.1111 94.4382 62.2058 94.6276 62.4899C94.817 62.7741 94.817 63.0582 94.9118 63.5318C94.9118 63.7212 94.9118 63.8159 94.9118 64.0054ZM94.2488 63.6265C94.2488 63.3424 94.154 63.0582 93.9646 62.9635C93.7752 62.8688 93.5857 62.8688 93.3963 62.9635C93.2069 63.0582 93.0175 63.2477 92.828 63.5318C92.7333 63.8159 92.6386 64.1001 92.6386 64.479L94.2488 63.6265Z" fill="#0372A7"/>
<path d="M98.2272 62.1111L95.954 63.3424C95.954 63.7212 96.1435 63.9107 96.2382 64.0054C96.4276 64.1001 96.617 64.1001 96.8065 64.0054C97.0906 63.8159 97.3748 63.5318 97.4695 62.9635L98.1325 62.5846C98.0378 63.0582 97.943 63.4371 97.7536 63.8159C97.5642 64.1948 97.28 64.4789 96.9012 64.6684C96.617 64.8578 96.3329 64.8578 96.1435 64.8578C95.954 64.7631 95.6699 64.6684 95.5752 64.3842C95.3857 64.1001 95.291 63.7212 95.291 63.3424C95.291 62.8688 95.291 62.4899 95.3857 62.0164C95.4804 61.6375 95.6699 61.2586 95.8593 60.9745C96.0487 60.6903 96.3329 60.4062 96.617 60.3115C96.9012 60.122 97.1853 60.122 97.3748 60.122C97.5642 60.2168 97.7536 60.3115 97.943 60.5956C98.1325 60.8798 98.1325 61.1639 98.2272 61.6375C98.2272 61.8269 98.2272 62.0164 98.2272 62.1111ZM97.5642 61.7322C97.5642 61.4481 97.4695 61.1639 97.28 61.0692C97.0906 60.9745 96.9012 60.9745 96.7117 61.0692C96.5223 61.1639 96.3329 61.3533 96.1435 61.6375C96.0487 61.9216 95.954 62.2058 95.954 62.5846L97.5642 61.7322Z" fill="#0372A7"/>
<path d="M99.1738 57.47L99.5526 63.3424L98.9843 63.7212L98.6055 57.8489L99.1738 57.47Z" fill="#0372A7"/>
<path d="M100.122 59.459C100.217 59.0802 100.406 58.7013 100.595 58.4171C100.785 58.133 101.069 57.8489 101.258 57.7541C101.448 57.6594 101.732 57.5647 101.921 57.6594C102.111 57.6594 102.3 57.7541 102.395 57.9436V57.2806L103.058 56.9017L103.342 61.2586L102.679 61.6375V60.9745C102.584 61.2586 102.49 61.448 102.3 61.7322C102.111 61.9216 101.921 62.111 101.732 62.3005C101.448 62.3952 101.258 62.4899 100.974 62.3952C100.785 62.3005 100.595 62.111 100.406 61.8269C100.217 61.5428 100.217 61.1639 100.122 60.785C100.027 60.3115 100.027 59.9326 100.122 59.459ZM102.3 58.7013C102.206 58.5119 102.111 58.4171 101.921 58.4171C101.732 58.4171 101.637 58.4171 101.448 58.5119C101.258 58.6066 101.164 58.7013 100.974 58.8907C100.88 59.0802 100.785 59.2696 100.69 59.5537C100.595 59.8379 100.595 60.122 100.595 60.4062C100.595 60.6903 100.69 60.9745 100.785 61.1639C100.88 61.3533 100.974 61.448 101.164 61.5428C101.353 61.5428 101.448 61.5428 101.637 61.448C101.827 61.3533 101.921 61.2586 102.111 61.0692C102.206 60.8797 102.3 60.6903 102.395 60.4062C102.49 60.122 102.49 59.8379 102.49 59.5537C102.49 59.0802 102.395 58.8907 102.3 58.7013Z" fill="#0372A7"/>
<path d="M105.899 55.3863C106.089 55.3863 106.278 55.5757 106.373 55.7651C106.467 55.9546 106.562 56.3334 106.562 56.7123L106.752 59.2696L106.089 59.6485L105.899 57.1859C105.899 56.807 105.804 56.5228 105.615 56.4281C105.426 56.3334 105.236 56.3334 105.047 56.4281C104.857 56.5228 104.668 56.807 104.478 57.0911C104.384 57.3753 104.289 57.7541 104.384 58.133L104.573 60.5956L104.005 60.9745L103.721 56.6176L104.289 56.2387V56.7123C104.384 56.5228 104.478 56.2387 104.668 56.0493C104.857 55.8598 104.952 55.7651 105.141 55.5757C105.426 55.3863 105.71 55.3863 105.899 55.3863Z" fill="#0372A7"/>
<path d="M107.225 55.481C107.32 55.1021 107.509 54.7233 107.699 54.4391C107.888 54.155 108.172 53.8708 108.457 53.7761C108.835 53.5867 109.12 53.492 109.404 53.6814C109.688 53.7761 109.877 54.0603 109.972 54.5338L109.309 54.9127C109.214 54.7233 109.12 54.6285 109.025 54.5338C108.93 54.4391 108.741 54.5338 108.551 54.6285C108.267 54.7233 108.078 55.0074 107.983 55.3863C107.888 55.7651 107.794 56.144 107.794 56.6176C107.794 57.0911 107.888 57.3753 108.078 57.5647C108.267 57.7542 108.457 57.7542 108.741 57.6594C109.12 57.47 109.309 57.0911 109.404 56.6176L110.067 56.2387C109.972 56.7123 109.877 57.1859 109.688 57.5647C109.498 57.9436 109.214 58.2277 108.835 58.4172C108.551 58.6066 108.267 58.6066 108.078 58.5119C107.888 58.4172 107.699 58.3224 107.509 58.0383C107.32 57.7542 107.32 57.3753 107.225 56.9964C107.131 56.3334 107.131 55.9546 107.225 55.481Z" fill="#0372A7"/>
<path d="M113.287 53.6814L111.014 54.9127C111.014 55.2916 111.203 55.481 111.298 55.5757C111.487 55.6704 111.677 55.6704 111.866 55.5757C112.15 55.3863 112.434 55.1021 112.529 54.5338L113.192 54.155C113.097 54.6286 113.003 55.0074 112.813 55.3863C112.624 55.7651 112.34 56.0493 111.961 56.2387C111.771 56.6176 111.487 56.6176 111.203 56.5229C111.014 56.4281 110.729 56.3334 110.635 56.0493C110.445 55.7651 110.351 55.3863 110.351 55.0074C110.351 54.5338 110.351 54.155 110.445 53.6814C110.54 53.3025 110.729 52.9237 110.919 52.6395C111.108 52.3554 111.392 52.0712 111.677 51.9765C111.961 51.7871 112.245 51.7871 112.434 51.7871C112.624 51.8818 112.813 51.9765 113.003 52.2607C113.192 52.5448 113.192 52.829 113.287 53.3025C113.287 53.3973 113.287 53.5867 113.287 53.6814ZM112.624 53.3025C112.624 53.0184 112.529 52.7342 112.34 52.6395C112.15 52.5448 111.961 52.5448 111.771 52.6395C111.582 52.7342 111.392 52.9237 111.203 53.2078C111.108 53.492 111.014 53.7761 111.014 54.155L112.624 53.3025Z" fill="#0372A7"/>
<path d="M114.708 50.4611C114.803 50.2716 114.992 50.0822 115.181 49.9875L115.276 50.9346H115.181C114.897 51.0294 114.803 51.2188 114.613 51.5029C114.518 51.7871 114.424 52.0712 114.518 52.5448L114.708 54.818L114.14 55.1968L113.855 50.8399L114.424 50.4611V51.1241C114.518 50.8399 114.613 50.6505 114.708 50.4611Z" fill="#0372A7"/>
<path d="M116.508 53.6814C116.318 53.6814 116.129 53.5867 116.034 53.3972C115.939 53.2078 115.845 53.0184 115.845 52.7342L116.508 52.3554C116.508 52.5448 116.602 52.6395 116.697 52.7342C116.792 52.829 116.981 52.829 117.076 52.7342C117.265 52.6395 117.36 52.5448 117.455 52.3554C117.55 52.1659 117.55 52.0712 117.55 51.8818C117.55 51.6924 117.455 51.5977 117.36 51.5977C117.265 51.5977 117.076 51.5977 116.887 51.5977C116.697 51.5977 116.508 51.6924 116.318 51.5977C116.129 51.5977 116.034 51.5029 115.939 51.4082C115.845 51.3135 115.75 51.1241 115.75 50.8399C115.75 50.6505 115.75 50.3664 115.845 50.0822C115.939 49.7981 116.034 49.6086 116.224 49.4192C116.413 49.2298 116.602 49.0403 116.792 48.9456C117.171 48.7562 117.36 48.7562 117.644 48.8509C117.834 48.9456 118.023 49.2298 118.023 49.7033L117.455 50.1769C117.455 49.9875 117.36 49.8928 117.265 49.7981C117.171 49.7033 116.981 49.7981 116.887 49.7981C116.697 49.8928 116.602 49.9875 116.508 50.1769C116.413 50.2716 116.413 50.4611 116.413 50.6505C116.413 50.7452 116.413 50.8399 116.508 50.9346C116.602 50.9346 116.602 51.0294 116.697 51.0294C116.792 51.0294 116.887 51.0294 117.076 51.0294C117.265 51.0294 117.455 50.9346 117.644 51.0294C117.834 51.0294 117.928 51.1241 118.023 51.2188C118.118 51.3135 118.213 51.5029 118.213 51.7871C118.213 52.0712 118.213 52.2607 118.118 52.5448C118.023 52.829 117.928 53.0184 117.739 53.2078C117.55 53.3972 117.36 53.5867 117.171 53.6814C116.981 53.6814 116.697 53.6814 116.508 53.6814Z" fill="#0372A7"/>
<path d="M118.97 52.3554C118.875 52.2607 118.875 52.166 118.875 51.9766C118.875 51.7871 118.875 51.6924 118.97 51.503C119.064 51.3136 119.159 51.2188 119.254 51.2188C119.349 51.1241 119.443 51.1241 119.538 51.2188C119.633 51.3136 119.633 51.4083 119.633 51.5977C119.633 51.7871 119.633 51.8818 119.538 52.0713C119.443 52.2607 119.349 52.3554 119.254 52.3554C119.064 52.4501 118.97 52.4501 118.97 52.3554Z" fill="#0372A7"/>
<path d="M120.012 48.3773C120.107 47.9985 120.297 47.6196 120.486 47.3355C120.675 47.0513 120.96 46.7672 121.244 46.6725C121.623 46.483 121.907 46.3883 122.191 46.5778C122.475 46.6725 122.664 46.9566 122.759 47.4302L122.096 47.8091C122.001 47.6196 121.907 47.5249 121.812 47.4302C121.717 47.3355 121.528 47.4302 121.338 47.5249C121.054 47.6196 120.865 47.9038 120.77 48.2826C120.675 48.6615 120.581 49.0404 120.581 49.5139C120.581 49.9875 120.675 50.2717 120.865 50.4611C121.054 50.6505 121.244 50.6505 121.528 50.5558C121.907 50.3664 122.096 49.9875 122.191 49.5139L122.854 49.1351C122.759 49.6086 122.664 50.0822 122.475 50.4611C122.286 50.8399 122.001 51.1241 121.623 51.3135C121.338 51.503 121.054 51.503 120.865 51.4082C120.675 51.3135 120.486 51.2188 120.297 50.9347C120.107 50.6505 120.107 50.2717 120.012 49.8928C119.918 49.2298 119.918 48.7562 120.012 48.3773Z" fill="#0372A7"/>
<path d="M123.989 49.4192C123.705 49.3245 123.516 49.2298 123.421 48.9456C123.231 48.6615 123.137 48.2826 123.137 47.9038C123.137 47.4302 123.137 47.0513 123.231 46.5778C123.326 46.1989 123.516 45.82 123.705 45.4412C123.894 45.157 124.179 44.8729 124.463 44.7782C124.747 44.5887 125.031 44.5887 125.22 44.5887C125.505 44.6834 125.694 44.7782 125.789 45.0623C125.978 45.4412 126.073 45.7253 126.168 46.1989C126.168 46.6725 126.168 47.0513 126.073 47.5249C125.978 47.9038 125.789 48.2826 125.599 48.6615C125.41 48.9456 125.126 49.2298 124.842 49.4192C124.463 49.4192 124.179 49.5139 123.989 49.4192ZM125.126 48.0932C125.22 47.9038 125.315 47.7143 125.41 47.4302C125.505 47.146 125.505 46.8619 125.505 46.5778C125.505 46.2936 125.41 46.0095 125.315 45.82C125.22 45.6306 125.126 45.5359 124.936 45.5359C124.747 45.5359 124.652 45.5359 124.463 45.6306C124.273 45.7253 124.179 45.82 123.989 46.0095C123.894 46.1989 123.8 46.3883 123.705 46.6725C123.61 46.9566 123.61 47.2408 123.61 47.5249C123.61 47.9985 123.705 48.2826 123.894 48.4721C124.084 48.6615 124.273 48.6615 124.557 48.4721C124.842 48.4721 125.031 48.2826 125.126 48.0932Z" fill="#0372A7"/>
<path d="M130.811 41.4631C131 41.4631 131.19 41.6526 131.285 41.842C131.379 42.0314 131.474 42.4103 131.474 42.7891L131.663 45.3465L131.095 45.7253L130.906 43.2627C130.906 42.8839 130.811 42.5997 130.622 42.505C130.432 42.4103 130.243 42.4103 130.053 42.505C129.864 42.5997 129.674 42.8839 129.485 43.168C129.39 43.4522 129.296 43.831 129.39 44.2099L129.58 46.6725L129.011 47.0513L128.822 44.3993C128.822 44.0204 128.727 43.7363 128.538 43.6416C128.348 43.5469 128.159 43.5469 127.97 43.6416C127.78 43.7363 127.591 44.0204 127.401 44.3046C127.307 44.5887 127.212 44.9676 127.307 45.3465L127.496 47.8091L126.928 47.9985L126.644 43.6416L127.212 43.3574V43.831C127.307 43.6416 127.401 43.3574 127.591 43.168C127.78 42.9786 127.875 42.8839 128.064 42.7891C128.254 42.6944 128.538 42.5997 128.727 42.6944C128.917 42.6944 129.106 42.8839 129.201 43.0733C129.296 42.7891 129.39 42.505 129.58 42.2209C129.769 41.9367 129.959 41.7473 130.148 41.6526C130.432 41.4631 130.622 41.4631 130.811 41.4631Z" fill="#0372A7"/>
<path d="M58.0507 66.8769L58.0277 66.8625L52.2745 63.4451L52.2428 63.4249C49.7085 61.8946 46.3256 62.1362 42.6895 64.5123C35.38 69.2846 29.8108 80.8573 30.251 90.3617C30.4696 95.0995 32.138 98.4307 34.6637 99.9869L34.6867 100.001L40.44 103.419L40.4659 103.436C43.0002 104.969 46.386 104.731 50.0278 102.352C57.3345 97.5821 62.9036 86.0065 62.4664 76.5021C62.2391 71.7643 60.5764 68.436 58.0507 66.8769Z" fill="#37474F"/>
<path d="M40.2537 103.304L34.6816 100.001L34.6586 99.9812C32.1329 98.422 30.4645 95.0909 30.2459 90.3617C30.0503 86.1216 31.0513 81.4758 32.8636 77.204L32.901 77.1091L38.6198 80.6214C36.8046 84.8904 35.8064 89.539 36.002 93.7792C36.212 98.4163 37.8172 101.704 40.2537 103.304Z" fill="#263238"/>
<path d="M50.0294 102.351C57.336 97.582 62.9052 86.0065 62.4679 76.5021C62.0307 66.9977 55.7481 63.1574 48.4415 67.9297C41.1348 72.702 35.5628 84.2776 36.0029 93.782C36.443 103.286 42.7198 107.124 50.0294 102.351Z" fill="#455A64"/>
<path d="M45.9045 99.8431C44.9491 99.8517 44.0088 99.6054 43.1803 99.1297C40.879 97.8064 39.5586 94.7716 39.5586 90.7875C39.5586 83.4837 43.9972 74.966 49.4542 71.7844C51.9339 70.3461 54.3445 70.1562 56.2805 71.2609C58.5818 72.5841 59.9021 75.6218 59.9021 79.6031C59.9021 86.904 55.4635 95.4246 50.0065 98.5889C48.7741 99.3622 47.3586 99.795 45.9045 99.8431ZM53.5534 71.6665C52.2963 71.7098 51.0729 72.0838 50.0065 72.751C44.8516 75.7513 40.6661 83.8461 40.6661 90.8018C40.6661 94.366 41.7851 97.0528 43.7383 98.1775C45.3032 99.0779 47.337 98.8909 49.4628 97.654C54.6178 94.6565 58.8119 86.5588 58.8119 79.606C58.8119 76.039 57.6929 73.3522 55.7397 72.2274C55.0736 71.8498 54.319 71.6562 53.5534 71.6665Z" fill="#6ED0FF"/>
<path d="M45.9013 81.5823C44.7094 81.591 43.5503 81.1921 42.6162 80.4518L43.1254 79.8016C44.8082 81.1191 47.0779 81.0616 49.523 79.6406C52.0544 78.1677 54.4334 75.4378 56.2227 71.9571L56.9562 72.3339C55.0979 75.9556 52.6039 78.8035 49.9372 80.354C48.7236 81.1117 47.3313 81.5354 45.9013 81.5823Z" fill="#6ED0FF"/>
<path d="M43.2365 98.448L42.5029 98.0711C44.3612 94.4523 46.8553 91.6044 49.5219 90.0511C52.2777 88.4488 54.8782 88.4143 56.8429 89.9533L56.3338 90.6034C54.651 89.2859 52.3813 89.3434 49.9361 90.7645C47.4047 92.2373 45.0257 94.9672 43.2365 98.448Z" fill="#6ED0FF"/>
<path d="M48.6646 98.8593C48.2715 98.8572 47.8861 98.7499 47.5485 98.5486C45.6096 97.4354 44.4043 93.4138 44.4043 88.0604C44.4043 80.6761 46.6538 73.5881 49.5218 71.9196C49.8747 71.6885 50.285 71.5602 50.7066 71.549C51.1283 71.5379 51.5448 71.6443 51.9094 71.8564C53.8483 72.9725 55.0536 76.9911 55.0536 82.3446C55.0536 89.7289 52.8041 96.8169 49.9361 98.4882C49.5523 98.7218 49.1137 98.8498 48.6646 98.8593ZM50.7933 72.3713C50.4871 72.3781 50.1887 72.4686 49.9303 72.633C47.3787 74.1145 45.2241 81.1795 45.2241 88.0604C45.2241 93.7274 46.5963 97.0528 47.9541 97.841C48.1935 97.9795 48.4674 98.0474 48.7438 98.0367C49.0203 98.026 49.288 97.9372 49.5161 97.7806C52.0677 96.2962 54.2222 89.2312 54.2222 82.3503C54.2222 76.6833 52.8501 73.358 51.4923 72.5698C51.2808 72.4433 51.0397 72.3748 50.7933 72.3713Z" fill="#6ED0FF"/>
<path d="M50.143 72.2763H49.3174V98.1315H50.143V72.2763Z" fill="#6ED0FF"/>
<path d="M58.7047 79.182L39.5566 90.3146L39.9694 91.0246L59.1175 79.892L58.7047 79.182Z" fill="#6ED0FF"/>
<path d="M39.8008 104.33L36.7695 102.579L29.3458 115.438L32.3771 117.188L39.8008 104.33Z" fill="#37474F"/>
<path d="M39.8065 104.326L38.293 103.452L30.8692 116.31L32.3827 117.184L39.8065 104.326Z" fill="#263238"/>
<path d="M21.2068 140.546C19.8255 142.947 13.2855 139.135 14.6618 136.769L31.7174 110.168C31.7633 110.096 31.8353 110.044 31.9183 110.024C32.0013 110.004 32.0889 110.016 32.1629 110.059L35.5889 112.039C35.6627 112.081 35.7173 112.15 35.7414 112.231C35.7654 112.312 35.7569 112.4 35.7176 112.475L21.2068 140.546Z" fill="#6ED0FF"/>
<path opacity="0.1" d="M21.2067 140.546L35.7126 112.475C35.7518 112.4 35.7603 112.312 35.7363 112.231C35.7123 112.15 35.6576 112.081 35.5838 112.039L34.0243 111.138L17.3945 140.7C18.9095 141.447 20.5829 141.63 21.2067 140.546Z" fill="black"/>
<path d="M71.3584 77.9233C71.3584 77.7203 71.3584 77.5223 71.3287 77.3242C71.299 77.1262 71.3287 76.9331 71.2841 76.74C71.2395 76.5469 71.2841 76.4826 71.2445 76.3539C71.2098 76.0172 71.1603 75.6855 71.1059 75.3637C71.0811 75.2201 71.0564 75.0716 71.0267 74.928C70.9969 74.7845 70.9722 74.6557 70.9425 74.5221C70.8583 74.1557 70.7692 73.7992 70.6652 73.4576C70.6108 73.2943 70.5613 73.1309 70.5068 72.9625C70.4964 72.9386 70.4881 72.9137 70.4821 72.8883C70.4226 72.7299 70.3682 72.5764 70.3088 72.4279C70.2494 72.2793 70.1702 72.0813 70.091 71.9328C70.0117 71.7843 69.982 71.6902 69.9177 71.5714C69.8818 71.4822 69.8387 71.3961 69.7889 71.3139C69.7394 71.21 69.685 71.106 69.6256 71.007C69.5662 70.908 69.6008 70.9575 69.586 70.9377C69.5711 70.9179 69.482 70.7594 69.4275 70.6703C69.3731 70.5812 69.3533 70.5565 69.3186 70.502C69.0649 70.1024 68.7802 69.7233 68.4671 69.3683L68.3087 69.19L68.175 69.0514C68.1205 68.992 68.0611 68.9375 68.0017 68.8781C67.8462 68.7147 67.6809 68.5609 67.5066 68.4177C67.4225 68.3434 67.3333 68.2741 67.2442 68.2098L66.9719 68.0117C66.8304 67.908 66.6833 67.8121 66.5313 67.7246L66.4125 67.6503H66.3877L59.3724 63.6006L59.3328 63.5758C57.9869 62.8252 56.4675 62.4411 54.9266 62.4619C52.6294 62.4619 50.0352 63.2144 47.2875 64.7986C37.8512 70.2445 30.1973 83.5028 30.1973 94.4045C30.1973 99.8504 32.0984 103.663 35.1728 105.455H35.2025L42.2228 109.5H42.2525L42.3367 109.544C42.4683 109.622 42.6038 109.693 42.7426 109.757C42.911 109.841 43.0842 109.915 43.2377 109.985C43.3912 110.054 43.5496 110.109 43.708 110.158L43.9605 110.232C44.049 110.266 44.14 110.293 44.2328 110.312C44.324 110.339 44.4166 110.362 44.5101 110.381C44.5766 110.4 44.6444 110.415 44.7131 110.425C44.8319 110.45 44.9606 110.475 45.0844 110.49C45.1122 110.494 45.1407 110.494 45.1685 110.49C45.3171 110.516 45.4656 110.536 45.6141 110.549C48.1588 110.817 51.1194 110.099 54.2879 108.272C63.7291 102.826 71.3831 89.5626 71.3831 78.6659C71.3584 78.4382 71.3584 78.1807 71.3584 77.9233ZM59.9071 70.2148C60.2779 71.5696 60.4595 72.9691 60.4468 74.3735C60.4468 83.988 53.4116 96.1571 45.0992 100.979C43.8841 101.702 42.5721 102.247 41.2029 102.598C40.8343 101.241 40.6527 99.8405 40.6633 98.4345C40.6633 88.82 47.6984 76.6509 56.0108 71.8288C57.2214 71.1092 58.5283 70.5657 59.8923 70.2148H59.9071Z" fill="#6ED0FF"/>
<path opacity="0.1" d="M41.9364 109.361L35.1191 105.43C32.0447 103.633 30.1436 99.8108 30.1436 94.3847C30.1436 89.523 31.6684 84.196 34.1884 79.3046L41.2086 83.3444C38.6837 88.2358 37.1638 93.5629 37.1638 98.4246C37.1638 103.752 38.9758 107.519 41.9364 109.361Z" fill="black"/>
<path opacity="0.4" d="M71.3588 77.9233C71.3588 77.7203 71.3588 77.5222 71.3291 77.3242C71.2994 77.1262 71.3291 76.9331 71.2846 76.74C71.24 76.5469 71.2846 76.4826 71.2449 76.3539C71.2103 76.0172 71.1608 75.6855 71.1063 75.3637C71.0816 75.2201 71.0568 75.0716 71.0271 74.928C70.9974 74.7844 70.9727 74.6557 70.943 74.522C70.8588 74.1557 70.7697 73.7992 70.6657 73.4576C70.6112 73.2942 70.5617 73.1309 70.5073 72.9625C70.4968 72.9386 70.4885 72.9137 70.4825 72.8883C70.4231 72.7299 70.3687 72.5764 70.3092 72.4279C70.2498 72.2793 70.1706 72.0813 70.0914 71.9328C70.0122 71.7842 69.9825 71.6902 69.9181 71.5714C69.8822 71.4822 69.8392 71.3961 69.7894 71.3139C69.7399 71.2099 69.6854 71.106 69.626 71.007C69.5666 70.908 69.6013 70.9575 69.5864 70.9377C69.5716 70.9179 69.4825 70.7594 69.428 70.6703C69.3735 70.5812 69.3537 70.5564 69.3191 70.502C69.0654 70.1023 68.7806 69.7233 68.4675 69.3682L68.3091 69.19L68.1754 69.0514C68.121 68.992 68.0616 68.9375 68.0022 68.8781C67.8467 68.7147 67.6813 68.5609 67.5071 68.4177C67.4229 68.3434 67.3338 68.2741 67.2447 68.2098L66.9724 68.0117C66.8309 67.908 66.6838 67.8121 66.5318 67.7246C63.4276 65.8383 59.1055 66.0611 54.2983 68.8286C44.8571 74.2745 37.2031 87.5328 37.2031 98.4345C37.2031 103.955 39.1835 107.811 42.3272 109.564C42.4589 109.642 42.5944 109.713 42.7332 109.777C42.9015 109.861 43.0748 109.935 43.2283 110.005C43.3817 110.074 43.5402 110.128 43.6986 110.178L43.9511 110.252C44.0395 110.286 44.1306 110.312 44.2234 110.331C44.3146 110.359 44.4071 110.382 44.5006 110.401C44.5672 110.42 44.635 110.435 44.7036 110.445C44.8224 110.47 44.9512 110.495 45.0749 110.51C45.1028 110.514 45.1312 110.514 45.1591 110.51C45.3076 110.536 45.4561 110.556 45.6047 110.569C48.1494 110.836 51.11 110.118 54.2785 108.292C63.7197 102.846 71.3737 89.5824 71.3737 78.6857C71.3588 78.4381 71.3588 78.1807 71.3588 77.9233ZM52.5457 105.306C50.4268 106.529 48.387 107.173 46.6443 107.173C43.3718 107.173 41.8668 104.94 41.1984 102.598C40.8298 101.241 40.6482 99.8405 40.6588 98.4345C40.6588 88.82 47.6939 76.6509 56.0063 71.8288C57.2215 71.1079 58.5336 70.5644 59.9026 70.2148C60.5507 70.0543 61.2153 69.9695 61.883 69.9623C67.2942 69.9623 67.8734 76.0717 67.8734 78.7005C67.8932 88.2952 60.8581 100.499 52.5457 105.306Z" fill="white"/>
<path opacity="0.1" d="M67.893 78.7005C67.893 88.315 60.8629 100.484 52.5455 105.306C50.4266 106.529 48.3868 107.173 46.6441 107.173C43.3717 107.173 41.8666 104.94 41.1982 102.598C42.5674 102.247 43.8794 101.701 45.0945 100.979C53.4218 96.1719 60.4421 83.988 60.4421 74.3735C60.4548 72.969 60.2732 71.5695 59.9024 70.2148C60.5505 70.0542 61.2151 69.9695 61.8828 69.9623C67.3089 69.9772 67.893 76.0716 67.893 78.7005Z" fill="black"/>
<path opacity="0.7" d="M64.9225 77.0222C64.9225 86.6367 57.8923 98.8058 49.5749 103.628C47.456 104.851 45.4162 105.494 43.6736 105.494C43.3269 105.495 42.9808 105.467 42.6388 105.41C41.9698 104.584 41.4823 103.626 41.2081 102.598C40.8394 101.241 40.6578 99.8405 40.6684 98.4345C40.6684 88.82 47.7035 76.6509 56.0159 71.8288C57.2311 71.1078 58.5432 70.5644 59.9122 70.2148C60.5603 70.0542 61.2249 69.9695 61.8926 69.9623C62.2409 69.9615 62.5886 69.9896 62.9322 70.0465C64.6452 72.0615 64.9225 75.2944 64.9225 77.0222Z" fill="white"/>
</svg>
