<svg width="243" height="229" fill="none" xmlns="http://www.w3.org/2000/svg">
  <path fill="#fff" d="M0 0h243v229H0z"/>
  <circle cx="121" cy="114" r="89.5" fill="#fff" stroke="#2DBDFF"/>
  <path d="M131.254 84.703L121 78.843l-10.254 5.86-13.183 26.367 9.159 2.93h28.309l9.407-2.93-13.184-26.367z" fill="#6AD0FF"/>
  <path d="M144.438 111.07l-13.184-26.367L121 78.843V114h14.031l9.407-2.93z" fill="#00AFFF"/>
  <path d="M144.438 111.07H97.562L84.38 137.438l11.426 2.929h50.884l10.932-2.929-13.183-26.368z" fill="#94C5FF"/>
  <path d="M157.621 137.438l-13.183-26.368H121v29.297h25.689l10.932-2.929z" fill="#439AFF"/>
  <path d="M121 64l-10.254 20.703h20.508L121 64z" fill="#3F98FF"/>
  <path d="M121 64v20.703h10.254L121 64z" fill="#0069E3"/>
  <path d="M157.621 137.438H84.379L71 164h44.141l5.859-5.859 5.859 5.859H171l-13.379-26.562z" fill="#0076FF"/>
  <path d="M171 164l-13.379-26.562H121v20.703l5.859 5.859H171z" fill="#004BA2"/>
  <path d="M121 105.211l-11.716 20.508h5.857V164h11.718v-38.281h5.857L121 105.211z" fill="#3F98FF"/>
  <path d="M126.859 125.719h5.857L121 105.211V164h5.859v-38.281z" fill="#0069E3"/>
</svg>
