<svg width="243" height="229" fill="none" xmlns="http://www.w3.org/2000/svg">
  <path fill="#fff" d="M0 0h243v229H0z"/>
  <circle cx="121" cy="114" r="89.5" fill="#fff" stroke="#2DBDFF"/>
  <path d="M155.309 120.751h-11.953a3.535 3.535 0 00-3.535 3.535v14.303a3.536 3.536 0 00-3.536-3.536h-11.953a3.535 3.535 0 00-3.536 3.536v9.429a3.536 3.536 0 00-3.535-3.536h-11.954a3.535 3.535 0 00-3.535 3.536v8.777a3.536 3.536 0 00-3.537-3.535H86.282a3.535 3.535 0 00-3.535 3.535v6.712h76.099v-39.221a3.536 3.536 0 00-3.537-3.535z" fill="#2DBDFF"/>
  <path d="M144.985 122.244a1.493 1.493 0 01-1.494-1.493V66.493a1.494 1.494 0 012.987 0v54.258c0 .825-.669 1.493-1.493 1.493z" fill="#0069E3"/>
  <path d="M101.772 163.507H82.747v-6.712a3.536 3.536 0 013.535-3.535h11.954a3.535 3.535 0 013.536 3.535v6.712z" fill="#2DBDFF"/>
  <path d="M120.796 163.507h-19.024v-15.489a3.536 3.536 0 013.535-3.536h11.954a3.536 3.536 0 013.535 3.536v15.489z" fill="#288CFF"/>
  <path d="M139.821 163.507h-19.025v-24.918a3.536 3.536 0 013.536-3.536h11.953a3.535 3.535 0 013.536 3.536v24.918z" fill="#0069E3"/>
  <path d="M158.846 163.507h-19.025v-39.221a3.535 3.535 0 013.535-3.535h11.953a3.536 3.536 0 013.537 3.535v39.221z" fill="#004BA1"/>
  <path d="M164.118 165H77.766a1.493 1.493 0 110-2.986h86.352a1.492 1.492 0 110 2.986z" fill="#004BA1"/>
  <path d="M144.985 80.69h19.136a.643.643 0 00.425-1.126l-4.971-4.378a.643.643 0 010-.965l4.971-4.377a.644.644 0 00-.425-1.126h-19.136v11.971z" fill="#6AD0FF"/>
  <path d="M146.509 86.291L125.78 97.55c-1.85 1.005-2.355 2.77-3.001 5.045l-4.122 14.579 5.444 1.87 4.658-6.011 3.921-11.854 10.431-6.338a7.634 7.634 0 003.398-8.55z" fill="#AFE6FF"/>
  <path d="M146.509 86.291l-2.392 1.3a7.63 7.63 0 01-3.527 5.06l-9.505 5.776a2.95 2.95 0 00-1.269 1.593l-1.357 4.104a15.387 15.387 0 01-8.771 9.404l-1.031 3.646 10.102-4.14 3.921-11.854 10.431-6.34a7.634 7.634 0 003.398-8.549z" fill="#2DBDFF"/>
  <path d="M128.759 113.033l5.969 7.056c.99 1.31 1.85 2.231 1.672 3.672l-1.396 11.286h-3.643l-.952-9.702a1.62 1.62 0 00-.972-1.33l-10.78-6.841 10.102-4.141z" fill="#008AC9"/>
  <path d="M118.657 117.174l-.582 10.697c-.038.887.086 1.487-.261 2.147l-6.874 14.464h3.864l10.336-13.731c.604-.704.674-1.659.878-2.538l2.74-15.18-10.101 4.141zm9.361-28.574l1.696 3.31a3.165 3.165 0 01-1.374 4.26l-1.31.67a3.164 3.164 0 01-4.259-1.374l-1.695-3.31a3.163 3.163 0 011.374-4.259l1.31-.67a3.164 3.164 0 014.258 1.374z" fill="#00A3ED"/>
</svg>
