<svg width="188" height="67" viewBox="0 0 188 67" fill="none" xmlns="http://www.w3.org/2000/svg">
<path d="M105.499 15.4863V34.5652C105.499 35.1614 105.499 36.1028 105.53 37.3266C105.53 38.5504 105.561 39.4918 105.561 40.088C105.561 41.6884 104.871 42.4729 103.459 42.4729H103.145C103.114 42.4729 103.051 42.4729 102.957 42.4415C102.863 42.4415 102.8 42.4102 102.769 42.4102C102.643 42.4102 102.518 42.4101 102.329 42.4415C102.141 42.4415 102.016 42.4729 101.89 42.4729C100.635 42.4729 99.8817 42.0022 99.5679 41.0922C99.4738 40.8412 99.4424 40.3077 99.4424 39.4604C99.4424 39.0839 99.4424 38.3622 99.4738 37.3266C99.5052 36.2911 99.5052 35.5066 99.5052 34.9731C99.5052 32.2431 99.1914 30.8624 98.5324 30.8624C96.3986 30.831 94.7982 30.7996 93.7313 30.7996C92.6644 30.7996 91.064 30.831 88.9302 30.8624C88.8047 30.8624 88.6164 30.9565 88.4281 31.1762C88.2398 31.3645 88.1457 31.5528 88.1457 31.6783C88.1457 31.8979 88.1457 32.2745 88.1143 32.7452C88.1143 33.2473 88.0829 33.5924 88.0829 33.8121V36.2911C88.0829 38.2053 88.0516 39.6173 87.9888 40.5587C87.9574 41.1863 87.675 41.6884 87.1102 42.065C86.5453 42.4415 85.8864 42.5984 85.1019 42.5984C84.2546 42.5984 83.5329 42.3788 82.8739 41.9395C82.2149 41.5001 81.9011 40.9039 81.9011 40.1194V15.0784C81.9011 13.3839 82.9994 12.5366 85.1646 12.5366C85.196 12.5366 85.2274 12.5366 85.2588 12.568C85.2901 12.568 85.3215 12.5994 85.3529 12.5994C86.2315 12.6308 86.9219 12.819 87.3926 13.1642C87.8633 13.5094 88.1143 14.1056 88.1143 14.9842C88.1143 15.4236 88.1143 16.1139 88.0829 17.0239C88.0829 17.9339 88.0516 18.6243 88.0516 19.0636C88.0516 20.3188 88.0829 22.233 88.1143 24.7747C88.1143 24.9316 88.2085 25.1199 88.4281 25.3396C88.6164 25.5592 88.8047 25.6534 88.9616 25.6534L93.6685 25.7161C94.6727 25.7161 96.2417 25.6847 98.3127 25.6534C98.4696 25.6534 98.6579 25.5278 98.909 25.3082C99.16 25.0571 99.2541 24.8689 99.2541 24.6806V23.0488C99.2541 22.1702 99.2227 21.0719 99.1914 19.754C99.16 18.436 99.1286 17.5574 99.1286 17.1494C99.1286 15.4549 99.3169 14.2625 99.6935 13.5721C100.07 12.8818 100.886 12.568 102.11 12.568H102.486C103.616 12.5994 104.4 12.8504 104.808 13.2584C105.279 13.6663 105.499 14.388 105.499 15.4863Z" fill="#002B5D"/>
<path d="M122.067 20.2246C124.954 20.3501 127.527 21.4798 129.755 23.5509C131.983 25.6219 133.113 28.2892 133.113 31.49V31.8979C133.019 34.7848 131.889 37.2952 129.724 39.4604C127.559 41.6256 124.766 42.7239 121.377 42.7239C121.314 42.7239 121.189 42.7239 121.063 42.6925C120.906 42.6925 120.812 42.6611 120.718 42.6611C117.925 42.5356 115.415 41.4373 113.218 39.3976C111.022 37.358 109.923 34.8162 109.923 31.7096C109.923 31.6782 109.923 31.6468 109.955 31.5841C109.955 31.5213 109.986 31.4586 109.986 31.4272C109.986 28.2892 111.084 25.6533 113.312 23.4567C115.54 21.2601 118.27 20.1932 121.534 20.1932H122.067V20.2246ZM121.44 37.4835C123.197 37.4835 124.64 36.8873 125.707 35.6635C126.774 34.4397 127.308 33.0589 127.308 31.4272C127.308 29.8268 126.774 28.4461 125.707 27.2537C124.64 26.0926 123.323 25.4337 121.816 25.3395C121.785 25.3395 121.691 25.3395 121.597 25.3081C121.502 25.3081 121.408 25.2768 121.377 25.2768C119.777 25.2768 118.459 25.9043 117.36 27.1909C116.262 28.4461 115.697 29.7954 115.634 31.2389V31.5213C115.634 33.0589 116.168 34.4397 117.266 35.6635C118.365 36.8873 119.588 37.4835 120.938 37.4835C121.157 37.4835 121.283 37.4835 121.377 37.4521H121.44V37.4835Z" fill="#002B5D"/>
<path d="M149.273 42.4102C147.955 42.4102 146.983 42.0964 146.324 41.5001C145.665 40.9039 145.131 39.8998 144.692 38.5191C142.527 33.4355 140.456 28.2579 138.479 22.9547C138.385 22.7664 138.353 22.5154 138.353 22.2016C138.353 21.7309 138.542 21.3543 138.887 21.0405C139.263 20.7581 139.734 20.6012 140.299 20.5698C140.393 20.5698 140.518 20.5698 140.707 20.5385C140.895 20.5385 141.021 20.5071 141.083 20.5071C142.433 20.5071 143.343 20.6954 143.751 21.1033C144.19 21.5112 144.661 22.484 145.163 24.053C146.041 26.8458 147.391 30.2976 149.242 34.4711C149.807 33.1531 150.591 31.1448 151.596 28.4148C152.6 25.6847 153.384 23.6451 153.949 22.3271C154.388 21.3543 154.922 20.8523 155.612 20.8209H156.554C157.558 20.8209 158.374 20.9464 158.907 21.1974C159.472 21.4485 159.754 21.9192 159.754 22.6095C159.754 23.143 159.629 23.7078 159.378 24.304C158.123 27.6617 156.24 32.3059 153.729 38.268C153.165 39.5546 152.568 40.496 151.941 41.0922C151.376 41.8139 150.466 42.2219 149.273 42.4102Z" fill="#002B5D"/>
<path d="M187.023 31.6154C187.023 32.0234 187.086 32.8706 187.18 34.1258C187.274 35.381 187.337 36.3538 187.337 37.0755C187.337 39.8683 186.615 41.5942 185.172 42.3159C184.858 42.4415 184.482 42.5042 184.074 42.5042C183.572 42.5042 183.132 42.4415 182.756 42.3159C182.316 42.1904 181.971 41.908 181.689 41.4687C181.406 41.0608 181.249 40.5901 181.187 40.1194L180.465 40.6214C178.865 42.1277 176.888 42.9122 174.534 42.9122C173.907 42.9122 173.122 42.818 172.212 42.6611C168.886 42.0649 166.47 40.1194 164.932 36.8872C164.085 35.13 163.677 33.3727 163.677 31.6154C163.677 29.1364 164.493 26.9085 166.156 24.9629C167.819 23.0174 170.015 21.5739 172.777 20.6325C173.467 20.4129 174.158 20.2874 174.817 20.2874C176.48 20.2874 178.3 21.0091 180.339 22.4839C180.434 22.5467 180.559 22.6722 180.779 22.8605C180.967 23.0488 181.093 23.1743 181.155 23.237C181.187 22.3898 181.5 21.7308 182.034 21.2601C182.567 20.8208 183.195 20.5698 183.948 20.5698C184.764 20.5698 185.486 20.8522 186.082 21.3856C186.678 21.9191 186.992 22.6722 186.992 23.6136V31.6154H187.023ZM169.984 31.7096C169.984 33.561 170.455 35.0358 171.428 36.0714C172.4 37.1383 173.718 37.6404 175.381 37.6404C177.233 37.6404 178.676 37.0441 179.68 35.8831C180.685 34.6907 181.187 33.2472 181.187 31.4585C181.187 29.6385 180.622 28.1951 179.555 27.1909C178.457 26.1867 177.139 25.6533 175.632 25.6533C174.095 25.6533 172.777 26.1868 171.647 27.2537C170.549 28.352 169.984 29.8268 169.984 31.7096Z" fill="#002B5D"/>
<path d="M23.8172 43.479C23.7858 43.479 23.7544 43.479 23.7544 43.479C23.6917 43.479 23.6289 43.479 23.5662 43.5104C23.6289 43.5104 23.6917 43.479 23.7231 43.479C23.7544 43.5104 23.7858 43.479 23.8172 43.479Z" fill="#0074FE"/>
<path d="M11.9558 34.0651C13.8102 34.0651 15.3134 32.5619 15.3134 30.7075C15.3134 28.8531 13.8102 27.3499 11.9558 27.3499C10.1014 27.3499 8.59814 28.8531 8.59814 30.7075C8.59814 32.5619 10.1014 34.0651 11.9558 34.0651Z" fill="#2DBDFF"/>
<path d="M25.3235 52.234C27.1778 52.234 28.6811 50.7307 28.6811 48.8763C28.6811 47.0219 27.1778 45.5187 25.3235 45.5187C23.4691 45.5187 21.9658 47.0219 21.9658 48.8763C21.9658 50.7307 23.4691 52.234 25.3235 52.234Z" fill="#2DBDFF"/>
<path d="M2.22783 35.1633C3.44097 35.1633 4.42442 34.1799 4.42442 32.9667C4.42442 31.7536 3.44097 30.7701 2.22783 30.7701C1.01469 30.7701 0.03125 31.7536 0.03125 32.9667C0.03125 34.1799 1.01469 35.1633 2.22783 35.1633Z" fill="#2DBDFF"/>
<path d="M9.6021 49.1274C10.8152 49.1274 11.7987 48.144 11.7987 46.9308C11.7987 45.7177 10.8152 44.7343 9.6021 44.7343C8.38896 44.7343 7.40552 45.7177 7.40552 46.9308C7.40552 48.144 8.38896 49.1274 9.6021 49.1274Z" fill="#2DBDFF"/>
<path d="M3.32614 54.7129C4.07135 54.7129 4.67546 54.1088 4.67546 53.3636C4.67546 52.6184 4.07135 52.0143 3.32614 52.0143C2.58092 52.0143 1.97681 52.6184 1.97681 53.3636C1.97681 54.1088 2.58092 54.7129 3.32614 54.7129Z" fill="#2DBDFF"/>
<path d="M1.34933 44.8912C2.09454 44.8912 2.69866 44.287 2.69866 43.5418C2.69866 42.7966 2.09454 42.1925 1.34933 42.1925C0.604116 42.1925 0 42.7966 0 43.5418C0 44.287 0.604116 44.8912 1.34933 44.8912Z" fill="#2DBDFF"/>
<path d="M29.9991 62.6206C31.2122 62.6206 32.1957 61.6371 32.1957 60.424C32.1957 59.2109 31.2122 58.2274 29.9991 58.2274C28.7859 58.2274 27.8025 59.2109 27.8025 60.424C27.8025 61.6371 28.7859 62.6206 29.9991 62.6206Z" fill="#2DBDFF"/>
<path d="M19.6751 59.6711C20.403 59.6711 20.9931 59.081 20.9931 58.3531C20.9931 57.6252 20.403 57.0352 19.6751 57.0352C18.9472 57.0352 18.3572 57.6252 18.3572 58.3531C18.3572 59.081 18.9472 59.6711 19.6751 59.6711Z" fill="#2DBDFF"/>
<path d="M21.7147 66.3861C22.4426 66.3861 23.0326 65.7961 23.0326 65.0682C23.0326 64.3403 22.4426 63.7502 21.7147 63.7502C20.9868 63.7502 20.3967 64.3403 20.3967 65.0682C20.3967 65.7961 20.9868 66.3861 21.7147 66.3861Z" fill="#2DBDFF"/>
<path d="M11.3844 59.533C12.1122 59.533 12.7023 58.9429 12.7023 58.215C12.7023 57.4872 12.1122 56.8971 11.3844 56.8971C10.6565 56.8971 10.0664 57.4872 10.0664 58.215C10.0664 58.9429 10.6565 59.533 11.3844 59.533Z" fill="#2DBDFF"/>
<path d="M23.8172 43.4792C23.7858 43.4792 23.7544 43.4792 23.7544 43.4792C23.6917 43.4792 23.6289 43.4793 23.5662 43.5106C23.6289 43.5106 23.6917 43.4792 23.7231 43.4792C23.7544 43.5106 23.7858 43.4792 23.8172 43.4792Z" fill="#0074FE"/>
<path d="M23.7543 43.5105C23.6916 43.5105 23.6288 43.5105 23.5974 43.5419C23.6288 43.5105 23.6916 43.5105 23.7543 43.5105Z" fill="#0074FE"/>
<path d="M66.2427 32.2452C69.3179 18.1557 60.4061 4.00346 46.3793 0.708584C33.3881 -2.33525 20.4283 4.69381 15.6585 16.6809C15.5644 16.9005 15.3761 16.9947 15.1565 16.9319C14.9368 16.8692 14.6858 16.8378 14.4661 16.8064C13.1482 16.6809 11.8302 17.183 11.0457 18.2812C9.3826 20.5406 10.2612 23.3334 12.3323 24.4003C12.6147 24.5572 12.9599 24.6827 13.3051 24.7455C13.3992 24.7769 13.4933 24.7769 13.5561 24.8082C13.6502 24.8396 13.713 24.8396 13.8071 24.8396C16.3175 26.0948 17.761 29.0131 17.1334 31.9001C16.9765 32.5904 16.7255 33.218 16.3803 33.7829C16.2861 33.9398 16.1292 34.0339 15.9723 34.0967C15.6272 34.2222 15.282 34.3791 14.9682 34.5673C14.1209 35.038 13.3992 35.7284 12.8657 36.5443C12.3951 37.2346 12.0499 38.0505 11.893 38.9291C11.3281 42.0357 13.1795 45.1737 16.2234 46.1465C17.2903 46.4916 18.3572 46.523 19.3614 46.3348C20.1772 46.1779 20.899 45.8641 21.5893 45.4247C22.1855 45.0482 22.7504 44.5461 23.1897 43.9499C23.2211 43.9185 23.2525 43.8558 23.2838 43.8244C23.3152 43.793 23.3466 43.7302 23.378 43.6988C23.4407 43.6361 23.5035 43.6047 23.5976 43.5733C23.6604 43.5419 23.7231 43.5419 23.7859 43.5419C23.8173 43.5419 23.8487 43.5419 23.8487 43.5419C24.539 43.4478 25.2608 43.4792 25.9825 43.6361C28.6498 44.2323 30.5326 46.4289 30.8463 49.002C30.8777 49.3158 30.7836 49.6296 30.5953 49.8807C30.3129 50.2258 30.1246 50.6024 29.9677 51.0417C29.9363 51.1672 29.8736 51.3241 29.8422 51.4497C29.7167 52.0459 29.7167 52.6421 29.8422 53.1755C30.2815 55.2152 32.2898 56.7528 34.8002 56.2194C36.3064 55.9056 37.4047 54.6504 37.6558 53.1441C37.6871 53.0814 37.7185 53.05 37.7499 53.05C37.7813 53.05 37.7813 53.05 37.8127 53.05C37.8127 53.05 37.8127 53.05 37.844 53.05H37.8754C51.0235 54.2424 63.3558 45.4875 66.2427 32.2452Z" fill="#2DBDFF"/>
<path d="M31.0335 31.1846H31.0962V22.9945C31.7866 22.5866 32.2573 21.8021 32.2573 20.9234C32.2573 19.6055 31.1904 18.5072 29.841 18.5072C28.5231 18.5072 27.4248 19.5741 27.4248 20.9234C27.4248 21.8021 27.8955 22.5552 28.5858 22.9945V31.1846H28.6486C27.9269 31.5926 27.4248 32.377 27.4248 33.2871C27.4248 34.605 28.4917 35.7033 29.841 35.7033C31.159 35.7033 32.2573 34.6364 32.2573 33.2871C32.2573 32.377 31.7552 31.5926 31.0335 31.1846ZM29.8724 34.1343C29.4017 34.1343 29.0252 33.7578 29.0252 33.2871C29.0252 32.8164 29.4017 32.4398 29.8724 32.4398C30.3431 32.4398 30.7197 32.8164 30.7197 33.2871C30.6883 33.7578 30.3117 34.1343 29.8724 34.1343ZM29.8724 21.7707C29.4017 21.7707 29.0252 21.3941 29.0252 20.9234C29.0252 20.4528 29.4017 20.0762 29.8724 20.0762C30.3431 20.0762 30.7197 20.4528 30.7197 20.9234C30.6883 21.3941 30.3117 21.7707 29.8724 21.7707Z" fill="white"/>
<path d="M35.3012 25.5555C35.9916 25.5555 36.525 24.9906 36.525 24.3317L36.525 18.1C36.525 17.4097 35.9602 16.8762 35.3012 16.8762C34.6422 16.8762 34.0774 17.4411 34.0774 18.1V24.3317C34.0774 24.9906 34.6109 25.5555 35.3012 25.5555Z" fill="white"/>
<path d="M46.1272 16.8126C45.4369 16.8126 44.9034 17.3775 44.9034 18.0364V25.85H35.3012C34.6109 25.85 34.0774 26.4148 34.0774 27.0738V36.1112C34.0774 36.8015 34.6422 37.335 35.3012 37.335C35.9602 37.335 36.525 36.7701 36.525 36.1112V28.2976H46.1272C46.8176 28.2976 47.351 27.7328 47.351 27.0738V18.0364C47.351 17.3775 46.8176 16.8126 46.1272 16.8126Z" fill="white"/>
<path d="M46.2297 28.4485C45.4138 28.4485 44.7832 29.1778 44.7832 30.0287V36.994C44.7832 37.8854 45.4508 38.5743 46.2297 38.5743C47.0087 38.5743 47.6763 37.8449 47.6763 36.994V30.0287C47.6763 29.1373 47.0457 28.4485 46.2297 28.4485Z" fill="white"/>
<path d="M41.9223 39.6571C41.9536 39.563 41.9536 39.4688 41.9536 39.3747V32.3456C41.9536 31.6553 41.3888 31.1218 40.7298 31.1218C40.0395 31.1218 39.506 31.6553 39.506 32.3456V39.3747C39.506 39.4688 39.506 39.563 39.5374 39.6571C38.8157 40.0651 38.345 40.8495 38.345 41.7282C38.345 43.0461 39.4119 44.1444 40.7612 44.1444C42.0792 44.1444 43.1775 43.0775 43.1775 41.7282C43.1147 40.8495 42.644 40.0964 41.9223 39.6571ZM40.6985 42.5754C40.2278 42.5754 39.8512 42.1989 39.8512 41.7282C39.8512 41.2575 40.2278 40.8809 40.6985 40.8809C41.1691 40.8809 41.5457 41.2575 41.5457 41.7282C41.5457 42.1989 41.1691 42.5754 40.6985 42.5754Z" fill="white"/>
<path d="M52.9366 30.6824V23.4337C53.6269 23.0258 54.0976 22.2413 54.0976 21.3627C54.0976 20.0447 53.0307 18.9464 51.6814 18.9464C50.3634 18.9464 49.2651 20.0133 49.2651 21.3627C49.2651 22.2413 49.7358 22.9944 50.4262 23.4337V30.6824C49.7358 31.0904 49.2651 31.8749 49.2651 32.7535C49.2651 34.0715 50.332 35.1697 51.6814 35.1697C52.9993 35.1697 54.0976 34.1028 54.0976 32.7535C54.129 31.8749 53.6583 31.0904 52.9366 30.6824ZM51.7128 33.5694C51.2421 33.5694 50.8655 33.1928 50.8655 32.7221C50.8655 32.2514 51.2421 31.8749 51.7128 31.8749C52.1835 31.8749 52.56 32.2514 52.56 32.7221C52.56 33.1928 52.1835 33.5694 51.7128 33.5694ZM51.7128 22.2099C51.2421 22.2099 50.8655 21.8334 50.8655 21.3627C50.8655 20.892 51.2421 20.5154 51.7128 20.5154C52.1835 20.5154 52.56 20.892 52.56 21.3627C52.56 21.8334 52.1835 22.2099 51.7128 22.2099Z" fill="white"/>
<path d="M40.6985 11.5723C39.3805 11.5723 38.2822 12.6392 38.2822 13.9885C38.2822 14.8671 38.7529 15.6203 39.4433 16.0596V23.0259C39.4433 23.7162 40.0081 24.2497 40.6671 24.2497C41.3574 24.2497 41.8909 23.6849 41.8909 23.0259V16.0596C42.5813 15.6516 43.0519 14.8671 43.0519 13.9885C43.1147 12.6392 42.0478 11.5723 40.6985 11.5723ZM41.3261 14.522C41.1692 14.6789 40.9495 14.773 40.6985 14.773C40.4474 14.773 40.2278 14.6789 40.1022 14.4906C39.9767 14.3337 39.8826 14.1454 39.8826 13.9257C39.8826 13.4551 40.2591 13.0785 40.7298 13.0785C41.2005 13.0785 41.5771 13.4551 41.5771 13.9257C41.5457 14.1768 41.483 14.3651 41.3261 14.522Z" fill="white"/>
</svg>
