<svg width="308" height="441" viewBox="0 0 308 441" fill="none" xmlns="http://www.w3.org/2000/svg">
<path d="M154 440.736C239.052 440.736 308 395.964 308 340.736C308 285.507 239.052 240.736 154 240.736C68.9481 240.736 0 285.507 0 340.736C0 395.964 68.9481 440.736 154 440.736Z" fill="#EFF6FF"/>
<path d="M268.376 361.3L271.866 359.3C272.447 358.923 272.93 358.414 273.278 357.814C273.625 357.215 273.827 356.542 273.866 355.85V97.2804C273.828 96.5885 273.627 95.9153 273.279 95.3158C272.931 94.7163 272.447 94.2073 271.866 93.8304L111.466 1.22039C110.847 0.903558 110.161 0.738342 109.466 0.738342C108.77 0.738342 108.085 0.903558 107.466 1.22039L103.976 3.22039C103.395 3.59792 102.911 4.10701 102.563 4.70641C102.216 5.30581 102.015 5.97865 101.976 6.67039V265.24C102.013 265.932 102.214 266.606 102.561 267.206C102.909 267.805 103.394 268.314 103.976 268.69L264.396 361.3C265.012 361.615 265.694 361.78 266.386 361.78C267.078 361.78 267.76 361.615 268.376 361.3Z" fill="#6ED0FF"/>
<path opacity="0.4" d="M102.046 6.36043C102.176 5.36043 103.046 4.95043 104.046 5.53043L264.396 98.1404C264.981 98.5098 265.465 99.0183 265.806 99.6204L273.286 95.3104C272.945 94.7083 272.461 94.1998 271.876 93.8304L111.466 1.22043C110.847 0.902016 110.161 0.735901 109.466 0.735901C108.77 0.735901 108.084 0.902016 107.466 1.22043L103.966 3.22043C103.439 3.57562 102.995 4.03984 102.664 4.5816C102.333 5.12336 102.122 5.73001 102.046 6.36043Z" fill="white"/>
<path opacity="0.15" d="M264.746 361.46C264.785 361.468 264.826 361.468 264.866 361.46L265.066 361.53H265.146C265.266 361.53 265.386 361.59 265.516 361.62C266.308 361.77 267.127 361.705 267.886 361.43C268.037 361.374 268.184 361.307 268.326 361.23L271.826 359.23C272.405 358.851 272.888 358.342 273.235 357.743C273.582 357.144 273.784 356.472 273.826 355.78V97.2805C273.803 96.5757 273.603 95.888 273.246 95.2805L265.766 99.5905C266.136 100.193 266.339 100.883 266.356 101.59V360.16C266.377 360.536 266.268 360.907 266.046 361.21C265.923 361.366 265.756 361.481 265.567 361.542C265.379 361.602 265.176 361.605 264.986 361.55C264.903 361.528 264.823 361.498 264.746 361.46Z" fill="black"/>
<path d="M152.106 48.8304L152.396 48.6504L155.706 46.7504C156.909 46.0793 158.218 45.6161 159.576 45.3804C160.146 45.2504 160.656 45.1004 161.106 44.9504C161.605 44.787 162.093 44.5898 162.566 44.3604L162.326 44.0504L166.046 41.8804C166.36 41.7053 166.696 41.574 167.046 41.4904C168.456 41.1404 170.566 41.9604 172.666 41.7204C173.43 41.6457 174.168 41.4036 174.829 41.0113C175.489 40.6189 176.055 40.086 176.486 39.4504C177.766 37.7304 178.536 34.7204 179.666 32.2204L178.666 30.7704C178.766 30.7078 178.869 30.6511 178.976 30.6004L182.406 28.6004C182.984 28.2596 183.644 28.08 184.316 28.0804C185.597 28.148 186.839 28.5515 187.916 29.2504C196.126 34.0004 196.406 45.2504 199.366 52.6704C202.326 60.0904 206.516 62.4004 208.796 65.5904C211.076 68.7804 211.236 71.1404 216.286 78.1004C221.336 85.0604 221.536 86.7604 221.536 88.1004V98.4704L217.796 100.63L150.576 61.8004L152.106 48.8304ZM213.746 88.8304C214.616 89.3204 215.336 88.6504 215.336 87.3004C215.344 86.6548 215.205 86.0158 214.93 85.4318C214.654 84.8479 214.249 84.3344 213.746 83.9304C212.876 83.4304 212.166 84.1204 212.166 85.4704C212.158 86.1105 212.297 86.7438 212.571 87.3225C212.844 87.9012 213.246 88.41 213.746 88.8104V88.8304ZM184.216 59.7204C184.639 60.0295 185.129 60.2357 185.646 60.3228C186.164 60.4098 186.694 60.3754 187.195 60.2221C187.697 60.0688 188.156 59.8009 188.536 59.4396C188.916 59.0783 189.207 58.6335 189.386 58.1404C191.996 58.6404 193.936 56.1404 193.936 51.8004C193.936 46.7004 191.246 41.0304 187.936 39.1104C187.511 38.8015 187.021 38.5957 186.503 38.5093C185.985 38.4229 185.455 38.4582 184.953 38.6125C184.451 38.7668 183.992 39.0358 183.613 39.3982C183.233 39.7606 182.943 40.2064 182.766 40.7004C180.156 40.1804 178.226 42.7004 178.226 47.0304C178.226 52.1104 180.896 57.7804 184.216 59.7004V59.7204ZM161.886 58.8804C162.766 59.3904 163.476 58.7104 163.476 57.3604C163.492 56.7136 163.356 56.072 163.08 55.4869C162.804 54.9018 162.395 54.3893 161.886 53.9904C161.006 53.4804 160.296 54.1604 160.296 55.5104C160.284 56.1537 160.421 56.7911 160.697 57.3724C160.973 57.9536 161.38 58.463 161.886 58.8604V58.8804Z" fill="#455A64"/>
<path opacity="0.5" d="M214.046 90.6604L221.276 86.4904C221.441 87.011 221.522 87.5544 221.516 88.1004V98.4704L217.776 100.63L214.046 98.4704V90.6604Z" fill="#37474F"/>
<path opacity="0.5" d="M206.616 77.7204L202.876 69.0904L208.816 65.6104C210.556 68.0204 211.066 69.9704 213.406 73.8004L206.616 77.7204Z" fill="#37474F"/>
<path opacity="0.5" d="M191.666 60.4704L191.186 57.9504C192.836 57.2604 193.936 55.0304 193.936 51.7804C193.936 47.4504 191.996 42.7204 189.386 40.2104L194.566 37.2104C196.766 42.2104 197.566 48.2104 199.386 52.6804C199.766 53.6804 200.176 54.5104 200.586 55.3104L191.666 60.4704Z" fill="#37474F"/>
<path d="M152.105 48.8304L152.395 48.6504C153.496 48.1395 154.655 47.7635 155.845 47.5304C157.8 47.1869 159.621 46.3076 161.105 44.9904C161.481 44.6507 161.89 44.3492 162.325 44.0904C162.636 43.906 162.973 43.771 163.325 43.6904C165.585 43.1404 169.705 45.6104 172.665 41.7704C172.701 41.7348 172.731 41.6944 172.755 41.6504C174.825 38.8704 175.585 32.6504 178.685 30.8204C178.785 30.7578 178.889 30.7011 178.995 30.6504C180.275 30.0504 181.935 30.1604 184.215 31.4604C192.425 36.2104 192.705 47.4604 195.665 54.8804C198.625 62.3004 202.805 64.6104 205.085 67.8004C207.365 70.9904 207.515 73.3504 212.575 80.3104C217.635 87.2704 217.815 88.9804 217.815 90.3104V100.69L150.595 61.8604V51.4404C150.545 50.9024 150.663 50.3619 150.933 49.8941C151.204 49.4264 151.614 49.0545 152.105 48.8304ZM210.045 90.9904C210.925 91.5004 211.635 90.8204 211.635 89.4604C211.648 88.8156 211.51 88.1768 211.234 87.5939C210.959 87.011 210.552 86.4998 210.045 86.1004C209.165 85.5904 208.465 86.2804 208.465 87.6304C208.452 88.2743 208.588 88.9126 208.862 89.4955C209.136 90.0783 209.541 90.5899 210.045 90.9904ZM184.245 59.7304C184.669 60.0395 185.159 60.2457 185.676 60.3328C186.193 60.4198 186.724 60.3854 187.225 60.2321C187.727 60.0788 188.186 59.8109 188.566 59.4496C188.946 59.0883 189.237 58.6435 189.415 58.1504C190.002 56.8338 190.283 55.4011 190.235 53.9604C190.235 48.8704 187.555 43.1904 184.235 41.2804C183.787 41.0117 183.297 40.8191 182.785 40.7104C180.175 40.1904 178.245 42.7104 178.245 47.0404C178.225 52.1104 180.895 57.7804 184.215 59.7004L184.245 59.7304ZM158.155 60.9904C159.035 61.5004 159.745 60.8204 159.745 59.4804C159.76 58.8353 159.624 58.1957 159.348 57.6124C159.072 57.0291 158.663 56.5183 158.155 56.1204C157.285 55.6104 156.575 56.2904 156.575 57.6404C156.563 58.2828 156.699 58.9193 156.973 59.5004C157.247 60.0815 157.652 60.5915 158.155 60.9904Z" fill="#37474F"/>
<path d="M178.225 46.9905C178.225 52.0905 180.895 57.7605 184.225 59.6805C184.649 59.9895 185.139 60.1958 185.656 60.2829C186.173 60.3699 186.704 60.3355 187.205 60.1822C187.707 60.0289 188.166 59.761 188.546 59.3997C188.926 59.0384 189.217 58.5936 189.396 58.1005C188.885 57.9874 188.396 57.7951 187.945 57.5305C184.635 55.6105 181.945 49.9405 181.945 44.8405C181.902 43.4033 182.182 41.9747 182.766 40.6605C180.156 40.1605 178.225 42.6705 178.225 46.9905Z" fill="#263238"/>
<path d="M210.046 90.9904C210.926 91.4904 211.636 90.8104 211.636 89.4704C211.648 88.8242 211.511 88.1839 211.235 87.5994C210.959 87.0149 210.552 86.5019 210.046 86.1004C209.176 85.5904 208.466 86.2904 208.466 87.6304C208.455 88.274 208.592 88.9115 208.866 89.494C209.139 90.0765 209.543 90.5884 210.046 90.9904Z" fill="#263238"/>
<path d="M158.156 60.9904C159.036 61.4904 159.746 60.8204 159.746 59.4704C159.758 58.8242 159.621 58.1839 159.345 57.5994C159.069 57.0149 158.662 56.5019 158.156 56.1004C157.286 55.6004 156.576 56.2904 156.576 57.6404C156.566 58.2824 156.703 58.9182 156.977 59.499C157.251 60.0797 157.654 60.59 158.156 60.9904Z" fill="#263238"/>
<path d="M253.986 122.33L114.406 41.7405C114.035 41.5533 113.626 41.4557 113.211 41.4557C112.795 41.4557 112.386 41.5533 112.016 41.7405L110.666 42.5205C110.318 42.7478 110.03 43.0536 109.823 43.4133C109.616 43.7729 109.497 44.1762 109.476 44.5905V257.53C109.496 257.945 109.614 258.349 109.821 258.709C110.028 259.069 110.317 259.374 110.666 259.6L250.246 340.19C250.616 340.378 251.025 340.475 251.441 340.475C251.856 340.475 252.265 340.378 252.636 340.19L253.986 339.41C254.335 339.185 254.626 338.88 254.835 338.52C255.043 338.16 255.163 337.756 255.186 337.34V124.4C255.162 123.986 255.041 123.582 254.832 123.222C254.624 122.863 254.334 122.557 253.986 122.33Z" fill="white"/>
<path d="M109.516 44.2305C109.666 43.7405 110.126 43.5805 110.666 43.9005L250.246 124.49C250.605 124.704 250.9 125.012 251.096 125.38L254.836 123.23C254.634 122.863 254.341 122.553 253.986 122.33L114.406 41.7405C114.035 41.5533 113.626 41.4557 113.211 41.4557C112.796 41.4557 112.386 41.5533 112.016 41.7405L110.666 42.5205C110.37 42.7143 110.115 42.9654 109.918 43.2591C109.72 43.5528 109.584 43.8831 109.516 44.2305Z" fill="#FAFAFA"/>
<path d="M250.536 340.32C250.679 340.372 250.826 340.412 250.976 340.44H251.206C251.448 340.465 251.693 340.465 251.936 340.44C252.085 340.411 252.232 340.371 252.376 340.32L252.646 340.19L253.986 339.42C254.332 339.193 254.62 338.887 254.827 338.527C255.034 338.167 255.153 337.764 255.176 337.35V124.4C255.169 123.987 255.051 123.583 254.836 123.23L251.096 125.38C251.309 125.739 251.429 126.144 251.446 126.56V339.5C251.446 340.15 251.046 340.47 250.536 340.32Z" fill="#E0E0E0"/>
<path d="M140.916 71.9004L144.636 69.7504C145.22 69.4642 145.865 69.3246 146.514 69.3438C147.164 69.363 147.8 69.5403 148.366 69.8604C152.706 71.7704 154.586 72.6404 156.826 73.5804L158.446 74.2304C159.326 74.5804 161.076 74.2804 160.536 71.2304L154.766 55.7004H154.856L158.506 53.5904C158.691 53.4741 158.899 53.399 159.116 53.3704C159.226 53.3704 159.366 53.3704 159.516 53.3704C161.876 53.3104 162.516 38.0804 162.566 37.6104L162.736 37.5204L166.346 35.4404C166.973 35.0846 167.685 34.9049 168.406 34.9204C169.612 34.9761 170.788 35.3189 171.836 35.9204C177.506 38.9204 183.236 47.7304 184.636 55.6604C185.516 60.6604 190.546 68.3604 193.456 71.2004C196.366 74.0404 196.566 76.4004 196.566 76.4004L198.826 89.2204L199.556 93.3304C200.086 96.3904 203.226 99.3304 203.226 99.3304L214.936 107.99C222.266 114.07 224.336 120.22 225.736 127.82V127.88C225.736 128.15 225.736 128.33 225.606 128.4C225.586 128.413 225.564 128.42 225.541 128.42C225.518 128.42 225.495 128.413 225.476 128.4L223.976 127.55L143.416 81.0904C143.226 80.9611 143.064 80.7955 142.939 80.6033C142.814 80.4111 142.728 80.196 142.686 79.9704C142.226 77.2004 140.886 71.9704 140.886 71.9704L140.916 71.9004ZM164.206 48.3704C165.076 53.2404 168.586 58.6804 172.076 60.5104C174.486 61.7704 176.246 60.9904 176.836 58.7704C177.269 58.94 177.738 58.9977 178.199 58.9383C178.661 58.8789 179.1 58.7042 179.476 58.4304C180.596 57.5504 170.336 39.9304 169.476 40.3204C169.076 40.5311 168.729 40.8294 168.46 41.193C168.192 41.5567 168.009 41.9762 167.926 42.4204C165.046 41.5504 163.436 43.9904 164.206 48.3704Z" fill="#455A64"/>
<path opacity="0.5" d="M214.046 116.55L219.916 113.16C223.316 117.64 224.686 122.35 225.696 127.82V127.88C225.696 128.15 225.696 128.33 225.566 128.4C225.546 128.413 225.524 128.42 225.501 128.42C225.478 128.42 225.455 128.413 225.436 128.4L220.806 124.74L214.046 116.55Z" fill="#37474F"/>
<path opacity="0.5" d="M199.946 94.5205L191.666 99.2905L187.936 77.7205L195.396 73.4105C195.99 74.2634 196.389 75.2363 196.566 76.2605L198.826 89.0805L199.556 93.1905C199.638 93.6464 199.769 94.0923 199.946 94.5205Z" fill="#37474F"/>
<path opacity="0.5" d="M180.716 45.2204C182.602 48.404 183.928 51.888 184.636 55.5204C185.23 58.095 186.215 60.5635 187.556 62.8404L180.466 66.9404L176.936 58.7904C177.356 58.9422 177.808 58.9888 178.25 58.926C178.693 58.8633 179.114 58.6931 179.476 58.4304C180.056 57.9704 177.616 53.1004 175.006 48.5204L180.716 45.2204Z" fill="#37474F"/>
<path d="M140.866 71.9304H140.916C141.501 71.654 142.143 71.5207 142.79 71.5415C143.437 71.5624 144.069 71.7368 144.636 72.0504C149.956 74.4004 151.566 75.1704 154.726 76.4204C155.566 76.7604 157.276 76.4904 156.826 73.6104C156.83 73.5438 156.83 73.477 156.826 73.4104L156.096 69.3104L154.096 58.1404C154.096 58.1404 153.636 56.3804 154.796 55.7204H154.886C155.177 55.5858 155.495 55.5175 155.816 55.5204C156.495 55.4387 157.147 55.2047 157.724 54.8359C158.3 54.4672 158.786 53.9731 159.146 53.3904C159.769 52.4621 160.2 51.4187 160.415 50.3215C160.63 49.2242 160.623 48.0951 160.396 47.0004C159.546 42.2104 160.476 38.8504 162.596 37.6004L162.766 37.5004C164.136 36.7704 165.976 36.8904 168.126 38.0204C173.806 41.0204 179.536 49.8304 180.926 57.7604C181.816 62.7604 186.846 70.4704 189.756 73.3004C192.666 76.1304 192.856 78.5004 192.856 78.5004L195.046 91.2504L195.766 95.3504C196.306 98.4104 199.446 101.35 199.446 101.35L211.146 110.13C215.815 113.847 219.186 118.948 220.776 124.7C220.776 124.7 225.166 128.11 225.436 128.38L223.936 127.53L143.146 81.0904C143.146 81.0904 142.226 80.5804 142.016 80.4504C141.806 80.3204 138.556 77.2504 138.556 77.2504C138.736 74.6304 139.516 72.7404 140.866 71.9304ZM164.206 48.3704C165.076 53.2404 168.586 58.6804 172.076 60.5104C174.486 61.7704 176.246 60.9904 176.836 58.7704C177.099 57.5242 177.099 56.2367 176.836 54.9904C175.966 50.1104 172.446 44.6804 168.956 42.8604C168.636 42.685 168.301 42.5378 167.956 42.4204C165.046 41.5504 163.436 43.9904 164.206 48.3704Z" fill="#37474F"/>
<path d="M164.206 48.3704C165.076 53.2404 168.586 58.6804 172.076 60.5104C174.486 61.7704 176.246 60.9904 176.836 58.7704C176.492 58.6569 176.158 58.5164 175.836 58.3504C172.336 56.5204 168.836 51.0804 167.966 46.2004C167.703 44.9541 167.703 43.6667 167.966 42.4204C165.046 41.5504 163.436 43.9904 164.206 48.3704Z" fill="#263238"/>
<path d="M167.576 42.6304C167.249 42.6107 166.922 42.6758 166.628 42.8195C166.333 42.9632 166.081 43.1805 165.896 43.4504C164.446 45.5104 165.836 50.7504 166.436 52.4504C167.266 54.7804 172.686 60.2604 174.176 60.2604C174.669 60.179 175.141 59.9978 175.562 59.7278C175.984 59.4579 176.345 59.1049 176.626 58.6904C176.872 57.4895 176.872 56.2513 176.626 55.0504C175.776 50.2304 172.296 44.8704 168.866 43.0504C168.56 42.8892 168.243 42.7522 167.916 42.6404H167.586L167.576 42.6304ZM167.586 42.4104H167.956C168.301 42.5277 168.636 42.675 168.956 42.8504C172.446 44.6704 175.956 50.1004 176.836 54.9804C177.099 56.2266 177.099 57.5142 176.836 58.7604C176.535 59.2107 176.144 59.5941 175.688 59.8866C175.232 60.1791 174.721 60.3744 174.186 60.4604C172.566 60.4604 167.116 54.9304 166.246 52.4604C165.376 49.9904 163.486 42.3504 167.606 42.3504L167.586 42.4104Z" fill="#263238"/>
<path d="M225.476 128.41L143.196 81.1105L142.056 80.4804C141.856 80.3604 138.606 77.2704 138.606 77.2704L220.826 124.73C220.826 124.73 225.806 128.59 225.476 128.41Z" fill="#263238"/>
<path d="M236.441 260.581V262.451C236.441 263.451 235.721 263.881 234.841 263.371L125.981 200.501C125.516 200.202 125.129 199.796 124.851 199.318C124.573 198.84 124.412 198.303 124.381 197.751V195.871C124.381 194.871 125.101 194.441 125.981 194.951L234.841 257.821C235.306 258.124 235.693 258.531 235.97 259.01C236.248 259.49 236.41 260.028 236.441 260.581Z" fill="#E0E0E0"/>
<path d="M236.441 269.581V271.451C236.441 272.451 235.721 272.881 234.841 272.371L125.981 209.501C125.516 209.202 125.129 208.796 124.851 208.318C124.573 207.84 124.412 207.303 124.381 206.751V204.871C124.381 203.871 125.101 203.441 125.981 203.951L234.841 266.821C235.306 267.124 235.693 267.531 235.97 268.01C236.248 268.49 236.41 269.028 236.441 269.581Z" fill="#E0E0E0"/>
<path d="M240.856 311.973L171.381 271.875V273.213L240.856 313.312V311.973Z" fill="#E0E0E0"/>
<path d="M224.692 291.149C221.804 289.216 218.582 285.956 219.102 282.101C219.412 279.758 221.321 278.853 223.478 279.684C227.704 281.307 230.369 287.666 231.844 291.509C233.084 294.868 234.782 301.202 229.737 302.28C223.825 303.52 219.251 294.843 217.912 290.331C217.726 289.699 218.755 289.352 219.053 289.922C219.573 290.951 223.056 297.743 219.226 296.888C217.863 296.591 217.082 294.471 216.586 293.393C215.718 291.459 215.284 288.769 213.921 287.108L214.925 286.65C214.863 288.435 214.925 289.649 213.685 291.038C213.591 291.167 213.45 291.253 213.292 291.279C213.134 291.304 212.973 291.267 212.843 291.174C210.884 289.352 210.748 286.389 208.591 284.741L209.471 284.319C209.471 284.89 209.731 286.513 209.769 287.27C209.769 287.629 209.285 287.864 209 287.753C208.72 287.695 208.459 287.567 208.242 287.38C208.026 287.194 207.86 286.955 207.761 286.687L208.703 286.34C207.884 290.715 204.154 286.34 202.877 284.679C199.158 279.721 196.506 274.403 196.407 268.057C196.407 267.549 197.361 267.289 197.373 267.896C197.46 272.78 199.592 277.254 200.968 281.865C202.443 286.823 203.67 291.893 204.687 297L203.806 297.322C203.527 293.708 202.604 290.174 201.08 286.885C200.118 283.956 198.513 281.279 196.382 279.052L197.2 278.742C196.984 280.016 197.049 281.322 197.392 282.569C197.734 283.815 198.346 284.971 199.183 285.956C199.443 286.29 198.861 286.922 198.601 286.588C197.237 284.877 194.994 284.332 193.531 282.671C192.156 280.805 190.934 278.832 189.874 276.771L190.544 276.436C190.63 280.601 186.701 274.106 186.168 273.412L186.813 273.164C186.552 274.019 186.205 274.589 185.239 274.602C183.317 274.602 182.598 271.8 181.148 271.478C181.148 271.478 180.516 272.011 180.293 272.036C179.493 272.153 178.678 272 177.975 271.602C176.354 270.554 175.044 269.09 174.182 267.363C173.959 266.966 174.715 266.47 174.963 266.904C175.917 268.516 178.892 272.792 181.049 270.697C181.185 270.573 181.47 270.449 181.619 270.623C182.202 271.342 185.536 275.159 186.156 273.102C186.23 272.854 186.59 272.581 186.788 272.854C187.296 273.523 187.705 274.267 188.176 274.974C188.436 275.358 189.887 277.8 189.837 276.56C189.837 276.263 190.296 275.916 190.506 276.225C191.858 278.295 192.849 281.01 194.733 282.696C196.134 283.935 197.968 284.406 199.183 285.906L198.601 286.538C197.664 285.483 196.975 284.232 196.582 282.877C196.19 281.522 196.105 280.097 196.332 278.704C196.35 278.619 196.39 278.54 196.446 278.474C196.503 278.408 196.575 278.358 196.657 278.327C196.738 278.296 196.826 278.286 196.912 278.298C196.998 278.31 197.08 278.343 197.15 278.395C199.468 280.527 200.77 283.526 201.922 286.402C203.469 289.759 204.409 293.364 204.699 297.049C204.699 297.434 203.918 297.867 203.819 297.372C202.771 291.861 201.41 286.415 199.741 281.06C198.377 276.746 196.531 272.594 196.444 268.007L197.411 267.846C197.502 272.595 198.999 277.21 201.712 281.109C202.406 282.188 203.137 283.266 203.93 284.282C204.278 284.741 207.352 288.757 207.748 286.427C207.81 286.092 208.467 285.621 208.69 286.08L209.583 286.873L208.814 287.344C208.752 286.34 208.554 285.398 208.504 284.381C208.504 283.997 209.099 283.749 209.384 283.972C211.578 285.646 211.739 288.608 213.71 290.43L212.867 290.567C213.537 289.445 213.864 288.153 213.809 286.848C213.809 286.414 214.479 285.993 214.813 286.389C216.326 288.199 216.797 291.087 217.788 293.194C218.334 294.347 220.267 297.421 219.647 294.149C219.237 292.793 218.649 291.496 217.9 290.294L219.04 289.885C220.205 293.827 223.316 299.801 227.568 301.041C232.997 302.664 232.055 295.934 231.063 292.934C229.884 289.439 228.133 286.164 225.882 283.241C225.47 282.659 225.001 282.119 224.482 281.63C223.378 280.638 223.056 280.39 221.519 281.27C219.982 282.15 219.908 282.634 220.28 284.295C220.507 285.119 220.849 285.908 221.296 286.637C222.278 288.135 223.511 289.452 224.94 290.529C225.139 290.691 224.853 291.224 224.63 291.062L224.692 291.149Z" fill="#455A64"/>
<path d="M101.805 280.932C103.587 280.143 105.529 279.785 107.475 279.888C109.421 279.99 111.315 280.551 113.004 281.524C113.991 282.087 114.729 283.001 115.071 284.085C115.156 283.839 115.207 283.583 115.222 283.324L115.148 284.876L115.136 284.961L115.11 285.198C115.093 285.308 115.065 285.416 115.028 285.521L114.962 285.723C114.918 285.745 114.914 285.848 114.879 285.911C114.731 286.195 114.55 286.461 114.339 286.702L114.144 286.914C114.104 286.939 114.063 286.96 114.019 286.977C113.96 287.035 113.898 287.089 113.832 287.14C113.47 287.441 113.075 287.699 112.653 287.909C110.874 288.697 108.934 289.054 106.99 288.952C105.047 288.85 103.155 288.291 101.468 287.321C100.702 286.866 100.072 286.214 99.6427 285.434L99.4838 285.122L99.3921 284.81L99.3504 284.618L99.2959 284.511C99.2786 284.43 99.2705 284.348 99.2717 284.265L99.2745 284.028L99.3405 282.681C99.3404 282.894 99.3691 283.106 99.4257 283.311C99.8778 282.238 100.732 281.384 101.805 280.932ZM115.137 284.5L115.182 284.59L115.137 284.5Z" fill="#6ED0FF"/>
<path d="M106.466 147.919L122.299 148.732L122.212 150.28L115.222 283.324C115.207 283.583 115.156 283.839 115.071 284.085C114.613 285.131 113.771 285.962 112.718 286.406C110.936 287.192 108.993 287.548 107.048 287.445C105.103 287.343 103.209 286.784 101.519 285.814C100.759 285.353 100.132 284.701 99.7031 283.922C99.5913 283.71 99.507 283.486 99.4521 283.253C99.3956 283.048 99.367 282.836 99.367 282.623L99.3661 282.511L106.466 147.919Z" fill="#EBEBEB"/>
<path d="M108.615 151.28C105.613 149.33 105.766 146.435 108.947 144.815C110.729 144.025 112.671 143.668 114.617 143.77C116.563 143.873 118.457 144.434 120.146 145.407C123.143 147.348 122.99 150.243 119.8 151.868C118.021 152.656 116.081 153.013 114.137 152.911C112.194 152.809 110.302 152.25 108.615 151.28Z" fill="#6ED0FF"/>
<path d="M110.569 136.762C110.533 136.824 110.506 136.89 110.49 136.959L106.722 146.902L106.696 146.983L106.63 147.162L106.59 147.261C106.153 148.606 106.844 150.095 108.623 151.253C110.31 152.223 112.202 152.782 114.146 152.884C116.089 152.986 118.029 152.629 119.808 151.841C121.662 150.897 122.479 149.527 122.268 148.164L122.231 148.093C122.206 147.955 122.17 147.82 122.126 147.687L122.085 147.607L119.397 137.349C119.204 136.739 118.786 136.226 118.228 135.913C117.264 135.357 116.183 135.035 115.072 134.975C113.962 134.915 112.852 135.118 111.834 135.567C111.288 135.808 110.841 136.23 110.569 136.762Z" fill="#E0E0E0"/>
<path d="M106.683 241.594L106.671 241.813C106.705 242.039 106.791 242.254 106.923 242.44C107.054 242.626 107.229 242.779 107.431 242.885C108.03 243.232 108.704 243.433 109.396 243.47C110.088 243.508 110.779 243.382 111.412 243.102C111.619 243.016 111.803 242.886 111.952 242.719C112.1 242.552 112.208 242.353 112.268 242.138L112.28 241.852L117.44 143.643L112.012 140.123L106.683 241.594Z" fill="#455A64"/>
<path d="M116.944 152.761L117.427 143.639L111.998 140.119L111.343 152.472C113.17 152.957 115.078 153.056 116.944 152.761Z" fill="#37474F"/>
<path d="M112.613 132.556L109.16 141.576L109.068 141.813C108.753 142.782 109.226 143.842 110.52 144.665C111.712 145.361 113.052 145.764 114.43 145.843C115.808 145.921 117.185 145.672 118.448 145.116C119.749 144.453 120.328 143.496 120.187 142.536L120.159 142.482L120.095 142.223L117.636 132.769C117.517 132.439 117.288 132.159 116.987 131.978C116.442 131.667 115.832 131.488 115.205 131.456C114.579 131.425 113.954 131.54 113.381 131.795C113.034 131.937 112.758 132.211 112.613 132.556Z" fill="#6ED0FF"/>
<path opacity="0.1" d="M112.613 132.556L109.16 141.576L109.068 141.813C108.753 142.782 109.226 143.842 110.52 144.665C111.712 145.361 113.052 145.764 114.43 145.843C115.808 145.921 117.185 145.672 118.448 145.116C119.749 144.453 120.328 143.496 120.187 142.536L120.159 142.482L120.095 142.223L117.636 132.769C117.517 132.439 117.288 132.159 116.987 131.978C116.442 131.667 115.832 131.488 115.205 131.456C114.579 131.425 113.954 131.54 113.381 131.795C113.034 131.937 112.758 132.211 112.613 132.556Z" fill="black"/>
<path d="M113.367 131.768C113.94 131.514 114.566 131.398 115.192 131.43C115.818 131.462 116.428 131.64 116.973 131.951C117.276 132.13 117.504 132.413 117.614 132.747L118.857 137.501C119.059 138.251 118.653 139.018 117.647 139.531C116.73 139.939 115.731 140.124 114.73 140.073C113.728 140.021 112.753 139.734 111.884 139.234C111.502 139.061 111.19 138.763 110.999 138.389C110.809 138.015 110.751 137.587 110.836 137.176L110.901 136.996L112.594 132.521C112.666 132.35 112.771 132.195 112.904 132.066C113.037 131.936 113.194 131.835 113.367 131.768Z" fill="#6ED0FF"/>
<path opacity="0.1" d="M113.271 133.871C112.309 133.238 112.356 132.317 113.345 131.813C113.918 131.559 114.544 131.443 115.17 131.475C115.796 131.506 116.406 131.685 116.951 131.996C117.913 132.629 117.857 133.555 116.832 134.077C116.263 134.32 115.645 134.429 115.027 134.393C114.409 134.357 113.808 134.178 113.271 133.871Z" fill="black"/>
<path d="M105.375 266.018C105.384 266.267 105.459 266.509 105.594 266.719C105.728 266.929 105.917 267.098 106.14 267.21C106.736 267.557 107.406 267.758 108.095 267.797C108.784 267.836 109.472 267.712 110.104 267.436C110.336 267.349 110.539 267.201 110.694 267.008C110.848 266.815 110.948 266.583 110.981 266.338L112.233 242.134C112.172 242.349 112.064 242.547 111.916 242.714C111.767 242.881 111.583 243.012 111.377 243.097C110.743 243.377 110.052 243.504 109.36 243.466C108.668 243.429 107.994 243.228 107.395 242.881C107.193 242.775 107.018 242.622 106.887 242.436C106.755 242.249 106.669 242.035 106.635 241.809L105.375 266.018Z" fill="#FAFAFA"/>
<path d="M106.253 264.92C106.886 264.643 107.575 264.518 108.265 264.557C108.956 264.595 109.627 264.795 110.226 265.141C110.466 265.231 110.672 265.395 110.813 265.61C110.955 265.825 111.024 266.079 111.011 266.336C110.998 266.592 110.903 266.838 110.741 267.038C110.579 267.237 110.357 267.38 110.109 267.445C109.477 267.721 108.788 267.845 108.1 267.806C107.411 267.767 106.741 267.566 106.144 267.219C105.905 267.129 105.701 266.965 105.56 266.752C105.42 266.538 105.351 266.286 105.363 266.03C105.375 265.775 105.467 265.53 105.627 265.33C105.787 265.131 106.006 264.987 106.253 264.92Z" fill="#F5F5F5"/>
<path d="M100.742 272.675L100.774 272.738L100.765 272.832L100.268 282.366L100.261 282.594C100.321 283.193 100.529 283.767 100.867 284.265C101.205 284.763 101.662 285.169 102.196 285.446C103.714 286.312 105.416 286.809 107.161 286.894C108.907 286.98 110.649 286.653 112.245 285.94C112.836 285.713 113.357 285.333 113.752 284.838C114.147 284.342 114.402 283.75 114.491 283.123L114.996 273.473L114.974 273.428C114.928 272.814 114.726 272.221 114.388 271.706C114.049 271.191 113.584 270.772 113.038 270.487C111.517 269.623 109.814 269.128 108.067 269.043C106.32 268.958 104.578 269.285 102.98 269.998C102.411 270.218 101.908 270.58 101.516 271.048C101.125 271.516 100.858 272.076 100.742 272.675Z" fill="#6ED0FF"/>
<path opacity="0.05" d="M100.742 272.675L100.774 272.738L100.765 272.832L100.268 282.366L100.261 282.594C100.321 283.193 100.529 283.767 100.867 284.265C101.205 284.763 101.662 285.169 102.196 285.446C103.714 286.312 105.416 286.809 107.161 286.894C108.907 286.98 110.649 286.653 112.245 285.94C112.836 285.713 113.357 285.333 113.752 284.838C114.147 284.342 114.402 283.75 114.491 283.123L114.996 273.473L114.974 273.428C114.928 272.814 114.726 272.221 114.388 271.706C114.049 271.191 113.584 270.772 113.038 270.487C111.517 269.623 109.814 269.128 108.067 269.043C106.32 268.958 104.578 269.285 102.98 269.998C102.411 270.218 101.908 270.58 101.516 271.048C101.125 271.516 100.858 272.076 100.742 272.675Z" fill="black"/>
<path opacity="0.1" d="M102.622 275.859C99.9255 274.113 100.085 271.54 102.946 270.083C104.543 269.371 106.286 269.044 108.033 269.129C109.78 269.214 111.482 269.708 113.003 270.572C115.704 272.327 115.562 274.936 112.702 276.392C111.098 277.103 109.349 277.424 107.598 277.332C105.847 277.239 104.142 276.734 102.622 275.859Z" fill="black"/>
<path d="M114.092 128.829L113.809 132.811C113.805 132.93 113.837 133.048 113.899 133.15C113.96 133.252 114.05 133.333 114.157 133.386C114.434 133.55 114.747 133.646 115.069 133.663C115.39 133.681 115.712 133.621 116.005 133.488C116.112 133.444 116.205 133.374 116.277 133.285C116.349 133.195 116.398 133.089 116.417 132.975L116.705 129.002C116.709 128.779 116.658 128.558 116.557 128.359C116.4 128.049 116.125 127.815 115.795 127.707C115.465 127.6 115.105 127.628 114.796 127.786C114.6 127.886 114.432 128.034 114.309 128.217C114.186 128.399 114.112 128.61 114.092 128.829Z" fill="#455A64"/>
<path d="M114.135 128.582L114.083 128.811C114.102 128.915 114.144 129.013 114.207 129.098C114.27 129.182 114.351 129.252 114.444 129.3C114.722 129.463 115.034 129.556 115.355 129.572C115.675 129.589 115.996 129.527 116.288 129.394C116.393 129.353 116.486 129.286 116.558 129.198C116.629 129.111 116.677 129.006 116.695 128.894L116.664 128.832L116.632 128.77C116.619 128.627 116.575 128.488 116.504 128.364C116.346 128.054 116.072 127.82 115.741 127.712C115.411 127.605 115.051 127.633 114.742 127.791C114.445 127.966 114.227 128.25 114.135 128.582Z" fill="#263238"/>
<path d="M171.081 175.936L170.081 186.236L168.481 185.336L168.881 181.136L166.381 179.736L165.981 183.936L164.381 183.036L165.381 172.736L166.981 173.636L166.581 177.636L169.081 179.036L169.481 175.036L171.081 175.936Z" fill="#002B5D"/>
<path d="M172.681 187.136C172.181 186.436 171.881 185.536 171.681 184.536C171.481 183.536 171.381 182.536 171.481 181.536C171.581 180.536 171.781 179.736 172.181 179.036C172.581 178.436 172.981 178.036 173.581 177.836C174.181 177.636 174.681 177.736 175.381 178.136C175.981 178.436 176.581 179.036 176.981 179.736C177.481 180.436 177.781 181.336 177.981 182.336C178.181 183.336 178.281 184.336 178.181 185.336C178.081 186.336 177.881 187.136 177.481 187.836C177.081 188.436 176.681 188.836 176.081 189.036C175.481 189.236 174.981 189.136 174.281 188.736C173.681 188.336 173.081 187.836 172.681 187.136ZM175.781 186.336C176.181 185.936 176.381 185.336 176.481 184.436C176.581 183.536 176.481 182.736 176.181 182.036C175.881 181.336 175.481 180.836 174.981 180.536C174.481 180.236 173.981 180.236 173.681 180.636C173.281 181.036 173.081 181.636 172.981 182.536C172.881 183.436 172.981 184.236 173.281 184.936C173.581 185.636 173.981 186.136 174.481 186.436C174.981 186.736 175.481 186.736 175.781 186.336Z" fill="#002B5D"/>
<path d="M185.681 184.236L182.381 193.236L180.381 192.136L178.981 180.436L180.681 181.436L181.581 190.136L183.981 183.336L185.681 184.236Z" fill="#002B5D"/>
<path d="M189.481 195.336L187.081 193.936L186.481 195.536L184.781 194.636L188.181 185.736L189.981 186.736L191.381 198.336L189.681 197.336L189.481 195.336ZM189.281 193.136L188.881 188.936L187.681 192.236L189.281 193.136Z" fill="#002B5D"/>
<path d="M143.681 189.936L142.681 185.236L142.381 185.036L141.981 188.936L140.381 188.036L141.381 177.736L144.081 179.236C144.581 179.536 144.981 179.936 145.381 180.436C145.681 180.936 145.981 181.436 146.081 182.036C146.181 182.636 146.281 183.236 146.181 183.836C146.081 184.536 145.881 185.036 145.681 185.436C145.381 185.836 144.981 186.036 144.481 185.936L145.581 190.836L143.681 189.936ZM142.481 183.236L143.481 183.836C143.781 184.036 143.981 184.036 144.181 183.836C144.381 183.736 144.481 183.436 144.481 183.036C144.481 182.636 144.481 182.336 144.381 182.036C144.281 181.636 144.081 181.436 143.781 181.236L142.781 180.736L142.481 183.236Z" fill="#002B5D"/>
<path d="M148.881 184.036L148.681 186.136L150.781 187.336L150.581 189.236L148.481 188.036L148.281 190.336L150.681 191.736L150.481 193.736L146.481 191.436L147.481 181.136L151.481 183.436L151.281 185.436L148.881 184.036Z" fill="#002B5D"/>
<path d="M156.681 191.636C156.481 192.036 156.181 192.236 155.781 192.336C155.381 192.436 154.881 192.336 154.381 192.036L153.381 191.436L152.981 195.136L151.381 194.236L152.381 183.936L154.981 185.436C155.481 185.736 155.881 186.136 156.281 186.636C156.581 187.136 156.881 187.636 156.981 188.236C157.081 188.836 157.181 189.436 157.081 190.136C157.081 190.736 156.981 191.236 156.681 191.636ZM155.181 190.036C155.381 189.936 155.481 189.636 155.481 189.236C155.481 188.836 155.481 188.436 155.381 188.136C155.281 187.836 155.081 187.636 154.781 187.436L153.881 186.936L153.581 189.536L154.481 190.036C154.781 190.136 155.081 190.236 155.181 190.036Z" fill="#002B5D"/>
<path d="M160.581 199.436L159.581 194.736L159.181 194.536L158.781 198.436L157.181 197.536L158.181 187.236L160.881 188.736C161.381 189.036 161.781 189.436 162.181 189.936C162.481 190.436 162.781 190.936 162.881 191.536C162.981 192.136 163.081 192.736 162.981 193.336C162.881 194.036 162.681 194.536 162.481 194.936C162.181 195.336 161.781 195.536 161.281 195.436L162.381 200.336L160.581 199.436ZM159.481 192.836L160.481 193.436C160.781 193.636 160.981 193.636 161.181 193.436C161.381 193.336 161.481 193.036 161.481 192.636C161.481 192.236 161.481 191.936 161.381 191.636C161.281 191.336 161.081 191.136 160.781 190.936L159.781 190.336L159.481 192.836Z" fill="#002B5D"/>
<path d="M165.781 193.636L165.581 195.736L167.681 196.936L167.481 198.836L165.381 197.636L165.181 199.936L167.581 201.336L167.381 203.336L163.381 201.036L164.381 190.736L168.381 193.036L168.181 195.036L165.781 193.636Z" fill="#002B5D"/>
<path d="M169.481 204.236C169.081 203.736 168.881 203.236 168.681 202.636C168.481 202.036 168.481 201.336 168.481 200.736L170.181 201.736C170.181 202.136 170.181 202.436 170.381 202.736C170.481 203.036 170.681 203.236 170.881 203.336C171.081 203.436 171.281 203.536 171.481 203.436C171.681 203.336 171.681 203.136 171.781 202.836C171.781 202.536 171.781 202.336 171.681 202.136C171.581 201.936 171.481 201.736 171.281 201.536C171.181 201.336 170.881 201.136 170.681 200.836C170.281 200.436 169.981 200.036 169.681 199.636C169.481 199.236 169.281 198.836 169.081 198.336C168.881 197.836 168.881 197.236 168.981 196.636C169.081 195.636 169.381 195.036 169.881 194.736C170.381 194.436 170.981 194.536 171.681 194.936C172.381 195.336 172.981 195.936 173.381 196.736C173.781 197.536 173.881 198.436 173.881 199.436L172.181 198.436C172.181 198.136 172.181 197.836 171.981 197.536C171.881 197.236 171.681 197.036 171.481 196.936C171.281 196.836 171.081 196.836 170.981 196.936C170.881 197.036 170.781 197.236 170.781 197.536C170.781 197.836 170.781 198.136 170.981 198.436C171.181 198.736 171.481 199.136 171.881 199.536C172.281 200.036 172.581 200.436 172.881 200.736C173.081 201.136 173.281 201.536 173.481 202.036C173.681 202.536 173.681 203.136 173.581 203.736C173.481 204.336 173.381 204.836 173.181 205.136C172.981 205.536 172.681 205.736 172.281 205.836C171.881 205.936 171.481 205.836 170.981 205.536C170.281 205.036 169.881 204.636 169.481 204.236Z" fill="#002B5D"/>
<path d="M176.481 199.736L176.281 201.836L178.381 203.036L178.181 204.936L176.081 203.736L175.881 206.036L178.281 207.436L178.081 209.436L174.081 207.136L175.081 196.836L179.081 199.136L178.881 201.136L176.481 199.736Z" fill="#002B5D"/>
<path d="M184.981 213.236L183.381 212.336L181.381 204.436L180.781 210.736L179.181 209.836L180.181 199.536L181.781 200.436L183.781 208.336L184.381 201.936L185.981 202.836L184.981 213.236Z" fill="#002B5D"/>
<path d="M191.881 206.336L191.681 208.336L189.981 207.336L189.181 215.636L187.481 214.736L188.281 206.436L186.581 205.436L186.781 203.436L191.881 206.336Z" fill="#002B5D"/>
<path d="M195.881 217.536L193.481 216.136L192.881 217.736L191.181 216.836L194.581 207.936L196.381 208.936L197.681 220.536L195.981 219.536L195.881 217.536ZM195.681 215.336L195.281 211.136L194.081 214.436L195.681 215.336Z" fill="#002B5D"/>
<path d="M204.181 213.336L203.981 215.336L202.281 214.336L201.481 222.636L199.881 221.736L200.681 213.436L198.981 212.436L199.181 210.436L204.181 213.336Z" fill="#002B5D"/>
<path d="M206.581 214.636L205.581 224.936L203.981 224.036L204.981 213.736L206.581 214.636Z" fill="#002B5D"/>
<path d="M213.881 218.736L210.581 227.736L208.581 226.636L207.281 215.036L208.981 216.036L209.881 224.736L212.281 217.936L213.881 218.736Z" fill="#002B5D"/>
<path d="M215.981 222.036L215.781 224.136L217.881 225.336L217.681 227.236L215.581 226.036L215.381 228.336L217.781 229.736L217.581 231.736L213.581 229.436L214.581 219.136L218.581 221.436L218.381 223.436L215.981 222.036Z" fill="#002B5D"/>
<path d="M175.531 153.241C175.472 153.241 175.414 153.182 175.414 153.182C175.414 153.241 175.472 153.241 175.531 153.241Z" fill="#004ADE"/>
<path d="M171.223 144.522C172.049 144.34 172.486 143.136 172.198 141.834C171.911 140.531 171.009 139.623 170.183 139.805C169.357 139.987 168.92 141.191 169.207 142.494C169.495 143.796 170.397 144.704 171.223 144.522Z" fill="#2DBDFF"/>
<path d="M176.464 159.546C177.29 159.364 177.726 158.161 177.439 156.858C177.152 155.556 176.249 154.647 175.423 154.83C174.597 155.012 174.161 156.215 174.448 157.518C174.735 158.82 175.638 159.728 176.464 159.546Z" fill="#2DBDFF"/>
<path d="M166.446 143.125C166.986 143.006 167.27 142.214 167.081 141.357C166.892 140.499 166.301 139.9 165.761 140.019C165.221 140.138 164.936 140.93 165.125 141.788C165.315 142.646 165.906 143.245 166.446 143.125Z" fill="#2DBDFF"/>
<path d="M169.102 154.092C169.642 153.972 169.926 153.181 169.737 152.323C169.548 151.465 168.956 150.866 168.416 150.985C167.876 151.105 167.592 151.896 167.781 152.754C167.97 153.612 168.561 154.211 169.102 154.092Z" fill="#2DBDFF"/>
<path d="M165.776 156.395C166.093 156.325 166.26 155.856 166.148 155.348C166.036 154.839 165.687 154.484 165.37 154.554C165.052 154.624 164.885 155.093 164.997 155.601C165.11 156.11 165.458 156.465 165.776 156.395Z" fill="#2DBDFF"/>
<path d="M165.362 149.385C165.68 149.315 165.846 148.846 165.734 148.338C165.622 147.829 165.274 147.474 164.956 147.544C164.638 147.614 164.472 148.083 164.584 148.592C164.696 149.1 165.044 149.455 165.362 149.385Z" fill="#2DBDFF"/>
<path d="M177.872 167.456C178.412 167.337 178.697 166.545 178.507 165.687C178.318 164.829 177.727 164.23 177.187 164.35C176.647 164.469 176.362 165.261 176.552 166.118C176.741 166.976 177.332 167.575 177.872 167.456Z" fill="#2DBDFF"/>
<path d="M173.078 163.227C173.396 163.157 173.563 162.688 173.451 162.18C173.338 161.672 172.99 161.317 172.672 161.387C172.355 161.457 172.188 161.926 172.3 162.434C172.412 162.942 172.761 163.297 173.078 163.227Z" fill="#2DBDFF"/>
<path d="M173.673 168.179C173.99 168.109 174.157 167.64 174.045 167.131C173.933 166.623 173.584 166.268 173.267 166.338C172.949 166.408 172.782 166.877 172.894 167.385C173.007 167.894 173.355 168.249 173.673 168.179Z" fill="#2DBDFF"/>
<path d="M166.135 165.111C166.452 165.041 166.619 164.572 166.507 164.063C166.395 163.555 166.046 163.2 165.729 163.27C165.411 163.34 165.244 163.809 165.356 164.317C165.468 164.825 165.817 165.181 166.135 165.111Z" fill="#2DBDFF"/>
<path d="M175.531 153.241C175.472 153.241 175.414 153.182 175.414 153.182C175.414 153.241 175.472 153.241 175.531 153.241Z" fill="#004ADE"/>
<path d="M195.736 154.772C197.857 145.995 194.499 134.626 188.138 129.384C182.306 124.553 175.944 126.556 173.117 133.566C173.058 133.684 172.94 133.743 172.881 133.625C172.763 133.566 172.704 133.448 172.586 133.389C171.997 132.977 171.349 133.095 170.937 133.625C170.053 134.803 170.348 136.865 171.232 137.984C171.349 138.161 171.526 138.279 171.644 138.455C171.703 138.514 171.703 138.514 171.762 138.573C171.821 138.632 171.821 138.632 171.88 138.632C172.999 139.987 173.47 142.284 173.058 144.051C172.94 144.464 172.822 144.876 172.645 145.171C172.586 145.229 172.528 145.288 172.469 145.288C172.292 145.288 172.115 145.347 171.997 145.347C171.585 145.465 171.232 145.76 170.937 146.231C170.701 146.584 170.466 147.056 170.348 147.645C169.936 149.588 170.643 152.121 171.997 153.417C172.469 153.83 172.94 154.124 173.411 154.183C173.765 154.242 174.177 154.183 174.471 154.065C174.766 153.947 175.06 153.712 175.296 153.417L175.355 153.358L175.414 153.3C175.473 153.3 175.473 153.241 175.532 153.241H175.591C175.591 153.241 175.591 153.241 175.65 153.241C176.003 153.358 176.298 153.476 176.651 153.771C177.829 154.772 178.595 156.598 178.654 158.424C178.654 158.66 178.595 158.837 178.477 158.954C178.359 159.131 178.241 159.367 178.124 159.602C178.124 159.661 178.065 159.779 178.065 159.838C178.006 160.192 177.947 160.604 177.947 161.016C178.065 162.489 178.889 163.962 180.067 164.079C180.774 164.197 181.363 163.549 181.54 162.607C181.54 162.607 181.54 162.548 181.599 162.548C181.599 162.548 181.599 162.548 181.658 162.548C187.549 166.259 193.734 163.019 195.736 154.772Z" fill="#2DBDFF"/>
<path d="M179.242 146.349L179.655 140.87C180.008 140.753 180.244 140.34 180.303 139.751C180.362 138.868 179.949 137.925 179.301 137.631C178.653 137.336 178.123 137.866 178.064 138.75C178.005 139.339 178.182 139.928 178.477 140.399L178.064 145.877C177.711 145.995 177.416 146.408 177.416 146.997C177.357 147.88 177.77 148.823 178.418 149.117C179.007 149.412 179.596 148.882 179.655 147.998C179.714 147.468 179.537 146.82 179.242 146.349ZM178.535 148.057C178.3 147.939 178.182 147.645 178.182 147.291C178.182 146.938 178.418 146.82 178.594 146.879C178.83 146.997 178.948 147.291 178.948 147.645C178.948 147.998 178.771 148.175 178.535 148.057ZM179.183 139.81C178.948 139.692 178.83 139.398 178.83 139.044C178.83 138.75 179.066 138.573 179.242 138.632C179.478 138.75 179.596 139.044 179.596 139.398C179.596 139.751 179.36 139.928 179.183 139.81Z" fill="white"/>
<path d="M181.599 142.343C181.893 142.461 182.188 142.225 182.247 141.754L182.423 139.574C182.482 139.103 182.247 138.632 181.893 138.514C181.599 138.396 181.304 138.632 181.245 139.103L181.069 141.283C181.01 141.695 181.245 142.166 181.599 142.343Z" fill="white"/>
<path d="M186.959 139.987C186.664 139.869 186.37 140.105 186.311 140.576L185.899 145.818L181.422 143.757C181.127 143.639 180.833 143.875 180.774 144.346L180.302 150.413C180.244 150.884 180.479 151.356 180.833 151.473C181.127 151.591 181.422 151.356 181.481 150.884L181.893 145.642L186.37 147.703C186.664 147.821 186.959 147.586 187.018 147.114L187.489 141.047C187.489 140.576 187.253 140.105 186.959 139.987Z" fill="white"/>
<path d="M186.193 149.53C185.898 149.412 185.604 149.647 185.545 150.119L185.309 153.476C185.25 153.947 185.486 154.419 185.839 154.537C186.134 154.654 186.429 154.419 186.487 153.947L186.723 150.59C186.782 150.177 186.546 149.706 186.193 149.53Z" fill="white"/>
<path d="M183.837 154.36C183.837 154.301 183.837 154.242 183.837 154.183L184.19 149.471C184.249 148.999 184.014 148.528 183.66 148.41C183.366 148.293 183.071 148.528 183.012 148.999L182.659 153.712C182.659 153.771 182.659 153.83 182.659 153.889C182.305 154.006 182.07 154.419 182.011 155.008C181.952 155.891 182.364 156.834 183.012 157.128C183.601 157.423 184.19 156.893 184.249 156.009C184.308 155.42 184.132 154.831 183.837 154.36ZM183.13 156.068C182.895 155.95 182.777 155.656 182.777 155.302C182.777 155.008 183.012 154.831 183.189 154.89C183.425 155.008 183.543 155.302 183.543 155.656C183.543 156.009 183.366 156.186 183.13 156.068Z" fill="white"/>
<path d="M189.374 150.708L189.728 145.877C190.081 145.76 190.317 145.347 190.376 144.758C190.434 143.875 190.022 142.932 189.374 142.638C188.785 142.343 188.196 142.873 188.137 143.757C188.078 144.346 188.255 144.935 188.549 145.406L188.196 150.236C187.843 150.354 187.607 150.767 187.548 151.356C187.489 152.239 187.901 153.182 188.549 153.476C189.139 153.771 189.728 153.241 189.786 152.357C189.845 151.768 189.669 151.179 189.374 150.708ZM188.667 152.416C188.432 152.298 188.314 152.004 188.314 151.65C188.314 151.356 188.549 151.179 188.726 151.238C188.962 151.356 189.08 151.65 189.08 152.004C189.08 152.298 188.903 152.475 188.667 152.416ZM189.256 144.758C189.021 144.64 188.903 144.346 188.903 143.992C188.903 143.698 189.139 143.521 189.315 143.58C189.551 143.698 189.669 143.992 189.669 144.346C189.669 144.699 189.433 144.876 189.256 144.758Z" fill="white"/>
<path d="M184.72 135.274C184.131 134.98 183.542 135.51 183.483 136.394C183.425 136.983 183.601 137.572 183.896 138.043L183.542 142.696C183.483 143.168 183.719 143.639 184.073 143.757C184.367 143.875 184.662 143.639 184.72 143.168L185.074 138.514C185.427 138.396 185.663 137.984 185.722 137.395C185.781 136.511 185.31 135.569 184.72 135.274ZM184.838 137.395C184.779 137.454 184.662 137.513 184.544 137.454C184.426 137.395 184.367 137.277 184.308 137.159C184.249 137.041 184.249 136.865 184.249 136.747C184.249 136.452 184.485 136.276 184.662 136.335C184.897 136.452 185.015 136.747 185.015 137.1C184.956 137.218 184.897 137.336 184.838 137.395Z" fill="white"/>
<path d="M184.403 239.806C188.258 238.891 192.506 241.638 194.987 247.685C197.467 253.733 202.44 269.192 203.504 273.238C203.973 275.048 190.217 291.083 190.728 290.849C190.877 290.774 186.245 283.023 186.245 283.023L192.921 272.749L188.662 261.601L184.403 239.806Z" fill="#FED6B1"/>
<path d="M193.326 383.33C193.847 383.532 193.986 384.522 194.06 386.524C194.124 388.025 194.444 390.634 192.687 391.155C190.93 391.677 188.364 391.411 187.236 390.005C185.877 388.113 184.424 386.29 182.881 384.543C181.145 382.67 179.272 380.934 178.569 378.315C177.93 375.951 178.462 374.929 180.07 374.237C182.295 373.3 185.777 376.366 187.523 376.867C189.003 377.271 192.804 383.138 193.326 383.33Z" fill="#263238"/>
<path d="M193.326 381.498V383.926C192.414 384.509 191.36 384.834 190.278 384.864C189.195 384.894 188.125 384.628 187.182 384.096C187.076 383.862 186.543 380.615 186.543 380.615L193.326 381.498Z" fill="#B16668"/>
<path d="M175.247 396.245C175.668 397.546 176.023 398.868 176.311 400.205C176.62 401.675 177.046 404.134 176.524 405.231C176.002 406.327 174.011 407.051 170.892 407.03C168.88 407.03 165.739 408.382 163.588 409.585C161.427 410.645 158.982 410.985 156.614 410.554C153.846 410.224 150.971 408.617 150.524 407.477C150.077 406.338 150.652 405.774 157.178 402.995C157.242 402.995 164.056 399.886 167.219 396.404L175.247 396.245Z" fill="#263238"/>
<path d="M175.247 393.615C175.247 393.615 175.247 395.414 175.247 396.447C175.247 397.48 174.033 399.013 170.882 398.906C168.667 398.821 167.123 398.225 167.219 396.404V393.785L175.247 393.615Z" fill="#B16668"/>
<path d="M195.722 347.811C195.2 343.547 194.203 339.354 192.751 335.311C192.751 335.311 194.125 324.558 194.88 314.23C196.297 295.714 195.157 289.667 191.516 281.362C191.516 281.362 160.458 278.168 159.511 291.126C158.329 307.203 159.894 338.271 160.32 343.946C160.746 349.621 161.278 352.187 163.28 364.048C164.813 373.076 167.177 393.785 167.177 393.785C168.426 394.419 169.812 394.735 171.212 394.705C172.612 394.676 173.984 394.301 175.205 393.615C175.205 393.615 177.739 367.764 177.472 361.216C177.285 356.37 176.465 351.571 175.034 346.938C175.034 346.938 176.961 320.735 177.515 316.562C177.515 316.562 178.495 324.877 178.92 330.552C179.346 336.227 181.05 341.657 182.668 352.208C184.095 361.354 186.746 381.807 186.746 381.807C190.867 384.043 193.326 381.52 193.326 381.52C193.326 381.52 196.829 355.743 195.722 347.811Z" fill="#6ED0FF"/>
<g opacity="0.35">
<path opacity="0.35" d="M195.722 347.811C195.2 343.547 194.203 339.354 192.751 335.311C192.751 335.311 194.125 324.558 194.88 314.23C196.297 295.714 195.157 289.667 191.516 281.362C191.516 281.362 160.458 278.168 159.511 291.126C158.329 307.203 159.894 338.271 160.32 343.946C160.746 349.621 161.278 352.187 163.28 364.048C164.813 373.076 167.177 393.785 167.177 393.785C168.426 394.419 169.812 394.735 171.212 394.705C172.612 394.676 173.984 394.301 175.205 393.615C175.205 393.615 177.739 367.764 177.472 361.216C177.285 356.37 176.465 351.571 175.034 346.938C175.034 346.938 176.961 320.735 177.515 316.562C177.515 316.562 178.495 324.877 178.92 330.552C179.346 336.227 181.05 341.657 182.668 352.208C184.095 361.354 186.746 381.807 186.746 381.807C190.867 384.043 193.326 381.52 193.326 381.52C193.326 381.52 196.829 355.743 195.722 347.811Z" fill="black"/>
</g>
<path d="M168.529 235.622L169.987 247.621L180.539 246.674L179.335 233.354L168.529 235.622Z" fill="#FED6B1"/>
<path d="M192.123 245.79C190.962 242.596 187.012 239.114 182.956 239.87L179.974 240.413C179.889 243.181 174.651 244.608 169.476 242.937C167.922 243.384 166.484 243.842 165.217 244.299C161.502 245.63 160.011 251.752 159.894 262.123C159.777 272.493 158.712 298.185 158.712 298.185L163.109 299.579L165.132 292.052L165.952 301.07C170.889 302.221 176.028 302.196 180.954 300.995C192.112 298.557 195.583 292.542 195.583 292.542C194.218 285.578 191.505 278.948 187.598 273.025C193.177 258.151 193.837 250.507 192.123 245.79Z" fill="#EBEBEB"/>
<path d="M160.682 220.375C160.05 218.942 159.793 217.372 159.932 215.811C160.072 214.251 160.604 212.752 161.48 211.453C165.026 205.895 171.851 204.948 179.942 207.12C182.767 207.985 185.255 209.701 187.067 212.033C188.88 214.366 189.928 217.201 190.068 220.152C190.462 226.082 173.905 230.458 174.289 234.525L160.682 220.375Z" fill="#263238"/>
<path d="M160.331 222.633C160.331 222.633 158.084 226.231 158.403 226.604C158.96 226.949 159.572 227.194 160.213 227.328L160.331 222.633Z" fill="#FED6B1"/>
<path d="M167.176 211.23C164.941 212.465 161.065 214.743 160.277 223.154C159.468 231.778 161.47 234.717 162.673 235.814C163.482 236.559 167.581 236.719 169.689 236.005C172.33 235.1 178.036 232.098 180.624 227.583C183.669 222.26 184.137 215.286 180.389 212.678C178.49 211.337 176.281 210.5 173.97 210.247C171.659 209.994 169.321 210.332 167.176 211.23Z" fill="#FED6B1"/>
<path d="M166.516 211.602C166.516 211.602 164.749 219.502 167.261 224.379C167.261 224.379 168.56 221.28 171.222 222.09C173.884 222.899 173.745 226.444 171.712 228.308C171.192 228.84 170.533 229.215 169.809 229.388C169.086 229.562 168.328 229.527 167.623 229.287C168.52 231.523 169.864 233.552 171.573 235.249C171.573 235.249 179.442 238.752 186.245 231.065C192.431 224.091 191.281 211.9 181.816 209.058C172.351 206.215 166.516 211.602 166.516 211.602Z" fill="#263238"/>
<path d="M188.95 212.422C188.577 212.741 188.347 213.195 188.309 213.684C188.271 214.173 188.429 214.658 188.747 215.031L191.558 212.614C191.4 212.429 191.207 212.277 190.99 212.168C190.773 212.058 190.536 211.992 190.294 211.974C190.051 211.957 189.808 211.987 189.577 212.064C189.346 212.141 189.133 212.262 188.95 212.422Z" fill="#263238"/>
<path d="M138.482 263.347C136.949 261.601 136.353 257.704 134.33 255.042C132.307 252.381 131.54 250.432 130.731 251.593C129.667 253.137 132.073 256.214 131.541 256.522C131.008 256.831 129.006 260.888 128.804 263.145C128.602 265.402 134.575 271.066 134.575 271.066L138.482 263.347Z" fill="#FED6B1"/>
<path d="M131.711 256.171C131.711 256.171 124.492 255.553 123.438 256.171C122.384 256.788 122.703 259.919 123.438 261.835C124.173 263.752 127.857 265.029 131.274 267.308C131.274 266.967 131.711 256.171 131.711 256.171Z" fill="#FED6B1"/>
<path d="M166.112 244.012C163.013 245.077 160.298 246.344 157.402 251.784C153.687 258.78 146.915 272.472 146.915 272.472L138.483 263.347C138.483 263.347 137.258 261.622 134.98 265.391C132.701 269.161 133.702 270.204 133.702 270.204C133.702 270.204 143.508 283.342 145.307 285.014C147.107 286.686 150.067 285.387 152.004 282.757C153.942 280.127 166.112 264.891 166.112 264.891C166.112 264.891 172.766 256.139 166.112 244.012Z" fill="#FED6B1"/>
<path opacity="0.2" d="M177.515 316.54L178.111 310.269C181.49 309.766 184.722 308.543 187.587 306.681C187.587 306.681 185.564 309.875 180.027 311.387L179.453 319.372L179.112 332.468L177.515 316.54Z" fill="black"/>
<path d="M199.629 242.351C198.191 242.355 196.767 242.076 195.437 241.529C194.107 240.982 192.899 240.178 191.88 239.163C190.861 238.149 190.053 236.943 189.501 235.616C188.949 234.288 188.664 232.865 188.662 231.427V214.828C189.915 214.422 191.247 214.317 192.548 214.524C193.849 214.73 195.082 215.242 196.148 216.017C197.213 216.791 198.08 217.807 198.678 218.981C199.276 220.155 199.587 221.454 199.586 222.771L199.629 242.351Z" fill="#263238"/>
<path d="M159.659 272.993C159.659 272.993 165.717 265.178 167.655 262.038L159.446 279.371L159.659 272.993Z" fill="#E0E0E0"/>
<path d="M106.541 208.813C108.841 215.595 113.749 235.824 113.749 235.824C113.749 235.824 123.108 248.271 125.685 250.645C127.111 251.965 130.337 254.34 130.337 254.34L127.654 256.32C127.654 256.32 123.183 254.957 122.81 257.385C118.147 253.633 113.737 249.579 109.607 245.247C108.566 244.159 107.831 242.815 107.478 241.35L103.485 224.176C103.485 224.176 103.485 210.335 101.356 208.525C99.2265 206.715 100.068 202.616 100.068 202.616C101.526 202.659 104.731 203.5 106.541 208.813Z" fill="#FFA8A7"/>
<path d="M99.9931 201.935C99.3409 203.766 98.5507 205.546 97.6295 207.258C96.6925 208.866 103.858 237.773 104.337 239.924C104.816 242.074 118.711 254.606 118.711 254.606C121.221 253.544 123.216 251.541 124.269 249.027L114.239 235.973C114.239 235.973 111.119 222.281 109.48 215.999C107.84 209.718 106.094 202.616 99.9931 201.935Z" fill="#6ED0FF"/>
<path opacity="0.1" d="M99.9931 201.935C99.3409 203.766 98.5507 205.546 97.6295 207.258C96.6925 208.866 103.858 237.773 104.337 239.924C104.816 242.074 118.711 254.606 118.711 254.606C121.221 253.544 123.216 251.541 124.269 249.027L114.239 235.973C114.239 235.973 111.119 222.281 109.48 215.999C107.84 209.718 106.094 202.616 99.9931 201.935Z" fill="black"/>
<path d="M70.6497 337.781H77.5703V349.642H70.6497V337.781Z" fill="#FFA8A7"/>
<path d="M98.9711 340.656L105.892 340.901L106.232 328.348L98.9711 328.114V340.656Z" fill="#FFA8A7"/>
<path d="M71.6184 253.147C71.6184 259.759 71.1606 298.216 71.1606 298.216C71.0009 300.112 69.1696 303.54 69.0312 310.354C68.8289 320.299 70.3621 343.712 70.3621 343.712C71.558 344.298 72.868 344.616 74.1998 344.641C75.5316 344.667 76.8529 344.401 78.0706 343.861C78.0706 343.861 83.5113 310.748 84.7463 300.9C85.811 292.318 89.5695 269.395 89.5695 269.395L94.893 298.419C94.0901 302.03 93.7998 305.736 94.0306 309.428C94.3607 313.974 98.577 336.77 98.577 336.77C99.7831 337.452 101.124 337.862 102.506 337.968C103.888 338.075 105.276 337.877 106.573 337.387C106.573 337.387 106.988 301.602 107.063 297.429C107.159 292.669 105.082 251.71 105.082 251.71L71.6184 253.147Z" fill="#37474F"/>
<path d="M77.5702 346.224V345.234C77.9429 345.234 78.1664 345.596 78.3155 346.48C78.4139 347.14 78.549 347.794 78.7201 348.439C79.0252 349.651 79.4276 350.837 79.9232 351.985C80.9028 354.401 81.7226 355.296 83.9692 358.117C84.7299 358.899 85.4411 359.728 86.0986 360.598C86.5138 361.343 86.6629 363.409 85.9495 363.888C83.341 365.634 79.3696 365.677 76.5587 364.857C75.5126 364.563 74.5725 363.976 73.8498 363.165C73.1271 362.353 72.6521 361.352 72.4809 360.279C72.3744 359.64 72.417 358.98 72.3425 358.341C72.0951 356.88 71.4998 355.499 70.607 354.316C70.0888 353.633 69.6428 352.898 69.2761 352.123C68.7012 350.707 69.159 349.099 69.5316 347.683C69.851 346.459 70.2024 345.117 70.5963 345.234V345.98C71.5827 346.76 72.8096 347.174 74.0673 347.151C75.1214 347.193 77.5809 346.991 77.5702 346.224Z" fill="#263238"/>
<path d="M105.966 338.761C106.328 338.761 106.616 339.282 107.414 340.145C108.6 341.338 109.974 342.327 111.481 343.073C114.079 344.372 119.115 346.363 121.404 347.396C122.831 348.034 122.757 349.759 121.287 350.739C119.818 351.718 116.251 352.421 111.982 351.473C109.661 350.952 106.658 348.801 104.71 348.918C102.761 349.035 99.2052 349.003 97.7891 348.024C96.3731 347.044 96.9374 344.968 97.342 343.179C97.7785 341.231 98.3215 338.175 98.971 338.314V338.984C99.8015 340.251 104.103 340.762 105.924 339.836L105.966 338.761Z" fill="#263238"/>
<path d="M89.559 269.395C93.1446 268.287 96.4443 266.408 99.2266 263.89C99.2266 263.89 97.3633 267.382 91.7736 270.619L94.4566 296.438L89.559 269.395Z" fill="#263238"/>
<path d="M83.6287 202.403C81.2651 202.978 76.5165 203.755 75.4517 208.451C74.1741 214.083 73.7588 226.359 73.7588 226.359L73.3223 253.68C78.0922 257.151 95.6067 259.003 105.647 251.71C105.647 251.71 104.412 218.917 104.412 213.806C104.412 208.696 101.58 202.563 93.7648 202.094L83.6287 202.403Z" fill="#F5F5F5"/>
<path d="M93.637 201.583C95.7906 203.387 97.3492 205.799 98.1088 208.504C99.0671 212.635 99.1735 258.769 99.1735 258.769C99.1735 258.769 104.071 257.864 106.36 256.064C106.36 256.064 106.073 219.651 105.604 213.625C104.891 204.5 104.966 201.913 93.6051 200.902L93.637 201.583Z" fill="#6ED0FF"/>
<path d="M81.5626 200.902C81.5626 200.902 88.0893 204.916 88.1638 220.897C88.2277 234.738 88.6855 258.769 88.6855 258.769C88.6855 258.769 77.8787 260.355 71.0326 256.267C71.0326 256.267 70.2128 222.771 70.3512 217.586C70.5003 211.645 71.8844 203.968 73.7902 203.202C76.3202 202.243 78.9182 201.474 81.5626 200.902Z" fill="#6ED0FF"/>
<path d="M57.2875 237.592C63.7823 211.038 68.5841 202.179 76.4523 202.286C78.7628 205.033 78.124 213.359 74.4826 218.406C74.4826 218.406 66.3589 235.526 65.0706 241.616C63.9313 246.94 62.643 253.701 62.7175 258.3C62.7445 259.114 63.0661 259.889 63.6226 260.483C65.1025 262.091 65.1131 263.39 66.0714 265.168C66.8273 266.552 67.6472 267.074 67.4129 267.393C67.1027 267.723 66.6803 267.924 66.229 267.957C65.7777 267.991 65.3302 267.854 64.9747 267.574C64.2818 267.069 63.6619 266.471 63.1328 265.796C63.3877 267.499 63.8786 269.158 64.5915 270.726C66.2631 274.484 65.8585 276.401 60.7798 275.059C57.5857 274.218 55.6053 271.577 55.1368 263.933C54.9027 261.121 54.8742 258.295 55.0516 255.479C55.7437 248.239 56.2334 241.872 57.2875 237.592Z" fill="#FFA8A7"/>
<path d="M77.8257 201.849C77.8257 201.849 72.5979 201.615 69.7658 204.479C66.9337 207.343 63.1114 213.37 59.4062 226.54C55.701 239.711 54.5617 249.336 54.3807 256.746C54.3807 256.746 59.0229 258.875 63.303 256.448C63.303 256.448 65.1982 244.981 66.8804 238.88C68.5627 232.779 74.8338 219.928 74.8338 219.928C74.8338 219.928 80.8282 211.017 77.8257 201.849Z" fill="#6ED0FF"/>
<path opacity="0.1" d="M77.8257 201.849C77.8257 201.849 72.5979 201.615 69.7658 204.479C66.9337 207.343 63.1114 213.37 59.4062 226.54C55.701 239.711 54.5617 249.336 54.3807 256.746C54.3807 256.746 59.0229 258.875 63.303 256.448C63.303 256.448 65.1982 244.981 66.8804 238.88C68.5627 232.779 74.8338 219.928 74.8338 219.928C74.8338 219.928 80.8282 211.017 77.8257 201.849Z" fill="black"/>
<path opacity="0.1" d="M80.8277 209.643L83.8195 213.338L82.3183 217.554L86.2471 227.626L81.5197 217.554L83.1701 213.572L80.8277 209.643Z" fill="black"/>
<path opacity="0.1" d="M101.91 208.451L101.26 212.273L103.848 215.648L100.249 226.977L103.038 215.776L100.654 212.624L101.91 208.451Z" fill="black"/>
<path d="M85.4274 181.182C84.5851 175.993 88.1088 171.103 93.2979 170.261C98.4869 169.419 103.376 172.942 104.219 178.131C105.061 183.321 101.537 188.21 96.3481 189.052C91.1591 189.894 86.2697 186.371 85.4274 181.182Z" fill="#263238"/>
<path d="M78.3797 186.411C78.3797 186.411 79.9235 193.662 80.5091 194.854C80.9233 195.585 81.6014 196.13 82.4043 196.377L82.2978 191.277L78.3797 186.411Z" fill="#263238"/>
<path d="M80.3166 176.03C79.7747 175.969 79.2261 176.034 78.713 176.219C78.1999 176.403 77.7359 176.703 77.3567 177.095C76.0897 178.394 76.7924 182.418 78.4214 186.432L81.3281 186.762L80.3166 176.03Z" fill="#263238"/>
<path d="M82.1914 186.752C81.6058 187.093 80.7753 185.975 80.062 185.229C79.7812 184.899 79.4202 184.647 79.0137 184.497C78.6072 184.347 78.1688 184.304 77.7409 184.372C77.313 184.441 76.9099 184.618 76.5705 184.888C76.2311 185.157 75.9668 185.509 75.8031 185.911C74.6106 188.423 76.8678 191.745 78.6779 192.299C81.872 193.3 82.3405 191.234 82.3405 191.234L82.5747 203.063C84.7786 205.885 89.7189 209.207 92.3807 208.727C94.5101 208.355 94.9679 204.767 92.9343 202.414V198.943C94.3422 199.167 95.77 199.238 97.1932 199.156C99.5356 198.794 101.005 196.952 101.718 194.418C102.857 190.351 103.294 187.071 102.325 179.065C101.26 170.291 91.0605 170.206 85.5559 173.666C80.0513 177.127 82.1914 186.752 82.1914 186.752Z" fill="#FFA8A7"/>
<path d="M82.191 187.731C81.8928 187.731 80.7749 185.889 80.0615 185.229C79.0607 184.314 80.3596 176.03 80.3596 176.03C80.012 175.302 79.892 174.485 80.0155 173.687C80.1389 172.89 80.5001 172.148 81.0517 171.558C82.4252 170.046 84.3417 168.194 90.6341 168.939C95.0846 169.461 99.9291 170.845 103.847 168.939C104.209 170.216 104.182 171.572 103.768 172.834C103.355 174.095 102.574 175.205 101.526 176.019C99.9214 176.816 98.1721 177.28 96.3836 177.382C92.9426 177.642 89.4848 177.578 86.0559 177.191C84.9912 177.042 84.7463 178.085 84.1607 180.949C83.5644 183.451 83.1385 187.71 82.191 187.731Z" fill="#263238"/>
<path d="M80.3168 176.68L76.7926 174.784C76.9056 174.547 77.0656 174.335 77.2628 174.161C77.46 173.987 77.6904 173.855 77.9401 173.772C78.1898 173.689 78.4537 173.658 78.7158 173.68C78.9778 173.702 79.2327 173.777 79.465 173.901C79.9326 174.17 80.2806 174.606 80.4387 175.122C80.5968 175.638 80.5533 176.195 80.3168 176.68Z" fill="#263238"/>
<path d="M92.9126 198.943C90.5066 198.484 88.1474 197.807 85.8642 196.92C84.7899 196.359 83.9102 195.487 83.3408 194.418C83.6155 195.488 84.1045 196.491 84.7782 197.367C86.1091 199.071 92.9126 200.327 92.9126 200.327V198.943Z" fill="#F28F8F"/>
<path d="M91.6562 185.442C91.6562 185.725 91.5441 185.995 91.3444 186.195C91.1447 186.395 90.8739 186.507 90.5915 186.507C90.3092 186.507 90.0383 186.395 89.8387 186.195C89.639 185.995 89.5268 185.725 89.5268 185.442C89.5268 185.16 89.639 184.889 89.8387 184.689C90.0383 184.49 90.3092 184.378 90.5915 184.378C90.8739 184.378 91.1447 184.49 91.3444 184.689C91.5441 184.889 91.6562 185.16 91.6562 185.442Z" fill="#263238"/>
<path d="M90.5488 181.492L88.3129 182.727C88.1539 182.419 88.1194 182.062 88.2165 181.729C88.3136 181.396 88.5349 181.113 88.8346 180.938C88.9827 180.858 89.1455 180.809 89.3132 180.794C89.4808 180.778 89.6499 180.797 89.8101 180.849C89.9703 180.901 90.1184 180.984 90.2453 181.095C90.3723 181.205 90.4756 181.341 90.5488 181.492Z" fill="#263238"/>
<path d="M92.4442 192.672L94.8291 193.566C94.7789 193.727 94.6964 193.876 94.5867 194.005C94.477 194.133 94.3425 194.237 94.1911 194.312C94.0398 194.387 93.8748 194.43 93.7063 194.439C93.5378 194.448 93.3692 194.423 93.2108 194.364C92.8891 194.236 92.6297 193.988 92.4869 193.672C92.344 193.357 92.3287 192.998 92.4442 192.672Z" fill="#F28F8F"/>
<path d="M100.994 182.365L98.9493 180.789C99.0456 180.651 99.1687 180.535 99.3113 180.445C99.454 180.356 99.6132 180.297 99.7793 180.271C99.9454 180.245 100.115 180.254 100.278 180.295C100.441 180.336 100.594 180.41 100.727 180.513C101 180.729 101.179 181.041 101.229 181.386C101.278 181.73 101.194 182.081 100.994 182.365Z" fill="#263238"/>
<path d="M100.366 185.101C100.366 185.384 100.254 185.655 100.054 185.854C99.8542 186.054 99.5834 186.166 99.301 186.166C99.0186 186.166 98.7478 186.054 98.5481 185.854C98.3485 185.655 98.2363 185.384 98.2363 185.101C98.2363 184.819 98.3485 184.548 98.5481 184.349C98.7478 184.149 99.0186 184.037 99.301 184.037C99.5834 184.037 99.8542 184.149 100.054 184.349C100.254 184.548 100.366 184.819 100.366 185.101Z" fill="#263238"/>
<path d="M95.0319 184.154L95.3726 190.446L98.6626 189.328L95.0319 184.154Z" fill="#F28F8F"/>
<path d="M96.1709 208.046C95.5321 209.579 94.3396 210.175 92.1995 210.442C91.1166 210.508 90.0314 210.354 89.01 209.988C87.9886 209.622 87.0524 209.052 86.2584 208.312L88.9202 205.661L92.3166 208.206L92.6041 205.363L96.1709 208.046Z" fill="#6ED0FF"/>
<path opacity="0.1" d="M96.1709 208.046C95.5321 209.579 94.3396 210.175 92.1995 210.442C91.1166 210.508 90.0314 210.354 89.01 209.988C87.9886 209.622 87.0524 209.052 86.2584 208.312L88.9202 205.661L92.3166 208.206L92.6041 205.363L96.1709 208.046Z" fill="black"/>
<path d="M94.4882 207.216C94.8022 208.136 94.9218 209.111 94.8395 210.08C94.7378 210.942 94.407 211.762 93.8813 212.454C93.5438 212.671 93.1604 212.808 92.7614 212.852C92.3624 212.896 91.9585 212.847 91.5815 212.709C90.8924 212.118 90.3388 211.384 89.9585 210.559C89.5782 209.734 89.3801 208.837 89.3776 207.929L92.3162 208.259L94.4882 207.216Z" fill="#6ED0FF"/>
<path d="M93.9029 212.454C93.9029 212.454 97.3845 231.619 97.5229 233.195C97.6613 234.77 95.5319 240.243 94.201 240.286C92.8701 240.328 90.2722 235.356 90.2402 233.897C90.2083 232.439 91.6031 212.656 91.6031 212.656L93.9029 212.454Z" fill="#6ED0FF"/>
<path opacity="0.1" d="M91.5816 212.709C91.9533 212.874 92.3619 212.937 92.7659 212.892C93.1699 212.847 93.5548 212.696 93.8813 212.454V212.763C93.5492 213.028 93.158 213.209 92.7409 213.29C92.3239 213.372 91.8933 213.352 91.4857 213.231L91.5816 212.709Z" fill="black"/>
<path d="M92.3169 208.259L82.5215 200.806V198.591C82.5215 198.591 80.243 199.454 79.732 203.468C81.3032 206.949 83.9893 209.807 87.366 211.591L89.4209 207.929L92.3169 208.259Z" fill="#E0E0E0"/>
<path d="M92.9127 199.603C94.1929 199.805 95.3412 200.506 96.1069 201.551C97.0864 203.159 96.8628 209.345 96.8628 209.345L94.5204 207.216L92.391 208.28C92.5933 206.225 92.9979 202.478 92.9979 202.478L92.9127 199.603Z" fill="#E0E0E0"/>
<path d="M131.167 267.372C130.253 266.087 129.718 264.57 129.624 262.996C129.347 260.984 123.832 258.822 123.651 260.323C123.47 261.825 122.969 263.07 124.715 264.891C126.461 266.712 128.602 268.724 131.167 267.372Z" fill="#FFA8A7"/>
<path d="M130.88 254.372C132.201 256.075 133.01 259.386 133.712 260.504C134.415 261.622 135.246 262.634 133.712 262.794C132.179 262.953 129.954 260.015 129.124 258.205C128.802 257.489 128.312 256.861 127.697 256.373C127.455 256.179 127.186 256.021 126.898 255.905C127.612 255.66 127.239 252.785 127.739 252.391C127.739 252.391 130.337 253.456 130.88 254.372Z" fill="#FFA8A7"/>
<path d="M230.067 167.571C230.067 167.427 230.152 167.278 230.178 167.16C230.212 167.12 230.232 167.07 230.236 167.017C230.319 166.881 230.418 166.754 230.529 166.64C230.625 166.504 230.756 166.396 230.907 166.327L231.05 166.236C232.033 165.656 236.259 163.228 236.78 162.935C237.134 162.771 237.525 162.707 237.913 162.748C238.3 162.789 238.669 162.935 238.981 163.169L291.524 193.478C292.436 194.076 293.193 194.881 293.736 195.826C294.279 196.772 294.592 197.832 294.649 198.921V313.859C294.695 314.249 294.633 314.645 294.47 315.003C294.307 315.362 294.05 315.668 293.725 315.89C293.171 316.203 288.425 318.957 287.865 319.276C287.806 319.276 287.774 319.334 287.715 319.334C287.615 319.388 287.508 319.425 287.396 319.445C287.17 319.504 286.932 319.504 286.706 319.445C286.326 319.397 285.96 319.271 285.632 319.074L233.134 288.733C232.22 288.144 231.46 287.346 230.915 286.405C230.371 285.465 230.058 284.408 230.002 283.322V168.339C229.992 168.081 230.014 167.823 230.067 167.571Z" fill="#6ED0FF"/>
<path opacity="0.15" d="M230.067 167.571C230.067 167.427 230.152 167.278 230.178 167.16C230.212 167.12 230.232 167.07 230.236 167.017C230.319 166.881 230.418 166.754 230.529 166.64C230.625 166.504 230.756 166.396 230.907 166.327L231.05 166.236C232.033 165.656 236.259 163.228 236.78 162.935C237.134 162.771 237.525 162.707 237.913 162.748C238.3 162.789 238.669 162.935 238.981 163.169L291.524 193.478C292.436 194.076 293.193 194.881 293.736 195.826C294.279 196.772 294.592 197.832 294.649 198.921V313.859C294.695 314.249 294.633 314.645 294.47 315.003C294.307 315.362 294.05 315.668 293.725 315.89C293.171 316.203 288.425 318.957 287.865 319.276C287.806 319.276 287.774 319.334 287.715 319.334C287.615 319.388 287.508 319.425 287.396 319.445C287.17 319.504 286.932 319.504 286.706 319.445C286.326 319.397 285.96 319.271 285.632 319.074L233.134 288.733C232.22 288.144 231.46 287.346 230.915 286.405C230.371 285.465 230.058 284.408 230.002 283.322V168.339C229.992 168.081 230.014 167.823 230.067 167.571Z" fill="black"/>
<path d="M287.728 319.334C287.787 319.334 287.819 319.334 287.878 319.276C288.425 318.957 293.171 316.203 293.738 315.89C294.063 315.668 294.321 315.362 294.484 315.003C294.647 314.645 294.708 314.249 294.662 313.859V198.908C294.63 197.812 294.312 196.743 293.738 195.809L287.878 199.194C288.452 200.129 288.77 201.197 288.803 202.294V317.244C288.77 318.319 288.366 319.041 287.728 319.334Z" fill="#6ED0FF"/>
<path opacity="0.3" d="M287.728 319.334C287.787 319.334 287.819 319.334 287.878 319.276C288.425 318.957 293.171 316.203 293.738 315.89C294.063 315.668 294.321 315.362 294.484 315.003C294.647 314.645 294.708 314.249 294.662 313.859V198.908C294.63 197.812 294.312 196.743 293.738 195.809L287.878 199.194C288.452 200.129 288.77 201.197 288.803 202.294V317.244C288.77 318.319 288.366 319.041 287.728 319.334Z" fill="black"/>
<path d="M230.067 167.571C230.067 167.427 230.152 167.278 230.178 167.16C230.212 167.12 230.232 167.07 230.237 167.017C230.319 166.881 230.418 166.754 230.53 166.64C230.625 166.504 230.756 166.396 230.907 166.327L231.05 166.236C231.395 166.126 231.76 166.098 232.117 166.153C232.474 166.208 232.813 166.346 233.108 166.555L257.537 180.638L270.852 188.341L285.645 196.87C286.552 197.472 287.307 198.278 287.85 199.223C288.392 200.167 288.707 201.226 288.77 202.313V317.244C288.77 318.319 288.366 319.041 287.728 319.334C287.628 319.388 287.521 319.425 287.409 319.445C287.183 319.504 286.945 319.504 286.719 319.445C286.339 319.397 285.973 319.271 285.645 319.074L233.134 288.733C232.22 288.144 231.46 287.346 230.915 286.405C230.371 285.465 230.058 284.408 230.002 283.322V168.339C229.992 168.081 230.014 167.823 230.067 167.571Z" fill="#6ED0FF"/>
<path d="M272.519 259.29L246.234 244.113C245.277 243.566 244.509 244.009 244.509 245.116V245.8C244.54 246.4 244.713 246.983 245.013 247.504C245.313 248.024 245.731 248.467 246.234 248.795L272.519 263.972C273.469 264.519 274.244 264.076 274.244 262.969V262.285C274.213 261.686 274.04 261.102 273.74 260.581C273.44 260.061 273.022 259.619 272.519 259.29Z" fill="#455A64"/>
<path d="M278.932 277.69L269.556 272.26C269.159 272.032 268.84 272.195 268.84 272.625C268.857 272.867 268.931 273.101 269.055 273.31C269.179 273.518 269.351 273.694 269.556 273.823L278.932 279.253C279.329 279.481 279.655 279.318 279.655 278.888C279.637 278.646 279.562 278.411 279.436 278.203C279.311 277.995 279.138 277.819 278.932 277.69Z" fill="#455A64"/>
<path d="M262.713 268.328L239.821 255.11C239.424 254.883 239.098 255.045 239.098 255.475C239.117 255.717 239.193 255.951 239.318 256.159C239.444 256.367 239.616 256.543 239.821 256.673L262.713 269.884C263.111 270.118 263.43 269.955 263.43 269.519C263.413 269.278 263.339 269.044 263.215 268.837C263.09 268.63 262.918 268.456 262.713 268.328Z" fill="#455A64"/>
<path d="M278.932 280.809L269.556 275.386C269.159 275.151 268.84 275.314 268.84 275.75C268.858 275.992 268.932 276.226 269.056 276.434C269.181 276.642 269.352 276.818 269.556 276.948L278.932 282.372C279.329 282.606 279.655 282.443 279.655 282.007C279.636 281.765 279.56 281.531 279.435 281.323C279.31 281.115 279.137 280.939 278.932 280.809Z" fill="#455A64"/>
<path d="M262.713 271.446L239.821 258.229C239.424 258.001 239.098 258.164 239.098 258.594C239.116 258.836 239.19 259.071 239.316 259.279C239.442 259.488 239.615 259.663 239.821 259.792L262.713 273.009C263.111 273.237 263.43 273.074 263.43 272.644C263.413 272.402 263.339 272.168 263.215 271.96C263.09 271.752 262.919 271.576 262.713 271.446Z" fill="#455A64"/>
<path d="M278.932 283.934L269.556 278.504C269.159 278.276 268.84 278.439 268.84 278.869C268.857 279.111 268.931 279.345 269.055 279.554C269.179 279.762 269.351 279.938 269.556 280.067L278.932 285.497C279.329 285.725 279.655 285.562 279.655 285.132C279.637 284.89 279.562 284.655 279.436 284.447C279.311 284.239 279.138 284.063 278.932 283.934Z" fill="#455A64"/>
<path d="M262.713 274.572L239.821 261.328C239.424 261.101 239.098 261.263 239.098 261.693C239.117 261.935 239.193 262.169 239.318 262.377C239.444 262.585 239.616 262.761 239.821 262.891L262.713 276.102C263.111 276.336 263.43 276.173 263.43 275.737C263.409 275.501 263.333 275.272 263.209 275.07C263.085 274.868 262.915 274.697 262.713 274.572Z" fill="#455A64"/>
<path d="M278.932 287.06L269.556 281.63C269.159 281.402 268.84 281.564 268.84 281.994C268.858 282.236 268.932 282.47 269.056 282.678C269.181 282.886 269.352 283.062 269.556 283.192L278.932 288.616C279.329 288.85 279.655 288.687 279.655 288.251C279.636 288.01 279.561 287.776 279.436 287.569C279.31 287.362 279.138 287.188 278.932 287.06Z" fill="#455A64"/>
<path d="M262.713 277.69L239.821 264.473C239.424 264.245 239.098 264.408 239.098 264.838C239.116 265.08 239.19 265.315 239.316 265.523C239.442 265.732 239.615 265.907 239.821 266.036L262.713 279.253C263.111 279.481 263.43 279.318 263.43 278.888C263.413 278.647 263.339 278.412 263.215 278.204C263.09 277.996 262.919 277.82 262.713 277.69Z" fill="#455A64"/>
<path d="M275.599 292.614V302.386L272.779 300.759V290.986L275.599 292.614Z" fill="#455A64"/>
<path d="M267.134 287.724V297.503L264.315 295.869V286.096L267.134 287.724Z" fill="#455A64"/>
<path d="M255.844 281.206V290.986L253.025 289.351V279.579L255.844 281.206Z" fill="#455A64"/>
<path d="M245.974 275.509V285.282L243.154 283.654V273.882L245.974 275.509Z" fill="#455A64"/>
<path d="M271.366 290.172V299.945L269.953 299.131V289.358L271.366 290.172Z" fill="#455A64"/>
<path d="M251.619 278.765V288.538L250.206 287.724V277.951L251.619 278.765Z" fill="#455A64"/>
<path d="M260.083 283.655V293.427L258.67 292.614V282.841L260.083 283.655Z" fill="#455A64"/>
<path d="M268.547 288.544V298.317L267.844 297.907V288.134L268.547 288.544Z" fill="#455A64"/>
<path d="M257.706 282.287V292.06L257.003 291.65V281.877L257.706 282.287Z" fill="#455A64"/>
<path d="M262.199 284.879V294.651L261.49 294.241V284.468L262.199 284.879Z" fill="#455A64"/>
<path d="M248.09 276.733V286.506L247.387 286.096V276.323L248.09 276.733Z" fill="#455A64"/>
<path d="M263.605 285.686V295.452L262.902 295.049V285.276L263.605 285.686Z" fill="#455A64"/>
<path d="M249.503 277.547V287.327L248.793 286.916V277.143L249.503 277.547Z" fill="#455A64"/>
<path opacity="0.3" d="M270.819 265.749L247.927 252.532C247.53 252.304 247.211 252.467 247.211 252.897C247.227 253.139 247.301 253.373 247.425 253.581C247.55 253.79 247.722 253.965 247.927 254.095L270.819 267.312C271.216 267.54 271.542 267.377 271.542 266.947C271.524 266.705 271.45 266.47 271.324 266.262C271.199 266.054 271.026 265.878 270.819 265.749Z" fill="black"/>
<path d="M279.182 202.934L239.302 179.912C238.586 179.501 238 179.833 238 180.66V231.446C238.025 231.894 238.156 232.331 238.383 232.719C238.609 233.107 238.924 233.436 239.302 233.679L279.182 256.663C279.898 257.079 280.484 256.741 280.484 255.92V205.2C280.462 204.746 280.332 204.304 280.106 203.91C279.879 203.517 279.563 203.182 279.182 202.934Z" fill="#FAFAFA"/>
<path d="M250.464 230.984C250.464 230.984 267.189 237.504 267.189 234.588C270.324 228.777 276.659 226.901 276.659 216.743C276.659 206.14 267.845 200.945 259.032 200.945C256.275 200.934 253.562 201.636 251.155 202.981C248.748 204.327 246.73 206.271 245.295 208.625C240.265 209.95 241.551 216.895 246.587 218.141L250.464 230.984Z" fill="#263238"/>
<path d="M267.627 236.901C265.254 234.794 265.235 230.937 267.594 228.286C269.953 225.636 273.783 225.205 276.155 227.319C278.528 229.433 278.548 233.283 276.195 235.934C273.843 238.584 270.006 238.988 267.627 236.901Z" fill="#263238"/>
<path d="M264.5 230.327L267.189 226.669C267.189 226.669 268.846 228.32 271.278 226.537C273.458 224.94 274.373 221.514 272.842 219.745C271.762 218.492 268.409 217.803 267.103 220.5C267.103 220.5 263.22 220.315 258.151 216.716C253.081 213.118 251.882 209.944 248.774 209.586C247.316 210.699 245.898 213.979 246.05 222.627C246.163 229.029 249.026 232.083 250.49 233.184C251.683 234.078 253.207 234.204 255.792 233.78V235.327C255.792 235.327 253.857 234.158 260 233.78C266.5 229.327 264.5 230.327 264.5 230.327Z" fill="#FED6B1"/>
<path d="M267.103 219.904V223.456C266.438 223.461 265.798 223.202 265.324 222.736C264.849 222.271 264.579 221.635 264.572 220.971V217.545L267.103 219.904Z" fill="#263238"/>
<path d="M256.6 219.943C256.592 220.174 256.653 220.402 256.775 220.599C256.896 220.795 257.073 220.952 257.283 221.048C257.493 221.144 257.727 221.176 257.955 221.14C258.183 221.104 258.396 221.002 258.566 220.845C258.736 220.689 258.856 220.486 258.911 220.261C258.966 220.037 258.954 219.801 258.875 219.584C258.797 219.367 258.656 219.177 258.471 219.04C258.285 218.902 258.063 218.822 257.832 218.81C257.677 218.803 257.521 218.827 257.375 218.88C257.229 218.933 257.095 219.015 256.98 219.12C256.866 219.226 256.773 219.353 256.708 219.494C256.642 219.635 256.606 219.788 256.6 219.943Z" fill="#263238"/>
<path d="M246.865 216.875L249.423 215.437C249.333 215.266 249.21 215.115 249.06 214.993C248.91 214.871 248.737 214.781 248.551 214.728C248.365 214.675 248.171 214.66 247.979 214.683C247.787 214.707 247.602 214.77 247.435 214.867C247.098 215.062 246.849 215.381 246.743 215.756C246.637 216.131 246.68 216.532 246.865 216.875Z" fill="#263238"/>
<path d="M257.501 226.729L254.241 227.889C254.311 228.104 254.425 228.302 254.573 228.472C254.722 228.642 254.903 228.781 255.107 228.88C255.31 228.979 255.531 229.036 255.757 229.048C255.982 229.06 256.208 229.026 256.421 228.949C256.856 228.794 257.213 228.475 257.414 228.06C257.616 227.645 257.648 227.167 257.501 226.729Z" fill="#E7BE99"/>
<path d="M247.667 219.672C247.649 219.984 247.755 220.29 247.963 220.523C248.17 220.757 248.462 220.899 248.774 220.918C249.087 220.927 249.392 220.812 249.623 220.599C249.853 220.386 249.991 220.091 250.006 219.778C250.015 219.623 249.993 219.468 249.942 219.321C249.891 219.174 249.812 219.039 249.708 218.924C249.605 218.808 249.48 218.714 249.34 218.647C249.2 218.579 249.048 218.54 248.893 218.532C248.58 218.523 248.276 218.637 248.046 218.851C247.817 219.064 247.681 219.359 247.667 219.672Z" fill="#263238"/>
<path d="M253.3 219.102L253.128 225.377L249.761 224.357L253.3 219.102Z" fill="#E7BE99"/>
<path d="M263.18 201.336C257.561 200.05 255.321 201.68 249.635 201.077C247.303 200.832 245.169 200.719 243.612 201.508C241.836 202.403 240.795 204.364 241.034 206.889C241.438 211.156 246.037 212.25 246.037 212.25C246.037 212.25 249.94 203.47 255.122 203.536C260.304 203.602 263.18 201.336 263.18 201.336Z" fill="#263238"/>
</svg>
