<svg width="200" height="283" viewBox="0 0 200 283" fill="none" xmlns="http://www.w3.org/2000/svg">
<path d="M99.9997 283C154.704 283 199.05 254.204 199.05 218.682C199.05 183.16 154.704 154.364 99.9997 154.364C45.2959 154.364 0.949707 183.16 0.949707 218.682C0.949707 254.204 45.2959 283 99.9997 283Z" fill="#EFF6FF"/>
<path d="M173.564 231.909L175.808 230.622C176.182 230.379 176.493 230.052 176.717 229.666C176.94 229.281 177.07 228.848 177.095 228.403V62.0957C177.07 61.6506 176.941 61.2177 176.717 60.8321C176.494 60.4465 176.182 60.1191 175.808 59.8767L72.642 0.311629C72.2438 0.107851 71.8029 0.00158691 71.3556 0.00158691C70.9083 0.00158691 70.4675 0.107851 70.0693 0.311629L67.8246 1.59799C67.4509 1.84081 67.1397 2.16825 66.9162 2.55378C66.6927 2.9393 66.5632 3.37206 66.5382 3.81697V170.124C66.5622 170.57 66.6913 171.003 66.9149 171.388C67.1385 171.774 67.4502 172.101 67.8246 172.343L171.004 231.909C171.4 232.111 171.839 232.217 172.284 232.217C172.729 232.217 173.167 232.111 173.564 231.909V231.909Z" fill="#6ED0FF"/>
<path opacity="0.4" d="M66.5832 3.61759C66.6668 2.97441 67.2264 2.71071 67.8696 3.08375L171.004 62.6488C171.38 62.8864 171.692 63.2134 171.911 63.6007L176.722 60.8286C176.503 60.4413 176.191 60.1143 175.815 59.8767L72.642 0.311639C72.2441 0.106842 71.8031 0 71.3556 0C70.9081 0 70.4671 0.106842 70.0693 0.311639L67.8181 1.598C67.4796 1.82646 67.1941 2.12503 66.981 2.47348C66.7679 2.82194 66.6323 3.21212 66.5832 3.61759V3.61759Z" fill="white"/>
<path opacity="0.15" d="M171.229 232.011C171.255 232.016 171.281 232.016 171.306 232.011L171.435 232.056H171.487C171.564 232.056 171.641 232.095 171.724 232.114C172.234 232.211 172.761 232.169 173.249 231.992C173.346 231.956 173.44 231.913 173.532 231.864L175.783 230.577C176.156 230.333 176.466 230.005 176.689 229.62C176.913 229.235 177.043 228.803 177.069 228.358V62.0957C177.055 61.6424 176.926 61.2001 176.696 60.8093L171.885 63.5814C172.123 63.9691 172.254 64.413 172.265 64.8678V231.175C172.279 231.417 172.208 231.656 172.065 231.851C171.986 231.951 171.879 232.025 171.758 232.064C171.636 232.103 171.506 232.105 171.384 232.069C171.33 232.055 171.279 232.036 171.229 232.011V232.011Z" fill="black"/>
<path d="M98.7809 30.9335L98.9674 30.8178L101.096 29.5957C101.871 29.1641 102.712 28.8662 103.585 28.7146C103.952 28.631 104.28 28.5345 104.57 28.438C104.891 28.3329 105.205 28.2061 105.509 28.0585L105.354 27.8591L107.747 26.4634C107.949 26.3508 108.165 26.2664 108.39 26.2126C109.297 25.9875 110.654 26.5149 112.005 26.3605C112.496 26.3125 112.971 26.1568 113.396 25.9044C113.821 25.6521 114.184 25.3093 114.462 24.9005C115.285 23.7942 115.78 21.8583 116.507 20.2503L115.864 19.3177C115.928 19.2774 115.995 19.2409 116.063 19.2083L118.269 17.922C118.642 17.7028 119.066 17.5873 119.498 17.5875C120.322 17.631 121.121 17.8905 121.813 18.3401C127.094 21.3952 127.274 28.631 129.178 33.4034C131.081 38.1758 133.776 39.6615 135.243 41.7133C136.709 43.765 136.812 45.2829 140.06 49.7595C143.308 54.236 143.437 55.3294 143.437 56.1913V62.8611L141.032 64.2504L97.7968 39.2756L98.7809 30.9335ZM138.427 56.6608C138.986 56.976 139.449 56.545 139.449 55.6768C139.455 55.2615 139.365 54.8505 139.188 54.4749C139.011 54.0994 138.751 53.7691 138.427 53.5092C137.867 53.1876 137.41 53.6314 137.41 54.4997C137.406 54.9114 137.495 55.3188 137.671 55.691C137.847 56.0632 138.105 56.3904 138.427 56.648V56.6608ZM119.433 37.9378C119.706 38.1366 120.021 38.2692 120.354 38.3252C120.686 38.3812 121.027 38.3591 121.35 38.2605C121.673 38.1619 121.968 37.9896 122.212 37.7572C122.457 37.5248 122.644 37.2387 122.759 36.9216C124.437 37.2432 125.685 35.6352 125.685 32.8438C125.685 29.5636 123.955 25.9167 121.826 24.6818C121.553 24.4832 121.238 24.3508 120.905 24.2952C120.572 24.2396 120.23 24.2624 119.908 24.3616C119.585 24.4608 119.29 24.6338 119.046 24.8669C118.802 25.1 118.615 25.3868 118.501 25.7045C116.822 25.37 115.581 26.9908 115.581 29.7758C115.581 33.0432 117.298 36.69 119.433 37.9249V37.9378ZM105.071 37.3975C105.637 37.7255 106.094 37.2882 106.094 36.4199C106.104 36.0039 106.017 35.5912 105.839 35.2149C105.662 34.8386 105.399 34.5089 105.071 34.2524C104.505 33.9243 104.049 34.3617 104.049 35.23C104.041 35.6438 104.129 36.0537 104.307 36.4276C104.484 36.8015 104.746 37.1291 105.071 37.3847V37.3975Z" fill="#455A64"/>
<path opacity="0.5" d="M138.62 57.8378L143.27 55.1558C143.376 55.4906 143.428 55.8401 143.425 56.1913V62.8611L141.019 64.2504L138.62 62.8611V57.8378Z" fill="#37474F"/>
<path opacity="0.5" d="M133.841 49.515L131.435 43.9643L135.256 41.7261C136.375 43.2761 136.703 44.5303 138.208 46.9937L133.841 49.515Z" fill="#37474F"/>
<path opacity="0.5" d="M124.226 38.4201L123.917 36.7993C124.978 36.3555 125.686 34.9212 125.686 32.8309C125.686 30.0459 124.438 27.0036 122.759 25.3893L126.091 23.4597C127.506 26.6756 128.02 30.5347 129.191 33.4097C129.435 34.0529 129.699 34.5868 129.963 35.1013L124.226 38.4201Z" fill="#37474F"/>
<path d="M98.781 30.9335L98.9675 30.8177C99.6754 30.4892 100.42 30.2473 101.186 30.0974C102.444 29.8765 103.615 29.3109 104.57 28.4637C104.811 28.2452 105.074 28.0513 105.354 27.8848C105.554 27.7662 105.771 27.6794 105.997 27.6276C107.451 27.2738 110.101 28.8625 112.005 26.3927C112.028 26.3697 112.047 26.3438 112.063 26.3155C113.394 24.5274 113.883 20.5268 115.877 19.3498C115.941 19.3096 116.008 19.2731 116.076 19.2405C116.899 18.8546 117.967 18.9253 119.434 19.7614C124.714 22.8166 124.894 30.0524 126.798 34.8248C128.702 39.5972 131.39 41.0829 132.857 43.1347C134.323 45.1864 134.42 46.7043 137.674 51.1809C140.929 55.6574 141.044 56.7573 141.044 57.6127V64.2889L97.8098 39.3142V32.6122C97.7771 32.2662 97.8531 31.9186 98.0271 31.6177C98.2012 31.3168 98.4647 31.0777 98.781 30.9335V30.9335ZM136.047 58.0501C136.613 58.3781 137.07 57.9407 137.07 57.066C137.077 56.6513 136.989 56.2404 136.812 55.8655C136.634 55.4906 136.373 55.1618 136.047 54.9049C135.481 54.5769 135.031 55.0207 135.031 55.889C135.022 56.3031 135.109 56.7137 135.286 57.0885C135.462 57.4634 135.722 57.7925 136.047 58.0501V58.0501ZM119.453 37.9442C119.725 38.143 120.04 38.2756 120.373 38.3316C120.706 38.3876 121.047 38.3655 121.369 38.2669C121.692 38.1683 121.987 37.996 122.232 37.7636C122.476 37.5312 122.663 37.2451 122.778 36.928C123.156 36.0812 123.336 35.1597 123.305 34.233C123.305 30.9592 121.582 27.306 119.446 26.0775C119.158 25.9047 118.843 25.7808 118.514 25.7109C116.835 25.3764 115.594 26.9972 115.594 29.7822C115.581 33.0432 117.298 36.69 119.434 37.9249L119.453 37.9442ZM102.672 38.7546C103.238 39.0826 103.695 38.6453 103.695 37.7834C103.704 37.3685 103.617 36.9571 103.439 36.582C103.262 36.2068 102.999 35.8782 102.672 35.6223C102.113 35.2943 101.656 35.7317 101.656 36.5999C101.648 37.0131 101.735 37.4225 101.912 37.7963C102.088 38.1701 102.348 38.498 102.672 38.7546V38.7546Z" fill="#37474F"/>
<path d="M115.581 29.75C115.581 33.0303 117.298 36.6771 119.44 37.912C119.712 38.1108 120.027 38.2435 120.36 38.2995C120.693 38.3555 121.034 38.3333 121.356 38.2347C121.679 38.1361 121.974 37.9638 122.219 37.7314C122.463 37.4991 122.65 37.213 122.765 36.8958C122.437 36.8231 122.122 36.6994 121.833 36.5292C119.704 35.2943 117.973 31.6474 117.973 28.3672C117.945 27.4428 118.126 26.524 118.501 25.6787C116.822 25.3571 115.581 26.9715 115.581 29.75Z" fill="#263238"/>
<path d="M136.047 58.0501C136.613 58.3716 137.07 57.9343 137.07 57.0724C137.078 56.6568 136.989 56.245 136.812 55.869C136.635 55.4931 136.373 55.1631 136.047 54.9049C135.488 54.5769 135.031 55.0271 135.031 55.889C135.024 56.3029 135.112 56.7129 135.288 57.0876C135.464 57.4622 135.724 57.7915 136.047 58.0501" fill="#263238"/>
<path d="M102.673 38.7547C103.239 39.0763 103.695 38.6453 103.695 37.777C103.703 37.3614 103.615 36.9496 103.438 36.5736C103.26 36.1977 102.998 35.8678 102.673 35.6095C102.113 35.2879 101.656 35.7317 101.656 36.6C101.65 37.0129 101.738 37.4219 101.914 37.7954C102.09 38.1689 102.35 38.4971 102.673 38.7547Z" fill="#263238"/>
<path d="M164.308 78.2075L74.5329 26.3734C74.2946 26.253 74.0313 26.1903 73.7643 26.1903C73.4973 26.1903 73.2341 26.253 72.9957 26.3734L72.1274 26.8751C71.9042 27.0213 71.7186 27.218 71.5856 27.4493C71.4527 27.6807 71.3761 27.9401 71.3621 28.2065V165.166C71.375 165.432 71.4512 165.692 71.5843 165.924C71.7173 166.155 71.9035 166.352 72.1274 166.497L161.903 218.331C162.141 218.451 162.404 218.514 162.671 218.514C162.938 218.514 163.202 218.451 163.44 218.331L164.308 217.829C164.533 217.684 164.72 217.488 164.854 217.257C164.989 217.025 165.066 216.765 165.08 216.498V79.5389C165.065 79.272 164.987 79.0124 164.853 78.7811C164.719 78.5498 164.532 78.3533 164.308 78.2075V78.2075Z" fill="white"/>
<path d="M71.3883 27.975C71.4848 27.6598 71.7806 27.5569 72.1279 27.7627L161.903 79.5967C162.135 79.7338 162.324 79.9319 162.45 80.1692L164.855 78.7863C164.726 78.5499 164.537 78.3507 164.309 78.2075L74.5335 26.3734C74.2951 26.253 74.0319 26.1903 73.7648 26.1903C73.4978 26.1903 73.2346 26.253 72.9962 26.3734L72.1279 26.8751C71.9375 26.9998 71.7739 27.1613 71.6468 27.3502C71.5198 27.5391 71.4319 27.7515 71.3883 27.975V27.975Z" fill="#FAFAFA"/>
<path d="M162.089 218.415C162.181 218.448 162.276 218.474 162.372 218.492H162.52C162.676 218.508 162.834 218.508 162.99 218.492C163.086 218.473 163.18 218.447 163.273 218.415L163.446 218.331L164.308 217.836C164.531 217.689 164.717 217.492 164.849 217.261C164.982 217.03 165.059 216.771 165.074 216.504V79.5388C165.069 79.2729 164.994 79.0131 164.855 78.7863L162.45 80.1691C162.586 80.3995 162.664 80.6603 162.675 80.9281V217.887C162.675 218.305 162.417 218.511 162.089 218.415Z" fill="#E0E0E0"/>
<path d="M91.584 45.7717L93.9766 44.3888C94.3521 44.2047 94.7669 44.115 95.1849 44.1273C95.6029 44.1396 96.0117 44.2537 96.3757 44.4596C99.1671 45.6881 100.376 46.2476 101.817 46.8522L102.859 47.2703C103.425 47.4954 104.551 47.3024 104.203 45.3407L100.492 35.3521H100.55L102.898 33.995C103.017 33.9202 103.15 33.8719 103.29 33.8535C103.361 33.8535 103.451 33.8535 103.547 33.8535C105.065 33.8149 105.477 24.0193 105.509 23.717L105.618 23.6591L107.94 22.3213C108.344 22.0924 108.801 21.9768 109.265 21.9868C110.041 22.0226 110.797 22.2431 111.471 22.63C115.118 24.5595 118.803 30.226 119.704 35.3264C120.27 38.5423 123.505 43.4948 125.377 45.3214C127.248 47.1481 127.377 48.666 127.377 48.666L128.831 56.9116L129.3 59.555C129.641 61.5232 131.661 63.4141 131.661 63.4141L139.192 68.9841C143.907 72.8946 145.238 76.8502 146.139 81.7384V81.777C146.139 81.9506 146.139 82.0664 146.055 82.1114C146.043 82.1195 146.028 82.1237 146.013 82.1237C145.998 82.1237 145.984 82.1195 145.971 82.1114L145.007 81.5647L93.1919 51.6825C93.0701 51.5993 92.9658 51.4928 92.8852 51.3692C92.8047 51.2456 92.7493 51.1072 92.7224 50.9621C92.7224 50.9621 92.7224 50.9621 92.7224 50.9621C92.4266 49.1805 91.5647 45.8167 91.5647 45.8167L91.584 45.7717ZM106.564 30.6376C107.123 33.7699 109.381 37.2688 111.626 38.4458C113.176 39.2562 114.308 38.7546 114.687 37.3267C114.966 37.4358 115.267 37.4729 115.564 37.4347C115.861 37.3965 116.143 37.2841 116.385 37.108C117.105 36.542 110.506 25.2091 109.953 25.46C109.696 25.5955 109.473 25.7873 109.3 26.0212C109.128 26.2551 109.01 26.525 108.956 26.8107C107.104 26.2511 106.068 27.8205 106.564 30.6376Z" fill="#455A64"/>
<path opacity="0.5" d="M138.62 74.4898L142.395 72.3094C144.582 75.1909 145.463 78.2203 146.113 81.7385V81.7771C146.113 81.9507 146.113 82.0665 146.029 82.1115C146.017 82.1196 146.002 82.1238 145.987 82.1238C145.973 82.1238 145.958 82.1196 145.946 82.1115V82.1115L142.968 79.7575L138.62 74.4898Z" fill="#37474F"/>
<path opacity="0.5" d="M129.551 60.3205L124.225 63.3885L121.826 49.515L126.624 46.7429C127.006 47.2915 127.263 47.9173 127.377 48.576L128.83 56.8216L129.3 59.4651C129.353 59.7583 129.437 60.0451 129.551 60.3205V60.3205Z" fill="#37474F"/>
<path opacity="0.5" d="M117.183 28.6116C118.396 30.6592 119.249 32.9 119.704 35.2363C120.086 36.8923 120.72 38.48 121.582 39.9444L117.022 42.5815L114.751 37.3395C115.022 37.4372 115.312 37.4671 115.597 37.4268C115.882 37.3864 116.152 37.277 116.385 37.108C116.758 36.8121 115.189 33.6798 113.51 30.7341L117.183 28.6116Z" fill="#37474F"/>
<path d="M91.5514 45.791H91.5836C91.9599 45.6132 92.3732 45.5275 92.7892 45.5409C93.2052 45.5543 93.6121 45.6665 93.9762 45.8682C97.3979 47.3797 98.4335 47.875 100.466 48.6789C101.006 48.8976 102.106 48.724 101.817 46.8716C101.82 46.8288 101.82 46.7858 101.817 46.743L101.347 44.1059L100.061 36.9216C100.061 36.9216 99.7649 35.7896 100.511 35.3651H100.569C100.756 35.2785 100.961 35.2345 101.167 35.2364C101.604 35.1839 102.024 35.0334 102.394 34.7962C102.765 34.559 103.078 34.2412 103.309 33.8665C103.71 33.2694 103.987 32.5983 104.125 31.8926C104.263 31.1868 104.259 30.4606 104.113 29.7565C103.566 26.6757 104.164 24.5146 105.528 23.7106L105.637 23.6463C106.518 23.1768 107.702 23.254 109.085 23.9808C112.738 25.9103 116.423 31.5767 117.317 36.6772C117.89 39.8931 121.125 44.852 122.997 46.6722C124.868 48.4924 124.99 50.0168 124.99 50.0168L126.399 58.2173L126.862 60.8544C127.209 62.8225 129.229 64.7135 129.229 64.7135L136.754 70.3606C139.758 72.7511 141.926 76.0319 142.948 79.7318C142.948 79.7318 145.772 81.925 145.945 82.0987L144.981 81.552L93.0179 51.6826C93.0179 51.6826 92.4262 51.3546 92.2911 51.271C92.156 51.1873 90.0657 49.2128 90.0657 49.2128C90.1814 47.5276 90.6831 46.312 91.5514 45.791ZM106.563 30.6377C107.123 33.77 109.38 37.2689 111.625 38.4459C113.175 39.2563 114.307 38.7546 114.687 37.3268C114.856 36.5252 114.856 35.6971 114.687 34.8955C114.127 31.7568 111.863 28.2643 109.618 27.0938C109.413 26.9809 109.197 26.8862 108.975 26.8108C107.104 26.2512 106.068 27.8205 106.563 30.6377Z" fill="#37474F"/>
<path d="M106.564 30.6377C107.123 33.77 109.381 37.2689 111.625 38.4459C113.176 39.2563 114.308 38.7546 114.687 37.3268C114.466 37.2538 114.251 37.1634 114.044 37.0566C111.793 35.8796 109.542 32.3807 108.982 29.242C108.813 28.4404 108.813 27.6124 108.982 26.8108C107.104 26.2512 106.068 27.8206 106.564 30.6377Z" fill="#263238"/>
<path d="M108.731 26.9458C108.521 26.9331 108.311 26.975 108.121 27.0675C107.932 27.1599 107.77 27.2997 107.651 27.4732C106.718 28.7982 107.612 32.1685 107.998 33.2619C108.532 34.7605 112.018 38.2851 112.976 38.2851C113.294 38.2328 113.597 38.1162 113.868 37.9426C114.139 37.769 114.372 37.5419 114.552 37.2753C114.71 36.503 114.71 35.7065 114.552 34.9342C114.005 31.834 111.767 28.3866 109.561 27.216C109.364 27.1123 109.16 27.0241 108.95 26.9523H108.737L108.731 26.9458ZM108.737 26.8043H108.975C109.198 26.8798 109.413 26.9745 109.619 27.0873C111.863 28.2579 114.121 31.7504 114.687 34.8891C114.856 35.6907 114.856 36.5188 114.687 37.3204C114.493 37.61 114.242 37.8566 113.949 38.0447C113.655 38.2328 113.326 38.3585 112.982 38.4138V38.4138C111.941 38.4138 108.435 34.857 107.876 33.2683C107.316 31.6797 106.1 26.7657 108.75 26.7657L108.737 26.8043Z" fill="#263238"/>
<path d="M145.971 82.1179L93.0503 51.6954L92.3171 51.2902C92.1885 51.213 90.0981 49.2256 90.0981 49.2256L142.981 79.751C142.981 79.751 146.184 82.2337 145.971 82.1179Z" fill="#263238"/>
<path d="M153.024 167.128V168.331C153.024 168.974 152.561 169.25 151.995 168.922L81.9781 128.486C81.6793 128.293 81.4304 128.032 81.2516 127.724C81.0728 127.417 80.9691 127.072 80.949 126.717V125.508C80.949 124.864 81.4121 124.588 81.9781 124.916L151.995 165.353C152.294 165.547 152.543 165.809 152.721 166.117C152.9 166.426 153.004 166.772 153.024 167.128V167.128Z" fill="#E0E0E0"/>
<path d="M153.024 172.917V174.119C153.024 174.763 152.561 175.039 151.995 174.711L81.9781 134.274C81.6793 134.081 81.4304 133.821 81.2516 133.513C81.0728 133.206 80.9691 132.861 80.949 132.505V131.296C80.949 130.653 81.4121 130.377 81.9781 130.705L151.995 171.141C152.294 171.336 152.543 171.598 152.721 171.906C152.9 172.215 153.004 172.561 153.024 172.917V172.917Z" fill="#E0E0E0"/>
<path d="M155.864 200.182L111.179 174.391V175.253L155.864 201.043V200.182Z" fill="#E0E0E0"/>
<path d="M145.467 186.789C143.61 185.545 141.537 183.448 141.872 180.969C142.071 179.462 143.299 178.88 144.686 179.414C147.405 180.458 149.119 184.548 150.068 187.02C150.865 189.18 151.957 193.254 148.712 193.948C144.909 194.745 141.968 189.164 141.107 186.262C140.987 185.856 141.649 185.633 141.84 185.999C142.175 186.661 144.415 191.03 141.952 190.48C141.075 190.288 140.572 188.925 140.254 188.232C139.695 186.988 139.416 185.258 138.54 184.19L139.185 183.895C139.145 185.043 139.185 185.824 138.388 186.717C138.327 186.8 138.236 186.856 138.135 186.872C138.033 186.888 137.93 186.864 137.846 186.804C136.586 185.633 136.499 183.727 135.111 182.667L135.677 182.396C135.677 182.762 135.845 183.807 135.869 184.293C135.869 184.524 135.558 184.676 135.374 184.604C135.194 184.567 135.027 184.484 134.887 184.364C134.748 184.244 134.641 184.091 134.577 183.918L135.183 183.695C134.657 186.509 132.257 183.695 131.436 182.627C129.044 179.438 127.338 176.018 127.275 171.936C127.275 171.609 127.888 171.442 127.896 171.832C127.952 174.973 129.323 177.851 130.208 180.817C131.157 184.006 131.946 187.267 132.6 190.551L132.034 190.759C131.854 188.434 131.26 186.161 130.28 184.046C129.662 182.162 128.63 180.44 127.259 179.007L127.785 178.808C127.646 179.628 127.688 180.468 127.908 181.27C128.129 182.071 128.522 182.815 129.06 183.448C129.228 183.663 128.853 184.07 128.686 183.855C127.809 182.754 126.366 182.404 125.425 181.335C124.541 180.135 123.754 178.866 123.073 177.541L123.504 177.325C123.559 180.004 121.032 175.827 120.689 175.38L121.104 175.221C120.937 175.771 120.713 176.137 120.092 176.145C118.856 176.145 118.393 174.344 117.461 174.136C117.461 174.136 117.054 174.479 116.911 174.495C116.396 174.571 115.872 174.472 115.42 174.216C114.377 173.542 113.535 172.6 112.98 171.49C112.837 171.234 113.323 170.916 113.482 171.195C114.096 172.231 116.01 174.981 117.397 173.634C117.485 173.554 117.668 173.475 117.764 173.586C118.138 174.049 120.283 176.504 120.681 175.181C120.729 175.021 120.96 174.846 121.088 175.021C121.415 175.452 121.678 175.93 121.981 176.385C122.148 176.632 123.081 178.202 123.049 177.405C123.049 177.214 123.344 176.99 123.48 177.19C124.349 178.521 124.987 180.267 126.198 181.351C127.099 182.149 128.279 182.452 129.06 183.416L128.686 183.823C128.083 183.144 127.64 182.34 127.388 181.468C127.135 180.597 127.08 179.68 127.227 178.784C127.238 178.73 127.264 178.679 127.3 178.636C127.337 178.594 127.383 178.561 127.436 178.541C127.488 178.521 127.544 178.515 127.6 178.523C127.655 178.53 127.708 178.552 127.753 178.585C129.244 179.956 130.081 181.886 130.822 183.735C131.817 185.895 132.422 188.213 132.608 190.583C132.608 190.83 132.106 191.11 132.042 190.791C131.368 187.246 130.493 183.743 129.419 180.299C128.542 177.525 127.354 174.854 127.299 171.904L127.92 171.8C127.979 174.855 128.942 177.823 130.687 180.331C131.133 181.025 131.604 181.718 132.114 182.372C132.337 182.667 134.314 185.25 134.569 183.751C134.609 183.536 135.032 183.233 135.175 183.528L135.749 184.038L135.255 184.341C135.215 183.695 135.087 183.089 135.056 182.436C135.056 182.188 135.438 182.029 135.622 182.173C137.033 183.249 137.136 185.154 138.404 186.326L137.862 186.414C138.292 185.693 138.503 184.861 138.468 184.022C138.468 183.743 138.898 183.472 139.114 183.727C140.086 184.891 140.389 186.749 141.027 188.104C141.378 188.845 142.621 190.823 142.223 188.718C141.959 187.846 141.581 187.012 141.099 186.238L141.832 185.975C142.581 188.511 144.583 192.353 147.317 193.15C150.809 194.195 150.203 189.866 149.565 187.937C148.806 185.689 147.68 183.582 146.233 181.702C145.968 181.328 145.666 180.981 145.332 180.666C144.622 180.028 144.415 179.869 143.427 180.435C142.438 181.001 142.39 181.312 142.629 182.38C142.776 182.91 142.996 183.417 143.283 183.887C143.914 184.85 144.707 185.697 145.627 186.39C145.754 186.494 145.571 186.836 145.428 186.733L145.467 186.789Z" fill="#455A64"/>
<path d="M66.4286 180.217C67.5745 179.709 68.824 179.479 70.0756 179.545C71.3271 179.611 72.5454 179.972 73.6313 180.598C74.2661 180.96 74.741 181.548 74.9609 182.245C75.0158 182.087 75.0485 181.922 75.058 181.755L75.0107 182.754L75.0025 182.808L74.9864 182.961C74.9752 183.032 74.9574 183.101 74.9333 183.169L74.8911 183.298C74.8624 183.313 74.8601 183.379 74.8373 183.419C74.7424 183.602 74.6259 183.773 74.4902 183.928L74.3647 184.064C74.3393 184.081 74.3124 184.094 74.2844 184.105C74.2465 184.142 74.2064 184.177 74.1644 184.21C73.9316 184.403 73.677 184.57 73.4058 184.704C72.2613 185.211 71.0135 185.441 69.7636 185.375C68.5136 185.31 67.2968 184.95 66.2118 184.326C65.7193 184.034 65.314 183.615 65.0378 183.113L64.9356 182.912L64.8766 182.711L64.8498 182.588L64.8148 182.519C64.8036 182.467 64.7984 182.414 64.7992 182.361L64.801 182.208L64.8434 181.342C64.8434 181.479 64.8618 181.615 64.8982 181.747C65.189 181.057 65.7383 180.508 66.4286 180.217V180.217ZM75.0032 182.512L75.0324 182.569L75.0032 182.512Z" fill="#6ED0FF"/>
<path d="M69.4262 94.6656L79.61 95.1883L79.5541 96.184L75.058 181.755C75.0485 181.922 75.0158 182.087 74.961 182.245C74.6662 182.918 74.1245 183.452 73.4475 183.738C72.3012 184.243 71.052 184.472 69.8008 184.406C68.5496 184.34 67.3314 183.981 66.2449 183.357C65.7555 183.061 65.3526 182.641 65.0766 182.14C65.0047 182.004 64.9505 181.859 64.9152 181.71C64.8788 181.578 64.8604 181.441 64.8604 181.304L64.8599 181.233L69.4262 94.6656Z" fill="#EBEBEB"/>
<path d="M70.8087 96.8272C68.8779 95.5731 68.9763 93.7112 71.0223 92.6691C72.1682 92.1613 73.4177 91.9311 74.6693 91.9973C75.9208 92.0635 77.1391 92.4241 78.225 93.05C80.1529 94.2985 80.0545 96.1603 78.0027 97.2053C76.8583 97.7121 75.6105 97.942 74.3605 97.8763C73.1106 97.8107 71.8937 97.4512 70.8087 96.8272V96.8272Z" fill="#6ED0FF"/>
<path d="M72.0651 87.4894C72.042 87.529 72.0249 87.5718 72.0142 87.6164L69.5908 94.0115L69.574 94.0634L69.5317 94.1788L69.5063 94.2423C69.225 95.1073 69.6694 96.0647 70.814 96.8099C71.899 97.4339 73.1159 97.7933 74.3658 97.859C75.6157 97.9247 76.8635 97.6948 78.008 97.1879C79.2001 96.5808 79.7257 95.6995 79.5897 94.8232L79.5664 94.7774C79.5498 94.6888 79.5271 94.6015 79.4983 94.5161L79.472 94.4645L77.7432 87.8672C77.6194 87.4748 77.3504 87.1445 76.9913 86.9437C76.3717 86.5857 75.6764 86.3789 74.9619 86.3402C74.2473 86.3015 73.5337 86.4321 72.8791 86.7211C72.5276 86.8761 72.2401 87.1474 72.0651 87.4894V87.4894Z" fill="#E0E0E0"/>
<path d="M69.5661 154.915L69.5585 155.056C69.5799 155.202 69.6353 155.34 69.7201 155.46C69.805 155.579 69.917 155.678 70.0469 155.746C70.4327 155.969 70.8657 156.098 71.3108 156.122C71.7558 156.147 72.2003 156.065 72.608 155.885C72.7408 155.83 72.8594 155.746 72.9548 155.639C73.0502 155.531 73.1199 155.404 73.1586 155.265V155.265L73.1658 155.081L76.485 91.9152L72.9934 89.6514L69.5661 154.915Z" fill="#455A64"/>
<path d="M76.166 97.7797L76.4763 91.9123L72.9847 89.6486L72.5633 97.5936C73.7382 97.9059 74.9653 97.9693 76.166 97.7797Z" fill="#37474F"/>
<path d="M73.3796 84.7844L71.1589 90.5855L71.0996 90.7384C70.8972 91.3612 71.2014 92.0435 72.0337 92.5724C72.8004 93.0199 73.6622 93.2795 74.5485 93.3299C75.4349 93.3804 76.3205 93.2201 77.133 92.8624C77.9698 92.4362 78.342 91.8208 78.2511 91.203L78.2336 91.1686L78.1921 91.0021L76.6109 84.9215C76.5342 84.7089 76.3866 84.5292 76.1929 84.4126C75.8426 84.2124 75.4502 84.0975 75.0473 84.077C74.6444 84.0565 74.2424 84.131 73.8736 84.2946C73.6508 84.3863 73.4732 84.5623 73.3796 84.7844V84.7844Z" fill="#6ED0FF"/>
<path opacity="0.1" d="M73.3796 84.7844L71.1589 90.5855L71.0996 90.7384C70.8972 91.3612 71.2014 92.0435 72.0337 92.5724C72.8004 93.0199 73.6622 93.2795 74.5485 93.3299C75.4349 93.3804 76.3205 93.2201 77.133 92.8624C77.9698 92.4362 78.342 91.8208 78.2511 91.203L78.2336 91.1686L78.1921 91.0021L76.6109 84.9215C76.5342 84.7089 76.3866 84.5292 76.1929 84.4126C75.8426 84.2124 75.4502 84.0975 75.0473 84.077C74.6444 84.0565 74.2424 84.131 73.8736 84.2946C73.6508 84.3863 73.4732 84.5623 73.3796 84.7844V84.7844Z" fill="black"/>
<path d="M73.8651 84.2775C74.2339 84.114 74.636 84.0394 75.0388 84.0599C75.4417 84.0804 75.8342 84.1954 76.1844 84.3955C76.3794 84.5104 76.5259 84.6923 76.5967 84.9073V84.9073L77.3961 87.9648C77.5262 88.4471 77.2652 88.9409 76.6176 89.2708C76.0284 89.5329 75.3856 89.6522 74.7416 89.619C74.0975 89.5858 73.4704 89.401 72.9113 89.0797C72.6654 88.9683 72.4646 88.7765 72.3421 88.5359C72.2196 88.2953 72.1825 88.0202 72.237 87.7558L72.2793 87.6404L73.3682 84.7616C73.4143 84.6517 73.482 84.5522 73.5674 84.469C73.6528 84.3858 73.754 84.3207 73.8651 84.2775V84.2775Z" fill="#6ED0FF"/>
<path opacity="0.1" d="M73.8032 85.6298C73.1846 85.2231 73.2148 84.6303 73.8509 84.3063C74.2197 84.1427 74.6218 84.0682 75.0247 84.0887C75.4276 84.1092 75.82 84.2241 76.1703 84.4243C76.7888 84.831 76.753 85.4267 76.0939 85.7624C75.7278 85.9191 75.3305 85.9886 74.933 85.9656C74.5355 85.9426 74.1488 85.8277 73.8032 85.6298V85.6298Z" fill="black"/>
<path d="M68.725 170.624C68.7306 170.784 68.7793 170.94 68.8658 171.075C68.9523 171.21 69.0736 171.319 69.2168 171.391C69.6005 171.614 70.0313 171.743 70.4743 171.769C70.9173 171.794 71.3599 171.714 71.7664 171.536C71.9155 171.481 72.0467 171.386 72.146 171.261C72.2454 171.137 72.3092 170.988 72.3307 170.83V170.83L73.1356 155.263C73.0969 155.401 73.0272 155.529 72.9318 155.636C72.8364 155.743 72.7178 155.828 72.585 155.882C72.1773 156.062 71.7329 156.144 71.2878 156.12C70.8428 156.095 70.4097 155.966 70.0239 155.743C69.894 155.675 69.782 155.577 69.6972 155.457C69.6123 155.337 69.5569 155.199 69.5356 155.054L68.725 170.624Z" fill="#FAFAFA"/>
<path d="M69.289 169.918C69.6963 169.74 70.1398 169.66 70.5837 169.685C71.0275 169.709 71.4594 169.838 71.8444 170.06C71.9993 170.118 72.1317 170.224 72.2225 170.362C72.3133 170.5 72.3577 170.664 72.3493 170.829C72.3409 170.994 72.2802 171.152 72.1758 171.28C72.0715 171.409 71.9291 171.5 71.7691 171.542C71.3626 171.72 70.9199 171.8 70.477 171.774C70.034 171.749 69.6032 171.62 69.2195 171.397C69.0656 171.339 68.934 171.234 68.8437 171.097C68.7533 170.959 68.7088 170.797 68.7166 170.632C68.7243 170.468 68.7839 170.311 68.8867 170.182C68.9895 170.054 69.1304 169.962 69.289 169.918V169.918Z" fill="#F5F5F5"/>
<path d="M65.7446 174.907L65.7651 174.947L65.7598 175.007L65.44 181.139L65.4353 181.286C65.474 181.671 65.608 182.041 65.8253 182.361C66.0427 182.681 66.3365 182.942 66.6801 183.121C67.6566 183.678 68.7507 183.997 69.8736 184.052C70.9965 184.107 72.1166 183.897 73.143 183.438C73.5236 183.292 73.8582 183.048 74.1123 182.729C74.3664 182.411 74.5306 182.03 74.5879 181.626V181.626L74.9129 175.419L74.8983 175.391C74.869 174.996 74.7392 174.614 74.5213 174.283C74.3034 173.952 74.0046 173.682 73.6531 173.499C72.675 172.943 71.5799 172.625 70.4563 172.571C69.3326 172.516 68.2119 172.726 67.1845 173.184C66.8184 173.326 66.4944 173.559 66.2426 173.86C65.9908 174.161 65.8195 174.521 65.7446 174.907V174.907Z" fill="#6ED0FF"/>
<path opacity="0.05" d="M65.7446 174.907L65.7651 174.947L65.7598 175.007L65.44 181.139L65.4353 181.286C65.474 181.671 65.608 182.041 65.8253 182.361C66.0427 182.681 66.3365 182.942 66.6801 183.121C67.6566 183.678 68.7507 183.997 69.8736 184.052C70.9965 184.107 72.1166 183.897 73.143 183.438C73.5236 183.292 73.8582 183.048 74.1123 182.729C74.3664 182.411 74.5306 182.03 74.5879 181.626V181.626L74.9129 175.419L74.8983 175.391C74.869 174.996 74.7392 174.614 74.5213 174.283C74.3034 173.952 74.0046 173.682 73.6531 173.499C72.675 172.943 71.5799 172.625 70.4563 172.571C69.3326 172.516 68.2119 172.726 67.1845 173.184C66.8184 173.326 66.4944 173.559 66.2426 173.86C65.9908 174.161 65.8195 174.521 65.7446 174.907V174.907Z" fill="black"/>
<path opacity="0.1" d="M66.9539 176.954C65.2197 175.831 65.3225 174.176 67.1622 173.239C68.1896 172.781 69.3104 172.571 70.434 172.625C71.5576 172.68 72.6527 172.998 73.6309 173.554C75.368 174.683 75.2769 176.36 73.4372 177.297C72.4057 177.754 71.281 177.961 70.1545 177.901C69.028 177.842 67.9315 177.517 66.9539 176.954V176.954Z" fill="black"/>
<path d="M74.3316 82.3871L74.1492 84.9485C74.1472 85.0251 74.1672 85.1007 74.207 85.1662C74.2468 85.2317 74.3046 85.2844 74.3735 85.3179C74.5516 85.4238 74.7527 85.4851 74.9596 85.4966C75.1665 85.5081 75.3732 85.4694 75.5619 85.3838C75.6304 85.3558 75.6907 85.3108 75.737 85.2531C75.7834 85.1954 75.8143 85.1269 75.827 85.054L76.0122 82.4983C76.0144 82.3548 75.9818 82.2129 75.9171 82.0848C75.8157 81.8856 75.6393 81.735 75.4268 81.6659C75.2143 81.5968 74.9831 81.6149 74.7839 81.7164C74.658 81.7807 74.5504 81.8761 74.4712 81.9934C74.3921 82.1107 74.3441 82.2461 74.3316 82.3871Z" fill="#455A64"/>
<path d="M74.359 82.2286L74.3256 82.3755C74.3377 82.4423 74.365 82.5053 74.4053 82.5599C74.4456 82.6144 74.4978 82.659 74.558 82.6902C74.7363 82.7948 74.9371 82.8548 75.1435 82.8653C75.3498 82.8758 75.5557 82.8364 75.7436 82.7505C75.8115 82.7244 75.8714 82.681 75.9174 82.6246C75.9633 82.5683 75.9939 82.5009 76.0058 82.4292L75.9854 82.3891L75.965 82.349C75.9566 82.257 75.9284 82.168 75.8825 82.0878C75.7811 81.8887 75.6047 81.738 75.3922 81.6689C75.1797 81.5999 74.9484 81.618 74.7493 81.7194C74.5581 81.8321 74.4181 82.0147 74.359 82.2286V82.2286Z" fill="#263238"/>
<path d="M110.986 112.685L110.343 119.31L109.314 118.731L109.571 116.03L107.963 115.129L107.706 117.831L106.677 117.252L107.32 110.627L108.349 111.206L108.092 113.779L109.7 114.679L109.957 112.107L110.986 112.685Z" fill="#002B5D"/>
<path d="M112.015 119.889C111.693 119.439 111.5 118.86 111.372 118.217C111.243 117.574 111.179 116.93 111.243 116.287C111.307 115.644 111.436 115.13 111.693 114.679C111.951 114.293 112.208 114.036 112.594 113.907C112.98 113.779 113.301 113.843 113.751 114.1C114.137 114.293 114.523 114.679 114.781 115.13C115.102 115.58 115.295 116.159 115.424 116.802C115.552 117.445 115.617 118.088 115.552 118.731C115.488 119.375 115.359 119.889 115.102 120.339C114.845 120.725 114.588 120.982 114.202 121.111C113.816 121.24 113.494 121.175 113.044 120.918C112.658 120.661 112.272 120.339 112.015 119.889ZM114.009 119.375C114.266 119.117 114.395 118.731 114.459 118.152C114.523 117.574 114.459 117.059 114.266 116.609C114.073 116.159 113.816 115.837 113.494 115.644C113.173 115.451 112.851 115.451 112.658 115.708C112.401 115.966 112.272 116.352 112.208 116.93C112.143 117.509 112.208 118.024 112.401 118.474C112.594 118.924 112.851 119.246 113.173 119.439C113.494 119.632 113.816 119.632 114.009 119.375Z" fill="#002B5D"/>
<path d="M120.376 118.024L118.254 123.812L116.967 123.105L116.067 115.58L117.16 116.223L117.739 121.819L119.283 117.445L120.376 118.024Z" fill="#002B5D"/>
<path d="M122.82 125.163L121.277 124.263L120.891 125.292L119.797 124.713L121.984 118.989L123.142 119.632L124.042 127.093L122.949 126.449L122.82 125.163ZM122.692 123.748L122.434 121.047L121.663 123.169L122.692 123.748Z" fill="#002B5D"/>
<path d="M93.3627 121.69L92.7196 118.667L92.5266 118.538L92.2693 121.047L91.2402 120.468L91.8834 113.843L93.62 114.808C93.9416 115.001 94.1989 115.258 94.4561 115.58C94.6491 115.901 94.8421 116.223 94.9064 116.609C94.9707 116.995 95.035 117.381 94.9707 117.767C94.9064 118.217 94.7777 118.538 94.6491 118.796C94.4561 119.053 94.1989 119.182 93.8773 119.117L94.5848 122.269L93.3627 121.69ZM92.5909 117.381L93.2341 117.767C93.4271 117.895 93.5557 117.895 93.6843 117.767C93.813 117.702 93.8773 117.509 93.8773 117.252C93.8773 116.995 93.8773 116.802 93.813 116.609C93.7486 116.352 93.62 116.223 93.4271 116.094L92.7839 115.773L92.5909 117.381Z" fill="#002B5D"/>
<path d="M96.7072 117.895L96.5786 119.246L97.9293 120.018L97.8006 121.24L96.4499 120.468L96.3213 121.947L97.8649 122.848L97.7363 124.134L95.1636 122.655L95.8068 116.03L98.3795 117.509L98.2508 118.796L96.7072 117.895Z" fill="#002B5D"/>
<path d="M101.724 122.783C101.596 123.041 101.403 123.169 101.145 123.234C100.888 123.298 100.567 123.234 100.245 123.041L99.6018 122.655L99.3445 125.034L98.3154 124.456L98.9586 117.831L100.631 118.796C100.952 118.989 101.21 119.246 101.467 119.567C101.66 119.889 101.853 120.211 101.917 120.596C101.982 120.982 102.046 121.368 101.982 121.819C101.982 122.204 101.917 122.526 101.724 122.783ZM100.76 121.754C100.888 121.69 100.952 121.497 100.952 121.24C100.952 120.982 100.952 120.725 100.888 120.532C100.824 120.339 100.695 120.211 100.502 120.082L99.9234 119.76L99.7304 121.433L100.309 121.754C100.502 121.819 100.695 121.883 100.76 121.754Z" fill="#002B5D"/>
<path d="M104.232 127.8L103.589 124.777L103.332 124.649L103.075 127.157L102.045 126.578L102.689 119.953L104.425 120.918C104.747 121.111 105.004 121.368 105.261 121.69C105.454 122.012 105.647 122.333 105.712 122.719C105.776 123.105 105.84 123.491 105.776 123.877C105.712 124.327 105.583 124.649 105.454 124.906C105.261 125.163 105.004 125.292 104.682 125.227L105.39 128.379L104.232 127.8ZM103.525 123.555L104.168 123.941C104.361 124.07 104.49 124.07 104.618 123.941C104.747 123.877 104.811 123.684 104.811 123.427C104.811 123.169 104.811 122.976 104.747 122.783C104.682 122.59 104.554 122.462 104.361 122.333L103.718 121.947L103.525 123.555Z" fill="#002B5D"/>
<path d="M107.577 124.07L107.448 125.42L108.799 126.192L108.67 127.414L107.32 126.642L107.191 128.122L108.735 129.022L108.606 130.309L106.033 128.829L106.676 122.204L109.249 123.684L109.12 124.97L107.577 124.07Z" fill="#002B5D"/>
<path d="M109.957 130.887C109.699 130.566 109.571 130.244 109.442 129.858C109.313 129.472 109.313 129.022 109.313 128.636L110.407 129.28C110.407 129.537 110.407 129.73 110.536 129.923C110.6 130.116 110.728 130.244 110.857 130.309C110.986 130.373 111.114 130.437 111.243 130.373C111.372 130.309 111.372 130.18 111.436 129.987C111.436 129.794 111.436 129.665 111.372 129.537C111.307 129.408 111.243 129.28 111.114 129.151C111.05 129.022 110.857 128.894 110.728 128.701C110.471 128.443 110.278 128.186 110.085 127.929C109.957 127.672 109.828 127.414 109.699 127.093C109.571 126.771 109.571 126.385 109.635 125.999C109.699 125.356 109.892 124.97 110.214 124.777C110.536 124.584 110.921 124.649 111.372 124.906C111.822 125.163 112.208 125.549 112.465 126.064C112.722 126.578 112.787 127.157 112.787 127.8L111.693 127.157C111.693 126.964 111.693 126.771 111.565 126.578C111.5 126.385 111.372 126.257 111.243 126.192C111.114 126.128 110.986 126.128 110.921 126.192C110.857 126.257 110.793 126.385 110.793 126.578C110.793 126.771 110.793 126.964 110.921 127.157C111.05 127.35 111.243 127.607 111.5 127.865C111.758 128.186 111.951 128.443 112.143 128.636C112.272 128.894 112.401 129.151 112.529 129.472C112.658 129.794 112.658 130.18 112.594 130.566C112.529 130.952 112.465 131.273 112.336 131.466C112.208 131.724 112.015 131.852 111.758 131.917C111.5 131.981 111.243 131.917 110.921 131.724C110.471 131.402 110.214 131.145 109.957 130.887Z" fill="#002B5D"/>
<path d="M114.459 127.993L114.331 129.344L115.681 130.116L115.553 131.338L114.202 130.566L114.073 132.045L115.617 132.946L115.488 134.232L112.916 132.753L113.559 126.128L116.131 127.607L116.003 128.893L114.459 127.993Z" fill="#002B5D"/>
<path d="M119.926 136.676L118.897 136.097L117.611 131.016L117.225 135.068L116.196 134.489L116.839 127.865L117.868 128.443L119.154 133.525L119.54 129.408L120.569 129.987L119.926 136.676Z" fill="#002B5D"/>
<path d="M124.364 132.238L124.236 133.524L123.142 132.881L122.628 138.22L121.534 137.641L122.049 132.302L120.956 131.659L121.084 130.373L124.364 132.238Z" fill="#002B5D"/>
<path d="M126.937 139.442L125.393 138.541L125.007 139.57L123.914 138.992L126.1 133.267L127.258 133.91L128.094 141.371L127.001 140.728L126.937 139.442ZM126.808 138.027L126.551 135.325L125.779 137.448L126.808 138.027Z" fill="#002B5D"/>
<path d="M132.275 136.74L132.147 138.027L131.053 137.384L130.539 142.722L129.51 142.143L130.024 136.805L128.931 136.161L129.059 134.875L132.275 136.74Z" fill="#002B5D"/>
<path d="M133.819 137.577L133.176 144.201L132.146 143.622L132.79 136.998L133.819 137.577Z" fill="#002B5D"/>
<path d="M138.514 140.214L136.392 146.002L135.105 145.295L134.269 137.834L135.362 138.477L135.941 144.073L137.485 139.699L138.514 140.214Z" fill="#002B5D"/>
<path d="M139.865 142.336L139.736 143.687L141.087 144.459L140.958 145.681L139.608 144.909L139.479 146.388L141.023 147.289L140.894 148.575L138.321 147.096L138.964 140.471L141.537 141.95L141.409 143.237L139.865 142.336Z" fill="#002B5D"/>
<path d="M113.849 98.0887C113.811 98.0887 113.772 98.0504 113.772 98.0504C113.772 98.0887 113.811 98.0887 113.849 98.0887Z" fill="#004ADE"/>
<path d="M111.077 92.4806C111.608 92.3634 111.889 91.5893 111.704 90.7516C111.519 89.9138 110.939 89.3297 110.408 89.4469C109.876 89.5641 109.596 90.3382 109.78 91.1759C109.965 92.0137 110.546 92.5978 111.077 92.4806Z" fill="#2DBDFF"/>
<path d="M114.448 102.144C114.979 102.027 115.26 101.253 115.075 100.415C114.891 99.5771 114.31 98.993 113.779 99.1102C113.248 99.2274 112.967 100.002 113.151 100.839C113.336 101.677 113.917 102.261 114.448 102.144Z" fill="#2DBDFF"/>
<path d="M108.004 91.5824C108.352 91.5057 108.535 90.9964 108.413 90.4447C108.291 89.893 107.911 89.5079 107.564 89.5845C107.216 89.6612 107.033 90.1705 107.155 90.7222C107.277 91.2739 107.657 91.659 108.004 91.5824Z" fill="#2DBDFF"/>
<path d="M109.713 98.6356C110.06 98.559 110.243 98.0496 110.121 97.4979C110 96.9462 109.619 96.5611 109.272 96.6378C108.925 96.7144 108.742 97.2237 108.863 97.7754C108.985 98.3271 109.365 98.7122 109.713 98.6356Z" fill="#2DBDFF"/>
<path d="M107.574 100.117C107.778 100.072 107.885 99.7704 107.813 99.4435C107.741 99.1166 107.517 98.8881 107.312 98.9332C107.108 98.9782 107.001 99.2798 107.073 99.6067C107.145 99.9336 107.369 100.162 107.574 100.117Z" fill="#2DBDFF"/>
<path d="M107.307 95.6084C107.512 95.5633 107.619 95.2618 107.547 94.9348C107.475 94.6079 107.251 94.3794 107.046 94.4245C106.842 94.4696 106.735 94.7711 106.807 95.0981C106.879 95.425 107.103 95.6535 107.307 95.6084Z" fill="#2DBDFF"/>
<path d="M115.353 107.231C115.701 107.155 115.884 106.645 115.762 106.094C115.64 105.542 115.26 105.157 114.913 105.233C114.565 105.31 114.382 105.819 114.504 106.371C114.626 106.923 115.006 107.308 115.353 107.231Z" fill="#2DBDFF"/>
<path d="M112.27 104.511C112.475 104.466 112.582 104.165 112.51 103.838C112.438 103.511 112.213 103.282 112.009 103.328C111.805 103.373 111.698 103.674 111.77 104.001C111.842 104.328 112.066 104.557 112.27 104.511Z" fill="#2DBDFF"/>
<path d="M112.653 107.696C112.857 107.651 112.964 107.35 112.892 107.023C112.82 106.696 112.596 106.467 112.391 106.512C112.187 106.557 112.08 106.859 112.152 107.186C112.224 107.513 112.448 107.741 112.653 107.696Z" fill="#2DBDFF"/>
<path d="M107.804 105.723C108.009 105.678 108.116 105.376 108.044 105.049C107.972 104.722 107.748 104.494 107.543 104.539C107.339 104.584 107.232 104.886 107.304 105.212C107.376 105.539 107.6 105.768 107.804 105.723Z" fill="#2DBDFF"/>
<path d="M113.849 98.0887C113.811 98.0887 113.772 98.0504 113.772 98.0504C113.772 98.0887 113.811 98.0887 113.849 98.0887Z" fill="#004ADE"/>
<path d="M126.844 99.0733C128.208 93.4281 126.048 86.1159 121.956 82.7439C118.205 79.6372 114.114 80.9253 112.295 85.4339C112.257 85.5097 112.181 85.5476 112.143 85.4718C112.068 85.4339 112.03 85.3581 111.954 85.3203C111.575 85.0551 111.158 85.1308 110.893 85.4718C110.325 86.2296 110.514 87.5556 111.083 88.2755C111.158 88.3891 111.272 88.4649 111.348 88.5786C111.386 88.6164 111.386 88.6164 111.424 88.6543C111.461 88.6922 111.461 88.6922 111.499 88.6922C112.219 89.5636 112.522 91.0412 112.257 92.1778C112.181 92.4431 112.106 92.7083 111.992 92.8977C111.954 92.9356 111.916 92.9735 111.878 92.9735C111.765 92.9735 111.651 93.0114 111.575 93.0114C111.31 93.0871 111.083 93.2766 110.893 93.5797C110.742 93.807 110.59 94.1101 110.514 94.489C110.249 95.7392 110.704 97.3684 111.575 98.2019C111.878 98.4671 112.181 98.6566 112.484 98.6944C112.712 98.7323 112.977 98.6944 113.166 98.6187C113.356 98.5429 113.545 98.3913 113.697 98.2019L113.735 98.164L113.773 98.1261C113.81 98.1261 113.81 98.0883 113.848 98.0883H113.886C113.886 98.0883 113.886 98.0883 113.924 98.0883C114.151 98.164 114.341 98.2398 114.568 98.4292C115.326 99.0733 115.818 100.248 115.856 101.422C115.856 101.574 115.818 101.688 115.743 101.763C115.667 101.877 115.591 102.029 115.515 102.18C115.515 102.218 115.477 102.294 115.477 102.332C115.44 102.559 115.402 102.824 115.402 103.089C115.477 104.037 116.008 104.984 116.766 105.059C117.22 105.135 117.599 104.719 117.713 104.112C117.713 104.112 117.713 104.074 117.751 104.074C117.751 104.074 117.751 104.074 117.789 104.074C121.577 106.461 125.555 104.378 126.844 99.0733Z" fill="#2DBDFF"/>
<path d="M116.235 93.6555L116.5 90.132C116.728 90.0562 116.879 89.791 116.917 89.4122C116.955 88.8439 116.69 88.2377 116.273 88.0482C115.856 87.8588 115.515 88.1998 115.477 88.7681C115.44 89.1469 115.553 89.5258 115.743 89.8289L115.477 93.3524C115.25 93.4282 115.061 93.6934 115.061 94.0723C115.023 94.6406 115.288 95.2468 115.705 95.4362C116.084 95.6257 116.463 95.2847 116.5 94.7164C116.538 94.3754 116.425 93.9586 116.235 93.6555ZM115.781 94.7543C115.629 94.6785 115.553 94.489 115.553 94.2617C115.553 94.0344 115.705 93.9586 115.818 93.9965C115.97 94.0723 116.046 94.2617 116.046 94.489C116.046 94.7164 115.932 94.83 115.781 94.7543ZM116.197 89.45C116.046 89.3743 115.97 89.1848 115.97 88.9575C115.97 88.7681 116.122 88.6544 116.235 88.6923C116.387 88.7681 116.463 88.9575 116.463 89.1848C116.463 89.4122 116.311 89.5258 116.197 89.45Z" fill="white"/>
<path d="M117.751 91.0791C117.94 91.1549 118.129 91.0034 118.167 90.7003L118.281 89.2984C118.319 88.9953 118.167 88.6923 117.94 88.6165C117.751 88.5407 117.561 88.6923 117.523 88.9953L117.41 90.3972C117.372 90.6624 117.523 90.9655 117.751 91.0791Z" fill="white"/>
<path d="M121.198 89.5637C121.009 89.488 120.819 89.6395 120.781 89.9426L120.516 93.3146L117.637 91.9885C117.447 91.9128 117.258 92.0643 117.22 92.3674L116.917 96.2698C116.879 96.5729 117.031 96.876 117.258 96.9517C117.447 97.0275 117.637 96.876 117.675 96.5729L117.94 93.2009L120.819 94.527C121.009 94.6027 121.198 94.4512 121.236 94.1481L121.539 90.2457C121.539 89.9426 121.388 89.6395 121.198 89.5637Z" fill="white"/>
<path d="M120.706 95.7014C120.517 95.6257 120.327 95.7772 120.289 96.0803L120.138 98.2399C120.1 98.543 120.251 98.8461 120.479 98.9219C120.668 98.9976 120.857 98.8461 120.895 98.543L121.047 96.3834C121.085 96.1182 120.933 95.8151 120.706 95.7014Z" fill="white"/>
<path d="M119.19 98.8081C119.19 98.7702 119.19 98.7323 119.19 98.6944L119.418 95.6634C119.456 95.3603 119.304 95.0572 119.077 94.9815C118.887 94.9057 118.698 95.0572 118.66 95.3603L118.433 98.3913C118.433 98.4292 118.433 98.4671 118.433 98.505C118.205 98.5808 118.054 98.846 118.016 99.2248C117.978 99.7931 118.243 100.399 118.66 100.589C119.039 100.778 119.418 100.437 119.456 99.8689C119.493 99.49 119.38 99.1112 119.19 98.8081ZM118.736 99.9068C118.584 99.831 118.508 99.6416 118.508 99.4143C118.508 99.2248 118.66 99.1112 118.774 99.1491C118.925 99.2248 119.001 99.4143 119.001 99.6416C119.001 99.8689 118.887 99.9826 118.736 99.9068Z" fill="white"/>
<path d="M122.752 96.4592L122.979 93.3525C123.206 93.2767 123.358 93.0115 123.396 92.6326C123.434 92.0643 123.169 91.4581 122.752 91.2687C122.373 91.0792 121.994 91.4202 121.956 91.9885C121.918 92.3674 122.032 92.7463 122.221 93.0494L121.994 96.1561C121.767 96.2319 121.615 96.4971 121.577 96.876C121.539 97.4443 121.805 98.0505 122.221 98.2399C122.6 98.4294 122.979 98.0884 123.017 97.5201C123.055 97.1412 122.941 96.7623 122.752 96.4592ZM122.297 97.558C122.146 97.4822 122.07 97.2927 122.07 97.0654C122.07 96.876 122.221 96.7623 122.335 96.8002C122.487 96.876 122.562 97.0654 122.562 97.2927C122.562 97.4822 122.449 97.5958 122.297 97.558ZM122.676 92.6326C122.525 92.5568 122.449 92.3674 122.449 92.1401C122.449 91.9506 122.6 91.837 122.714 91.8749C122.865 91.9506 122.941 92.1401 122.941 92.3674C122.941 92.5947 122.79 92.7084 122.676 92.6326Z" fill="white"/>
<path d="M119.758 86.5327C119.38 86.3433 119.001 86.6843 118.963 87.2526C118.925 87.6314 119.039 88.0103 119.228 88.3134L119.001 91.3065C118.963 91.6096 119.114 91.9127 119.342 91.9885C119.531 92.0642 119.721 91.9127 119.758 91.6096L119.986 88.6165C120.213 88.5407 120.365 88.2755 120.403 87.8967C120.44 87.3283 120.137 86.7222 119.758 86.5327ZM119.834 87.8967C119.796 87.9345 119.721 87.9724 119.645 87.9345C119.569 87.8967 119.531 87.8209 119.493 87.7451C119.455 87.6693 119.455 87.5557 119.455 87.4799C119.455 87.2905 119.607 87.1768 119.721 87.2147C119.872 87.2905 119.948 87.4799 119.948 87.7072C119.91 87.783 119.872 87.8588 119.834 87.8967Z" fill="white"/>
<path d="M119.555 153.766C122.034 153.177 124.766 154.944 126.362 158.833C127.957 162.723 131.155 172.666 131.84 175.269C132.141 176.433 123.294 186.746 123.622 186.595C123.718 186.547 120.739 181.562 120.739 181.562L125.033 174.954L122.294 167.784L119.555 153.766Z" fill="#FED6B1"/>
<path d="M125.293 246.077C125.629 246.207 125.718 246.844 125.766 248.132C125.807 249.097 126.012 250.775 124.882 251.111C123.752 251.446 122.102 251.275 121.376 250.371C120.502 249.154 119.567 247.981 118.575 246.858C117.459 245.653 116.254 244.537 115.802 242.852C115.391 241.332 115.733 240.674 116.767 240.229C118.199 239.626 120.438 241.599 121.561 241.921C122.513 242.181 124.958 245.954 125.293 246.077Z" fill="#263238"/>
<path d="M125.293 244.899V246.461C124.707 246.836 124.029 247.045 123.333 247.064C122.637 247.083 121.949 246.913 121.342 246.57C121.274 246.42 120.931 244.331 120.931 244.331L125.293 244.899Z" fill="#B16668"/>
<path d="M113.665 254.384C113.936 255.221 114.164 256.071 114.35 256.932C114.548 257.877 114.822 259.458 114.487 260.164C114.151 260.869 112.871 261.335 110.864 261.321C109.57 261.321 107.55 262.191 106.166 262.965C104.776 263.646 103.204 263.865 101.681 263.588C99.9004 263.376 98.0514 262.341 97.7638 261.609C97.4762 260.876 97.846 260.513 102.044 258.726C102.085 258.726 106.468 256.726 108.502 254.487L113.665 254.384Z" fill="#263238"/>
<path d="M113.666 252.693C113.666 252.693 113.666 253.85 113.666 254.514C113.666 255.178 112.885 256.164 110.858 256.096C109.433 256.041 108.44 255.658 108.502 254.487V252.802L113.666 252.693Z" fill="#B16668"/>
<path d="M126.834 223.232C126.499 220.49 125.858 217.793 124.924 215.193C124.924 215.193 125.807 208.276 126.293 201.634C127.204 189.725 126.472 185.835 124.129 180.494C124.129 180.494 104.154 178.439 103.544 186.773C102.784 197.114 103.791 217.096 104.065 220.746C104.339 224.396 104.681 226.047 105.968 233.676C106.955 239.483 108.475 252.802 108.475 252.802C109.278 253.21 110.17 253.413 111.07 253.394C111.971 253.375 112.853 253.134 113.638 252.693C113.638 252.693 115.268 236.065 115.097 231.854C114.976 228.738 114.449 225.65 113.529 222.671C113.529 222.671 114.768 205.818 115.124 203.133C115.124 203.133 115.754 208.482 116.028 212.132C116.302 215.782 117.398 219.274 118.439 226.061C119.356 231.943 121.062 245.098 121.062 245.098C123.712 246.536 125.294 244.913 125.294 244.913C125.294 244.913 127.547 228.334 126.834 223.232Z" fill="#6ED0FF"/>
<g opacity="0.35">
<path opacity="0.35" d="M126.834 223.232C126.499 220.49 125.858 217.793 124.924 215.193C124.924 215.193 125.807 208.276 126.293 201.634C127.204 189.725 126.472 185.835 124.129 180.494C124.129 180.494 104.154 178.439 103.544 186.773C102.784 197.114 103.791 217.096 104.065 220.746C104.339 224.396 104.681 226.047 105.968 233.676C106.955 239.483 108.475 252.802 108.475 252.802C109.278 253.21 110.17 253.413 111.07 253.394C111.971 253.375 112.853 253.134 113.638 252.693C113.638 252.693 115.268 236.065 115.097 231.854C114.976 228.738 114.449 225.65 113.529 222.671C113.529 222.671 114.768 205.818 115.124 203.133C115.124 203.133 115.754 208.482 116.028 212.132C116.302 215.782 117.398 219.274 118.439 226.061C119.356 231.943 121.062 245.098 121.062 245.098C123.712 246.536 125.294 244.913 125.294 244.913C125.294 244.913 127.547 228.334 126.834 223.232Z" fill="black"/>
</g>
<path d="M109.344 151.075L110.282 158.792L117.069 158.183L116.295 149.616L109.344 151.075Z" fill="#FED6B1"/>
<path d="M124.52 157.614C123.773 155.56 121.232 153.321 118.623 153.807L116.706 154.156C116.651 155.937 113.282 156.854 109.954 155.779C108.954 156.067 108.029 156.361 107.215 156.656C104.825 157.512 103.866 161.449 103.791 168.119C103.715 174.789 103.03 191.314 103.03 191.314L105.859 192.211L107.16 187.369L107.687 193.169C110.863 193.91 114.168 193.894 117.336 193.121C124.513 191.553 126.745 187.684 126.745 187.684C125.867 183.205 124.123 178.941 121.609 175.132C125.197 165.565 125.622 160.648 124.52 157.614Z" fill="#EBEBEB"/>
<path d="M104.297 141.268C103.891 140.346 103.725 139.336 103.815 138.333C103.905 137.329 104.247 136.365 104.811 135.529C107.091 131.955 111.481 131.345 116.685 132.742C118.502 133.299 120.102 134.402 121.268 135.903C122.434 137.403 123.108 139.227 123.198 141.124C123.451 144.939 112.802 147.753 113.049 150.369L104.297 141.268Z" fill="#263238"/>
<path d="M104.071 142.72C104.071 142.72 102.626 145.034 102.832 145.274C103.19 145.496 103.584 145.654 103.996 145.74L104.071 142.72Z" fill="#FED6B1"/>
<path d="M108.474 135.386C107.036 136.18 104.544 137.646 104.037 143.055C103.516 148.602 104.804 150.492 105.578 151.198C106.098 151.677 108.735 151.78 110.091 151.321C111.789 150.739 115.459 148.808 117.123 145.904C119.082 142.48 119.383 137.995 116.973 136.317C115.751 135.455 114.33 134.917 112.844 134.754C111.357 134.591 109.854 134.808 108.474 135.386Z" fill="#FED6B1"/>
<path d="M108.05 135.625C108.05 135.625 106.913 140.707 108.529 143.843C108.529 143.843 109.365 141.85 111.077 142.371C112.789 142.891 112.7 145.171 111.392 146.37C111.058 146.713 110.634 146.954 110.168 147.065C109.703 147.177 109.215 147.154 108.762 147C109.339 148.438 110.204 149.743 111.303 150.835C111.303 150.835 116.364 153.088 120.739 148.144C124.718 143.658 123.979 135.817 117.891 133.989C111.803 132.16 108.05 135.625 108.05 135.625Z" fill="#263238"/>
<path d="M122.478 136.153C122.239 136.358 122.091 136.65 122.067 136.965C122.042 137.279 122.144 137.59 122.348 137.83L124.156 136.276C124.055 136.157 123.93 136.06 123.791 135.989C123.651 135.918 123.499 135.876 123.343 135.865C123.187 135.853 123.03 135.873 122.882 135.922C122.734 135.972 122.596 136.05 122.478 136.153Z" fill="#263238"/>
<path d="M90.019 168.907C89.0329 167.784 88.6494 165.277 87.3483 163.565C86.0472 161.853 85.5541 160.6 85.0337 161.347C84.3489 162.34 85.8965 164.319 85.5541 164.517C85.2117 164.716 83.9243 167.325 83.7942 168.777C83.6641 170.229 87.5058 173.872 87.5058 173.872L90.019 168.907Z" fill="#FED6B1"/>
<path d="M85.6641 164.291C85.6641 164.291 81.0211 163.894 80.3431 164.291C79.6652 164.688 79.8706 166.702 80.3431 167.934C80.8156 169.167 83.1851 169.989 85.3833 171.454C85.3833 171.235 85.6641 164.291 85.6641 164.291Z" fill="#FED6B1"/>
<path d="M107.79 156.471C105.797 157.156 104.051 157.971 102.188 161.47C99.798 165.969 95.4427 174.776 95.4427 174.776L90.019 168.907C90.019 168.907 89.2315 167.797 87.766 170.222C86.3005 172.646 86.9442 173.317 86.9442 173.317C86.9442 173.317 93.2513 181.767 94.4086 182.843C95.5659 183.918 97.4697 183.082 98.716 181.391C99.9624 179.699 107.79 169.9 107.79 169.9C107.79 169.9 112.07 164.271 107.79 156.471Z" fill="#FED6B1"/>
<path opacity="0.2" d="M115.124 203.12L115.507 199.086C117.681 198.763 119.759 197.976 121.602 196.778C121.602 196.778 120.301 198.833 116.74 199.805L116.37 204.941L116.151 213.364L115.124 203.12Z" fill="black"/>
<path d="M129.348 155.402C128.423 155.405 127.507 155.225 126.652 154.874C125.796 154.522 125.019 154.005 124.364 153.352C123.709 152.7 123.189 151.924 122.833 151.07C122.478 150.217 122.295 149.301 122.294 148.376V137.7C123.1 137.439 123.956 137.372 124.793 137.505C125.63 137.637 126.423 137.966 127.109 138.465C127.794 138.963 128.352 139.616 128.736 140.371C129.12 141.126 129.321 141.962 129.32 142.809L129.348 155.402Z" fill="#263238"/>
<path d="M103.64 175.111C103.64 175.111 107.536 170.085 108.783 168.064L103.503 179.213L103.64 175.111Z" fill="#E0E0E0"/>
<path d="M69.4749 133.831C70.9541 138.193 74.111 151.205 74.111 151.205C74.111 151.205 80.1305 159.21 81.7877 160.737C82.7053 161.586 84.7803 163.113 84.7803 163.113L83.0546 164.387C83.0546 164.387 80.1784 163.511 79.9387 165.072C76.9398 162.659 74.1031 160.051 71.4471 157.265C70.777 156.565 70.3044 155.701 70.0775 154.759L67.5095 143.713C67.5095 143.713 67.5095 134.81 66.1399 133.646C64.7703 132.482 65.3113 129.846 65.3113 129.846C66.2495 129.873 68.3107 130.414 69.4749 133.831Z" fill="#FFA8A7"/>
<path d="M65.2634 129.407C64.8439 130.585 64.3357 131.73 63.7432 132.831C63.1405 133.865 67.7493 152.458 68.0574 153.841C68.3656 155.224 77.3023 163.285 77.3023 163.285C78.9168 162.601 80.1998 161.313 80.877 159.696L74.4261 151.301C74.4261 151.301 72.4196 142.494 71.365 138.454C70.3104 134.413 69.1874 129.846 65.2634 129.407Z" fill="#6ED0FF"/>
<path opacity="0.1" d="M65.2634 129.407C64.8439 130.585 64.3357 131.73 63.7432 132.831C63.1405 133.865 67.7493 152.458 68.0574 153.841C68.3656 155.224 77.3023 163.285 77.3023 163.285C78.9168 162.601 80.1998 161.313 80.877 159.696L74.4261 151.301C74.4261 151.301 72.4196 142.494 71.365 138.454C70.3104 134.413 69.1874 129.846 65.2634 129.407Z" fill="black"/>
<path d="M46.3906 216.781H50.8418V224.41H46.3906V216.781Z" fill="#FFA8A7"/>
<path d="M64.606 218.63L69.0572 218.788L69.2764 210.714L64.606 210.563V218.63Z" fill="#FFA8A7"/>
<path d="M47.0133 162.346C47.0133 166.599 46.7189 191.334 46.7189 191.334C46.6161 192.553 45.4383 194.758 45.3493 199.141C45.2191 205.537 46.2053 220.596 46.2053 220.596C46.9745 220.973 47.817 221.177 48.6736 221.194C49.5302 221.21 50.38 221.039 51.1632 220.692C51.1632 220.692 54.6626 199.394 55.4569 193.06C56.1418 187.54 58.5591 172.796 58.5591 172.796L61.9831 191.464C61.4667 193.787 61.28 196.17 61.4284 198.545C61.6407 201.469 64.3526 216.131 64.3526 216.131C65.1283 216.57 65.9911 216.833 66.8798 216.902C67.7685 216.97 68.6615 216.843 69.4954 216.528C69.4954 216.528 69.7625 193.512 69.8104 190.827C69.8721 187.766 68.5367 161.422 68.5367 161.422L47.0133 162.346Z" fill="#37474F"/>
<path d="M50.8417 222.212V221.575C51.0814 221.575 51.2252 221.808 51.3211 222.376C51.3843 222.801 51.4712 223.221 51.5813 223.636C51.7776 224.416 52.0363 225.179 52.3551 225.917C52.9851 227.471 53.5125 228.046 54.9574 229.861C55.4467 230.364 55.9041 230.897 56.327 231.457C56.5941 231.936 56.6899 233.265 56.2311 233.573C54.5533 234.696 51.999 234.723 50.1911 234.196C49.5183 234.007 48.9137 233.629 48.4488 233.107C47.984 232.586 47.6785 231.941 47.5684 231.251C47.4999 230.84 47.5273 230.416 47.4793 230.005C47.3202 229.065 46.9374 228.177 46.3631 227.416C46.0298 226.977 45.7429 226.504 45.5071 226.006C45.1373 225.095 45.4318 224.061 45.6714 223.15C45.8769 222.363 46.1029 221.5 46.3562 221.575V222.054C46.9907 222.557 47.7798 222.823 48.5887 222.808C49.2667 222.835 50.8486 222.705 50.8417 222.212Z" fill="#263238"/>
<path d="M69.1055 217.411C69.3384 217.411 69.5233 217.747 70.0369 218.302C70.7994 219.069 71.6833 219.705 72.6528 220.185C74.3237 221.02 77.5628 222.301 79.0352 222.965C79.9528 223.376 79.9049 224.485 78.9599 225.115C78.0148 225.745 75.7207 226.197 72.9747 225.588C71.4818 225.252 69.5506 223.869 68.2975 223.944C67.0443 224.02 64.757 223.999 63.8462 223.369C62.9354 222.739 63.2984 221.404 63.5586 220.253C63.8394 219 64.1886 217.035 64.6064 217.124V217.555C65.1405 218.37 67.9071 218.699 69.0781 218.103L69.1055 217.411Z" fill="#263238"/>
<path d="M58.5525 172.797C60.8587 172.084 62.981 170.876 64.7705 169.256C64.7705 169.256 63.5721 171.502 59.9769 173.584L61.7026 190.191L58.5525 172.797Z" fill="#263238"/>
<path d="M54.7382 129.709C53.2179 130.078 50.1637 130.578 49.4789 133.598C48.6571 137.221 48.39 145.117 48.39 145.117L48.1093 162.689C51.1772 164.921 62.4422 166.113 68.8999 161.422C68.8999 161.422 68.1055 140.33 68.1055 137.043C68.1055 133.756 66.2839 129.811 61.2575 129.51L54.7382 129.709Z" fill="#F5F5F5"/>
<path d="M61.1755 129.181C62.5606 130.342 63.5631 131.893 64.0517 133.633C64.668 136.29 64.7365 165.962 64.7365 165.962C64.7365 165.962 67.8866 165.38 69.3589 164.223C69.3589 164.223 69.174 140.802 68.8727 136.926C68.4138 131.058 68.4618 129.394 61.1549 128.743L61.1755 129.181Z" fill="#6ED0FF"/>
<path d="M53.4094 128.743C53.4094 128.743 57.6072 131.325 57.6552 141.604C57.6962 150.506 57.9907 165.962 57.9907 165.962C57.9907 165.962 51.04 166.982 46.6367 164.353C46.6367 164.353 46.1094 142.809 46.1984 139.474C46.2943 135.653 47.1845 130.715 48.4103 130.222C50.0375 129.606 51.7086 129.111 53.4094 128.743V128.743Z" fill="#6ED0FF"/>
<path d="M37.7961 152.341C41.9734 135.262 45.0619 129.565 50.1226 129.633C51.6086 131.4 51.1977 136.755 48.8557 140.001C48.8557 140.001 43.6307 151.013 42.8021 154.93C42.0693 158.354 41.2407 162.702 41.2886 165.661C41.3059 166.184 41.5128 166.683 41.8707 167.065C42.8226 168.099 42.8294 168.934 43.4458 170.078C43.932 170.968 44.4593 171.304 44.3086 171.509C44.1091 171.721 43.8374 171.85 43.5471 171.872C43.2568 171.894 42.969 171.806 42.7404 171.625C42.2947 171.301 41.896 170.916 41.5557 170.482C41.7196 171.577 42.0354 172.644 42.4939 173.652C43.569 176.07 43.3088 177.302 40.0423 176.44C37.9879 175.899 36.7141 174.2 36.4128 169.283C36.2622 167.475 36.2439 165.657 36.358 163.846C36.8032 159.189 37.1182 155.094 37.7961 152.341Z" fill="#FFA8A7"/>
<path d="M51.0059 129.353C51.0059 129.353 47.6435 129.202 45.822 131.044C44.0004 132.886 41.542 136.762 39.1588 145.233C36.7757 153.704 36.043 159.895 35.9266 164.661C35.9266 164.661 38.9123 166.031 41.6652 164.469C41.6652 164.469 42.8842 157.094 43.9661 153.17C45.0481 149.246 49.0816 140.981 49.0816 140.981C49.0816 140.981 52.9371 135.249 51.0059 129.353Z" fill="#6ED0FF"/>
<path opacity="0.1" d="M51.0059 129.353C51.0059 129.353 47.6435 129.202 45.822 131.044C44.0004 132.886 41.542 136.762 39.1588 145.233C36.7757 153.704 36.043 159.895 35.9266 164.661C35.9266 164.661 38.9123 166.031 41.6652 164.469C41.6652 164.469 42.8842 157.094 43.9661 153.17C45.0481 149.246 49.0816 140.981 49.0816 140.981C49.0816 140.981 52.9371 135.249 51.0059 129.353Z" fill="black"/>
<path opacity="0.1" d="M52.9367 134.365L54.861 136.742L53.8954 139.453L56.4224 145.932L53.3818 139.453L54.4433 136.892L52.9367 134.365Z" fill="black"/>
<path opacity="0.1" d="M66.4963 133.598L66.0786 136.057L67.7427 138.228L65.428 145.514L67.2222 138.31L65.6883 136.283L66.4963 133.598Z" fill="black"/>
<path d="M55.8954 116.059C55.3536 112.722 57.62 109.577 60.9575 109.035C64.295 108.494 67.4397 110.76 67.9815 114.098C68.5232 117.435 66.2568 120.58 62.9194 121.122C59.5819 121.663 56.4371 119.397 55.8954 116.059Z" fill="#263238"/>
<path d="M51.3621 119.423C51.3621 119.423 52.3551 124.086 52.7317 124.853C52.9981 125.323 53.4342 125.674 53.9507 125.833L53.8822 122.552L51.3621 119.423Z" fill="#263238"/>
<path d="M52.6082 112.746C52.2597 112.707 51.9068 112.749 51.5768 112.867C51.2467 112.986 50.9483 113.179 50.7045 113.431C49.8895 114.266 50.3415 116.855 51.3893 119.437L53.2588 119.649L52.6082 112.746Z" fill="#263238"/>
<path d="M53.8137 119.642C53.437 119.861 52.9029 119.142 52.4441 118.663C52.2635 118.45 52.0313 118.288 51.7698 118.192C51.5084 118.095 51.2264 118.067 50.9512 118.111C50.676 118.156 50.4167 118.27 50.1984 118.443C49.9801 118.616 49.8101 118.843 49.7048 119.101C48.9379 120.717 50.3897 122.854 51.5538 123.21C53.6082 123.854 53.9095 122.525 53.9095 122.525L54.0602 130.133C55.4777 131.948 58.6552 134.085 60.3672 133.776C61.7368 133.537 62.0313 131.229 60.7233 129.715V127.483C61.6288 127.627 62.5472 127.673 63.4625 127.62C64.9691 127.387 65.9141 126.202 66.373 124.573C67.1057 121.957 67.3865 119.847 66.7633 114.698C66.0785 109.055 59.5181 109 55.9776 111.226C52.4372 113.451 53.8137 119.642 53.8137 119.642Z" fill="#FFA8A7"/>
<path d="M53.8137 120.272C53.622 120.272 52.9029 119.087 52.4441 118.663C51.8004 118.074 52.6358 112.746 52.6358 112.746C52.4122 112.277 52.3351 111.752 52.4145 111.239C52.4939 110.726 52.7262 110.249 53.081 109.87C53.9644 108.897 55.197 107.706 59.2442 108.185C62.1067 108.521 65.2225 109.411 67.7426 108.185C67.9756 109.007 67.958 109.879 67.692 110.69C67.426 111.502 66.9238 112.215 66.2497 112.739C65.2176 113.252 64.0925 113.55 62.9421 113.616C60.729 113.783 58.505 113.742 56.2996 113.492C55.6147 113.397 55.4572 114.068 55.0806 115.91C54.6971 117.519 54.4232 120.258 53.8137 120.272Z" fill="#263238"/>
<path d="M52.608 113.164L50.3413 111.945C50.414 111.792 50.5169 111.656 50.6438 111.544C50.7706 111.432 50.9188 111.347 51.0794 111.294C51.24 111.241 51.4097 111.221 51.5783 111.235C51.7468 111.249 51.9108 111.297 52.0602 111.377C52.3609 111.55 52.5848 111.83 52.6864 112.162C52.7881 112.494 52.7601 112.852 52.608 113.164Z" fill="#263238"/>
<path d="M60.7095 127.483C59.162 127.188 57.6446 126.752 56.1761 126.182C55.4851 125.822 54.9193 125.261 54.5531 124.573C54.7297 125.261 55.0443 125.906 55.4776 126.47C56.3336 127.565 60.7095 128.373 60.7095 128.373V127.483Z" fill="#F28F8F"/>
<path d="M59.9014 118.8C59.9014 118.981 59.8292 119.156 59.7008 119.284C59.5724 119.412 59.3982 119.485 59.2166 119.485C59.0349 119.485 58.8607 119.412 58.7323 119.284C58.6039 119.156 58.5318 118.981 58.5318 118.8C58.5318 118.618 58.6039 118.444 58.7323 118.316C58.8607 118.187 59.0349 118.115 59.2166 118.115C59.3982 118.115 59.5724 118.187 59.7008 118.316C59.8292 118.444 59.9014 118.618 59.9014 118.8Z" fill="#263238"/>
<path d="M59.189 116.259L57.7509 117.053C57.6486 116.855 57.6264 116.625 57.6889 116.411C57.7513 116.197 57.8936 116.015 58.0864 115.903C58.1817 115.851 58.2864 115.82 58.3942 115.81C58.502 115.8 58.6108 115.812 58.7138 115.845C58.8169 115.879 58.9121 115.932 58.9938 116.004C59.0754 116.075 59.1418 116.162 59.189 116.259V116.259Z" fill="#263238"/>
<path d="M60.4084 123.45L61.9424 124.025C61.9101 124.128 61.857 124.224 61.7865 124.307C61.7159 124.389 61.6294 124.457 61.532 124.505C61.4347 124.553 61.3286 124.581 61.2202 124.586C61.1118 124.592 61.0034 124.576 60.9015 124.538C60.6946 124.456 60.5278 124.296 60.4359 124.093C60.344 123.89 60.3341 123.66 60.4084 123.45V123.45Z" fill="#F28F8F"/>
<path d="M65.9072 116.821L64.5924 115.807C64.6542 115.718 64.7334 115.643 64.8252 115.586C64.9169 115.529 65.0193 115.491 65.1262 115.474C65.233 115.457 65.3421 115.462 65.4469 115.489C65.5517 115.516 65.6501 115.563 65.736 115.629C65.9113 115.768 66.0266 115.969 66.0585 116.191C66.0903 116.412 66.0362 116.638 65.9072 116.821V116.821Z" fill="#263238"/>
<path d="M65.5034 118.581C65.5034 118.762 65.4313 118.936 65.3028 119.065C65.1744 119.193 65.0002 119.265 64.8186 119.265C64.637 119.265 64.4628 119.193 64.3344 119.065C64.2059 118.936 64.1338 118.762 64.1338 118.581C64.1338 118.399 64.2059 118.225 64.3344 118.096C64.4628 117.968 64.637 117.896 64.8186 117.896C65.0002 117.896 65.1744 117.968 65.3028 118.096C65.4313 118.225 65.5034 118.399 65.5034 118.581Z" fill="#263238"/>
<path d="M62.0725 117.971L62.2917 122.018L64.4077 121.299L62.0725 117.971Z" fill="#F28F8F"/>
<path d="M62.8052 133.338C62.3943 134.324 61.6273 134.708 60.2509 134.879C59.5543 134.922 58.8563 134.823 58.1994 134.587C57.5425 134.352 56.9403 133.985 56.4297 133.509L58.1417 131.804L60.3262 133.441L60.5111 131.612L62.8052 133.338Z" fill="#6ED0FF"/>
<path opacity="0.1" d="M62.8052 133.338C62.3943 134.324 61.6273 134.708 60.2509 134.879C59.5543 134.922 58.8563 134.823 58.1994 134.587C57.5425 134.352 56.9403 133.985 56.4297 133.509L58.1417 131.804L60.3262 133.441L60.5111 131.612L62.8052 133.338Z" fill="black"/>
<path d="M61.7226 132.804C61.9246 133.396 62.0015 134.023 61.9486 134.646C61.8832 135.201 61.6704 135.728 61.3323 136.173C61.1152 136.313 60.8687 136.401 60.612 136.429C60.3554 136.458 60.0956 136.426 59.8531 136.338C59.4099 135.957 59.0539 135.485 58.8093 134.955C58.5646 134.424 58.4372 133.847 58.4356 133.263L60.3257 133.475L61.7226 132.804Z" fill="#6ED0FF"/>
<path d="M61.3462 136.173C61.3462 136.173 63.5856 148.5 63.6746 149.513C63.7636 150.527 62.394 154.047 61.538 154.074C60.682 154.101 59.0111 150.903 58.9905 149.965C58.97 149.027 59.8671 136.303 59.8671 136.303L61.3462 136.173Z" fill="#6ED0FF"/>
<path opacity="0.1" d="M59.8533 136.338C60.0924 136.443 60.3553 136.484 60.6151 136.455C60.8749 136.426 61.1225 136.329 61.3325 136.173V136.372C61.1189 136.542 60.8673 136.659 60.599 136.711C60.3308 136.764 60.0538 136.751 59.7917 136.673L59.8533 136.338Z" fill="black"/>
<path d="M60.3262 133.475L54.026 128.681V127.257C54.026 127.257 52.5605 127.812 52.2318 130.393C53.2424 132.632 54.97 134.471 57.1418 135.619L58.4635 133.263L60.3262 133.475Z" fill="#E0E0E0"/>
<path d="M60.7094 127.908C61.5328 128.038 62.2713 128.488 62.7638 129.161C63.3938 130.195 63.25 134.174 63.25 134.174L61.7435 132.804L60.3738 133.489C60.504 132.167 60.7642 129.757 60.7642 129.757L60.7094 127.908Z" fill="#E0E0E0"/>
<path d="M85.3145 171.495C84.7261 170.669 84.382 169.694 84.3215 168.681C84.1434 167.387 80.5962 165.996 80.4797 166.962C80.3633 167.927 80.0415 168.729 81.1645 169.9C82.2876 171.071 83.6641 172.365 85.3145 171.495Z" fill="#FFA8A7"/>
<path d="M85.1295 163.134C85.9786 164.23 86.4991 166.359 86.951 167.078C87.403 167.797 87.9372 168.448 86.951 168.551C85.9649 168.653 84.5337 166.763 83.9995 165.599C83.7925 165.139 83.4777 164.735 83.0819 164.421C82.9262 164.297 82.7532 164.195 82.5683 164.12C83.0271 163.963 82.7874 162.114 83.1093 161.86C83.1093 161.86 84.7802 162.545 85.1295 163.134Z" fill="#FFA8A7"/>
<path d="M148.925 107.305C148.925 107.213 148.98 107.117 148.996 107.041C149.018 107.015 149.031 106.983 149.034 106.949C149.087 106.861 149.151 106.78 149.222 106.706C149.284 106.619 149.368 106.55 149.465 106.505L149.557 106.447C150.19 106.074 152.908 104.512 153.243 104.323C153.47 104.218 153.722 104.177 153.971 104.203C154.22 104.23 154.458 104.323 154.658 104.474L188.453 123.968C189.039 124.353 189.527 124.87 189.876 125.479C190.225 126.087 190.426 126.769 190.463 127.469V201.395C190.493 201.646 190.453 201.901 190.348 202.131C190.243 202.361 190.077 202.559 189.868 202.701C189.513 202.902 186.46 204.674 186.1 204.879C186.062 204.879 186.041 204.917 186.003 204.917C185.939 204.951 185.87 204.975 185.798 204.988C185.652 205.026 185.5 205.026 185.354 204.988C185.11 204.957 184.874 204.876 184.663 204.749L150.898 185.234C150.31 184.856 149.821 184.342 149.471 183.737C149.12 183.132 148.919 182.453 148.883 181.754V107.799C148.877 107.633 148.891 107.467 148.925 107.305V107.305Z" fill="#6ED0FF"/>
<path opacity="0.15" d="M148.925 107.305C148.925 107.213 148.98 107.117 148.996 107.041C149.018 107.015 149.031 106.983 149.034 106.949C149.087 106.861 149.151 106.78 149.222 106.706C149.284 106.619 149.368 106.55 149.465 106.505L149.557 106.447C150.19 106.074 152.908 104.512 153.243 104.323C153.47 104.218 153.722 104.177 153.971 104.203C154.22 104.23 154.458 104.323 154.658 104.474L188.453 123.968C189.039 124.353 189.527 124.87 189.876 125.479C190.225 126.087 190.426 126.769 190.463 127.469V201.395C190.493 201.646 190.453 201.901 190.348 202.131C190.243 202.361 190.077 202.559 189.868 202.701C189.513 202.902 186.46 204.674 186.1 204.879C186.062 204.879 186.041 204.917 186.003 204.917C185.939 204.951 185.87 204.975 185.798 204.988C185.652 205.026 185.5 205.026 185.354 204.988C185.11 204.957 184.874 204.876 184.663 204.749L150.898 185.234C150.31 184.856 149.821 184.342 149.471 183.737C149.12 183.132 148.919 182.453 148.883 181.754V107.799C148.877 107.633 148.891 107.467 148.925 107.305V107.305Z" fill="black"/>
<path d="M186.012 204.917C186.049 204.917 186.07 204.917 186.108 204.879C186.46 204.674 189.512 202.903 189.877 202.701C190.086 202.559 190.252 202.362 190.356 202.131C190.461 201.901 190.501 201.646 190.471 201.395V127.461C190.451 126.756 190.246 126.068 189.877 125.467L186.108 127.645C186.477 128.246 186.682 128.933 186.702 129.638V203.573C186.682 204.264 186.422 204.728 186.012 204.917Z" fill="#6ED0FF"/>
<path opacity="0.3" d="M186.012 204.917C186.049 204.917 186.07 204.917 186.108 204.879C186.46 204.674 189.512 202.903 189.877 202.701C190.086 202.559 190.252 202.362 190.356 202.131C190.461 201.901 190.501 201.646 190.471 201.395V127.461C190.451 126.756 190.246 126.068 189.877 125.467L186.108 127.645C186.477 128.246 186.682 128.933 186.702 129.638V203.573C186.682 204.264 186.422 204.728 186.012 204.917Z" fill="black"/>
<path d="M148.925 107.305C148.925 107.213 148.98 107.117 148.996 107.041C149.018 107.015 149.031 106.983 149.034 106.949C149.087 106.861 149.151 106.78 149.222 106.706C149.284 106.619 149.368 106.549 149.465 106.505L149.557 106.447C149.779 106.376 150.014 106.358 150.243 106.393C150.473 106.429 150.691 106.517 150.881 106.652L166.593 115.71L175.157 120.664L184.672 126.15C185.255 126.537 185.741 127.055 186.09 127.663C186.439 128.271 186.641 128.951 186.682 129.651V203.572C186.682 204.263 186.422 204.728 186.012 204.917C185.947 204.951 185.878 204.975 185.806 204.988C185.661 205.026 185.508 205.026 185.362 204.988C185.118 204.957 184.883 204.876 184.672 204.749L150.898 185.234C150.31 184.856 149.821 184.342 149.471 183.737C149.12 183.132 148.919 182.453 148.883 181.754V107.799C148.877 107.633 148.891 107.467 148.925 107.305V107.305Z" fill="#6ED0FF"/>
<path d="M176.229 166.298L159.323 156.536C158.708 156.184 158.214 156.469 158.214 157.181V157.621C158.234 158.006 158.345 158.382 158.538 158.717C158.731 159.051 159 159.336 159.323 159.547L176.229 169.309C176.841 169.66 177.339 169.376 177.339 168.664V168.224C177.319 167.838 177.207 167.463 177.015 167.128C176.822 166.793 176.553 166.509 176.229 166.298Z" fill="#455A64"/>
<path d="M180.354 178.132L174.324 174.639C174.068 174.493 173.863 174.598 173.863 174.874C173.874 175.03 173.921 175.18 174.001 175.314C174.081 175.448 174.192 175.561 174.324 175.645L180.354 179.137C180.609 179.284 180.819 179.179 180.819 178.903C180.807 178.747 180.759 178.596 180.678 178.462C180.598 178.328 180.486 178.215 180.354 178.132V178.132Z" fill="#455A64"/>
<path d="M169.923 172.11L155.199 163.609C154.943 163.463 154.734 163.567 154.734 163.844C154.746 163.999 154.794 164.15 154.875 164.284C154.956 164.418 155.067 164.531 155.199 164.614L169.923 173.111C170.178 173.262 170.383 173.157 170.383 172.877C170.372 172.721 170.325 172.571 170.245 172.438C170.165 172.305 170.054 172.192 169.923 172.11V172.11Z" fill="#455A64"/>
<path d="M180.354 180.138L174.324 176.65C174.068 176.499 173.863 176.604 173.863 176.884C173.875 177.04 173.922 177.19 174.002 177.324C174.082 177.458 174.192 177.571 174.324 177.655L180.354 181.143C180.609 181.294 180.819 181.189 180.819 180.909C180.807 180.753 180.758 180.602 180.677 180.468C180.597 180.335 180.486 180.221 180.354 180.138V180.138Z" fill="#455A64"/>
<path d="M169.923 174.116L155.199 165.615C154.943 165.468 154.734 165.573 154.734 165.849C154.745 166.005 154.793 166.157 154.874 166.29C154.955 166.424 155.066 166.537 155.199 166.62L169.923 175.121C170.178 175.268 170.383 175.163 170.383 174.887C170.372 174.731 170.325 174.58 170.245 174.446C170.165 174.312 170.055 174.199 169.923 174.116V174.116Z" fill="#455A64"/>
<path d="M180.354 182.148L174.324 178.656C174.068 178.509 173.863 178.614 173.863 178.89C173.874 179.046 173.921 179.197 174.001 179.33C174.081 179.464 174.192 179.577 174.324 179.661L180.354 183.153C180.609 183.3 180.819 183.195 180.819 182.919C180.807 182.763 180.759 182.612 180.678 182.478C180.598 182.344 180.486 182.231 180.354 182.148V182.148Z" fill="#455A64"/>
<path d="M169.923 176.126L155.199 167.608C154.943 167.462 154.734 167.566 154.734 167.843C154.746 167.999 154.794 168.149 154.875 168.283C154.956 168.417 155.067 168.53 155.199 168.613L169.923 177.11C170.178 177.261 170.383 177.156 170.383 176.876C170.37 176.724 170.321 176.577 170.241 176.447C170.161 176.317 170.052 176.207 169.923 176.126V176.126Z" fill="#455A64"/>
<path d="M180.354 184.158L174.324 180.666C174.068 180.519 173.863 180.624 173.863 180.9C173.875 181.056 173.922 181.206 174.002 181.34C174.082 181.474 174.192 181.587 174.324 181.671L180.354 185.159C180.609 185.31 180.819 185.205 180.819 184.925C180.807 184.769 180.759 184.619 180.678 184.486C180.597 184.353 180.486 184.241 180.354 184.158V184.158Z" fill="#455A64"/>
<path d="M169.923 178.132L155.199 169.631C154.943 169.484 154.734 169.589 154.734 169.866C154.745 170.022 154.793 170.173 154.874 170.307C154.955 170.44 155.066 170.553 155.199 170.636L169.923 179.137C170.178 179.284 170.383 179.179 170.383 178.903C170.372 178.747 170.325 178.596 170.245 178.462C170.165 178.328 170.055 178.215 169.923 178.132V178.132Z" fill="#455A64"/>
<path d="M178.21 187.73V194.016L176.397 192.969V186.683L178.21 187.73Z" fill="#455A64"/>
<path d="M172.766 184.585V190.875L170.952 189.824V183.538L172.766 184.585Z" fill="#455A64"/>
<path d="M165.504 180.393V186.683L163.691 185.632V179.347L165.504 180.393Z" fill="#455A64"/>
<path d="M159.156 176.729V183.015L157.342 181.968V175.682L159.156 176.729Z" fill="#455A64"/>
<path d="M175.488 186.16V192.446L174.579 191.922V185.637L175.488 186.16Z" fill="#455A64"/>
<path d="M162.787 178.823V185.109L161.878 184.585V178.3L162.787 178.823Z" fill="#455A64"/>
<path d="M168.23 181.968V188.254L167.322 187.73V181.445L168.23 181.968Z" fill="#455A64"/>
<path d="M173.675 185.113V191.399L173.223 191.135V184.849L173.675 185.113Z" fill="#455A64"/>
<path d="M166.702 181.089V187.374L166.249 187.11V180.825L166.702 181.089Z" fill="#455A64"/>
<path d="M169.592 182.755V189.041L169.135 188.777V182.492L169.592 182.755Z" fill="#455A64"/>
<path d="M160.517 177.517V183.802L160.064 183.538V177.253L160.517 177.517Z" fill="#455A64"/>
<path d="M170.496 183.275V189.556L170.044 189.297V183.011L170.496 183.275Z" fill="#455A64"/>
<path d="M161.426 178.04V184.33L160.969 184.066V177.78L161.426 178.04Z" fill="#455A64"/>
<path opacity="0.3" d="M175.136 170.452L160.412 161.951C160.156 161.804 159.951 161.909 159.951 162.185C159.962 162.341 160.009 162.492 160.089 162.626C160.169 162.759 160.28 162.873 160.412 162.956L175.136 171.457C175.391 171.603 175.601 171.499 175.601 171.222C175.589 171.066 175.541 170.915 175.461 170.781C175.38 170.648 175.268 170.535 175.136 170.452V170.452Z" fill="black"/>
<path d="M180.514 130.05L154.864 115.243C154.404 114.979 154.027 115.192 154.027 115.724V148.388C154.043 148.677 154.127 148.958 154.273 149.207C154.418 149.457 154.621 149.669 154.864 149.825L180.514 164.608C180.975 164.876 181.352 164.658 181.352 164.13V131.508C181.337 131.216 181.254 130.932 181.108 130.678C180.963 130.425 180.759 130.21 180.514 130.05V130.05Z" fill="#FAFAFA"/>
<path d="M162.043 148.091C162.043 148.091 172.801 152.285 172.801 150.41C174.817 146.672 178.891 145.466 178.891 138.932C178.891 132.112 173.223 128.771 167.554 128.771C165.781 128.764 164.036 129.215 162.488 130.081C160.94 130.946 159.642 132.196 158.719 133.711C155.484 134.563 156.311 139.03 159.55 139.831L162.043 148.091Z" fill="#263238"/>
<path d="M173.082 151.897C171.556 150.542 171.543 148.061 173.061 146.356C174.578 144.652 177.042 144.375 178.567 145.734C180.093 147.094 180.106 149.57 178.593 151.275C177.08 152.98 174.612 153.24 173.082 151.897Z" fill="#263238"/>
<path d="M171.071 147.669L172.801 145.316C172.801 145.316 173.866 146.378 175.431 145.231C176.833 144.204 177.421 142 176.436 140.862C175.742 140.057 173.585 139.614 172.745 141.348C172.745 141.348 170.248 141.229 166.987 138.915C163.727 136.6 162.955 134.559 160.956 134.329C160.019 135.045 159.106 137.154 159.205 142.717C159.277 146.834 161.118 148.799 162.06 149.506C162.827 150.082 163.808 150.163 165.47 149.89V150.885C165.47 150.885 164.226 150.133 168.177 149.89C172.357 147.026 171.071 147.669 171.071 147.669Z" fill="#FED6B1"/>
<path d="M172.745 140.965V143.249C172.318 143.253 171.906 143.086 171.601 142.787C171.296 142.487 171.122 142.079 171.117 141.651V139.448L172.745 140.965Z" fill="#263238"/>
<path d="M165.99 140.99C165.985 141.139 166.024 141.286 166.102 141.412C166.18 141.538 166.294 141.639 166.429 141.701C166.564 141.763 166.715 141.783 166.861 141.76C167.008 141.737 167.145 141.671 167.254 141.57C167.364 141.47 167.441 141.339 167.476 141.195C167.512 141.051 167.504 140.899 167.453 140.759C167.403 140.619 167.312 140.498 167.193 140.409C167.074 140.321 166.931 140.269 166.782 140.262C166.682 140.257 166.583 140.272 166.488 140.307C166.394 140.341 166.308 140.393 166.234 140.461C166.161 140.529 166.101 140.61 166.059 140.701C166.017 140.792 165.993 140.89 165.99 140.99V140.99Z" fill="#263238"/>
<path d="M159.729 139.017L161.374 138.092C161.316 137.982 161.236 137.885 161.14 137.807C161.044 137.728 160.932 137.67 160.813 137.636C160.693 137.602 160.568 137.592 160.445 137.607C160.321 137.623 160.203 137.663 160.095 137.726C159.878 137.851 159.718 138.056 159.65 138.297C159.581 138.538 159.61 138.796 159.729 139.017V139.017Z" fill="#263238"/>
<path d="M166.57 145.355L164.473 146.101C164.518 146.239 164.591 146.366 164.687 146.476C164.782 146.585 164.899 146.675 165.03 146.738C165.16 146.802 165.303 146.838 165.448 146.846C165.593 146.854 165.738 146.832 165.875 146.783C166.155 146.683 166.384 146.478 166.514 146.211C166.644 145.944 166.664 145.636 166.57 145.355V145.355Z" fill="#E7BE99"/>
<path d="M160.244 140.816C160.233 141.016 160.301 141.213 160.435 141.364C160.568 141.514 160.756 141.605 160.956 141.617C161.158 141.623 161.354 141.549 161.502 141.412C161.65 141.275 161.739 141.085 161.749 140.884C161.755 140.784 161.741 140.684 161.708 140.59C161.675 140.496 161.624 140.409 161.557 140.335C161.491 140.26 161.41 140.2 161.32 140.156C161.23 140.113 161.133 140.088 161.033 140.083C160.832 140.077 160.636 140.15 160.489 140.288C160.341 140.425 160.253 140.614 160.244 140.816V140.816Z" fill="#263238"/>
<path d="M163.867 140.449L163.756 144.485L161.591 143.829L163.867 140.449Z" fill="#E7BE99"/>
<path d="M170.222 129.022C166.608 128.195 165.167 129.244 161.511 128.856C160.01 128.698 158.638 128.626 157.636 129.133C156.494 129.709 155.825 130.97 155.978 132.594C156.238 135.339 159.196 136.042 159.196 136.042C159.196 136.042 161.707 130.395 165.04 130.437C168.373 130.48 170.222 129.022 170.222 129.022Z" fill="#263238"/>
</svg>
