<svg width="296" height="221" viewBox="0 0 296 221" fill="none" xmlns="http://www.w3.org/2000/svg">
<path d="M146.198 217.87C226.941 219.466 293.18 181.142 294.146 132.27C295.112 83.3988 230.44 42.4866 149.697 40.8903C68.9541 39.294 2.71577 77.6181 1.74958 126.49C0.783393 175.361 65.4552 216.273 146.198 217.87Z" fill="#93E0FF"/>
<path d="M146.198 207.27C226.941 208.866 293.18 170.542 294.146 121.671C295.112 72.7993 230.44 31.8871 149.697 30.2908C68.9541 28.6945 2.71577 67.0186 1.74958 115.89C0.783393 164.761 65.4552 205.674 146.198 207.27Z" fill="#EFF6FF"/>
<path d="M192.267 68.3008C192.203 68.2584 192.128 68.2357 192.051 68.2357C191.974 68.2357 191.899 68.2584 191.835 68.3008L190.239 69.2302C190.068 69.3457 189.926 69.4992 189.825 69.6788C189.723 69.8583 189.665 70.0589 189.654 70.2648V89.0102L256.874 127.15L259.521 107.107L192.267 68.3008Z" fill="#263238"/>
<path d="M259.492 107.083C259.425 107.06 259.353 107.053 259.283 107.063C259.213 107.073 259.146 107.1 259.088 107.142L257.458 108.048C257.28 108.153 257.134 108.304 257.037 108.486L189.8 69.6686C189.902 69.4904 190.047 69.3399 190.221 69.2302L191.828 68.3067C191.892 68.2642 191.967 68.2415 192.044 68.2415C192.121 68.2415 192.196 68.2642 192.261 68.3067L259.492 107.083Z" fill="#455A64"/>
<path d="M259.089 107.136L257.459 108.048C257.287 108.163 257.145 108.316 257.043 108.496C256.942 108.675 256.884 108.876 256.874 109.082V127.132L259.68 128.734V107.463C259.686 107.101 259.417 106.949 259.089 107.136Z" fill="#37474F"/>
<path d="M256.879 127.15V128.383L252.676 130.254L185.422 91.4184L189.625 89.0102L256.879 127.15Z" fill="black"/>
<path d="M254.079 132.685L259.088 129.763C259.26 129.648 259.403 129.495 259.504 129.315C259.606 129.135 259.664 128.934 259.673 128.728L256.867 127.127C256.858 127.333 256.801 127.534 256.699 127.714C256.598 127.894 256.455 128.047 256.283 128.161L254.675 129.09C254.348 129.278 254.091 129.126 254.091 128.746L254.079 132.685Z" fill="#37474F"/>
<path d="M269.551 130.734C269.863 130.52 270.12 130.236 270.303 129.905C270.486 129.575 270.589 129.206 270.603 128.828V68.1728C270.583 67.7829 270.471 67.4034 270.276 67.0651C270.08 66.7269 269.808 66.4395 269.481 66.2264L191.67 21.3005C191.345 21.096 190.971 20.9841 190.587 20.9768C190.203 20.9694 189.825 21.0669 189.492 21.2587C189.16 21.4505 188.886 21.7294 188.7 22.0653C188.514 22.4012 188.424 22.7815 188.438 23.1651V83.8203C188.46 84.2106 188.573 84.5903 188.769 84.9286C188.965 85.2668 189.238 85.554 189.566 85.7668L267.394 130.693C267.726 130.866 268.094 130.96 268.468 130.967C268.842 130.974 269.213 130.894 269.551 130.734Z" fill="#6ED0FF"/>
<path d="M268.5 69.388V130.043C268.5 130.756 267.997 131.049 267.377 130.692L189.567 85.7662C189.239 85.5534 188.966 85.2662 188.77 84.928C188.574 84.5897 188.46 84.21 188.438 83.8197V23.1645C188.438 22.4514 188.947 22.1591 189.567 22.5157L267.395 67.4416C267.719 67.6566 267.988 67.9449 268.179 68.283C268.371 68.6211 268.481 68.9997 268.5 69.388Z" fill="white"/>
<path opacity="0.2" d="M270.604 68.1722V128.827C270.589 129.205 270.486 129.574 270.304 129.905C270.121 130.236 269.864 130.519 269.552 130.733C269.252 130.878 268.925 130.959 268.591 130.97C268.258 130.981 267.926 130.922 267.617 130.797C268.12 130.961 268.5 130.669 268.5 130.043V69.3822C268.485 68.9924 268.372 68.6126 268.172 68.2774L270.271 67.0616C270.476 67.397 270.59 67.7795 270.604 68.1722Z" fill="black"/>
<path d="M262.175 85.1992V94.7677C262.175 95.4867 261.672 95.7731 261.053 95.4165L248.55 88.1744C248.224 87.9618 247.952 87.6754 247.757 87.3382C247.562 87.001 247.449 86.6227 247.428 86.2338V76.6828C247.428 75.9697 247.93 75.6774 248.55 76.034L261.053 83.2527C261.38 83.4658 261.652 83.7532 261.847 84.0915C262.042 84.4297 262.155 84.8093 262.175 85.1992Z" fill="#455A64"/>
<path d="M245.448 77.5901L245.193 78.0304L264.152 88.985L264.406 88.5447L245.448 77.5901Z" fill="white"/>
<path d="M258.218 85.1174H257.709V89.9922H258.218V85.1174Z" fill="white"/>
<path d="M251.899 81.4875H251.391V86.3565H251.899V81.4875Z" fill="white"/>
<path d="M245.447 82.4781L245.192 82.9184L264.151 93.873L264.405 93.4327L245.447 82.4781Z" fill="white"/>
<path d="M262.175 103.448V105.71C262.175 106.429 261.672 106.715 261.053 106.359L248.55 99.1399C248.224 98.9274 247.952 98.6409 247.757 98.3037C247.562 97.9666 247.449 97.5882 247.428 97.1993V94.9255C247.428 94.2066 247.93 93.9202 248.55 94.2767L261.053 101.495C261.381 101.709 261.653 101.997 261.848 102.337C262.044 102.676 262.155 103.057 262.175 103.448Z" fill="#6ED0FF"/>
<path d="M244.598 93.3064V95.5802C244.598 96.2933 244.095 96.5856 243.476 96.229L230.973 89.0102C230.646 88.7971 230.374 88.5097 230.178 88.1715C229.983 87.8332 229.871 87.4537 229.851 87.0638V84.7959C229.851 84.0769 230.353 83.7847 230.973 84.1471L243.476 91.3658C243.802 91.5784 244.074 91.8648 244.269 92.202C244.464 92.5391 244.577 92.9175 244.598 93.3064Z" fill="#6ED0FF"/>
<path d="M227.063 83.1709V85.4447C227.063 86.1578 226.56 86.45 225.94 86.0935L213.438 78.8747C213.111 78.6616 212.838 78.3742 212.643 78.036C212.448 77.6977 212.336 77.3182 212.315 76.9283V74.6545C212.315 73.9414 212.818 73.6491 213.438 74.0057L225.94 81.2245C226.267 81.4383 226.539 81.7258 226.734 82.0639C226.929 82.402 227.041 82.7812 227.063 83.1709Z" fill="#6ED0FF"/>
<path d="M209.528 73.0354V75.315C209.528 76.034 209.025 76.3262 208.405 75.9638L195.903 68.7509C195.576 68.5368 195.305 68.2491 195.11 67.9111C194.915 67.5731 194.802 67.194 194.78 66.8045V64.5307C194.78 63.8176 195.283 63.5253 195.903 63.8819L208.405 71.1006C208.731 71.3126 209.002 71.5981 209.197 71.9342C209.392 72.2703 209.505 72.6475 209.528 73.0354Z" fill="#6ED0FF"/>
<path opacity="0.15" d="M201.753 75.7768L204.623 77.431C204.819 77.5599 204.981 77.7328 205.098 77.9358C205.215 78.1388 205.282 78.3662 205.295 78.6V79.4768C205.295 79.9035 204.991 80.0613 204.623 79.8625L201.753 78.2376C201.558 78.1089 201.395 77.9361 201.278 77.7331C201.161 77.53 201.094 77.3024 201.081 77.0686V76.1918C201.081 75.7359 201.385 75.5605 201.753 75.7768Z" fill="black"/>
<path opacity="0.15" d="M195.435 72.1294L198.299 73.7836C198.496 73.9112 198.66 74.0837 198.778 74.2868C198.896 74.49 198.964 74.7181 198.977 74.9526V75.8294C198.977 76.2619 198.673 76.4139 198.299 76.221L195.435 74.5668C195.239 74.4389 195.075 74.2662 194.958 74.063C194.842 73.8598 194.775 73.6319 194.763 73.3978V72.521C194.763 72.0885 195.061 71.9131 195.435 72.1294Z" fill="black"/>
<path opacity="0.15" d="M231.616 99.099L195.96 78.5006C195.341 78.1441 194.838 78.4305 194.838 79.1494V80.2016C194.858 80.5915 194.971 80.971 195.166 81.3093C195.361 81.6475 195.633 81.9349 195.96 82.148L231.616 102.746C232.235 103.103 232.738 102.817 232.738 102.098V101.034C232.716 100.646 232.602 100.269 232.407 99.9325C232.212 99.5965 231.941 99.3109 231.616 99.099Z" fill="black"/>
<path d="M214.942 55.2465C214.437 54.2784 214.184 53.1991 214.205 52.1077C214.205 50.9386 214.445 50.1495 214.924 49.8047C215.404 49.4598 216.093 49.5416 216.993 50.0619C217.359 50.2708 217.702 50.5176 218.016 50.7983C218.308 51.0598 218.569 51.354 218.794 51.6751C218.839 51.7362 218.866 51.8094 218.87 51.8855C218.873 51.9384 218.856 51.9906 218.823 52.0317L218.554 52.5051C218.519 52.5636 218.484 52.5811 218.443 52.5577C218.393 52.5177 218.35 52.4704 218.314 52.4175C217.999 51.9949 217.602 51.6408 217.145 51.377C216.619 51.0672 216.204 51.038 215.912 51.2776C215.62 51.5173 215.468 52.0375 215.468 52.8383C215.45 53.5629 215.609 54.281 215.93 54.9309C216.214 55.4849 216.65 55.947 217.186 56.2636C217.545 56.5073 217.975 56.6245 218.408 56.5967C218.449 56.5805 218.495 56.5805 218.537 56.5967C218.589 56.6436 218.628 56.7043 218.648 56.7721L218.946 57.6372C218.966 57.6814 218.978 57.729 218.981 57.7775C218.981 57.8184 218.946 57.8535 218.887 57.8827C218.484 58.0347 217.864 57.8827 217.023 57.38C216.142 56.8796 215.42 56.1399 214.942 55.2465Z" fill="#6ED0FF"/>
<path d="M219.238 58.3503C219.233 58.3017 219.233 58.2527 219.238 58.2041L221.243 53.0019C221.278 52.9026 221.319 52.8441 221.36 52.8266C221.393 52.8193 221.428 52.8192 221.461 52.8263C221.494 52.8333 221.526 52.8474 221.553 52.8675L222.137 53.1948C222.214 53.2359 222.279 53.2964 222.324 53.3702C222.376 53.4682 222.415 53.5722 222.441 53.68L224.44 61.191C224.448 61.2512 224.448 61.312 224.44 61.3722C224.44 61.4891 224.394 61.5183 224.3 61.4657L223.365 60.9221C223.304 60.8882 223.25 60.8425 223.207 60.7877C223.165 60.7195 223.135 60.6442 223.119 60.5656L222.763 59.1452L220.887 58.058L220.536 59.0751C220.536 59.1452 220.483 59.1803 220.448 59.192C220.421 59.196 220.392 59.1944 220.365 59.1874C220.338 59.1804 220.313 59.168 220.29 59.151L219.355 58.6074C219.314 58.5796 219.281 58.5409 219.26 58.4954C219.24 58.45 219.232 58.3997 219.238 58.3503ZM222.494 57.7657L221.869 55.2172L221.22 57.0702L222.494 57.7657Z" fill="#6ED0FF"/>
<path d="M225.205 61.8515C225.145 61.7343 225.116 61.6032 225.123 61.4716V55.3634C225.123 55.2114 225.123 55.112 225.205 55.0711C225.287 55.0302 225.345 55.036 225.468 55.112L227.426 56.2401C228.043 56.5664 228.555 57.0607 228.902 57.6659C229.25 58.2711 229.419 58.9623 229.39 59.6596C229.412 60.042 229.331 60.4234 229.156 60.7643C229.086 60.8842 228.985 60.9828 228.864 61.0497C228.742 61.1166 228.605 61.1493 228.466 61.1442L229.279 63.985C229.287 64.0373 229.287 64.0905 229.279 64.1428C229.279 64.2656 229.226 64.2948 229.115 64.2363L228.256 63.7395C228.195 63.7074 228.142 63.6637 228.098 63.6109C228.053 63.5476 228.022 63.4761 228.005 63.4005L227.292 60.7234L226.374 60.1915V62.2314C226.386 62.3349 226.359 62.4393 226.298 62.5237C226.245 62.5646 226.152 62.5237 226.023 62.4711L225.439 62.1379C225.334 62.0679 225.252 61.9682 225.205 61.8515ZM227.239 59.4491C227.531 59.6187 227.753 59.6654 227.899 59.5836C228.046 59.5017 228.122 59.2855 228.122 58.9289C228.132 58.6162 228.062 58.3061 227.917 58.0288C227.78 57.7835 227.578 57.5811 227.332 57.4443L226.415 56.9123V58.9757L227.239 59.4491Z" fill="#6ED0FF"/>
<path d="M230.105 64.6807C230.047 64.5625 230.019 64.4322 230.023 64.3008V58.1926C230.016 58.1399 230.02 58.0865 230.034 58.0354C230.048 57.9842 230.072 57.9363 230.105 57.8945C230.157 57.8536 230.245 57.8652 230.368 57.9354L231.993 58.8765C232.835 59.3461 233.531 60.0401 234.003 60.8814C234.486 61.824 234.721 62.8739 234.687 63.9325C234.687 65.1308 234.459 65.879 233.992 66.1829C233.524 66.4869 232.863 66.3817 231.993 65.879L230.368 64.9437C230.255 64.8845 230.164 64.7928 230.105 64.6807ZM232.057 64.6807C232.513 64.9437 232.858 64.973 233.08 64.7625C233.302 64.5521 233.425 64.0377 233.425 63.2136C233.454 62.5511 233.337 61.8902 233.08 61.2788C232.861 60.8156 232.503 60.4317 232.057 60.1799L231.297 59.7416V64.2423L232.057 64.6807Z" fill="#6ED0FF"/>
<path opacity="0.5" d="M270.271 67.0617L268.172 68.3008C267.981 67.9602 267.708 67.6728 267.377 67.465L189.561 22.5157C188.976 22.1942 188.532 22.4046 188.45 22.9833C188.466 22.6154 188.578 22.258 188.775 21.9471C188.973 21.6362 189.248 21.3827 189.575 21.2121C189.901 21.0415 190.267 20.9598 190.635 20.9752C191.002 20.9906 191.36 21.1026 191.671 21.2999L269.482 66.2258C269.813 66.4306 270.085 66.7188 270.271 67.0617Z" fill="#FAFAFA"/>
<path d="M253.904 110.345L247.252 113.963C247.141 114.216 247.081 114.488 247.077 114.764V136.035C247.073 136.098 247.082 136.162 247.103 136.222C247.124 136.283 247.157 136.338 247.2 136.385L179.98 97.5909C179.92 97.5493 179.871 97.492 179.84 97.4251C179.81 97.3582 179.797 97.2843 179.805 97.211V75.9346C179.816 75.7287 179.874 75.5281 179.976 75.3486C180.077 75.169 180.219 75.0155 180.389 74.9L186.205 71.5332C186.266 71.4856 186.34 71.4573 186.417 71.4521C186.494 71.4469 186.571 71.465 186.638 71.504L253.904 110.345Z" fill="#263238"/>
<path opacity="0.5" d="M253.91 110.339L192.437 74.8357L189.631 73.2166L186.667 71.504C186.601 71.465 186.524 71.4469 186.447 71.4521C186.369 71.4573 186.296 71.4856 186.235 71.5332L180.419 74.9C180.244 75.0089 180.101 75.1622 180.004 75.3443L247.258 113.957L253.91 110.339Z" fill="#37474F"/>
<path d="M247.252 113.963C247.139 114.22 247.077 114.496 247.07 114.776V136.046C247.07 136.426 247.339 136.578 247.655 136.391L254.085 132.685V110.731C254.093 110.657 254.082 110.581 254.051 110.513C254.02 110.445 253.971 110.387 253.909 110.345L247.252 113.963Z" fill="#37474F"/>
<path d="M247.731 136.333L247.959 136.222L248.947 135.637C249.903 134.449 250.425 132.971 250.426 131.446V113.472C250.421 113.078 250.372 112.686 250.28 112.303L249.748 112.595C249.807 112.88 249.838 113.17 249.842 113.461V131.446C249.734 133.272 248.987 135.002 247.731 136.333Z" fill="#263238"/>
<path d="M172.317 51.0459C170.05 49.2105 165.923 46.8316 163.386 45.3703C159.119 42.8978 143.168 33.6799 136.498 29.828C135.573 29.3582 134.549 29.1133 133.511 29.1133C132.473 29.1133 131.45 29.3582 130.525 29.828L76.1646 61.2282C75.2963 61.7962 74.5736 62.5603 74.0548 63.4588C73.536 64.3573 73.2356 65.3652 73.1777 66.4012V99.2802C73.236 100.317 73.5366 101.325 74.0554 102.225C74.5741 103.124 75.2965 103.889 76.1646 104.459L186.55 168.253C187.477 168.72 188.5 168.963 189.537 168.963C190.575 168.963 191.598 168.72 192.524 168.253L246.884 136.865C247.753 136.291 248.475 135.522 248.992 134.618C249.509 133.715 249.806 132.702 249.859 131.662V113.133C249.863 112.229 249.658 111.336 249.258 110.524C248.858 109.713 248.276 109.005 247.556 108.457C235.083 98.9821 175.941 53.9743 172.317 51.0459Z" fill="#455A64"/>
<path d="M249.86 131.662V113.677C249.859 113.315 249.816 112.954 249.731 112.601L189.386 147.386C189.476 147.759 189.525 148.142 189.532 148.526V166.5C189.532 168.253 188.421 169.019 186.983 168.434H187.024C187.159 168.493 187.293 168.545 187.433 168.592L187.702 168.674C187.848 168.715 187.995 168.75 188.147 168.779C188.299 168.808 188.345 168.814 188.445 168.832L188.895 168.89H189.234H189.66H190.04L190.426 168.861C190.566 168.861 190.707 168.814 190.847 168.785L191.174 168.727C191.326 168.686 191.478 168.633 191.624 168.586C191.771 168.539 191.8 168.539 191.882 168.504C192.073 168.43 192.258 168.342 192.437 168.241C192.466 168.231 192.493 168.218 192.519 168.2L246.879 136.812L247.662 136.368C248.952 135.126 249.735 133.449 249.86 131.662Z" fill="#37474F"/>
<path d="M111.984 85.8889C122.178 94.1189 175.415 134.404 187.211 143.323C187.937 143.868 188.526 144.574 188.932 145.386C189.338 146.197 189.549 147.092 189.549 148V166.5C189.549 168.399 188.205 169.177 186.562 168.253L76.1353 104.482C75.2672 103.913 74.5448 103.148 74.0261 102.248C73.5073 101.349 73.2067 100.34 73.1484 99.3036V66.4012C73.1484 64.5015 74.4928 63.7241 76.1353 64.6768L103.023 80.2016C105.577 81.6687 109.704 84.0477 111.984 85.8889Z" fill="#263238"/>
<path d="M111.656 75.2332C114.193 76.6945 118.32 79.0735 120.605 80.9205C122.811 82.7388 124.904 84.6909 126.871 86.7657C127.301 87.1838 127.851 87.4553 128.445 87.5414C129.038 87.6275 129.643 87.5237 130.174 87.245L169.617 64.4489C169.849 64.335 170.051 64.166 170.203 63.9566C170.356 63.7471 170.455 63.5036 170.492 63.2472C170.528 62.9908 170.502 62.7293 170.415 62.4854C170.328 62.2415 170.182 62.0226 169.991 61.8478C168.017 59.7733 165.919 57.8213 163.707 56.0026C161.434 54.1672 157.307 51.7941 154.77 50.327C149.942 47.533 144.524 44.4058 139.643 41.5943C139.073 41.3075 138.443 41.1581 137.805 41.1581C137.166 41.1581 136.537 41.3075 135.966 41.5943L96.5406 64.3787C95.5294 64.9632 95.5294 65.916 96.5406 66.5005L111.656 75.2332Z" fill="#E0E0E0"/>
<path d="M135.966 43.4764C136.537 43.1896 137.166 43.0402 137.804 43.0402C138.443 43.0402 139.072 43.1896 139.643 43.4764C144.523 46.288 149.942 49.4151 154.77 52.2091C157.307 53.6762 161.434 56.0552 163.707 57.8906C165.919 59.7091 168.017 61.6611 169.991 63.7358C170.062 63.8101 170.126 63.8902 170.184 63.9754C170.025 64.1794 169.826 64.3485 169.599 64.4722L130.156 87.2684C129.625 87.5471 129.02 87.6509 128.427 87.5648C127.834 87.4787 127.283 87.2072 126.854 86.7891C124.886 84.7143 122.794 82.7622 120.588 80.9439C118.302 79.0968 114.158 76.7179 111.639 75.2566L96.5406 66.5005C96.4704 66.4596 96.4178 66.4128 96.3594 66.3719C96.4163 66.3244 96.4769 66.2814 96.5406 66.2433L135.966 43.4764Z" fill="white"/>
<path d="M136.615 73.5322L124.813 73.351V68.6398L133.266 70.1713L133.155 51.4492L140.502 51.3323L136.615 73.5322Z" fill="#6ED0FF"/>
<path d="M170.792 74.0408L171.183 72.4158L172.82 72.2814L178.168 69.1951C180.705 67.7338 184.066 68.0261 185.703 69.844C186.05 70.2227 186.304 70.677 186.445 71.1708L186.907 71.1299L186.492 72.8542C186.308 73.4654 186.004 74.0337 185.598 74.5256C185.191 75.0175 184.69 75.4231 184.124 75.7183L177.613 79.4709C177.084 79.754 176.478 79.8608 175.884 79.7756C175.29 79.6904 174.739 79.4178 174.31 78.9975C173.282 77.8986 172.253 76.7588 171.224 75.6014C171.028 75.3975 170.887 75.1481 170.811 74.8757C170.736 74.6033 170.729 74.3164 170.792 74.0408Z" fill="#6ED0FF"/>
<path opacity="0.1" d="M170.792 74.0408L171.183 72.4158L172.82 72.2814L178.168 69.1951C180.705 67.7338 184.066 68.0261 185.703 69.844C186.05 70.2227 186.304 70.677 186.445 71.1708L186.907 71.1299L186.492 72.8542C186.308 73.4654 186.004 74.0337 185.598 74.5256C185.191 75.0175 184.69 75.4231 184.124 75.7183L177.613 79.4709C177.084 79.754 176.478 79.8608 175.884 79.7756C175.29 79.6904 174.739 79.4178 174.31 78.9975C173.282 77.8986 172.253 76.7588 171.224 75.6014C171.028 75.3975 170.887 75.1481 170.811 74.8757C170.736 74.6033 170.729 74.3164 170.792 74.0408Z" fill="black"/>
<path d="M177.963 77.8518L184.475 74.0934C187.017 72.6262 187.695 70.0018 186.059 68.2131C184.422 66.4245 181.061 66.103 178.524 67.5643L172.013 71.3228C171.779 71.4409 171.576 71.6125 171.421 71.8237C171.266 72.0349 171.163 72.2798 171.12 72.5383C171.077 72.7969 171.096 73.0619 171.175 73.3118C171.254 73.5617 171.391 73.7894 171.574 73.9765C172.603 75.1455 173.634 76.2775 174.666 77.3725C175.093 77.7933 175.643 78.0668 176.236 78.153C176.829 78.2392 177.434 78.1337 177.963 77.8518Z" fill="#6ED0FF"/>
<path d="M137.492 94.3001L137.889 92.6518L138.351 92.6109C138.793 92.0805 139.328 91.6349 139.929 91.2957L146.441 87.5373C146.966 87.2574 147.568 87.1572 148.155 87.2523C148.742 87.3473 149.281 87.6322 149.691 88.0633C150.702 89.2031 151.713 90.3254 152.725 91.4126L153.642 91.3366L153.227 93.0492C153.096 93.4783 152.802 93.8392 152.409 94.0546L145.897 97.813C143.355 99.2802 139.924 99.0464 138.299 97.2285C137.932 96.8453 137.667 96.3771 137.526 95.866C137.385 95.3549 137.374 94.8169 137.492 94.3001Z" fill="#6ED0FF"/>
<path opacity="0.1" d="M137.492 94.3001L137.889 92.6518L138.351 92.6109C138.793 92.0805 139.328 91.6349 139.929 91.2957L146.441 87.5373C146.966 87.2574 147.568 87.1572 148.155 87.2523C148.742 87.3473 149.281 87.6322 149.691 88.0633C150.702 89.2031 151.713 90.3254 152.725 91.4126L153.642 91.3366L153.227 93.0492C153.096 93.4783 152.802 93.8392 152.409 94.0546L145.897 97.813C143.355 99.2802 139.924 99.0464 138.299 97.2285C137.932 96.8453 137.667 96.3771 137.526 95.866C137.385 95.3549 137.374 94.8169 137.492 94.3001Z" fill="black"/>
<path d="M146.265 96.1764L152.776 92.418C153.008 92.303 153.208 92.1336 153.36 91.9241C153.511 91.7147 153.61 91.4716 153.647 91.2157C153.683 90.9598 153.657 90.6987 153.571 90.4551C153.485 90.2114 153.34 89.9924 153.15 89.8169C152.122 88.7121 151.099 87.5782 150.07 86.4208C149.661 85.9887 149.122 85.7027 148.535 85.6066C147.948 85.5106 147.345 85.6097 146.82 85.8889L140.309 89.6474C137.772 91.1145 137.006 93.7916 138.649 95.5977C140.291 97.4039 143.728 97.6377 146.265 96.1764Z" fill="#6ED0FF"/>
<path d="M153.788 84.0126L154.174 82.4052L155.425 82.3234L163.217 77.8226C163.873 77.4738 164.625 77.3495 165.359 77.4688C166.093 77.5881 166.767 77.9443 167.279 78.4831C168.058 79.3716 168.848 80.2425 169.646 81.0959C169.723 81.182 169.794 81.2738 169.857 81.3706L170.634 81.3238L170.231 83.0014C170.16 83.2845 170.031 83.5496 169.851 83.7801C169.672 84.0105 169.447 84.2012 169.19 84.3399L160.838 89.1563C160.178 89.5117 159.423 89.6467 158.681 89.5415C157.94 89.4363 157.251 89.0965 156.717 88.5718C155.928 87.7184 155.133 86.8475 154.344 85.9591C154.098 85.7057 153.918 85.3953 153.821 85.0557C153.724 84.716 153.713 84.3577 153.788 84.0126Z" fill="#6ED0FF"/>
<path opacity="0.1" d="M153.788 84.0126L154.174 82.4052L155.425 82.3234L163.217 77.8226C163.873 77.4738 164.625 77.3495 165.359 77.4688C166.093 77.5881 166.767 77.9443 167.279 78.4831C168.058 79.3716 168.848 80.2425 169.646 81.0959C169.723 81.182 169.794 81.2738 169.857 81.3706L170.634 81.3238L170.231 83.0014C170.16 83.2845 170.031 83.5496 169.851 83.7801C169.672 84.0105 169.447 84.2012 169.19 84.3399L160.838 89.1563C160.178 89.5117 159.423 89.6467 158.681 89.5415C157.94 89.4363 157.251 89.0965 156.717 88.5718C155.928 87.7184 155.133 86.8475 154.344 85.9591C154.098 85.7057 153.918 85.3953 153.821 85.0557C153.724 84.716 153.713 84.3577 153.788 84.0126Z" fill="black"/>
<path d="M154.712 84.3282C155.501 85.2167 156.296 86.0818 157.085 86.941C157.619 87.4657 158.307 87.8055 159.049 87.9107C159.791 88.0159 160.546 87.8809 161.205 87.5255L169.558 82.7091C169.847 82.5652 170.097 82.3535 170.286 82.0921C170.475 81.8307 170.598 81.5274 170.645 81.208C170.692 80.8887 170.66 80.5628 170.553 80.2583C170.446 79.9537 170.267 79.6796 170.032 79.4592C169.243 78.6058 168.453 77.7057 167.664 76.8406C167.152 76.3019 166.477 75.9462 165.744 75.828C165.01 75.7097 164.257 75.8355 163.602 76.1859L155.255 81.0023C154.961 81.1498 154.706 81.3648 154.512 81.6298C154.317 81.8947 154.188 82.2021 154.135 82.5266C154.082 82.8511 154.106 83.1836 154.207 83.4968C154.307 83.8099 154.48 84.0949 154.712 84.3282Z" fill="#6ED0FF"/>
<g opacity="0.75">
<path opacity="0.75" d="M177.963 77.8518L184.475 74.0934C187.017 72.6262 187.695 70.0018 186.059 68.2131C184.422 66.4245 181.061 66.103 178.524 67.5643L172.013 71.3228C171.779 71.4409 171.576 71.6125 171.421 71.8237C171.266 72.0349 171.163 72.2798 171.12 72.5383C171.077 72.7969 171.096 73.0619 171.175 73.3118C171.254 73.5617 171.391 73.7894 171.574 73.9765C172.603 75.1455 173.634 76.2775 174.666 77.3725C175.093 77.7933 175.643 78.0668 176.236 78.153C176.829 78.2392 177.434 78.1337 177.963 77.8518Z" fill="white"/>
<path opacity="0.75" d="M146.265 96.1764L152.776 92.4179C153.008 92.303 153.208 92.1336 153.36 91.9241C153.511 91.7147 153.61 91.4716 153.647 91.2157C153.683 90.9597 153.657 90.6987 153.571 90.4551C153.485 90.2114 153.34 89.9924 153.15 89.8168C152.122 88.7121 151.099 87.5782 150.07 86.4208C149.661 85.9887 149.122 85.7027 148.535 85.6066C147.948 85.5105 147.345 85.6097 146.82 85.8889L140.309 89.6473C137.772 91.1145 137.006 93.7916 138.649 95.5977C140.291 97.4039 143.728 97.6377 146.265 96.1764Z" fill="white"/>
<path opacity="0.75" d="M154.712 84.3282C155.501 85.2167 156.296 86.0818 157.085 86.941C157.619 87.4657 158.307 87.8055 159.049 87.9107C159.791 88.0159 160.546 87.8809 161.205 87.5255L169.558 82.7091C169.847 82.5652 170.097 82.3535 170.286 82.0921C170.475 81.8307 170.598 81.5274 170.645 81.208C170.692 80.8887 170.66 80.5628 170.553 80.2583C170.446 79.9537 170.267 79.6796 170.032 79.4592C169.243 78.6058 168.453 77.7057 167.664 76.8406C167.152 76.3019 166.477 75.9462 165.744 75.828C165.01 75.7097 164.257 75.8355 163.602 76.1859L155.255 81.0023C154.961 81.1498 154.706 81.3648 154.512 81.6298C154.317 81.8947 154.188 82.2021 154.135 82.5266C154.082 82.8511 154.106 83.1836 154.207 83.4968C154.307 83.8099 154.48 84.0949 154.712 84.3282Z" fill="white"/>
</g>
<path d="M167.378 102.366L165.66 102.407L160.849 98.7366C160.425 98.4435 159.929 98.2713 159.414 98.2384C158.899 98.2055 158.385 98.313 157.927 98.5495L150.573 102.787L148.265 102.846V104.728C148.275 104.917 148.329 105.1 148.422 105.265C148.515 105.429 148.646 105.569 148.802 105.675L154.788 110.246C155.213 110.538 155.709 110.709 156.223 110.742C156.738 110.775 157.252 110.668 157.71 110.433L166.706 105.242C166.896 105.152 167.059 105.012 167.176 104.837C167.293 104.662 167.361 104.459 167.372 104.249L167.378 102.366Z" fill="#6ED0FF"/>
<path opacity="0.1" d="M167.378 102.366L165.66 102.407L160.849 98.7366C160.425 98.4435 159.929 98.2713 159.414 98.2384C158.899 98.2055 158.385 98.313 157.927 98.5495L150.573 102.787L148.265 102.846V104.728C148.275 104.917 148.329 105.1 148.422 105.265C148.515 105.429 148.646 105.569 148.802 105.675L154.788 110.246C155.213 110.538 155.709 110.709 156.223 110.742C156.738 110.775 157.252 110.668 157.71 110.433L166.706 105.242C166.896 105.152 167.059 105.012 167.176 104.837C167.293 104.662 167.361 104.459 167.372 104.249L167.378 102.366Z" fill="black"/>
<path d="M148.931 101.852L157.933 96.6674C158.391 96.4309 158.905 96.3233 159.42 96.3563C159.935 96.3892 160.431 96.5614 160.855 96.8544L166.858 101.425C167.035 101.525 167.18 101.672 167.276 101.851C167.372 102.029 167.416 102.231 167.403 102.433C167.389 102.635 167.319 102.83 167.2 102.994C167.081 103.158 166.918 103.285 166.73 103.36L157.734 108.551C157.275 108.786 156.761 108.893 156.247 108.86C155.732 108.827 155.236 108.655 154.811 108.364L148.826 103.793C148.651 103.693 148.507 103.546 148.411 103.369C148.314 103.192 148.269 102.991 148.28 102.79C148.291 102.589 148.358 102.394 148.473 102.229C148.588 102.063 148.746 101.933 148.931 101.852Z" fill="#6ED0FF"/>
<path opacity="0.75" d="M148.931 101.852L157.933 96.6674C158.391 96.4309 158.905 96.3233 159.42 96.3563C159.935 96.3892 160.431 96.5614 160.855 96.8544L166.858 101.425C167.035 101.525 167.18 101.672 167.276 101.851C167.372 102.029 167.416 102.231 167.403 102.433C167.389 102.635 167.319 102.83 167.2 102.994C167.081 103.158 166.918 103.285 166.73 103.36L157.734 108.551C157.275 108.786 156.761 108.893 156.247 108.86C155.732 108.827 155.236 108.655 154.811 108.364L148.826 103.793C148.651 103.693 148.507 103.546 148.411 103.369C148.314 103.192 148.269 102.991 148.28 102.79C148.291 102.589 148.358 102.394 148.473 102.229C148.588 102.063 148.746 101.933 148.931 101.852Z" fill="white"/>
<path d="M202.514 129.155L200.796 129.202L195.985 125.525C195.56 125.233 195.064 125.062 194.549 125.029C194.035 124.996 193.521 125.103 193.062 125.338L185.703 129.581L183.395 129.634V131.516C183.403 131.705 183.457 131.889 183.55 132.054C183.644 132.218 183.775 132.359 183.932 132.463L189.918 137.034C190.342 137.327 190.838 137.499 191.353 137.532C191.868 137.565 192.382 137.458 192.84 137.221L201.813 132.013C202.003 131.922 202.164 131.78 202.281 131.604C202.397 131.428 202.463 131.224 202.473 131.014L202.514 129.155Z" fill="#6ED0FF"/>
<path opacity="0.1" d="M202.514 129.155L200.796 129.202L195.985 125.525C195.56 125.233 195.064 125.062 194.549 125.029C194.035 124.996 193.521 125.103 193.062 125.338L185.703 129.581L183.395 129.634V131.516C183.403 131.705 183.457 131.889 183.55 132.054C183.644 132.218 183.775 132.359 183.932 132.463L189.918 137.034C190.342 137.327 190.838 137.499 191.353 137.532C191.868 137.565 192.382 137.458 192.84 137.221L201.813 132.013C202.003 131.922 202.164 131.78 202.281 131.604C202.397 131.428 202.463 131.224 202.473 131.014L202.514 129.155Z" fill="black"/>
<path d="M184.037 128.64L193.039 123.456C193.497 123.22 194.011 123.114 194.526 123.147C195.04 123.179 195.536 123.351 195.961 123.643L201.929 128.214C202.105 128.314 202.249 128.462 202.345 128.641C202.441 128.82 202.485 129.022 202.472 129.224C202.458 129.427 202.388 129.621 202.27 129.786C202.151 129.95 201.988 130.078 201.8 130.154L192.799 135.339C192.341 135.576 191.826 135.683 191.312 135.65C190.797 135.617 190.301 135.445 189.876 135.152L183.891 130.581C183.717 130.478 183.576 130.328 183.483 130.148C183.39 129.969 183.348 129.767 183.363 129.565C183.379 129.364 183.45 129.171 183.569 129.007C183.688 128.844 183.85 128.717 184.037 128.64Z" fill="#6ED0FF"/>
<path opacity="0.75" d="M184.037 128.64L193.039 123.456C193.497 123.22 194.011 123.114 194.526 123.147C195.04 123.179 195.536 123.351 195.961 123.643L201.929 128.214C202.105 128.314 202.249 128.462 202.345 128.641C202.441 128.82 202.485 129.022 202.472 129.224C202.458 129.427 202.388 129.621 202.27 129.786C202.151 129.95 201.988 130.078 201.8 130.154L192.799 135.339C192.341 135.576 191.826 135.683 191.312 135.65C190.797 135.617 190.301 135.445 189.876 135.152L183.891 130.581C183.717 130.478 183.576 130.328 183.483 130.148C183.39 129.969 183.348 129.767 183.363 129.565C183.379 129.364 183.45 129.171 183.569 129.007C183.688 128.844 183.85 128.717 184.037 128.64Z" fill="white"/>
<path d="M179.08 111.298L177.362 111.339L172.551 107.668C172.127 107.375 171.631 107.203 171.117 107.169C170.602 107.135 170.088 107.241 169.629 107.475L162.27 111.719L159.932 111.777V113.659C159.943 113.848 159.997 114.031 160.09 114.195C160.184 114.359 160.313 114.5 160.469 114.606L166.496 119.154C166.92 119.446 167.416 119.619 167.93 119.653C168.445 119.687 168.959 119.581 169.418 119.347L178.414 114.156C178.604 114.066 178.767 113.926 178.884 113.751C179.001 113.576 179.069 113.373 179.08 113.162V111.298Z" fill="#6ED0FF"/>
<path opacity="0.1" d="M179.08 111.298L177.362 111.339L172.551 107.668C172.127 107.375 171.631 107.203 171.117 107.169C170.602 107.135 170.088 107.241 169.629 107.475L162.27 111.719L159.932 111.777V113.659C159.943 113.848 159.997 114.031 160.09 114.195C160.184 114.359 160.313 114.5 160.469 114.606L166.496 119.154C166.92 119.446 167.416 119.619 167.93 119.653C168.445 119.687 168.959 119.581 169.418 119.347L178.414 114.156C178.604 114.066 178.767 113.926 178.884 113.751C179.001 113.576 179.069 113.373 179.08 113.162V111.298Z" fill="black"/>
<path d="M160.633 110.783L169.634 105.593C170.093 105.358 170.608 105.253 171.122 105.287C171.637 105.321 172.132 105.493 172.557 105.786L178.548 110.351C178.724 110.451 178.869 110.6 178.964 110.778C179.06 110.957 179.104 111.159 179.091 111.361C179.077 111.564 179.007 111.758 178.889 111.923C178.77 112.087 178.607 112.215 178.42 112.292L169.424 117.482C168.965 117.716 168.45 117.822 167.936 117.788C167.421 117.754 166.926 117.582 166.501 117.289L160.51 112.724C160.336 112.623 160.193 112.474 160.098 112.296C160.003 112.118 159.959 111.917 159.972 111.716C159.985 111.514 160.053 111.32 160.17 111.156C160.287 110.991 160.447 110.862 160.633 110.783Z" fill="#6ED0FF"/>
<path opacity="0.75" d="M160.633 110.783L169.634 105.593C170.093 105.358 170.608 105.253 171.122 105.287C171.637 105.321 172.132 105.493 172.557 105.786L178.548 110.351C178.724 110.451 178.869 110.6 178.964 110.778C179.06 110.957 179.104 111.159 179.091 111.361C179.077 111.564 179.007 111.758 178.889 111.923C178.77 112.087 178.607 112.215 178.42 112.292L169.424 117.482C168.965 117.716 168.45 117.822 167.936 117.788C167.421 117.754 166.926 117.582 166.501 117.289L160.51 112.724C160.336 112.623 160.193 112.474 160.098 112.296C160.003 112.118 159.959 111.917 159.972 111.716C159.985 111.514 160.053 111.32 160.17 111.156C160.287 110.991 160.447 110.862 160.633 110.783Z" fill="white"/>
<path d="M190.783 120.223L189.064 120.27L184.254 116.594C183.829 116.302 183.333 116.13 182.818 116.097C182.304 116.064 181.79 116.171 181.331 116.406L173.972 120.65L171.663 120.709V122.591C171.673 122.779 171.727 122.962 171.82 123.125C171.913 123.289 172.044 123.428 172.201 123.532L178.186 128.103C178.611 128.396 179.107 128.568 179.622 128.601C180.136 128.634 180.65 128.526 181.109 128.29L190.105 123.105C190.295 123.014 190.456 122.872 190.573 122.696C190.689 122.52 190.755 122.316 190.765 122.106L190.783 120.223Z" fill="#6ED0FF"/>
<path opacity="0.1" d="M190.783 120.223L189.064 120.27L184.254 116.594C183.829 116.302 183.333 116.13 182.818 116.097C182.304 116.064 181.79 116.171 181.331 116.406L173.972 120.65L171.663 120.709V122.591C171.673 122.779 171.727 122.962 171.82 123.125C171.913 123.289 172.044 123.428 172.201 123.532L178.186 128.103C178.611 128.396 179.107 128.568 179.622 128.601C180.136 128.634 180.65 128.526 181.109 128.29L190.105 123.105C190.295 123.014 190.456 122.872 190.573 122.696C190.689 122.52 190.755 122.316 190.765 122.106L190.783 120.223Z" fill="black"/>
<path d="M172.334 119.738L181.336 114.548C181.795 114.312 182.308 114.206 182.823 114.239C183.337 114.271 183.834 114.443 184.259 114.735L190.238 119.282C190.414 119.383 190.559 119.531 190.655 119.71C190.75 119.888 190.794 120.09 190.781 120.293C190.767 120.495 190.697 120.69 190.579 120.854C190.46 121.019 190.297 121.146 190.11 121.223L181.114 126.408C180.655 126.644 180.141 126.752 179.627 126.719C179.112 126.686 178.616 126.514 178.191 126.221L172.206 121.65C172.038 121.546 171.901 121.399 171.81 121.224C171.72 121.049 171.679 120.852 171.692 120.655C171.705 120.458 171.772 120.269 171.885 120.107C171.999 119.945 172.154 119.818 172.334 119.738Z" fill="#6ED0FF"/>
<path opacity="0.75" d="M172.334 119.738L181.336 114.548C181.795 114.312 182.308 114.206 182.823 114.239C183.337 114.271 183.834 114.443 184.259 114.735L190.238 119.282C190.414 119.383 190.559 119.531 190.655 119.71C190.75 119.888 190.794 120.09 190.781 120.293C190.767 120.495 190.697 120.69 190.579 120.854C190.46 121.019 190.297 121.146 190.11 121.223L181.114 126.408C180.655 126.644 180.141 126.752 179.627 126.719C179.112 126.686 178.616 126.514 178.191 126.221L172.206 121.65C172.038 121.546 171.901 121.399 171.81 121.224C171.72 121.049 171.679 120.852 171.692 120.655C171.705 120.458 171.772 120.269 171.885 120.107C171.999 119.945 172.154 119.818 172.334 119.738Z" fill="white"/>
<path d="M185.44 91.9562L183.721 92.003L178.911 88.3264C178.486 88.0345 177.99 87.863 177.475 87.8301C176.961 87.7972 176.447 87.904 175.988 88.1393L168.612 92.3829L166.273 92.4414V94.3235C166.285 94.5112 166.339 94.6937 166.432 94.8569C166.526 95.0202 166.655 95.1597 166.811 95.2646L172.855 99.8647C173.28 100.158 173.776 100.33 174.29 100.363C174.805 100.396 175.319 100.288 175.778 100.052L184.779 94.8671C184.969 94.7756 185.131 94.6343 185.247 94.4584C185.364 94.2824 185.43 94.0783 185.44 93.8676V91.9562Z" fill="#6ED0FF"/>
<path opacity="0.1" d="M185.44 91.9562L183.721 92.003L178.911 88.3264C178.486 88.0345 177.99 87.863 177.475 87.8301C176.961 87.7972 176.447 87.904 175.988 88.1393L168.612 92.3829L166.273 92.4414V94.3235C166.285 94.5112 166.339 94.6937 166.432 94.8569C166.526 95.0202 166.655 95.1597 166.811 95.2646L172.855 99.8647C173.28 100.158 173.776 100.33 174.29 100.363C174.805 100.396 175.319 100.288 175.778 100.052L184.779 94.8671C184.969 94.7756 185.131 94.6343 185.247 94.4584C185.364 94.2824 185.43 94.0783 185.44 93.8676V91.9562Z" fill="black"/>
<path d="M166.992 91.4477L175.993 86.2572C176.452 86.0219 176.966 85.915 177.48 85.948C177.995 85.9809 178.491 86.1524 178.916 86.4442L184.901 91.0151C185.075 91.1167 185.218 91.2648 185.313 91.4428C185.408 91.6209 185.452 91.8219 185.439 92.0233C185.426 92.2248 185.358 92.4187 185.241 92.5834C185.124 92.748 184.964 92.877 184.778 92.9557L175.777 98.1404C175.318 98.3769 174.804 98.4845 174.29 98.4515C173.775 98.4186 173.279 98.2464 172.854 97.9533L166.857 93.3824C166.683 93.2808 166.54 93.1324 166.446 92.9541C166.352 92.7758 166.309 92.5746 166.323 92.3733C166.337 92.172 166.407 91.9786 166.525 91.815C166.643 91.6515 166.805 91.5242 166.992 91.4477Z" fill="#6ED0FF"/>
<path opacity="0.75" d="M166.992 91.4477L175.993 86.2572C176.452 86.0219 176.966 85.915 177.48 85.948C177.995 85.9809 178.491 86.1524 178.916 86.4442L184.901 91.0151C185.075 91.1167 185.218 91.2648 185.313 91.4428C185.408 91.6209 185.452 91.8219 185.439 92.0233C185.426 92.2248 185.358 92.4187 185.241 92.5834C185.124 92.748 184.964 92.877 184.778 92.9557L175.777 98.1404C175.318 98.3769 174.804 98.4845 174.29 98.4515C173.775 98.4186 173.279 98.2464 172.854 97.9533L166.857 93.3824C166.683 93.2808 166.54 93.1324 166.446 92.9541C166.352 92.7758 166.309 92.5746 166.323 92.3733C166.337 92.172 166.407 91.9786 166.525 91.815C166.643 91.6515 166.805 91.5242 166.992 91.4477Z" fill="white"/>
<path d="M220.546 118.75L218.828 118.791L214.017 115.115C213.592 114.824 213.096 114.653 212.582 114.62C212.067 114.587 211.554 114.694 211.095 114.928L203.741 119.154L201.403 119.212V121.094C201.414 121.283 201.468 121.467 201.561 121.631C201.654 121.795 201.784 121.936 201.941 122.041L207.927 126.606C208.351 126.899 208.847 127.072 209.361 127.106C209.876 127.139 210.39 127.034 210.849 126.799L219.845 121.609C220.035 121.517 220.197 121.376 220.313 121.2C220.429 121.024 220.496 120.82 220.505 120.609L220.546 118.75Z" fill="#6ED0FF"/>
<path opacity="0.1" d="M220.546 118.75L218.828 118.791L214.017 115.115C213.592 114.824 213.096 114.653 212.582 114.62C212.067 114.587 211.554 114.694 211.095 114.928L203.741 119.154L201.403 119.212V121.094C201.414 121.283 201.468 121.467 201.561 121.631C201.654 121.795 201.784 121.936 201.941 122.041L207.927 126.606C208.351 126.899 208.847 127.072 209.361 127.106C209.876 127.139 210.39 127.034 210.849 126.799L219.845 121.609C220.035 121.517 220.197 121.376 220.313 121.2C220.429 121.024 220.496 120.82 220.505 120.609L220.546 118.75Z" fill="black"/>
<path d="M202.099 118.236L211.1 113.046C211.559 112.811 212.073 112.705 212.588 112.739C213.102 112.773 213.598 112.946 214.023 113.238L220.008 117.803C220.184 117.904 220.328 118.052 220.424 118.231C220.52 118.41 220.564 118.612 220.551 118.814C220.537 119.016 220.467 119.211 220.349 119.375C220.23 119.54 220.067 119.668 219.879 119.744L210.884 124.935C210.425 125.169 209.91 125.275 209.396 125.241C208.881 125.207 208.386 125.034 207.961 124.742L201.976 120.177C201.801 120.075 201.659 119.927 201.564 119.749C201.469 119.571 201.425 119.37 201.438 119.168C201.45 118.967 201.519 118.773 201.636 118.608C201.752 118.444 201.913 118.315 202.099 118.236Z" fill="#6ED0FF"/>
<path opacity="0.75" d="M202.099 118.236L211.1 113.046C211.559 112.811 212.073 112.705 212.588 112.739C213.102 112.773 213.598 112.946 214.023 113.238L220.008 117.803C220.184 117.904 220.328 118.052 220.424 118.231C220.52 118.41 220.564 118.612 220.551 118.814C220.537 119.016 220.467 119.211 220.349 119.375C220.23 119.54 220.067 119.668 219.879 119.744L210.884 124.935C210.425 125.169 209.91 125.275 209.396 125.241C208.881 125.207 208.386 125.034 207.961 124.742L201.976 120.177C201.801 120.075 201.659 119.927 201.564 119.749C201.469 119.571 201.425 119.37 201.438 119.168C201.45 118.967 201.519 118.773 201.636 118.608C201.752 118.444 201.913 118.315 202.099 118.236Z" fill="white"/>
<path d="M197.142 100.888L195.423 100.934L190.613 97.2578C190.188 96.9647 189.692 96.7925 189.178 96.7596C188.663 96.7266 188.149 96.8342 187.69 97.0707L180.331 101.308L178.022 101.367V103.249C178.033 103.438 178.087 103.621 178.18 103.786C178.273 103.95 178.403 104.09 178.56 104.196L184.546 108.767C184.971 109.059 185.467 109.23 185.981 109.263C186.496 109.296 187.01 109.189 187.468 108.954L196.47 103.769C196.658 103.68 196.82 103.542 196.937 103.369C197.054 103.196 197.123 102.996 197.136 102.787L197.142 100.888Z" fill="#6ED0FF"/>
<path opacity="0.1" d="M197.142 100.888L195.423 100.934L190.613 97.2578C190.188 96.9647 189.692 96.7925 189.178 96.7596C188.663 96.7266 188.149 96.8342 187.69 97.0707L180.331 101.308L178.022 101.367V103.249C178.033 103.438 178.087 103.621 178.18 103.786C178.273 103.95 178.403 104.09 178.56 104.196L184.546 108.767C184.971 109.059 185.467 109.23 185.981 109.263C186.496 109.296 187.01 109.189 187.468 108.954L196.47 103.769C196.658 103.68 196.82 103.542 196.937 103.369C197.054 103.196 197.123 102.996 197.136 102.787L197.142 100.888Z" fill="black"/>
<path d="M178.694 100.373L187.696 95.1886C188.155 94.9533 188.668 94.8464 189.183 94.8794C189.697 94.9123 190.193 95.0838 190.618 95.3756L196.604 99.9465C196.778 100.048 196.921 100.196 197.016 100.374C197.111 100.552 197.155 100.753 197.142 100.955C197.129 101.156 197.061 101.35 196.944 101.515C196.827 101.679 196.667 101.808 196.481 101.887L187.48 107.072C187.021 107.307 186.507 107.414 185.992 107.381C185.478 107.348 184.982 107.177 184.557 106.885L178.548 102.314C178.374 102.21 178.233 102.06 178.14 101.881C178.047 101.702 178.005 101.5 178.021 101.298C178.036 101.097 178.107 100.903 178.226 100.74C178.345 100.577 178.507 100.45 178.694 100.373Z" fill="#6ED0FF"/>
<path opacity="0.75" d="M178.694 100.373L187.696 95.1886C188.155 94.9533 188.668 94.8464 189.183 94.8794C189.697 94.9123 190.193 95.0838 190.618 95.3756L196.604 99.9465C196.778 100.048 196.921 100.196 197.016 100.374C197.111 100.552 197.155 100.753 197.142 100.955C197.129 101.156 197.061 101.35 196.944 101.515C196.827 101.679 196.667 101.808 196.481 101.887L187.48 107.072C187.021 107.307 186.507 107.414 185.992 107.381C185.478 107.348 184.982 107.177 184.557 106.885L178.548 102.314C178.374 102.21 178.233 102.06 178.14 101.881C178.047 101.702 178.005 101.5 178.021 101.298C178.036 101.097 178.107 100.903 178.226 100.74C178.345 100.577 178.507 100.45 178.694 100.373Z" fill="white"/>
<path d="M208.844 109.801L207.126 109.842L202.315 106.172C201.891 105.879 201.394 105.706 200.88 105.673C200.365 105.64 199.851 105.748 199.393 105.985L192.033 110.222L189.725 110.281V112.163C189.735 112.352 189.789 112.535 189.882 112.7C189.975 112.864 190.106 113.004 190.262 113.11L196.248 117.681C196.673 117.971 197.169 118.142 197.683 118.175C198.198 118.208 198.711 118.102 199.17 117.868L208.172 112.724C208.362 112.634 208.525 112.494 208.642 112.319C208.759 112.144 208.827 111.941 208.838 111.73L208.844 109.801Z" fill="#6ED0FF"/>
<path opacity="0.1" d="M208.844 109.801L207.126 109.842L202.315 106.172C201.891 105.879 201.394 105.706 200.88 105.673C200.365 105.64 199.851 105.748 199.393 105.985L192.033 110.222L189.725 110.281V112.163C189.735 112.352 189.789 112.535 189.882 112.7C189.975 112.864 190.106 113.004 190.262 113.11L196.248 117.681C196.673 117.971 197.169 118.142 197.683 118.175C198.198 118.208 198.711 118.102 199.17 117.868L208.172 112.724C208.362 112.634 208.525 112.494 208.642 112.319C208.759 112.144 208.827 111.941 208.838 111.73L208.844 109.801Z" fill="black"/>
<path d="M190.397 109.305L199.399 104.12C199.857 103.883 200.371 103.776 200.886 103.809C201.401 103.842 201.897 104.014 202.321 104.307L208.307 108.878C208.483 108.978 208.628 109.125 208.724 109.303C208.821 109.482 208.865 109.684 208.851 109.886C208.838 110.088 208.767 110.282 208.648 110.446C208.529 110.61 208.366 110.737 208.178 110.813L199.183 116.003C198.724 116.238 198.21 116.345 197.696 116.312C197.181 116.279 196.685 116.108 196.26 115.816L190.275 111.245C190.1 111.144 189.957 110.996 189.862 110.818C189.767 110.639 189.724 110.438 189.737 110.237C189.749 110.036 189.818 109.842 189.935 109.677C190.051 109.512 190.212 109.383 190.397 109.305Z" fill="#6ED0FF"/>
<path opacity="0.75" d="M190.397 109.305L199.399 104.12C199.857 103.883 200.371 103.776 200.886 103.809C201.401 103.842 201.897 104.014 202.321 104.307L208.307 108.878C208.483 108.978 208.628 109.125 208.724 109.303C208.821 109.482 208.865 109.684 208.851 109.886C208.838 110.088 208.767 110.282 208.648 110.446C208.529 110.61 208.366 110.737 208.178 110.813L199.183 116.003C198.724 116.238 198.21 116.345 197.696 116.312C197.181 116.279 196.685 116.108 196.26 115.816L190.275 111.245C190.1 111.144 189.957 110.996 189.862 110.818C189.767 110.639 189.724 110.438 189.737 110.237C189.749 110.036 189.818 109.842 189.935 109.677C190.051 109.512 190.212 109.383 190.397 109.305Z" fill="white"/>
<path d="M203.495 81.546L201.777 81.5869L196.966 77.9161C196.542 77.6231 196.046 77.4509 195.531 77.4179C195.016 77.385 194.502 77.4925 194.044 77.7291L186.685 81.9668L184.376 82.0253V83.9074C184.386 84.0961 184.44 84.2798 184.534 84.4441C184.627 84.6084 184.757 84.7488 184.914 84.8543L190.899 89.4252C191.324 89.7171 191.82 89.8886 192.335 89.9215C192.849 89.9544 193.363 89.8476 193.822 89.6123L202.817 84.4218C203.008 84.3315 203.17 84.1916 203.287 84.0166C203.405 83.8417 203.473 83.6384 203.484 83.4281L203.495 81.546Z" fill="#6ED0FF"/>
<path opacity="0.1" d="M203.495 81.546L201.777 81.5869L196.966 77.9161C196.542 77.6231 196.046 77.4509 195.531 77.4179C195.016 77.385 194.502 77.4925 194.044 77.7291L186.685 81.9668L184.376 82.0253V83.9074C184.386 84.0961 184.44 84.2798 184.534 84.4441C184.627 84.6084 184.757 84.7488 184.914 84.8543L190.899 89.4252C191.324 89.7171 191.82 89.8886 192.335 89.9215C192.849 89.9544 193.363 89.8476 193.822 89.6123L202.817 84.4218C203.008 84.3315 203.17 84.1916 203.287 84.0166C203.405 83.8417 203.473 83.6384 203.484 83.4281L203.495 81.546Z" fill="black"/>
<path d="M185.048 81.0316L194.049 75.8469C194.508 75.6104 195.022 75.5028 195.536 75.5358C196.051 75.5687 196.547 75.7409 196.972 76.034L202.957 80.6049C203.134 80.7045 203.278 80.852 203.375 81.0303C203.471 81.2086 203.515 81.4105 203.502 81.6127C203.488 81.8149 203.418 82.0092 203.299 82.1732C203.18 82.3372 203.017 82.4642 202.829 82.5396L193.833 87.7301C193.374 87.9654 192.86 88.0723 192.346 88.0393C191.831 88.0064 191.335 87.8349 190.91 87.5431L184.925 82.9722C184.751 82.8706 184.608 82.7225 184.513 82.5445C184.418 82.3664 184.374 82.1654 184.387 81.964C184.4 81.7625 184.468 81.5686 184.585 81.4039C184.702 81.2393 184.862 81.1103 185.048 81.0316Z" fill="#6ED0FF"/>
<path opacity="0.75" d="M185.048 81.0316L194.049 75.8469C194.508 75.6104 195.022 75.5028 195.536 75.5358C196.051 75.5687 196.547 75.7409 196.972 76.034L202.957 80.6049C203.134 80.7045 203.278 80.852 203.375 81.0303C203.471 81.2086 203.515 81.4105 203.502 81.6127C203.488 81.8149 203.418 82.0092 203.299 82.1732C203.18 82.3372 203.017 82.4642 202.829 82.5396L193.833 87.7301C193.374 87.9654 192.86 88.0723 192.346 88.0393C191.831 88.0064 191.335 87.8349 190.91 87.5431L184.925 82.9722C184.751 82.8706 184.608 82.7225 184.513 82.5445C184.418 82.3664 184.374 82.1654 184.387 81.964C184.4 81.7625 184.468 81.5686 184.585 81.4039C184.702 81.2393 184.862 81.1103 185.048 81.0316Z" fill="white"/>
<path d="M238.601 108.334L236.883 108.381L232.072 104.704C231.647 104.411 231.151 104.239 230.637 104.206C230.122 104.173 229.608 104.281 229.149 104.517L221.802 108.755L219.493 108.814V110.696C219.502 110.885 219.555 111.069 219.649 111.234C219.742 111.398 219.873 111.538 220.031 111.643L226.016 116.231C226.441 116.524 226.937 116.696 227.452 116.729C227.967 116.762 228.481 116.655 228.939 116.418L237.94 111.234C238.131 111.142 238.292 111.001 238.409 110.825C238.525 110.649 238.591 110.445 238.601 110.234V108.334Z" fill="#6ED0FF"/>
<path opacity="0.1" d="M238.601 108.334L236.883 108.381L232.072 104.704C231.647 104.411 231.151 104.239 230.637 104.206C230.122 104.173 229.608 104.281 229.149 104.517L221.802 108.755L219.493 108.814V110.696C219.502 110.885 219.555 111.069 219.649 111.234C219.742 111.398 219.873 111.538 220.031 111.643L226.016 116.231C226.441 116.524 226.937 116.696 227.452 116.729C227.967 116.762 228.481 116.655 228.939 116.418L237.94 111.234C238.131 111.142 238.292 111.001 238.409 110.825C238.525 110.649 238.591 110.445 238.601 110.234V108.334Z" fill="black"/>
<path d="M220.154 107.82L229.155 102.635C229.614 102.4 230.128 102.293 230.642 102.326C231.157 102.359 231.653 102.53 232.078 102.822L238.063 107.393C238.24 107.494 238.384 107.642 238.48 107.821C238.576 107.999 238.62 108.201 238.606 108.404C238.593 108.606 238.523 108.801 238.404 108.965C238.285 109.13 238.123 109.257 237.935 109.334L228.933 114.519C228.475 114.755 227.961 114.863 227.446 114.83C226.931 114.797 226.435 114.625 226.011 114.331L220.049 109.761C219.874 109.66 219.73 109.514 219.633 109.337C219.537 109.16 219.492 108.959 219.503 108.758C219.513 108.556 219.58 108.362 219.695 108.196C219.81 108.031 219.969 107.9 220.154 107.82Z" fill="#6ED0FF"/>
<path opacity="0.75" d="M220.154 107.82L229.155 102.635C229.614 102.4 230.128 102.293 230.642 102.326C231.157 102.359 231.653 102.53 232.078 102.822L238.063 107.393C238.24 107.494 238.384 107.642 238.48 107.821C238.576 107.999 238.62 108.201 238.606 108.404C238.593 108.606 238.523 108.801 238.404 108.965C238.285 109.13 238.123 109.257 237.935 109.334L228.933 114.519C228.475 114.755 227.961 114.863 227.446 114.83C226.931 114.797 226.435 114.625 226.011 114.331L220.049 109.761C219.874 109.66 219.73 109.514 219.633 109.337C219.537 109.16 219.492 108.959 219.503 108.758C219.513 108.556 219.58 108.362 219.695 108.196C219.81 108.031 219.969 107.9 220.154 107.82Z" fill="white"/>
<path d="M226.9 99.4029L225.181 99.4497L220.371 95.7731C219.946 95.4812 219.45 95.3098 218.935 95.2768C218.421 95.2439 217.907 95.3507 217.448 95.586L210.112 99.8296L207.774 99.8881V101.77C207.784 101.958 207.838 102.141 207.931 102.305C208.025 102.468 208.155 102.607 208.312 102.711L214.298 107.282C214.722 107.576 215.218 107.749 215.733 107.782C216.248 107.815 216.762 107.707 217.22 107.469L226.222 102.285C226.412 102.193 226.573 102.052 226.69 101.876C226.806 101.7 226.873 101.496 226.882 101.285L226.9 99.4029Z" fill="#6ED0FF"/>
<path opacity="0.1" d="M226.9 99.4029L225.181 99.4497L220.371 95.7731C219.946 95.4812 219.45 95.3098 218.935 95.2768C218.421 95.2439 217.907 95.3507 217.448 95.586L210.112 99.8296L207.774 99.8881V101.77C207.784 101.958 207.838 102.141 207.931 102.305C208.025 102.468 208.155 102.607 208.312 102.711L214.298 107.282C214.722 107.576 215.218 107.749 215.733 107.782C216.248 107.815 216.762 107.707 217.22 107.469L226.222 102.285C226.412 102.193 226.573 102.052 226.69 101.876C226.806 101.7 226.873 101.496 226.882 101.285L226.9 99.4029Z" fill="black"/>
<path d="M208.452 98.8944L217.454 93.7039C217.913 93.4686 218.427 93.3618 218.941 93.3947C219.456 93.4276 219.952 93.5991 220.377 93.8909L226.362 98.4619C226.538 98.5624 226.682 98.7105 226.778 98.8892C226.874 99.0679 226.918 99.27 226.905 99.4724C226.891 99.6748 226.821 99.8693 226.703 100.034C226.584 100.198 226.421 100.326 226.233 100.402L217.232 105.587C216.774 105.825 216.26 105.933 215.745 105.9C215.229 105.867 214.733 105.694 214.309 105.4L208.359 100.829C208.183 100.731 208.038 100.586 207.941 100.41C207.843 100.234 207.796 100.034 207.806 99.8328C207.816 99.6317 207.881 99.4373 207.996 99.2715C208.11 99.1057 208.268 98.9751 208.452 98.8944Z" fill="#6ED0FF"/>
<path opacity="0.75" d="M208.452 98.8944L217.454 93.7039C217.913 93.4686 218.427 93.3618 218.941 93.3947C219.456 93.4276 219.952 93.5991 220.377 93.8909L226.362 98.4619C226.538 98.5624 226.682 98.7105 226.778 98.8892C226.874 99.0679 226.918 99.27 226.905 99.4724C226.891 99.6748 226.821 99.8693 226.703 100.034C226.584 100.198 226.421 100.326 226.233 100.402L217.232 105.587C216.774 105.825 216.26 105.933 215.745 105.9C215.229 105.867 214.733 105.694 214.309 105.4L208.359 100.829C208.183 100.731 208.038 100.586 207.941 100.41C207.843 100.234 207.796 100.034 207.806 99.8328C207.816 99.6317 207.881 99.4373 207.996 99.2715C208.11 99.1057 208.268 98.9751 208.452 98.8944Z" fill="white"/>
<path d="M215.198 90.4774L213.479 90.5183L208.669 86.8475C208.244 86.5547 207.748 86.3822 207.234 86.3483C206.719 86.3143 206.205 86.4202 205.746 86.6546L198.422 90.8982L196.113 90.9567V92.8505C196.123 93.0393 196.177 93.2231 196.27 93.3875C196.364 93.5519 196.494 93.6922 196.651 93.7974L202.636 98.3625C203.061 98.6553 203.557 98.8278 204.071 98.8617C204.586 98.8957 205.1 98.7898 205.559 98.5554L214.555 93.3649C214.744 93.2738 214.905 93.1335 215.021 92.9586C215.138 92.7838 215.205 92.5809 215.215 92.3712L215.198 90.4774Z" fill="#6ED0FF"/>
<path opacity="0.1" d="M215.198 90.4774L213.479 90.5183L208.669 86.8475C208.244 86.5547 207.748 86.3822 207.234 86.3483C206.719 86.3143 206.205 86.4202 205.746 86.6546L198.422 90.8982L196.113 90.9567V92.8505C196.123 93.0393 196.177 93.2231 196.27 93.3875C196.364 93.5519 196.494 93.6922 196.651 93.7974L202.636 98.3625C203.061 98.6553 203.557 98.8278 204.071 98.8617C204.586 98.8957 205.1 98.7898 205.559 98.5554L214.555 93.3649C214.744 93.2738 214.905 93.1335 215.021 92.9586C215.138 92.7838 215.205 92.5809 215.215 92.3712L215.198 90.4774Z" fill="black"/>
<path d="M196.751 89.963L205.752 84.7725C206.212 84.538 206.726 84.4322 207.24 84.4661C207.755 84.5001 208.251 84.6726 208.675 84.9654L214.66 89.5304C214.837 89.631 214.981 89.7791 215.077 89.9578C215.173 90.1365 215.217 90.3386 215.203 90.541C215.19 90.7433 215.12 90.9379 215.001 91.1024C214.882 91.2668 214.72 91.3946 214.532 91.471L205.536 96.6615C205.077 96.896 204.563 97.0018 204.048 96.9679C203.534 96.9339 203.038 96.7614 202.614 96.4686L196.628 91.9036C196.454 91.802 196.311 91.6539 196.216 91.4759C196.121 91.2978 196.077 91.0968 196.09 90.8954C196.103 90.6939 196.171 90.5 196.288 90.3354C196.405 90.1707 196.565 90.0417 196.751 89.963Z" fill="#6ED0FF"/>
<path opacity="0.75" d="M196.751 89.963L205.752 84.7725C206.212 84.538 206.726 84.4322 207.24 84.4661C207.755 84.5001 208.251 84.6726 208.675 84.9654L214.66 89.5304C214.837 89.631 214.981 89.7791 215.077 89.9578C215.173 90.1365 215.217 90.3386 215.203 90.541C215.19 90.7433 215.12 90.9379 215.001 91.1024C214.882 91.2668 214.72 91.3946 214.532 91.471L205.536 96.6615C205.077 96.896 204.563 97.0018 204.048 96.9679C203.534 96.9339 203.038 96.7614 202.614 96.4686L196.628 91.9036C196.454 91.802 196.311 91.6539 196.216 91.4759C196.121 91.2978 196.077 91.0968 196.09 90.8954C196.103 90.6939 196.171 90.5 196.288 90.3354C196.405 90.1707 196.565 90.0417 196.751 89.963Z" fill="white"/>
<path d="M70.2147 35.2405V28.7582C70.2085 27.1516 69.566 25.6128 68.4277 24.479C67.2894 23.3451 65.7483 22.7084 64.1416 22.7085V29.1907C64.1478 30.7974 64.7904 32.3361 65.9286 33.47C67.0669 34.6039 68.6081 35.2405 70.2147 35.2405Z" fill="#263238"/>
<path d="M89.9714 88.4548L70.5596 78.594L72.3131 111.21L91.7249 121.071L89.9714 88.4548Z" fill="#6ED0FF"/>
<path opacity="0.5" d="M89.9714 88.4548L70.5596 78.594L72.3131 111.21L91.7249 121.071L89.9714 88.4548Z" fill="white"/>
<path d="M91.7252 121.071L100.85 115.132L93.6249 86.0817L89.9717 88.4548L91.7252 121.071Z" fill="#6ED0FF"/>
<path d="M100.849 115.132L94.653 114.665L91.7246 121.071L100.849 115.132Z" fill="#6ED0FF"/>
<path opacity="0.3" d="M100.849 115.132L94.653 114.665L91.7246 121.071L100.849 115.132Z" fill="black"/>
<path d="M94.6543 114.665L89.8555 86.2804L89.9724 88.4548L91.7259 121.071L94.6543 114.665Z" fill="#6ED0FF"/>
<path opacity="0.1" d="M94.6543 114.665L89.8555 86.2804L89.9724 88.4548L91.7259 121.071L94.6543 114.665Z" fill="black"/>
<path d="M70.5596 78.594L74.3239 78.3953L74.2069 76.2209L93.6246 86.0817L89.8544 86.2804L89.9714 88.4548L70.5596 78.594Z" fill="#6ED0FF"/>
<path d="M83.8161 87.3208C83.8161 87.5956 83.6408 87.7242 83.3895 87.5956C83.2576 87.5188 83.1455 87.4122 83.0622 87.2843C82.979 87.1564 82.9269 87.0108 82.9102 86.8591C82.9102 86.5785 83.0855 86.4558 83.3369 86.5785C83.4689 86.6565 83.5809 86.7643 83.6641 86.8931C83.7473 87.0219 83.7994 87.1684 83.8161 87.3208Z" fill="#455A64"/>
<path d="M78.0124 84.4217C78.0124 84.7022 77.8371 84.8308 77.5858 84.7022C77.4547 84.6244 77.3434 84.5176 77.2603 84.3898C77.1772 84.2621 77.1245 84.117 77.1064 83.9657C77.1064 83.6852 77.2818 83.5624 77.5331 83.6852C77.6653 83.7616 77.7777 83.8681 77.8609 83.996C77.9442 84.124 77.9961 84.2698 78.0124 84.4217Z" fill="#455A64"/>
<path d="M87.365 85.012C87.365 85.2926 87.1896 85.4153 86.9383 85.2867C86.8058 85.2107 86.6932 85.1043 86.6099 84.9762C86.5266 84.8482 86.4748 84.7022 86.459 84.5502C86.459 84.2697 86.6343 84.1469 86.8857 84.2755C87.0182 84.3515 87.1308 84.458 87.2141 84.586C87.2974 84.7141 87.3491 84.8601 87.365 85.012Z" fill="#455A64"/>
<path d="M81.5955 82.0836C81.5955 82.3642 81.4201 82.4869 81.1688 82.3642C81.0358 82.2872 80.923 82.1798 80.8397 82.0507C80.7564 81.9217 80.7049 81.7747 80.6895 81.6218C80.6895 81.3413 80.8648 81.2185 81.1161 81.3471C81.248 81.4239 81.3601 81.5305 81.4434 81.6584C81.5266 81.7863 81.5787 81.9319 81.5955 82.0836Z" fill="#455A64"/>
<path d="M93.6256 86.0817L89.8555 86.2804L94.6543 114.665L100.85 115.132L93.6256 86.0817Z" fill="#6ED0FF"/>
<path opacity="0.2" d="M93.6256 86.0817L89.8555 86.2804L94.6543 114.665L100.85 115.132L93.6256 86.0817Z" fill="black"/>
<path d="M74.207 76.2209L74.3239 78.3953L74.4408 80.5697L75.4287 81.0665L74.207 76.2209Z" fill="#6ED0FF"/>
<path opacity="0.2" d="M74.207 76.2209L74.3239 78.3953L74.4408 80.5697L75.4287 81.0665L74.207 76.2209Z" fill="black"/>
<path d="M65.4805 28.0275C68.0991 27.8873 73.4007 28.1094 75.3413 35.6263C76.9779 41.939 81.4027 55.757 82.5542 61.8944C83.431 66.5705 84.6351 69.8438 84.8104 73.1054C84.4831 74.783 83.1445 76.6125 79.4621 77.197C75.955 76.2677 76.5687 75.689 76.3232 72.5794C76.0777 69.4697 77.6793 68.5813 77.1708 64.893C76.107 57.1481 69.1746 41.0096 69.1746 41.0096L65.4805 28.0275Z" fill="#B16668"/>
<path d="M86.9094 85.0588C86.8469 85.0578 86.7865 85.036 86.7378 84.9969C86.6891 84.9577 86.6549 84.9034 86.6405 84.8425C86.6405 84.8016 85.7755 81.0081 84.811 78.1323C84.0511 75.8702 82.3794 75.3617 80.9123 74.9116C80.585 74.8122 80.2752 74.7187 79.9946 74.6135C79.9268 74.5849 79.8725 74.5313 79.8432 74.4639C79.8138 74.3964 79.8115 74.3202 79.8368 74.2511C79.8498 74.2165 79.8694 74.1848 79.8947 74.1578C79.92 74.1309 79.9503 74.1092 79.984 74.094C80.0177 74.0787 80.054 74.0703 80.0909 74.0692C80.1279 74.0681 80.1647 74.0743 80.1992 74.0874C80.4681 74.1926 80.7837 74.2803 81.076 74.3797C82.5957 74.8414 84.4895 75.4201 85.3429 77.9569C86.3132 80.8795 87.1783 84.6788 87.1842 84.7198C87.1928 84.7555 87.1941 84.7926 87.1881 84.8288C87.1822 84.8651 87.169 84.8997 87.1493 84.9308C87.1297 84.9619 87.1041 84.9887 87.0739 85.0097C87.0437 85.0306 87.0097 85.0454 86.9737 85.0529L86.9094 85.0588Z" fill="#263238"/>
<path d="M82.3616 69.8438C81.7853 70.9301 81.3549 72.0877 81.0816 73.2866C80.988 73.9354 79.9125 73.4269 79.6963 72.5852C79.5235 71.2422 79.4493 69.8884 79.4741 68.5345C79.4741 68.5345 78.9715 71.1239 79.2462 72.3573C79.5209 73.5906 79.8307 73.8361 80.7308 74.1108C81.631 74.3855 81.4907 73.5906 81.7011 72.5618C81.9116 71.5331 82.3616 69.8438 82.3616 69.8438Z" fill="#9A4A4D"/>
<path d="M83.0335 86.9409L82.6302 79.4065C82.5483 77.7465 82.449 75.8585 79.6491 74.4206C78.6672 73.9179 77.9423 73.7718 77.5975 74.0173C77.2526 74.2628 77.3403 74.8707 77.3403 74.8765L77.8371 84.1235C77.8274 84.1903 77.794 84.2512 77.7431 84.2953C77.6921 84.3394 77.6269 84.3637 77.5595 84.3637C77.4921 84.3637 77.4269 84.3394 77.3759 84.2953C77.325 84.2512 77.2916 84.1903 77.2818 84.1235L76.785 74.9057C76.747 74.6554 76.7714 74.3996 76.856 74.161C76.9407 73.9224 77.0829 73.7084 77.2702 73.538C77.8138 73.1463 78.6788 73.2632 79.9063 73.8945C82.9926 75.4844 83.1036 77.6237 83.1855 79.348L83.5946 86.8708C83.5978 86.9458 83.5714 87.0191 83.5212 87.0748C83.4709 87.1306 83.4007 87.1643 83.3257 87.1689C83.2576 87.1729 83.1904 87.152 83.1366 87.11C83.0828 87.0681 83.0462 87.0079 83.0335 86.9409Z" fill="#263238"/>
<path d="M81.1402 82.0485C81.0777 82.0476 81.0173 82.0258 80.9686 81.9866C80.9199 81.9474 80.8857 81.8931 80.8713 81.8322L79.6263 76.1975C79.6186 76.1614 79.6181 76.1242 79.6248 76.0879C79.6315 76.0516 79.6453 76.017 79.6654 75.9861C79.6854 75.9551 79.7114 75.9284 79.7418 75.9075C79.7723 75.8867 79.8065 75.872 79.8426 75.8643C79.9153 75.8503 79.9906 75.865 80.0528 75.9053C80.1149 75.9457 80.159 76.0085 80.1758 76.0806L81.4149 81.7095C81.4236 81.7452 81.4249 81.7823 81.4189 81.8185C81.4129 81.8548 81.3998 81.8895 81.3801 81.9205C81.3605 81.9516 81.3349 81.9784 81.3047 81.9994C81.2745 82.0204 81.2405 82.0351 81.2045 82.0427L81.1402 82.0485Z" fill="#263238"/>
<path d="M79.2516 74.2335C78.1936 73.5906 76.1361 72.6495 75.6568 73.2223C75.1775 73.7951 74.5638 76.1449 76.9486 76.9749C78.5378 77.4175 80.2333 77.2722 81.7241 76.5658L79.2516 74.2335Z" fill="#9A4A4D"/>
<path d="M61.6457 24.1697H59.3602C56.2598 24.1697 53.2863 22.9381 51.0939 20.7457C48.9016 18.5534 47.6699 15.5799 47.6699 12.4794C47.6699 9.16967 48.9847 5.99548 51.3251 3.65513C53.6654 1.31479 56.8396 0 60.1493 0H60.88C64.1837 0.00618811 67.3501 1.32211 69.685 3.65925C72.02 5.9964 73.3329 9.16405 73.336 12.4677C73.3376 14.0039 73.0363 15.5253 72.4495 16.945C71.8627 18.3647 71.0018 19.6548 69.9161 20.7416C68.8304 21.8284 67.5412 22.6905 66.1221 23.2787C64.703 23.867 63.1819 24.1697 61.6457 24.1697Z" fill="#263238"/>
<path d="M49.2891 3.28498C49.7259 3.3725 50.1102 3.62958 50.3578 3.99989C50.6054 4.37021 50.6962 4.82357 50.6101 5.26065L47.3135 4.58846C47.405 4.1549 47.6637 3.7749 48.0335 3.53089C48.4034 3.28687 48.8546 3.19851 49.2891 3.28498Z" fill="#263238"/>
<path d="M51.4402 2.57187C51.5086 2.78142 51.5351 3.0024 51.518 3.22218C51.501 3.44197 51.4408 3.65623 51.3409 3.85275C51.2411 4.04926 51.1034 4.22416 50.9359 4.36744C50.7684 4.51073 50.5743 4.6196 50.3647 4.68782L49.3242 1.49052C49.5341 1.42221 49.7555 1.39602 49.9756 1.41343C50.1956 1.43084 50.4101 1.49151 50.6067 1.59197C50.8032 1.69243 50.978 1.8307 51.1211 1.99885C51.2641 2.167 51.3725 2.36173 51.4402 2.57187Z" fill="#263238"/>
<path d="M67.9292 156.563C67.1635 155.978 66.2984 155.429 65.6262 154.809C64.1357 153.447 63.6797 149.999 63.5687 148.835C63.4547 147.845 63.4449 146.846 63.5395 145.854C63.8376 143.516 65.556 138.378 65.556 138.378C65.556 138.378 60.0207 134.737 59.9388 134.784C59.857 134.83 58.9393 141.476 58.0333 142.563C56.9344 143.528 55.9934 143.797 55.3738 145.071C54.8302 146.643 55.0523 147.491 55.8881 149.128C56.506 150.545 56.9647 152.028 57.2559 153.547C57.7294 155.464 57.5306 158.603 62.2944 159.561C64.8195 160.07 66.5673 159.731 67.7714 159.193C69.1274 158.591 69.1157 157.457 67.9292 156.563Z" fill="#B16668"/>
<path d="M55.3738 145.077C54.8302 146.649 55.0523 147.497 55.8881 149.133C56.506 150.551 56.9647 152.033 57.2559 153.552C57.7294 155.47 57.5306 158.608 62.2944 159.567C64.8195 160.076 66.5673 159.737 67.7714 159.199C69.1274 158.614 69.1157 157.445 67.9292 156.563C67.3447 156.107 66.6666 155.668 66.0879 155.201C66.7192 156.335 63.6856 156.604 61.9379 155.557C60.1902 154.511 58.0099 147.14 57.7937 145.492C57.6626 144.512 57.7443 143.515 58.0333 142.569C58.0976 142.482 58.1794 142.353 58.1794 142.353C58.1794 142.353 57.9924 142.277 57.7937 142.429C56.7841 143.102 55.9536 144.011 55.3738 145.077Z" fill="#263238"/>
<path d="M73.7684 60.8072C74.6218 70.1595 77.2054 102.238 76.5098 108.282C76.2 111.023 64.5799 141.535 64.5799 141.535C64.5799 141.535 61.745 142.406 59.0737 139.378C60.4532 126.261 61.7742 112.21 64.6383 107.855C64.0947 103.342 58.4658 80.862 58.4658 80.862L73.7684 60.8072Z" fill="#37474F"/>
<path d="M52.8022 151.98V151.156C53.1295 152.12 54.6434 156.294 56.9347 158.38C58.7525 160.046 61.2367 161.964 61.868 163.816C62.4993 165.669 58.4135 166.388 56.7126 166.084C54.7311 165.74 52.1767 164.617 50.7856 162.905C49.8036 161.701 49.1782 160.274 48.4826 159.327C47.787 158.38 46.1445 157.328 45.7938 156.235C45.5834 155.651 45.8347 154.312 46.1211 153.202C46.4076 152.091 46.7057 151.056 47.033 151.156V151.781C47.448 152.249 48.6112 152.711 49.9146 152.757C50.7622 152.792 52.8138 152.623 52.8022 151.98Z" fill="#263238"/>
<path d="M58.5823 159.842C57.9977 159.339 57.4483 158.848 56.9339 158.375C55.3324 156.919 54.1107 154.441 53.4268 152.752C53.0352 151.786 52.8366 150.754 52.8423 149.712V146.421H47.0322V151.775V151.916C47.3069 153.114 49.9548 156.305 51.4629 158.386C52.4741 159.783 54.3854 161.554 56.6826 161.864C58.8804 162.174 59.9909 161.49 58.5823 159.842Z" fill="#B16668"/>
<path d="M48.2019 62.2393C43.7245 72.0182 48.3656 106.458 48.3656 106.458C48.2312 108.048 46.4133 111.169 45.7411 118.148C44.9403 126.396 46.992 147.117 46.992 147.117C47.8734 147.63 48.8671 147.919 49.8862 147.959C50.9052 147.998 51.9185 147.788 52.8372 147.345C52.8372 147.345 58.3433 116.143 59.3779 107.943C60.278 100.782 62.7564 78.7577 62.7564 78.7577L73.8037 60.8014L48.2019 62.2393Z" fill="#37474F"/>
<path d="M57.7233 28.1445L51.7086 28.4309C50.8845 28.6881 48.6691 30.7689 47.7982 33.9546C47.1745 36.5771 47.3145 39.3233 48.2015 41.8689L52.1996 53.4365C52.1996 53.4365 50.3292 57.9665 48.1548 62.2393C58.1909 67.8448 70.7229 64.8988 73.7449 60.8072C73.8676 59.9421 73.6981 56.0317 73.9378 51.5894C74.2008 46.8431 74.8496 41.489 74.1073 38.5605C72.722 33.1187 70.1267 28.01 64.9654 28.01L57.7233 28.1445Z" fill="#6ED0FF"/>
<path d="M69.1045 5.17297C70.4606 5.97376 72.1382 9.38733 71.9745 16.5418C71.8342 22.6032 69.8644 24.0996 68.8824 24.5321C67.9004 24.9647 65.9891 24.7017 64.142 24.3919V28.0334C64.142 28.0334 66.6963 31.0027 66.5385 32.6686C66.3807 34.3345 62.8444 34.7319 60.4537 33.1011C58.9017 31.993 57.5696 30.6055 56.5258 29.0095V20.9549C55.9828 21.1485 55.4018 21.2113 54.83 21.1382C54.2582 21.065 53.7117 20.8581 53.2349 20.5341C51.1774 19.2014 51.1248 15.8053 52.2939 14.6012C53.4629 13.3971 56.0406 13.777 56.5199 15.4429C56.5199 15.4429 59.4717 15.5481 63.3997 13.3913C64.9301 12.5669 66.2444 11.3929 67.2357 9.9649C68.227 8.53688 68.8673 6.89507 69.1045 5.17297Z" fill="#B16668"/>
<path d="M65.463 15.1098C65.4651 15.2601 65.4229 15.4078 65.3417 15.5344C65.2604 15.661 65.1436 15.7608 65.006 15.8214C64.8683 15.882 64.7159 15.9008 64.5676 15.8753C64.4194 15.8498 64.2819 15.7812 64.1724 15.6781C64.0629 15.575 63.9862 15.4419 63.9519 15.2955C63.9175 15.149 63.9271 14.9957 63.9793 14.8547C64.0315 14.7136 64.1242 14.5911 64.2456 14.5024C64.3671 14.4136 64.512 14.3626 64.6622 14.3557C64.7643 14.3526 64.866 14.3696 64.9615 14.4059C65.0571 14.4421 65.1445 14.4968 65.2189 14.5668C65.2932 14.6368 65.3531 14.7208 65.395 14.814C65.4369 14.9071 65.46 15.0076 65.463 15.1098Z" fill="#263238"/>
<path d="M65.4041 20.1717L67.1577 20.7562C67.1264 20.877 67.0706 20.9901 66.9939 21.0885C66.9171 21.1869 66.8209 21.2685 66.7113 21.3282C66.6017 21.388 66.4811 21.4245 66.3567 21.4357C66.2324 21.4469 66.1072 21.4325 65.9887 21.3933C65.7521 21.3048 65.5591 21.1281 65.4501 20.9003C65.3411 20.6725 65.3246 20.4114 65.4041 20.1717Z" fill="#9A4A4D"/>
<path d="M71.4543 12.6899L69.9111 11.6027C69.9757 11.4988 70.0607 11.4091 70.161 11.3392C70.2613 11.2692 70.3748 11.2205 70.4946 11.1959C70.6144 11.1713 70.738 11.1713 70.8577 11.196C70.9775 11.2207 71.091 11.2696 71.1912 11.3396C71.402 11.4864 71.5473 11.7094 71.5964 11.9614C71.6455 12.2135 71.5945 12.4748 71.4543 12.6899Z" fill="#263238"/>
<path d="M71.2325 14.9811C71.2347 15.1315 71.1925 15.2792 71.1112 15.4058C71.0299 15.5323 70.9132 15.6322 70.7755 15.6928C70.6379 15.7534 70.4854 15.7721 70.3372 15.7467C70.1889 15.7212 70.0515 15.6526 69.942 15.5495C69.8325 15.4464 69.7557 15.3133 69.7214 15.1669C69.6871 15.0204 69.6966 14.8671 69.7488 14.7261C69.8011 14.585 69.8937 14.4625 70.0152 14.3737C70.1366 14.285 70.2815 14.234 70.4317 14.2271C70.6375 14.2224 70.8369 14.2988 70.9868 14.4399C71.1366 14.581 71.2249 14.7754 71.2325 14.9811Z" fill="#263238"/>
<path d="M67.5029 14.0401L67.6257 18.6344L70.0397 17.8862L67.5029 14.0401Z" fill="#9A4A4D"/>
<path d="M64.1412 24.4035C62.1889 24.1522 58.1791 22.9949 57.5537 21.4108C57.8042 22.2137 58.2961 22.9199 58.9624 23.4333C60.1314 24.462 64.1412 25.6193 64.1412 25.6193V24.4035Z" fill="#9A4A4D"/>
<path d="M62.9255 99.432L61.207 92.0788L62.7209 78.7635C62.7209 78.7635 67.4847 76.9691 70.0098 73.2808C68.885 75.9689 67.0075 78.2747 64.6031 79.9209L62.0078 92.0437L62.9255 99.432Z" fill="#263238"/>
<path d="M58.3433 85.1172L37.4469 73.0528L33.2676 108.241L54.164 120.305L58.3433 85.1172Z" fill="#6ED0FF"/>
<path opacity="0.5" d="M58.3433 85.1172L37.4469 73.0528L33.2676 108.241L54.164 120.305L58.3433 85.1172Z" fill="white"/>
<path d="M64.6094 114.273L58.3434 113.063L54.1641 120.305L64.6094 114.273Z" fill="#6ED0FF"/>
<path opacity="0.3" d="M64.6094 114.273L58.3434 113.063L54.1641 120.305L64.6094 114.273Z" fill="black"/>
<path d="M58.3434 113.063L60.4301 81.4991L58.3434 85.1172L54.1641 120.305L58.3434 113.063Z" fill="#6ED0FF"/>
<path opacity="0.1" d="M58.3434 113.063L60.4301 81.4991L58.3434 85.1172L54.1641 120.305L58.3434 113.063Z" fill="black"/>
<path d="M37.4473 73.0528L43.7133 71.8487V69.4347L64.6097 81.4991H60.4304L58.3437 85.1172L37.4473 73.0528Z" fill="#6ED0FF"/>
<path d="M50.6695 84.7724C50.6695 85.0821 50.4474 85.2049 50.1785 85.0529C50.0371 84.9593 49.9197 84.8339 49.8354 84.6867C49.7512 84.5395 49.7025 84.3747 49.6934 84.2054C49.6934 83.8956 49.9096 83.767 50.1785 83.9248C50.3213 84.0175 50.4401 84.1425 50.5255 84.2898C50.6108 84.4371 50.6601 84.6024 50.6695 84.7724Z" fill="#455A64"/>
<path d="M44.5425 80.8795C44.5425 81.1951 44.3263 81.3179 44.0516 81.1659C43.9102 81.0722 43.7927 80.9468 43.7085 80.7997C43.6242 80.6525 43.5756 80.4877 43.5664 80.3184C43.5664 80.0086 43.7827 79.88 44.0516 80.0378C44.1949 80.1285 44.3143 80.2523 44.3997 80.3987C44.4852 80.5452 44.5342 80.7101 44.5425 80.8795Z" fill="#455A64"/>
<path d="M57.1568 80.5755C57.1568 80.8853 56.9405 81.0139 56.6717 80.8561C56.5293 80.7644 56.4107 80.6403 56.3254 80.4941C56.24 80.3478 56.1905 80.1834 56.1807 80.0144C56.1807 79.6988 56.4028 79.576 56.6717 79.728C56.813 79.8216 56.9305 79.9471 57.0147 80.0942C57.099 80.2414 57.1476 80.4062 57.1568 80.5755Z" fill="#455A64"/>
<path d="M50.9615 77.1152C50.9615 77.425 50.7394 77.5536 50.4705 77.3958C50.3289 77.3037 50.2112 77.1795 50.1269 77.0332C50.0425 76.8869 49.994 76.7227 49.9854 76.5541C49.9854 76.2443 50.2016 76.1157 50.4705 76.2735C50.6128 76.3652 50.7315 76.4893 50.8168 76.6356C50.9021 76.7818 50.9517 76.9462 50.9615 77.1152Z" fill="#455A64"/>
<path d="M64.6098 81.4991H60.4305L58.3438 113.063L64.6098 114.273V81.4991Z" fill="#6ED0FF"/>
<path d="M43.7133 71.8487V76.671L37.4473 73.0528L43.7133 71.8487Z" fill="#6ED0FF"/>
<path opacity="0.2" d="M64.6098 81.4991H60.4305L58.3438 113.063L64.6098 114.273V81.4991Z" fill="black"/>
<path opacity="0.2" d="M43.7133 71.8487V76.671L37.4473 73.0528L43.7133 71.8487Z" fill="black"/>
<path d="M44.0518 80.786C44.0153 80.7942 43.9773 80.7942 43.9408 80.786C43.8703 80.7539 43.8147 80.6961 43.7853 80.6244C43.756 80.5527 43.7551 80.4725 43.783 80.4002L49.1021 67.8156C49.133 67.7441 49.1907 67.6875 49.2628 67.658C49.3349 67.6285 49.4157 67.6284 49.4878 67.6577C49.5583 67.6898 49.614 67.7476 49.6433 67.8193C49.6726 67.891 49.6735 67.9712 49.6457 68.0435L44.3266 80.6281C44.2997 80.6772 44.2598 80.7178 44.2114 80.7457C44.1629 80.7735 44.1077 80.7875 44.0518 80.786Z" fill="#263238"/>
<path d="M50.47 77.0685C50.3925 77.0685 50.3181 77.0377 50.2633 76.9828C50.2085 76.928 50.1777 76.8537 50.1777 76.7762V68.0669C50.1777 67.9894 50.2085 67.9151 50.2633 67.8602C50.3181 67.8054 50.3925 67.7747 50.47 67.7747C50.5475 67.7747 50.6218 67.8054 50.6767 67.8602C50.7315 67.9151 50.7623 67.9894 50.7623 68.0669V76.782C50.7607 76.8585 50.7293 76.9314 50.6746 76.9849C50.62 77.0385 50.5465 77.0685 50.47 77.0685Z" fill="#263238"/>
<path d="M40.6034 54.5529L48.7106 43.2074C50.0018 41.9017 50.974 40.3154 51.5514 38.5722C52.9659 34.089 53.188 31.4586 51.7033 28.4308C48.4067 28.4308 46.4778 28.764 42.731 35.106C39.674 40.279 35.1323 49.0993 34.0217 51.0049C32.6364 53.3429 32.2331 53.9917 33.4372 56.3064C34.6413 58.6211 39.1772 64.5656 42.994 69.0372C46.8109 73.5087 49.0438 75.0168 51.8962 75.6773C54.7487 76.3378 56.0229 75.7825 57.6303 74.3037C59.2377 72.8248 58.1038 71.5097 56.6074 71.1648C55.1881 70.8581 53.8344 70.302 52.6093 69.5223C51.7033 68.8677 51.4403 68.3533 52.2645 68.3182C53.3517 68.2715 54.3687 68.0552 54.6493 67.2953C55 66.3426 54.0998 66.5997 52.8548 66.214C51.2464 65.7254 49.5908 65.408 47.9157 65.2671C45.864 65.3781 40.6034 54.5529 40.6034 54.5529Z" fill="#B16668"/>
<path d="M55.7248 22.6208H56.5256V30.2195C56.5256 31.6907 55.9412 33.1016 54.9009 34.1418C53.8606 35.1821 52.4497 35.7665 50.9785 35.7665H50.1777V28.1678C50.1777 26.6967 50.7622 25.2857 51.8024 24.2455C52.8427 23.2052 54.2536 22.6208 55.7248 22.6208Z" fill="#263238"/>
<path d="M56.3855 80.2131V73.614C56.3855 72.6495 56.0991 71.1122 55.31 70.8258C55.2729 70.8136 55.2387 70.794 55.2092 70.7683C55.1798 70.7426 55.1559 70.7112 55.1388 70.676C55.1217 70.6409 55.1118 70.6027 55.1098 70.5637C55.1077 70.5247 55.1135 70.4856 55.1268 70.4489C55.1401 70.4121 55.1606 70.3784 55.1872 70.3497C55.2137 70.3211 55.2457 70.298 55.2813 70.2819C55.317 70.2658 55.3554 70.2571 55.3945 70.2561C55.4336 70.2552 55.4724 70.262 55.5088 70.2764C56.9291 70.7966 56.9701 73.3275 56.9701 73.614V80.2131C56.9701 80.2907 56.9393 80.365 56.8845 80.4198C56.8297 80.4746 56.7553 80.5054 56.6778 80.5054C56.6003 80.5054 56.526 80.4746 56.4711 80.4198C56.4163 80.365 56.3855 80.2907 56.3855 80.2131Z" fill="#263238"/>
<path d="M50.2535 84.7431C50.2167 84.7488 50.1793 84.7488 50.1425 84.7431C50.1066 84.7284 50.0739 84.7067 50.0465 84.6793C50.0191 84.6519 49.9974 84.6192 49.9827 84.5833C49.968 84.5474 49.9606 84.5089 49.9609 84.4701C49.9613 84.4314 49.9693 84.393 49.9847 84.3574C49.9847 84.3223 51.4167 80.9555 53.106 76.1274C54.7485 71.4512 54.1698 70.516 53.8425 70.3407C53.8086 70.3223 53.7787 70.2974 53.7545 70.2675C53.7303 70.2376 53.7123 70.2032 53.7014 70.1662C53.6905 70.1293 53.6871 70.0906 53.6912 70.0523C53.6954 70.014 53.707 69.9769 53.7255 69.9432C53.7637 69.876 53.8265 69.8262 53.9007 69.8044C53.9748 69.7826 54.0545 69.7904 54.123 69.8263C55.1576 70.4108 55.0115 72.4508 53.6613 76.3203C51.9662 81.1601 50.5399 84.5327 50.5399 84.5678C50.5167 84.6234 50.4766 84.6704 50.4251 84.7018C50.3737 84.7333 50.3136 84.7478 50.2535 84.7431Z" fill="#263238"/>
<path d="M198.967 48.9257C198.943 48.9257 198.919 48.9016 198.919 48.9016C198.919 48.9257 198.943 48.9257 198.967 48.9257Z" fill="#004ADE"/>
<path d="M197.176 45.3011C197.519 45.2254 197.701 44.7249 197.581 44.1834C197.462 43.6418 197.086 43.2642 196.743 43.34C196.399 43.4157 196.218 43.9161 196.337 44.4577C196.457 44.9993 196.832 45.3769 197.176 45.3011Z" fill="#2DBDFF"/>
<path d="M199.355 51.5478C199.699 51.472 199.88 50.9716 199.761 50.4301C199.641 49.8885 199.266 49.5109 198.923 49.5867C198.579 49.6624 198.398 50.1628 198.517 50.7044C198.637 51.246 199.012 51.6236 199.355 51.5478Z" fill="#2DBDFF"/>
<path d="M195.19 44.7203C195.414 44.6708 195.532 44.3416 195.454 43.9849C195.375 43.6283 195.129 43.3793 194.905 43.4289C194.68 43.4784 194.562 43.8076 194.64 44.1643C194.719 44.5209 194.965 44.7699 195.19 44.7203Z" fill="#2DBDFF"/>
<path d="M196.294 49.2799C196.519 49.2304 196.637 48.9012 196.558 48.5445C196.479 48.1879 196.234 47.9389 196.009 47.9885C195.785 48.038 195.666 48.3673 195.745 48.7239C195.824 49.0805 196.069 49.3295 196.294 49.2799Z" fill="#2DBDFF"/>
<path d="M194.912 50.2376C195.044 50.2085 195.113 50.0135 195.067 49.8022C195.02 49.5909 194.875 49.4432 194.743 49.4723C194.611 49.5014 194.542 49.6964 194.588 49.9077C194.635 50.1191 194.78 50.2668 194.912 50.2376Z" fill="#2DBDFF"/>
<path d="M194.739 47.3231C194.871 47.294 194.94 47.099 194.894 46.8877C194.847 46.6763 194.702 46.5286 194.57 46.5578C194.438 46.5869 194.369 46.7818 194.415 46.9932C194.462 47.2045 194.607 47.3522 194.739 47.3231Z" fill="#2DBDFF"/>
<path d="M199.94 54.8366C200.165 54.7871 200.283 54.4578 200.205 54.1012C200.126 53.7445 199.88 53.4956 199.656 53.5451C199.431 53.5946 199.313 53.9239 199.391 54.2805C199.47 54.6372 199.716 54.8861 199.94 54.8366Z" fill="#2DBDFF"/>
<path d="M197.948 53.0785C198.08 53.0493 198.149 52.8544 198.103 52.6431C198.056 52.4317 197.911 52.284 197.779 52.3131C197.647 52.3423 197.578 52.5372 197.624 52.7486C197.671 52.9599 197.816 53.1076 197.948 53.0785Z" fill="#2DBDFF"/>
<path d="M198.194 55.1371C198.326 55.108 198.395 54.913 198.349 54.7017C198.302 54.4903 198.157 54.3426 198.025 54.3718C197.893 54.4009 197.824 54.5958 197.871 54.8072C197.917 55.0185 198.062 55.1662 198.194 55.1371Z" fill="#2DBDFF"/>
<path d="M195.06 53.8615C195.192 53.8324 195.262 53.6374 195.215 53.4261C195.168 53.2148 195.024 53.067 194.892 53.0962C194.759 53.1253 194.69 53.3203 194.737 53.5316C194.783 53.7429 194.928 53.8906 195.06 53.8615Z" fill="#2DBDFF"/>
<path d="M198.966 48.9257C198.942 48.9257 198.918 48.9016 198.918 48.9016C198.918 48.9257 198.942 48.9257 198.966 48.9257Z" fill="#004ADE"/>
<path d="M207.368 49.5629C208.25 45.9136 206.854 41.1866 204.209 39.0068C201.784 36.9985 199.139 37.8312 197.963 40.7458C197.939 40.7948 197.89 40.8193 197.866 40.7703C197.817 40.7458 197.792 40.6968 197.743 40.6723C197.498 40.5009 197.229 40.5498 197.057 40.7703C196.69 41.2601 196.812 42.1173 197.18 42.5827C197.229 42.6562 197.302 42.7051 197.351 42.7786C197.376 42.8031 197.376 42.8031 197.4 42.8276C197.425 42.8521 197.425 42.8521 197.449 42.8521C197.914 43.4154 198.11 44.3706 197.939 45.1054C197.89 45.2768 197.841 45.4483 197.768 45.5707C197.743 45.5952 197.719 45.6197 197.694 45.6197C197.621 45.6197 197.547 45.6442 197.498 45.6442C197.327 45.6932 197.18 45.8156 197.057 46.0116C196.959 46.1585 196.861 46.3545 196.812 46.5994C196.641 47.4076 196.935 48.4608 197.498 48.9996C197.694 49.171 197.89 49.2935 198.086 49.318C198.233 49.3425 198.404 49.318 198.527 49.269C198.649 49.22 198.772 49.1221 198.87 48.9996L198.894 48.9751L198.919 48.9506C198.943 48.9506 198.943 48.9261 198.968 48.9261H198.992C198.992 48.9261 198.992 48.9261 199.017 48.9261C199.164 48.9751 199.286 49.0241 199.433 49.1466C199.923 49.5629 200.241 50.3222 200.266 51.0814C200.266 51.1794 200.241 51.2529 200.192 51.3019C200.143 51.3753 200.094 51.4733 200.045 51.5713C200.045 51.5958 200.021 51.6447 200.021 51.6692C199.996 51.8162 199.972 51.9876 199.972 52.1591C200.021 52.7714 200.364 53.3837 200.854 53.4327C201.147 53.4817 201.392 53.2122 201.466 52.8204C201.466 52.8204 201.466 52.7959 201.49 52.7959C201.49 52.7959 201.49 52.7959 201.515 52.7959C203.964 54.3389 206.536 52.9918 207.368 49.5629Z" fill="#2DBDFF"/>
<path d="M200.511 46.0605L200.682 43.7827C200.829 43.7337 200.927 43.5623 200.951 43.3174C200.976 42.95 200.805 42.5581 200.535 42.4357C200.266 42.3132 200.045 42.5336 200.021 42.901C199.996 43.1459 200.07 43.3909 200.192 43.5868L200.021 45.8646C199.874 45.9135 199.751 46.085 199.751 46.3299C199.727 46.6973 199.898 47.0892 200.168 47.2116C200.413 47.3341 200.658 47.1137 200.682 46.7463C200.707 46.5258 200.633 46.2564 200.511 46.0605ZM200.217 46.7708C200.119 46.7218 200.07 46.5993 200.07 46.4524C200.07 46.3054 200.168 46.2564 200.241 46.2809C200.339 46.3299 200.388 46.4524 200.388 46.5993C200.388 46.7463 200.315 46.8197 200.217 46.7708ZM200.486 43.3419C200.388 43.2929 200.339 43.1704 200.339 43.0235C200.339 42.901 200.437 42.8275 200.511 42.852C200.609 42.901 200.658 43.0235 200.658 43.1704C200.658 43.3174 200.56 43.3909 200.486 43.3419Z" fill="white"/>
<path d="M201.491 44.395C201.613 44.444 201.736 44.346 201.76 44.1501L201.834 43.2439C201.858 43.0479 201.76 42.852 201.613 42.803C201.491 42.754 201.368 42.852 201.344 43.0479L201.27 43.9542C201.246 44.1256 201.344 44.3215 201.491 44.395Z" fill="white"/>
<path d="M203.719 43.4153C203.596 43.3664 203.474 43.4643 203.449 43.6603L203.278 45.8401L201.416 44.9828C201.294 44.9339 201.171 45.0318 201.147 45.2278L200.951 47.7504C200.927 47.9464 201.024 48.1423 201.171 48.1913C201.294 48.2403 201.416 48.1423 201.441 47.9464L201.612 45.7666L203.474 46.6238C203.596 46.6728 203.719 46.5748 203.743 46.3789L203.939 43.8562C203.939 43.6603 203.841 43.4643 203.719 43.4153Z" fill="white"/>
<path d="M203.4 47.3831C203.278 47.3341 203.156 47.4321 203.131 47.6281L203.033 49.0241C203.009 49.22 203.107 49.416 203.253 49.465C203.376 49.5139 203.498 49.416 203.523 49.22L203.621 47.824C203.645 47.6525 203.547 47.4566 203.4 47.3831Z" fill="white"/>
<path d="M202.422 49.3915C202.422 49.367 202.422 49.3425 202.422 49.318L202.569 47.3587C202.593 47.1627 202.495 46.9668 202.348 46.9178C202.226 46.8688 202.103 46.9668 202.079 47.1627L201.932 49.1221C201.932 49.1466 201.932 49.1711 201.932 49.1956C201.785 49.2446 201.687 49.416 201.662 49.6609C201.638 50.0283 201.809 50.4202 202.079 50.5426C202.324 50.6651 202.569 50.4447 202.593 50.0773C202.618 49.8324 202.544 49.5875 202.422 49.3915ZM202.128 50.1018C202.03 50.0528 201.981 49.9303 201.981 49.7834C201.981 49.6609 202.079 49.5875 202.152 49.6119C202.25 49.6609 202.299 49.7834 202.299 49.9303C202.299 50.0773 202.226 50.1508 202.128 50.1018Z" fill="white"/>
<path d="M204.723 47.8729L204.87 45.8646C205.017 45.8156 205.115 45.6442 205.14 45.3992C205.164 45.0319 204.993 44.64 204.723 44.5175C204.479 44.3951 204.234 44.6155 204.209 44.9829C204.185 45.2278 204.258 45.4727 204.381 45.6687L204.234 47.677C204.087 47.726 203.989 47.8974 203.964 48.1424C203.94 48.5097 204.111 48.9016 204.381 49.0241C204.626 49.1465 204.87 48.9261 204.895 48.5587C204.919 48.3138 204.846 48.0689 204.723 47.8729ZM204.43 48.5832C204.332 48.5342 204.283 48.4118 204.283 48.2648C204.283 48.1424 204.381 48.0689 204.454 48.0934C204.552 48.1424 204.601 48.2648 204.601 48.4118C204.601 48.5342 204.528 48.6077 204.43 48.5832ZM204.675 45.3992C204.577 45.3503 204.528 45.2278 204.528 45.0809C204.528 44.9584 204.626 44.8849 204.699 44.9094C204.797 44.9584 204.846 45.0809 204.846 45.2278C204.846 45.3748 204.748 45.4482 204.675 45.3992Z" fill="white"/>
<path d="M202.789 41.456C202.544 41.3335 202.299 41.554 202.274 41.9214C202.25 42.1663 202.323 42.4112 202.446 42.6071L202.299 44.542C202.274 44.7379 202.372 44.9339 202.519 44.9829C202.642 45.0319 202.764 44.9339 202.789 44.7379L202.936 42.8031C203.082 42.7541 203.18 42.5826 203.205 42.3377C203.229 41.9703 203.033 41.5785 202.789 41.456ZM202.838 42.3377C202.813 42.3622 202.764 42.3867 202.715 42.3622C202.666 42.3377 202.642 42.2887 202.617 42.2398C202.593 42.1908 202.593 42.1173 202.593 42.0683C202.593 41.9459 202.691 41.8724 202.764 41.8969C202.862 41.9459 202.911 42.0683 202.911 42.2153C202.887 42.2642 202.862 42.3132 202.838 42.3377Z" fill="white"/>
</svg>
