<svg width="243" height="229" fill="none" xmlns="http://www.w3.org/2000/svg">
  <path fill="#fff" d="M0 0h243v229H0z"/>
  <circle cx="121" cy="114" r="89.5" fill="#fff" stroke="#2DBDFF"/>
  <g clip-path="url(#Launch__clip0)">
    <path d="M85.598 128.078a2.932 2.932 0 00.546 3.386l.717.717a128.192 128.192 0 017.408-8.04c.207-.207.42-.307.627-.497l-4.609-4.61c-2.68 4.846-4.242 8.157-4.689 9.044zm25.243 12.636a133.709 133.709 0 01-8.026 7.421l.97.97c.9.9 2.278 1.117 3.411.534 1.518-.782 3.904-1.905 8.97-4.726l-4.826-4.827c-.191.209-.291.421-.499.628z" fill="#2DBDFF"/>
    <path d="M109.28 125.707c-2.117-2.118-8.071-.219-10.868 2.577-9.357 9.356-13.583 15.99-15.48 19.907a2.928 2.928 0 003.916 3.912c3.83-1.859 10.383-6.065 19.851-15.532 3.075-3.077 4.593-8.852 2.583-10.862l-.002-.002zm-29.135-22.701l-8.287 8.286a2.93 2.93 0 002.83 4.902c4.478-1.201 8.42-1.708 11.073-1.027 3.775-6.712 7.831-12.89 12.127-18.502-2.485-1.594-10.696-.706-17.743 6.341zm40.444 60.68c1.128.57 2.495.35 3.388-.544l8.287-8.287c6.416-6.417 7.545-14.696 6.089-17.321-6.259 4.717-12.6 8.7-18.516 12.035.408 2.305.137 4.541-.828 11.072a2.922 2.922 0 001.58 3.045z" fill="#0069E3"/>
    <path d="M129.164 93.388c-3.426 3.428-3.426 9.002 0 12.429 3.427 3.428 9.003 3.428 12.43 0 3.427-3.427 3.427-9.001 0-12.429-3.427-3.427-9.003-3.427-12.43 0zm41.664-26.53a2.926 2.926 0 00-2.704-2.702c-7.195-.542-14.362.343-21.387 2.491.529 4.827 3.025 10.05 7.287 14.312 4.313 4.312 9.678 6.807 14.59 7.274 1.892-6.63 2.79-13.732 2.214-21.375z" fill="#2DBDFF"/>
    <path d="M149.881 85.102c-4.875-4.875-7.852-10.722-8.807-16.415-17.593 7.215-34.434 22.971-47.742 45.105l6.612 6.612c4.517-1.834 10.001-2.318 13.479 1.159 3.483 3.484 2.989 8.965 1.156 13.477l6.829 6.829c17.031-10.264 36.858-26.435 45.289-47.949-5.832-.881-11.861-3.863-16.816-8.818zm-4.144 24.859c-5.711 5.711-15.004 5.711-20.716 0-5.711-5.711-5.711-15.005 0-20.716 5.712-5.71 15.005-5.71 20.716 0 5.711 5.711 5.711 15.005 0 20.716z" fill="#2DBDFF"/>
  </g>
  <defs>
    <clipPath id="Launch__clip0">
      <path fill="#fff" transform="translate(71 64)" d="M0 0h100v100H0z"/>
    </clipPath>
  </defs>
</svg>
