<svg width="42" height="42" viewBox="0 0 42 42" fill="none" xmlns="http://www.w3.org/2000/svg">
<path d="M0.446533 2.9417C0.446533 1.3179 1.79728 0 3.46255 0H38.2373C39.9031 0 41.2534 1.3179 41.2534 2.9417V38.1242C41.2534 39.7485 39.9031 41.0653 38.2373 41.0653H3.46255C1.79728 41.0653 0.446533 39.7485 0.446533 38.1247V2.94116V2.9417Z" fill="#006699"/>
<path d="M12.8166 34.3755V15.8323H6.65309V34.3755H12.8171H12.8166ZM9.7359 13.301C11.8848 13.301 13.2226 11.877 13.2226 10.0975C13.1822 8.27769 11.8848 6.89355 9.77683 6.89355C7.66722 6.89355 6.28955 8.27769 6.28955 10.0975C6.28955 11.877 7.62683 13.301 9.6955 13.301H9.73536H9.7359ZM16.2279 34.3755H22.3908V24.0213C22.3908 23.4677 22.4312 22.913 22.5939 22.5176C23.0393 21.4098 24.0534 20.2632 25.7564 20.2632C27.9861 20.2632 28.8785 21.9634 28.8785 24.4565V34.3755H35.0414V23.7434C35.0414 18.048 32.0012 15.3977 27.9462 15.3977C24.6216 15.3977 23.1615 17.2558 22.3504 18.5214H22.3914V15.8328H16.2284C16.3087 17.5724 16.2279 34.376 16.2279 34.376V34.3755Z" fill="white"/>
</svg>
