<svg width="266" height="259" viewBox="0 0 266 259" fill="none" xmlns="http://www.w3.org/2000/svg">
<path d="M226.117 127.387C174.161 97.3705 90.1739 97.3705 38.5508 127.387C-13.0722 157.403 -12.8212 206.075 39.1346 236.091C91.0905 266.107 175.078 266.107 226.707 236.091C278.336 206.075 278.073 157.409 226.117 127.387Z" fill="#93E0FF"/>
<path d="M226.117 116.535C174.161 86.5191 90.1739 86.5191 38.5508 116.535C-13.0722 146.551 -12.8212 195.223 39.1346 225.24C91.0905 255.256 175.078 255.256 226.707 225.24C278.336 195.223 278.073 146.557 226.117 116.535Z" fill="#F1FBFF"/>
<path d="M142.9 39.8625H143.25C144.048 39.9304 144.793 40.2902 145.343 40.873C145.892 41.4559 146.207 42.2208 146.228 43.0215L146.674 59.7568L149.508 76.8779C148.833 77.654 147.952 78.2225 146.967 78.517C145.982 78.8116 144.933 78.8202 143.943 78.5418L142.9 39.8625Z" fill="#E0E0E0"/>
<path opacity="0.2" d="M142.9 39.8625H143.25C144.048 39.9304 144.793 40.2902 145.343 40.873C145.892 41.4559 146.207 42.2208 146.228 43.0215L146.674 59.7568L149.508 76.8779C148.833 77.654 147.952 78.2225 146.967 78.517C145.982 78.8116 144.933 78.8202 143.943 78.5418L142.9 39.8625Z" fill="black"/>
<path opacity="0.3" d="M145.089 48.1277L142.985 42.8527L143.95 78.5719C144.526 78.724 145.122 78.785 145.716 78.7528L145.813 51.9257C145.817 50.625 145.572 49.3356 145.089 48.1277Z" fill="black"/>
<path d="M121.777 62.3671V89.8996C121.59 93.0345 127.486 92.2809 136.354 87.0903C144.131 82.5387 144.697 83.5817 144.697 78.1379C144.697 72.6941 145.101 50.8465 145.101 50.8465C145.005 47.6393 142.901 39.8625 142.901 39.8625L137.041 39.3681L128.028 43.8956L121.777 49.3937V62.3671Z" fill="#E0E0E0"/>
<path opacity="0.2" d="M121.777 62.3671V89.8996C121.59 93.0345 127.486 92.2809 136.354 87.0903C144.131 82.5387 144.697 83.5817 144.697 78.1379C144.697 72.6941 145.101 50.8465 145.101 50.8465C145.005 47.6393 142.901 39.8625 142.901 39.8625L137.041 39.3681L128.028 43.8956L121.777 49.3937V62.3671Z" fill="black"/>
<path opacity="0.3" d="M123.736 87.6389V75.1718L124.815 62.0536L121.801 63.1267V89.8996C121.704 91.4851 123.163 92.0699 125.768 91.6057C124.652 91.1777 123.736 90.0865 123.736 87.6389Z" fill="black"/>
<path d="M121.776 49.3936L119.552 51.7749C118.195 53.2288 117.305 55.0555 116.996 57.0198L114.542 72.6941C114.241 74.6195 114.241 76.5801 114.542 78.5056L117.002 94.1136C121.143 95.0781 123.139 92.2146 123.139 92.2146L121.776 75.425L124.791 62.0416L121.776 49.3936Z" fill="#E0E0E0"/>
<path opacity="0.2" d="M121.776 49.3936L119.552 51.7749C118.195 53.2288 117.305 55.0555 116.996 57.0198L114.542 72.6941C114.241 74.6195 114.241 76.5801 114.542 78.5056L117.002 94.1136C121.143 95.0781 123.139 92.2146 123.139 92.2146L121.776 75.425L124.791 62.0416L121.776 49.3936Z" fill="black"/>
<path d="M129.023 41.4842L135.498 38.5844V49.7192L129.023 41.4842Z" fill="#E0E0E0"/>
<path opacity="0.3" d="M129.023 41.4842L135.498 38.5844V49.7192L129.023 41.4842Z" fill="black"/>
<path d="M129.125 44.3357C129.169 44.7634 129.309 45.1755 129.535 45.5414L136.353 41.5927C136.558 41.0381 136.184 40.7728 136.245 40.2302L134.213 41.436L132.808 42.2197L132.043 42.6598L129.125 44.3357Z" fill="#F28F8F"/>
<path d="M132.809 42.2197V41.6168V40.7969C133.6 40.1981 134.25 39.4344 134.715 38.5588C135.181 37.6833 135.45 36.7169 135.504 35.7269C135.504 33.7676 134.106 32.9839 132.411 33.9605C131.022 34.8622 130.007 36.2374 129.554 37.8309C129.412 38.3022 129.339 38.7915 129.337 39.2838C129.337 39.5309 129.512 39.6274 129.723 39.5068C129.834 39.4339 129.926 39.3359 129.992 39.2207C130.058 39.1055 130.096 38.9763 130.103 38.8437C130.106 38.4742 130.161 38.1069 130.265 37.7525C130.601 36.5523 131.364 35.5165 132.411 34.8407C133.696 34.0992 134.732 34.702 134.739 36.167C134.695 36.9687 134.463 37.7488 134.062 38.4443C133.661 39.1397 133.102 39.7309 132.43 40.17C132.316 40.241 132.222 40.3385 132.155 40.454C132.088 40.5695 132.05 40.6996 132.044 40.8331V42.6417L132.809 42.2197Z" fill="#E0E0E0"/>
<path d="M129.024 41.4842L135.498 49.7192L130.645 54.3853L128.029 43.8956L129.024 41.4842Z" fill="#E0E0E0"/>
<path d="M135.497 49.7192V38.5844L136.606 39.5852L138.198 50.4426L135.497 49.7192Z" fill="#E0E0E0"/>
<path opacity="0.1" d="M129.024 41.4842L135.498 49.7192L130.645 54.3853L128.029 43.8956L129.024 41.4842Z" fill="black"/>
<path opacity="0.1" d="M135.497 49.7192V38.5844L136.606 39.5852L138.198 50.4426L135.497 49.7192Z" fill="black"/>
<path d="M137.915 50.943L136.251 51.9739C133.556 53.6547 131.253 55.8958 129.499 58.545L125.882 64.0069C127.619 66.4367 130.229 68.1002 133.165 68.6489V96.1814C132.978 99.3223 138.747 98.3396 147.742 93.3781C156.737 88.4166 157.822 89.3209 157.822 83.8771C157.822 78.4333 156.489 57.1343 156.489 57.1343C157.75 55.9317 158.72 54.4573 159.324 52.8234C159.929 51.1896 160.153 49.4392 159.98 47.7057L155.862 45.445C154.603 44.7582 153.136 44.5587 151.739 44.8843L148.429 45.6499L137.915 50.943Z" fill="#455A64"/>
<path d="M140.266 71.6149C139.048 72.345 137.695 72.8207 136.287 73.0136C135.732 73.0655 135.171 73.0041 134.639 72.8331C134.108 72.6621 133.616 72.3851 133.195 72.0189V78.8673C133.616 79.2336 134.108 79.5106 134.639 79.6816C135.171 79.8525 135.732 79.9139 136.287 79.862C137.695 79.6692 139.048 79.1934 140.266 78.4634C146.123 75.4299 151.763 71.9955 157.146 68.1847C157.014 65.7733 156.875 63.4704 156.767 61.6015C151.499 65.3081 145.986 68.6536 140.266 71.6149Z" fill="white"/>
<path opacity="0.15" d="M134.37 94.2402V68.5103C133.977 68.6137 133.571 68.6604 133.165 68.6489V96.1814C133.104 97.2364 133.725 97.8151 134.901 97.9478C134.123 97.2243 134.461 96.0065 134.37 94.2402Z" fill="black"/>
<path d="M147.452 46.1503L139.091 50.3703C142.015 55.1268 148.013 52.9385 147.452 46.1503Z" fill="#455A64"/>
<path opacity="0.4" d="M147.452 46.1503L139.091 50.3703C142.015 55.1268 148.013 52.9385 147.452 46.1503Z" fill="black"/>
<path d="M139.434 51.2625C139.479 51.69 139.619 52.1019 139.844 52.4682L147.754 47.8986C147.955 47.3622 148.09 46.8035 148.157 46.2347L145.613 47.7117L144.209 48.5255L143.449 48.9656L139.434 51.2625Z" fill="#F28F8F"/>
<path d="M144.209 48.4954V47.8925V47.0727C145 46.4726 145.65 45.7078 146.115 44.8313C146.581 43.9547 146.85 42.9875 146.904 41.9966C146.904 40.0433 145.511 39.2536 143.811 40.2363C142.419 41.1355 141.403 42.5116 140.954 44.1066C140.815 44.5785 140.742 45.0675 140.737 45.5595C140.737 45.8067 140.912 45.8971 141.123 45.7765C141.234 45.704 141.327 45.6061 141.393 45.4908C141.459 45.3755 141.496 45.2461 141.502 45.1134C141.506 44.7458 141.561 44.3806 141.665 44.0282C142.005 42.8268 142.77 41.7899 143.817 41.1104C145.095 40.3749 146.132 40.9717 146.138 42.4427C146.094 43.2441 145.862 44.0238 145.459 44.7183C145.057 45.4128 144.497 46.0026 143.823 46.4397C143.712 46.5125 143.62 46.6105 143.554 46.7258C143.488 46.841 143.45 46.9702 143.444 47.1028V48.9114L144.209 48.4954Z" fill="#E0E0E0"/>
<path d="M148.441 45.6499L147.452 46.1503C148.013 52.9384 142.027 55.1268 139.091 50.3703L137.915 50.9731C141.514 57.3514 149.412 54.5179 148.441 45.6499Z" fill="white"/>
<path d="M170.18 56.2481H170.536C171.334 56.3161 172.079 56.6759 172.628 57.2587C173.178 57.8415 173.493 58.6064 173.514 59.4071L173.96 76.1364L176.794 93.2575C176.12 94.0347 175.239 94.6043 174.254 94.8999C173.268 95.1956 172.22 95.2051 171.229 94.9274L170.18 56.2481Z" fill="#6ED0FF"/>
<path opacity="0.2" d="M170.18 56.2481H170.536C171.334 56.3161 172.079 56.6759 172.628 57.2587C173.178 57.8415 173.493 58.6064 173.514 59.4071L173.96 76.1364L176.794 93.2575C176.12 94.0347 175.239 94.6043 174.254 94.8999C173.268 95.1956 172.22 95.2051 171.229 94.9274L170.18 56.2481Z" fill="black"/>
<path opacity="0.3" d="M172.363 64.5253L170.259 59.2504L171.229 94.9696C171.805 95.1222 172.401 95.1833 172.996 95.1505L173.086 68.3233C173.091 67.0226 172.846 65.7331 172.363 64.5253Z" fill="black"/>
<path d="M149.062 78.7528V106.285C148.869 109.42 154.765 108.667 163.639 103.476C171.416 98.9244 171.976 99.9673 171.976 94.5235C171.976 89.0797 172.38 67.2322 172.38 67.2322C172.284 64.025 170.18 56.2481 170.18 56.2481L164.32 55.7538L155.337 60.3054L149.08 65.8034L149.062 78.7528Z" fill="#6ED0FF"/>
<path opacity="0.2" d="M149.062 78.7528V106.285C148.869 109.42 154.765 108.667 163.639 103.476C171.416 98.9244 171.976 99.9673 171.976 94.5235C171.976 89.0797 172.38 67.2322 172.38 67.2322C172.284 64.025 170.18 56.2481 170.18 56.2481L164.32 55.7538L155.337 60.3054L149.08 65.8034L149.062 78.7528Z" fill="black"/>
<path opacity="0.3" d="M151.015 104.025V91.5575L152.094 78.4393L149.08 79.5124V106.285C148.983 107.865 150.436 108.456 153.04 107.991C151.937 107.563 151.015 106.472 151.015 104.025Z" fill="black"/>
<path d="M149.056 65.7793L146.831 68.1425C145.475 69.5961 144.587 71.4232 144.281 73.3874L141.822 89.0616C141.517 90.9869 141.517 92.948 141.822 94.8732L144.275 110.481C148.417 111.446 150.412 108.582 150.412 108.582L149.056 91.7926L152.07 78.4092L149.056 65.7793Z" fill="#6ED0FF"/>
<path opacity="0.2" d="M149.056 65.7793L146.831 68.1425C145.475 69.5961 144.587 71.4232 144.281 73.3874L141.822 89.0616C141.517 90.9869 141.517 92.948 141.822 94.8732L144.275 110.481C148.417 111.446 150.412 108.582 150.412 108.582L149.056 91.7926L152.07 78.4092L149.056 65.7793Z" fill="black"/>
<path d="M156.309 57.8698L162.777 54.9701V66.0988L156.309 57.8698Z" fill="#6ED0FF"/>
<path opacity="0.3" d="M156.309 57.8698L162.777 54.9701V66.0988L156.309 57.8698Z" fill="black"/>
<path d="M156.405 60.7213C156.452 61.1483 156.592 61.5599 156.815 61.927L163.639 57.9783C163.838 57.4237 163.464 57.1584 163.525 56.6159L161.499 57.8216L160.088 58.6294L159.329 59.0755L156.405 60.7213Z" fill="#F28F8F"/>
<path d="M160.089 58.5932V57.9904V57.1705C160.877 56.5702 161.526 55.806 161.99 54.9307C162.454 54.0554 162.723 53.0898 162.778 52.1005C162.778 50.1412 161.385 49.3575 159.685 50.3341C158.295 51.2344 157.282 52.6104 156.833 54.2044C156.693 54.6762 156.618 55.1651 156.61 55.6573C156.61 55.9045 156.785 56.001 156.996 55.8804C157.108 55.8079 157.2 55.7099 157.266 55.5946C157.332 55.4793 157.37 55.35 157.376 55.2172C157.379 54.8477 157.434 54.4804 157.539 54.1261C157.879 52.9264 158.644 51.8914 159.691 51.2143C160.969 50.4728 162.006 51.0696 162.012 52.5406C161.97 53.3426 161.739 54.1232 161.338 54.8189C160.936 55.5146 160.376 56.1055 159.703 56.5435C159.592 56.616 159.499 56.714 159.433 56.8293C159.367 56.9446 159.329 57.0739 159.323 57.2067V59.0152L160.089 58.5932Z" fill="#E0E0E0"/>
<path d="M156.309 57.8698L162.777 66.0988L157.924 70.771L155.314 60.2813L156.309 57.8698Z" fill="#6ED0FF"/>
<path d="M162.777 66.0988V54.9701L163.887 55.9708L165.484 66.8283L162.777 66.0988Z" fill="#6ED0FF"/>
<path opacity="0.1" d="M156.309 57.8698L162.777 66.0988L157.924 70.771L155.314 60.2813L156.309 57.8698Z" fill="black"/>
<path opacity="0.1" d="M162.777 66.0988V54.9701L163.887 55.9708L165.484 66.8283L162.777 66.0988Z" fill="black"/>
<path d="M181.973 62.1139L182.328 62.1441C183.126 62.2106 183.871 62.5692 184.42 63.151C184.97 63.7328 185.285 64.497 185.306 65.297L185.753 82.0323L188.586 99.1535C187.911 99.9296 187.03 100.498 186.045 100.793C185.06 101.087 184.011 101.096 183.022 100.817L181.973 62.1139Z" fill="#6ED0FF"/>
<path opacity="0.3" d="M181.973 62.1139L182.328 62.1441C183.126 62.2106 183.871 62.5692 184.42 63.151C184.97 63.7328 185.285 64.497 185.306 65.297L185.753 82.0323L188.586 99.1535C187.911 99.9296 187.03 100.498 186.045 100.793C185.06 101.087 184.011 101.096 183.022 100.817L181.973 62.1139Z" fill="white"/>
<path opacity="0.2" d="M184.162 70.3489L182.058 65.074L183.022 100.787C183.598 100.94 184.194 101.003 184.789 100.974L184.879 74.1711C184.89 72.8626 184.646 71.5645 184.162 70.3489Z" fill="black"/>
<path d="M160.855 84.5824V112.115C160.662 115.256 166.564 114.526 175.432 109.312C183.208 104.754 183.775 105.803 183.775 100.353C183.775 94.9033 184.179 73.0678 184.179 73.0678C184.083 69.8546 181.973 62.0838 181.973 62.0838L176.119 61.5834L167.076 66.1109L160.818 71.615L160.855 84.5824Z" fill="#6ED0FF"/>
<path opacity="0.4" d="M160.855 84.5824V112.115C160.662 115.256 166.564 114.526 175.432 109.312C183.208 104.754 183.775 105.803 183.775 100.353C183.775 94.9033 184.179 73.0678 184.179 73.0678C184.083 69.8546 181.973 62.0838 181.973 62.0838L176.119 61.5834L167.076 66.1109L160.818 71.615L160.855 84.5824Z" fill="white"/>
<path opacity="0.2" d="M162.807 109.86V97.3871L163.886 84.2689L160.872 85.348V112.115C160.775 113.7 162.234 114.291 164.838 113.821C163.729 113.393 162.807 112.302 162.807 109.86Z" fill="black"/>
<path d="M160.848 71.615L158.629 74.0264C157.272 75.4796 156.382 77.3066 156.073 79.2712L153.62 94.9455C153.318 96.8689 153.318 98.8276 153.62 100.751L156.079 116.365C160.221 117.33 162.216 114.466 162.216 114.466L160.854 97.6825L163.868 84.293L164.338 82.2072C164.715 80.5152 164.675 78.757 164.221 77.0841C163.767 75.4111 162.914 73.8735 161.734 72.6036L160.848 71.615Z" fill="#6ED0FF"/>
<path opacity="0.3" d="M160.848 71.615L158.629 74.0264C157.272 75.4796 156.382 77.3066 156.073 79.2712L153.62 94.9455C153.318 96.8689 153.318 98.8276 153.62 100.751L156.079 116.365C160.221 117.33 162.216 114.466 162.216 114.466L160.854 97.6825L163.868 84.293L164.338 82.2072C164.715 80.5152 164.675 78.757 164.221 77.0841C163.767 75.4111 162.914 73.8735 161.734 72.6036L160.848 71.615Z" fill="white"/>
<path d="M168.101 63.6994L174.575 60.7997V71.9345L168.101 63.6994Z" fill="#6ED0FF"/>
<path opacity="0.3" d="M168.101 63.6994L174.575 60.7997V71.9345L168.101 63.6994Z" fill="black"/>
<path d="M168.203 66.557C168.245 66.9851 168.385 67.3977 168.613 67.7627L175.431 63.814C175.636 63.2594 175.262 62.9941 175.322 62.4455L173.291 63.6512L171.886 64.4651L171.12 64.9052L168.203 66.557Z" fill="#F28F8F"/>
<path d="M171.887 64.4289V63.826V63.0061C172.676 62.405 173.325 61.6399 173.791 60.7636C174.256 59.8873 174.525 58.9206 174.581 57.9301C174.581 55.9768 173.183 55.1871 171.489 56.1697C170.095 57.0669 169.078 58.4439 168.631 60.0401C168.489 60.5113 168.416 61.0007 168.414 61.493C168.414 61.7401 168.589 61.8306 168.794 61.71C168.907 61.6389 169.001 61.5415 169.068 61.426C169.136 61.3104 169.174 61.1804 169.18 61.0469C169.18 60.6791 169.235 60.3134 169.342 59.9617C169.678 58.76 170.442 57.7224 171.489 57.0439C172.767 56.3084 173.81 56.9052 173.81 58.3762C173.768 59.1769 173.538 59.9564 173.138 60.651C172.738 61.3457 172.179 61.9358 171.507 62.3731C171.394 62.445 171.301 62.5426 171.233 62.658C171.166 62.7733 171.128 62.903 171.121 63.0363V64.8449L171.887 64.4289Z" fill="#E0E0E0"/>
<path d="M168.1 63.6994L174.574 71.9345L169.721 76.6006L167.105 66.1109L168.1 63.6994Z" fill="#6ED0FF"/>
<path d="M174.575 71.9345V60.7997L175.684 61.8065L177.276 72.6639L174.575 71.9345Z" fill="#6ED0FF"/>
<path opacity="0.1" d="M168.1 63.6994L174.574 71.9345L169.721 76.6006L167.105 66.1109L168.1 63.6994Z" fill="white"/>
<path opacity="0.1" d="M174.575 71.9345V60.7997L175.684 61.8065L177.276 72.6639L174.575 71.9345Z" fill="white"/>
<path d="M181.532 76.3655L169.511 89.4354C171.253 91.8606 173.864 93.5193 176.8 94.0653V121.598C176.607 124.733 182.376 123.756 191.371 118.789C200.365 113.821 201.451 114.731 201.451 109.287C201.451 103.844 200.118 82.5448 200.118 82.5448C201.382 81.3443 202.353 79.8702 202.958 78.2358C203.564 76.6013 203.786 74.8499 203.609 73.1161L192.058 71.0664L181.532 76.3655Z" fill="#455A64"/>
<path opacity="0.15" d="M177.987 119.663V93.9327C177.594 94.0393 177.188 94.0881 176.781 94.0774V121.61C176.715 122.665 177.336 123.244 178.511 123.37C177.74 122.653 178.077 121.435 177.987 119.663Z" fill="black"/>
<path opacity="0.2" d="M181.532 76.3655L169.511 89.4354C171.253 91.8606 173.864 93.5193 176.8 94.0653V121.598C176.607 124.733 182.376 123.756 191.371 118.789C200.365 113.821 201.451 114.731 201.451 109.287C201.451 103.844 200.118 82.5448 200.118 82.5448C201.382 81.3443 202.353 79.8702 202.958 78.2358C203.564 76.6013 203.786 74.8499 203.609 73.1161L192.058 71.0664L181.532 76.3655Z" fill="black"/>
<path opacity="0.1" d="M181.532 76.3655L169.511 89.4354C171.253 91.8606 173.864 93.5193 176.8 94.0653V121.598C176.607 124.733 182.376 123.756 191.371 118.789C200.365 113.821 201.451 114.731 201.451 109.287C201.451 103.844 200.118 82.5448 200.118 82.5448C201.382 81.3443 202.353 79.8702 202.958 78.2358C203.564 76.6013 203.786 74.8499 203.609 73.1161L192.058 71.0664L181.532 76.3655Z" fill="white"/>
<path d="M191.068 71.5728L182.706 75.7928C185.63 80.5493 191.628 78.3911 191.068 71.5728Z" fill="#455A64"/>
<path opacity="0.4" d="M191.068 71.5728L182.706 75.7928C185.63 80.5493 191.628 78.3911 191.068 71.5728Z" fill="black"/>
<path d="M183.069 76.6669C183.113 77.0946 183.253 77.5068 183.479 77.8726L191.389 73.303C191.591 72.7668 191.726 72.2081 191.793 71.6391L189.255 73.1221L187.844 73.9299L187.084 74.376L183.069 76.6669Z" fill="#F28F8F"/>
<path d="M187.826 73.9179V73.315V72.4951C188.615 71.8942 189.264 71.129 189.728 70.2526C190.193 69.3762 190.461 68.4094 190.515 67.4191C190.515 65.4658 189.122 64.6821 187.422 65.6587C186.033 66.5604 185.017 67.9356 184.565 69.5291C184.429 70.0017 184.356 70.4902 184.348 70.982C184.348 71.2291 184.522 71.3256 184.733 71.205C184.845 71.1325 184.937 71.0346 185.003 70.9193C185.069 70.804 185.107 70.6746 185.113 70.5419C185.116 70.1723 185.171 69.805 185.276 69.4507C185.616 68.251 186.381 67.2161 187.428 66.5389C188.706 65.7974 189.743 66.3942 189.749 67.8652C189.707 68.6672 189.476 69.4479 189.075 70.1435C188.674 70.8392 188.113 71.4302 187.44 71.8681C187.329 71.9407 187.236 72.0386 187.17 72.1539C187.104 72.2692 187.067 72.3986 187.061 72.5313V74.3399L187.826 73.9179Z" fill="#E0E0E0"/>
<path d="M192.057 71.0784L191.068 71.5728C191.629 78.367 185.643 80.5493 182.707 75.7928L181.531 76.3956C185.136 82.7799 193.028 79.9464 192.057 71.0784Z" fill="white"/>
<path d="M193.319 83.3707L181.298 96.4346C183.037 98.8643 185.649 100.528 188.586 101.077V128.609C188.393 131.75 194.163 130.773 203.163 125.806C212.164 120.838 213.243 121.749 213.243 116.305C213.243 110.861 211.911 89.562 211.911 89.562C213.171 88.3594 214.141 86.885 214.746 85.2511C215.351 83.6172 215.575 81.8669 215.401 80.1333L203.851 78.0836L193.319 83.3707Z" fill="#6ED0FF"/>
<path opacity="0.15" d="M189.785 126.668V100.938C189.391 101.041 188.985 101.088 188.579 101.077V128.609C188.513 129.664 189.14 130.243 190.315 130.375C189.538 129.634 189.875 128.428 189.785 126.668Z" fill="black"/>
<path opacity="0.2" d="M193.319 83.3707L181.298 96.4346C183.037 98.8643 185.649 100.528 188.586 101.077V128.609C188.393 131.75 194.163 130.773 203.163 125.806C212.164 120.838 213.243 121.749 213.243 116.305C213.243 110.861 211.911 89.562 211.911 89.562C213.171 88.3594 214.141 86.885 214.746 85.2511C215.351 83.6172 215.575 81.8669 215.401 80.1333L203.851 78.0836L193.319 83.3707Z" fill="black"/>
<path opacity="0.1" d="M193.319 83.3707L181.298 96.4346C183.037 98.8643 185.649 100.528 188.586 101.077V128.609C188.393 131.75 194.163 130.773 203.163 125.806C212.164 120.838 213.243 121.749 213.243 116.305C213.243 110.861 211.911 89.562 211.911 89.562C213.171 88.3594 214.141 86.885 214.746 85.2511C215.351 83.6172 215.575 81.8669 215.401 80.1333L203.851 78.0836L193.319 83.3707Z" fill="white"/>
<path d="M202.867 78.5779L194.499 82.7979C197.423 87.5545 203.427 85.3661 202.867 78.5779Z" fill="#6ED0FF"/>
<path opacity="0.4" d="M202.867 78.5779L194.499 82.7979C197.423 87.5545 203.427 85.3661 202.867 78.5779Z" fill="black"/>
<path d="M194.843 83.6661C194.891 84.0929 195.03 84.5043 195.253 84.8718L203.168 80.3021C203.369 79.7658 203.505 79.2071 203.572 78.6382L201.028 80.1152L199.623 80.9291L198.858 81.3692L194.843 83.6661Z" fill="#F28F8F"/>
<path d="M199.623 80.9231V80.3202V79.5003C200.412 78.8991 201.062 78.1341 201.527 77.2578C201.992 76.3815 202.262 75.4148 202.318 74.4243C202.318 72.471 200.919 71.6813 199.225 72.6639C197.833 73.5628 196.817 74.9391 196.368 76.5343C196.226 77.0059 196.151 77.4949 196.145 77.9872C196.145 78.2343 196.325 78.3248 196.53 78.2042C196.644 78.1331 196.738 78.0356 196.805 77.9201C196.872 77.8046 196.91 77.6745 196.916 77.541C196.917 77.1733 196.972 76.8076 197.079 76.4559C197.416 75.2549 198.179 74.2178 199.225 73.5381C200.503 72.8026 201.546 73.3994 201.546 74.8704C201.505 75.671 201.275 76.4505 200.874 77.1452C200.474 77.8399 199.915 78.43 199.243 78.8673C199.131 78.9395 199.038 79.0373 198.971 79.1525C198.904 79.2678 198.865 79.3973 198.857 79.5305V81.339L199.623 80.9231Z" fill="#E0E0E0"/>
<path d="M203.856 78.0836L202.867 78.578C203.428 85.3661 197.442 87.5545 194.5 82.798L193.324 83.4008C196.935 89.7851 204.827 86.9456 203.856 78.0836Z" fill="white"/>
<path d="M119.938 28.5589C119.003 28.024 117.944 27.7438 116.867 27.7464C115.789 27.749 114.732 28.0343 113.799 28.5738C112.867 29.1132 112.092 29.8879 111.553 30.8205C111.014 31.7531 110.729 32.8109 110.726 33.8882V99.051L100.478 104.917C100.232 105.059 100.028 105.264 99.8859 105.511C99.7441 105.758 99.6697 106.037 99.67 106.321V108.775C99.6565 108.996 99.6884 109.217 99.7636 109.425C99.8389 109.633 99.9559 109.824 100.108 109.985C100.259 110.146 100.442 110.275 100.645 110.362C100.848 110.45 101.067 110.496 101.289 110.496C101.51 110.496 101.729 110.45 101.932 110.362C102.135 110.275 102.318 110.146 102.47 109.985C102.621 109.824 102.738 109.633 102.814 109.425C102.889 109.217 102.921 108.996 102.907 108.775V107.256L112.788 101.553C113.012 101.479 113.218 101.358 113.391 101.197L122.995 95.6509C123.064 96.0501 123.281 96.4088 123.602 96.6564C123.923 96.9039 124.324 97.0223 124.728 96.9883C125.132 96.9542 125.509 96.7702 125.784 96.4725C126.058 96.1747 126.212 95.7848 126.214 95.3796V92.8596C126.212 92.578 126.136 92.3018 125.995 92.0581C125.854 91.8145 125.652 91.6118 125.408 91.4701C125.165 91.3283 124.889 91.2524 124.607 91.2497C124.326 91.2471 124.048 91.3178 123.802 91.455L113.922 97.158V33.858C113.926 33.3454 114.065 32.8429 114.325 32.4011C114.585 31.9593 114.956 31.5938 115.403 31.3414C115.849 31.089 116.353 30.9586 116.866 30.9633C117.379 30.968 117.881 31.1077 118.322 31.3682L127.106 36.4382L130.343 34.5694L119.938 28.5589Z" fill="#263238"/>
<path opacity="0.2" d="M119.938 28.5589C119.003 28.024 117.944 27.7438 116.867 27.7464C115.789 27.749 114.732 28.0343 113.799 28.5738C112.867 29.1132 112.092 29.8879 111.553 30.8205C111.014 31.7531 110.729 32.8109 110.726 33.8882V99.051L100.478 104.917C100.232 105.059 100.028 105.264 99.8859 105.511C99.7441 105.758 99.6697 106.037 99.67 106.321V108.775C99.6565 108.996 99.6884 109.217 99.7636 109.425C99.8389 109.633 99.9559 109.824 100.108 109.985C100.259 110.146 100.442 110.275 100.645 110.362C100.848 110.45 101.067 110.496 101.289 110.496C101.51 110.496 101.729 110.45 101.932 110.362C102.135 110.275 102.318 110.146 102.47 109.985C102.621 109.824 102.738 109.633 102.814 109.425C102.889 109.217 102.921 108.996 102.907 108.775V107.256L112.788 101.553C113.012 101.479 113.218 101.358 113.391 101.197L122.995 95.6509C123.064 96.0501 123.281 96.4088 123.602 96.6564C123.923 96.9039 124.324 97.0223 124.728 96.9883C125.132 96.9542 125.509 96.7702 125.784 96.4725C126.058 96.1747 126.212 95.7848 126.214 95.3796V92.8596C126.212 92.578 126.136 92.3018 125.995 92.0581C125.854 91.8145 125.652 91.6118 125.408 91.4701C125.165 91.3283 124.889 91.2524 124.607 91.2497C124.326 91.2471 124.048 91.3178 123.802 91.455L113.922 97.158V33.858C113.926 33.3454 114.065 32.8429 114.325 32.4011C114.585 31.9593 114.956 31.5938 115.403 31.3414C115.849 31.089 116.353 30.9586 116.866 30.9633C117.379 30.968 117.881 31.1077 118.322 31.3682L127.106 36.4382L130.343 34.5694L119.938 28.5589Z" fill="white"/>
<path d="M229.748 152.5C229.501 152.358 229.222 152.283 228.937 152.283C228.652 152.283 228.373 152.358 228.126 152.5L218.896 157.83V94.1075C218.891 91.5499 218.215 89.0383 216.936 86.8234C215.657 84.6084 213.82 82.7673 211.608 81.4837L130.343 34.5694L127.105 36.4383L209.986 84.287C211.707 85.285 213.137 86.7172 214.131 88.4405C215.126 90.1638 215.65 92.1179 215.653 94.1075V159.698L204.802 165.962C204.556 166.105 204.352 166.31 204.21 166.556C204.068 166.803 203.993 167.082 203.994 167.367V169.82C203.98 170.041 204.012 170.263 204.087 170.471C204.163 170.679 204.28 170.869 204.431 171.03C204.583 171.192 204.766 171.32 204.969 171.408C205.172 171.496 205.391 171.541 205.612 171.541C205.834 171.541 206.053 171.496 206.256 171.408C206.459 171.32 206.642 171.192 206.794 171.03C206.945 170.869 207.062 170.679 207.138 170.471C207.213 170.263 207.245 170.041 207.231 169.82V168.301L227.336 156.69C227.406 157.089 227.622 157.447 227.942 157.695C228.263 157.942 228.664 158.061 229.067 158.028C229.471 157.995 229.847 157.812 230.123 157.515C230.398 157.219 230.552 156.83 230.556 156.425V153.899C230.556 153.615 230.481 153.337 230.339 153.091C230.197 152.846 229.993 152.642 229.748 152.5Z" fill="#263238"/>
<path opacity="0.2" d="M229.748 152.5C229.501 152.358 229.222 152.283 228.937 152.283C228.652 152.283 228.373 152.358 228.126 152.5L218.896 157.83V94.1075C218.891 91.5499 218.215 89.0383 216.936 86.8234C215.657 84.6084 213.82 82.7673 211.608 81.4837L130.343 34.5694L127.105 36.4383L209.986 84.287C211.707 85.285 213.137 86.7172 214.131 88.4405C215.126 90.1638 215.65 92.1179 215.653 94.1075V159.698L204.802 165.962C204.556 166.105 204.352 166.31 204.21 166.556C204.068 166.803 203.993 167.082 203.994 167.367V169.82C203.98 170.041 204.012 170.263 204.087 170.471C204.163 170.679 204.28 170.869 204.431 171.03C204.583 171.192 204.766 171.32 204.969 171.408C205.172 171.496 205.391 171.541 205.612 171.541C205.834 171.541 206.053 171.496 206.256 171.408C206.459 171.32 206.642 171.192 206.794 171.03C206.945 170.869 207.062 170.679 207.138 170.471C207.213 170.263 207.245 170.041 207.231 169.82V168.301L227.336 156.69C227.406 157.089 227.622 157.447 227.942 157.695C228.263 157.942 228.664 158.061 229.067 158.028C229.471 157.995 229.847 157.812 230.123 157.515C230.398 157.219 230.552 156.83 230.556 156.425V153.899C230.556 153.615 230.481 153.337 230.339 153.091C230.197 152.846 229.993 152.642 229.748 152.5Z" fill="white"/>
<path d="M123.664 23.5914V31.8807C123.67 31.938 123.691 31.9928 123.725 32.0394C123.759 32.086 123.804 32.1227 123.857 32.1459C123.999 32.2175 124.156 32.2548 124.315 32.2548C124.474 32.2548 124.631 32.2175 124.773 32.1459C124.825 32.1224 124.87 32.0854 124.903 32.0388C124.936 31.9921 124.956 31.9375 124.96 31.8807V23.5914H123.664Z" fill="#263238"/>
<path opacity="0.4" d="M123.664 23.5914V31.8807C123.67 31.938 123.691 31.9928 123.725 32.0394C123.759 32.086 123.804 32.1227 123.857 32.1459C123.999 32.2175 124.156 32.2548 124.315 32.2548C124.474 32.2548 124.631 32.2175 124.773 32.1459C124.825 32.1224 124.87 32.0854 124.903 32.0388C124.936 31.9921 124.956 31.9375 124.96 31.8807V23.5914H123.664Z" fill="white"/>
<path d="M115.82 0.797363L133.309 10.9012V31.097L115.82 20.9991V0.797363Z" fill="#6ED0FF"/>
<path opacity="0.1" d="M115.82 0.797363L133.309 10.9012V31.097L115.82 20.9991V0.797363Z" fill="black"/>
<path opacity="0.1" d="M115.82 0.797363L133.309 10.9012V31.097L115.82 20.9991V0.797363Z" fill="white"/>
<path d="M121.15 6.44011V7.50114L119.383 6.47628L119.293 8.20045C119.48 7.9593 119.763 7.92916 120.173 8.16428C120.556 8.41568 120.862 8.76729 121.059 9.1808C121.256 9.59431 121.335 10.0539 121.288 10.5094V12.1672C121.288 13.373 120.77 13.7347 119.769 13.162C119.291 12.8865 118.898 12.4851 118.632 12.0014C118.366 11.5177 118.238 10.9703 118.262 10.419V9.8161L119.221 10.3707V11.058C119.204 11.2626 119.248 11.4675 119.345 11.6482C119.442 11.8289 119.59 11.9777 119.769 12.0768C120.089 12.2637 120.294 12.1914 120.294 11.6548V10.0271C120.314 9.82232 120.275 9.61612 120.182 9.43253C120.089 9.24893 119.946 9.09553 119.769 8.99019C119.45 8.8033 119.245 8.8877 119.245 9.41822V9.66539L118.286 9.11679L118.479 4.89679L121.15 6.44011Z" fill="#6ED0FF"/>
<path d="M123.447 7.68197C123.931 7.95795 124.33 8.36118 124.601 8.84792C124.872 9.33466 125.005 9.88633 124.984 10.4431V14.3013C124.984 15.5071 124.436 15.8507 123.441 15.278C122.957 15.002 122.558 14.5988 122.287 14.112C122.016 13.6253 121.884 13.0736 121.904 12.5169V8.6586C121.904 7.47097 122.452 7.10926 123.447 7.68197ZM123.99 13.7829V9.77991C124.009 9.57522 123.97 9.36928 123.877 9.18583C123.784 9.00238 123.642 8.84887 123.465 8.743C123.14 8.55611 122.941 8.64051 122.935 9.17103V13.18C122.916 13.3838 122.955 13.5888 123.048 13.7712C123.141 13.9536 123.284 14.106 123.459 14.2109C123.785 14.3978 123.984 14.3194 123.99 13.7829Z" fill="#6ED0FF"/>
<path d="M129.765 14.0783C130.072 14.2532 130.325 14.5095 130.497 14.819C130.668 15.1285 130.751 15.4792 130.735 15.8326V18.244C130.735 19.0097 130.392 19.2388 129.759 18.8469C129.45 18.6734 129.195 18.4175 129.022 18.1078C128.85 17.7981 128.767 17.4467 128.782 17.0926V14.6812C128.812 13.9396 129.126 13.7106 129.765 14.0783ZM130.084 17.9486V15.4106C130.098 15.2806 130.075 15.1494 130.017 15.0321C129.96 14.9147 129.87 14.8161 129.759 14.7475C129.542 14.6209 129.421 14.6932 129.421 15.0248V17.5688C129.408 17.6985 129.433 17.8292 129.491 17.9455C129.55 18.0619 129.641 18.1591 129.753 18.226C129.958 18.3405 130.084 18.2802 130.084 17.9486Z" fill="#6ED0FF"/>
<path d="M127.534 13.7105C127.534 14.4701 127.191 14.6992 126.552 14.3134C126.245 14.137 125.993 13.8804 125.822 13.5712C125.651 13.2621 125.568 12.9121 125.581 12.5591V10.1477C125.581 9.38203 125.925 9.15295 126.564 9.5448C126.871 9.72042 127.124 9.97668 127.296 10.2859C127.468 10.5951 127.553 10.9455 127.54 11.2991L127.534 13.7105ZM126.226 13.0052C126.214 13.1348 126.239 13.2652 126.297 13.3814C126.356 13.4976 126.446 13.595 126.558 13.6623C126.757 13.7769 126.889 13.7166 126.889 13.391V10.8409C126.9 10.7108 126.874 10.5803 126.814 10.4642C126.755 10.348 126.664 10.2509 126.552 10.1838C126.341 10.0572 126.22 10.1296 126.22 10.4551V13.0052" fill="#6ED0FF"/>
<path d="M129.114 11.0399L129.716 11.3835L127.148 17.3398L126.545 16.9901L129.114 11.0399Z" fill="#6ED0FF"/>
<path d="M119.443 16.3631L119.962 20.4746L119.437 20.1671L119.347 19.4256L118.708 19.0579L118.617 19.6969L118.141 19.4196L118.684 15.923L119.443 16.3631ZM118.78 18.5816L119.281 18.871L119.039 16.8032L118.792 18.6118" fill="#6ED0FF"/>
<path d="M120.74 17.1046L120.728 20.3721L121.584 20.8665V21.4091L120.204 20.6133L120.216 16.8092L120.74 17.1046Z" fill="#6ED0FF"/>
<path d="M122.344 18.033L122.332 21.3005L123.188 21.7949V22.3374L121.807 21.5417L121.819 17.7316L122.344 18.033Z" fill="#6ED0FF"/>
<path d="M124.677 19.3835L124.67 23.1935L124.146 22.8921L124.158 19.082L124.677 19.3835Z" fill="#6ED0FF"/>
<path d="M126.521 20.4445L126.515 20.9931L125.972 20.6796L125.96 23.935L125.442 23.6336L125.454 20.3782L124.905 20.0586V19.5161L126.521 20.4445Z" fill="#6ED0FF"/>
<path d="M128.167 21.397V21.9456L127.263 21.4211V22.4821L127.974 22.8981V23.4346L127.257 23.0247V24.14L128.155 24.6645V25.201L126.738 24.3871L126.744 20.5771L128.167 21.397Z" fill="#6ED0FF"/>
<path d="M130.675 22.8438L130.663 26.6479L130.163 26.3645L130.175 23.6336L129.807 26.1596L129.319 25.8762L128.945 22.9644L128.927 25.6532L128.475 25.3879L128.487 21.5779L129.21 21.9998L129.578 24.9177L129.59 24.9237L129.946 22.4219L130.675 22.8438Z" fill="#6ED0FF"/>
<g opacity="0.5">
<path opacity="0.5" d="M121.149 6.44009V7.50112L119.383 6.47626L119.293 8.20043C119.479 7.95929 119.763 7.92915 120.173 8.16426C120.555 8.41567 120.862 8.76728 121.058 9.18079C121.255 9.5943 121.334 10.0539 121.288 10.5094V12.1672C121.288 13.3729 120.77 13.7347 119.769 13.1619C119.291 12.8865 118.897 12.4851 118.631 12.0014C118.366 11.5177 118.238 10.9703 118.262 10.4189V9.81609L119.22 10.3707V11.058C119.204 11.2626 119.247 11.4675 119.344 11.6482C119.442 11.8289 119.589 11.9777 119.769 12.0768C120.088 12.2637 120.293 12.1913 120.293 11.6548V10.0271C120.313 9.82231 120.274 9.6161 120.182 9.43251C120.089 9.24892 119.946 9.09551 119.769 8.99017C119.449 8.80329 119.244 8.88769 119.244 9.4182V9.66537L118.286 9.11677L118.479 4.89677L121.149 6.44009Z" fill="white"/>
<path opacity="0.5" d="M123.447 7.68197C123.931 7.95795 124.33 8.36118 124.601 8.84792C124.872 9.33466 125.004 9.88633 124.984 10.4431V14.3013C124.984 15.5071 124.435 15.8507 123.441 15.278C122.957 15.002 122.558 14.5988 122.287 14.112C122.016 13.6253 121.883 13.0736 121.903 12.5169V8.6586C121.903 7.47097 122.452 7.10926 123.447 7.68197ZM123.989 13.7829V9.77991C124.008 9.57522 123.969 9.36928 123.877 9.18583C123.784 9.00238 123.641 8.84887 123.465 8.743C123.139 8.55611 122.94 8.64051 122.934 9.17103V13.18C122.916 13.3838 122.955 13.5888 123.048 13.7712C123.141 13.9536 123.283 14.106 123.459 14.2109C123.784 14.3978 123.983 14.3194 123.989 13.7829Z" fill="white"/>
<path opacity="0.5" d="M129.763 14.0783C130.071 14.2532 130.324 14.5094 130.495 14.819C130.666 15.1285 130.749 15.4792 130.734 15.8326V18.244C130.734 19.0097 130.39 19.2387 129.757 18.8469C129.448 18.6733 129.193 18.4175 129.021 18.1078C128.848 17.7981 128.765 17.4467 128.781 17.0926V14.6811C128.811 13.9396 129.124 13.7105 129.763 14.0783ZM130.083 17.9486V15.4106C130.097 15.2806 130.073 15.1494 130.016 15.0321C129.958 14.9147 129.868 14.8161 129.757 14.7475C129.54 14.6209 129.42 14.6932 129.42 15.0248V17.5688C129.407 17.6985 129.431 17.8292 129.49 17.9455C129.549 18.0619 129.639 18.1591 129.751 18.2259C129.956 18.3405 130.083 18.2802 130.083 17.9486Z" fill="white"/>
<path opacity="0.5" d="M127.534 13.7105C127.534 14.4701 127.19 14.6992 126.551 14.3134C126.245 14.137 125.993 13.8804 125.822 13.5712C125.651 13.2621 125.567 12.9121 125.58 12.5591V10.1477C125.58 9.38203 125.924 9.15295 126.563 9.5448C126.87 9.72042 127.124 9.97668 127.296 10.2859C127.468 10.5951 127.552 10.9455 127.54 11.2991L127.534 13.7105ZM126.225 13.0052C126.214 13.1348 126.238 13.2652 126.297 13.3814C126.356 13.4976 126.446 13.595 126.557 13.6623C126.756 13.7769 126.889 13.7166 126.889 13.391V10.8409C126.899 10.7108 126.873 10.5803 126.814 10.4642C126.754 10.348 126.663 10.2509 126.551 10.1838C126.34 10.0572 126.219 10.1296 126.219 10.4551V13.0052" fill="white"/>
<path opacity="0.5" d="M129.112 11.0399L129.715 11.3835L127.147 17.3397L126.544 16.9901L129.112 11.0399Z" fill="white"/>
<path opacity="0.5" d="M119.443 16.3631L119.962 20.4746L119.437 20.1671L119.347 19.4256L118.708 19.0579L118.617 19.6969L118.141 19.4196L118.684 15.923L119.443 16.3631ZM118.78 18.5816L119.281 18.871L119.039 16.8032L118.792 18.6118" fill="white"/>
<path opacity="0.5" d="M120.739 17.1046L120.727 20.3721L121.583 20.8664V21.409L120.202 20.6132L120.214 16.8092L120.739 17.1046Z" fill="white"/>
<path opacity="0.5" d="M122.343 18.033L122.331 21.3005L123.187 21.7949V22.3374L121.807 21.5417L121.819 17.7316L122.343 18.033Z" fill="white"/>
<path opacity="0.5" d="M124.676 19.3834L124.67 23.1935L124.146 22.8921L124.158 19.082L124.676 19.3834Z" fill="white"/>
<path opacity="0.5" d="M126.521 20.4445L126.515 20.9931L125.972 20.6796L125.96 23.935L125.442 23.6336L125.454 20.3781L124.905 20.0586V19.5161L126.521 20.4445Z" fill="white"/>
<path opacity="0.5" d="M128.166 21.397V21.9456L127.262 21.4211V22.4821L127.973 22.8981V23.4346L127.256 23.0247V24.14L128.154 24.6645V25.201L126.737 24.3871L126.743 20.5771L128.166 21.397Z" fill="white"/>
<path opacity="0.5" d="M130.675 22.8438L130.662 26.6479L130.162 26.3645L130.174 23.6336L129.806 26.1595L129.318 25.8762L128.944 22.9644L128.926 25.6531L128.474 25.3879L128.486 21.5778L129.21 21.9998L129.577 24.9177L129.589 24.9237L129.945 22.4218L130.675 22.8438Z" fill="white"/>
</g>
<path d="M199.22 72.67C197.828 73.5688 196.812 74.9451 196.363 76.5403C196.222 77.012 196.147 77.5009 196.14 77.9932C196.14 78.2404 196.321 78.3308 196.525 78.2102C196.639 78.1391 196.733 78.0417 196.8 77.9262C196.867 77.8107 196.905 77.6806 196.911 77.5471C196.912 77.1793 196.967 76.8137 197.074 76.4619C197.411 75.261 198.174 74.2238 199.22 73.5441C199.526 73.3615 199.872 73.2579 200.227 73.2427L199.467 72.5373L199.22 72.67Z" fill="#E0E0E0"/>
<path d="M187.422 65.6708C186.033 66.5725 185.017 67.9477 184.565 69.5411C184.429 70.0138 184.356 70.5023 184.348 70.994C184.348 71.2412 184.522 71.3376 184.733 71.2171C184.845 71.1449 184.938 71.0471 185.004 70.9317C185.07 70.8163 185.108 70.6868 185.113 70.5539C185.117 70.1844 185.172 69.8172 185.276 69.4628C185.616 68.2631 186.381 67.2281 187.428 66.551C187.732 66.3636 188.079 66.2577 188.435 66.2435L187.675 65.5442C187.589 65.5815 187.504 65.6238 187.422 65.6708Z" fill="#E0E0E0"/>
<path d="M171.483 56.1818C170.092 57.0819 169.076 58.4577 168.625 60.0522C168.483 60.5235 168.41 61.0128 168.408 61.505C168.408 61.7522 168.583 61.8487 168.788 61.7281C168.9 61.6563 168.994 61.5586 169.061 61.4433C169.128 61.3279 169.167 61.1982 169.174 61.065C169.174 60.6952 169.229 60.3276 169.337 59.9738C169.672 58.7736 170.436 57.7378 171.483 57.062C171.787 56.8754 172.133 56.7695 172.49 56.7545L171.73 56.0854L171.483 56.1818Z" fill="#E0E0E0"/>
<path d="M159.685 50.3341C158.295 51.2344 157.282 52.6104 156.833 54.2044C156.693 54.6762 156.618 55.1651 156.61 55.6573C156.61 55.9045 156.785 56.001 156.996 55.8804C157.108 55.8082 157.201 55.7104 157.267 55.595C157.333 55.4796 157.37 55.3501 157.376 55.2172C157.379 54.8477 157.434 54.4805 157.539 54.1261C157.879 52.9264 158.644 51.8914 159.691 51.2143C159.995 51.0269 160.341 50.921 160.698 50.9068L159.938 50.2075L159.685 50.3341Z" fill="#E0E0E0"/>
<path d="M143.805 40.2423C142.413 41.1415 141.397 42.5177 140.948 44.1126C140.808 44.5845 140.735 45.0735 140.73 45.5655C140.73 45.8127 140.905 45.9031 141.116 45.7825C141.228 45.71 141.32 45.6121 141.386 45.4968C141.452 45.3815 141.49 45.2521 141.496 45.1194C141.5 44.7519 141.554 44.3866 141.659 44.0342C142.001 42.8338 142.765 41.7975 143.811 41.1164C144.115 40.9304 144.462 40.8265 144.818 40.815L144.058 40.1096L143.805 40.2423Z" fill="#E0E0E0"/>
<path d="M132.429 33.9605C131.037 34.8597 130.021 36.2359 129.572 37.8308C129.429 38.3021 129.356 38.7915 129.354 39.2837C129.354 39.5249 129.529 39.6213 129.74 39.5008C129.852 39.4283 129.944 39.3303 130.01 39.215C130.076 39.0997 130.114 38.9703 130.12 38.8376C130.124 38.4682 130.179 38.101 130.283 37.7465C130.621 36.5472 131.383 35.5121 132.429 34.8347C132.735 34.6478 133.084 34.542 133.442 34.5272L132.682 33.8279L132.429 33.9605Z" fill="#E0E0E0"/>
<path d="M193.539 86.5625L191.043 88.9739C188.481 85.7004 185.015 83.4879 182.001 78.9002C181.132 77.803 181.223 75.6146 180.632 74.4933C180.174 73.6192 179.366 72.3049 179.028 71.5695C179 71.5044 178.957 71.4463 178.904 71.3992C178.85 71.352 178.788 71.317 178.72 71.2964C178.651 71.2757 178.58 71.2701 178.509 71.2798C178.439 71.2894 178.371 71.3142 178.311 71.3524C177.455 71.9553 177.907 73.4564 178.353 75.0238C178.884 76.8324 176.123 74.3727 175.749 73.9507C174.001 72.323 172.493 68.3321 171.3 68.73C170.106 69.1279 171.053 71.1414 171.053 71.1414C169.955 71.3705 170.371 73.1248 170.371 73.1248C169.72 74.2702 169.901 76.0427 171.24 77.6824C172.204 78.8881 174.857 80.5159 176.189 81.2996C176.757 81.6368 177.243 82.096 177.612 82.6439L186.178 95.3702C186.572 95.9578 187.082 96.4586 187.677 96.8419C188.271 97.2252 188.938 97.4829 189.636 97.5992C190.334 97.7155 191.048 97.688 191.735 97.5182C192.422 97.3485 193.066 97.0401 193.63 96.6121L198.302 93.1517L193.539 86.5625Z" fill="#FFA8A7"/>
<path d="M208.038 75.3253C203.294 75.1143 196.855 82.8127 193.226 86.4419C193.503 90.879 198.284 93.7908 198.284 93.7908C201.684 91.4455 204.942 88.8989 208.038 86.1646V75.3253Z" fill="#6ED0FF"/>
<path opacity="0.3" d="M208.038 75.3253C203.294 75.1143 196.855 82.8127 193.226 86.4419C193.503 90.879 198.284 93.7908 198.284 93.7908C201.684 91.4455 204.942 88.8989 208.038 86.1646V75.3253Z" fill="white"/>
<path d="M205.572 176.328C205.657 178.347 205.572 180.717 205.572 180.717L206.742 180.783C207.298 180.812 207.834 181.005 208.281 181.337C208.729 181.67 209.068 182.127 209.256 182.652V182.724C209.354 182.992 209.552 183.212 209.807 183.339C210.063 183.465 210.358 183.489 210.63 183.405C210.777 183.356 210.912 183.277 211.027 183.173C211.142 183.07 211.235 182.943 211.299 182.803L211.902 177.739L205.572 176.328Z" fill="#FFA8A7"/>
<path d="M203.849 193.895C200.78 195.209 196.078 195.463 194.125 192.328V193.178C196.078 196.313 200.756 196.059 203.849 194.745C206.941 193.431 206.26 191.291 209.003 190.139C210.008 189.774 210.923 189.196 211.686 188.445C211.686 188.192 211.74 187.879 211.782 187.517C210.97 188.269 210.028 188.87 209.003 189.289C206.248 190.441 206.923 192.587 203.849 193.895Z" fill="#37474F"/>
<path d="M211.781 184.732C211.656 184.135 211.656 183.519 211.781 182.923C211.82 182.787 211.827 182.643 211.803 182.504C211.779 182.364 211.724 182.231 211.643 182.115L211.414 181.892L211.305 182.827C211.241 182.968 211.148 183.094 211.033 183.197C210.918 183.301 210.783 183.38 210.636 183.43C210.363 183.513 210.069 183.489 209.813 183.363C209.557 183.236 209.36 183.016 209.262 182.748V182.676C209.073 182.151 208.734 181.694 208.287 181.362C207.84 181.029 207.304 180.836 206.748 180.807L205.542 180.741C205.365 180.732 205.19 180.777 205.04 180.871C204.89 180.965 204.773 181.102 204.704 181.265C203.498 184.225 200.4 187.505 198.024 189.012C196.276 188.97 194.118 190.417 194.118 192.177V192.352C196.071 195.487 200.749 195.233 203.842 193.919C206.935 192.605 206.253 190.465 208.996 189.313C210.021 188.894 210.963 188.294 211.775 187.541C211.914 186.61 211.916 185.663 211.781 184.732Z" fill="#6ED0FF"/>
<path d="M205.839 187.155C205.908 187.219 205.998 187.256 206.092 187.26C206.186 187.263 206.279 187.232 206.352 187.172C206.425 187.113 206.475 187.029 206.491 186.936C206.508 186.844 206.49 186.748 206.442 186.667C205.982 186.053 205.371 185.568 204.669 185.259C203.966 184.951 203.196 184.829 202.433 184.907C202.264 185.112 202.101 185.31 201.926 185.509C202.665 185.42 203.415 185.525 204.101 185.813C204.787 186.102 205.386 186.564 205.839 187.155Z" fill="white"/>
<path d="M207.049 185.799C207.081 185.838 207.121 185.871 207.165 185.895C207.21 185.918 207.259 185.933 207.31 185.938C207.361 185.942 207.412 185.936 207.46 185.921C207.508 185.905 207.553 185.88 207.592 185.847C207.671 185.784 207.722 185.693 207.734 185.592C207.747 185.492 207.719 185.391 207.658 185.31C207.172 184.678 206.533 184.179 205.801 183.863C205.069 183.546 204.268 183.422 203.474 183.502C203.323 183.719 203.173 183.936 203.01 184.153C203.768 184.046 204.542 184.143 205.251 184.432C205.961 184.721 206.581 185.192 207.049 185.799Z" fill="white"/>
<path d="M204.578 188.481C204.647 188.546 204.737 188.583 204.831 188.586C204.926 188.589 205.018 188.558 205.091 188.499C205.164 188.439 205.214 188.356 205.23 188.263C205.247 188.17 205.229 188.074 205.181 187.993C204.732 187.392 204.139 186.915 203.455 186.606C202.772 186.297 202.022 186.167 201.274 186.227C201.075 186.432 200.876 186.637 200.671 186.83C201.41 186.743 202.158 186.85 202.843 187.139C203.528 187.429 204.126 187.891 204.578 188.481Z" fill="white"/>
<path d="M198.032 188.988C196.284 188.946 194.126 190.393 194.126 192.153V192.328C196.049 195.42 200.636 195.215 203.711 193.949C203.476 189.729 199.425 188.97 198.032 188.988Z" fill="white"/>
<path d="M203.282 189.747C203.35 189.825 203.444 189.873 203.547 189.882C203.649 189.891 203.751 189.86 203.831 189.796C203.909 189.732 203.959 189.64 203.97 189.54C203.982 189.439 203.953 189.339 203.891 189.259C203.442 188.657 202.848 188.179 202.163 187.87C201.479 187.561 200.727 187.431 199.978 187.493C199.731 187.71 199.49 187.915 199.249 188.096C200.007 187.988 200.78 188.085 201.489 188.375C202.198 188.665 202.817 189.139 203.282 189.747Z" fill="white"/>
<path d="M221.897 180.06C221.981 182.079 221.897 184.454 221.897 184.454L223.066 184.515C223.622 184.546 224.157 184.74 224.604 185.072C225.05 185.404 225.39 185.86 225.58 186.384V186.462C225.677 186.729 225.874 186.948 226.129 187.074C226.384 187.2 226.678 187.223 226.949 187.137C227.096 187.089 227.232 187.01 227.347 186.906C227.462 186.802 227.554 186.676 227.618 186.534L228.221 181.47L221.897 180.06Z" fill="#FFA8A7"/>
<path d="M220.175 197.633C217.106 198.941 212.404 199.2 210.451 196.065V196.909C212.404 200.05 217.082 199.791 220.175 198.483C223.267 197.175 222.586 195.022 225.329 193.871C226.337 193.507 227.254 192.929 228.018 192.177C228.018 191.93 228.066 191.616 228.108 191.255C227.294 192.005 226.353 192.605 225.329 193.027C222.574 194.178 223.249 196.319 220.175 197.633Z" fill="#37474F"/>
<path d="M228.108 188.469C227.984 187.873 227.984 187.257 228.108 186.661C228.146 186.525 228.153 186.383 228.129 186.244C228.105 186.106 228.051 185.974 227.969 185.859L227.74 185.63L227.632 186.564C227.568 186.706 227.476 186.833 227.361 186.936C227.245 187.04 227.11 187.119 226.963 187.167C226.687 187.245 226.392 187.212 226.14 187.076C225.888 186.94 225.698 186.711 225.612 186.438V186.359C225.422 185.836 225.082 185.38 224.635 185.048C224.189 184.716 223.654 184.522 223.098 184.491L221.892 184.424C221.714 184.414 221.537 184.46 221.386 184.555C221.235 184.65 221.117 184.79 221.048 184.955C219.843 187.909 216.744 191.194 214.369 192.695C212.621 192.659 210.462 194.106 210.462 195.866V196.083C212.416 199.218 217.094 198.959 220.186 197.651C223.279 196.343 222.598 194.197 225.341 193.045C226.361 192.619 227.298 192.014 228.108 191.261C228.243 190.335 228.243 189.395 228.108 188.469Z" fill="#6ED0FF"/>
<path d="M222.164 190.893C222.231 190.97 222.325 191.018 222.426 191.027C222.527 191.036 222.628 191.005 222.707 190.941C222.786 190.878 222.837 190.787 222.85 190.686C222.862 190.586 222.835 190.485 222.773 190.405C222.313 189.79 221.703 189.306 221 188.997C220.298 188.689 219.527 188.567 218.764 188.644C218.595 188.843 218.433 189.042 218.258 189.247C218.996 189.16 219.743 189.267 220.428 189.555C221.113 189.843 221.711 190.304 222.164 190.893Z" fill="white"/>
<path d="M223.375 189.536C223.442 189.613 223.535 189.661 223.637 189.67C223.738 189.679 223.839 189.649 223.918 189.585C223.997 189.522 224.048 189.43 224.061 189.33C224.073 189.23 224.045 189.128 223.984 189.048C223.498 188.415 222.859 187.917 222.127 187.601C221.395 187.284 220.594 187.16 219.8 187.24C219.649 187.463 219.499 187.68 219.336 187.897C220.094 187.788 220.867 187.883 221.577 188.171C222.287 188.459 222.907 188.93 223.375 189.536Z" fill="white"/>
<path d="M220.909 192.219C220.975 192.297 221.069 192.346 221.17 192.355C221.272 192.364 221.373 192.333 221.452 192.267C221.53 192.204 221.58 192.112 221.591 192.011C221.603 191.911 221.574 191.81 221.512 191.731C221.063 191.131 220.469 190.653 219.786 190.344C219.103 190.034 218.353 189.901 217.605 189.958C217.413 190.169 217.208 190.368 217.003 190.561C217.742 190.475 218.49 190.583 219.175 190.874C219.86 191.164 220.457 191.628 220.909 192.219Z" fill="white"/>
<path d="M214.356 192.72C212.608 192.683 210.45 194.13 210.45 195.891V196.084C212.373 199.17 216.967 198.965 220.035 197.705C219.8 193.467 215.749 192.708 214.356 192.72Z" fill="white"/>
<path d="M219.612 193.485C219.678 193.563 219.772 193.612 219.874 193.621C219.975 193.63 220.076 193.599 220.155 193.533C220.233 193.47 220.283 193.378 220.294 193.277C220.306 193.177 220.277 193.076 220.215 192.997C219.767 192.394 219.172 191.915 218.488 191.605C217.804 191.295 217.052 191.164 216.303 191.224C216.055 191.441 215.814 191.646 215.573 191.827C216.333 191.722 217.107 191.819 217.817 192.111C218.526 192.402 219.146 192.876 219.612 193.485Z" fill="white"/>
<path d="M201.599 112.606L202.171 151.792L204.022 179.228C208.7 182.188 213.541 179.384 213.541 179.384C215.35 166.387 215.386 158.351 214.421 152.943L214.988 132.012L215.916 153.654L220.317 181.386C225.14 184.497 230.343 181.289 230.343 181.289C230.343 171.324 231.368 159.484 228.625 152.304C230.56 130.101 227.298 113.04 227.298 113.04L201.599 112.606Z" fill="#37474F"/>
<path opacity="0.3" d="M213.054 124.145L214.989 132.018L214.718 142.128L211.812 125.851C207.634 124.217 207.092 121.914 207.092 121.914C208.86 123.148 210.911 123.915 213.054 124.145Z" fill="black"/>
<path d="M225.43 79.1293C218.642 75.9462 213.548 75.5785 207.995 75.3373C199.688 80.6847 202.799 85.1398 202.937 92.2896C203.015 100.145 202.155 107.981 200.375 115.632C211.263 124.331 225.695 122.264 228.969 120.196C228.209 98.915 229.144 80.6485 225.43 79.1293Z" fill="#6ED0FF"/>
<path opacity="0.6" d="M225.43 79.1293C218.642 75.9462 213.548 75.5785 207.995 75.3373C199.688 80.6847 202.799 85.1398 202.937 92.2896C203.015 100.145 202.155 107.981 200.375 115.632C211.263 124.331 225.695 122.264 228.969 120.196C228.209 98.915 229.144 80.6485 225.43 79.1293Z" fill="white"/>
<path d="M204.836 64.8175C203.688 63.9951 202.891 62.7728 202.599 61.3914C202.308 60.0101 202.545 58.5697 203.262 57.3541C202.617 57.0739 202.091 56.577 201.773 55.9494C201.637 55.6487 201.594 55.3136 201.65 54.9881C201.707 54.6625 201.861 54.3618 202.092 54.1252C202.323 53.8886 202.619 53.7273 202.943 53.6623C203.267 53.5973 203.603 53.6317 203.908 53.7611C203.736 53.2736 203.733 52.7424 203.901 52.2534C204.068 51.7644 204.395 51.3462 204.83 51.0663C205.269 50.8238 205.779 50.7412 206.273 50.8324C206.766 50.9237 207.213 51.1831 207.537 51.5667C207.527 51.2478 207.62 50.9342 207.802 50.6724C207.985 50.4107 208.247 50.2148 208.55 50.1138C209.173 49.9484 209.833 49.9907 210.43 50.2343C211.033 50.4393 211.636 50.7407 212.239 50.9337C213.286 51.1948 214.361 51.3324 215.44 51.3436C216.522 51.3523 217.584 51.6343 218.527 52.1635C219.437 52.7663 220.233 54.1228 219.733 55.2983C219.888 55.1021 220.082 54.9403 220.303 54.823C220.524 54.7058 220.767 54.6357 221.017 54.6171C221.264 54.6127 221.509 54.6603 221.736 54.7569C221.964 54.8535 222.168 54.9969 222.337 55.1778C221.662 55.5937 221.011 56.0459 220.335 56.4619C220.72 56.3516 221.131 56.3723 221.503 56.5206C221.875 56.669 222.188 56.9367 222.391 57.2817C222.708 57.9585 222.833 58.7091 222.753 59.452C222.665 62.279 222.163 65.0779 221.264 67.7594C220.806 69.1399 219.528 71.4911 218.213 72.1301L204.836 64.8175Z" fill="#263238"/>
<path d="M204.826 57.5108C206.111 58.7448 207.808 59.458 209.588 59.5123C211.264 59.5123 212.886 58.9758 214.502 58.5357C214.642 59.3201 215.031 60.0386 215.611 60.5854C216.255 61.1394 217.051 61.4861 217.896 61.5801C217.654 63.0917 217.654 64.6321 217.896 66.1437C217.918 66.306 217.987 66.4583 218.094 66.5824C218.201 66.7065 218.341 66.797 218.498 66.8431C219.041 66.9998 219.403 66.4452 219.668 65.993C219.944 65.4603 220.345 65.003 220.838 64.6607C221.085 64.4927 221.371 64.3887 221.669 64.3582C221.966 64.3277 222.267 64.3716 222.544 64.4859C222.76 64.5988 222.95 64.7542 223.105 64.9428C223.259 65.1313 223.374 65.3491 223.442 65.5831C223.571 66.0522 223.596 66.5442 223.514 67.0239C223.41 67.8339 223.085 68.5995 222.574 69.2364C222.316 69.5497 221.997 69.807 221.636 69.9926C221.275 70.1781 220.881 70.288 220.476 70.3155C220.08 70.353 219.682 70.2798 219.325 70.1042C218.969 69.9286 218.668 69.6574 218.456 69.3208L218.42 69.4715C218.358 69.7105 218.284 69.9459 218.197 70.1769C217.839 71.1258 217.248 71.9691 216.477 72.6288C215.707 73.2885 214.783 73.7432 213.79 73.9507C212.765 74.1617 211.626 74.3667 210.468 74.5536C209.902 74.638 209.329 74.7164 208.756 74.7887C207.708 74.9129 206.652 74.6319 205.803 74.0033C204.955 73.3747 204.379 72.4459 204.193 71.4067C203.415 67.0119 203.126 61.8755 204.826 57.5108Z" fill="#FFA8A7"/>
<path d="M218.195 70.1949V77.8753C217.474 78.8587 216.548 79.674 215.481 80.2651C214.414 80.8562 213.232 81.2091 212.016 81.2996C211.229 81.4115 210.429 81.2078 209.791 80.7329C209.587 80.5469 209.428 80.3167 209.327 80.0598C209.226 79.8029 209.184 79.5262 209.207 79.2509C209.229 78.9756 209.314 78.7091 209.455 78.4717C209.596 78.2343 209.789 78.0323 210.021 77.8814C210.157 77.7928 210.27 77.6714 210.348 77.5282C210.426 77.385 210.467 77.2245 210.467 77.0615V74.5656C211.624 74.3848 212.764 74.1798 213.788 73.9628C214.78 73.7558 215.704 73.302 216.475 72.6434C217.245 71.9849 217.837 71.1428 218.195 70.1949Z" fill="#FFA8A7"/>
<path d="M213.067 75.6568C212.215 75.8806 211.346 76.0358 210.469 76.121V74.5656C211.626 74.3848 212.766 74.1798 213.791 73.9628C214.721 73.7656 215.592 73.3508 216.332 72.7526C217.072 72.1543 217.659 71.3894 218.047 70.5205C217.861 71.723 217.32 72.8423 216.492 73.7337C215.547 74.6755 214.363 75.3406 213.067 75.6568Z" fill="#F28F8F"/>
<path d="M208.672 64.0759L205.851 67.4941L208.437 68.4045L208.672 64.0759Z" fill="#F28F8F"/>
<path d="M212.657 64.504C212.658 64.6058 212.639 64.7068 212.6 64.8011C212.562 64.8954 212.505 64.9812 212.433 65.0535C212.362 65.1258 212.276 65.1832 212.182 65.2223C212.088 65.2615 211.987 65.2817 211.886 65.2817C211.784 65.2833 211.683 65.2646 211.589 65.2269C211.495 65.1891 211.409 65.133 211.336 65.0617C211.264 64.9905 211.207 64.9055 211.167 64.8118C211.128 64.7181 211.108 64.6176 211.108 64.516C211.106 64.4142 211.125 64.313 211.163 64.2184C211.2 64.1238 211.256 64.0376 211.327 63.9647C211.399 63.8919 211.484 63.8338 211.577 63.7939C211.671 63.754 211.772 63.7331 211.873 63.7323C212.079 63.7323 212.277 63.8132 212.423 63.9576C212.57 64.102 212.654 64.2982 212.657 64.504Z" fill="#263238"/>
<path d="M206.138 64.293C206.138 64.3948 206.119 64.4958 206.081 64.5901C206.042 64.6844 205.986 64.7702 205.914 64.8425C205.842 64.9148 205.757 64.9722 205.663 65.0113C205.569 65.0505 205.468 65.0707 205.366 65.0706C205.161 65.0706 204.965 64.9894 204.82 64.8446C204.676 64.6999 204.594 64.5036 204.594 64.299C204.594 64.0943 204.676 63.8981 204.82 63.7533C204.965 63.6086 205.161 63.5273 205.366 63.5273C205.57 63.5273 205.765 63.6078 205.91 63.7512C206.054 63.8946 206.136 64.0894 206.138 64.293Z" fill="#263238"/>
<path d="M206.556 60.8567L204.482 61.0918C204.518 60.8692 204.621 60.6628 204.777 60.5002C204.933 60.3376 205.135 60.2264 205.356 60.1815C205.599 60.17 205.841 60.2272 206.053 60.3467C206.265 60.4661 206.439 60.6428 206.556 60.8567Z" fill="#263238"/>
<path d="M211.186 60.8567L213.187 61.4595C213.193 61.2341 213.129 61.0123 213.005 60.8238C212.881 60.6353 212.703 60.489 212.494 60.4045C212.255 60.3514 212.007 60.3656 211.776 60.4454C211.545 60.5253 211.341 60.6676 211.186 60.8567Z" fill="#263238"/>
<path d="M211.643 69.5258L209.479 70.5808C209.665 70.8256 209.926 71.0033 210.221 71.087C210.517 71.1707 210.832 71.156 211.119 71.045C211.367 70.89 211.554 70.6546 211.65 70.3781C211.745 70.1016 211.743 69.8008 211.643 69.5258Z" fill="#F28F8F"/>
<path opacity="0.3" d="M211.643 69.5258L209.479 70.5808C209.665 70.8256 209.926 71.0033 210.221 71.087C210.517 71.1707 210.832 71.156 211.119 71.045C211.367 70.89 211.554 70.6546 211.65 70.3781C211.745 70.1016 211.743 69.8008 211.643 69.5258Z" fill="black"/>
<path d="M210.358 71.1173C210.609 71.1701 210.869 71.1449 211.105 71.045C211.308 70.9369 211.474 70.7706 211.581 70.5675C211.689 70.3645 211.733 70.134 211.708 69.9056C211.375 69.9 211.053 70.0216 210.806 70.2456C210.56 70.4696 210.408 70.7792 210.382 71.1113L210.358 71.1173Z" fill="#F28F8F"/>
<path d="M231.375 123.427L240.966 106.595C241.401 105.72 241.641 104.761 241.67 103.783C241.699 102.806 241.517 101.835 241.135 100.935L235.8 88.3892C234.935 86.3549 233.665 84.5176 232.068 82.9891C230.471 81.4605 228.58 80.2724 226.51 79.497L225.165 78.9906C224.4 86.5143 226.673 90.1374 233.557 103.207C233.557 103.207 229.94 115.391 227.095 120.811C224.82 121.893 222.764 123.385 221.03 125.212C220.847 125.405 220.74 125.658 220.729 125.924C220.718 126.19 220.803 126.451 220.97 126.659C221.116 126.844 221.322 126.972 221.553 127.023C221.784 127.073 222.025 127.043 222.236 126.936C223.158 126.46 224.08 125.965 225.003 125.495C224.035 127.616 222.821 129.615 221.385 131.451C221.221 131.664 221.138 131.928 221.151 132.197C221.164 132.466 221.273 132.721 221.458 132.916C221.582 133.05 221.737 133.151 221.91 133.21C222.082 133.27 222.266 133.287 222.447 133.26L225.461 132.814C226.331 132.685 227.156 132.346 227.866 131.827C228.576 131.309 229.149 130.625 229.536 129.836C230.531 127.828 231.154 125.657 231.375 123.427Z" fill="#FFA8A7"/>
<path d="M225.164 78.9906C231 80.9921 234.304 82.3244 238.934 94.888C236.619 98.4689 230.234 97.9866 230.234 97.9866C221.939 85.4653 225.164 78.9906 225.164 78.9906Z" fill="#6ED0FF"/>
<path opacity="0.3" d="M225.164 78.9906C231 80.9921 234.304 82.3244 238.934 94.888C236.619 98.4689 230.234 97.9866 230.234 97.9866C221.939 85.4653 225.164 78.9906 225.164 78.9906Z" fill="white"/>
<path d="M111.875 102.059L126.279 117.707C124.197 120.62 121.068 122.614 117.548 123.272V156.269C117.776 160.026 110.866 158.852 100.085 152.9C89.3038 146.947 88.0283 148.045 88.0283 141.516C88.0283 134.986 89.6274 109.477 89.6274 109.477C88.114 108.038 86.9498 106.273 86.2239 104.315C85.498 102.357 85.2296 100.259 85.4393 98.1818L99.2853 95.7261L111.875 102.059Z" fill="#6ED0FF"/>
<path opacity="0.15" d="M116.121 153.934V123.101C116.586 123.228 117.067 123.286 117.549 123.272V156.269C117.625 157.538 116.882 158.224 115.474 158.376C116.419 157.507 116.013 156.047 116.121 153.934Z" fill="black"/>
<path opacity="0.2" d="M111.875 102.059L126.279 117.707C124.197 120.62 121.068 122.614 117.548 123.272V156.269C117.776 160.026 110.866 158.852 100.085 152.9C89.3038 146.947 88.0283 148.045 88.0283 141.516C88.0283 134.986 89.6274 109.477 89.6274 109.477C88.114 108.038 86.9498 106.273 86.2239 104.315C85.498 102.357 85.2296 100.259 85.4393 98.1818L99.2853 95.7261L111.875 102.059Z" fill="black"/>
<path opacity="0.4" d="M111.875 102.059L126.279 117.707C124.197 120.62 121.068 122.614 117.548 123.272V156.269C117.776 160.026 110.866 158.852 100.085 152.9C89.3038 146.947 88.0283 148.045 88.0283 141.516C88.0283 134.986 89.6274 109.477 89.6274 109.477C88.114 108.038 86.9498 106.273 86.2239 104.315C85.498 102.357 85.2296 100.259 85.4393 98.1818L99.2853 95.7261L111.875 102.059Z" fill="white"/>
<path d="M100.446 96.3099L110.466 101.348C106.989 107.066 99.7737 104.451 100.446 96.3099Z" fill="#6ED0FF"/>
<path opacity="0.4" d="M100.446 96.3099L110.466 101.348C106.989 107.066 99.7737 104.451 100.446 96.3099Z" fill="black"/>
<path opacity="0.4" d="M100.446 96.3099L110.466 101.348C106.989 107.066 99.7737 104.451 100.446 96.3099Z" fill="white"/>
<path d="M110.06 102.402C110.002 102.908 109.833 103.396 109.565 103.829L100.084 98.3595C99.8476 97.716 99.6858 97.0475 99.6021 96.367L102.648 98.1374L104.336 99.1146L105.25 99.6413L110.06 102.402Z" fill="#B06D6D"/>
<path d="M104.337 99.1273V98.4102V97.4267C103.394 96.7051 102.617 95.7885 102.061 94.7393C101.505 93.6901 101.181 92.5332 101.113 91.3476C101.113 89.0061 102.782 88.0606 104.819 89.2346C106.487 90.312 107.703 91.9616 108.239 93.8732C108.41 94.4372 108.5 95.0226 108.506 95.6119C108.506 95.9037 108.29 96.018 108.043 95.8784C107.909 95.7902 107.798 95.6719 107.719 95.533C107.64 95.3941 107.594 95.2386 107.586 95.0788C107.583 94.6381 107.516 94.2 107.389 93.778C106.987 92.3384 106.07 91.0966 104.813 90.2879C103.283 89.3995 102.04 90.1166 102.033 91.8743C102.084 92.8347 102.36 93.7698 102.839 94.6034C103.319 95.437 103.989 96.1456 104.794 96.6716C104.929 96.7565 105.042 96.873 105.123 97.0112C105.204 97.1493 105.25 97.305 105.257 97.4648V99.654L104.337 99.1273Z" fill="#E0E0E0"/>
<path d="M99.2665 95.7197L100.447 96.3099C99.7741 104.451 106.97 107.066 110.466 101.348L111.875 102.059C107.56 109.737 98.1052 106.342 99.2665 95.7197Z" fill="white"/>
<path d="M51.0273 113.824L49.4155 117.219L53.2737 121.457L52.9944 131.61L40.5635 120.823C40.0084 120.338 39.6273 119.685 39.4784 118.963C39.3294 118.241 39.4208 117.49 39.7385 116.825L43.5459 108.944L51.0273 113.824Z" fill="#B06D6D"/>
<path d="M47.2007 120.258C47.2007 120.258 48.9394 118.818 49.4153 117.225L50.3798 118.285C49.6182 119.332 48.4773 120.04 47.2007 120.258Z" fill="#8C4D4D"/>
<path d="M51.3386 114.649C46.4081 114.211 43.0449 109.096 43.0449 109.096C47.4551 100.06 51.2942 90.0024 59.0167 92.401L51.3386 114.649Z" fill="white"/>
<path opacity="0.1" d="M55.7296 101.932L51.3384 114.623C49.8154 114.46 48.3566 113.922 47.0933 113.056C48.8804 108.616 51.8715 104.764 55.7296 101.932Z" fill="black"/>
<path d="M70.5971 220.95C71.0667 222.415 72.6721 223.259 74.2078 223.38C75.7434 223.5 77.26 223.069 78.7766 222.796C82.1651 222.162 85.4331 222.796 88.8153 222.714C89.9274 222.718 91.0364 222.596 92.1213 222.352C93.2099 222.098 94.1951 221.518 94.9451 220.689C95.3686 220.182 95.649 219.571 95.7573 218.919C95.8262 219.414 95.7882 219.919 95.6459 220.398C95.5036 220.877 95.2603 221.321 94.9324 221.698C94.1839 222.529 93.1981 223.109 92.1086 223.361C91.0247 223.612 89.915 223.733 88.8026 223.723C85.4204 223.799 82.1524 223.19 78.7639 223.805C77.2473 224.078 75.7307 224.509 74.1951 224.389C72.6595 224.268 71.054 223.431 70.5844 221.959C70.4415 221.451 70.4027 220.92 70.4702 220.398C70.497 220.585 70.5394 220.769 70.5971 220.95Z" fill="#6ED0FF"/>
<path d="M70.6861 218.138C70.8955 217.11 71.1049 216.089 71.3207 215.061C71.3996 214.511 71.578 213.98 71.8473 213.493C71.9841 213.251 72.1835 213.05 72.4247 212.912C72.6659 212.774 72.9399 212.703 73.218 212.707C75.0772 212.459 77.6599 211.787 79.2272 212.853C81.6683 214.521 84.5786 215.366 87.5336 215.264C89.0692 215.207 90.6048 214.889 92.1278 215.08C93.6507 215.27 95.2371 216.114 95.6876 217.58C95.8196 218.014 95.8479 218.472 95.7701 218.919C95.6618 219.571 95.3814 220.182 94.9579 220.689C94.2079 221.518 93.2227 222.098 92.1341 222.352C91.0492 222.596 89.9402 222.718 88.8281 222.714C85.4459 222.79 82.1779 222.181 78.7894 222.796C77.2728 223.069 75.7562 223.5 74.2206 223.38C72.6849 223.259 71.0795 222.415 70.61 220.95C70.5555 220.763 70.5172 220.572 70.4957 220.378C70.4424 219.626 70.5066 218.871 70.6861 218.138Z" fill="#6ED0FF"/>
<g opacity="0.5">
<path opacity="0.6" d="M70.5971 220.95C71.0667 222.415 72.6721 223.259 74.2078 223.38C75.7434 223.501 77.26 223.069 78.7766 222.796C82.1651 222.162 85.4331 222.796 88.8153 222.714C89.9274 222.718 91.0364 222.596 92.1213 222.352C93.2099 222.098 94.1951 221.518 94.9451 220.689C95.3686 220.182 95.649 219.571 95.7573 218.919C95.8262 219.414 95.7882 219.919 95.6459 220.398C95.5036 220.877 95.2603 221.321 94.9324 221.698C94.1839 222.529 93.1981 223.109 92.1086 223.361C91.0247 223.612 89.915 223.733 88.8026 223.723C85.4204 223.799 82.1524 223.19 78.7639 223.805C77.2473 224.078 75.7307 224.509 74.1951 224.389C72.6595 224.268 71.054 223.431 70.5844 221.959C70.4415 221.451 70.4027 220.92 70.4702 220.398C70.497 220.585 70.5394 220.769 70.5971 220.95Z" fill="white"/>
<path opacity="0.5" d="M70.6871 218.138C70.8965 217.11 71.1059 216.089 71.3216 215.061C71.4005 214.511 71.579 213.98 71.8483 213.493C71.985 213.251 72.1845 213.05 72.4257 212.912C72.6669 212.774 72.9409 212.703 73.2189 212.707C75.0782 212.459 77.6608 211.787 79.2282 212.853C81.6692 214.521 84.5795 215.366 87.5346 215.264C89.0702 215.207 90.6058 214.889 92.1287 215.08C93.6517 215.27 95.2381 216.114 95.6886 217.58C95.8206 218.014 95.8489 218.472 95.7711 218.919C95.6628 219.571 95.3824 220.182 94.9589 220.689C94.2089 221.518 93.2237 222.098 92.1351 222.352C91.0502 222.596 89.9412 222.718 88.8291 222.714C85.4469 222.79 82.1789 222.181 78.7904 222.796C77.2738 223.069 75.7572 223.5 74.2215 223.38C72.6859 223.259 71.0805 222.415 70.6109 220.95C70.5564 220.763 70.5182 220.572 70.4967 220.378C70.4433 219.626 70.5076 218.871 70.6871 218.138Z" fill="white"/>
</g>
<path d="M79.665 209.642L79.7982 213.658C79.8124 214.069 79.6669 214.469 79.3924 214.774C79.1178 215.079 78.7356 215.266 78.3261 215.296C76.9778 215.394 75.6237 215.382 74.2776 215.258C73.7326 215.205 73.2244 214.96 72.8449 214.565C72.4654 214.17 72.2398 213.653 72.2089 213.106L72.0503 210.143L79.665 209.642Z" fill="#B06D6D"/>
<path d="M53.4576 207.491C53.4752 208.083 53.6624 208.658 53.9969 209.147C54.4765 209.727 55.1554 210.107 55.9006 210.213C56.784 210.368 57.6933 210.272 58.5247 209.935C59.3561 209.599 60.0762 209.035 60.6027 208.309C61.1103 207.579 61.3959 206.716 61.8718 205.968C62.6006 204.977 63.4934 204.119 64.5115 203.429C65.5303 202.736 66.4266 201.878 67.164 200.891C67.5137 200.407 67.7423 199.846 67.8306 199.255C67.9189 198.665 67.8644 198.062 67.6717 197.496C67.7696 197.63 67.8546 197.772 67.9255 197.921C68.1492 198.517 68.2223 199.159 68.1381 199.79C68.054 200.421 67.8153 201.022 67.4432 201.538C66.693 202.559 65.7772 203.447 64.7336 204.166C63.6898 204.882 62.7792 205.775 62.0431 206.805C61.5609 207.579 61.2626 208.461 60.774 209.217C60.2458 209.97 59.5142 210.557 58.6648 210.91C57.8153 211.262 56.883 211.366 55.9768 211.209C55.2277 211.093 54.5489 210.701 54.0731 210.111C53.638 209.426 53.4397 208.617 53.5083 207.808C53.4449 207.656 53.4576 207.573 53.4576 207.491Z" fill="#6ED0FF"/>
<path d="M54.6764 202.452C55.8947 200.307 58.4139 198.753 60.3556 197.242C61.4164 196.317 62.7242 195.722 64.1186 195.529C64.8139 195.448 65.5178 195.574 66.1413 195.893C66.7647 196.211 67.2798 196.707 67.6213 197.319C67.6368 197.356 67.6496 197.394 67.6594 197.433C67.8522 197.998 67.9067 198.601 67.8184 199.192C67.73 199.783 67.5014 200.344 67.1517 200.828C66.4144 201.815 65.518 202.673 64.4993 203.366C63.4812 204.055 62.5884 204.914 61.8595 205.904C61.3836 206.653 61.0981 207.516 60.5904 208.246C60.0639 208.972 59.3439 209.535 58.5125 209.872C57.681 210.209 56.7718 210.305 55.8884 210.149C55.1431 210.044 54.4643 209.663 53.9847 209.083C53.6501 208.594 53.4629 208.019 53.4453 207.427C53.4453 207.23 53.4453 207.034 53.4453 206.843C53.4886 205.301 53.9115 203.793 54.6764 202.452Z" fill="#6ED0FF"/>
<g opacity="0.5">
<path opacity="0.6" d="M53.4581 207.49C53.4757 208.083 53.6629 208.658 53.9974 209.147C54.477 209.727 55.1559 210.107 55.9011 210.213C56.7845 210.368 57.6938 210.272 58.5252 209.935C59.3566 209.599 60.0766 209.035 60.6032 208.309C61.1108 207.579 61.3964 206.716 61.8723 205.968C62.6011 204.977 63.4939 204.119 64.512 203.429C65.5307 202.736 66.4271 201.878 67.1645 200.891C67.5142 200.407 67.7428 199.846 67.8311 199.255C67.9194 198.665 67.8649 198.061 67.6721 197.496C67.7701 197.63 67.8551 197.772 67.926 197.921C68.1497 198.517 68.2228 199.159 68.1386 199.79C68.0545 200.421 67.8158 201.022 67.4437 201.538C66.6935 202.559 65.7777 203.447 64.7341 204.165C63.6903 204.882 62.7797 205.775 62.0436 206.805C61.5614 207.579 61.2631 208.461 60.7745 209.216C60.2463 209.969 59.5147 210.557 58.6653 210.909C57.8158 211.262 56.8835 211.366 55.9772 211.209C55.2282 211.093 54.5494 210.701 54.0736 210.111C53.6385 209.426 53.4401 208.617 53.5088 207.808C53.4454 207.655 53.4581 207.573 53.4581 207.49Z" fill="white"/>
<path opacity="0.5" d="M54.6764 202.452C55.8947 200.307 58.4139 198.753 60.3556 197.242C61.4164 196.317 62.7242 195.722 64.1186 195.529C64.8139 195.448 65.5178 195.574 66.1413 195.893C66.7647 196.211 67.2798 196.707 67.6213 197.319C67.6368 197.356 67.6496 197.394 67.6594 197.433C67.8522 197.998 67.9067 198.601 67.8184 199.192C67.73 199.783 67.5014 200.344 67.1517 200.828C66.4144 201.815 65.518 202.673 64.4993 203.366C63.4812 204.055 62.5884 204.914 61.8595 205.904C61.3836 206.653 61.0981 207.516 60.5904 208.246C60.0639 208.972 59.3439 209.535 58.5125 209.872C57.681 210.209 56.7718 210.305 55.8884 210.149C55.1431 210.044 54.4643 209.663 53.9847 209.083C53.6501 208.594 53.4629 208.019 53.4453 207.427C53.4453 207.23 53.4453 207.034 53.4453 206.843C53.4886 205.301 53.9115 203.793 54.6764 202.452Z" fill="white"/>
</g>
<path d="M59.9682 200.593V204.242C59.072 204.662 58.0872 204.859 57.0982 204.816C56.1091 204.773 55.1453 204.491 54.289 203.994L53.9463 200.707L59.9682 200.593Z" fill="#B06D6D"/>
<path d="M52.9886 134.409C51.8972 137.696 53.2424 153.287 53.8833 168.243C51.5101 173.897 52.151 189.945 53.5153 201.348C53.5153 201.348 55.8885 202.808 60.1718 201.348L65.5529 169.887L66.3016 152.119C66.3016 152.119 67.6532 167.901 69.2016 178.022C67.7421 185.77 68.1101 187.229 71.708 211.076C72.9607 211.704 74.3426 212.031 75.7438 212.031C77.1451 212.031 78.527 211.704 79.7796 211.076C81.8165 177.578 81.0487 147.049 80.6807 136.071L52.9886 134.409Z" fill="#455A64"/>
<path opacity="0.3" d="M52.9886 134.409C51.8972 137.696 53.2424 153.287 53.8833 168.243C51.5101 173.897 52.151 189.945 53.5153 201.348C53.5153 201.348 55.8885 202.808 60.1718 201.348L65.5529 169.887L66.3016 152.119C66.3016 152.119 67.6532 167.901 69.2016 178.022C67.7421 185.77 68.1101 187.229 71.708 211.076C72.9607 211.704 74.3426 212.031 75.7438 212.031C77.1451 212.031 78.527 211.704 79.7796 211.076C81.8165 177.578 81.0487 147.049 80.6807 136.071L52.9886 134.409Z" fill="black"/>
<path opacity="0.2" d="M52.9886 134.409C51.8972 137.696 53.2424 153.287 53.8833 168.243C51.5101 173.897 52.151 189.945 53.5153 201.348C53.5153 201.348 55.8885 202.808 60.1718 201.348L65.5529 169.887L66.3016 152.119C66.3016 152.119 67.6532 167.901 69.2016 178.022C67.7421 185.77 68.1101 187.229 71.708 211.076C72.9607 211.704 74.3426 212.031 75.7438 212.031C77.1451 212.031 78.527 211.704 79.7796 211.076C81.8165 177.578 81.0487 147.049 80.6807 136.071L52.9886 134.409Z" fill="white"/>
<path opacity="0.3" d="M65.8441 162.932L66.4787 148.426C62.7285 148.426 59.2511 145.628 56.605 142.969C59.1432 147.493 64.0737 149.505 64.0737 149.505L65.8441 162.932Z" fill="black"/>
<path d="M81.2514 108.538V136.941C64.5308 143.921 53.6926 137.62 52.2204 134.326C52.9945 122.765 50.2596 109.236 50.469 103.493C50.6784 97.7504 51.3828 91.2715 60.2919 92.5724L69.7659 93.5179L74.5758 94.6918L81.2514 108.538Z" fill="white"/>
<path opacity="0.1" d="M81.2517 112.193L74.4048 104.654C75.5153 109.834 77.8646 114.668 81.2517 118.741V112.193Z" fill="black"/>
<path d="M90.1288 106.996L93.3015 110.315L100.954 100.162C99.922 97.4658 99.2913 94.6329 99.0824 91.7537C99.0763 91.6312 99.0953 91.5087 99.1383 91.3938C99.1813 91.2788 99.2473 91.1739 99.3322 91.0854C99.4172 90.9968 99.5193 90.9266 99.6324 90.8789C99.7455 90.8313 99.8671 90.8072 99.9898 90.8082C100.161 90.8073 100.329 90.8552 100.474 90.9462C100.619 91.0372 100.735 91.1677 100.808 91.3222L102.223 94.3047C102.427 94.2374 102.613 94.1239 102.766 93.9731C102.919 93.8224 103.035 93.6383 103.105 93.4353L103.385 92.6485C103.569 92.1223 103.664 91.5688 103.664 91.0113V89.0759C103.665 88.8027 103.737 88.5345 103.873 88.2977C104.01 88.0608 104.205 87.8636 104.441 87.7253C104.677 87.587 104.944 87.5124 105.217 87.5089C105.491 87.5054 105.76 87.5731 105.999 87.7053C106.888 88.1824 107.675 88.8292 108.315 89.6089C108.928 90.3569 109.262 91.2944 109.261 92.2614V94.9138C109.259 95.5931 109.141 96.267 108.912 96.9063L107.528 100.714C107.402 101.06 107.243 101.394 107.052 101.71L97.1977 118.266C96.8434 118.86 96.3624 119.368 95.7889 119.755C95.2154 120.142 94.5636 120.398 93.88 120.504C93.1963 120.61 92.4977 120.564 91.8339 120.369C91.1702 120.174 90.5576 119.835 90.0399 119.376L83.7515 113.792L90.1288 106.996Z" fill="#B06D6D"/>
<path d="M95.2811 114.395C95.2811 114.395 94.7544 111.806 93.3203 110.315L94.2024 109.147C94.8686 110.378 95.8014 112.764 95.2811 114.395Z" fill="#B06D6D"/>
<path d="M95.2811 114.395C95.2811 114.395 94.7544 111.806 93.3203 110.315L94.2024 109.147C94.8686 110.378 95.8014 112.764 95.2811 114.395Z" fill="#8C4D4D"/>
<path d="M90.9158 107.015L81.9368 98.1819C79.9379 96.2153 77.3416 94.9696 74.5569 94.641H74.3919C70.5845 102.973 75.6166 107.034 75.6166 107.034L83.9673 114.706C87.1203 113.045 89.5822 110.32 90.9158 107.015Z" fill="white"/>
<path d="M74.3091 73.9861C74.4864 73.7878 74.5999 73.5408 74.635 73.2772C74.6701 73.0135 74.6251 72.7454 74.5058 72.5076C74.7422 72.5765 74.9905 72.5946 75.2344 72.5607C75.4783 72.5268 75.7122 72.4417 75.9209 72.3109C76.1263 72.1867 76.2939 72.0087 76.4057 71.7963C76.5175 71.5838 76.5693 71.3449 76.5554 71.1053C76.5295 70.8667 76.426 70.6433 76.261 70.4691C76.096 70.2949 75.8784 70.1795 75.6417 70.1407C76.0835 70.0455 76.4706 69.7813 76.7204 69.4046C76.9945 69.0418 77.1173 68.587 77.0631 68.1355C76.9829 67.7255 76.793 67.3449 76.5137 67.0343C76.2343 66.7236 75.8759 66.4945 75.4767 66.3715C74.6742 66.143 73.8307 66.0974 73.0082 66.2382C73.1401 65.7888 73.1078 65.3071 72.9172 64.8793C72.7265 64.4515 72.3899 64.1055 71.9676 63.903C71.5889 63.7725 71.1839 63.7377 70.7886 63.802C70.3932 63.8662 70.02 64.0274 69.7022 64.2711C69.0714 64.7669 68.5287 65.3654 68.0968 66.0415C67.193 65.5664 66.1992 65.2869 65.1803 65.2213C64.1613 65.1557 63.14 65.3055 62.1827 65.6608C61.2335 66.0506 60.3759 66.6339 59.6647 67.3736C58.9535 68.1132 58.4041 68.993 58.0517 69.9567C57.3017 70.2053 56.6239 70.6336 56.0775 71.2044C55.5311 71.7751 55.1327 72.4709 54.917 73.231C54.5299 74.7533 54.623 76.358 55.1835 77.8252C55.7448 79.2799 56.4663 80.6675 57.3347 81.9625C57.7218 82.5971 58.1215 83.2316 58.515 83.8662C59.0163 84.653 60.2854 86.6011 60.7803 87.388C61.8883 87.9005 63.1064 88.1295 64.3249 88.0541C65.5434 87.9788 66.724 87.6016 67.7605 86.9565C69.7987 85.6021 71.3698 83.6521 72.2595 81.3724C73.1883 78.9852 73.875 76.5107 74.3091 73.9861Z" fill="#263238"/>
<path d="M63.782 88.1812C62.7174 88.1886 61.6658 87.9474 60.7108 87.4768C60.4633 87.0834 60.0254 86.4044 59.5813 85.7191L58.4454 83.955C58.052 83.3205 57.6522 82.6859 57.2651 82.0514C56.3887 80.7511 55.6648 79.3544 55.1076 77.8887C54.5431 76.4004 54.4479 74.775 54.8348 73.231C55.0514 72.4589 55.4539 71.7516 56.007 71.1709C56.56 70.5901 57.2469 70.1537 58.0075 69.8996C58.3664 68.932 58.9223 68.0494 59.6399 67.3078C60.3575 66.5661 61.2213 65.9815 62.1766 65.591C63.1322 65.2307 64.1527 65.0745 65.1724 65.1324C66.1921 65.1904 67.1883 65.4611 68.097 65.9273C68.5253 65.2728 69.0593 64.6938 69.6771 64.214C70.0098 63.9583 70.4008 63.7891 70.8149 63.7216C71.2291 63.654 71.6535 63.6902 72.0503 63.8269C72.4709 64.032 72.812 64.3702 73.0208 64.789C73.2296 65.2077 73.2944 65.6837 73.2052 66.143C73.9898 66.0195 74.7922 66.0737 75.553 66.3017C75.9623 66.4333 76.3283 66.6732 76.6121 66.9961C76.8959 67.319 77.0869 67.7128 77.1648 68.1355C77.2238 68.6139 77.0941 69.0965 76.8031 69.4808C76.5984 69.7647 76.3286 69.9953 76.0163 70.1534C76.1917 70.2466 76.3415 70.3816 76.4522 70.5465C76.5629 70.7115 76.6311 70.9012 76.6508 71.0989C76.671 71.3579 76.6196 71.6175 76.502 71.8492C76.3845 72.0809 76.2055 72.2758 75.9846 72.4125C75.6049 72.6449 75.1559 72.7369 74.7154 72.6726C74.8049 72.904 74.8274 73.1559 74.7802 73.3995C74.7331 73.643 74.6182 73.8683 74.4489 74.0496C74.0106 76.5649 73.324 79.0306 72.3993 81.4105C71.5046 83.7138 69.9171 85.6826 67.8559 87.0453C66.6285 87.792 65.2187 88.185 63.782 88.1812ZM60.844 87.2865C61.9344 87.7909 63.1335 88.0151 64.3325 87.9386C65.5315 87.8622 66.6924 87.4875 67.7099 86.8486C69.7172 85.4971 71.2663 83.5674 72.1518 81.3153C73.0725 78.9394 73.7549 76.4779 74.1887 73.9671V73.9291C74.3511 73.7477 74.4544 73.5213 74.485 73.2799C74.5156 73.0385 74.472 72.7935 74.3601 72.5774L74.2459 72.3363L74.4997 72.4251C74.7189 72.4911 74.9499 72.5088 75.1766 72.477C75.4033 72.4452 75.6205 72.3648 75.8132 72.2411C76.001 72.1282 76.1535 71.9649 76.2533 71.7697C76.3531 71.5746 76.3963 71.3554 76.378 71.137C76.3555 70.9248 76.2638 70.7259 76.117 70.571C75.9702 70.4162 75.7764 70.314 75.5657 70.2803L74.7408 70.1788L75.5594 70.0582C75.9711 69.9598 76.331 69.7108 76.5683 69.3602C76.8227 69.0251 76.9365 68.604 76.8856 68.1863C76.8086 67.7975 76.6274 67.4368 76.3614 67.1429C76.0954 66.849 75.7546 66.6328 75.3754 66.5174C74.5895 66.2927 73.7628 66.2493 72.9577 66.3905H72.78L72.8435 66.2192C72.9579 65.7966 72.9231 65.3476 72.7451 64.9477C72.5671 64.5478 72.2567 64.2214 71.8663 64.0236C71.5039 63.9023 71.1174 63.8712 70.7403 63.9332C70.3632 63.9951 70.0069 64.1481 69.7024 64.379C69.0829 64.8693 68.549 65.459 68.1224 66.124L68.0653 66.2001L67.9828 66.1557C67.0928 65.6867 66.1136 65.4114 65.1096 65.3479C64.1056 65.2845 63.0995 65.4344 62.1576 65.7877C61.2264 66.1759 60.3868 66.7547 59.6928 67.4869C58.9988 68.2192 58.4658 69.0886 58.1281 70.0392V70.0963H58.071C57.3424 70.338 56.6834 70.753 56.1506 71.3057C55.6178 71.8583 55.2272 72.5321 55.0124 73.2691C54.6371 74.7691 54.7302 76.348 55.279 77.7935C55.8364 79.2415 56.5537 80.6228 57.4174 81.9118C57.8045 82.5463 58.2043 83.1809 58.5977 83.8154L59.7272 85.5732C60.1587 86.2204 60.5902 86.893 60.844 87.2865Z" fill="#272525"/>
<path d="M75.3945 78.8532L76.8921 81.4549L75.4136 82.0006C75.4612 80.9519 75.4548 79.9014 75.3945 78.8532Z" fill="#8C4D4D"/>
<path d="M74.3089 73.9862C74.8639 75.5593 75.2282 77.1933 75.394 78.8532C75.4488 79.9101 75.4488 80.9691 75.394 82.026C75.3312 83.5025 75.1594 84.9723 74.88 86.4235C74.7806 87.221 74.4816 87.9805 74.0107 88.6317C73.3891 89.2987 72.5294 89.6932 71.6184 89.7295C70.7143 89.7652 69.8094 89.6798 68.9279 89.4757V93.7399C65.6916 94.5014 63.0138 94.8377 60.4756 92.8833L60.7421 87.4007C62.2989 87.617 63.8849 87.3652 65.2982 86.6773C67.5382 85.4716 68.1601 83.5489 67.8364 82.4702C67.6384 82.7355 67.367 82.937 67.0558 83.0498C66.7445 83.1625 66.4071 83.1816 66.0851 83.1047C65.7785 83.0197 65.4924 82.8735 65.2437 82.675C64.9951 82.4766 64.7892 82.2299 64.6383 81.9499C64.3372 81.3873 64.1516 80.7703 64.0925 80.135C63.9357 79.3686 64.0525 78.5715 64.4225 77.8823C64.7092 77.4996 65.1056 77.2132 65.559 77.0613C66.0124 76.9094 66.5014 76.8992 66.9608 77.032C67.4159 77.1746 67.8384 77.4055 68.2043 77.7114C68.5701 78.0174 68.872 78.3924 69.0929 78.8151C69.2368 79.0766 69.3619 79.3481 69.4672 79.6274C69.5031 79.7383 69.5764 79.8333 69.6747 79.8959C69.773 79.9586 69.89 79.9851 70.0057 79.9708C70.1214 79.9566 70.2284 79.9024 70.3085 79.8177C70.3886 79.7331 70.4367 79.6231 70.4445 79.5068C70.5632 78.2803 70.3438 77.0448 69.8099 75.9342C70.1832 76.1175 70.5934 76.213 71.0092 76.2135C71.2268 76.2125 71.4417 76.1644 71.6389 76.0724C71.8361 75.9803 72.0109 75.8466 72.1514 75.6804C72.2873 75.5096 72.365 75.2998 72.3729 75.0817C72.3809 74.8636 72.3189 74.6487 72.1959 74.4684C73.2936 74.9634 74.3089 73.9862 74.3089 73.9862Z" fill="#B06D6D"/>
<path d="M108.258 93.8732C107.722 91.9617 106.505 90.312 104.838 89.2346C103.759 88.6 102.782 88.6 102.103 89.0506C102.2 89.4895 102.381 89.9055 102.636 90.2753C103.15 89.812 103.937 89.7676 104.832 90.2753C106.089 91.0839 107.005 92.3258 107.408 93.7653C107.535 94.1873 107.601 94.6254 107.605 95.0662C107.613 95.2259 107.659 95.3814 107.738 95.5203C107.817 95.6592 107.928 95.7775 108.062 95.8657C108.309 96.0053 108.525 95.8657 108.525 95.5992C108.514 95.0145 108.425 94.4339 108.258 93.8732Z" fill="#E0E0E0"/>
<path d="M61.6373 141.088C61.1423 152.243 62.1386 161.698 67.5387 163.97C72.9387 166.241 80.9024 163.545 83.8848 162.701C86.8673 161.857 92.4831 158.938 93.8347 156.945C94.3296 151.475 92.4831 146.075 91.2076 144.298C89.9322 142.522 61.6373 141.088 61.6373 141.088Z" fill="#6ED0FF"/>
<path opacity="0.3" d="M65.4829 140.091C60.2605 121.784 55.495 95.2155 59.4673 92.8867C59.0077 92.5098 58.4412 92.2868 57.848 92.2492C57.2548 92.2116 56.6648 92.3614 56.1613 92.6773L55.9582 92.8105C50.9135 98.6231 62.1515 141.392 62.1515 141.392L65.4829 140.091Z" fill="black"/>
<path opacity="0.2" d="M61.6373 141.088C61.1423 152.243 62.1386 161.698 67.5387 163.97C72.9387 166.241 80.9024 163.545 83.8848 162.701C86.8673 161.857 92.4831 158.938 93.8347 156.945C94.3296 151.475 92.4831 146.075 91.2076 144.298C89.9322 142.522 61.6373 141.088 61.6373 141.088Z" fill="black"/>
<path d="M82.2294 134.196C75.8331 135.408 67.7425 137.858 61.6127 141.088C62.8437 143.861 64.5634 146.684 65.7944 149.457C66.1629 150.483 66.7496 151.416 67.5141 152.192C68.9228 153.417 70.9978 153.423 72.857 153.239C78.0752 152.711 83.147 151.204 87.8072 148.797C89.3999 147.973 91.0561 146.894 91.6145 145.193C92.0524 143.778 91.6145 142.249 91.0561 140.878C90.6944 139.983 90.2756 139.013 89.787 138.042C89.1318 136.654 88.0339 135.523 86.6659 134.827C85.2978 134.13 83.7372 133.909 82.2294 134.196Z" fill="#6ED0FF"/>
<path d="M68.126 31.5544C69.3427 31.3224 70.5865 31.2668 71.8191 31.3894C72.997 31.4927 74.1468 31.8065 75.214 32.3158C76.2378 32.8046 77.143 33.5105 77.8664 34.3845C78.6292 35.3199 79.1365 36.4371 79.3386 37.6271C79.5288 38.5609 79.5288 39.5234 79.3386 40.4572C79.168 41.27 78.8771 42.0527 78.4756 42.7797C78.0858 43.4871 77.6335 44.1582 77.124 44.7849C76.6163 45.4194 76.1341 46.0032 75.6835 46.568C75.2526 47.0995 74.8704 47.6687 74.5413 48.2686C74.2389 48.8013 74.0916 49.4079 74.1162 50.02C74.1199 50.3045 74.0476 50.5849 73.9068 50.8322C73.8403 50.9491 73.7491 51.05 73.6395 51.1279C73.5298 51.2057 73.4045 51.2586 73.2722 51.2827L70.2834 51.8475C70.1415 51.8757 69.9953 51.8751 69.8536 51.8457C69.7118 51.8163 69.5775 51.7586 69.4585 51.6762C69.3347 51.6053 69.2301 51.5052 69.1538 51.3846C69.0775 51.2641 69.0318 51.1267 69.0207 50.9845C68.875 50.0456 68.9225 49.0869 69.1603 48.1671C69.3859 47.3475 69.7165 46.5604 70.1438 45.8256C70.557 45.1257 71.0305 44.4632 71.5589 43.8457C72.0856 43.2112 72.5615 42.6401 72.9993 42.0817C73.4019 41.5802 73.7507 41.0378 74.04 40.4635C74.2889 39.9652 74.3669 39.3988 74.2621 38.8518C74.1778 38.3696 73.9771 37.9153 73.6775 37.5282C73.3778 37.1412 72.9882 36.8331 72.5425 36.6308C71.4368 36.1284 70.195 36.01 69.0143 36.2945C66.7892 36.7175 65.3614 38.1432 64.7311 40.5714C64.6756 40.8274 64.5769 41.072 64.4392 41.2948C64.2632 41.4982 64.0153 41.6255 63.7475 41.6502L60.5747 42.253C60.3556 42.292 60.1297 42.2491 59.9402 42.1324C59.8405 42.0666 59.7557 41.9807 59.6913 41.8801C59.6268 41.7796 59.584 41.6667 59.5658 41.5486C59.4287 40.5477 59.5376 39.5283 59.8831 38.5789C60.2423 37.4823 60.7922 36.4576 61.5075 35.5521C62.3096 34.5605 63.265 33.7036 64.3376 33.0139C65.4937 32.286 66.7804 31.7903 68.126 31.5544ZM73.9195 53.6052C74.2016 53.5564 74.4917 53.6192 74.7285 53.7802C74.9653 53.9412 75.1302 54.1879 75.1886 54.4682L75.8231 57.9329C75.8521 58.0718 75.8518 58.2151 75.8223 58.3539C75.7928 58.4926 75.7347 58.6237 75.6518 58.7388C75.5738 58.8568 75.473 58.9581 75.3553 59.0365C75.2376 59.115 75.1054 59.1691 74.9665 59.1957L71.5843 59.8302C71.4444 59.8593 71.3 59.8591 71.1602 59.8296C71.0204 59.8001 70.8883 59.742 70.7721 59.6589C70.654 59.5809 70.5528 59.4801 70.4743 59.3624C70.3958 59.2447 70.3417 59.1125 70.3152 58.9736L69.6806 55.5089C69.6541 55.3695 69.6562 55.2262 69.6867 55.0877C69.7173 54.9492 69.7756 54.8183 69.8583 54.703C69.9343 54.5832 70.0345 54.4806 70.1525 54.4019C70.2706 54.3232 70.4038 54.2702 70.5436 54.2461L73.9195 53.6052Z" fill="#2195CD"/>
<path d="M43.038 47.2543C43.7673 46.8068 44.5578 46.4676 45.3847 46.2475C46.1699 46.0231 46.9896 45.945 47.803 46.0172C48.5815 46.0855 49.3361 46.3203 50.0159 46.7057C50.7407 47.1159 51.3456 47.7087 51.7703 48.4252C52.1214 48.9805 52.3614 49.5986 52.4769 50.2453C52.5606 50.8133 52.5611 51.3905 52.4786 51.9588C52.3998 52.5118 52.2724 53.0569 52.098 53.5876L51.6019 55.0856C51.4513 55.5339 51.3442 55.9957 51.2823 56.4646C51.2157 56.8804 51.2681 57.3067 51.4334 57.694C51.5058 57.8782 51.5261 58.0788 51.4922 58.2738C51.4777 58.3662 51.4429 58.4543 51.3904 58.5317C51.3378 58.6092 51.2688 58.674 51.1883 58.7216L49.3914 59.813C49.2188 59.9203 49.0106 59.9547 48.8126 59.9088C48.7166 59.8904 48.6261 59.8501 48.5483 59.7909C48.4704 59.7318 48.4073 59.6555 48.3638 59.5679C48.0414 58.9978 47.8392 58.3678 47.7696 57.7166C47.7133 57.1302 47.7336 56.539 47.8299 55.9579C47.9265 55.403 48.069 54.857 48.2561 54.3257C48.4447 53.7982 48.6145 53.3038 48.7633 52.834C48.8981 52.4103 48.9905 51.9743 49.0392 51.5323C49.0772 51.1486 48.9911 50.7628 48.7936 50.4317C48.6191 50.1418 48.377 49.8984 48.088 49.7225C47.799 49.5466 47.4716 49.4434 47.134 49.4216C46.2977 49.3656 45.4669 49.5918 44.7744 50.0641C44.1302 50.4439 43.6188 51.0131 43.3099 51.6941C43.0009 52.3751 42.9095 53.1348 43.048 53.8697C43.0786 54.0494 43.076 54.2332 43.0406 54.4121C42.9775 54.5851 42.8503 54.7272 42.6852 54.809L40.7738 55.9741C40.6381 56.0563 40.4765 56.0846 40.3209 56.0536C40.2401 56.0363 40.1638 56.0021 40.0972 55.9532C40.0307 55.9042 39.9752 55.8417 39.9346 55.7698C39.603 55.1572 39.4241 54.4737 39.4128 53.7772C39.3897 52.9786 39.5088 52.1822 39.7645 51.4252C40.0403 50.5943 40.4491 49.8136 40.9751 49.1137C41.5368 48.367 42.2372 47.7357 43.038 47.2543ZM52.1539 60.0831C52.2378 60.0315 52.3312 59.9972 52.4286 59.9821C52.5259 59.9671 52.6253 59.9715 52.7209 59.9952C52.8162 60.0167 52.9061 60.0573 52.9853 60.1146C53.0644 60.1718 53.1312 60.2444 53.1815 60.3282L54.449 62.4067C54.5523 62.5756 54.5845 62.7785 54.5386 62.9711C54.4926 63.1636 54.3723 63.3302 54.2039 63.4343L52.1725 64.6701C52.09 64.7239 51.9969 64.7591 51.8996 64.7733C51.8022 64.7875 51.7029 64.7804 51.6085 64.7525C51.5128 64.733 51.4221 64.6939 51.3423 64.6375C51.2624 64.5812 51.1952 64.5088 51.1449 64.425L49.8773 62.3465C49.8268 62.2627 49.7935 62.1697 49.7794 62.0728C49.7652 61.976 49.7705 61.8773 49.795 61.7826C49.8151 61.6868 49.8551 61.5962 49.9125 61.5169C49.9698 61.4375 50.0432 61.3711 50.1279 61.322L52.1539 60.0831Z" fill="#6ED0FF"/>
<path d="M87.8585 63.7096C87.9428 63.7896 88.0102 63.8858 88.0565 63.9925C88.1028 64.0991 88.127 64.214 88.1278 64.3303C88.1327 64.4493 88.1136 64.5681 88.0717 64.6795C88.0298 64.791 87.9659 64.8929 87.8839 64.9792L85.875 67.0472C85.7931 67.1322 85.6952 67.2002 85.5869 67.2472C85.4786 67.2943 85.3621 67.3194 85.244 67.3212C85.126 67.3229 85.0087 67.3013 84.8991 67.2576C84.7894 67.2138 84.6895 67.1488 84.6051 67.0663L82.5906 65.1053C82.5055 65.0234 82.4375 64.9255 82.3905 64.8172C82.3435 64.7089 82.3184 64.5924 82.3166 64.4743C82.3148 64.3563 82.3365 64.239 82.3802 64.1294C82.424 64.0197 82.489 63.9198 82.5715 63.8354L84.5803 61.7674C84.6618 61.6816 84.7596 61.6129 84.8679 61.5654C84.9763 61.5179 85.093 61.4925 85.2113 61.4907C85.3296 61.489 85.4471 61.5108 85.5568 61.5551C85.6665 61.5993 85.7663 61.665 85.8503 61.7483L87.8585 63.7096ZM99.8792 49.4479C100.612 50.1507 101.241 50.9551 101.746 51.8364C102.228 52.6732 102.558 53.5889 102.721 54.5409C102.873 55.4551 102.829 56.3911 102.592 57.2871C102.324 58.2399 101.814 59.1067 101.11 59.8027C100.583 60.3816 99.9454 60.8489 99.2346 61.1769C98.61 61.4444 97.9492 61.6178 97.2738 61.6916C96.6163 61.764 95.9537 61.7793 95.2935 61.737C94.6554 61.6895 94.0176 61.6484 93.4245 61.6111C92.8659 61.5729 92.3051 61.5846 91.7487 61.6461C91.2482 61.6948 90.7717 61.8841 90.3742 62.1921C90.1916 62.3253 89.9767 62.4073 89.7518 62.4297C89.641 62.4413 89.5291 62.4274 89.4245 62.3891C89.32 62.3508 89.2256 62.2891 89.1486 62.2087L87.3564 60.477C87.19 60.3126 87.0935 60.0902 87.0871 59.8563C87.0765 59.7407 87.0938 59.6243 87.1377 59.5168C87.1816 59.4093 87.2506 59.3139 87.3391 59.2387C87.9006 58.6993 88.5647 58.2781 89.2919 58C89.9459 57.765 90.6278 57.6164 91.3203 57.5579C91.9886 57.5013 92.6606 57.5026 93.3287 57.5618C93.9676 57.6219 94.6053 57.6631 95.1791 57.6951C95.7065 57.723 96.2355 57.6939 96.7567 57.6082C97.2061 57.5421 97.6211 57.3293 97.9373 57.0031C98.2194 56.7189 98.4281 56.3702 98.5454 55.9873C98.6627 55.6044 98.6851 55.1988 98.6107 54.8053C98.4304 53.8346 97.935 52.9504 97.2012 52.2899C95.8592 50.9995 94.2314 50.7142 92.3178 51.4338C92.1191 51.5201 91.9067 51.5706 91.6905 51.5828C91.583 51.5729 91.4785 51.5419 91.383 51.4916C91.2875 51.4412 91.2029 51.3724 91.1341 51.2893L89.2277 49.4432C89.0889 49.3144 89.0061 49.1365 88.997 48.9474C88.9933 48.8506 89.0104 48.754 89.0471 48.6643C89.0838 48.5746 89.1393 48.4938 89.2099 48.4273C89.8034 47.8544 90.5292 47.4368 91.3228 47.2116C92.2305 46.946 93.1783 46.8443 94.1216 46.9114C95.1558 46.9849 96.1712 47.2252 97.1287 47.6229C98.1558 48.046 99.0902 48.666 99.8792 49.4479Z" fill="#6ED0FF"/>
<path d="M63.2445 5.33195L41.532 17.7833C40.8885 18.1574 40.3538 18.693 39.9808 19.3372C39.6078 19.9813 39.4094 20.7117 39.4053 21.4561V37.2936C39.4234 38.0318 39.6365 38.7521 40.023 39.3814C40.4095 40.0106 40.9555 40.5264 41.6058 40.8764C42.256 41.2264 42.9873 41.3982 43.7253 41.3742C44.4634 41.3503 45.182 41.1315 45.8082 40.7401L49.579 38.5832L49.9184 39.1338L49.9712 39.1866C50.5896 39.6013 51.6831 40.1821 51.932 40.3103C51.989 40.3274 52.0504 40.3221 52.1037 40.2954C52.157 40.2688 52.1981 40.2229 52.2186 40.167L53.6063 36.2302L67.4603 28.3114C68.1089 27.9405 68.6479 27.4048 69.0227 26.7585C69.3975 26.1122 69.5948 25.3782 69.5946 24.6311V8.79358C69.6399 5.71658 65.145 4.2384 63.2445 5.33195Z" fill="#6ED0FF"/>
<path opacity="0.4" d="M44.1721 21.7804C44.4433 21.2301 44.829 20.7441 45.3033 20.355C45.4638 20.2223 45.6354 20.1037 45.8162 20.0005L67.5211 7.5492C67.7354 7.42634 67.9783 7.36194 68.2253 7.36243C68.4724 7.36293 68.7149 7.4283 68.9288 7.55202C69.1426 7.67573 69.3202 7.85345 69.4437 8.06737C69.5673 8.28129 69.6325 8.52392 69.6328 8.77096C69.6328 5.71658 65.1078 4.24595 63.2374 5.33195L41.5249 17.7833C40.8649 18.1642 40.3203 18.7167 39.9487 19.3821L44.1721 21.7804Z" fill="white"/>
<path opacity="0.2" d="M43.689 39.4959V23.6584C43.69 23.4893 43.7026 23.3205 43.7267 23.1531C43.7944 22.6661 43.9449 22.1942 44.1716 21.7579L39.9558 19.3596C39.5958 19.9916 39.4061 20.7063 39.4053 21.4336V37.2711C39.4234 38.0094 39.6365 38.7296 40.023 39.3589C40.4095 39.9881 40.9555 40.5039 41.6058 40.854C42.256 41.204 42.9873 41.3757 43.7253 41.3518C44.4634 41.3278 45.182 41.1091 45.8082 40.7177C45.5933 40.84 45.3501 40.904 45.1029 40.9033C44.8556 40.9026 44.6128 40.8373 44.3986 40.7138C44.1844 40.5903 44.0062 40.4129 43.8817 40.1993C43.7572 39.9857 43.6908 39.7432 43.689 39.4959Z" fill="white"/>
<path d="M52.1851 41.1829L48.6997 39.0529L54.3151 35.9548L52.1851 41.1829Z" fill="#6ED0FF"/>
<path d="M49.2526 30.2117L48.7345 30.4613L47.0979 27.856L47.1778 31.27L46.6586 31.5495L46.5332 26.9668L47.0513 26.7172L48.7178 29.3237L48.6079 25.9085L49.1261 25.6589L49.2526 30.2117Z" fill="white"/>
<path d="M50.3875 29.4768C50.1807 29.4091 50.0358 29.2839 49.9254 29.0404C49.8138 28.8267 49.7355 28.5245 49.7203 28.135C49.7041 27.7753 49.7475 27.4179 49.8508 27.0628C49.954 26.7076 50.1147 26.4145 50.3031 26.1823C50.4914 25.9501 50.7085 25.7489 50.9532 25.6085C51.1967 25.4981 51.4081 25.4463 51.615 25.5139C51.8219 25.5816 51.9667 25.7068 52.1071 25.9515C52.2186 26.1652 52.2969 26.4674 52.3121 26.8569C52.3284 27.2166 52.2849 27.574 52.1817 27.9291C52.0784 28.2843 51.9177 28.5774 51.7282 28.8395C51.5388 29.1016 51.3228 29.2729 51.0781 29.4132C50.8058 29.4927 50.5956 29.5146 50.3875 29.4768ZM51.3856 28.4076C51.5107 28.2627 51.5784 28.0558 51.6461 27.849C51.7138 27.6421 51.7539 27.3743 51.7331 27.1342C51.7123 26.894 51.6915 26.6538 51.6064 26.5309C51.5224 26.3781 51.4362 26.2851 51.3178 26.2507C51.1994 26.2163 51.0787 26.2416 50.9271 26.2957C50.8053 26.3509 50.6813 26.4659 50.5561 26.6108C50.4309 26.7556 50.3644 26.9326 50.2955 27.1694C50.2278 27.3763 50.2188 27.6153 50.2086 27.8842C50.2237 28.2737 50.3032 28.5461 50.448 28.6712C50.5917 28.8263 50.771 28.8331 50.9847 28.7215C51.1363 28.6674 51.2604 28.5524 51.3856 28.4076Z" fill="white"/>
<path d="M53.9661 24.2567C54.1014 23.8429 54.2954 23.4613 54.5171 23.1406C54.7685 22.821 55.0166 22.591 55.3222 22.4231C55.6577 22.2563 55.9587 22.2079 56.2231 22.3376C56.4886 22.4374 56.6887 22.6844 56.8245 23.0486L56.2144 23.3546C56.1327 23.142 56.0166 23.0479 55.8695 22.9824C55.7224 22.917 55.5408 22.97 55.3582 23.0528C55.1445 23.1644 54.9584 23.3369 54.8011 23.5403C54.6426 23.7737 54.5141 24.0082 54.4418 24.3346C54.3696 24.661 54.3284 24.9586 54.316 25.2873C54.3334 25.6171 54.3829 25.8882 54.4945 26.1019C54.6061 26.3156 54.7211 26.4396 54.8981 26.5062C55.0751 26.5727 55.2555 26.5497 55.4691 26.4381C55.6518 26.3552 55.8379 26.1828 55.9642 26.008C56.0916 25.8034 56.2202 25.5689 56.2902 25.3023L56.9002 24.9963C56.7913 25.5008 56.6249 25.9433 56.3723 26.2928C56.1185 26.6722 55.8095 26.9297 55.4741 27.0965C55.1696 27.2346 54.8985 27.2841 54.6617 27.2153C54.425 27.1465 54.1927 26.9582 54.0535 26.6836C53.9144 26.409 53.8084 26.046 53.7956 25.5967C53.7827 25.1474 53.8296 24.7003 53.9661 24.2567Z" fill="white"/>
<path d="M57.4463 23.2218C57.5484 22.8965 57.6793 22.6022 57.8687 22.3401C58.0571 22.1079 58.2443 21.9056 58.458 21.794C58.6418 21.6813 58.8222 21.6582 58.9704 21.6937C59.1187 21.7293 59.2348 21.8235 59.3199 21.9464L59.3104 21.4074L59.8297 21.1279L59.9316 24.7522L59.4123 25.0317L59.4028 24.4928C59.3351 24.6997 59.2077 24.9043 59.0504 25.1078C58.8931 25.3112 58.738 25.455 58.5255 25.5367C58.3118 25.6483 58.1015 25.6702 57.9245 25.6036C57.7475 25.5371 57.6038 25.382 57.4933 25.1385C57.3829 24.8949 57.3046 24.5927 57.3182 24.2342C57.3008 23.9044 57.3442 23.547 57.4463 23.2218ZM59.2341 22.6313C59.1501 22.4785 59.0639 22.3855 58.9455 22.3511C58.8271 22.3167 58.7065 22.342 58.5548 22.3961C58.433 22.4513 58.309 22.5663 58.1827 22.741C58.0575 22.8859 57.9898 23.0928 57.9221 23.2996C57.8544 23.5065 57.8155 23.7444 57.8352 24.0144C57.856 24.2546 57.8779 24.4649 57.9619 24.6177C58.0459 24.7705 58.1321 24.8635 58.2505 24.8979C58.3688 24.9323 58.4884 24.9368 58.6113 24.8517C58.733 24.7965 58.8571 24.6815 58.9834 24.5068C59.1086 24.362 59.1763 24.1551 59.244 23.9482C59.3116 23.7413 59.3506 23.5034 59.3309 23.2334C59.3411 22.9645 59.318 22.7841 59.2341 22.6313Z" fill="white"/>
<path d="M61.0026 24.1346C60.8544 24.099 60.7073 24.0336 60.6222 23.9107C60.5371 23.7878 60.4841 23.6062 60.4622 23.396L61.0113 23.1176C61.0355 23.2681 61.0919 23.36 61.1792 23.4232C61.2666 23.4863 61.3872 23.461 61.5389 23.4069C61.6917 23.3229 61.7847 23.2367 61.8789 23.1206C61.9432 23.0033 62.0075 22.8861 61.9833 22.7355C61.9889 22.5862 61.9314 22.5241 61.8429 22.4909C61.7544 22.4576 61.6039 22.4818 61.4235 22.5049C61.1834 22.5257 61.034 22.52 60.9145 22.5155C60.7949 22.511 60.6777 22.4467 60.5915 22.3536C60.5052 22.2606 60.4523 22.0791 60.4315 21.8389C60.4383 21.6596 60.4462 21.4505 60.5438 21.2447C60.6413 21.039 60.7378 20.8631 60.8641 20.6884C61.0203 20.5148 61.1742 20.4009 61.358 20.2882C61.6325 20.149 61.8727 20.1282 62.0474 20.2545C62.2222 20.3809 62.3326 20.6244 62.35 20.9542L61.8319 21.2038C61.8077 21.0533 61.7824 20.9327 61.6939 20.8994C61.6065 20.8362 61.4858 20.8616 61.3641 20.9168C61.2423 20.972 61.1182 21.087 61.0551 21.1744C60.9908 21.2916 60.9564 21.41 60.9518 21.5295C60.9484 21.6191 60.9761 21.68 61.0335 21.7421C61.0922 21.7742 61.1508 21.8063 61.2106 21.8086C61.2703 21.8109 61.3898 21.8154 61.5105 21.7901C61.6909 21.767 61.8403 21.7727 61.9598 21.7772C62.0793 21.7817 62.1965 21.846 62.2828 21.939C62.369 22.0321 62.4219 22.2136 62.4439 22.4239C62.436 22.633 62.428 22.8422 62.3305 23.0479C62.2628 23.2548 62.1365 23.4295 62.0102 23.6043C61.854 23.7779 61.7 23.8917 61.5162 24.0044C61.3324 24.1171 61.1509 24.1701 61.0026 24.1346Z" fill="white"/>
<path d="M64.7364 18.7707C64.8846 18.8063 64.9996 18.9303 65.1123 19.1141C65.225 19.2979 65.2447 19.568 65.2621 19.8978L65.331 22.0248L64.8129 22.2744L64.7693 20.268C64.7519 19.9382 64.7001 19.7268 64.5851 19.6028C64.4701 19.4787 64.3207 19.4731 64.1071 19.5847C63.9233 19.6974 63.7682 19.8411 63.6396 20.0756C63.5409 20.3112 63.471 20.5778 63.4884 20.9076L63.5607 22.945L63.0426 23.1946L62.8975 18.3419L63.4156 18.0923L63.4717 19.77C63.5693 19.5643 63.6657 19.3884 63.7909 19.2435C63.916 19.0987 64.07 18.9848 64.2228 18.9009C64.4077 18.7583 64.5881 18.7352 64.7364 18.7707Z" fill="white"/>
<path d="M67.677 16.1894L67.704 19.4219L67.2766 19.645L67.1278 16.4678L67.677 16.1894ZM67.3175 20.9332C67.26 20.8712 67.2037 20.7793 67.2093 20.6299C67.215 20.4805 67.2195 20.361 67.2838 20.2437C67.3481 20.1265 67.4113 20.0391 67.5032 19.9828C67.5951 19.9264 67.6847 19.9298 67.7422 19.9918C67.7997 20.0539 67.856 20.1458 67.8504 20.2951C67.8447 20.4445 67.8402 20.5641 67.7759 20.6813C67.7116 20.7985 67.6484 20.8859 67.5565 20.9423C67.4646 20.9986 67.3761 20.9653 67.3175 20.9332Z" fill="white"/>
</svg>
