<svg width="465" height="508" viewBox="0 0 465 508" fill="none" xmlns="http://www.w3.org/2000/svg">
<path d="M211.177 475.605C327.807 493.496 431.883 445.887 443.636 369.267C455.39 292.647 370.371 216.03 253.741 198.139C137.111 180.248 33.0353 227.857 21.2817 304.477C9.52817 381.098 94.5473 457.714 211.177 475.605Z" fill="#EFF6FF"/>
<path d="M313.229 404.781L316.688 402.781C318.168 401.816 319.399 400.516 320.282 398.985C321.165 397.454 321.674 395.737 321.768 393.972V90.7674C321.674 89.0029 321.165 87.2854 320.282 85.7547C319.399 84.2239 318.168 82.9231 316.688 81.9581L176.847 1.21521C175.27 0.416311 173.527 0 171.76 0C169.992 0 168.25 0.416311 166.673 1.21521L163.16 3.21487C161.68 4.17989 160.448 5.48066 159.565 7.0114C158.683 8.54214 158.174 10.2596 158.08 12.0242V315.229C158.174 316.993 158.683 318.711 159.565 320.242C160.448 321.772 161.68 323.073 163.16 324.038L303.041 404.781C304.62 405.58 306.365 405.997 308.135 405.997C309.905 405.997 311.65 405.58 313.229 404.781Z" fill="#196E96"/>
<path d="M301.312 96.6987L320.228 85.7546C321.142 87.2718 321.653 88.9971 321.714 90.7673V393.972C321.62 395.737 321.111 397.454 320.229 398.985C319.346 400.516 318.114 401.816 316.634 402.781L313.175 404.781C311.596 405.58 309.851 405.996 308.081 405.996C306.312 405.996 304.567 405.58 302.988 404.781L301.258 403.781L301.312 96.6987Z" fill="#05354C"/>
<path d="M308.135 98.6444V401.849C308.135 405.092 305.852 406.402 303.042 404.781L163.16 324.038C161.68 323.073 160.449 321.772 159.566 320.242C158.683 318.711 158.174 316.993 158.08 315.229V12.0241C158.08 8.78145 160.35 7.47086 163.16 9.09221L303.042 89.8486C304.519 90.8148 305.749 92.1137 306.634 93.6412C307.518 95.1687 308.033 96.8823 308.135 98.6444Z" fill="#1F6180"/>
<path d="M296.921 117.803L169.767 44.397C167.362 43.0459 165.403 44.1403 165.403 46.9236V288.774C165.486 290.289 165.924 291.763 166.682 293.078C167.441 294.392 168.497 295.51 169.767 296.34L296.921 369.774C299.339 371.125 301.285 370.03 301.285 367.247V125.397C301.211 123.876 300.777 122.394 300.019 121.074C299.26 119.753 298.198 118.633 296.921 117.803Z" fill="#FAFAFA"/>
<path d="M233.121 57.327C231.243 56.2461 229.716 57.1243 229.716 59.2996C229.779 60.4823 230.12 61.6334 230.712 62.6594C231.303 63.6853 232.129 64.5572 233.121 65.204C235.012 66.2984 236.539 65.4067 236.539 63.2449C236.475 62.0592 236.131 60.9054 235.538 59.8772C234.944 58.8489 234.116 57.9752 233.121 57.327Z" fill="#263238"/>
<path d="M242.97 74.365C236.039 70.5413 223.69 63.1777 216.853 59.1649C215.691 58.4758 214.759 58.9487 214.759 60.2187C214.812 60.9262 215.031 61.6112 215.397 62.2189C215.763 62.8266 216.266 63.3401 216.867 63.7181L243.024 78.8236C244.186 79.4992 245.132 79.0128 245.132 77.7563C245.072 77.0585 244.844 76.3855 244.468 75.7949C244.092 75.2043 243.578 74.7137 242.97 74.365Z" fill="#263238"/>
<path d="M249.632 78.1886C248.578 77.5671 247.727 78.067 247.727 79.283C247.76 79.9478 247.95 80.5954 248.281 81.173C248.612 81.7505 249.075 82.2418 249.632 82.6067C250.686 83.2147 251.55 82.7148 251.55 81.4988C251.512 80.8353 251.319 80.1901 250.985 79.6151C250.652 79.0402 250.188 78.5515 249.632 78.1886V78.1886Z" fill="#263238"/>
<path d="M103.471 274.57C103.55 273.127 103.968 271.722 104.692 270.47C105.415 269.218 106.423 268.154 107.633 267.363L111.02 265.406C112.312 264.761 113.737 264.425 115.182 264.425C116.627 264.425 118.052 264.761 119.345 265.406L231.818 330.302C233.028 331.092 234.036 332.156 234.759 333.408C235.483 334.661 235.901 336.065 235.98 337.509V350.759C235.901 352.202 235.483 353.607 234.759 354.859C234.036 356.111 233.028 357.175 231.818 357.966L228.416 359.923C227.128 360.574 225.704 360.913 224.261 360.913C222.817 360.913 221.394 360.574 220.106 359.923L107.633 295.027C106.421 294.239 105.412 293.175 104.688 291.922C103.965 290.67 103.548 289.264 103.471 287.82V274.57Z" fill="#1F6180"/>
<path d="M235.98 350.758C235.903 352.203 235.486 353.608 234.763 354.861C234.039 356.113 233.03 357.177 231.818 357.965L228.416 359.923C227.242 360.51 225.957 360.843 224.645 360.899C223.334 360.955 222.025 360.734 220.805 360.249C222.778 360.994 224.269 359.892 224.269 357.515V344.281C224.22 342.826 223.798 341.409 223.042 340.165L234.753 333.408C235.507 334.647 235.93 336.059 235.98 337.509V350.758Z" fill="#05354C"/>
<path d="M103.611 273.421C104.092 271.65 105.708 271.091 107.634 272.194L220.106 337.105C221.341 337.864 222.354 338.936 223.042 340.212L234.738 333.455C234.051 332.183 233.045 331.112 231.818 330.348L119.361 265.437C118.068 264.792 116.643 264.456 115.198 264.456C113.753 264.456 112.328 264.792 111.035 265.437L107.634 267.41C106.59 268.086 105.696 268.968 105.004 270.002C104.312 271.035 103.838 272.198 103.611 273.421Z" fill="#347898"/>
<path d="M209.948 338.658C207.758 337.4 205.987 338.425 205.987 340.942C206.061 342.315 206.458 343.651 207.147 344.841C207.835 346.032 208.795 347.043 209.948 347.792C212.122 349.05 213.893 348.025 213.893 345.508C213.818 344.137 213.422 342.803 212.737 341.613C212.052 340.423 211.096 339.411 209.948 338.658V338.658Z" fill="#E6E6E6"/>
<path d="M196.87 331.156C194.695 329.898 192.924 330.923 192.924 333.44C192.998 334.811 193.393 336.146 194.079 337.336C194.764 338.526 195.72 339.538 196.87 340.289C199.06 341.548 200.815 340.522 200.815 338.006C200.741 336.635 200.346 335.3 199.66 334.11C198.975 332.92 198.019 331.908 196.87 331.156V331.156Z" fill="#E6E6E6"/>
<path d="M183.744 323.623C181.554 322.365 179.783 323.374 179.783 325.906C179.858 327.277 180.256 328.61 180.945 329.798C181.633 330.985 182.592 331.994 183.744 332.74C185.919 333.999 187.689 332.973 187.689 330.457C187.615 329.088 187.218 327.756 186.533 326.569C185.848 325.381 184.892 324.372 183.744 323.623Z" fill="#E6E6E6"/>
<path d="M170.727 316.074C168.553 314.816 166.782 315.841 166.782 318.357C166.857 319.726 167.253 321.058 167.938 322.246C168.624 323.433 169.579 324.442 170.727 325.191C172.917 326.45 174.688 325.44 174.688 322.908C174.613 321.537 174.215 320.204 173.527 319.016C172.838 317.829 171.879 316.82 170.727 316.074V316.074Z" fill="#E6E6E6"/>
<path d="M157.665 308.525C155.475 307.267 153.704 308.292 153.704 310.808C153.78 312.181 154.179 313.516 154.867 314.706C155.555 315.896 156.513 316.907 157.665 317.658C159.839 318.916 161.61 317.891 161.61 315.375C161.537 314.003 161.141 312.669 160.456 311.479C159.77 310.289 158.814 309.277 157.665 308.525V308.525Z" fill="#E6E6E6"/>
<path d="M144.586 300.976C142.412 299.718 140.641 300.743 140.641 303.259C140.716 304.63 141.112 305.965 141.797 307.155C142.482 308.345 143.438 309.357 144.586 310.109C146.776 311.367 148.547 310.342 148.547 307.826C148.473 306.453 148.076 305.117 147.387 303.927C146.699 302.736 145.739 301.725 144.586 300.976V300.976Z" fill="#E6E6E6"/>
<path d="M131.523 293.427C129.349 292.169 127.578 293.194 127.578 295.711C127.651 297.082 128.047 298.417 128.732 299.607C129.418 300.797 130.374 301.809 131.523 302.56C133.698 303.819 135.469 302.793 135.469 300.277C135.391 298.907 134.994 297.573 134.309 296.384C133.624 295.194 132.67 294.182 131.523 293.427V293.427Z" fill="#E6E6E6"/>
<path d="M118.507 285.847C116.317 284.589 114.546 285.599 114.546 288.131C114.621 289.501 115.019 290.835 115.708 292.022C116.396 293.21 117.355 294.218 118.507 294.965C120.681 296.223 122.452 295.198 122.452 292.682C122.377 291.313 121.981 289.981 121.296 288.793C120.61 287.606 119.655 286.597 118.507 285.847V285.847Z" fill="#E6E6E6"/>
<path d="M103.471 318.264C103.55 316.82 103.968 315.416 104.692 314.164C105.415 312.911 106.423 311.847 107.633 311.057L111.02 309.146C112.312 308.501 113.737 308.165 115.182 308.165C116.627 308.165 118.052 308.501 119.345 309.146L231.818 374.042C233.03 374.831 234.039 375.894 234.763 377.147C235.486 378.399 235.903 379.805 235.98 381.249V394.499C235.901 395.943 235.483 397.347 234.759 398.599C234.036 399.851 233.028 400.916 231.818 401.706L228.416 403.663C227.128 404.314 225.704 404.653 224.261 404.653C222.817 404.653 221.394 404.314 220.106 403.663L107.633 338.659C106.421 337.87 105.412 336.806 104.688 335.554C103.965 334.301 103.548 332.896 103.471 331.451V318.264Z" fill="#1F6180"/>
<path d="M235.98 394.452C235.901 395.896 235.483 397.3 234.759 398.552C234.036 399.805 233.028 400.869 231.818 401.659L228.416 403.616C227.242 404.204 225.957 404.536 224.645 404.592C223.334 404.649 222.025 404.427 220.805 403.942C222.778 404.688 224.269 403.585 224.269 401.209V387.959C224.218 386.51 223.796 385.097 223.042 383.859L234.753 377.102C235.507 378.341 235.93 379.753 235.98 381.202V394.452Z" fill="#05354C"/>
<path d="M103.611 317.084C104.092 315.313 105.708 314.754 107.634 315.857L220.106 380.768C221.341 381.527 222.354 382.598 223.042 383.874L234.738 377.118C234.051 375.846 233.045 374.775 231.818 374.011L119.361 309.146C118.068 308.501 116.643 308.165 115.198 308.165C113.753 308.165 112.328 308.501 111.035 309.146L107.634 311.119C106.595 311.79 105.704 312.665 105.012 313.69C104.321 314.715 103.844 315.869 103.611 317.084V317.084Z" fill="#347898"/>
<path d="M209.948 382.399C207.758 381.141 205.987 382.166 205.987 384.682C206.063 386.054 206.462 387.39 207.15 388.58C207.838 389.77 208.796 390.781 209.948 391.532C212.122 392.79 213.893 391.765 213.893 389.249C213.82 387.877 213.424 386.542 212.739 385.352C212.053 384.162 211.097 383.15 209.948 382.399V382.399Z" fill="#E6E6E6"/>
<path d="M196.87 374.85C194.695 373.592 192.924 374.617 192.924 377.133C192.999 378.504 193.395 379.839 194.08 381.028C194.766 382.218 195.721 383.23 196.87 383.983C199.06 385.241 200.815 384.216 200.815 381.7C200.744 380.328 200.349 378.992 199.664 377.802C198.978 376.611 198.021 375.6 196.87 374.85V374.85Z" fill="#E6E6E6"/>
<path d="M183.744 367.316C181.554 366.043 179.783 367.068 179.783 369.584C179.856 370.957 180.253 372.294 180.941 373.485C181.63 374.675 182.59 375.686 183.744 376.434C185.919 377.692 187.689 376.667 187.689 374.151C187.615 372.782 187.218 371.45 186.533 370.262C185.848 369.075 184.892 368.066 183.744 367.316V367.316Z" fill="#E6E6E6"/>
<path d="M170.727 359.767C168.553 358.509 166.782 359.519 166.782 362.051C166.857 363.419 167.253 364.752 167.938 365.939C168.624 367.126 169.579 368.136 170.727 368.885C172.917 370.143 174.688 369.133 174.688 366.602C174.613 365.231 174.215 363.897 173.527 362.71C172.838 361.522 171.879 360.514 170.727 359.767V359.767Z" fill="#E6E6E6"/>
<path d="M157.665 352.218C155.475 350.96 153.704 351.986 153.704 354.502C153.779 355.872 154.177 357.206 154.865 358.394C155.554 359.581 156.513 360.59 157.665 361.336C159.839 362.594 161.61 361.585 161.61 359.068C161.537 357.697 161.141 356.362 160.456 355.172C159.77 353.982 158.814 352.97 157.665 352.218V352.218Z" fill="#E6E6E6"/>
<path d="M144.586 344.67C142.412 343.412 140.641 344.437 140.641 346.953C140.718 348.323 141.115 349.657 141.8 350.846C142.485 352.036 143.44 353.048 144.586 353.803C146.776 355.061 148.547 354.036 148.547 351.52C148.474 350.146 148.077 348.81 147.389 347.619C146.701 346.429 145.74 345.418 144.586 344.67V344.67Z" fill="#E6E6E6"/>
<path d="M131.523 337.105C129.349 335.847 127.578 336.872 127.578 339.388C127.653 340.759 128.049 342.094 128.734 343.284C129.419 344.473 130.375 345.486 131.523 346.238C133.698 347.496 135.469 346.471 135.469 343.955C135.394 342.584 134.998 341.25 134.312 340.06C133.627 338.87 132.672 337.858 131.523 337.105V337.105Z" fill="#E6E6E6"/>
<path d="M118.507 329.587C116.317 328.314 114.546 329.339 114.546 331.855C114.626 333.22 115.026 334.548 115.714 335.73C116.402 336.912 117.359 337.915 118.507 338.658C120.681 339.917 122.452 338.891 122.452 336.375C122.37 335.014 121.971 333.691 121.286 332.513C120.601 331.334 119.649 330.332 118.507 329.587V329.587Z" fill="#E6E6E6"/>
<path d="M239.662 353.135C239.743 351.691 240.161 350.287 240.885 349.035C241.608 347.783 242.615 346.719 243.825 345.928L247.226 343.971C248.515 343.319 249.938 342.98 251.381 342.98C252.825 342.98 254.248 343.319 255.536 343.971L307.524 374.042C308.737 374.83 309.746 375.894 310.47 377.147C311.193 378.399 311.61 379.805 311.687 381.249V438.239C311.607 439.682 311.188 441.087 310.465 442.338C309.742 443.59 308.734 444.655 307.524 445.446L304.138 447.388C302.846 448.033 301.42 448.369 299.976 448.369C298.531 448.369 297.106 448.033 295.813 447.388L243.84 417.316C242.625 416.529 241.613 415.466 240.887 414.214C240.16 412.961 239.741 411.555 239.662 410.109V353.135Z" fill="#6ED0FF"/>
<path opacity="0.2" d="M311.687 438.239C311.607 439.682 311.188 441.086 310.465 442.338C309.742 443.59 308.734 444.655 307.524 445.446L304.138 447.387C302.964 447.975 301.679 448.308 300.368 448.364C299.056 448.42 297.747 448.198 296.527 447.714C298.484 448.459 299.976 447.356 299.976 444.98V388.006C299.924 386.559 299.507 385.148 298.764 383.905L310.476 377.148C311.221 378.391 311.638 379.802 311.687 381.249V438.239Z" fill="black"/>
<path opacity="0.3" d="M239.817 351.954C240.314 350.199 241.914 349.625 243.84 350.743L295.813 380.799C297.048 381.557 298.061 382.629 298.748 383.905L310.46 377.149C309.763 375.879 308.753 374.809 307.524 374.042L255.567 343.986C254.275 343.341 252.85 343.005 251.405 343.005C249.96 343.005 248.535 343.341 247.242 343.986L243.84 345.943C242.797 346.62 241.902 347.502 241.211 348.535C240.519 349.569 240.045 350.732 239.817 351.954Z" fill="white"/>
<path d="M270.603 375.425C265.602 372.535 261.548 374.865 261.548 380.644C261.718 383.786 262.626 386.844 264.2 389.57C265.773 392.296 267.967 394.612 270.603 396.332C275.605 399.221 279.659 396.875 279.659 391.097C279.491 387.956 278.583 384.899 277.01 382.175C275.436 379.452 273.241 377.139 270.603 375.425V375.425Z" fill="#FAFAFA"/>
<path d="M252.757 406.21C252.757 396.72 259.42 392.883 267.637 397.621L272.778 400.587C280.98 405.325 287.643 416.866 287.643 426.356V428.904C282.983 430.457 257.572 415.732 252.757 408.416V406.21Z" fill="#FAFAFA"/>
<g filter="url(#filter0_d)">
<path d="M207.473 90.1967L205.814 157.422C205.765 157.912 205.563 158.384 205.222 158.802C204.882 159.22 204.413 159.571 203.853 159.827L200.475 161.176C199.879 161.384 199.224 161.483 198.562 161.467C197.9 161.451 197.251 161.319 196.666 161.082L140.335 135.25C139.787 134.967 139.334 134.594 139.013 134.16C138.692 133.726 138.511 133.243 138.486 132.751L140.146 65.539C140.194 65.0483 140.397 64.5748 140.739 64.1569C141.082 63.739 141.553 63.3886 142.115 63.1343L145.484 61.7848C146.08 61.577 146.736 61.4773 147.397 61.4936C148.059 61.51 148.709 61.6419 149.294 61.8788L205.633 87.7176C206.176 87.9988 206.625 88.3693 206.945 88.7997C207.264 89.2301 207.445 89.7084 207.473 90.1967V90.1967Z" fill="white"/>
</g>
<path d="M188.333 91.2551L194.006 94.4071L193.82 101.932L191.334 100.742L191.445 96.2264L188.259 94.2652L188.333 91.2551Z" fill="#82D8FF"/>
<path d="M147.977 134.343L142.305 131.191L142.491 123.665L144.977 124.856L144.865 129.372L148.051 131.333L147.977 134.343Z" fill="#82D8FF"/>
<path d="M143.815 70.0305L147.599 72.0406L149.491 73.0457L149.423 75.794L145.638 73.8256L145.518 78.6977L143.63 77.5261L143.815 70.0305Z" fill="#82D8FF"/>
<path d="M192.519 154.61L187.987 151.873L186.856 151.095L186.911 148.846L190.696 150.815L190.817 145.942L192.704 147.114L192.519 154.61Z" fill="#82D8FF"/>
<path d="M166.224 129.085C166.708 130.336 167.502 131.4 168.517 132.158C169.033 132.572 169.646 132.817 170.292 132.869C170.938 132.92 171.592 132.776 172.185 132.451C172.778 132.126 173.286 131.633 173.657 131.025C174.028 130.416 174.247 129.714 174.291 128.994C175.19 128.92 176.069 128.606 176.853 128.08C177.637 127.553 178.302 126.831 178.793 125.972C179.301 125.078 179.629 124.08 179.753 123.047C179.877 122.015 179.794 120.975 179.51 120.002C181.9 119.062 184.318 117.55 185.699 115.025C187.08 112.501 186.789 108.792 184.778 107.271C185.633 106.621 186.294 105.699 186.668 104.635C187.042 103.571 187.112 102.418 186.866 101.338C186.635 100.306 186.077 99.414 185.292 98.8197C184.507 98.2253 183.545 97.9672 182.576 98.0909C182.706 96.8111 182.535 95.5303 182.08 94.3737C181.624 93.217 180.9 92.2242 179.978 91.4921C179.059 90.8087 177.976 90.4282 176.848 90.3927C175.72 90.3571 174.592 90.6679 173.588 91.2907C173.437 90.7005 173.16 90.1649 172.778 89.7283C172.397 89.2917 171.923 88.9668 171.396 88.7805C170.866 88.6215 170.303 88.612 169.757 88.7529C169.211 88.8938 168.7 89.1807 168.268 89.5881C167.795 88.6299 167.06 87.8698 166.163 87.4121C165.265 86.9544 164.25 86.8213 163.256 87.0312C161.189 87.5826 159.33 88.9091 158.001 90.7814C157.49 90.3243 156.872 90.0337 156.21 89.9403C155.549 89.8469 154.87 89.9541 154.244 90.2506C153.593 90.5793 153.016 91.0715 152.56 91.6864C152.104 92.3014 151.782 93.0215 151.621 93.7872C151.457 94.5626 151.456 95.362 151.62 96.1218C151.785 96.8816 152.109 97.5806 152.567 98.1633C152.022 98.2999 151.513 98.5872 151.086 98.9978C150.66 99.4084 150.331 99.9286 150.13 100.509C149.922 101.1 149.848 101.732 149.913 102.35C149.978 102.967 150.181 103.551 150.504 104.048C150.82 104.509 151.251 104.856 151.747 105.049C152.244 105.243 152.785 105.275 153.31 105.143C155.69 109.596 161.246 110.688 164.054 114.756C165.275 116.672 166.015 118.925 166.201 121.299C166.43 123.669 165.323 127.006 166.224 129.085Z" fill="#263238"/>
<path d="M181.205 116.597C180.696 116.406 180.152 116.34 179.608 116.404C179.065 116.467 178.535 116.658 178.054 116.964C177.083 117.59 176.191 118.362 175.406 119.258C175.046 119.689 174.612 120.034 174.132 120.273C173.891 120.392 173.627 120.428 173.374 120.377C173.12 120.326 172.891 120.189 172.716 119.985C172.587 119.716 172.514 119.415 172.504 119.105C172.494 118.795 172.546 118.484 172.657 118.193L173.729 113.852C173.805 113.518 173.795 113.171 173.699 112.852C173.602 112.533 173.425 112.255 173.186 112.05C172.479 111.396 172.019 110.472 171.89 109.446C171.867 109.281 171.858 109.128 171.844 108.965C171.036 109.285 170.161 109.26 169.395 108.895C168.586 108.501 167.963 107.764 167.66 106.843C167.398 107.17 167.073 107.426 166.711 107.593C166.35 107.759 165.961 107.83 165.577 107.8C165.204 107.746 164.852 107.592 164.551 107.351C164.25 107.11 164.01 106.79 163.85 106.417C163.343 106.946 162.733 107.336 162.072 107.554C161.412 107.773 160.72 107.813 160.056 107.671C159.393 107.529 158.777 107.21 158.262 106.741C157.747 106.272 157.347 105.666 157.098 104.976C156.383 105.143 155.65 105.115 154.963 104.895C154.275 104.675 153.654 104.269 153.154 103.713C151.08 110.304 150.132 117.216 150.36 124.086C150.372 125.645 150.827 125.758 151.225 127.235C151.64 128.733 152.842 129.804 154.015 130.659C155.466 131.638 157.04 131.855 158.778 131.852C161.962 131.866 163.116 132.206 166.135 130.958C169.153 129.709 171.829 127.265 174.11 124.506C174.758 125.18 175.555 125.656 176.429 125.89C177.303 126.125 178.225 126.111 179.112 125.85C179.994 125.532 180.798 124.978 181.454 124.238C182.109 123.499 182.594 122.598 182.864 121.617C183.345 119.676 182.788 117.319 181.205 116.597Z" fill="#FFA8A7"/>
<path d="M159.86 115.241L154.997 121.145L159.012 122.876L159.86 115.241Z" fill="#F28F8F"/>
<path d="M162.567 125.974L159.029 127.037C159.22 127.497 159.545 127.868 159.953 128.096C160.361 128.323 160.831 128.394 161.291 128.297C161.705 128.118 162.057 127.79 162.289 127.367C162.521 126.945 162.619 126.453 162.567 125.974V125.974Z" fill="#F28F8F"/>
<path opacity="0.3" d="M162.567 125.974L159.029 127.037C159.22 127.497 159.545 127.868 159.953 128.096C160.361 128.323 160.831 128.394 161.291 128.297C161.705 128.118 162.057 127.79 162.289 127.367C162.521 126.945 162.619 126.453 162.567 125.974V125.974Z" fill="black"/>
<path d="M160.185 128.215C160.539 128.377 160.935 128.414 161.319 128.321C161.648 128.198 161.942 127.971 162.162 127.669C162.383 127.366 162.52 127.002 162.556 126.622C162.098 126.522 161.617 126.604 161.194 126.853C160.716 127.153 160.354 127.641 160.185 128.215V128.215Z" fill="#F28F8F"/>
<path d="M165.883 116.739C165.853 117.007 165.751 117.263 165.592 117.473C165.433 117.684 165.223 117.841 164.988 117.924C164.754 118.006 164.506 118.011 164.275 117.938C164.044 117.865 163.841 117.716 163.691 117.512C163.541 117.307 163.451 117.055 163.433 116.788C163.414 116.52 163.468 116.25 163.587 116.009C163.706 115.769 163.885 115.57 164.101 115.437C164.318 115.305 164.562 115.245 164.804 115.264C164.966 115.276 165.123 115.324 165.266 115.405C165.408 115.486 165.534 115.599 165.634 115.736C165.735 115.873 165.809 116.033 165.851 116.205C165.894 116.377 165.905 116.559 165.883 116.739Z" fill="#263238"/>
<path d="M155.63 115.389C155.6 115.657 155.498 115.913 155.339 116.125C155.179 116.336 154.969 116.492 154.734 116.575C154.499 116.657 154.25 116.662 154.019 116.588C153.788 116.514 153.585 116.365 153.435 116.16C153.286 115.954 153.197 115.702 153.179 115.434C153.161 115.166 153.216 114.895 153.336 114.655C153.456 114.415 153.636 114.216 153.854 114.085C154.072 113.953 154.317 113.894 154.558 113.916C154.719 113.93 154.875 113.979 155.016 114.061C155.157 114.143 155.281 114.255 155.38 114.392C155.48 114.529 155.553 114.688 155.596 114.859C155.639 115.029 155.651 115.21 155.63 115.389V115.389Z" fill="#263238"/>
<path d="M155.041 109.847L152.09 111.706C152.013 111.32 152.046 110.913 152.183 110.538C152.32 110.164 152.556 109.839 152.858 109.609C153.215 109.42 153.608 109.342 153.994 109.384C154.379 109.426 154.742 109.587 155.041 109.847V109.847Z" fill="#263238"/>
<path d="M165.565 110.611L168.047 112.949C168.209 112.586 168.268 112.181 168.216 111.79C168.164 111.399 168.004 111.04 167.758 110.762C167.45 110.512 167.082 110.366 166.694 110.339C166.307 110.312 165.916 110.406 165.565 110.611V110.611Z" fill="#263238"/>
<g opacity="0.81">
<path d="M166.224 129.085C166.708 130.336 167.502 131.4 168.517 132.158C169.033 132.572 169.646 132.817 170.292 132.869C170.938 132.92 171.592 132.776 172.185 132.451C172.778 132.126 173.286 131.633 173.657 131.025C174.028 130.416 174.247 129.714 174.291 128.994C175.19 128.92 176.069 128.606 176.853 128.08C177.637 127.553 178.302 126.831 178.793 125.972C179.301 125.078 179.629 124.08 179.753 123.047C179.877 122.015 179.794 120.975 179.51 120.002C181.9 119.062 184.318 117.55 185.699 115.025C187.08 112.501 186.789 108.792 184.778 107.271C185.633 106.621 186.294 105.699 186.668 104.635C187.042 103.571 187.112 102.418 186.866 101.338C186.635 100.306 186.077 99.414 185.292 98.8197C184.507 98.2253 183.545 97.9672 182.576 98.0909C182.706 96.8111 182.535 95.5303 182.08 94.3737C181.624 93.217 180.9 92.2242 179.978 91.4921C179.059 90.8087 177.976 90.4282 176.848 90.3927C175.72 90.3571 174.592 90.6679 173.588 91.2907C173.437 90.7005 173.16 90.1649 172.778 89.7283C172.397 89.2917 171.923 88.9668 171.396 88.7805C170.866 88.6215 170.303 88.612 169.757 88.7529C169.211 88.8938 168.7 89.1807 168.268 89.5881C167.795 88.6299 167.06 87.8698 166.163 87.4121C165.265 86.9544 164.25 86.8213 163.256 87.0312C161.189 87.5826 159.33 88.9091 158.001 90.7814C157.49 90.3243 156.872 90.0337 156.21 89.9403C155.549 89.8469 154.87 89.9541 154.244 90.2506C153.593 90.5793 153.016 91.0715 152.56 91.6864C152.104 92.3014 151.782 93.0215 151.621 93.7872C151.457 94.5626 151.456 95.362 151.62 96.1218C151.785 96.8816 152.109 97.5806 152.567 98.1633C152.022 98.2999 151.513 98.5872 151.086 98.9978C150.66 99.4084 150.331 99.9286 150.13 100.509C149.922 101.1 149.848 101.732 149.913 102.35C149.978 102.967 150.181 103.551 150.504 104.048C150.82 104.509 151.251 104.856 151.747 105.049C152.244 105.243 152.785 105.275 153.31 105.143C155.69 109.596 161.246 110.688 164.054 114.756C165.275 116.672 166.015 118.925 166.201 121.299C166.43 123.669 165.323 127.006 166.224 129.085Z" fill="#82D8FF"/>
<path d="M181.205 116.597C180.696 116.406 180.152 116.34 179.608 116.404C179.065 116.467 178.535 116.658 178.054 116.964C177.083 117.59 176.191 118.362 175.406 119.258C175.046 119.689 174.612 120.034 174.132 120.273C173.891 120.392 173.627 120.428 173.374 120.377C173.12 120.326 172.891 120.189 172.716 119.985C172.587 119.716 172.514 119.415 172.504 119.105C172.494 118.795 172.546 118.484 172.657 118.193L173.729 113.852C173.805 113.518 173.795 113.171 173.699 112.852C173.602 112.533 173.425 112.255 173.186 112.05C172.479 111.396 172.019 110.472 171.89 109.446C171.867 109.281 171.858 109.128 171.844 108.965C171.036 109.285 170.161 109.26 169.395 108.895C168.586 108.501 167.963 107.764 167.66 106.843C167.398 107.17 167.073 107.426 166.711 107.593C166.35 107.759 165.961 107.83 165.577 107.8C165.204 107.746 164.852 107.592 164.551 107.351C164.25 107.11 164.01 106.79 163.85 106.417C163.343 106.946 162.733 107.336 162.072 107.554C161.412 107.773 160.72 107.813 160.056 107.671C159.393 107.529 158.777 107.21 158.262 106.741C157.747 106.272 157.347 105.666 157.098 104.976C156.383 105.143 155.65 105.115 154.963 104.895C154.275 104.675 153.654 104.269 153.154 103.713C151.08 110.304 150.132 117.216 150.36 124.086C150.372 125.645 150.827 125.758 151.225 127.235C151.64 128.733 152.842 129.804 154.015 130.659C155.466 131.638 157.04 131.855 158.778 131.852C161.962 131.866 163.116 132.206 166.135 130.958C169.153 129.709 171.829 127.265 174.11 124.506C174.758 125.18 175.555 125.656 176.429 125.89C177.303 126.125 178.225 126.111 179.112 125.85C179.994 125.532 180.798 124.978 181.454 124.238C182.109 123.499 182.594 122.598 182.864 121.617C183.345 119.676 182.788 117.319 181.205 116.597Z" fill="#82D8FF"/>
<path d="M159.86 115.241L154.997 121.145L159.012 122.876L159.86 115.241Z" fill="#82D8FF"/>
<path d="M162.567 125.974L159.029 127.037C159.22 127.497 159.545 127.868 159.953 128.096C160.361 128.323 160.831 128.394 161.291 128.297C161.705 128.118 162.057 127.79 162.289 127.367C162.521 126.945 162.619 126.453 162.567 125.974V125.974Z" fill="#82D8FF"/>
<path opacity="0.3" d="M162.567 125.974L159.029 127.037C159.22 127.497 159.545 127.868 159.953 128.096C160.361 128.323 160.831 128.394 161.291 128.297C161.705 128.118 162.057 127.79 162.289 127.367C162.521 126.945 162.619 126.453 162.567 125.974V125.974Z" fill="#82D8FF"/>
<path d="M160.185 128.215C160.539 128.377 160.935 128.414 161.319 128.321C161.648 128.198 161.942 127.971 162.162 127.669C162.383 127.366 162.52 127.002 162.556 126.622C162.098 126.522 161.617 126.604 161.194 126.853C160.716 127.153 160.354 127.641 160.185 128.215V128.215Z" fill="#82D8FF"/>
<path d="M165.883 116.739C165.853 117.007 165.751 117.263 165.592 117.473C165.433 117.684 165.223 117.841 164.988 117.924C164.754 118.006 164.506 118.011 164.275 117.938C164.044 117.865 163.841 117.716 163.691 117.512C163.541 117.307 163.451 117.055 163.433 116.788C163.414 116.52 163.468 116.25 163.587 116.009C163.706 115.769 163.885 115.57 164.101 115.437C164.318 115.305 164.562 115.245 164.804 115.264C164.966 115.276 165.123 115.324 165.266 115.405C165.408 115.486 165.534 115.599 165.634 115.736C165.735 115.873 165.809 116.033 165.851 116.205C165.894 116.377 165.905 116.559 165.883 116.739Z" fill="#82D8FF"/>
<path d="M155.63 115.389C155.6 115.657 155.498 115.913 155.339 116.125C155.179 116.336 154.969 116.492 154.734 116.575C154.499 116.657 154.25 116.662 154.019 116.588C153.788 116.514 153.585 116.365 153.435 116.16C153.286 115.954 153.197 115.702 153.179 115.434C153.161 115.166 153.216 114.895 153.336 114.655C153.456 114.415 153.636 114.216 153.854 114.085C154.072 113.953 154.317 113.894 154.558 113.916C154.719 113.93 154.875 113.979 155.016 114.061C155.157 114.143 155.281 114.255 155.38 114.392C155.48 114.529 155.553 114.688 155.596 114.859C155.639 115.029 155.651 115.21 155.63 115.389V115.389Z" fill="#82D8FF"/>
<path d="M155.041 109.847L152.09 111.706C152.013 111.32 152.046 110.913 152.183 110.538C152.32 110.164 152.556 109.839 152.858 109.609C153.215 109.42 153.608 109.342 153.994 109.384C154.379 109.426 154.742 109.587 155.041 109.847V109.847Z" fill="#82D8FF"/>
<path d="M165.565 110.611L168.047 112.949C168.209 112.586 168.268 112.181 168.216 111.79C168.164 111.399 168.004 111.04 167.758 110.762C167.45 110.512 167.082 110.366 166.694 110.339C166.307 110.312 165.916 110.406 165.565 110.611V110.611Z" fill="#82D8FF"/>
</g>
<path d="M207.548 89.3334L197.899 91.9702L196.209 160.451C197.389 162.534 200.766 161.278 204.149 159.729C205.182 159.257 205.847 158.228 205.875 157.092L207.548 89.3334Z" fill="#E8F8FF"/>
<path d="M148.338 61.5169C143.74 61.4034 140.616 63.7222 140.102 65.147L198.378 91.9821L205.992 89.6514C206.872 89.3818 206.951 88.166 206.113 87.7849L148.338 61.5169Z" fill="#E8F8FF"/>
<path d="M147.409 79.7026L188.635 98.45" stroke="#82D8FF" stroke-width="0.2"/>
<path d="M146.771 105.562L187.996 124.31" stroke="#82D8FF" stroke-width="0.2"/>
<path d="M147.09 92.6326L188.316 111.38" stroke="#82D8FF" stroke-width="0.2"/>
<path d="M146.452 118.492L187.677 137.24" stroke="#82D8FF" stroke-width="0.2"/>
<path d="M147.303 84.0127L188.528 102.76" stroke="#82D8FF" stroke-width="0.2"/>
<path d="M146.665 109.872L187.89 128.62" stroke="#82D8FF" stroke-width="0.2"/>
<path d="M146.984 96.9424L188.209 115.69" stroke="#82D8FF" stroke-width="0.2"/>
<path d="M146.345 122.802L187.571 141.55" stroke="#82D8FF" stroke-width="0.2"/>
<path d="M147.197 88.3225L188.422 107.07" stroke="#82D8FF" stroke-width="0.2"/>
<path d="M146.558 114.182L187.784 132.929" stroke="#82D8FF" stroke-width="0.2"/>
<path d="M146.877 101.252L188.103 120" stroke="#82D8FF" stroke-width="0.2"/>
<path d="M146.239 127.112L187.464 145.859" stroke="#82D8FF" stroke-width="0.2"/>
<g filter="url(#filter1_d)">
<path d="M309.027 139.058L307.368 206.283C307.319 206.773 307.117 207.245 306.776 207.663C306.436 208.081 305.967 208.432 305.407 208.688L302.029 210.037C301.433 210.245 300.778 210.345 300.116 210.328C299.454 210.312 298.805 210.18 298.22 209.943L241.889 184.111C241.341 183.828 240.888 183.455 240.567 183.021C240.246 182.587 240.065 182.104 240.04 181.612L241.7 114.4C241.748 113.909 241.951 113.436 242.293 113.018C242.636 112.6 243.107 112.25 243.669 111.995L247.039 110.646C247.634 110.438 248.29 110.338 248.951 110.355C249.613 110.371 250.263 110.503 250.848 110.74L307.187 136.579C307.73 136.86 308.179 137.23 308.499 137.661C308.818 138.091 308.999 138.569 309.027 139.058V139.058Z" fill="white"/>
</g>
<path d="M289.888 140.116L295.56 143.268L295.374 150.794L292.888 149.603L292.999 145.087L289.813 143.126L289.888 140.116Z" fill="#82D8FF"/>
<path d="M249.531 183.204L243.859 180.052L244.045 172.527L246.531 173.718L246.42 178.233L249.606 180.194L249.531 183.204Z" fill="#82D8FF"/>
<path d="M245.369 118.892L249.153 120.902L251.045 121.907L250.977 124.655L247.192 122.687L247.072 127.559L245.184 126.387L245.369 118.892Z" fill="#82D8FF"/>
<path d="M294.074 203.471L289.541 200.734L288.41 199.956L288.466 197.707L292.251 199.676L292.371 194.804L294.259 195.975L294.074 203.471Z" fill="#82D8FF"/>
<path d="M309.102 138.194L299.453 140.831L297.763 209.312C298.944 211.395 302.32 210.139 305.703 208.591C306.736 208.118 307.401 207.089 307.429 205.953L309.102 138.194Z" fill="#E8F8FF"/>
<path d="M249.892 110.378C245.295 110.264 242.171 112.583 241.656 114.008L299.932 140.843L307.546 138.512C308.426 138.243 308.505 137.027 307.667 136.646L249.892 110.378Z" fill="#E8F8FF"/>
<path d="M248.964 128.564L290.189 147.311" stroke="#82D8FF" stroke-width="0.2"/>
<path d="M248.325 154.424L289.551 173.171" stroke="#82D8FF" stroke-width="0.2"/>
<path d="M248.645 141.494L289.87 160.241" stroke="#82D8FF" stroke-width="0.2"/>
<path d="M248.006 167.354L289.231 186.101" stroke="#82D8FF" stroke-width="0.2"/>
<path d="M248.857 132.874L290.083 151.621" stroke="#82D8FF" stroke-width="0.2"/>
<path d="M248.219 158.734L289.444 177.481" stroke="#82D8FF" stroke-width="0.2"/>
<path d="M248.538 145.804L289.764 164.551" stroke="#82D8FF" stroke-width="0.2"/>
<path d="M247.9 171.664L289.125 190.411" stroke="#82D8FF" stroke-width="0.2"/>
<path d="M248.751 137.184L289.976 155.931" stroke="#82D8FF" stroke-width="0.2"/>
<path d="M248.112 163.044L289.338 181.791" stroke="#82D8FF" stroke-width="0.2"/>
<path d="M248.432 150.114L289.657 168.861" stroke="#82D8FF" stroke-width="0.2"/>
<path d="M247.793 175.974L289.019 194.721" stroke="#82D8FF" stroke-width="0.2"/>
<path d="M280.069 165.559C279.968 165.531 279.881 165.465 279.82 165.371C279.76 165.277 279.729 165.16 279.734 165.039C279.9 160.706 279.503 156.408 278.555 152.288C278.523 152.151 278.54 152.003 278.602 151.874C278.665 151.746 278.767 151.648 278.888 151.602C278.948 151.579 279.011 151.569 279.073 151.574C279.135 151.58 279.194 151.599 279.248 151.632C279.302 151.665 279.348 151.71 279.385 151.766C279.422 151.821 279.448 151.885 279.462 151.954C280.438 156.177 280.849 160.582 280.681 165.024C280.672 165.167 280.617 165.305 280.525 165.409C280.434 165.513 280.313 165.575 280.188 165.583L280.069 165.559Z" fill="#67CFFF"/>
<path d="M278.162 176.547C278.045 176.501 277.951 176.402 277.901 176.273C277.851 176.143 277.848 175.993 277.894 175.854C278.046 175.297 278.26 174.725 278.424 174.125C278.909 172.327 279.262 170.493 279.48 168.645C279.498 168.499 279.565 168.364 279.666 168.27C279.768 168.175 279.895 168.128 280.021 168.14C280.147 168.152 280.26 168.22 280.336 168.331C280.413 168.442 280.446 168.586 280.428 168.732C280.204 170.642 279.841 172.537 279.341 174.396C279.172 175.017 279.006 175.626 278.791 176.199C278.767 176.268 278.732 176.332 278.688 176.387C278.643 176.442 278.59 176.487 278.532 176.519C278.473 176.552 278.411 176.571 278.347 176.575C278.284 176.58 278.221 176.57 278.162 176.547V176.547Z" fill="#67CFFF"/>
<path d="M255.41 150.968C255.299 150.936 255.206 150.856 255.148 150.744C255.09 150.632 255.072 150.497 255.099 150.365C255.276 149.429 255.489 148.504 255.73 147.621C257.119 142.522 259.443 138.666 262.28 136.744C262.334 136.707 262.394 136.683 262.455 136.672C262.516 136.661 262.578 136.665 262.636 136.682C262.695 136.7 262.749 136.73 262.796 136.773C262.843 136.815 262.881 136.869 262.909 136.93C262.938 136.991 262.956 137.059 262.961 137.13C262.966 137.201 262.959 137.273 262.94 137.342C262.921 137.412 262.891 137.477 262.851 137.534C262.81 137.591 262.761 137.64 262.706 137.676C260.095 139.449 257.929 143.08 256.617 147.894C256.385 148.746 256.145 149.629 256.003 150.541C255.99 150.611 255.966 150.679 255.931 150.74C255.896 150.801 255.851 150.854 255.798 150.895C255.746 150.937 255.688 150.967 255.627 150.983C255.566 150.999 255.504 151.001 255.443 150.989L255.41 150.968Z" fill="#67CFFF"/>
<path d="M277.619 148.342C277.552 148.324 277.49 148.287 277.438 148.237C277.387 148.186 277.346 148.122 277.32 148.049C276.33 145.077 274.855 142.377 272.971 140.085C270.524 137.227 267.821 136.019 265.164 136.643C265.041 136.668 264.917 136.638 264.819 136.558C264.721 136.478 264.656 136.355 264.639 136.215C264.631 136.145 264.634 136.072 264.65 136.002C264.666 135.931 264.694 135.864 264.732 135.805C264.77 135.745 264.817 135.694 264.871 135.655C264.925 135.615 264.985 135.588 265.047 135.574C268.018 134.942 271.008 136.2 273.664 139.359C275.627 141.747 277.167 144.559 278.205 147.652C278.25 147.782 278.248 147.93 278.199 148.064C278.149 148.199 278.057 148.308 277.942 148.37C277.832 148.405 277.718 148.395 277.619 148.342V148.342Z" fill="#67CFFF"/>
<path d="M258.401 152.295C258.285 152.261 258.188 152.175 258.129 152.056C258.071 151.937 258.057 151.794 258.089 151.657C258.178 151.331 258.267 151.006 258.356 150.68C259.373 146.948 260.986 144.131 263.022 142.54C263.074 142.498 263.132 142.468 263.193 142.451C263.254 142.434 263.316 142.432 263.377 142.443C263.437 142.455 263.494 142.48 263.544 142.518C263.594 142.556 263.637 142.605 263.669 142.663C263.735 142.782 263.756 142.928 263.728 143.07C263.7 143.212 263.625 143.34 263.52 143.426C261.678 144.869 260.203 147.466 259.255 150.945C259.172 151.25 259.086 151.566 259.003 151.871C258.986 151.94 258.958 152.006 258.92 152.065C258.882 152.124 258.835 152.174 258.781 152.213C258.727 152.252 258.667 152.279 258.606 152.292C258.544 152.305 258.482 152.304 258.422 152.29L258.401 152.295Z" fill="#67CFFF"/>
<path d="M264.841 142.499C264.742 142.471 264.656 142.405 264.596 142.312C264.536 142.22 264.505 142.105 264.509 141.985C264.512 141.866 264.55 141.749 264.616 141.653C264.682 141.557 264.773 141.486 264.874 141.452C266.245 140.992 267.682 141.065 268.957 141.659C269.071 141.707 269.161 141.806 269.208 141.935C269.255 142.064 269.254 142.211 269.207 142.346C269.155 142.481 269.062 142.59 268.945 142.651C268.829 142.712 268.699 142.72 268.583 142.673C267.493 142.181 266.269 142.131 265.105 142.531C265.015 142.547 264.924 142.535 264.841 142.499V142.499Z" fill="#67CFFF"/>
<path d="M275.312 183.008C275.222 182.982 275.143 182.925 275.083 182.845C275.024 182.765 274.987 182.665 274.978 182.558L274.872 180.879C274.63 177.623 274.938 174.305 275.777 171.106C278.207 162.191 276.341 150.497 271.633 144.994C271.59 144.945 271.558 144.886 271.536 144.821C271.515 144.756 271.506 144.686 271.509 144.615C271.512 144.543 271.527 144.473 271.554 144.407C271.581 144.341 271.619 144.282 271.666 144.231C271.71 144.179 271.763 144.136 271.821 144.107C271.879 144.077 271.941 144.061 272.004 144.059C272.066 144.057 272.127 144.07 272.183 144.096C272.24 144.123 272.29 144.162 272.331 144.212C277.237 149.956 279.192 162.142 276.688 171.329C275.875 174.405 275.579 177.596 275.817 180.727L275.924 182.405C275.93 182.476 275.923 182.547 275.905 182.616C275.887 182.686 275.857 182.751 275.816 182.808C275.776 182.865 275.727 182.913 275.672 182.949C275.617 182.984 275.556 183.008 275.495 183.017C275.433 183.029 275.371 183.026 275.312 183.008Z" fill="#67CFFF"/>
<path d="M256.314 170.863C256.222 170.836 256.141 170.776 256.082 170.691C256.023 170.607 255.99 170.502 255.986 170.391C255.887 164.995 256.353 159.565 257.372 154.217C257.387 154.146 257.413 154.078 257.45 154.016C257.487 153.955 257.533 153.903 257.587 153.861C257.641 153.82 257.701 153.791 257.763 153.776C257.825 153.761 257.889 153.761 257.95 153.774C258.069 153.806 258.17 153.889 258.234 154.007C258.297 154.125 258.318 154.268 258.292 154.409C257.277 159.651 256.804 164.976 256.884 170.27C256.887 170.341 256.879 170.413 256.858 170.482C256.837 170.551 256.804 170.615 256.762 170.67C256.719 170.725 256.668 170.771 256.611 170.804C256.554 170.838 256.493 170.858 256.431 170.863C256.392 170.869 256.353 170.869 256.314 170.863V170.863Z" fill="#67CFFF"/>
<path d="M271.703 185.77C271.611 185.745 271.53 185.687 271.47 185.605C271.411 185.522 271.377 185.418 271.372 185.309L271.199 181.168C270.991 177.116 271.403 173.009 272.417 169.034L273.543 164.903C274.881 159.993 273.499 153.122 270.461 149.578C269.047 147.922 267.501 147.249 266.114 147.703C264.728 148.156 263.648 149.62 263.038 151.859L262.041 155.518C260.52 161.489 259.937 167.663 260.32 173.739L260.572 178.698C260.576 178.769 260.568 178.841 260.547 178.911C260.527 178.98 260.495 179.044 260.453 179.101C260.412 179.157 260.361 179.204 260.305 179.239C260.249 179.274 260.187 179.296 260.125 179.304C260.001 179.319 259.88 179.278 259.788 179.189C259.695 179.1 259.64 178.971 259.633 178.829L259.381 173.871C259.002 167.662 259.608 161.357 261.169 155.26L262.163 151.612C262.879 148.984 264.203 147.229 265.908 146.676C267.613 146.124 269.498 146.874 271.157 148.807C274.392 152.591 275.896 159.941 274.466 165.187L273.34 169.318C272.358 173.168 271.962 177.145 272.168 181.069L272.336 185.196C272.34 185.266 272.332 185.338 272.311 185.406C272.291 185.475 272.259 185.538 272.218 185.594C272.176 185.649 272.126 185.696 272.07 185.73C272.014 185.763 271.954 185.784 271.892 185.791L271.703 185.77Z" fill="#67CFFF"/>
<path d="M267.328 186.101C267.232 186.073 267.148 186.01 267.088 185.921C267.028 185.832 266.996 185.721 266.997 185.605L267.044 182.939C267.084 178.245 267.711 173.542 268.907 168.973L270.643 162.603C270.966 161.139 270.986 159.629 270.7 158.198C270.415 156.766 269.832 155.454 269 154.37C268.75 153.996 268.416 153.709 268.029 153.539C267.642 153.369 267.217 153.321 266.796 153.401C266.407 153.576 266.059 153.863 265.787 154.234C265.516 154.604 265.33 155.045 265.249 155.511C263.313 162.617 262.933 171.354 264.17 180.113L264.639 183.421C264.648 183.491 264.646 183.563 264.631 183.633C264.616 183.704 264.59 183.771 264.553 183.832C264.516 183.892 264.47 183.944 264.417 183.985C264.364 184.026 264.304 184.055 264.243 184.07C264.181 184.086 264.118 184.087 264.058 184.074C263.997 184.062 263.94 184.036 263.89 183.997C263.839 183.958 263.797 183.908 263.764 183.849C263.732 183.791 263.71 183.724 263.7 183.654L263.241 180.35C261.972 171.422 262.37 162.509 264.35 155.245C264.473 154.593 264.745 153.98 265.137 153.47C265.529 152.961 266.026 152.573 266.578 152.348C267.159 152.213 267.752 152.256 268.296 152.473C268.839 152.689 269.314 153.072 269.672 153.581C270.613 154.802 271.273 156.281 271.598 157.896C271.923 159.511 271.904 161.216 271.542 162.868L269.8 169.26C268.626 173.727 268.011 178.328 267.972 182.918L267.928 185.574C267.928 185.646 267.915 185.717 267.891 185.785C267.866 185.852 267.83 185.914 267.785 185.966C267.74 186.019 267.686 186.061 267.628 186.09C267.57 186.119 267.507 186.134 267.445 186.135C267.404 186.133 267.364 186.121 267.328 186.101Z" fill="#67CFFF"/>
<path d="M265.306 173.52C265.205 173.489 265.117 173.418 265.057 173.321C264.998 173.223 264.97 173.103 264.977 172.98L265.177 170.608C265.371 168.328 265.773 166.064 266.377 163.852L267.99 157.934C268.028 157.795 268.111 157.675 268.223 157.601C268.334 157.528 268.463 157.506 268.583 157.541C268.702 157.577 268.801 157.666 268.859 157.789C268.916 157.913 268.927 158.06 268.889 158.2L267.276 164.118C266.703 166.24 266.32 168.41 266.132 170.595L265.933 172.967C265.928 173.038 265.911 173.108 265.882 173.173C265.853 173.237 265.814 173.296 265.767 173.344C265.719 173.392 265.664 173.43 265.605 173.454C265.546 173.479 265.484 173.49 265.422 173.486L265.306 173.52Z" fill="#67CFFF"/>
<path d="M254.549 158.017C254.438 157.983 254.344 157.902 254.285 157.791C254.226 157.679 254.206 157.544 254.228 157.411L254.804 154.265C254.832 154.123 254.906 153.996 255.011 153.91C255.116 153.824 255.243 153.787 255.366 153.806C255.428 153.815 255.487 153.838 255.539 153.875C255.591 153.911 255.636 153.959 255.67 154.017C255.704 154.075 255.727 154.141 255.738 154.212C255.748 154.282 255.746 154.354 255.732 154.425L255.156 157.572C255.143 157.643 255.119 157.711 255.084 157.773C255.049 157.834 255.004 157.888 254.951 157.93C254.899 157.973 254.84 158.004 254.779 158.021C254.718 158.038 254.655 158.041 254.594 158.031L254.549 158.017Z" fill="#67CFFF"/>
<g opacity="0.73">
<path d="M280.069 165.559C279.968 165.531 279.881 165.465 279.82 165.371C279.76 165.277 279.729 165.16 279.734 165.039C279.9 160.706 279.503 156.408 278.555 152.288C278.523 152.151 278.54 152.003 278.602 151.874C278.665 151.746 278.767 151.648 278.888 151.602C278.948 151.579 279.011 151.569 279.073 151.574C279.135 151.58 279.194 151.599 279.248 151.632C279.302 151.665 279.348 151.71 279.385 151.766C279.422 151.821 279.448 151.885 279.462 151.954C280.438 156.177 280.849 160.582 280.681 165.024C280.672 165.167 280.617 165.305 280.525 165.409C280.434 165.513 280.313 165.575 280.188 165.583L280.069 165.559Z" fill="#C5C5C5"/>
<path d="M278.162 176.547C278.045 176.501 277.951 176.402 277.901 176.273C277.851 176.143 277.848 175.993 277.894 175.854C278.046 175.297 278.26 174.725 278.424 174.125C278.909 172.327 279.262 170.493 279.48 168.645C279.498 168.499 279.565 168.364 279.666 168.27C279.768 168.175 279.895 168.128 280.021 168.14C280.147 168.152 280.26 168.22 280.336 168.331C280.413 168.442 280.446 168.586 280.428 168.732C280.204 170.642 279.841 172.537 279.341 174.396C279.172 175.017 279.006 175.626 278.791 176.199C278.767 176.268 278.732 176.332 278.688 176.387C278.643 176.442 278.59 176.487 278.532 176.519C278.473 176.552 278.411 176.571 278.347 176.575C278.284 176.58 278.221 176.57 278.162 176.547V176.547Z" fill="#C5C5C5"/>
<path d="M255.41 150.968C255.299 150.936 255.206 150.856 255.148 150.744C255.09 150.632 255.072 150.497 255.099 150.365C255.276 149.429 255.489 148.504 255.73 147.621C257.119 142.522 259.443 138.666 262.28 136.744C262.334 136.707 262.394 136.683 262.455 136.672C262.516 136.661 262.578 136.665 262.636 136.682C262.695 136.7 262.749 136.73 262.796 136.773C262.843 136.815 262.881 136.869 262.909 136.93C262.938 136.991 262.956 137.059 262.961 137.13C262.966 137.201 262.959 137.273 262.94 137.342C262.921 137.412 262.891 137.477 262.851 137.534C262.81 137.591 262.761 137.64 262.706 137.676C260.095 139.449 257.929 143.08 256.617 147.894C256.385 148.746 256.145 149.629 256.003 150.541C255.99 150.611 255.966 150.679 255.931 150.74C255.896 150.801 255.851 150.854 255.798 150.895C255.746 150.937 255.688 150.967 255.627 150.983C255.566 150.999 255.504 151.001 255.443 150.989L255.41 150.968Z" fill="#C5C5C5"/>
<path d="M277.619 148.342C277.552 148.324 277.49 148.287 277.438 148.237C277.387 148.186 277.346 148.122 277.32 148.049C276.33 145.077 274.855 142.377 272.971 140.085C270.524 137.227 267.821 136.019 265.164 136.643C265.041 136.668 264.917 136.638 264.819 136.558C264.721 136.478 264.656 136.355 264.639 136.215C264.631 136.145 264.634 136.072 264.65 136.002C264.666 135.931 264.694 135.864 264.732 135.805C264.77 135.745 264.817 135.694 264.871 135.655C264.925 135.615 264.985 135.588 265.047 135.574C268.018 134.942 271.008 136.2 273.664 139.359C275.627 141.747 277.167 144.559 278.205 147.652C278.25 147.782 278.248 147.93 278.199 148.064C278.149 148.199 278.057 148.308 277.942 148.37C277.832 148.405 277.718 148.395 277.619 148.342V148.342Z" fill="#C5C5C5"/>
<path d="M258.401 152.295C258.285 152.261 258.188 152.175 258.129 152.056C258.071 151.937 258.057 151.794 258.089 151.657C258.178 151.331 258.267 151.006 258.356 150.68C259.373 146.948 260.986 144.131 263.022 142.54C263.074 142.498 263.132 142.468 263.193 142.451C263.254 142.434 263.316 142.432 263.377 142.443C263.437 142.455 263.494 142.48 263.544 142.518C263.594 142.556 263.637 142.605 263.669 142.663C263.735 142.782 263.756 142.928 263.728 143.07C263.7 143.212 263.625 143.34 263.52 143.426C261.678 144.869 260.203 147.466 259.255 150.945C259.172 151.25 259.086 151.566 259.003 151.871C258.986 151.94 258.958 152.006 258.92 152.065C258.882 152.124 258.835 152.174 258.781 152.213C258.727 152.252 258.667 152.279 258.606 152.292C258.544 152.305 258.482 152.304 258.422 152.29L258.401 152.295Z" fill="#C5C5C5"/>
<path d="M264.841 142.499C264.742 142.471 264.656 142.405 264.596 142.312C264.536 142.22 264.505 142.105 264.509 141.985C264.512 141.866 264.55 141.749 264.616 141.653C264.682 141.557 264.773 141.486 264.874 141.452C266.245 140.992 267.682 141.065 268.957 141.659C269.071 141.707 269.161 141.806 269.208 141.935C269.255 142.064 269.254 142.211 269.207 142.346C269.155 142.481 269.062 142.59 268.945 142.651C268.829 142.712 268.699 142.72 268.583 142.673C267.493 142.181 266.269 142.131 265.105 142.531C265.015 142.547 264.924 142.535 264.841 142.499V142.499Z" fill="#C5C5C5"/>
<path d="M275.312 183.008C275.222 182.982 275.143 182.925 275.083 182.845C275.024 182.765 274.987 182.665 274.978 182.558L274.872 180.879C274.63 177.623 274.938 174.305 275.777 171.106C278.207 162.191 276.341 150.497 271.633 144.994C271.59 144.945 271.558 144.886 271.536 144.821C271.515 144.756 271.506 144.686 271.509 144.615C271.512 144.543 271.527 144.473 271.554 144.407C271.581 144.341 271.619 144.282 271.666 144.231C271.71 144.179 271.763 144.136 271.821 144.107C271.879 144.077 271.941 144.061 272.004 144.059C272.066 144.057 272.127 144.07 272.183 144.096C272.24 144.123 272.29 144.162 272.331 144.212C277.237 149.956 279.192 162.142 276.688 171.329C275.875 174.405 275.579 177.596 275.817 180.727L275.924 182.405C275.93 182.476 275.923 182.547 275.905 182.616C275.887 182.686 275.857 182.751 275.816 182.808C275.776 182.865 275.727 182.913 275.672 182.949C275.617 182.984 275.556 183.008 275.495 183.017C275.433 183.029 275.371 183.026 275.312 183.008Z" fill="#C5C5C5"/>
<path d="M256.314 170.863C256.222 170.836 256.141 170.776 256.082 170.691C256.023 170.607 255.99 170.502 255.986 170.391C255.887 164.995 256.353 159.565 257.372 154.217C257.387 154.146 257.413 154.078 257.45 154.016C257.487 153.955 257.533 153.903 257.587 153.861C257.641 153.82 257.701 153.791 257.763 153.776C257.825 153.761 257.889 153.761 257.95 153.774C258.069 153.806 258.17 153.889 258.234 154.007C258.297 154.125 258.318 154.268 258.292 154.409C257.277 159.651 256.804 164.976 256.884 170.27C256.887 170.341 256.879 170.413 256.858 170.482C256.837 170.551 256.804 170.615 256.762 170.67C256.719 170.725 256.668 170.771 256.611 170.804C256.554 170.838 256.493 170.858 256.431 170.863C256.392 170.869 256.353 170.869 256.314 170.863V170.863Z" fill="#C5C5C5"/>
<path d="M271.703 185.77C271.611 185.745 271.53 185.687 271.47 185.605C271.411 185.522 271.377 185.418 271.372 185.309L271.199 181.168C270.991 177.116 271.403 173.009 272.417 169.034L273.543 164.903C274.881 159.993 273.499 153.122 270.461 149.578C269.047 147.922 267.501 147.249 266.114 147.703C264.728 148.156 263.648 149.62 263.038 151.859L262.041 155.518C260.52 161.489 259.937 167.663 260.32 173.739L260.572 178.698C260.576 178.769 260.568 178.841 260.547 178.911C260.527 178.98 260.495 179.044 260.453 179.101C260.412 179.157 260.361 179.204 260.305 179.239C260.249 179.274 260.187 179.296 260.125 179.304C260.001 179.319 259.88 179.278 259.788 179.189C259.695 179.1 259.64 178.971 259.633 178.829L259.381 173.871C259.002 167.662 259.608 161.357 261.169 155.26L262.163 151.612C262.879 148.984 264.203 147.229 265.908 146.676C267.613 146.124 269.498 146.874 271.157 148.807C274.392 152.591 275.896 159.941 274.466 165.187L273.34 169.318C272.358 173.168 271.962 177.145 272.168 181.069L272.336 185.196C272.34 185.266 272.332 185.338 272.311 185.406C272.291 185.475 272.259 185.538 272.218 185.594C272.176 185.649 272.126 185.696 272.07 185.73C272.014 185.763 271.954 185.784 271.892 185.791L271.703 185.77Z" fill="#C5C5C5"/>
<path d="M267.328 186.101C267.232 186.073 267.148 186.01 267.088 185.921C267.028 185.832 266.996 185.721 266.997 185.605L267.044 182.939C267.084 178.245 267.711 173.542 268.907 168.973L270.643 162.603C270.966 161.139 270.986 159.629 270.7 158.198C270.415 156.766 269.832 155.454 269 154.37C268.75 153.996 268.416 153.709 268.029 153.539C267.642 153.369 267.217 153.321 266.796 153.401C266.407 153.576 266.059 153.863 265.787 154.234C265.516 154.604 265.33 155.045 265.249 155.511C263.313 162.617 262.933 171.354 264.17 180.113L264.639 183.421C264.648 183.491 264.646 183.563 264.631 183.633C264.616 183.704 264.59 183.771 264.553 183.832C264.516 183.892 264.47 183.944 264.417 183.985C264.364 184.026 264.304 184.055 264.243 184.07C264.181 184.086 264.118 184.087 264.058 184.074C263.997 184.062 263.94 184.036 263.89 183.997C263.839 183.958 263.797 183.908 263.764 183.849C263.732 183.791 263.71 183.724 263.7 183.654L263.241 180.35C261.972 171.422 262.37 162.509 264.35 155.245C264.473 154.593 264.745 153.98 265.137 153.47C265.529 152.961 266.026 152.573 266.578 152.348C267.159 152.213 267.752 152.256 268.296 152.473C268.839 152.689 269.314 153.072 269.672 153.581C270.613 154.802 271.273 156.281 271.598 157.896C271.923 159.511 271.904 161.216 271.542 162.868L269.8 169.26C268.626 173.727 268.011 178.328 267.972 182.918L267.928 185.574C267.928 185.646 267.915 185.717 267.891 185.785C267.866 185.852 267.83 185.914 267.785 185.966C267.74 186.019 267.686 186.061 267.628 186.09C267.57 186.119 267.507 186.134 267.445 186.135C267.404 186.133 267.364 186.121 267.328 186.101Z" fill="#C5C5C5"/>
<path d="M265.306 173.52C265.205 173.489 265.117 173.418 265.057 173.321C264.998 173.223 264.97 173.103 264.977 172.98L265.177 170.608C265.371 168.328 265.773 166.064 266.377 163.852L267.99 157.934C268.028 157.795 268.111 157.675 268.223 157.601C268.334 157.528 268.463 157.506 268.583 157.541C268.702 157.577 268.801 157.666 268.859 157.789C268.916 157.913 268.927 158.06 268.889 158.2L267.276 164.118C266.703 166.24 266.32 168.41 266.132 170.595L265.933 172.967C265.928 173.038 265.911 173.108 265.882 173.173C265.853 173.237 265.814 173.296 265.767 173.344C265.719 173.392 265.664 173.43 265.605 173.454C265.546 173.479 265.484 173.49 265.422 173.486L265.306 173.52Z" fill="#C5C5C5"/>
<path d="M254.549 158.017C254.438 157.983 254.344 157.902 254.285 157.791C254.226 157.679 254.206 157.544 254.228 157.411L254.804 154.265C254.832 154.123 254.906 153.996 255.011 153.91C255.116 153.824 255.243 153.787 255.366 153.806C255.428 153.815 255.487 153.838 255.539 153.875C255.591 153.911 255.636 153.959 255.67 154.017C255.704 154.075 255.727 154.141 255.738 154.212C255.748 154.282 255.746 154.354 255.732 154.425L255.156 157.572C255.143 157.643 255.119 157.711 255.084 157.773C255.049 157.834 255.004 157.888 254.951 157.93C254.899 157.973 254.84 158.004 254.779 158.021C254.718 158.038 254.655 158.041 254.594 158.031L254.549 158.017Z" fill="#C5C5C5"/>
</g>
<g filter="url(#filter2_d)">
<path d="M206.515 190.793L204.856 258.018C204.807 258.508 204.605 258.981 204.264 259.399C203.923 259.816 203.454 260.167 202.895 260.423L199.517 261.773C198.921 261.98 198.266 262.08 197.604 262.064C196.942 262.047 196.292 261.915 195.708 261.679L139.376 235.847C138.829 235.564 138.376 235.191 138.055 234.757C137.734 234.322 137.553 233.84 137.528 233.348L139.187 166.136C139.235 165.645 139.439 165.171 139.781 164.754C140.123 164.336 140.595 163.985 141.157 163.731L144.526 162.381C145.122 162.174 145.777 162.074 146.439 162.09C147.101 162.107 147.751 162.239 148.335 162.475L204.675 188.314C205.218 188.595 205.667 188.966 205.986 189.396C206.306 189.827 206.487 190.305 206.515 190.793V190.793Z" fill="white"/>
</g>
<path d="M187.375 191.852L193.048 195.004L192.862 202.529L190.376 201.338L190.487 196.823L187.301 194.862L187.375 191.852Z" fill="#82D8FF"/>
<path d="M147.019 234.939L141.347 231.787L141.533 224.262L144.019 225.453L143.907 229.968L147.093 231.929L147.019 234.939Z" fill="#82D8FF"/>
<path d="M142.857 170.627L146.641 172.637L148.532 173.642L148.465 176.391L144.68 174.422L144.559 179.294L142.672 178.123L142.857 170.627Z" fill="#82D8FF"/>
<path d="M191.561 255.206L187.029 252.469L185.898 251.691L185.954 249.443L189.738 251.411L189.859 246.539L191.746 247.711L191.561 255.206Z" fill="#82D8FF"/>
<path d="M206.59 189.93L196.941 192.567L195.25 261.047C196.431 263.13 199.808 261.874 203.191 260.326C204.224 259.853 204.889 258.825 204.917 257.689L206.59 189.93Z" fill="#E8F8FF"/>
<path d="M147.38 162.113C142.782 162 139.658 164.319 139.144 165.743L197.42 192.579L205.034 190.248C205.914 189.978 205.993 188.762 205.155 188.381L147.38 162.113Z" fill="#E8F8FF"/>
<path d="M147.782 194.604L147.456 207.806" stroke="#5FCDFF" stroke-width="0.5"/>
<path opacity="0.47" d="M184.29 213.999L183.964 227.201" stroke="#5FCDFF" stroke-width="0.5"/>
<path d="M145.109 195.859L144.913 203.78" stroke="#5FCDFF" stroke-width="0.5"/>
<path opacity="0.47" d="M186.898 215.384L186.702 223.305" stroke="#5FCDFF" stroke-width="0.5"/>
<path d="M150.487 192.029L149.966 213.151" stroke="#5FCDFF" stroke-width="0.5"/>
<path d="M168.676 204.367L168.155 225.489" stroke="#5FCDFF" stroke-width="0.5"/>
<path d="M170.828 224.234L171.349 203.112" stroke="#5FCDFF" stroke-width="0.5"/>
<path d="M153.16 190.774L152.573 214.537" stroke="#5FCDFF" stroke-width="0.5"/>
<path d="M166.134 200.341L165.547 224.104" stroke="#5FCDFF" stroke-width="0.5"/>
<path opacity="0.47" d="M173.37 228.26L173.957 204.497" stroke="#5FCDFF" stroke-width="0.5"/>
<path d="M155.866 188.199L155.149 217.242" stroke="#5FCDFF" stroke-width="0.5"/>
<path d="M160.951 196.25L160.234 225.294" stroke="#5FCDFF" stroke-width="0.5"/>
<path opacity="0.47" d="M178.553 232.351L179.27 203.307" stroke="#5FCDFF" stroke-width="0.5"/>
<path d="M163.721 191.035L162.809 227.999" stroke="#5FCDFF" stroke-width="0.5"/>
<path opacity="0.47" d="M175.782 237.566L176.695 200.602" stroke="#5FCDFF" stroke-width="0.5"/>
<path d="M158.408 192.224L157.756 218.628" stroke="#5FCDFF" stroke-width="0.5"/>
<path opacity="0.47" d="M181.095 236.376L181.747 209.973" stroke="#5FCDFF" stroke-width="0.5"/>
<g opacity="0.63">
<path d="M147.782 194.604L147.456 207.806" stroke="#747474" stroke-width="0.5"/>
<path opacity="0.47" d="M184.29 213.999L183.964 227.201" stroke="#747474" stroke-width="0.5"/>
<path d="M145.109 195.859L144.913 203.78" stroke="#747474" stroke-width="0.5"/>
<path opacity="0.47" d="M186.898 215.384L186.702 223.305" stroke="#747474" stroke-width="0.5"/>
<path d="M150.487 192.029L149.966 213.151" stroke="#747474" stroke-width="0.5"/>
<path d="M168.676 204.367L168.155 225.489" stroke="#747474" stroke-width="0.5"/>
<path d="M170.828 224.234L171.349 203.112" stroke="#747474" stroke-width="0.5"/>
<path d="M153.16 190.774L152.573 214.537" stroke="#747474" stroke-width="0.5"/>
<path d="M166.134 200.341L165.547 224.104" stroke="#747474" stroke-width="0.5"/>
<path opacity="0.47" d="M173.37 228.26L173.957 204.497" stroke="#747474" stroke-width="0.5"/>
<path d="M155.866 188.199L155.149 217.242" stroke="#747474" stroke-width="0.5"/>
<path d="M160.951 196.25L160.234 225.294" stroke="#747474" stroke-width="0.5"/>
<path opacity="0.47" d="M178.553 232.351L179.27 203.307" stroke="#747474" stroke-width="0.5"/>
<path d="M163.721 191.035L162.809 227.999" stroke="#747474" stroke-width="0.5"/>
<path opacity="0.47" d="M175.782 237.566L176.695 200.602" stroke="#747474" stroke-width="0.5"/>
<path d="M158.408 192.224L157.756 218.628" stroke="#747474" stroke-width="0.5"/>
<path opacity="0.47" d="M181.095 236.376L181.747 209.973" stroke="#747474" stroke-width="0.5"/>
</g>
<path d="M146.451 180.299L187.677 199.047" stroke="#82D8FF" stroke-width="0.2"/>
<path d="M145.813 206.159L187.038 224.906" stroke="#82D8FF" stroke-width="0.2"/>
<path d="M146.132 193.229L187.358 211.976" stroke="#82D8FF" stroke-width="0.2"/>
<path d="M145.494 219.089L186.719 237.836" stroke="#82D8FF" stroke-width="0.2"/>
<path d="M146.345 184.609L187.57 203.356" stroke="#82D8FF" stroke-width="0.2"/>
<path d="M145.707 210.469L186.932 229.216" stroke="#82D8FF" stroke-width="0.2"/>
<path d="M146.026 197.539L187.251 216.286" stroke="#82D8FF" stroke-width="0.2"/>
<path d="M145.387 223.399L186.613 242.146" stroke="#82D8FF" stroke-width="0.2"/>
<path d="M146.239 188.919L187.464 207.667" stroke="#82D8FF" stroke-width="0.2"/>
<path d="M145.6 214.779L186.826 233.526" stroke="#82D8FF" stroke-width="0.2"/>
<path d="M145.919 201.849L187.145 220.596" stroke="#82D8FF" stroke-width="0.2"/>
<path d="M145.281 227.709L186.506 246.456" stroke="#82D8FF" stroke-width="0.2"/>
<g filter="url(#filter3_d)">
<path d="M306.153 237.785L304.493 305.01C304.445 305.5 304.242 305.973 303.902 306.391C303.561 306.808 303.092 307.159 302.533 307.415L299.154 308.765C298.559 308.972 297.903 309.072 297.242 309.056C296.58 309.039 295.93 308.907 295.345 308.671L239.014 282.838C238.466 282.556 238.014 282.183 237.693 281.748C237.371 281.314 237.191 280.832 237.166 280.34L238.825 213.128C238.873 212.637 239.077 212.163 239.419 211.746C239.761 211.328 240.233 210.977 240.795 210.723L244.164 209.373C244.76 209.166 245.415 209.066 246.077 209.082C246.739 209.099 247.388 209.231 247.973 209.467L304.313 235.306C304.856 235.587 305.305 235.958 305.624 236.388C305.944 236.819 306.125 237.297 306.153 237.785V237.785Z" fill="white"/>
</g>
<path d="M306.228 236.922L296.579 239.559L294.888 308.039C296.069 310.122 299.445 308.866 302.829 307.318C303.862 306.845 304.527 305.817 304.555 304.681L306.228 236.922Z" fill="#E8F8FF"/>
<path d="M247.017 209.106C242.42 208.992 239.296 211.311 238.782 212.736L297.058 239.571L304.671 237.24C305.552 236.971 305.631 235.755 304.793 235.374L247.017 209.106Z" fill="#E8F8FF"/>
<g filter="url(#filter4_d)">
<path d="M242.189 252.328L245.866 250.301C245.939 250.271 246 250.218 246.039 250.15L246.773 249.004L244.646 247.71L244.712 247.902L242.189 252.328Z" fill="#74BBDE"/>
<path d="M244.937 247.915L242.32 252.197C242.286 252.267 242.232 252.326 242.163 252.364C242.095 252.402 242.016 252.417 241.939 252.408C241.861 252.4 241.788 252.367 241.73 252.314C241.672 252.261 241.632 252.192 241.616 252.116L239.153 244.399L244.937 247.915Z" fill="#68CBFB"/>
<path d="M236.521 226.679C236.568 226.072 236.759 225.484 237.077 224.965C237.395 224.445 237.832 224.008 238.352 223.69C238.905 223.425 239.512 223.295 240.125 223.311C240.738 223.326 241.338 223.485 241.878 223.777L271.159 238.544C271.66 238.889 272.061 239.848 272.351 240.382C272.642 240.917 272.891 241.596 272.909 242.204L272.508 258.471C272.46 259.077 272.192 259.141 271.876 259.661C271.258 260.248 271.173 259.913 270.656 260.233C270.103 260.498 269.446 260.806 268.834 260.791C268.221 260.776 266.978 260.421 266.439 260.129L237.681 244.009C236.13 243.075 236.138 242.172 236.166 241.058L236.521 226.679Z" fill="#6ED0FF"/>
<path opacity="0.3" d="M236.582 226.187C236.805 225.444 237.488 225.228 238.287 225.714L268.105 241.483C268.616 241.814 268.416 241.557 268.692 242.1L272.337 240.985C271.779 239.163 271.655 238.884 271.149 238.544L241.856 223.777C241.317 223.486 240.716 223.327 240.104 223.312C239.491 223.297 238.883 223.426 238.33 223.69C237.884 223.965 237.5 224.329 237.199 224.758C236.899 225.188 236.689 225.674 236.582 226.187Z" fill="white"/>
<path d="M239.964 233.696L261.557 244.238" stroke="#056492" stroke-width="0.5" stroke-linecap="round"/>
<path d="M240.185 236.891L261.778 247.432" stroke="#056492" stroke-width="0.5" stroke-linecap="round"/>
<path d="M240.407 240.085L262 250.627" stroke="#056492" stroke-width="0.5" stroke-linecap="round"/>
<path opacity="0.1" d="M272.518 257.185C272.47 257.792 272.824 257.951 272.508 258.471C272.191 258.99 271.775 259.928 271.258 260.248C270.758 260.487 269.372 261.382 268.819 261.394C268.265 261.405 267.536 260.963 267.026 260.746C267.843 261.077 268.497 260.019 268.522 259.025L268.877 244.646C268.87 244.035 268.995 242.631 268.692 242.1L272.351 240.382C272.656 240.91 272.889 242.198 272.894 242.807L272.518 257.185Z" fill="black"/>
</g>
<g filter="url(#filter5_d)">
<path d="M281.576 299.008L284.825 297.218C284.89 297.192 284.943 297.145 284.978 297.085L285.627 296.072L283.747 294.928L283.805 295.098L281.576 299.008Z" fill="#E6E6E6"/>
<path d="M284.004 295.109L281.691 298.893C281.662 298.955 281.614 299.007 281.553 299.04C281.493 299.074 281.424 299.088 281.355 299.08C281.286 299.072 281.222 299.043 281.171 298.997C281.12 298.95 281.084 298.889 281.07 298.821L278.894 292.003L284.004 295.109Z" fill="#F0F0F0"/>
<path d="M261.35 269.057C261.392 268.52 261.561 268.001 261.842 267.542C262.123 267.083 262.509 266.697 262.968 266.416C263.456 266.182 263.993 266.067 264.535 266.081C265.076 266.094 265.607 266.235 266.083 266.493L291.956 279.541C292.399 279.846 292.753 280.693 293.01 281.165C293.267 281.638 293.488 282.238 293.503 282.776L293.149 297.149C293.106 297.684 292.87 297.741 292.59 298.2C292.044 298.719 291.969 298.423 291.512 298.706C291.024 298.94 290.443 299.212 289.902 299.199C289.36 299.186 288.262 298.872 287.786 298.614L262.375 284.37C261.005 283.545 261.012 282.747 261.036 281.762L261.35 269.057Z" fill="#F0F0F0"/>
<path d="M264.419 274.193L283.499 283.508" stroke="#056492" stroke-width="0.5" stroke-linecap="round"/>
<path d="M264.614 277.016L283.694 286.33" stroke="#056492" stroke-width="0.5" stroke-linecap="round"/>
<path d="M264.81 279.838L283.89 289.153" stroke="#056492" stroke-width="0.5" stroke-linecap="round"/>
<path opacity="0.1" d="M293.184 294.948C293.142 295.484 293.455 295.625 293.175 296.084C292.895 296.543 292.528 297.372 292.071 297.655C291.629 297.865 290.404 298.656 289.915 298.667C289.426 298.677 288.782 298.286 288.331 298.095C289.053 298.387 289.631 297.452 289.653 296.574L289.967 283.868C289.961 283.329 290.071 282.088 289.803 281.619L293.037 280.101C293.306 280.567 293.512 281.705 293.516 282.243L293.184 294.948Z" fill="black"/>
<path d="M261.404 268.622C261.601 267.966 262.204 267.775 262.911 268.204L289.258 282.138C289.71 282.431 289.533 282.203 289.777 282.684L292.997 281.698C292.504 280.088 292.395 279.841 291.947 279.541L266.064 266.493C265.587 266.236 265.057 266.095 264.516 266.082C263.974 266.068 263.437 266.183 262.949 266.416C262.555 266.659 262.215 266.98 261.949 267.36C261.684 267.739 261.498 268.169 261.404 268.622Z" fill="#E8E8E8"/>
</g>
<defs>
<filter id="filter0_d" x="114.814" y="61.3171" width="102.331" height="132.326" filterUnits="userSpaceOnUse" color-interpolation-filters="sRGB">
<feFlood flood-opacity="0" result="BackgroundImageFix"/>
<feColorMatrix in="SourceAlpha" type="matrix" values="0 0 0 0 0 0 0 0 0 0 0 0 0 0 0 0 0 0 127 0"/>
<feOffset dx="-7" dy="16"/>
<feGaussianBlur stdDeviation="8"/>
<feColorMatrix type="matrix" values="0 0 0 0 0 0 0 0 0 0 0 0 0 0 0 0 0 0 0.07 0"/>
<feBlend mode="normal" in2="BackgroundImageFix" result="effect1_dropShadow"/>
<feBlend mode="normal" in="SourceGraphic" in2="effect1_dropShadow" result="shape"/>
</filter>
<filter id="filter1_d" x="216.368" y="110.178" width="102.331" height="132.326" filterUnits="userSpaceOnUse" color-interpolation-filters="sRGB">
<feFlood flood-opacity="0" result="BackgroundImageFix"/>
<feColorMatrix in="SourceAlpha" type="matrix" values="0 0 0 0 0 0 0 0 0 0 0 0 0 0 0 0 0 0 127 0"/>
<feOffset dx="-7" dy="16"/>
<feGaussianBlur stdDeviation="8"/>
<feColorMatrix type="matrix" values="0 0 0 0 0 0 0 0 0 0 0 0 0 0 0 0 0 0 0.07 0"/>
<feBlend mode="normal" in2="BackgroundImageFix" result="effect1_dropShadow"/>
<feBlend mode="normal" in="SourceGraphic" in2="effect1_dropShadow" result="shape"/>
</filter>
<filter id="filter2_d" x="113.856" y="161.914" width="102.331" height="132.326" filterUnits="userSpaceOnUse" color-interpolation-filters="sRGB">
<feFlood flood-opacity="0" result="BackgroundImageFix"/>
<feColorMatrix in="SourceAlpha" type="matrix" values="0 0 0 0 0 0 0 0 0 0 0 0 0 0 0 0 0 0 127 0"/>
<feOffset dx="-7" dy="16"/>
<feGaussianBlur stdDeviation="8"/>
<feColorMatrix type="matrix" values="0 0 0 0 0 0 0 0 0 0 0 0 0 0 0 0 0 0 0.07 0"/>
<feBlend mode="normal" in2="BackgroundImageFix" result="effect1_dropShadow"/>
<feBlend mode="normal" in="SourceGraphic" in2="effect1_dropShadow" result="shape"/>
</filter>
<filter id="filter3_d" x="213.494" y="208.906" width="102.331" height="132.326" filterUnits="userSpaceOnUse" color-interpolation-filters="sRGB">
<feFlood flood-opacity="0" result="BackgroundImageFix"/>
<feColorMatrix in="SourceAlpha" type="matrix" values="0 0 0 0 0 0 0 0 0 0 0 0 0 0 0 0 0 0 127 0"/>
<feOffset dx="-7" dy="16"/>
<feGaussianBlur stdDeviation="8"/>
<feColorMatrix type="matrix" values="0 0 0 0 0 0 0 0 0 0 0 0 0 0 0 0 0 0 0.07 0"/>
<feBlend mode="normal" in2="BackgroundImageFix" result="effect1_dropShadow"/>
<feBlend mode="normal" in="SourceGraphic" in2="effect1_dropShadow" result="shape"/>
</filter>
<filter id="filter4_d" x="235.699" y="218.224" width="50.6567" height="48.2633" filterUnits="userSpaceOnUse" color-interpolation-filters="sRGB">
<feFlood flood-opacity="0" result="BackgroundImageFix"/>
<feColorMatrix in="SourceAlpha" type="matrix" values="0 0 0 0 0 0 0 0 0 0 0 0 0 0 0 0 0 0 127 0"/>
<feOffset dx="8"/>
<feGaussianBlur stdDeviation="2.5"/>
<feColorMatrix type="matrix" values="0 0 0 0 0 0 0 0 0 0 0 0 0 0 0 0 0 0 0.06 0"/>
<feBlend mode="normal" in2="BackgroundImageFix" result="effect1_dropShadow"/>
<feBlend mode="normal" in="SourceGraphic" in2="effect1_dropShadow" result="shape"/>
</filter>
<filter id="filter5_d" x="261.031" y="258.08" width="46.4857" height="45.1198" filterUnits="userSpaceOnUse" color-interpolation-filters="sRGB">
<feFlood flood-opacity="0" result="BackgroundImageFix"/>
<feColorMatrix in="SourceAlpha" type="matrix" values="0 0 0 0 0 0 0 0 0 0 0 0 0 0 0 0 0 0 127 0"/>
<feOffset dx="8" dy="-2"/>
<feGaussianBlur stdDeviation="3"/>
<feColorMatrix type="matrix" values="0 0 0 0 0 0 0 0 0 0 0 0 0 0 0 0 0 0 0.06 0"/>
<feBlend mode="normal" in2="BackgroundImageFix" result="effect1_dropShadow"/>
<feBlend mode="normal" in="SourceGraphic" in2="effect1_dropShadow" result="shape"/>
</filter>
</defs>
</svg>
