<svg width="342" height="407" viewBox="0 0 342 407" fill="none" xmlns="http://www.w3.org/2000/svg">
<path d="M171 407C265.441 407 342 353.946 342 288.5C342 223.054 265.441 170 171 170C76.5593 170 0 223.054 0 288.5C0 353.946 76.5593 407 171 407Z" fill="#EFF6FF"/>
<path d="M234.518 341.833L237.439 340.144C238.689 339.329 239.729 338.231 240.475 336.938C241.22 335.645 241.65 334.195 241.729 332.705V76.652C241.65 75.1619 241.22 73.7115 240.475 72.4188C239.729 71.1261 238.689 70.0276 237.439 69.2127L119.345 1.02623C118.014 0.351569 116.542 0 115.049 0C113.557 0 112.085 0.351569 110.753 1.02623L107.787 2.71492C106.537 3.52986 105.497 4.62835 104.751 5.92104C104.006 7.21373 103.576 8.66413 103.497 10.1543V266.207C103.576 267.697 104.006 269.148 104.751 270.44C105.497 271.733 106.537 272.831 107.787 273.646L225.915 341.833C227.248 342.508 228.722 342.859 230.217 342.859C231.711 342.859 233.185 342.508 234.518 341.833Z" fill="#196E96"/>
<path d="M224.454 81.661L240.428 72.4188C241.2 73.7 241.632 75.1571 241.684 76.6519V332.705C241.604 334.195 241.175 335.645 240.429 336.938C239.684 338.231 238.643 339.329 237.393 340.144L234.472 341.833C233.139 342.508 231.665 342.859 230.171 342.859C228.676 342.859 227.203 342.508 225.869 341.833L224.409 340.988L224.454 81.661Z" fill="#05354C"/>
<path d="M230.217 83.3042V339.357C230.217 342.095 228.288 343.202 225.915 341.833L107.787 273.647C106.537 272.832 105.497 271.733 104.751 270.44C104.006 269.148 103.576 267.697 103.497 266.207V10.1544C103.497 7.416 105.414 6.30922 107.787 7.67843L225.915 75.8763C227.163 76.6922 228.202 77.7891 228.949 79.079C229.696 80.369 230.13 81.8161 230.217 83.3042Z" fill="#1F6180"/>
<path d="M220.746 99.4835L113.366 37.4927C111.335 36.3517 109.681 37.2759 109.681 39.6264V243.866C109.751 245.146 110.121 246.391 110.761 247.501C111.401 248.611 112.294 249.554 113.366 250.256L220.746 312.269C222.788 313.41 224.431 312.486 224.431 310.136V105.896C224.369 104.611 224.003 103.36 223.362 102.245C222.721 101.13 221.825 100.184 220.746 99.4835Z" fill="#FAFAFA"/>
<path d="M166.868 48.4121C165.282 47.4993 163.992 48.2409 163.992 50.0779C164.045 51.0767 164.334 52.0488 164.833 52.9152C165.333 53.7816 166.03 54.5179 166.868 55.0641C168.465 55.9884 169.754 55.2353 169.754 53.4097C169.7 52.4084 169.41 51.434 168.909 50.5657C168.407 49.6974 167.708 48.9595 166.868 48.4121Z" fill="#263238"/>
<path d="M175.186 62.8003C169.332 59.5713 158.903 53.3528 153.13 49.964C152.149 49.3821 151.361 49.7814 151.361 50.854C151.407 51.4514 151.591 52.0299 151.9 52.5431C152.209 53.0563 152.634 53.4899 153.141 53.8092L175.231 66.5656C176.213 67.1361 177.011 66.7254 177.011 65.6642C176.961 65.0749 176.768 64.5066 176.45 64.0079C176.133 63.5091 175.699 63.0948 175.186 62.8003Z" fill="#263238"/>
<path d="M180.811 66.0293C179.921 65.5044 179.202 65.9266 179.202 66.9535C179.23 67.515 179.391 68.0618 179.67 68.5496C179.95 69.0373 180.341 69.4521 180.811 69.7604C181.701 70.2738 182.431 69.8516 182.431 68.8247C182.399 68.2644 182.235 67.7196 181.954 67.234C181.673 66.7484 181.281 66.3358 180.811 66.0293V66.0293Z" fill="#263238"/>
<path d="M57.3794 231.872C57.4465 230.652 57.7997 229.466 58.4104 228.409C59.0211 227.351 59.8722 226.453 60.8948 225.785L63.7543 224.132C64.846 223.587 66.0495 223.304 67.2697 223.304C68.4899 223.304 69.6934 223.587 70.7851 224.132L165.767 278.936C166.789 279.604 167.64 280.502 168.251 281.56C168.862 282.617 169.215 283.803 169.282 285.023V296.212C169.215 297.431 168.862 298.617 168.251 299.674C167.64 300.732 166.789 301.631 165.767 302.298L162.894 303.951C161.806 304.501 160.604 304.787 159.385 304.787C158.166 304.787 156.964 304.501 155.876 303.951L60.8948 249.147C59.8708 248.481 59.0186 247.583 58.4076 246.525C57.7967 245.467 57.4444 244.28 57.3794 243.061V231.872Z" fill="#1F6180"/>
<path d="M169.282 296.211C169.217 297.431 168.865 298.618 168.254 299.676C167.643 300.733 166.791 301.632 165.767 302.298L162.894 303.95C161.903 304.446 160.818 304.727 159.71 304.775C158.602 304.822 157.497 304.635 156.467 304.226C158.133 304.855 159.392 303.924 159.392 301.917V290.741C159.351 289.513 158.994 288.316 158.356 287.265L168.246 281.559C168.883 282.606 169.24 283.798 169.282 285.022V296.211Z" fill="#05354C"/>
<path d="M57.4977 230.901C57.9043 229.405 59.2685 228.933 60.895 229.865L155.877 284.681C156.92 285.322 157.775 286.227 158.356 287.305L168.233 281.599C167.653 280.525 166.803 279.621 165.767 278.975L70.7985 224.159C69.7068 223.614 68.5033 223.33 67.2831 223.33C66.0629 223.33 64.8594 223.614 63.7677 224.159L60.895 225.824C60.014 226.396 59.2584 227.141 58.6744 228.013C58.0903 228.886 57.6899 229.868 57.4977 230.901Z" fill="#347898"/>
<path d="M147.298 285.993C145.449 284.931 143.953 285.796 143.953 287.921C144.016 289.081 144.351 290.209 144.933 291.214C145.514 292.22 146.324 293.073 147.298 293.706C149.135 294.768 150.63 293.903 150.63 291.778C150.567 290.62 150.232 289.493 149.654 288.488C149.075 287.483 148.268 286.629 147.298 285.993V285.993Z" fill="#E6E6E6"/>
<path d="M136.254 279.658C134.418 278.595 132.922 279.461 132.922 281.586C132.984 282.744 133.318 283.871 133.897 284.876C134.476 285.881 135.283 286.736 136.254 287.37C138.103 288.433 139.586 287.567 139.586 285.442C139.524 284.284 139.19 283.157 138.611 282.152C138.032 281.147 137.224 280.292 136.254 279.658V279.658Z" fill="#E6E6E6"/>
<path d="M125.17 273.296C123.32 272.233 121.825 273.086 121.825 275.224C121.888 276.381 122.224 277.507 122.806 278.51C123.387 279.513 124.197 280.365 125.17 280.995C127.006 282.058 128.501 281.192 128.501 279.067C128.438 277.911 128.104 276.786 127.525 275.783C126.946 274.781 126.139 273.928 125.17 273.296Z" fill="#E6E6E6"/>
<path d="M114.177 266.921C112.341 265.858 110.845 266.724 110.845 268.849C110.908 270.005 111.243 271.13 111.822 272.133C112.401 273.135 113.208 273.987 114.177 274.62C116.027 275.683 117.522 274.83 117.522 272.692C117.458 271.535 117.122 270.408 116.541 269.406C115.96 268.403 115.15 267.551 114.177 266.921V266.921Z" fill="#E6E6E6"/>
<path d="M103.146 260.546C101.296 259.483 99.8011 260.349 99.8011 262.474C99.8657 263.633 100.202 264.76 100.783 265.765C101.364 266.77 102.174 267.624 103.146 268.258C104.982 269.321 106.478 268.455 106.478 266.33C106.416 265.172 106.082 264.045 105.503 263.04C104.924 262.035 104.117 261.18 103.146 260.546V260.546Z" fill="#E6E6E6"/>
<path d="M92.1014 254.171C90.265 253.108 88.7696 253.974 88.7696 256.099C88.8328 257.257 89.1672 258.384 89.746 259.388C90.3247 260.393 91.1316 261.248 92.1014 261.884C93.9509 262.946 95.4463 262.08 95.4463 259.955C95.3837 258.796 95.0482 257.668 94.4669 256.662C93.8857 255.657 93.0751 254.803 92.1014 254.171V254.171Z" fill="#E6E6E6"/>
<path d="M81.0696 247.796C79.2332 246.733 77.7378 247.599 77.7378 249.724C77.7999 250.882 78.1339 252.009 78.7128 253.014C79.2916 254.019 80.099 254.874 81.0696 255.509C82.906 256.571 84.4014 255.706 84.4014 253.581C84.3362 252.423 84.0009 251.297 83.4223 250.293C82.8437 249.288 82.038 248.433 81.0696 247.796V247.796Z" fill="#E6E6E6"/>
<path d="M70.0774 241.395C68.2279 240.332 66.7325 241.185 66.7325 243.323C66.7961 244.481 67.1321 245.607 67.7134 246.61C68.2947 247.613 69.1047 248.464 70.0774 249.095C71.9138 250.157 73.4092 249.291 73.4092 247.166C73.3461 246.01 73.0116 244.885 72.4327 243.883C71.8539 242.88 71.047 242.028 70.0774 241.395V241.395Z" fill="#E6E6E6"/>
<path d="M57.3794 268.77C57.4465 267.551 57.7997 266.365 58.4104 265.307C59.0211 264.25 59.8722 263.351 60.8948 262.684L63.7543 261.07C64.846 260.525 66.0495 260.242 67.2697 260.242C68.4899 260.242 69.6934 260.525 70.7851 261.07L165.767 315.874C166.791 316.54 167.643 317.438 168.254 318.496C168.865 319.554 169.217 320.741 169.282 321.961V333.15C169.215 334.369 168.862 335.555 168.251 336.612C167.64 337.67 166.789 338.568 165.767 339.236L162.894 340.889C161.806 341.439 160.604 341.725 159.385 341.725C158.166 341.725 156.964 341.439 155.876 340.889L60.8948 285.993C59.8708 285.327 59.0186 284.429 58.4076 283.371C57.7967 282.314 57.4444 281.126 57.3794 279.907V268.77Z" fill="#1F6180"/>
<path d="M169.282 333.11C169.215 334.329 168.862 335.515 168.251 336.573C167.64 337.63 166.789 338.529 165.767 339.196L162.894 340.849C161.903 341.345 160.818 341.626 159.71 341.674C158.602 341.721 157.497 341.534 156.467 341.125C158.133 341.754 159.392 340.823 159.392 338.816V327.627C159.349 326.403 158.992 325.21 158.356 324.164L168.246 318.458C168.883 319.504 169.24 320.697 169.282 321.921V333.11Z" fill="#05354C"/>
<path d="M57.4977 267.773C57.9043 266.278 59.2685 265.806 60.895 266.737L155.877 321.554C156.92 322.195 157.775 323.1 158.356 324.177L168.233 318.471C167.653 317.397 166.803 316.493 165.767 315.848L70.7985 261.07C69.7068 260.525 68.5033 260.242 67.2831 260.242C66.0629 260.242 64.8594 260.525 63.7677 261.07L60.895 262.736C60.0183 263.303 59.2653 264.042 58.6814 264.907C58.0976 265.773 57.6949 266.748 57.4977 267.773V267.773Z" fill="#347898"/>
<path d="M147.298 322.931C145.449 321.869 143.953 322.734 143.953 324.859C144.018 326.018 144.354 327.146 144.935 328.151C145.516 329.156 146.326 330.01 147.298 330.644C149.135 331.706 150.63 330.841 150.63 328.716C150.568 327.558 150.234 326.43 149.655 325.425C149.076 324.42 148.269 323.566 147.298 322.931V322.931Z" fill="#E6E6E6"/>
<path d="M136.254 316.556C134.418 315.494 132.922 316.359 132.922 318.484C132.985 319.642 133.32 320.769 133.898 321.774C134.477 322.779 135.284 323.634 136.254 324.269C138.103 325.332 139.586 324.466 139.586 322.341C139.526 321.182 139.193 320.054 138.613 319.049C138.034 318.044 137.226 317.19 136.254 316.556V316.556Z" fill="#E6E6E6"/>
<path d="M125.17 310.194C123.32 309.119 121.825 309.984 121.825 312.109C121.886 313.269 122.221 314.398 122.803 315.403C123.384 316.409 124.195 317.262 125.17 317.894C127.006 318.957 128.501 318.091 128.501 315.966C128.438 314.81 128.104 313.685 127.525 312.682C126.946 311.679 126.139 310.827 125.17 310.194V310.194Z" fill="#E6E6E6"/>
<path d="M114.177 303.819C112.341 302.757 110.845 303.609 110.845 305.747C110.908 306.903 111.243 308.028 111.822 309.031C112.401 310.034 113.208 310.886 114.177 311.519C116.027 312.581 117.522 311.729 117.522 309.591C117.458 308.433 117.122 307.307 116.541 306.304C115.96 305.301 115.15 304.45 114.177 303.819V303.819Z" fill="#E6E6E6"/>
<path d="M103.146 297.444C101.296 296.382 99.8011 297.248 99.8011 299.373C99.8647 300.53 100.201 301.656 100.782 302.659C101.363 303.662 102.173 304.514 103.146 305.144C104.982 306.207 106.478 305.354 106.478 303.229C106.416 302.071 106.082 300.944 105.503 299.939C104.924 298.934 104.117 298.079 103.146 297.444V297.444Z" fill="#E6E6E6"/>
<path d="M92.1014 291.069C90.265 290.007 88.7696 290.873 88.7696 292.998C88.8348 294.155 89.1701 295.281 89.7487 296.286C90.3273 297.29 91.133 298.145 92.1014 298.782C93.9509 299.845 95.4463 298.979 95.4463 296.854C95.3848 295.694 95.0497 294.566 94.4683 293.56C93.8869 292.555 93.0759 291.701 92.1014 291.069V291.069Z" fill="#E6E6E6"/>
<path d="M81.0696 284.681C79.2332 283.619 77.7378 284.484 77.7378 286.609C77.801 287.767 78.1354 288.894 78.7142 289.899C79.2929 290.904 80.0998 291.759 81.0696 292.394C82.906 293.457 84.4014 292.591 84.4014 290.466C84.3382 289.308 84.0038 288.181 83.425 287.176C82.8463 286.172 82.0394 285.317 81.0696 284.681V284.681Z" fill="#E6E6E6"/>
<path d="M70.0774 278.333C68.2279 277.257 66.7325 278.123 66.7325 280.248C66.8001 281.401 67.1381 282.522 67.7192 283.52C68.3003 284.518 69.1081 285.365 70.0774 285.993C71.9138 287.056 73.4092 286.19 73.4092 284.065C73.34 282.916 73.0027 281.799 72.4241 280.803C71.8455 279.808 71.0418 278.962 70.0774 278.333V278.333Z" fill="#E6E6E6"/>
<path d="M172.392 298.218C172.46 296.999 172.813 295.813 173.424 294.756C174.035 293.699 174.885 292.8 175.907 292.132L178.78 290.479C179.868 289.929 181.07 289.643 182.289 289.643C183.508 289.643 184.709 289.929 185.797 290.479L229.701 315.874C230.725 316.54 231.577 317.438 232.188 318.496C232.799 319.554 233.151 320.741 233.216 321.961V370.087C233.148 371.306 232.794 372.492 232.184 373.55C231.573 374.607 230.722 375.506 229.701 376.174L226.841 377.814C225.749 378.359 224.546 378.642 223.326 378.642C222.105 378.642 220.902 378.359 219.81 377.814L175.92 352.419C174.894 351.754 174.039 350.857 173.426 349.799C172.812 348.741 172.458 347.553 172.392 346.332V298.218Z" fill="#6ED0FF"/>
<path opacity="0.2" d="M233.216 370.087C233.148 371.306 232.794 372.492 232.184 373.549C231.573 374.607 230.722 375.506 229.701 376.174L226.841 377.813C225.85 378.309 224.764 378.59 223.657 378.638C222.549 378.685 221.444 378.498 220.414 378.089C222.066 378.718 223.326 377.787 223.326 375.78V327.666C223.282 326.444 222.93 325.253 222.303 324.203L232.193 318.497C232.822 319.546 233.174 320.738 233.216 321.96V370.087Z" fill="black"/>
<path opacity="0.3" d="M172.523 297.221C172.943 295.739 174.294 295.254 175.92 296.198L219.81 321.58C220.854 322.221 221.709 323.126 222.29 324.204L232.18 318.498C231.592 317.425 230.738 316.522 229.701 315.874L185.824 290.492C184.732 289.947 183.529 289.664 182.308 289.664C181.088 289.664 179.885 289.947 178.793 290.492L175.92 292.145C175.039 292.716 174.284 293.461 173.7 294.334C173.115 295.207 172.715 296.189 172.523 297.221Z" fill="white"/>
<path d="M198.521 317.042C194.297 314.602 190.874 316.569 190.874 321.449C191.017 324.103 191.785 326.685 193.114 328.987C194.442 331.289 196.295 333.245 198.521 334.697C202.745 337.137 206.168 335.156 206.168 330.277C206.027 327.624 205.26 325.043 203.931 322.742C202.602 320.442 200.749 318.489 198.521 317.042V317.042Z" fill="#FAFAFA"/>
<path d="M183.45 343.04C183.45 335.025 189.077 331.785 196.016 335.786L200.358 338.291C207.284 342.292 212.911 352.038 212.911 360.053V362.204C208.976 363.516 187.516 351.081 183.45 344.902V343.04Z" fill="#FAFAFA"/>
<g filter="url(#filter0_d)">
<path d="M145.209 76.1701L143.807 132.941C143.766 133.355 143.595 133.754 143.307 134.107C143.02 134.459 142.624 134.756 142.151 134.972L139.298 136.111C138.795 136.287 138.242 136.371 137.683 136.357C137.124 136.343 136.576 136.232 136.082 136.032L88.5108 114.217C88.0481 113.978 87.6657 113.663 87.3946 113.297C87.1234 112.93 86.9711 112.522 86.9498 112.107L88.3511 55.347C88.3917 54.9326 88.5635 54.5327 88.8525 54.1798C89.1416 53.8269 89.5396 53.531 90.0143 53.3162L92.8598 52.1766C93.3629 52.0011 93.9163 51.9169 94.4752 51.9307C95.034 51.9445 95.5826 52.0559 96.0765 52.256L143.655 74.0766C144.113 74.314 144.492 74.6269 144.762 74.9904C145.032 75.3538 145.185 75.7578 145.209 76.1701V76.1701Z" fill="white"/>
</g>
<path d="M129.045 77.0637L133.836 79.7255L133.679 86.0805L131.579 85.0749L131.673 81.2618L128.983 79.6057L129.045 77.0637Z" fill="#82D8FF"/>
<path d="M94.9649 113.451L90.1747 110.789L90.3316 104.434L92.4312 105.44L92.3371 109.253L95.0276 110.909L94.9649 113.451Z" fill="#82D8FF"/>
<path d="M91.45 59.1397L94.6454 60.8372L96.2431 61.686L96.1857 64.007L92.9895 62.3446L92.8879 66.4591L91.2937 65.4696L91.45 59.1397Z" fill="#82D8FF"/>
<path d="M132.58 130.566L128.753 128.254L127.798 127.597L127.845 125.698L131.041 127.361L131.142 123.246L132.737 124.236L132.58 130.566Z" fill="#82D8FF"/>
<path d="M110.374 109.01C110.783 110.067 111.453 110.965 112.31 111.606C112.746 111.955 113.264 112.162 113.81 112.206C114.355 112.249 114.908 112.127 115.408 111.853C115.909 111.579 116.338 111.163 116.651 110.648C116.965 110.134 117.149 109.542 117.186 108.934C117.946 108.871 118.688 108.606 119.35 108.162C120.012 107.717 120.574 107.107 120.988 106.382C121.417 105.627 121.694 104.784 121.799 103.912C121.904 103.04 121.834 102.162 121.594 101.34C123.612 100.546 125.655 99.2692 126.821 97.1375C127.987 95.0057 127.741 91.8733 126.043 90.5891C126.765 90.0396 127.323 89.2612 127.639 88.3627C127.955 87.4643 128.014 86.4908 127.806 85.5788C127.611 84.7072 127.14 83.9538 126.477 83.4519C125.814 82.9499 125.001 82.7319 124.184 82.8364C124.293 81.7557 124.149 80.6741 123.764 79.6973C123.38 78.7205 122.768 77.882 121.99 77.2638C121.213 76.6867 120.298 76.3654 119.346 76.3354C118.394 76.3053 117.441 76.5678 116.593 77.0938C116.466 76.5954 116.231 76.143 115.909 75.7743C115.587 75.4056 115.187 75.1312 114.742 74.9739C114.294 74.8396 113.819 74.8316 113.358 74.9506C112.897 75.0696 112.465 75.3119 112.1 75.6559C111.701 74.8467 111.08 74.2048 110.322 73.8183C109.565 73.4318 108.707 73.3194 107.868 73.4966C106.122 73.9623 104.552 75.0825 103.43 76.6636C102.999 76.2776 102.476 76.0322 101.918 75.9533C101.359 75.8745 100.786 75.965 100.257 76.2154C99.7076 76.493 99.2203 76.9086 98.8353 77.4279C98.4502 77.9473 98.1785 78.5554 98.0425 79.202C97.9034 79.8568 97.9031 80.5319 98.0417 81.1735C98.1803 81.8152 98.4538 82.4055 98.8406 82.8975C98.381 83.0129 97.9506 83.2555 97.5904 83.6023C97.2303 83.949 96.9524 84.3884 96.7832 84.8785C96.6077 85.3775 96.5446 85.9116 96.5997 86.433C96.6548 86.9545 96.8263 87.4472 97.0989 87.8671C97.3659 88.2562 97.7298 88.5492 98.1489 88.7127C98.568 88.8762 99.0254 88.9035 99.4686 88.7915C101.478 92.5524 106.17 93.4742 108.542 96.9101C109.573 98.5276 110.197 100.431 110.355 102.435C110.548 104.437 109.613 107.255 110.374 109.01Z" fill="#263238"/>
<path d="M123.025 98.4648C122.596 98.3035 122.136 98.2476 121.677 98.3011C121.218 98.3545 120.77 98.516 120.365 98.7746C119.544 99.3028 118.791 99.955 118.128 100.712C117.824 101.075 117.458 101.367 117.052 101.569C116.849 101.669 116.625 101.7 116.412 101.657C116.198 101.613 116.004 101.498 115.856 101.326C115.747 101.098 115.686 100.844 115.678 100.583C115.669 100.321 115.713 100.058 115.807 99.8122L116.712 96.1465C116.776 95.8645 116.767 95.5715 116.686 95.302C116.605 95.0324 116.455 94.7975 116.253 94.625C115.656 94.0726 115.267 93.292 115.159 92.4255C115.14 92.2864 115.132 92.157 115.12 92.0192C114.437 92.2897 113.699 92.2688 113.052 91.9606C112.369 91.6278 111.843 91.0054 111.587 90.2273C111.366 90.5031 111.091 90.72 110.786 90.8605C110.48 91.001 110.152 91.061 109.828 91.0358C109.513 90.9897 109.215 90.8595 108.961 90.6561C108.707 90.4527 108.504 90.1823 108.369 89.8677C107.941 90.3141 107.426 90.6436 106.868 90.828C106.31 91.0124 105.726 91.0462 105.166 90.9266C104.605 90.807 104.085 90.5375 103.65 90.1412C103.215 89.7449 102.878 89.2335 102.667 88.6507C102.064 88.7918 101.444 88.7683 100.864 88.5824C100.283 88.3965 99.759 88.0537 99.3367 87.5841C97.5849 93.15 96.7842 98.987 96.9769 104.788C96.9868 106.105 97.3714 106.201 97.7075 107.448C98.0578 108.713 99.0734 109.618 100.064 110.339C101.289 111.167 102.618 111.35 104.086 111.347C106.775 111.359 107.749 111.646 110.299 110.592C112.848 109.538 115.107 107.473 117.033 105.143C117.581 105.712 118.254 106.114 118.992 106.313C119.73 106.511 120.509 106.499 121.258 106.279C122.002 106.01 122.682 105.542 123.235 104.918C123.789 104.293 124.198 103.532 124.426 102.704C124.833 101.065 124.362 99.0743 123.025 98.4648Z" fill="#FFA8A7"/>
<path d="M105 97.3193L100.893 102.305L104.284 103.768L105 97.3193Z" fill="#F28F8F"/>
<path d="M107.286 106.384L104.298 107.281C104.459 107.67 104.733 107.983 105.078 108.175C105.423 108.367 105.82 108.427 106.208 108.346C106.558 108.194 106.855 107.917 107.051 107.56C107.247 107.203 107.33 106.788 107.286 106.384V106.384Z" fill="#F28F8F"/>
<path opacity="0.3" d="M107.286 106.384L104.298 107.281C104.459 107.67 104.733 107.983 105.078 108.175C105.423 108.367 105.82 108.427 106.208 108.346C106.558 108.194 106.855 107.917 107.051 107.56C107.247 107.203 107.33 106.788 107.286 106.384V106.384Z" fill="black"/>
<path d="M105.274 108.276C105.573 108.413 105.907 108.444 106.232 108.365C106.51 108.262 106.758 108.07 106.944 107.815C107.13 107.559 107.246 107.251 107.276 106.931C106.89 106.847 106.483 106.916 106.126 107.126C105.723 107.379 105.417 107.791 105.274 108.276V108.276Z" fill="#F28F8F"/>
<path d="M110.087 98.5841C110.061 98.8107 109.975 99.0267 109.841 99.2048C109.706 99.3828 109.529 99.5151 109.331 99.5849C109.133 99.6547 108.923 99.6589 108.728 99.597C108.533 99.5351 108.362 99.4099 108.235 99.237C108.108 99.0642 108.033 98.8515 108.017 98.6258C108.001 98.4 108.047 98.1713 108.147 97.9683C108.248 97.7654 108.399 97.5974 108.582 97.4854C108.765 97.3735 108.971 97.3225 109.175 97.3391C109.312 97.3492 109.445 97.3897 109.565 97.4581C109.685 97.5265 109.791 97.6215 109.876 97.7375C109.961 97.8535 110.023 97.9882 110.06 98.1336C110.096 98.279 110.105 98.4322 110.087 98.5841Z" fill="#263238"/>
<path d="M101.428 97.4441C101.402 97.671 101.316 97.8873 101.182 98.0656C101.047 98.244 100.869 98.3763 100.671 98.446C100.473 98.5157 100.263 98.5195 100.067 98.4571C99.8722 98.3947 99.7007 98.2687 99.5744 98.0952C99.4481 97.9217 99.3728 97.7084 99.3578 97.4822C99.3429 97.256 99.3891 97.027 99.4906 96.8243C99.5921 96.6216 99.7442 96.4541 99.928 96.343C100.112 96.232 100.319 96.1823 100.523 96.2004C100.659 96.2124 100.79 96.2541 100.909 96.3231C101.028 96.3922 101.133 96.4872 101.217 96.6027C101.301 96.7183 101.363 96.8521 101.399 96.9965C101.435 97.1408 101.445 97.293 101.428 97.4441V97.4441Z" fill="#263238"/>
<path d="M100.93 92.7647L98.4383 94.3342C98.3732 94.0088 98.4005 93.6648 98.5164 93.3484C98.6324 93.0319 98.8314 92.7581 99.0869 92.5637C99.3882 92.404 99.7202 92.3383 100.046 92.3738C100.371 92.4093 100.677 92.5446 100.93 92.7647V92.7647Z" fill="#263238"/>
<path d="M109.818 93.4099L111.914 95.3839C112.051 95.0774 112.1 94.7357 112.057 94.4053C112.013 94.0749 111.878 93.7719 111.669 93.5374C111.41 93.3262 111.099 93.2023 110.771 93.1798C110.444 93.1573 110.114 93.2369 109.818 93.4099V93.4099Z" fill="#263238"/>
<g opacity="0.81">
<path d="M110.374 109.01C110.783 110.067 111.453 110.965 112.31 111.606C112.746 111.955 113.264 112.162 113.81 112.206C114.355 112.249 114.908 112.127 115.408 111.853C115.909 111.579 116.338 111.163 116.651 110.648C116.965 110.134 117.149 109.542 117.186 108.934C117.946 108.871 118.688 108.606 119.35 108.162C120.012 107.717 120.574 107.107 120.988 106.382C121.417 105.627 121.694 104.784 121.799 103.912C121.904 103.04 121.834 102.162 121.594 101.34C123.612 100.546 125.655 99.2692 126.821 97.1375C127.987 95.0057 127.741 91.8733 126.043 90.5891C126.765 90.0396 127.323 89.2612 127.639 88.3627C127.955 87.4643 128.014 86.4908 127.806 85.5788C127.611 84.7072 127.14 83.9538 126.477 83.4519C125.814 82.9499 125.001 82.7319 124.184 82.8364C124.293 81.7557 124.149 80.6741 123.764 79.6973C123.38 78.7205 122.768 77.882 121.99 77.2638C121.213 76.6867 120.298 76.3654 119.346 76.3354C118.394 76.3053 117.441 76.5678 116.593 77.0938C116.466 76.5954 116.231 76.143 115.909 75.7743C115.587 75.4056 115.187 75.1312 114.742 74.9739C114.294 74.8396 113.819 74.8316 113.358 74.9506C112.897 75.0696 112.465 75.3119 112.1 75.6559C111.701 74.8467 111.08 74.2048 110.322 73.8183C109.565 73.4318 108.707 73.3194 107.868 73.4966C106.122 73.9623 104.552 75.0825 103.43 76.6636C102.999 76.2776 102.476 76.0322 101.918 75.9533C101.359 75.8745 100.786 75.965 100.257 76.2154C99.7076 76.493 99.2203 76.9086 98.8353 77.4279C98.4502 77.9473 98.1785 78.5554 98.0425 79.202C97.9034 79.8568 97.9031 80.5319 98.0417 81.1735C98.1803 81.8152 98.4538 82.4055 98.8406 82.8975C98.381 83.0129 97.9506 83.2555 97.5904 83.6023C97.2303 83.949 96.9524 84.3884 96.7832 84.8785C96.6077 85.3775 96.5446 85.9116 96.5997 86.433C96.6548 86.9545 96.8263 87.4472 97.0989 87.8671C97.3659 88.2562 97.7298 88.5492 98.1489 88.7127C98.568 88.8762 99.0254 88.9035 99.4686 88.7915C101.478 92.5524 106.17 93.4742 108.542 96.9101C109.573 98.5276 110.197 100.431 110.355 102.435C110.548 104.437 109.613 107.255 110.374 109.01Z" fill="#82D8FF"/>
<path d="M123.025 98.4648C122.596 98.3035 122.136 98.2476 121.677 98.3011C121.218 98.3545 120.77 98.516 120.365 98.7746C119.544 99.3028 118.791 99.955 118.128 100.712C117.824 101.075 117.458 101.367 117.052 101.569C116.849 101.669 116.625 101.7 116.412 101.657C116.198 101.613 116.004 101.498 115.856 101.326C115.747 101.098 115.686 100.844 115.678 100.583C115.669 100.321 115.713 100.058 115.807 99.8122L116.712 96.1465C116.776 95.8645 116.767 95.5715 116.686 95.302C116.605 95.0324 116.455 94.7975 116.253 94.625C115.656 94.0726 115.267 93.292 115.159 92.4255C115.14 92.2864 115.132 92.157 115.12 92.0192C114.437 92.2897 113.699 92.2688 113.052 91.9606C112.369 91.6278 111.843 91.0054 111.587 90.2273C111.366 90.5031 111.091 90.72 110.786 90.8605C110.48 91.001 110.152 91.061 109.828 91.0358C109.513 90.9897 109.215 90.8595 108.961 90.6561C108.707 90.4527 108.504 90.1823 108.369 89.8677C107.941 90.3141 107.426 90.6436 106.868 90.828C106.31 91.0124 105.726 91.0462 105.166 90.9266C104.605 90.807 104.085 90.5375 103.65 90.1412C103.215 89.7449 102.878 89.2335 102.667 88.6507C102.064 88.7918 101.444 88.7683 100.864 88.5824C100.283 88.3965 99.759 88.0537 99.3367 87.5841C97.5849 93.15 96.7842 98.987 96.9769 104.788C96.9868 106.105 97.3714 106.201 97.7075 107.448C98.0578 108.713 99.0734 109.618 100.064 110.339C101.289 111.167 102.618 111.35 104.086 111.347C106.775 111.359 107.749 111.646 110.299 110.592C112.848 109.538 115.107 107.473 117.033 105.143C117.581 105.712 118.254 106.114 118.992 106.313C119.73 106.511 120.509 106.499 121.258 106.279C122.002 106.01 122.682 105.542 123.235 104.918C123.789 104.293 124.198 103.532 124.426 102.704C124.833 101.065 124.362 99.0743 123.025 98.4648Z" fill="#82D8FF"/>
<path d="M105 97.3193L100.893 102.305L104.284 103.768L105 97.3193Z" fill="#82D8FF"/>
<path d="M107.286 106.384L104.298 107.281C104.459 107.67 104.733 107.983 105.078 108.175C105.423 108.367 105.82 108.427 106.208 108.346C106.558 108.194 106.855 107.917 107.051 107.56C107.247 107.203 107.33 106.788 107.286 106.384V106.384Z" fill="#82D8FF"/>
<path opacity="0.3" d="M107.286 106.384L104.298 107.281C104.459 107.67 104.733 107.983 105.078 108.175C105.423 108.367 105.82 108.427 106.208 108.346C106.558 108.194 106.855 107.917 107.051 107.56C107.247 107.203 107.33 106.788 107.286 106.384V106.384Z" fill="#82D8FF"/>
<path d="M105.274 108.276C105.573 108.413 105.907 108.444 106.232 108.365C106.51 108.262 106.758 108.07 106.944 107.815C107.13 107.559 107.246 107.251 107.276 106.931C106.89 106.847 106.483 106.916 106.126 107.126C105.723 107.379 105.417 107.791 105.274 108.276V108.276Z" fill="#82D8FF"/>
<path d="M110.087 98.5841C110.061 98.8107 109.975 99.0267 109.841 99.2048C109.706 99.3828 109.529 99.5151 109.331 99.5849C109.133 99.6547 108.923 99.6589 108.728 99.597C108.533 99.5351 108.362 99.4099 108.235 99.237C108.108 99.0642 108.033 98.8515 108.017 98.6258C108.001 98.4 108.047 98.1713 108.147 97.9683C108.248 97.7654 108.399 97.5974 108.582 97.4854C108.765 97.3735 108.971 97.3225 109.175 97.3391C109.312 97.3492 109.445 97.3897 109.565 97.4581C109.685 97.5265 109.791 97.6215 109.876 97.7375C109.961 97.8535 110.023 97.9882 110.06 98.1336C110.096 98.279 110.105 98.4322 110.087 98.5841Z" fill="#82D8FF"/>
<path d="M101.428 97.4441C101.402 97.671 101.316 97.8873 101.182 98.0656C101.047 98.244 100.869 98.3763 100.671 98.446C100.473 98.5157 100.263 98.5195 100.067 98.4571C99.8722 98.3947 99.7007 98.2687 99.5744 98.0952C99.4481 97.9217 99.3728 97.7084 99.3578 97.4822C99.3429 97.256 99.3891 97.027 99.4906 96.8243C99.5921 96.6216 99.7442 96.4541 99.928 96.343C100.112 96.232 100.319 96.1823 100.523 96.2004C100.659 96.2124 100.79 96.2541 100.909 96.3231C101.028 96.3922 101.133 96.4872 101.217 96.6027C101.301 96.7183 101.363 96.8521 101.399 96.9965C101.435 97.1408 101.445 97.293 101.428 97.4441V97.4441Z" fill="#82D8FF"/>
<path d="M100.93 92.7647L98.4383 94.3342C98.3732 94.0088 98.4005 93.6648 98.5164 93.3484C98.6324 93.0319 98.8314 92.7581 99.0869 92.5637C99.3882 92.404 99.7202 92.3383 100.046 92.3738C100.371 92.4093 100.677 92.5446 100.93 92.7647V92.7647Z" fill="#82D8FF"/>
<path d="M109.818 93.4099L111.914 95.3839C112.051 95.0774 112.1 94.7357 112.057 94.4053C112.013 94.0749 111.878 93.7719 111.669 93.5374C111.41 93.3262 111.099 93.2023 110.771 93.1798C110.444 93.1573 110.114 93.2369 109.818 93.4099V93.4099Z" fill="#82D8FF"/>
</g>
<path d="M145.272 75.4409L137.124 77.6677L135.696 135.499C136.663 137.204 139.371 136.259 142.139 135.009C143.174 134.541 143.838 133.51 143.866 132.374L145.272 75.4409Z" fill="#E8F8FF"/>
<path d="M95.2693 51.9503C91.3869 51.8544 88.7488 53.8126 88.3144 55.0158L137.528 77.6777L143.565 75.8298C144.445 75.5602 144.524 74.3444 143.686 73.9632L95.2693 51.9503Z" fill="#E8F8FF"/>
<path d="M94.4858 67.3079L129.3 83.1398" stroke="#82D8FF" stroke-width="0.2"/>
<path d="M93.9462 89.1461L128.761 104.978" stroke="#82D8FF" stroke-width="0.2"/>
<path d="M94.2161 78.2271L129.03 94.0589" stroke="#82D8FF" stroke-width="0.2"/>
<path d="M93.6768 100.065L128.491 115.897" stroke="#82D8FF" stroke-width="0.2"/>
<path d="M94.3956 70.9476L129.21 86.7795" stroke="#82D8FF" stroke-width="0.2"/>
<path d="M93.8563 92.7858L128.671 108.618" stroke="#82D8FF" stroke-width="0.2"/>
<path d="M94.126 81.8666L128.94 97.6985" stroke="#82D8FF" stroke-width="0.2"/>
<path d="M93.5869 103.705L128.401 119.537" stroke="#82D8FF" stroke-width="0.2"/>
<path d="M94.3059 74.5873L129.12 90.4192" stroke="#82D8FF" stroke-width="0.2"/>
<path d="M93.7667 96.4254L128.581 112.257" stroke="#82D8FF" stroke-width="0.2"/>
<path d="M94.0361 85.5065L128.851 101.338" stroke="#82D8FF" stroke-width="0.2"/>
<path d="M93.4971 107.345L128.312 123.176" stroke="#82D8FF" stroke-width="0.2"/>
<g filter="url(#filter1_d)">
<path d="M230.97 117.433L229.569 174.203C229.528 174.617 229.357 175.016 229.069 175.369C228.781 175.722 228.385 176.018 227.913 176.234L225.06 177.374C224.557 177.549 224.003 177.633 223.445 177.62C222.886 177.606 222.337 177.494 221.843 177.294L174.272 155.479C173.81 155.241 173.427 154.926 173.156 154.559C172.885 154.192 172.733 153.785 172.711 153.369L174.113 96.6094C174.153 96.1951 174.325 95.7952 174.614 95.4423C174.903 95.0894 175.301 94.7935 175.776 94.5787L178.621 93.439C179.124 93.2636 179.678 93.1794 180.237 93.1932C180.796 93.207 181.344 93.3184 181.838 93.5184L229.416 115.339C229.875 115.576 230.254 115.889 230.524 116.253C230.793 116.616 230.946 117.02 230.97 117.433V117.433Z" fill="white"/>
</g>
<path d="M214.807 118.326L219.597 120.988L219.44 127.343L217.34 126.337L217.435 122.524L214.744 120.868L214.807 118.326Z" fill="#82D8FF"/>
<path d="M180.726 154.714L175.936 152.052L176.093 145.697L178.193 146.702L178.099 150.516L180.789 152.172L180.726 154.714Z" fill="#82D8FF"/>
<path d="M177.211 100.402L180.407 102.1L182.005 102.949L181.947 105.27L178.751 103.607L178.649 107.722L177.055 106.732L177.211 100.402Z" fill="#82D8FF"/>
<path d="M218.342 171.828L214.514 169.517L213.559 168.86L213.606 166.961L216.802 168.623L216.904 164.509L218.498 165.498L218.342 171.828Z" fill="#82D8FF"/>
<path d="M231.033 116.704L222.885 118.93L221.457 176.761C222.424 178.467 225.133 177.522 227.9 176.272C228.936 175.804 229.599 174.773 229.627 173.637L231.033 116.704Z" fill="#E8F8FF"/>
<path d="M181.031 93.2129C177.149 93.1171 174.51 95.0753 174.076 96.2785L223.29 118.94L229.326 117.092C230.207 116.823 230.286 115.607 229.448 115.226L181.031 93.2129Z" fill="#E8F8FF"/>
<path d="M180.247 108.571L215.061 124.402" stroke="#82D8FF" stroke-width="0.2"/>
<path d="M179.708 130.409L214.522 146.241" stroke="#82D8FF" stroke-width="0.2"/>
<path d="M179.977 119.49L214.792 135.322" stroke="#82D8FF" stroke-width="0.2"/>
<path d="M179.438 141.328L214.252 157.16" stroke="#82D8FF" stroke-width="0.2"/>
<path d="M180.157 112.21L214.971 128.042" stroke="#82D8FF" stroke-width="0.2"/>
<path d="M179.618 134.049L214.432 149.881" stroke="#82D8FF" stroke-width="0.2"/>
<path d="M179.887 123.13L214.702 138.961" stroke="#82D8FF" stroke-width="0.2"/>
<path d="M179.348 144.968L214.163 160.8" stroke="#82D8FF" stroke-width="0.2"/>
<path d="M180.067 115.85L214.881 131.682" stroke="#82D8FF" stroke-width="0.2"/>
<path d="M179.528 137.688L214.342 153.52" stroke="#82D8FF" stroke-width="0.2"/>
<path d="M179.798 126.769L214.612 142.601" stroke="#82D8FF" stroke-width="0.2"/>
<path d="M179.258 148.607L214.073 164.439" stroke="#82D8FF" stroke-width="0.2"/>
<path d="M206.515 139.812C206.43 139.789 206.356 139.733 206.305 139.653C206.254 139.574 206.228 139.475 206.232 139.374C206.373 135.714 206.037 132.085 205.237 128.605C205.209 128.49 205.224 128.364 205.276 128.256C205.329 128.147 205.416 128.065 205.518 128.026C205.568 128.006 205.622 127.998 205.674 128.003C205.726 128.007 205.776 128.023 205.822 128.051C205.867 128.079 205.907 128.117 205.938 128.164C205.969 128.211 205.991 128.265 206.003 128.323C206.827 131.889 207.173 135.609 207.032 139.361C207.024 139.482 206.977 139.598 206.9 139.686C206.823 139.773 206.721 139.826 206.616 139.832L206.515 139.812Z" fill="#67CFFF"/>
<path d="M204.905 149.092C204.806 149.053 204.726 148.969 204.684 148.86C204.642 148.75 204.64 148.624 204.678 148.507C204.807 148.036 204.988 147.553 205.126 147.047C205.535 145.528 205.834 143.979 206.018 142.418C206.033 142.296 206.089 142.182 206.175 142.102C206.26 142.022 206.368 141.982 206.474 141.992C206.581 142.002 206.676 142.06 206.741 142.154C206.805 142.247 206.833 142.369 206.818 142.492C206.629 144.105 206.322 145.706 205.9 147.276C205.757 147.799 205.617 148.314 205.436 148.798C205.416 148.856 205.386 148.91 205.349 148.957C205.311 149.003 205.266 149.041 205.217 149.068C205.167 149.096 205.114 149.112 205.061 149.116C205.007 149.12 204.954 149.112 204.905 149.092V149.092Z" fill="#67CFFF"/>
<path d="M185.691 127.491C185.597 127.463 185.518 127.396 185.469 127.301C185.421 127.207 185.406 127.093 185.428 126.981C185.578 126.191 185.758 125.41 185.961 124.664C187.134 120.359 189.097 117.102 191.492 115.479C191.538 115.447 191.588 115.427 191.64 115.418C191.692 115.409 191.744 115.412 191.793 115.427C191.843 115.441 191.889 115.467 191.928 115.503C191.968 115.539 192 115.584 192.024 115.636C192.048 115.687 192.063 115.745 192.067 115.805C192.072 115.864 192.066 115.925 192.05 115.984C192.034 116.043 192.008 116.098 191.974 116.146C191.94 116.194 191.899 116.235 191.852 116.266C189.647 117.763 187.818 120.829 186.71 124.895C186.514 125.614 186.311 126.36 186.191 127.13C186.181 127.19 186.16 127.247 186.13 127.298C186.101 127.349 186.063 127.394 186.019 127.429C185.975 127.465 185.926 127.49 185.874 127.503C185.823 127.517 185.77 127.519 185.719 127.509L185.691 127.491Z" fill="#67CFFF"/>
<path d="M204.446 125.273C204.389 125.257 204.337 125.227 204.294 125.184C204.25 125.141 204.216 125.087 204.193 125.026C203.357 122.516 202.112 120.235 200.521 118.3C198.454 115.886 196.172 114.867 193.928 115.393C193.824 115.415 193.719 115.389 193.636 115.321C193.554 115.254 193.499 115.15 193.485 115.032C193.478 114.972 193.481 114.911 193.494 114.852C193.508 114.792 193.531 114.736 193.563 114.685C193.595 114.635 193.635 114.592 193.681 114.559C193.727 114.525 193.777 114.502 193.829 114.491C196.338 113.956 198.863 115.019 201.106 117.687C202.764 119.704 204.064 122.078 204.941 124.691C204.979 124.8 204.977 124.925 204.936 125.038C204.894 125.152 204.816 125.245 204.719 125.296C204.626 125.326 204.53 125.318 204.446 125.273V125.273Z" fill="#67CFFF"/>
<path d="M188.217 128.611C188.119 128.582 188.036 128.51 187.987 128.41C187.938 128.309 187.926 128.189 187.953 128.073C188.028 127.798 188.103 127.522 188.178 127.247C189.037 124.096 190.4 121.717 192.119 120.374C192.163 120.338 192.212 120.312 192.264 120.298C192.315 120.284 192.368 120.282 192.419 120.291C192.47 120.301 192.518 120.322 192.56 120.354C192.602 120.386 192.638 120.428 192.666 120.477C192.721 120.577 192.739 120.701 192.715 120.821C192.692 120.941 192.628 121.049 192.539 121.121C190.984 122.34 189.739 124.533 188.938 127.472C188.868 127.729 188.795 127.995 188.725 128.253C188.711 128.312 188.687 128.368 188.655 128.417C188.623 128.467 188.583 128.509 188.537 128.542C188.492 128.575 188.442 128.598 188.39 128.609C188.338 128.62 188.285 128.619 188.235 128.607L188.217 128.611Z" fill="#67CFFF"/>
<path d="M193.655 120.338C193.572 120.315 193.499 120.259 193.448 120.181C193.397 120.103 193.371 120.006 193.375 119.905C193.378 119.804 193.41 119.706 193.465 119.624C193.521 119.543 193.598 119.483 193.683 119.454C194.841 119.066 196.055 119.127 197.131 119.629C197.227 119.67 197.304 119.754 197.343 119.862C197.383 119.971 197.382 120.096 197.342 120.21C197.299 120.323 197.219 120.416 197.121 120.467C197.023 120.519 196.913 120.525 196.815 120.486C195.895 120.07 194.861 120.027 193.878 120.366C193.802 120.379 193.725 120.369 193.655 120.338V120.338Z" fill="#67CFFF"/>
<path d="M202.498 154.548C202.422 154.526 202.355 154.478 202.305 154.41C202.254 154.342 202.224 154.258 202.216 154.167L202.127 152.75C201.922 150 202.182 147.198 202.891 144.496C204.942 136.969 203.367 127.093 199.391 122.446C199.355 122.404 199.327 122.355 199.309 122.3C199.291 122.244 199.283 122.185 199.286 122.125C199.289 122.065 199.302 122.005 199.324 121.95C199.347 121.894 199.379 121.844 199.418 121.802C199.456 121.757 199.501 121.721 199.55 121.696C199.599 121.671 199.651 121.658 199.704 121.656C199.756 121.655 199.808 121.665 199.856 121.687C199.903 121.71 199.946 121.743 199.981 121.785C204.124 126.636 205.774 136.927 203.66 144.685C202.973 147.282 202.723 149.978 202.925 152.621L203.014 154.039C203.02 154.098 203.014 154.159 202.999 154.217C202.983 154.276 202.958 154.331 202.924 154.379C202.89 154.427 202.849 154.467 202.802 154.498C202.755 154.528 202.704 154.548 202.652 154.555C202.6 154.566 202.548 154.563 202.498 154.548Z" fill="#67CFFF"/>
<path d="M186.454 144.292C186.376 144.268 186.308 144.218 186.258 144.147C186.209 144.075 186.18 143.987 186.177 143.893C186.094 139.336 186.487 134.751 187.348 130.235C187.36 130.174 187.382 130.117 187.413 130.065C187.444 130.013 187.484 129.969 187.529 129.934C187.575 129.899 187.625 129.875 187.678 129.862C187.73 129.85 187.784 129.849 187.835 129.861C187.936 129.887 188.022 129.957 188.075 130.057C188.129 130.156 188.146 130.278 188.124 130.397C187.267 134.824 186.868 139.32 186.935 143.791C186.938 143.851 186.931 143.912 186.913 143.97C186.895 144.028 186.868 144.082 186.832 144.129C186.796 144.176 186.753 144.214 186.705 144.242C186.657 144.27 186.605 144.287 186.553 144.292C186.52 144.297 186.487 144.297 186.454 144.292V144.292Z" fill="#67CFFF"/>
<path d="M199.45 156.88C199.373 156.859 199.304 156.81 199.254 156.741C199.204 156.671 199.175 156.583 199.171 156.491L199.024 152.994C198.849 149.572 199.197 146.104 200.053 142.747L201.004 139.258C202.134 135.112 200.966 129.309 198.402 126.316C197.207 124.918 195.902 124.35 194.731 124.733C193.559 125.116 192.648 126.352 192.133 128.243L191.291 131.332C190.006 136.375 189.514 141.589 189.837 146.721L190.05 150.908C190.053 150.968 190.046 151.029 190.029 151.088C190.012 151.146 189.985 151.201 189.95 151.248C189.915 151.296 189.872 151.336 189.825 151.365C189.777 151.395 189.725 151.413 189.673 151.42C189.568 151.433 189.466 151.398 189.388 151.323C189.31 151.248 189.263 151.138 189.257 151.019L189.044 146.831C188.724 141.588 189.236 136.264 190.554 131.115L191.394 128.034C191.999 125.815 193.116 124.333 194.556 123.866C195.996 123.399 197.588 124.033 198.989 125.665C201.721 128.861 202.991 135.068 201.784 139.498L200.833 142.987C200.003 146.238 199.669 149.596 199.843 152.91L199.985 156.395C199.988 156.455 199.981 156.515 199.964 156.573C199.947 156.631 199.92 156.685 199.885 156.732C199.85 156.778 199.808 156.817 199.76 156.846C199.713 156.875 199.662 156.893 199.61 156.898L199.45 156.88Z" fill="#67CFFF"/>
<path d="M195.756 157.16C195.674 157.136 195.603 157.083 195.553 157.008C195.503 156.933 195.476 156.839 195.476 156.741L195.515 154.489C195.549 150.526 196.079 146.554 197.089 142.695L198.555 137.316C198.828 136.08 198.845 134.805 198.603 133.596C198.362 132.387 197.87 131.279 197.167 130.364C196.957 130.047 196.674 129.805 196.347 129.662C196.021 129.518 195.662 129.478 195.306 129.545C194.978 129.693 194.684 129.935 194.455 130.248C194.225 130.561 194.068 130.934 194 131.327C192.365 137.328 192.044 144.706 193.089 152.103L193.484 154.896C193.492 154.955 193.49 155.016 193.478 155.076C193.466 155.136 193.443 155.192 193.412 155.243C193.381 155.294 193.342 155.338 193.297 155.373C193.252 155.408 193.202 155.432 193.15 155.445C193.098 155.458 193.045 155.459 192.994 155.449C192.943 155.438 192.894 155.416 192.852 155.383C192.809 155.35 192.773 155.308 192.746 155.259C192.718 155.209 192.7 155.153 192.692 155.094L192.304 152.303C191.233 144.763 191.569 137.237 193.241 131.103C193.345 130.552 193.574 130.034 193.905 129.604C194.236 129.173 194.656 128.846 195.122 128.656C195.613 128.542 196.114 128.578 196.573 128.761C197.032 128.944 197.433 129.267 197.735 129.697C198.529 130.728 199.087 131.978 199.362 133.342C199.636 134.705 199.62 136.145 199.314 137.54L197.843 142.938C196.852 146.711 196.332 150.595 196.3 154.472L196.263 156.715C196.262 156.775 196.252 156.836 196.231 156.893C196.21 156.95 196.179 157.002 196.141 157.046C196.103 157.09 196.058 157.126 196.009 157.15C195.96 157.175 195.907 157.188 195.854 157.189C195.82 157.187 195.786 157.177 195.756 157.16Z" fill="#67CFFF"/>
<path d="M194.048 146.536C193.962 146.509 193.888 146.45 193.838 146.367C193.788 146.285 193.764 146.183 193.77 146.08L193.939 144.077C194.103 142.151 194.442 140.239 194.952 138.371L196.314 133.373C196.346 133.256 196.417 133.155 196.511 133.092C196.605 133.03 196.714 133.012 196.815 133.042C196.915 133.072 196.999 133.147 197.048 133.251C197.096 133.355 197.106 133.48 197.073 133.598L195.711 138.596C195.228 140.387 194.904 142.22 194.746 144.066L194.577 146.069C194.573 146.129 194.558 146.188 194.534 146.242C194.51 146.297 194.477 146.346 194.437 146.387C194.396 146.428 194.35 146.459 194.3 146.48C194.25 146.501 194.198 146.51 194.146 146.507L194.048 146.536Z" fill="#67CFFF"/>
<path d="M184.964 133.444C184.87 133.414 184.791 133.346 184.741 133.252C184.691 133.158 184.674 133.044 184.693 132.932L185.179 130.275C185.203 130.155 185.265 130.047 185.354 129.975C185.443 129.903 185.55 129.871 185.654 129.887C185.706 129.895 185.756 129.914 185.8 129.945C185.844 129.976 185.881 130.017 185.91 130.066C185.939 130.115 185.959 130.17 185.968 130.23C185.977 130.289 185.975 130.35 185.963 130.41L185.476 133.068C185.466 133.127 185.445 133.185 185.415 133.237C185.386 133.289 185.348 133.334 185.303 133.37C185.259 133.406 185.21 133.432 185.158 133.447C185.106 133.461 185.053 133.464 185.002 133.455L184.964 133.444Z" fill="#67CFFF"/>
<g opacity="0.73">
<path d="M206.515 139.812C206.43 139.789 206.356 139.733 206.305 139.653C206.254 139.574 206.228 139.475 206.232 139.374C206.373 135.714 206.037 132.085 205.237 128.605C205.209 128.49 205.224 128.364 205.276 128.256C205.329 128.147 205.416 128.065 205.518 128.026C205.568 128.006 205.622 127.998 205.674 128.003C205.726 128.007 205.776 128.023 205.822 128.051C205.867 128.079 205.907 128.117 205.938 128.164C205.969 128.211 205.991 128.265 206.003 128.323C206.827 131.889 207.173 135.609 207.032 139.361C207.024 139.482 206.977 139.598 206.9 139.686C206.823 139.773 206.721 139.826 206.616 139.832L206.515 139.812Z" fill="#C5C5C5"/>
<path d="M204.905 149.092C204.806 149.053 204.726 148.969 204.684 148.86C204.642 148.75 204.64 148.624 204.678 148.507C204.807 148.036 204.988 147.553 205.126 147.047C205.535 145.528 205.834 143.979 206.018 142.418C206.033 142.296 206.089 142.182 206.175 142.102C206.26 142.022 206.368 141.982 206.474 141.992C206.581 142.002 206.676 142.06 206.741 142.154C206.805 142.247 206.833 142.369 206.818 142.492C206.629 144.105 206.322 145.706 205.9 147.276C205.757 147.799 205.617 148.314 205.436 148.798C205.416 148.856 205.386 148.91 205.349 148.957C205.311 149.003 205.266 149.041 205.217 149.068C205.167 149.096 205.114 149.112 205.061 149.116C205.007 149.12 204.954 149.112 204.905 149.092V149.092Z" fill="#C5C5C5"/>
<path d="M185.691 127.491C185.597 127.463 185.518 127.396 185.469 127.301C185.421 127.207 185.406 127.093 185.428 126.981C185.578 126.191 185.758 125.41 185.961 124.664C187.134 120.359 189.097 117.102 191.492 115.479C191.538 115.447 191.588 115.427 191.64 115.418C191.692 115.409 191.744 115.412 191.793 115.427C191.843 115.441 191.889 115.467 191.928 115.503C191.968 115.539 192 115.584 192.024 115.636C192.048 115.687 192.063 115.745 192.067 115.805C192.072 115.864 192.066 115.925 192.05 115.984C192.034 116.043 192.008 116.098 191.974 116.146C191.94 116.194 191.899 116.235 191.852 116.266C189.647 117.763 187.818 120.829 186.71 124.895C186.514 125.614 186.311 126.36 186.191 127.13C186.181 127.19 186.16 127.247 186.13 127.298C186.101 127.349 186.063 127.394 186.019 127.429C185.975 127.465 185.926 127.49 185.874 127.503C185.823 127.517 185.77 127.519 185.719 127.509L185.691 127.491Z" fill="#C5C5C5"/>
<path d="M204.446 125.273C204.389 125.257 204.337 125.227 204.294 125.184C204.25 125.141 204.216 125.087 204.193 125.026C203.357 122.516 202.112 120.235 200.521 118.3C198.454 115.886 196.172 114.867 193.928 115.393C193.824 115.415 193.719 115.389 193.636 115.321C193.554 115.254 193.499 115.15 193.485 115.032C193.478 114.972 193.481 114.911 193.494 114.852C193.508 114.792 193.531 114.736 193.563 114.685C193.595 114.635 193.635 114.592 193.681 114.559C193.727 114.525 193.777 114.502 193.829 114.491C196.338 113.956 198.863 115.019 201.106 117.687C202.764 119.704 204.064 122.078 204.941 124.691C204.979 124.8 204.977 124.925 204.936 125.038C204.894 125.152 204.816 125.245 204.719 125.296C204.626 125.326 204.53 125.318 204.446 125.273V125.273Z" fill="#C5C5C5"/>
<path d="M188.217 128.611C188.119 128.582 188.036 128.51 187.987 128.41C187.938 128.309 187.926 128.189 187.953 128.073C188.028 127.798 188.103 127.522 188.178 127.247C189.037 124.096 190.4 121.717 192.119 120.374C192.163 120.338 192.212 120.312 192.264 120.298C192.315 120.284 192.368 120.282 192.419 120.291C192.47 120.301 192.518 120.322 192.56 120.354C192.602 120.386 192.638 120.428 192.666 120.477C192.721 120.577 192.739 120.701 192.715 120.821C192.692 120.941 192.628 121.049 192.539 121.121C190.984 122.34 189.739 124.533 188.938 127.472C188.868 127.729 188.795 127.995 188.725 128.253C188.711 128.312 188.687 128.368 188.655 128.417C188.623 128.467 188.583 128.509 188.537 128.542C188.492 128.575 188.442 128.598 188.39 128.609C188.338 128.62 188.285 128.619 188.235 128.607L188.217 128.611Z" fill="#C5C5C5"/>
<path d="M193.655 120.338C193.572 120.315 193.499 120.259 193.448 120.181C193.397 120.103 193.371 120.006 193.375 119.905C193.378 119.804 193.41 119.706 193.465 119.624C193.521 119.543 193.598 119.483 193.683 119.454C194.841 119.066 196.055 119.127 197.131 119.629C197.227 119.67 197.304 119.754 197.343 119.862C197.383 119.971 197.382 120.096 197.342 120.21C197.299 120.323 197.219 120.416 197.121 120.467C197.023 120.519 196.913 120.525 196.815 120.486C195.895 120.07 194.861 120.027 193.878 120.366C193.802 120.379 193.725 120.369 193.655 120.338V120.338Z" fill="#C5C5C5"/>
<path d="M202.498 154.548C202.422 154.526 202.355 154.478 202.305 154.41C202.254 154.342 202.224 154.258 202.216 154.167L202.127 152.75C201.922 150 202.182 147.198 202.891 144.496C204.942 136.969 203.367 127.093 199.391 122.446C199.355 122.404 199.327 122.355 199.309 122.3C199.291 122.244 199.283 122.185 199.286 122.125C199.289 122.065 199.302 122.005 199.324 121.95C199.347 121.894 199.379 121.844 199.418 121.802C199.456 121.757 199.501 121.721 199.55 121.696C199.599 121.671 199.651 121.658 199.704 121.656C199.756 121.655 199.808 121.665 199.856 121.687C199.903 121.71 199.946 121.743 199.981 121.785C204.124 126.636 205.774 136.927 203.66 144.685C202.973 147.282 202.723 149.978 202.925 152.621L203.014 154.039C203.02 154.098 203.014 154.159 202.999 154.217C202.983 154.276 202.958 154.331 202.924 154.379C202.89 154.427 202.849 154.467 202.802 154.498C202.755 154.528 202.704 154.548 202.652 154.555C202.6 154.566 202.548 154.563 202.498 154.548Z" fill="#C5C5C5"/>
<path d="M186.454 144.292C186.376 144.268 186.308 144.218 186.258 144.147C186.209 144.075 186.18 143.987 186.177 143.893C186.094 139.336 186.487 134.751 187.348 130.235C187.36 130.174 187.382 130.117 187.413 130.065C187.444 130.013 187.484 129.969 187.529 129.934C187.575 129.899 187.625 129.875 187.678 129.862C187.73 129.85 187.784 129.849 187.835 129.861C187.936 129.887 188.022 129.957 188.075 130.057C188.129 130.156 188.146 130.278 188.124 130.397C187.267 134.824 186.868 139.32 186.935 143.791C186.938 143.851 186.931 143.912 186.913 143.97C186.895 144.028 186.868 144.082 186.832 144.129C186.796 144.176 186.753 144.214 186.705 144.242C186.657 144.27 186.605 144.287 186.553 144.292C186.52 144.297 186.487 144.297 186.454 144.292V144.292Z" fill="#C5C5C5"/>
<path d="M199.45 156.88C199.373 156.859 199.304 156.81 199.254 156.741C199.204 156.671 199.175 156.583 199.171 156.491L199.024 152.994C198.849 149.572 199.197 146.104 200.053 142.747L201.004 139.258C202.134 135.112 200.966 129.309 198.402 126.316C197.207 124.918 195.902 124.35 194.731 124.733C193.559 125.116 192.648 126.352 192.133 128.243L191.291 131.332C190.006 136.375 189.514 141.589 189.837 146.721L190.05 150.908C190.053 150.968 190.046 151.029 190.029 151.088C190.012 151.146 189.985 151.201 189.95 151.248C189.915 151.296 189.872 151.336 189.825 151.365C189.777 151.395 189.725 151.413 189.673 151.42C189.568 151.433 189.466 151.398 189.388 151.323C189.31 151.248 189.263 151.138 189.257 151.019L189.044 146.831C188.724 141.588 189.236 136.264 190.554 131.115L191.394 128.034C191.999 125.815 193.116 124.333 194.556 123.866C195.996 123.399 197.588 124.033 198.989 125.665C201.721 128.861 202.991 135.068 201.784 139.498L200.833 142.987C200.003 146.238 199.669 149.596 199.843 152.91L199.985 156.395C199.988 156.455 199.981 156.515 199.964 156.573C199.947 156.631 199.92 156.685 199.885 156.732C199.85 156.778 199.808 156.817 199.76 156.846C199.713 156.875 199.662 156.893 199.61 156.898L199.45 156.88Z" fill="#C5C5C5"/>
<path d="M195.756 157.16C195.674 157.136 195.603 157.083 195.553 157.008C195.503 156.933 195.476 156.839 195.476 156.741L195.515 154.489C195.549 150.526 196.079 146.554 197.089 142.695L198.555 137.316C198.828 136.08 198.845 134.805 198.603 133.596C198.362 132.387 197.87 131.279 197.167 130.364C196.957 130.047 196.674 129.805 196.347 129.662C196.021 129.518 195.662 129.478 195.306 129.545C194.978 129.693 194.684 129.935 194.455 130.248C194.225 130.561 194.068 130.934 194 131.327C192.365 137.328 192.044 144.706 193.089 152.103L193.484 154.896C193.492 154.955 193.49 155.016 193.478 155.076C193.466 155.136 193.443 155.192 193.412 155.243C193.381 155.294 193.342 155.338 193.297 155.373C193.252 155.408 193.202 155.432 193.15 155.445C193.098 155.458 193.045 155.459 192.994 155.449C192.943 155.438 192.894 155.416 192.852 155.383C192.809 155.35 192.773 155.308 192.746 155.259C192.718 155.209 192.7 155.153 192.692 155.094L192.304 152.303C191.233 144.763 191.569 137.237 193.241 131.103C193.345 130.552 193.574 130.034 193.905 129.604C194.236 129.173 194.656 128.846 195.122 128.656C195.613 128.542 196.114 128.578 196.573 128.761C197.032 128.944 197.433 129.267 197.735 129.697C198.529 130.728 199.087 131.978 199.362 133.342C199.636 134.705 199.62 136.145 199.314 137.54L197.843 142.938C196.852 146.711 196.332 150.595 196.3 154.472L196.263 156.715C196.262 156.775 196.252 156.836 196.231 156.893C196.21 156.95 196.179 157.002 196.141 157.046C196.103 157.09 196.058 157.126 196.009 157.15C195.96 157.175 195.907 157.188 195.854 157.189C195.82 157.187 195.786 157.177 195.756 157.16Z" fill="#C5C5C5"/>
<path d="M194.048 146.536C193.962 146.509 193.888 146.45 193.838 146.367C193.788 146.285 193.764 146.183 193.77 146.08L193.939 144.077C194.103 142.151 194.442 140.239 194.952 138.371L196.314 133.373C196.346 133.256 196.417 133.155 196.511 133.092C196.605 133.03 196.714 133.012 196.815 133.042C196.915 133.072 196.999 133.147 197.048 133.251C197.096 133.355 197.106 133.48 197.073 133.598L195.711 138.596C195.228 140.387 194.904 142.22 194.746 144.066L194.577 146.069C194.573 146.129 194.558 146.188 194.534 146.242C194.51 146.297 194.477 146.346 194.437 146.387C194.396 146.428 194.35 146.459 194.3 146.48C194.25 146.501 194.198 146.51 194.146 146.507L194.048 146.536Z" fill="#C5C5C5"/>
<path d="M184.964 133.444C184.87 133.414 184.791 133.346 184.741 133.252C184.691 133.158 184.674 133.044 184.693 132.932L185.179 130.275C185.203 130.155 185.265 130.047 185.354 129.975C185.443 129.903 185.55 129.871 185.654 129.887C185.706 129.895 185.756 129.914 185.8 129.945C185.844 129.976 185.881 130.017 185.91 130.066C185.939 130.115 185.959 130.17 185.968 130.23C185.977 130.289 185.975 130.35 185.963 130.41L185.476 133.068C185.466 133.127 185.445 133.185 185.415 133.237C185.386 133.289 185.348 133.334 185.303 133.37C185.259 133.406 185.21 133.432 185.158 133.447C185.106 133.461 185.053 133.464 185.002 133.455L184.964 133.444Z" fill="#C5C5C5"/>
</g>
<g filter="url(#filter2_d)">
<path d="M144.4 161.123L142.998 217.893C142.957 218.307 142.786 218.706 142.498 219.059C142.211 219.412 141.815 219.708 141.342 219.924L138.489 221.064C137.986 221.239 137.433 221.323 136.874 221.31C136.315 221.296 135.767 221.184 135.273 220.984L87.7017 199.169C87.239 198.931 86.8566 198.615 86.5855 198.249C86.3143 197.882 86.162 197.475 86.1407 197.059L87.5421 140.299C87.5826 139.885 87.7544 139.485 88.0434 139.132C88.3325 138.779 88.7305 138.483 89.2053 138.269L92.0507 137.129C92.5538 136.954 93.1073 136.869 93.6661 136.883C94.225 136.897 94.7736 137.008 95.2674 137.208L142.846 159.029C143.304 159.266 143.683 159.579 143.953 159.943C144.223 160.306 144.376 160.71 144.4 161.123V161.123Z" fill="white"/>
</g>
<path d="M128.236 162.016L133.026 164.678L132.869 171.033L130.77 170.027L130.864 166.214L128.173 164.558L128.236 162.016Z" fill="#82D8FF"/>
<path d="M94.1557 198.404L89.3655 195.742L89.5224 189.387L91.622 190.392L91.5279 194.205L94.2184 195.861L94.1557 198.404Z" fill="#82D8FF"/>
<path d="M90.6409 144.092L93.8363 145.79L95.434 146.639L95.3766 148.96L92.1804 147.297L92.0788 151.412L90.4846 150.422L90.6409 144.092Z" fill="#82D8FF"/>
<path d="M131.771 215.518L127.943 213.207L126.989 212.55L127.035 210.651L130.232 212.313L130.333 208.199L131.927 209.188L131.771 215.518Z" fill="#82D8FF"/>
<path d="M144.463 160.393L136.314 162.62L134.887 220.451C135.853 222.156 138.562 221.212 141.329 219.961C142.365 219.494 143.029 218.463 143.057 217.327L144.463 160.393Z" fill="#E8F8FF"/>
<path d="M94.4602 136.903C90.5779 136.807 87.9397 138.765 87.5053 139.968L136.719 162.63L142.756 160.782C143.636 160.513 143.715 159.297 142.877 158.916L94.4602 136.903Z" fill="#E8F8FF"/>
<path d="M94.7997 164.341L94.5244 175.489" stroke="#5FCDFF" stroke-width="0.5"/>
<path opacity="0.47" d="M125.631 180.719L125.355 191.868" stroke="#5FCDFF" stroke-width="0.5"/>
<path d="M92.5424 165.4L92.3772 172.09" stroke="#5FCDFF" stroke-width="0.5"/>
<path opacity="0.47" d="M127.833 181.889L127.668 188.578" stroke="#5FCDFF" stroke-width="0.5"/>
<path d="M97.0845 162.166L96.6441 180.004" stroke="#5FCDFF" stroke-width="0.5"/>
<path d="M112.445 172.585L112.004 190.423" stroke="#5FCDFF" stroke-width="0.5"/>
<path d="M114.262 189.363L114.702 171.525" stroke="#5FCDFF" stroke-width="0.5"/>
<path d="M99.3418 161.106L98.8464 181.174" stroke="#5FCDFF" stroke-width="0.5"/>
<path d="M110.298 169.185L109.802 189.253" stroke="#5FCDFF" stroke-width="0.5"/>
<path opacity="0.47" d="M116.409 192.763L116.904 172.695" stroke="#5FCDFF" stroke-width="0.5"/>
<path d="M101.627 158.931L101.021 183.458" stroke="#5FCDFF" stroke-width="0.5"/>
<path d="M105.921 165.731L105.315 190.258" stroke="#5FCDFF" stroke-width="0.5"/>
<path opacity="0.47" d="M120.786 196.217L121.391 171.69" stroke="#5FCDFF" stroke-width="0.5"/>
<path d="M108.261 161.326L107.49 192.542" stroke="#5FCDFF" stroke-width="0.5"/>
<path opacity="0.47" d="M118.446 200.622L119.217 169.406" stroke="#5FCDFF" stroke-width="0.5"/>
<path d="M103.774 162.331L103.223 184.628" stroke="#5FCDFF" stroke-width="0.5"/>
<path opacity="0.47" d="M122.933 199.617L123.483 177.32" stroke="#5FCDFF" stroke-width="0.5"/>
<g opacity="0.63">
<path d="M94.7997 164.341L94.5244 175.489" stroke="#747474" stroke-width="0.5"/>
<path opacity="0.47" d="M125.631 180.719L125.355 191.868" stroke="#747474" stroke-width="0.5"/>
<path d="M92.5424 165.4L92.3772 172.09" stroke="#747474" stroke-width="0.5"/>
<path opacity="0.47" d="M127.833 181.889L127.668 188.578" stroke="#747474" stroke-width="0.5"/>
<path d="M97.0845 162.166L96.6441 180.004" stroke="#747474" stroke-width="0.5"/>
<path d="M112.445 172.585L112.004 190.423" stroke="#747474" stroke-width="0.5"/>
<path d="M114.262 189.363L114.702 171.525" stroke="#747474" stroke-width="0.5"/>
<path d="M99.3418 161.106L98.8464 181.174" stroke="#747474" stroke-width="0.5"/>
<path d="M110.298 169.185L109.802 189.253" stroke="#747474" stroke-width="0.5"/>
<path opacity="0.47" d="M116.409 192.763L116.904 172.695" stroke="#747474" stroke-width="0.5"/>
<path d="M101.627 158.931L101.021 183.458" stroke="#747474" stroke-width="0.5"/>
<path d="M105.921 165.731L105.315 190.258" stroke="#747474" stroke-width="0.5"/>
<path opacity="0.47" d="M120.786 196.217L121.391 171.69" stroke="#747474" stroke-width="0.5"/>
<path d="M108.261 161.326L107.49 192.542" stroke="#747474" stroke-width="0.5"/>
<path opacity="0.47" d="M118.446 200.622L119.217 169.406" stroke="#747474" stroke-width="0.5"/>
<path d="M103.774 162.331L103.223 184.628" stroke="#747474" stroke-width="0.5"/>
<path opacity="0.47" d="M122.933 199.617L123.483 177.32" stroke="#747474" stroke-width="0.5"/>
</g>
<path d="M93.6768 152.26L128.491 168.092" stroke="#82D8FF" stroke-width="0.2"/>
<path d="M93.1373 174.098L127.952 189.93" stroke="#82D8FF" stroke-width="0.2"/>
<path d="M93.4067 163.18L128.221 179.011" stroke="#82D8FF" stroke-width="0.2"/>
<path d="M92.8677 185.018L127.682 200.849" stroke="#82D8FF" stroke-width="0.2"/>
<path d="M93.5864 155.9L128.401 171.732" stroke="#82D8FF" stroke-width="0.2"/>
<path d="M93.0475 177.739L127.862 193.57" stroke="#82D8FF" stroke-width="0.2"/>
<path d="M93.3168 166.819L128.131 182.651" stroke="#82D8FF" stroke-width="0.2"/>
<path d="M92.7778 188.657L127.592 204.489" stroke="#82D8FF" stroke-width="0.2"/>
<path d="M93.4968 159.54L128.311 175.372" stroke="#82D8FF" stroke-width="0.2"/>
<path d="M92.9575 181.378L127.772 197.21" stroke="#82D8FF" stroke-width="0.2"/>
<path d="M93.2272 170.459L128.042 186.291" stroke="#82D8FF" stroke-width="0.2"/>
<path d="M92.688 192.297L127.502 208.129" stroke="#82D8FF" stroke-width="0.2"/>
<g filter="url(#filter3_d)">
<path d="M228.543 200.807L227.141 257.578C227.1 257.991 226.929 258.391 226.642 258.743C226.354 259.096 225.958 259.392 225.486 259.609L222.633 260.748C222.13 260.923 221.576 261.008 221.017 260.994C220.458 260.98 219.91 260.869 219.416 260.669L171.845 238.854C171.382 238.615 171 238.3 170.729 237.933C170.458 237.567 170.305 237.159 170.284 236.743L171.685 179.984C171.726 179.569 171.898 179.169 172.187 178.817C172.476 178.464 172.874 178.168 173.349 177.953L176.194 176.813C176.697 176.638 177.251 176.554 177.809 176.567C178.368 176.581 178.917 176.693 179.411 176.893L226.989 198.713C227.447 198.951 227.827 199.264 228.096 199.627C228.366 199.991 228.519 200.394 228.543 200.807V200.807Z" fill="white"/>
</g>
<path d="M228.606 200.078L220.458 202.304L219.03 260.135C219.997 261.841 222.705 260.896 225.473 259.646C226.508 259.178 227.172 258.147 227.2 257.011L228.606 200.078Z" fill="#E8F8FF"/>
<path d="M178.604 176.587C174.721 176.491 172.083 178.449 171.649 179.653L220.862 202.314L226.899 200.466C227.78 200.197 227.859 198.981 227.02 198.6L178.604 176.587Z" fill="#E8F8FF"/>
<g filter="url(#filter4_d)">
<path d="M174.526 213.087L177.631 211.376C177.693 211.351 177.744 211.306 177.778 211.249L178.397 210.281L176.601 209.188L176.657 209.35L174.526 213.087Z" fill="#74BBDE"/>
<path d="M176.847 209.361L174.636 212.977C174.608 213.037 174.562 213.086 174.504 213.118C174.447 213.15 174.38 213.164 174.315 213.156C174.249 213.149 174.188 213.121 174.139 213.076C174.09 213.032 174.056 212.973 174.042 212.909L171.962 206.392L176.847 209.361Z" fill="#68CBFB"/>
<path d="M169.739 191.428C169.779 190.915 169.94 190.419 170.209 189.98C170.478 189.541 170.847 189.172 171.285 188.904C171.752 188.68 172.265 188.57 172.783 188.583C173.3 188.596 173.808 188.731 174.263 188.977L198.991 201.448C199.414 201.739 199.752 202.549 199.998 203C200.243 203.451 200.454 204.025 200.469 204.539L200.13 218.275C200.089 218.788 199.863 218.842 199.596 219.28C199.075 219.777 199.003 219.494 198.566 219.764C198.099 219.987 197.544 220.248 197.027 220.235C196.509 220.222 195.46 219.922 195.004 219.676L170.719 206.063C169.409 205.274 169.416 204.511 169.439 203.57L169.739 191.428Z" fill="#6ED0FF"/>
<path opacity="0.3" d="M169.791 191.012C169.979 190.385 170.556 190.203 171.231 190.613L196.411 203.93C196.843 204.209 196.675 203.992 196.908 204.451L199.985 203.509C199.514 201.97 199.41 201.735 198.982 201.448L174.245 188.977C173.789 188.732 173.282 188.597 172.765 188.584C172.248 188.572 171.735 188.681 171.267 188.903C170.891 189.136 170.566 189.443 170.312 189.806C170.058 190.168 169.881 190.579 169.791 191.012Z" fill="white"/>
<path d="M172.647 197.354L190.882 206.256" stroke="#056492" stroke-width="0.5" stroke-linecap="round"/>
<path d="M172.834 200.051L191.069 208.953" stroke="#056492" stroke-width="0.5" stroke-linecap="round"/>
<path d="M173.021 202.749L191.256 211.651" stroke="#056492" stroke-width="0.5" stroke-linecap="round"/>
<path opacity="0.1" d="M200.139 217.19C200.098 217.702 200.397 217.837 200.13 218.275C199.862 218.714 199.512 219.506 199.075 219.776C198.652 219.978 197.482 220.734 197.014 220.744C196.547 220.754 195.931 220.38 195.501 220.197C196.191 220.477 196.743 219.583 196.764 218.743L197.064 206.601C197.058 206.085 197.163 204.899 196.908 204.451L199.998 203C200.255 203.445 200.452 204.533 200.456 205.048L200.139 217.19Z" fill="black"/>
</g>
<g filter="url(#filter5_d)">
<path d="M207.788 252.509L210.532 250.997C210.586 250.975 210.632 250.935 210.661 250.885L211.209 250.029L209.622 249.063L209.671 249.207L207.788 252.509Z" fill="#E6E6E6"/>
<path d="M209.839 249.216L207.885 252.411C207.86 252.464 207.82 252.508 207.769 252.536C207.718 252.564 207.659 252.576 207.601 252.569C207.543 252.563 207.489 252.538 207.446 252.499C207.402 252.46 207.373 252.408 207.36 252.351L205.523 246.593L209.839 249.216Z" fill="#F0F0F0"/>
<path d="M190.707 227.216C190.743 226.762 190.885 226.324 191.123 225.936C191.36 225.549 191.686 225.223 192.073 224.985C192.486 224.788 192.94 224.691 193.397 224.702C193.854 224.713 194.302 224.833 194.705 225.05L216.554 236.069C216.928 236.327 217.227 237.042 217.444 237.441C217.661 237.84 217.847 238.347 217.86 238.801L217.561 250.938C217.525 251.391 217.325 251.439 217.089 251.826C216.628 252.265 216.565 252.015 216.179 252.254C215.766 252.451 215.276 252.681 214.819 252.67C214.362 252.659 213.434 252.394 213.032 252.176L191.573 240.148C190.416 239.45 190.422 238.776 190.442 237.945L190.707 227.216Z" fill="#F0F0F0"/>
<path d="M193.299 231.553L209.412 239.419" stroke="#056492" stroke-width="0.5" stroke-linecap="round"/>
<path d="M193.464 233.936L209.577 241.802" stroke="#056492" stroke-width="0.5" stroke-linecap="round"/>
<path d="M193.629 236.32L209.742 244.186" stroke="#056492" stroke-width="0.5" stroke-linecap="round"/>
<path opacity="0.1" d="M217.591 249.08C217.555 249.533 217.819 249.652 217.583 250.039C217.346 250.427 217.037 251.127 216.65 251.366C216.277 251.544 215.243 252.212 214.83 252.221C214.417 252.229 213.873 251.9 213.493 251.738C214.102 251.984 214.59 251.195 214.609 250.453L214.874 239.724C214.869 239.268 214.962 238.22 214.736 237.824L217.466 236.542C217.693 236.935 217.868 237.897 217.871 238.351L217.591 249.08Z" fill="black"/>
<path d="M190.753 226.848C190.919 226.294 191.429 226.133 192.025 226.495L214.275 238.262C214.657 238.509 214.508 238.317 214.713 238.723L217.433 237.89C217.017 236.531 216.925 236.323 216.546 236.069L194.688 225.05C194.286 224.833 193.838 224.714 193.381 224.703C192.923 224.692 192.47 224.788 192.057 224.985C191.725 225.191 191.438 225.462 191.213 225.782C190.989 226.103 190.832 226.465 190.753 226.848Z" fill="#E8E8E8"/>
</g>
<defs>
<filter id="filter0_d" x="63.3823" y="51.7817" width="91.3935" height="116.724" filterUnits="userSpaceOnUse" color-interpolation-filters="sRGB">
<feFlood flood-opacity="0" result="BackgroundImageFix"/>
<feColorMatrix in="SourceAlpha" type="matrix" values="0 0 0 0 0 0 0 0 0 0 0 0 0 0 0 0 0 0 127 0"/>
<feOffset dx="-7" dy="16"/>
<feGaussianBlur stdDeviation="8"/>
<feColorMatrix type="matrix" values="0 0 0 0 0 0 0 0 0 0 0 0 0 0 0 0 0 0 0.07 0"/>
<feBlend mode="normal" in2="BackgroundImageFix" result="effect1_dropShadow"/>
<feBlend mode="normal" in="SourceGraphic" in2="effect1_dropShadow" result="shape"/>
</filter>
<filter id="filter1_d" x="149.144" y="93.0442" width="91.3935" height="116.724" filterUnits="userSpaceOnUse" color-interpolation-filters="sRGB">
<feFlood flood-opacity="0" result="BackgroundImageFix"/>
<feColorMatrix in="SourceAlpha" type="matrix" values="0 0 0 0 0 0 0 0 0 0 0 0 0 0 0 0 0 0 127 0"/>
<feOffset dx="-7" dy="16"/>
<feGaussianBlur stdDeviation="8"/>
<feColorMatrix type="matrix" values="0 0 0 0 0 0 0 0 0 0 0 0 0 0 0 0 0 0 0.07 0"/>
<feBlend mode="normal" in2="BackgroundImageFix" result="effect1_dropShadow"/>
<feBlend mode="normal" in="SourceGraphic" in2="effect1_dropShadow" result="shape"/>
</filter>
<filter id="filter2_d" x="62.5732" y="136.734" width="91.3935" height="116.724" filterUnits="userSpaceOnUse" color-interpolation-filters="sRGB">
<feFlood flood-opacity="0" result="BackgroundImageFix"/>
<feColorMatrix in="SourceAlpha" type="matrix" values="0 0 0 0 0 0 0 0 0 0 0 0 0 0 0 0 0 0 127 0"/>
<feOffset dx="-7" dy="16"/>
<feGaussianBlur stdDeviation="8"/>
<feColorMatrix type="matrix" values="0 0 0 0 0 0 0 0 0 0 0 0 0 0 0 0 0 0 0.07 0"/>
<feBlend mode="normal" in2="BackgroundImageFix" result="effect1_dropShadow"/>
<feBlend mode="normal" in="SourceGraphic" in2="effect1_dropShadow" result="shape"/>
</filter>
<filter id="filter3_d" x="146.717" y="176.418" width="91.3935" height="116.724" filterUnits="userSpaceOnUse" color-interpolation-filters="sRGB">
<feFlood flood-opacity="0" result="BackgroundImageFix"/>
<feColorMatrix in="SourceAlpha" type="matrix" values="0 0 0 0 0 0 0 0 0 0 0 0 0 0 0 0 0 0 127 0"/>
<feOffset dx="-7" dy="16"/>
<feGaussianBlur stdDeviation="8"/>
<feColorMatrix type="matrix" values="0 0 0 0 0 0 0 0 0 0 0 0 0 0 0 0 0 0 0.07 0"/>
<feBlend mode="normal" in2="BackgroundImageFix" result="effect1_dropShadow"/>
<feBlend mode="normal" in="SourceGraphic" in2="effect1_dropShadow" result="shape"/>
</filter>
<filter id="filter4_d" x="169.045" y="183.51" width="44.8007" height="42.3129" filterUnits="userSpaceOnUse" color-interpolation-filters="sRGB">
<feFlood flood-opacity="0" result="BackgroundImageFix"/>
<feColorMatrix in="SourceAlpha" type="matrix" values="0 0 0 0 0 0 0 0 0 0 0 0 0 0 0 0 0 0 127 0"/>
<feOffset dx="8"/>
<feGaussianBlur stdDeviation="2.5"/>
<feColorMatrix type="matrix" values="0 0 0 0 0 0 0 0 0 0 0 0 0 0 0 0 0 0 0.06 0"/>
<feBlend mode="normal" in2="BackgroundImageFix" result="effect1_dropShadow"/>
<feBlend mode="normal" in="SourceGraphic" in2="effect1_dropShadow" result="shape"/>
</filter>
<filter id="filter5_d" x="190.094" y="216.637" width="42.0994" height="40.0994" filterUnits="userSpaceOnUse" color-interpolation-filters="sRGB">
<feFlood flood-opacity="0" result="BackgroundImageFix"/>
<feColorMatrix in="SourceAlpha" type="matrix" values="0 0 0 0 0 0 0 0 0 0 0 0 0 0 0 0 0 0 127 0"/>
<feOffset dx="8" dy="-2"/>
<feGaussianBlur stdDeviation="3"/>
<feColorMatrix type="matrix" values="0 0 0 0 0 0 0 0 0 0 0 0 0 0 0 0 0 0 0.06 0"/>
<feBlend mode="normal" in2="BackgroundImageFix" result="effect1_dropShadow"/>
<feBlend mode="normal" in="SourceGraphic" in2="effect1_dropShadow" result="shape"/>
</filter>
</defs>
</svg>
