<svg width="158" height="107" viewBox="0 0 158 107" fill="none" xmlns="http://www.w3.org/2000/svg">
<g filter="url(#filter0_d)">
<rect x="32" y="12" width="110" height="59" rx="11" fill="white"/>
</g>
<path d="M89.596 48.536L87.58 46.828C88.14 46.0067 88.5693 45.12 88.868 44.168C89.1667 43.216 89.316 42.2267 89.316 41.2V41.144C89.316 39.744 89.0547 38.4373 88.532 37.224C88.028 35.992 87.3093 34.928 86.376 34.032C85.4613 33.1173 84.3693 32.3987 83.1 31.876C81.8307 31.3347 80.44 31.064 78.928 31.064C77.416 31.064 76.016 31.3347 74.728 31.876C73.4587 32.3987 72.3573 33.1267 71.424 34.06C70.5093 34.9747 69.7907 36.048 69.268 37.28C68.7453 38.4933 68.484 39.8 68.484 41.2V41.256C68.484 42.656 68.736 43.972 69.24 45.204C69.7627 46.4173 70.4813 47.4813 71.396 48.396C72.3293 49.292 73.4307 50.0107 74.7 50.552C75.9693 51.0747 77.36 51.336 78.872 51.336C79.9733 51.336 81.0093 51.196 81.98 50.916C82.9507 50.6173 83.856 50.1973 84.696 49.656L86.852 51.588L89.596 48.536ZM84.808 41.256C84.808 42.264 84.6307 43.16 84.276 43.944L81.056 41.032L78.312 44.112L81.504 46.828C80.7013 47.1827 79.8427 47.36 78.928 47.36C78.0507 47.36 77.248 47.2013 76.52 46.884C75.8107 46.548 75.1853 46.1 74.644 45.54C74.1213 44.98 73.7107 44.3267 73.412 43.58C73.132 42.8333 72.992 42.04 72.992 41.2V41.144C72.992 40.304 73.132 39.52 73.412 38.792C73.7107 38.0453 74.112 37.392 74.616 36.832C75.1387 36.272 75.7547 35.8333 76.464 35.516C77.192 35.1987 77.9947 35.04 78.872 35.04C79.7307 35.04 80.524 35.208 81.252 35.544C81.98 35.8613 82.6053 36.3 83.128 36.86C83.6693 37.42 84.08 38.0733 84.36 38.82C84.6587 39.5667 84.808 40.36 84.808 41.2V41.256Z" fill="#002B5D"/>
<path d="M93.672 32.94L94.568 36.468L97.984 35.628V51H102.24V31.26H99.3L93.672 32.94Z" fill="#002B5D"/>
<defs>
<filter id="filter0_d" x="0" y="0" width="158" height="107" filterUnits="userSpaceOnUse" color-interpolation-filters="sRGB">
<feFlood flood-opacity="0" result="BackgroundImageFix"/>
<feColorMatrix in="SourceAlpha" type="matrix" values="0 0 0 0 0 0 0 0 0 0 0 0 0 0 0 0 0 0 127 0"/>
<feOffset dx="-8" dy="12"/>
<feGaussianBlur stdDeviation="12"/>
<feColorMatrix type="matrix" values="0 0 0 0 0 0 0 0 0 0 0 0 0 0 0 0 0 0 0.08 0"/>
<feBlend mode="normal" in2="BackgroundImageFix" result="effect1_dropShadow"/>
<feBlend mode="normal" in="SourceGraphic" in2="effect1_dropShadow" result="shape"/>
</filter>
</defs>
</svg>
