<svg width="158" height="107" viewBox="0 0 158 107" fill="none" xmlns="http://www.w3.org/2000/svg">
<g filter="url(#filter0_d)">
<rect x="32" y="12" width="110" height="59" rx="11" fill="white"/>
</g>
<path d="M89.596 48.536L87.58 46.828C88.14 46.0067 88.5693 45.12 88.868 44.168C89.1667 43.216 89.316 42.2267 89.316 41.2V41.144C89.316 39.744 89.0547 38.4373 88.532 37.224C88.028 35.992 87.3093 34.928 86.376 34.032C85.4613 33.1173 84.3693 32.3987 83.1 31.876C81.8307 31.3347 80.44 31.064 78.928 31.064C77.416 31.064 76.016 31.3347 74.728 31.876C73.4587 32.3987 72.3573 33.1267 71.424 34.06C70.5093 34.9747 69.7907 36.048 69.268 37.28C68.7453 38.4933 68.484 39.8 68.484 41.2V41.256C68.484 42.656 68.736 43.972 69.24 45.204C69.7627 46.4173 70.4813 47.4813 71.396 48.396C72.3293 49.292 73.4307 50.0107 74.7 50.552C75.9693 51.0747 77.36 51.336 78.872 51.336C79.9733 51.336 81.0093 51.196 81.98 50.916C82.9507 50.6173 83.856 50.1973 84.696 49.656L86.852 51.588L89.596 48.536ZM84.808 41.256C84.808 42.264 84.6307 43.16 84.276 43.944L81.056 41.032L78.312 44.112L81.504 46.828C80.7013 47.1827 79.8427 47.36 78.928 47.36C78.0507 47.36 77.248 47.2013 76.52 46.884C75.8107 46.548 75.1853 46.1 74.644 45.54C74.1213 44.98 73.7107 44.3267 73.412 43.58C73.132 42.8333 72.992 42.04 72.992 41.2V41.144C72.992 40.304 73.132 39.52 73.412 38.792C73.7107 38.0453 74.112 37.392 74.616 36.832C75.1387 36.272 75.7547 35.8333 76.464 35.516C77.192 35.1987 77.9947 35.04 78.872 35.04C79.7307 35.04 80.524 35.208 81.252 35.544C81.98 35.8613 82.6053 36.3 83.128 36.86C83.6693 37.42 84.08 38.0733 84.36 38.82C84.6587 39.5667 84.808 40.36 84.808 41.2V41.256Z" fill="#002B5D"/>
<path d="M101.652 34.984C102.436 34.984 103.071 35.1987 103.556 35.628C104.041 36.0573 104.284 36.692 104.284 37.532C104.284 37.9427 104.219 38.3253 104.088 38.68C103.976 39.016 103.78 39.3707 103.5 39.744C103.239 40.0987 102.893 40.4813 102.464 40.892C102.035 41.284 101.512 41.732 100.896 42.236L94.372 47.584V51H108.876V47.276H100.336L103.528 44.812C104.387 44.14 105.143 43.524 105.796 42.964C106.449 42.3853 106.981 41.8067 107.392 41.228C107.821 40.6493 108.139 40.0427 108.344 39.408C108.568 38.7547 108.68 38.0173 108.68 37.196C108.68 36.2813 108.521 35.4507 108.204 34.704C107.905 33.9573 107.457 33.3227 106.86 32.8C106.281 32.2587 105.572 31.848 104.732 31.568C103.911 31.2693 102.977 31.12 101.932 31.12C101.055 31.12 100.271 31.2133 99.58 31.4C98.8893 31.568 98.2547 31.8293 97.676 32.184C97.116 32.52 96.584 32.94 96.08 33.444C95.5947 33.948 95.1093 34.5267 94.624 35.18L97.648 37.616C98.376 36.72 99.0293 36.0573 99.608 35.628C100.205 35.1987 100.887 34.984 101.652 34.984Z" fill="#002B5D"/>
<defs>
<filter id="filter0_d" x="0" y="0" width="158" height="107" filterUnits="userSpaceOnUse" color-interpolation-filters="sRGB">
<feFlood flood-opacity="0" result="BackgroundImageFix"/>
<feColorMatrix in="SourceAlpha" type="matrix" values="0 0 0 0 0 0 0 0 0 0 0 0 0 0 0 0 0 0 127 0"/>
<feOffset dx="-8" dy="12"/>
<feGaussianBlur stdDeviation="12"/>
<feColorMatrix type="matrix" values="0 0 0 0 0 0 0 0 0 0 0 0 0 0 0 0 0 0 0.08 0"/>
<feBlend mode="normal" in2="BackgroundImageFix" result="effect1_dropShadow"/>
<feBlend mode="normal" in="SourceGraphic" in2="effect1_dropShadow" result="shape"/>
</filter>
</defs>
</svg>
