<svg width="34" height="34" viewBox="0 0 34 34" fill="none" xmlns="http://www.w3.org/2000/svg">
<path d="M20.5598 22.8032C19.7982 23.5648 18.1663 23.8366 17.0035 23.8366C15.8372 23.8366 14.2087 23.5648 13.4471 22.8032C13.2668 22.6229 12.9778 22.6229 12.7978 22.8032C12.6175 22.9835 12.6175 23.2724 12.7978 23.4525C14.0048 24.6594 16.3236 24.7546 17.0035 24.7546C17.6833 24.7546 19.9987 24.6594 21.2094 23.4525C21.386 23.2722 21.386 22.9832 21.2094 22.8032C21.0291 22.6229 20.7401 22.6229 20.5598 22.8032V22.8032Z" fill="#2DBDFF"/>
<path d="M14.8749 18.7714C14.8749 17.7956 14.0793 17 13.1035 17C12.1279 17 11.332 17.7956 11.332 18.7714C11.332 19.747 12.1279 20.5429 13.1035 20.5429C14.0793 20.5429 14.8749 19.7473 14.8749 18.7714V18.7714Z" fill="#2DBDFF"/>
<path d="M17 0C7.61259 0 0 7.61259 0 17C0 26.3874 7.61259 34 17 34C26.3874 34 34 26.3874 34 17C34 7.61259 26.3874 0 17 0ZM26.8634 19.2677C26.9008 19.5125 26.9212 19.7608 26.9212 20.0124C26.9212 23.8271 22.4809 26.9179 17.0034 26.9179C11.5259 26.9179 7.08549 23.8271 7.08549 20.0124C7.08549 19.7574 7.10599 19.5058 7.14334 19.2609C6.2798 18.8734 5.67799 18.0065 5.67799 17C5.67799 15.6332 6.78641 14.5214 8.15656 14.5214C8.82295 14.5214 9.42476 14.7832 9.87015 15.2117C11.5905 13.9707 13.9707 13.1783 16.6192 13.1103C16.6192 13.0763 17.8568 7.18069 17.8568 7.18069C17.8807 7.06526 17.9486 6.96643 18.0472 6.9021C18.1458 6.83751 18.2648 6.81702 18.3805 6.84088L22.5013 7.71791C22.7903 7.13322 23.3851 6.72856 24.0821 6.72856C25.0614 6.72856 25.8536 7.52077 25.8536 8.5C25.8536 9.47923 25.0614 10.2714 24.0821 10.2714C23.1335 10.2714 22.3652 9.52333 22.3211 8.58508L18.6319 7.79962L17.5032 13.1139C20.1042 13.2055 22.4401 13.9943 24.1332 15.2184C24.5786 14.7868 25.1838 14.5214 25.8536 14.5214C27.224 14.5214 28.3321 15.6299 28.3321 17C28.3321 18.0132 27.7236 18.8801 26.8634 19.2677V19.2677Z" fill="#2DBDFF"/>
<path d="M20.8964 17C19.9206 17 19.125 17.7956 19.125 18.7714C19.125 19.747 19.9206 20.5429 20.8964 20.5429C21.872 20.5429 22.6679 19.747 22.6679 18.7714C22.6679 17.7956 21.8723 17 20.8964 17V17Z" fill="#2DBDFF"/>
</svg>
