<svg width="118" height="118" viewBox="0 0 118 118" fill="none" xmlns="http://www.w3.org/2000/svg">
<path d="M35.0991 105.463L33.5292 107.059" stroke="white" stroke-width="0.6" stroke-miterlimit="10" stroke-linecap="round" stroke-linejoin="round"/>
<path d="M40.5273 100.062L37.627 102.962" stroke="white" stroke-width="0.6" stroke-miterlimit="10" stroke-linecap="round" stroke-linejoin="round"/>
<path d="M35.6045 100.407L24.6948 111.344" stroke="white" stroke-width="0.6" stroke-miterlimit="10" stroke-linecap="round" stroke-linejoin="round"/>
<path d="M41.1926 94.8457L38.9575 97.0543" stroke="white" stroke-width="0.6" stroke-miterlimit="10" stroke-linecap="round" stroke-linejoin="round"/>
<path d="M27.7551 103.681L18.1492 113.313" stroke="white" stroke-width="0.6" stroke-miterlimit="10" stroke-linecap="round" stroke-linejoin="round"/>
<path d="M42.2568 89.1787L32.0123 99.4498" stroke="white" stroke-width="0.6" stroke-miterlimit="10" stroke-linecap="round" stroke-linejoin="round"/>
<path d="M34.2209 92.6641L17.271 109.614" stroke="white" stroke-width="0.6" stroke-miterlimit="10" stroke-linecap="round" stroke-linejoin="round"/>
<path d="M41.2458 85.6387L37.6536 89.2309" stroke="white" stroke-width="0.6" stroke-miterlimit="10" stroke-linecap="round" stroke-linejoin="round"/>
<path d="M20.2246 102.11L16.1268 106.182" stroke="white" stroke-width="0.6" stroke-miterlimit="10" stroke-linecap="round" stroke-linejoin="round"/>
<path d="M45.3169 77.0176L24.5086 97.7993" stroke="white" stroke-width="0.6" stroke-miterlimit="10" stroke-linecap="round" stroke-linejoin="round"/>
<path d="M28.6331 89.125L8.30372 109.454" stroke="white" stroke-width="0.6" stroke-miterlimit="10" stroke-linecap="round" stroke-linejoin="round"/>
<path d="M37.6003 80.1582L32.8905 84.868" stroke="white" stroke-width="0.6" stroke-miterlimit="10" stroke-linecap="round" stroke-linejoin="round"/>
<path d="M24.6682 88.5127L11.5499 101.631" stroke="white" stroke-width="0.6" stroke-miterlimit="10" stroke-linecap="round" stroke-linejoin="round"/>
<path d="M38.0793 75.1025L28.3936 84.8149" stroke="white" stroke-width="0.6" stroke-miterlimit="10" stroke-linecap="round" stroke-linejoin="round"/>
<path d="M13.8652 94.7666L7.00009 101.632" stroke="white" stroke-width="0.6" stroke-miterlimit="10" stroke-linecap="round" stroke-linejoin="round"/>
<path d="M32.1455 76.459L18.841 89.7901" stroke="white" stroke-width="0.6" stroke-miterlimit="10" stroke-linecap="round" stroke-linejoin="round"/>
<path d="M20.4907 83.5635L11.2308 92.8234" stroke="white" stroke-width="0.6" stroke-miterlimit="10" stroke-linecap="round" stroke-linejoin="round"/>
<path d="M31.0544 73L24.1361 79.9184" stroke="white" stroke-width="0.6" stroke-miterlimit="10" stroke-linecap="round" stroke-linejoin="round"/>
<path d="M12.2686 87.2354L8.64972 90.8276" stroke="white" stroke-width="0.6" stroke-miterlimit="10" stroke-linecap="round" stroke-linejoin="round"/>
<path d="M25.5198 73.9844L16.3663 83.1113" stroke="white" stroke-width="0.6" stroke-miterlimit="10" stroke-linecap="round" stroke-linejoin="round"/>
<path d="M14.1311 80.7969L11.9225 83.0054" stroke="white" stroke-width="0.6" stroke-miterlimit="10" stroke-linecap="round" stroke-linejoin="round"/>
<path d="M18.0161 76.9121L16.4994 78.4288" stroke="white" stroke-width="0.6" stroke-miterlimit="10" stroke-linecap="round" stroke-linejoin="round"/>
<path d="M60.3027 75.551C60.8627 75.0965 61.6487 75.0438 62.263 75.4227C62.8757 75.8011 63.1861 76.5262 63.0315 77.2314L58.8912 96.0707C58.261 98.9101 56.8401 101.498 54.7831 103.555L41.9837 116.354C41.4764 116.862 40.7057 116.995 40.0574 116.688C39.8794 116.603 39.7194 116.489 39.5846 116.354C39.232 116.002 39.0445 115.503 39.0957 114.985L41.4391 91.5543C41.4847 91.1057 41.7073 90.6932 42.0564 90.4074L60.3027 75.551Z" fill="#005881"/>
<path d="M42.0031 57.2514C42.4576 56.6914 42.5104 55.9054 42.1315 55.2911C41.753 54.6784 41.0279 54.368 40.3227 54.5226L21.4834 58.6629C18.644 59.2931 16.0563 60.714 13.9992 62.771L1.19984 75.5704C0.692585 76.0777 0.559136 76.8484 0.866517 77.4967C0.950934 77.6747 1.06504 77.8347 1.19984 77.9695C1.5525 78.3221 2.0515 78.5096 2.56865 78.4584L25.9998 76.115C26.4484 76.0694 26.8609 75.8468 27.1467 75.4977L42.0031 57.2514Z" fill="#003A55"/>
<path d="M97.6079 21.1806C97.4567 20.5728 96.9811 20.0972 96.3733 19.946C95.552 19.7411 76.0645 15.0998 59.9763 31.188C53.4803 37.684 37.8108 56.582 23.529 75.1465C21.4566 77.8396 21.7039 81.6806 24.1017 84.0784L33.4755 93.4522C35.8733 95.85 39.7143 96.0973 42.4074 94.0249C60.9719 79.7431 79.8699 64.0736 86.3659 57.5776C102.454 41.4894 97.813 22.0017 97.6079 21.1806Z" fill="#F4FCFF"/>
<path d="M28.7888 88.7651L24.1019 84.0783C21.7041 81.6804 21.4568 77.8394 23.5292 75.1463C37.811 56.5818 53.4805 37.6838 59.9765 31.1878C76.0647 15.0996 95.5524 19.7407 96.3734 19.9458C96.6763 20.0211 96.9462 20.1773 97.1597 20.39L97.162 20.3922L28.7889 88.7653L28.7888 88.7651Z" fill="#F4FCFF"/>
<path d="M64.7745 52.779C68.7494 56.7539 75.194 56.7539 79.1688 52.779C83.1437 48.8041 83.1437 42.3595 79.1688 38.3847C75.194 34.4098 68.7494 34.4098 64.7745 38.3847C60.7996 42.3595 60.7996 48.8041 64.7745 52.779Z" fill="white"/>
<path d="M20.3919 97.1616C19.7289 96.4986 19.7295 95.425 20.3919 94.7626L49.1806 65.9739C49.843 65.3115 50.9166 65.3109 51.5797 65.9739C52.2427 66.637 52.2421 67.7106 51.5797 68.373L22.791 97.1616C22.1286 97.8241 21.055 97.8247 20.3919 97.1616Z" fill="#005881"/>
<path d="M96.3734 19.9457C95.8243 19.8086 86.9318 17.6979 76.2918 21.1134L96.4403 41.2619C99.8558 30.6219 97.7452 21.7292 97.608 21.1803C97.4571 20.5723 96.9814 20.0967 96.3734 19.9457Z" fill="#005880"/>
<path d="M97.1621 20.3916C96.9483 20.1778 96.6774 20.0211 96.3734 19.9457C95.8243 19.8086 86.9318 17.6979 76.2918 21.1134L86.3661 31.1877L97.1621 20.3916Z" fill="#003A55"/>
<path d="M79.1689 52.7791C83.1439 48.8042 83.1439 42.3597 79.1689 38.3848L64.7746 52.7791C68.7496 56.754 75.194 56.754 79.1689 52.7791Z" fill="white"/>
<path d="M63.575 53.9791C58.9456 49.3497 58.945 41.8158 63.575 37.1858C68.205 32.5557 75.7389 32.5563 80.3684 37.1858C84.9978 41.8152 84.9984 49.3491 80.3684 53.9791C75.7383 58.6092 68.2044 58.6086 63.575 53.9791ZM77.9693 39.5848C74.6624 36.2779 69.281 36.2779 65.974 39.5848C62.6671 42.8918 62.6671 48.2731 65.974 51.5801C69.281 54.887 74.6624 54.887 77.9693 51.5801C81.2763 48.2731 81.2763 42.8918 77.9693 39.5848Z" fill="#0076AB"/>
</svg>
