<svg width="34" height="13" viewBox="0 0 34 13" fill="none" xmlns="http://www.w3.org/2000/svg">
<path fill-rule="evenodd" clip-rule="evenodd" d="M0 0.25C0 0.111929 0.111929 0 0.25 0H33.25C33.3881 0 33.5 0.111929 33.5 0.25C33.5 0.388071 33.3881 0.5 33.25 0.5H0.25C0.111929 0.5 0 0.388071 0 0.25Z" fill="#82D8FF"/>
<path fill-rule="evenodd" clip-rule="evenodd" d="M10 4.25C10 4.11193 10.1119 4 10.25 4H33.25C33.3881 4 33.5 4.11193 33.5 4.25C33.5 4.38807 33.3881 4.5 33.25 4.5H10.25C10.1119 4.5 10 4.38807 10 4.25Z" fill="#82D8FF"/>
<path fill-rule="evenodd" clip-rule="evenodd" d="M14 8.25C14 8.11193 14.1119 8 14.25 8H33.25C33.3881 8 33.5 8.11193 33.5 8.25C33.5 8.38807 33.3881 8.5 33.25 8.5H14.25C14.1119 8.5 14 8.38807 14 8.25Z" fill="#12B5FF"/>
<path fill-rule="evenodd" clip-rule="evenodd" d="M16.5 12.25C16.5 12.1119 16.6119 12 16.75 12H21.75C21.8881 12 22 12.1119 22 12.25C22 12.3881 21.8881 12.5 21.75 12.5H16.75C16.6119 12.5 16.5 12.3881 16.5 12.25Z" fill="#82D8FF"/>
<path fill-rule="evenodd" clip-rule="evenodd" d="M24.5 12.25C24.5 12.1119 24.6119 12 24.75 12H33.25C33.3881 12 33.5 12.1119 33.5 12.25C33.5 12.3881 33.3881 12.5 33.25 12.5H24.75C24.6119 12.5 24.5 12.3881 24.5 12.25Z" fill="#82D8FF"/>
</svg>
