<svg width="34" height="13" viewBox="0 0 34 13" fill="none" xmlns="http://www.w3.org/2000/svg">
<path fill-rule="evenodd" clip-rule="evenodd" d="M33.5 0.25C33.5 0.111929 33.3881 0 33.25 0H0.25C0.111927 0 0 0.111929 0 0.25C0 0.388071 0.111927 0.5 0.25 0.5H33.25C33.3881 0.5 33.5 0.388071 33.5 0.25Z" fill="#82D8FF"/>
<path fill-rule="evenodd" clip-rule="evenodd" d="M23.5 4.25C23.5 4.11193 23.3881 4 23.25 4H0.25C0.111929 4 0 4.11193 0 4.25C0 4.38807 0.111929 4.5 0.25 4.5H23.25C23.3881 4.5 23.5 4.38807 23.5 4.25Z" fill="#82D8FF"/>
<path fill-rule="evenodd" clip-rule="evenodd" d="M19.5 8.25C19.5 8.11193 19.3881 8 19.25 8H0.25C0.111929 8 0 8.11193 0 8.25C0 8.38807 0.111929 8.5 0.25 8.5H19.25C19.3881 8.5 19.5 8.38807 19.5 8.25Z" fill="#12B5FF"/>
<path fill-rule="evenodd" clip-rule="evenodd" d="M17 12.25C17 12.1119 16.8881 12 16.75 12H11.75C11.6119 12 11.5 12.1119 11.5 12.25C11.5 12.3881 11.6119 12.5 11.75 12.5H16.75C16.8881 12.5 17 12.3881 17 12.25Z" fill="#82D8FF"/>
<path fill-rule="evenodd" clip-rule="evenodd" d="M9 12.25C9 12.1119 8.88807 12 8.75 12H0.25C0.111929 12 0 12.1119 0 12.25C0 12.3881 0.111929 12.5 0.25 12.5H8.75C8.88807 12.5 9 12.3881 9 12.25Z" fill="#82D8FF"/>
</svg>
