<svg width="273" height="259" viewBox="0 0 273 259" fill="none" xmlns="http://www.w3.org/2000/svg">
<path d="M255.384 55.9531L252.775 58.6066" stroke="#82D8FF" stroke-width="0.6" stroke-miterlimit="10" stroke-linecap="round" stroke-linejoin="round"/>
<path d="M264.406 46.9766L259.585 51.797" stroke="#82D8FF" stroke-width="0.6" stroke-miterlimit="10" stroke-linecap="round" stroke-linejoin="round"/>
<path d="M256.224 47.5518L238.092 65.728" stroke="#82D8FF" stroke-width="0.6" stroke-miterlimit="10" stroke-linecap="round" stroke-linejoin="round"/>
<path d="M265.511 38.3076L261.797 41.9783" stroke="#82D8FF" stroke-width="0.6" stroke-miterlimit="10" stroke-linecap="round" stroke-linejoin="round"/>
<path d="M243.178 52.9912L227.213 69.0005" stroke="#12B5FF" stroke-width="0.6" stroke-miterlimit="10" stroke-linecap="round" stroke-linejoin="round"/>
<path d="M267.281 28.8887L250.254 45.9593" stroke="#12B5FF" stroke-width="0.6" stroke-miterlimit="10" stroke-linecap="round" stroke-linejoin="round"/>
<path d="M253.925 34.6816L225.754 62.8526" stroke="#82D8FF" stroke-width="0.6" stroke-miterlimit="10" stroke-linecap="round" stroke-linejoin="round"/>
<path d="M265.6 23.0059L259.63 28.9762" stroke="#82D8FF" stroke-width="0.6" stroke-miterlimit="10" stroke-linecap="round" stroke-linejoin="round"/>
<path d="M230.663 50.3818L223.852 57.1482" stroke="#82D8FF" stroke-width="0.6" stroke-miterlimit="10" stroke-linecap="round" stroke-linejoin="round"/>
<path d="M272.366 8.67773L237.783 43.217" stroke="#82D8FF" stroke-width="0.6" stroke-miterlimit="10" stroke-linecap="round" stroke-linejoin="round"/>
<path d="M244.637 28.7998L210.85 62.5873" stroke="#12B5FF" stroke-width="0.6" stroke-miterlimit="10" stroke-linecap="round" stroke-linejoin="round"/>
<path d="M259.541 13.8965L251.714 21.7242" stroke="#12B5FF" stroke-width="0.6" stroke-miterlimit="10" stroke-linecap="round" stroke-linejoin="round"/>
<path d="M238.048 27.7822L216.245 49.5849" stroke="#82D8FF" stroke-width="0.6" stroke-miterlimit="10" stroke-linecap="round" stroke-linejoin="round"/>
<path d="M260.337 5.49414L244.239 21.6361" stroke="#82D8FF" stroke-width="0.6" stroke-miterlimit="10" stroke-linecap="round" stroke-linejoin="round"/>
<path d="M220.093 38.1758L208.683 49.5857" stroke="#12B5FF" stroke-width="0.6" stroke-miterlimit="10" stroke-linecap="round" stroke-linejoin="round"/>
<path d="M250.475 7.74902L228.363 29.9055" stroke="#12B5FF" stroke-width="0.6" stroke-miterlimit="10" stroke-linecap="round" stroke-linejoin="round"/>
<path d="M231.105 19.5566L215.715 34.9468" stroke="#82D8FF" stroke-width="0.6" stroke-miterlimit="10" stroke-linecap="round" stroke-linejoin="round"/>
<path d="M248.662 2L237.164 13.4984" stroke="#82D8FF" stroke-width="0.6" stroke-miterlimit="10" stroke-linecap="round" stroke-linejoin="round"/>
<path d="M217.439 25.6602L211.425 31.6305" stroke="#12B5FF" stroke-width="0.6" stroke-miterlimit="10" stroke-linecap="round" stroke-linejoin="round"/>
<path d="M239.463 3.63672L224.25 18.8057" stroke="#12B5FF" stroke-width="0.6" stroke-miterlimit="10" stroke-linecap="round" stroke-linejoin="round"/>
<path d="M220.535 14.958L216.865 18.6286" stroke="#82D8FF" stroke-width="0.6" stroke-miterlimit="10" stroke-linecap="round" stroke-linejoin="round"/>
<path d="M226.992 8.50098L224.471 11.0218" stroke="#82D8FF" stroke-width="0.6" stroke-miterlimit="10" stroke-linecap="round" stroke-linejoin="round"/>
<path d="M59.384 241.953L56.7748 244.607" stroke="#82D8FF" stroke-width="0.6" stroke-miterlimit="10" stroke-linecap="round" stroke-linejoin="round"/>
<path d="M68.4058 232.977L63.5853 237.797" stroke="#82D8FF" stroke-width="0.6" stroke-miterlimit="10" stroke-linecap="round" stroke-linejoin="round"/>
<path d="M60.2241 233.552L42.0921 251.728" stroke="#82D8FF" stroke-width="0.6" stroke-miterlimit="10" stroke-linecap="round" stroke-linejoin="round"/>
<path d="M69.5115 224.308L65.7966 227.978" stroke="#82D8FF" stroke-width="0.6" stroke-miterlimit="10" stroke-linecap="round" stroke-linejoin="round"/>
<path d="M47.1782 238.991L31.2132 255" stroke="#12B5FF" stroke-width="0.6" stroke-miterlimit="10" stroke-linecap="round" stroke-linejoin="round"/>
<path d="M71.2805 214.889L54.2541 231.959" stroke="#12B5FF" stroke-width="0.6" stroke-miterlimit="10" stroke-linecap="round" stroke-linejoin="round"/>
<path d="M57.9246 220.682L29.7536 248.853" stroke="#82D8FF" stroke-width="0.6" stroke-miterlimit="10" stroke-linecap="round" stroke-linejoin="round"/>
<path d="M69.5999 209.006L63.6296 214.976" stroke="#82D8FF" stroke-width="0.6" stroke-miterlimit="10" stroke-linecap="round" stroke-linejoin="round"/>
<path d="M34.6626 236.382L27.852 243.148" stroke="#82D8FF" stroke-width="0.6" stroke-miterlimit="10" stroke-linecap="round" stroke-linejoin="round"/>
<path d="M76.3662 194.678L41.7827 229.217" stroke="#82D8FF" stroke-width="0.6" stroke-miterlimit="10" stroke-linecap="round" stroke-linejoin="round"/>
<path d="M48.6375 214.8L14.85 248.587" stroke="#12B5FF" stroke-width="0.6" stroke-miterlimit="10" stroke-linecap="round" stroke-linejoin="round"/>
<path d="M63.5413 199.896L55.7135 207.724" stroke="#12B5FF" stroke-width="0.6" stroke-miterlimit="10" stroke-linecap="round" stroke-linejoin="round"/>
<path d="M42.0481 213.782L20.2454 235.585" stroke="#82D8FF" stroke-width="0.6" stroke-miterlimit="10" stroke-linecap="round" stroke-linejoin="round"/>
<path d="M64.3372 191.494L48.2395 207.636" stroke="#82D8FF" stroke-width="0.6" stroke-miterlimit="10" stroke-linecap="round" stroke-linejoin="round"/>
<path d="M24.093 224.176L12.6831 235.586" stroke="#12B5FF" stroke-width="0.6" stroke-miterlimit="10" stroke-linecap="round" stroke-linejoin="round"/>
<path d="M54.4751 193.749L32.3629 215.905" stroke="#12B5FF" stroke-width="0.6" stroke-miterlimit="10" stroke-linecap="round" stroke-linejoin="round"/>
<path d="M35.1047 205.557L19.7146 220.947" stroke="#82D8FF" stroke-width="0.6" stroke-miterlimit="10" stroke-linecap="round" stroke-linejoin="round"/>
<path d="M52.6619 188L41.1635 199.498" stroke="#82D8FF" stroke-width="0.6" stroke-miterlimit="10" stroke-linecap="round" stroke-linejoin="round"/>
<path d="M21.4395 211.66L15.4249 217.63" stroke="#12B5FF" stroke-width="0.6" stroke-miterlimit="10" stroke-linecap="round" stroke-linejoin="round"/>
<path d="M43.4634 189.637L28.2502 204.806" stroke="#12B5FF" stroke-width="0.6" stroke-miterlimit="10" stroke-linecap="round" stroke-linejoin="round"/>
<path d="M24.5352 200.958L20.8645 204.629" stroke="#82D8FF" stroke-width="0.6" stroke-miterlimit="10" stroke-linecap="round" stroke-linejoin="round"/>
<path d="M30.9919 194.501L28.4712 197.022" stroke="#82D8FF" stroke-width="0.6" stroke-miterlimit="10" stroke-linecap="round" stroke-linejoin="round"/>
<g filter="url(#filter0_d)">
<rect x="39.9023" y="21.5635" width="200.066" height="200.066" rx="8" fill="white"/>
</g>
<g filter="url(#filter1_d)">
<rect x="33.6831" y="27" width="198.066" height="198.066" stroke="#82D8FF" stroke-width="2"/>
</g>
<path d="M89.9563 83.4392C104.384 69.2038 120.355 61.0839 140.137 57.5117C159.918 53.9395 183.397 54.8493 195.689 67.3979C207.867 79.8809 208.834 103.913 204.057 126.22C199.305 148.616 188.875 169.173 171.461 179.792C153.982 190.524 129.406 191.253 108.003 182.682C86.5999 174.111 68.2562 156.175 65.5511 137.121C62.7324 118.001 75.5282 97.6746 89.9563 83.4392Z" fill="#D1F1FF"/>
<defs>
<filter id="filter0_d" x="18.9023" y="0.563477" width="242.066" height="242.066" filterUnits="userSpaceOnUse" color-interpolation-filters="sRGB">
<feFlood flood-opacity="0" result="BackgroundImageFix"/>
<feColorMatrix in="SourceAlpha" type="matrix" values="0 0 0 0 0 0 0 0 0 0 0 0 0 0 0 0 0 0 127 0"/>
<feOffset/>
<feGaussianBlur stdDeviation="10.5"/>
<feColorMatrix type="matrix" values="0 0 0 0 0 0 0 0 0 0 0 0 0 0 0 0 0 0 0.08 0"/>
<feBlend mode="normal" in2="BackgroundImageFix" result="effect1_dropShadow"/>
<feBlend mode="normal" in="SourceGraphic" in2="effect1_dropShadow" result="shape"/>
</filter>
<filter id="filter1_d" x="0.683105" y="16" width="242.066" height="242.066" filterUnits="userSpaceOnUse" color-interpolation-filters="sRGB">
<feFlood flood-opacity="0" result="BackgroundImageFix"/>
<feColorMatrix in="SourceAlpha" type="matrix" values="0 0 0 0 0 0 0 0 0 0 0 0 0 0 0 0 0 0 127 0"/>
<feOffset dx="-11" dy="11"/>
<feGaussianBlur stdDeviation="10.5"/>
<feColorMatrix type="matrix" values="0 0 0 0 0 0 0 0 0 0 0 0 0 0 0 0 0 0 0.08 0"/>
<feBlend mode="normal" in2="BackgroundImageFix" result="effect1_dropShadow"/>
<feBlend mode="normal" in="SourceGraphic" in2="effect1_dropShadow" result="shape"/>
</filter>
</defs>
</svg>
