<svg width="243" height="243" viewBox="0 0 243 243" fill="none" xmlns="http://www.w3.org/2000/svg">
<g filter="url(#filter0_d)">
<rect x="32" y="10" width="200.066" height="200.066" rx="8" fill="white"/>
</g>
<mask id="mask0" mask-type="alpha" maskUnits="userSpaceOnUse" x="32" y="10" width="201" height="201">
<rect x="32" y="10" width="200.066" height="200.066" rx="8" fill="white"/>
</mask>
<g mask="url(#mask0)">
<path d="M152.858 137.726V121.555H111.274V137.726L132.066 156.208L152.858 137.726Z" fill="#E6AF78"/>
<path d="M185.007 145.291L156.42 138.564C155.988 138.463 155.591 138.29 155.22 138.081L132.066 151.587L109.815 137.428C109.239 137.97 108.524 138.373 107.712 138.564L79.1245 145.291C74.9501 146.273 72 149.998 72 154.286V172.38C72 174.932 74.0686 177 76.6204 177H187.51C190.062 177 192.131 174.931 192.131 172.38V154.286C192.131 149.997 189.181 146.272 185.007 145.291Z" fill="#EFF2FA"/>
<path d="M111.274 121.554V138.616C137.466 148.053 152.858 124.435 152.858 124.435V121.554H111.274V121.554Z" fill="#D29B6E"/>
<path d="M102.033 68.4199L104.046 112.71C104.234 116.847 106.263 120.684 109.576 123.169L119.129 130.334C121.528 132.133 124.446 133.106 127.445 133.106H136.686C139.686 133.106 142.604 132.133 145.003 130.334L154.555 123.169C157.869 120.684 159.898 116.848 160.085 112.71L162.099 68.4199C162.098 68.4199 102.033 68.4199 102.033 68.4199Z" fill="#F0C087"/>
<path d="M125.136 77.6609C134.376 77.6609 148.238 75.3507 151.525 68.4199H102.033L104.046 112.71C104.234 116.847 106.263 120.684 109.577 123.169L119.129 130.334C121.528 132.133 124.446 133.106 127.446 133.106H132.066C127.446 133.106 118.205 123.865 118.205 112.314C118.205 106.665 118.205 91.5222 118.205 84.5914C118.205 82.2813 120.515 77.6609 125.136 77.6609Z" fill="#E6AF78"/>
<path d="M88.9608 162.006L73.9908 148.559C72.7364 150.147 72.001 152.146 72.001 154.285V172.379C72.001 174.931 74.0696 176.999 76.6213 176.999H92.7928V170.599C92.7926 167.321 91.3995 164.197 88.9608 162.006Z" fill="#E4EAF6"/>
<path d="M175.172 162.006L190.142 148.559C191.396 150.147 192.131 152.146 192.131 154.285V172.379C192.131 174.931 190.063 176.999 187.511 176.999H171.34V170.599C171.34 167.321 172.733 164.197 175.172 162.006Z" fill="#E4EAF6"/>
<path d="M137.842 176.999H126.291L127.734 156.207H136.398L137.842 176.999Z" fill="#5B5D6E"/>
<path d="M137.842 151.587H126.291V155.935C126.291 157.361 127.447 158.518 128.873 158.518H135.259C136.685 158.518 137.841 157.361 137.841 155.935V151.587H137.842Z" fill="#515262"/>
<path d="M110.95 132.582L132.066 151.587C132.066 151.587 126.152 154.572 118.855 160.59C117.349 161.831 115.072 161.328 114.265 159.552L104.344 137.726L107.482 133.018C108.263 131.846 109.903 131.64 110.95 132.582Z" fill="#E4EAF6"/>
<path d="M153.182 132.582L132.066 151.587C132.066 151.587 137.98 154.572 145.277 160.59C146.783 161.831 149.06 161.328 149.867 159.552L159.788 137.726L156.65 133.018C155.869 131.846 154.229 131.64 153.182 132.582Z" fill="#E4EAF6"/>
<path d="M146.072 53.1149L148.237 68.4201C158.124 70.3974 159.548 85.9125 159.754 90.3439C159.791 91.1482 160.048 91.9247 160.484 92.6012L164.256 98.4527C164.256 98.4527 162.965 88.7786 168.876 82.2812C168.877 82.2812 170.906 43.8739 146.072 53.1149Z" fill="#785550"/>
<path d="M166.573 97.4672L163.965 107.899C163.656 109.136 162.545 110.003 161.271 110.003C159.87 110.003 158.688 108.96 158.514 107.57L157.18 96.9C156.823 94.0439 159.05 91.5215 161.929 91.5215H161.931C165.044 91.5217 167.328 94.447 166.573 97.4672Z" fill="#F0C087"/>
<path d="M104.247 48.975L107.664 51.3093C92.2149 62.716 95.1024 82.2806 95.1024 82.2806C99.7228 86.901 99.7228 98.4521 99.7228 98.4521L104.343 93.8318C104.343 93.8318 102.56 80.4847 111.274 75.3501C119.359 70.5853 126.434 73.0399 133.654 73.0399C153.002 73.0399 158.417 65.7482 157.478 56.8684C156.992 52.2737 149.967 42.7027 132.066 43.0071C124.841 43.1298 111.274 45.3173 104.247 48.975Z" fill="#694B4B"/>
<path d="M102.9 71.0184C102.9 71.0184 100.445 61.3443 107.664 51.3096C92.2149 62.7163 95.1025 82.2809 95.1025 82.2809C99.7228 86.9013 99.7228 98.4524 99.7228 98.4524L104.343 93.8321C104.343 93.8321 102.56 80.485 111.274 75.3504C119.359 70.5856 126.434 73.0402 133.654 73.0402C136.801 73.0402 139.543 72.8295 141.985 72.4684C127.085 72.9677 118.301 61.6812 102.9 71.0184Z" fill="#5A4146"/>
<path d="M97.5588 97.4672L100.167 107.899C100.476 109.136 101.587 110.003 102.861 110.003C104.262 110.003 105.444 108.96 105.618 107.57L106.952 96.9C107.309 94.0439 105.082 91.5215 102.204 91.5215H102.201C99.088 91.5217 96.8038 94.447 97.5588 97.4672Z" fill="#E6AF78"/>
<path d="M162.099 172.379H145.927C144.651 172.379 143.617 173.413 143.617 174.689V176.999H164.409V174.689C164.409 173.413 163.374 172.379 162.099 172.379Z" fill="#E4EAF6"/>
<g opacity="0.95">
<path d="M152.858 137.726V121.555H111.274V137.726L132.066 156.208L152.858 137.726Z" fill="white"/>
<path d="M185.007 145.291L156.42 138.564C155.988 138.463 155.591 138.29 155.22 138.081L132.066 151.587L109.815 137.428C109.239 137.97 108.524 138.373 107.712 138.564L79.1245 145.291C74.9501 146.273 72 149.998 72 154.286V172.38C72 174.932 74.0686 177 76.6204 177H187.51C190.062 177 192.131 174.931 192.131 172.38V154.286C192.131 149.997 189.181 146.272 185.007 145.291Z" fill="white"/>
<path d="M111.274 121.554V138.616C137.466 148.053 152.858 124.435 152.858 124.435V121.554H111.274V121.554Z" fill="white"/>
<path d="M102.033 68.4199L104.046 112.71C104.234 116.847 106.263 120.684 109.576 123.169L119.129 130.334C121.528 132.133 124.446 133.106 127.445 133.106H136.686C139.686 133.106 142.604 132.133 145.003 130.334L154.555 123.169C157.869 120.684 159.898 116.848 160.085 112.71L162.099 68.4199C162.098 68.4199 102.033 68.4199 102.033 68.4199Z" fill="white"/>
<path d="M125.136 77.6609C134.376 77.6609 148.238 75.3507 151.525 68.4199H102.033L104.046 112.71C104.234 116.847 106.263 120.684 109.577 123.169L119.129 130.334C121.528 132.133 124.446 133.106 127.446 133.106H132.066C127.446 133.106 118.205 123.865 118.205 112.314C118.205 106.665 118.205 91.5222 118.205 84.5914C118.205 82.2813 120.515 77.6609 125.136 77.6609Z" fill="white"/>
<path d="M88.9608 162.006L73.9908 148.559C72.7364 150.147 72.001 152.146 72.001 154.285V172.379C72.001 174.931 74.0696 176.999 76.6213 176.999H92.7928V170.599C92.7926 167.321 91.3995 164.197 88.9608 162.006Z" fill="white"/>
<path d="M175.172 162.006L190.142 148.559C191.396 150.147 192.131 152.146 192.131 154.285V172.379C192.131 174.931 190.063 176.999 187.511 176.999H171.34V170.599C171.34 167.321 172.733 164.197 175.172 162.006Z" fill="white"/>
<path d="M137.842 176.999H126.291L127.734 156.207H136.398L137.842 176.999Z" fill="white"/>
<path d="M137.842 151.587H126.291V155.935C126.291 157.361 127.447 158.518 128.873 158.518H135.259C136.685 158.518 137.841 157.361 137.841 155.935V151.587H137.842Z" fill="white"/>
<path d="M110.95 132.582L132.066 151.587C132.066 151.587 126.152 154.572 118.855 160.59C117.349 161.831 115.072 161.328 114.265 159.552L104.344 137.726L107.482 133.018C108.263 131.846 109.903 131.64 110.95 132.582Z" fill="white"/>
<path d="M153.182 132.582L132.066 151.587C132.066 151.587 137.98 154.572 145.277 160.59C146.783 161.831 149.06 161.328 149.867 159.552L159.788 137.726L156.65 133.018C155.869 131.846 154.229 131.64 153.182 132.582Z" fill="white"/>
<path d="M146.072 53.1149L148.237 68.4201C158.124 70.3974 159.548 85.9125 159.754 90.3439C159.791 91.1482 160.048 91.9247 160.484 92.6012L164.256 98.4527C164.256 98.4527 162.965 88.7786 168.876 82.2812C168.877 82.2812 170.906 43.8739 146.072 53.1149Z" fill="white"/>
<path d="M166.573 97.4672L163.965 107.899C163.656 109.136 162.545 110.003 161.271 110.003C159.87 110.003 158.688 108.96 158.514 107.57L157.18 96.9C156.823 94.0439 159.05 91.5215 161.929 91.5215H161.931C165.044 91.5217 167.328 94.447 166.573 97.4672Z" fill="white"/>
<path d="M104.247 48.975L107.664 51.3093C92.2149 62.716 95.1024 82.2806 95.1024 82.2806C99.7228 86.901 99.7228 98.4521 99.7228 98.4521L104.343 93.8318C104.343 93.8318 102.56 80.4847 111.274 75.3501C119.359 70.5853 126.434 73.0399 133.654 73.0399C153.002 73.0399 158.417 65.7482 157.478 56.8684C156.992 52.2737 149.967 42.7027 132.066 43.0071C124.841 43.1298 111.274 45.3173 104.247 48.975Z" fill="white"/>
<path d="M102.9 71.0184C102.9 71.0184 100.445 61.3443 107.664 51.3096C92.2149 62.7163 95.1025 82.2809 95.1025 82.2809C99.7228 86.9013 99.7228 98.4524 99.7228 98.4524L104.343 93.8321C104.343 93.8321 102.56 80.485 111.274 75.3504C119.359 70.5856 126.434 73.0402 133.654 73.0402C136.801 73.0402 139.543 72.8295 141.985 72.4684C127.085 72.9677 118.301 61.6812 102.9 71.0184Z" fill="white"/>
<path d="M97.5588 97.4672L100.167 107.899C100.476 109.136 101.587 110.003 102.861 110.003C104.262 110.003 105.444 108.96 105.618 107.57L106.952 96.9C107.309 94.0439 105.082 91.5215 102.204 91.5215H102.201C99.088 91.5217 96.8038 94.447 97.5588 97.4672Z" fill="white"/>
<path d="M162.099 172.379H145.927C144.651 172.379 143.617 173.413 143.617 174.689V176.999H164.409V174.689C164.409 173.413 163.374 172.379 162.099 172.379Z" fill="white"/>
</g>
<g opacity="0.45">
<path d="M141.138 138.532C141.094 138.592 141.051 138.653 141.051 138.653C140.964 138.774 140.877 138.895 140.851 139.059C140.938 138.938 140.964 138.774 141.007 138.713C141.111 138.696 141.094 138.592 141.138 138.532Z" fill="#CCEFFF"/>
<path d="M106.583 148.361C109.149 144.788 108.332 139.811 104.759 137.245C101.185 134.679 96.2082 135.495 93.6421 139.069C91.0761 142.642 91.8927 147.619 95.4661 150.185C99.0395 152.751 104.017 151.935 106.583 148.361Z" fill="#CCEFFF"/>
<path d="M160.093 147.742C162.659 144.169 161.843 139.192 158.269 136.626C154.696 134.06 149.719 134.876 147.153 138.45C144.587 142.023 145.403 147 148.977 149.566C152.55 152.132 157.527 151.316 160.093 147.742Z" fill="#CCEFFF"/>
<path d="M101.281 172.258C102.96 169.921 102.426 166.665 100.088 164.986C97.7502 163.307 94.4942 163.841 92.8155 166.179C91.1368 168.517 91.671 171.773 94.0088 173.452C96.3465 175.13 99.6025 174.596 101.281 172.258Z" fill="#CCEFFF"/>
<path d="M132.351 173.739C134.03 171.401 133.496 168.145 131.158 166.466C128.82 164.788 125.564 165.322 123.886 167.66C122.207 169.997 122.741 173.253 125.079 174.932C127.417 176.611 130.673 176.077 132.351 173.739Z" fill="#CCEFFF"/>
<path d="M134.431 193.563C135.462 192.127 135.134 190.127 133.698 189.095C132.262 188.064 130.262 188.392 129.231 189.829C128.199 191.265 128.528 193.265 129.964 194.296C131.4 195.327 133.4 194.999 134.431 193.563Z" fill="#CCEFFF"/>
<path d="M180.091 193.611C181.122 192.175 180.794 190.175 179.358 189.143C177.922 188.112 175.922 188.44 174.891 189.876C173.86 191.312 174.188 193.313 175.624 194.344C177.06 195.375 179.06 195.047 180.091 193.611Z" fill="#CCEFFF"/>
<path d="M112.768 183.782C113.799 182.346 113.471 180.345 112.035 179.314C110.598 178.283 108.598 178.611 107.567 180.047C106.536 181.483 106.864 183.483 108.3 184.515C109.736 185.546 111.736 185.218 112.768 183.782Z" fill="#CCEFFF"/>
<path d="M98.2187 197.886C99.2499 196.45 98.9217 194.45 97.4857 193.419C96.0496 192.388 94.0495 192.716 93.0183 194.152C91.9871 195.588 92.3153 197.588 93.7513 198.619C95.1874 199.65 97.1875 199.322 98.2187 197.886Z" fill="#CCEFFF"/>
<path d="M79.7067 157.804C80.738 156.368 80.4098 154.368 78.9737 153.337C77.5377 152.305 75.5376 152.634 74.5063 154.07C73.4751 155.506 73.8033 157.506 75.2394 158.537C76.6754 159.568 78.6755 159.24 79.7067 157.804Z" fill="#CCEFFF"/>
<path d="M77.7143 182.537C78.7455 181.101 78.4173 179.101 76.9813 178.07C75.5452 177.039 73.5451 177.367 72.5139 178.803C71.4827 180.239 71.8109 182.239 73.2469 183.27C74.683 184.302 76.6831 183.974 77.7143 182.537Z" fill="#CCEFFF"/>
<path d="M186.578 153.106C188.257 150.768 187.723 147.512 185.385 145.834C183.047 144.155 179.791 144.689 178.113 147.027C176.434 149.365 176.968 152.621 179.306 154.299C181.644 155.978 184.9 155.444 186.578 153.106Z" fill="#CCEFFF"/>
<path d="M166.608 168.919C167.615 167.517 167.295 165.563 165.892 164.556C164.489 163.549 162.536 163.869 161.529 165.272C160.521 166.674 160.842 168.628 162.245 169.635C163.647 170.643 165.601 170.322 166.608 168.919Z" fill="#CCEFFF"/>
<path d="M182.37 174.281C183.377 172.878 183.057 170.924 181.654 169.917C180.252 168.91 178.298 169.23 177.291 170.633C176.284 172.036 176.604 173.989 178.007 174.997C179.409 176.004 181.363 175.683 182.37 174.281Z" fill="#CCEFFF"/>
<path d="M154.675 181.651C155.682 180.248 155.362 178.295 153.959 177.287C152.557 176.28 150.603 176.601 149.596 178.003C148.588 179.406 148.909 181.359 150.312 182.367C151.714 183.374 153.668 183.053 154.675 181.651Z" fill="#CCEFFF"/>
<path d="M141.138 138.532C141.094 138.592 141.051 138.653 141.051 138.653C140.964 138.774 140.877 138.895 140.851 139.059C140.938 138.938 140.964 138.774 141.007 138.713C141.111 138.696 141.094 138.592 141.138 138.532Z" fill="#CCEFFF"/>
<path d="M141.11 138.694C141.023 138.815 140.937 138.936 140.954 139.039C140.937 138.936 141.023 138.815 141.11 138.694Z" fill="#CCEFFF"/>
<path d="M178.197 41.2301C155.302 15.8072 115.698 13.3969 89.9382 35.8675C66.0955 56.69 61.7071 91.3908 78.2063 117.17C78.4993 117.655 78.4202 118.148 77.9953 118.485C77.5704 118.821 77.1626 119.261 76.7981 119.641C74.7325 122.007 73.8762 125.242 74.9071 128.273C76.9595 134.605 83.5572 136.776 88.4791 134.262C89.1722 133.934 89.8918 133.443 90.4904 132.865C90.6811 132.727 90.8113 132.545 90.9587 132.468C91.1494 132.33 91.2363 132.209 91.3665 132.027C97.2591 128.927 104.88 130.183 109.575 135.388C110.688 136.645 111.55 137.998 112.161 139.444C112.333 139.843 112.297 140.276 112.201 140.665C111.966 141.504 111.79 142.386 111.719 143.251C111.453 145.535 111.785 147.881 112.619 150.038C113.298 151.901 114.393 153.695 115.869 155.213C121.074 160.6 129.682 161.375 135.769 156.855C137.911 155.277 139.448 153.265 140.474 151.069C141.301 149.28 141.695 147.455 141.804 145.516C141.903 143.846 141.717 142.063 141.176 140.391C141.159 140.288 141.082 140.14 141.064 140.036C141.047 139.932 140.97 139.785 140.953 139.681C140.919 139.473 140.945 139.309 141.015 139.084C141.041 138.92 141.128 138.799 141.215 138.678C141.258 138.618 141.302 138.557 141.302 138.557C142.076 137.096 143.135 135.749 144.436 134.575C149.276 130.261 156.114 129.672 161.507 132.628C162.155 133.002 162.629 133.617 162.853 134.328C163.127 135.349 163.592 136.233 164.222 137.144C164.42 137.378 164.636 137.716 164.834 137.95C165.809 139.017 166.958 139.842 168.16 140.338C172.698 142.314 178.44 140.572 180.886 134.996C182.366 131.659 181.467 127.806 178.912 125.238C178.834 125.09 178.817 124.987 178.861 124.926C178.904 124.866 178.904 124.866 178.947 124.805C178.947 124.805 178.947 124.805 178.991 124.745L179.034 124.684C199.526 100.997 199.72 65.1178 178.197 41.2301Z" fill="url(#paint0_linear)"/>
</g>
<mask id="mask1" mask-type="alpha" maskUnits="userSpaceOnUse" x="32" y="10" width="201" height="201">
<rect x="32" y="10" width="200.066" height="200.066" rx="8" fill="white"/>
</mask>
<g mask="url(#mask1)">
<path d="M226.18 200.479L222.442 204.28" stroke="#82D8FF" stroke-width="0.6" stroke-miterlimit="10" stroke-linecap="round" stroke-linejoin="round"/>
<path d="M239.107 187.615L232.2 194.522" stroke="#82D8FF" stroke-width="0.6" stroke-miterlimit="10" stroke-linecap="round" stroke-linejoin="round"/>
<path d="M227.384 188.439L201.404 214.483" stroke="#82D8FF" stroke-width="0.6" stroke-miterlimit="10" stroke-linecap="round" stroke-linejoin="round"/>
<path d="M208.691 196.233L185.816 219.172" stroke="#12B5FF" stroke-width="0.6" stroke-miterlimit="10" stroke-linecap="round" stroke-linejoin="round"/>
<path d="M224.089 170L183.724 210.364" stroke="#82D8FF" stroke-width="0.6" stroke-miterlimit="10" stroke-linecap="round" stroke-linejoin="round"/>
<path d="M190.758 192.494L181 202.189" stroke="#82D8FF" stroke-width="0.6" stroke-miterlimit="10" stroke-linecap="round" stroke-linejoin="round"/>
<path d="M67.1802 34.4785L63.4416 38.2805" stroke="#82D8FF" stroke-width="0.6" stroke-miterlimit="10" stroke-linecap="round" stroke-linejoin="round"/>
<path d="M80.1067 21.6152L73.1998 28.5222" stroke="#82D8FF" stroke-width="0.6" stroke-miterlimit="10" stroke-linecap="round" stroke-linejoin="round"/>
<path d="M68.3838 22.4395L42.4036 48.483" stroke="#82D8FF" stroke-width="0.6" stroke-miterlimit="10" stroke-linecap="round" stroke-linejoin="round"/>
<path d="M81.6909 9.19531L76.3681 14.4547" stroke="#82D8FF" stroke-width="0.6" stroke-miterlimit="10" stroke-linecap="round" stroke-linejoin="round"/>
<path d="M49.6909 30.2334L26.8157 53.172" stroke="#12B5FF" stroke-width="0.6" stroke-miterlimit="10" stroke-linecap="round" stroke-linejoin="round"/>
<path d="M65.0889 4L24.7245 44.3644" stroke="#82D8FF" stroke-width="0.6" stroke-miterlimit="10" stroke-linecap="round" stroke-linejoin="round"/>
<path d="M31.7583 26.4941L21.9999 36.1892" stroke="#82D8FF" stroke-width="0.6" stroke-miterlimit="10" stroke-linecap="round" stroke-linejoin="round"/>
<path d="M47.3486 197L31.0001 213.349" stroke="#12B5FF" stroke-width="0.6" stroke-miterlimit="10" stroke-linecap="round" stroke-linejoin="round"/>
<path d="M54.0515 183L32 205.052" stroke="#82D8FF" stroke-width="0.6" stroke-miterlimit="10" stroke-linecap="round" stroke-linejoin="round"/>
<path d="M43.6179 186L35.0001 194.554" stroke="#12B5FF" stroke-width="0.6" stroke-miterlimit="10" stroke-linecap="round" stroke-linejoin="round"/>
<path d="M33.2595 190L28.0001 195.259" stroke="#82D8FF" stroke-width="0.6" stroke-miterlimit="10" stroke-linecap="round" stroke-linejoin="round"/>
<path d="M41.6118 182L37.9999 185.612" stroke="#82D8FF" stroke-width="0.6" stroke-miterlimit="10" stroke-linecap="round" stroke-linejoin="round"/>
<path d="M228.349 23.1719L212 39.5204" stroke="#12B5FF" stroke-width="0.6" stroke-miterlimit="10" stroke-linecap="round" stroke-linejoin="round"/>
<path d="M235.052 9.17188L213 31.2234" stroke="#82D8FF" stroke-width="0.6" stroke-miterlimit="10" stroke-linecap="round" stroke-linejoin="round"/>
<path d="M224.618 12.1719L216 20.7263" stroke="#12B5FF" stroke-width="0.6" stroke-miterlimit="10" stroke-linecap="round" stroke-linejoin="round"/>
<path d="M214.26 16.1719L209 21.4313" stroke="#82D8FF" stroke-width="0.6" stroke-miterlimit="10" stroke-linecap="round" stroke-linejoin="round"/>
<path d="M222.612 8.17188L219 11.7838" stroke="#82D8FF" stroke-width="0.6" stroke-miterlimit="10" stroke-linecap="round" stroke-linejoin="round"/>
</g>
</g>
<defs>
<filter id="filter0_d" x="0" y="0" width="242.066" height="242.066" filterUnits="userSpaceOnUse" color-interpolation-filters="sRGB">
<feFlood flood-opacity="0" result="BackgroundImageFix"/>
<feColorMatrix in="SourceAlpha" type="matrix" values="0 0 0 0 0 0 0 0 0 0 0 0 0 0 0 0 0 0 127 0"/>
<feOffset dx="-11" dy="11"/>
<feGaussianBlur stdDeviation="10.5"/>
<feColorMatrix type="matrix" values="0 0 0 0 0 0 0 0 0 0 0 0 0 0 0 0 0 0 0.08 0"/>
<feBlend mode="normal" in2="BackgroundImageFix" result="effect1_dropShadow"/>
<feBlend mode="normal" in="SourceGraphic" in2="effect1_dropShadow" result="shape"/>
</filter>
<linearGradient id="paint0_linear" x1="132" y1="17.5" x2="132" y2="156" gradientUnits="userSpaceOnUse">
<stop stop-color="#CCEFFF"/>
<stop offset="1" stop-color="#E2F6FF"/>
</linearGradient>
</defs>
</svg>
