<svg width="44" height="47" viewBox="0 0 44 47" fill="none" xmlns="http://www.w3.org/2000/svg">
<g filter="url(#filter0_d)">
<path d="M36.1479 15.985C36.5304 17.4126 34.1991 19.0944 34.1151 20.494C34.0311 21.8936 36.1729 23.8651 35.6638 25.1838C35.1548 26.5025 32.2676 26.525 31.3706 27.6417C30.4736 28.7583 31.0326 31.5713 29.853 32.3603C28.6735 33.1493 26.3797 31.4409 24.9521 31.8234C23.5246 32.206 22.3628 34.8263 20.9667 34.7552C19.5706 34.6842 18.6248 31.9331 17.2931 31.4275C15.9614 30.9219 13.4757 32.3391 12.3331 31.449C11.1905 30.559 12.1124 27.8221 11.3295 26.6132C10.5465 25.4042 7.71957 25.1324 7.33705 23.7048C6.95454 22.2772 9.28582 20.5955 9.36983 19.1959C9.45384 17.7963 7.31206 15.8247 7.79166 14.5C8.27126 13.1753 11.1879 13.1588 12.0849 12.0421C12.9819 10.9255 12.4229 8.11252 13.6024 7.3235C14.782 6.53448 17.1052 8.2488 18.5328 7.86628C19.9603 7.48377 21.1221 4.86347 22.5182 4.93453C23.9143 5.0056 24.8601 7.75658 26.1918 8.26219C27.5234 8.76773 30.0221 7.34716 31.1387 8.24417C32.2554 9.14118 31.3594 11.8711 32.1424 13.08C32.9255 14.2891 35.7653 14.5575 36.1479 15.985Z" fill="#1EC510"/>
<path d="M21.6853 36.0153C21.4387 36.0814 21.1772 36.1125 20.8977 36.097C19.513 36.027 18.6473 34.8778 17.8836 33.8653C17.5756 33.4583 17.0619 32.7766 16.8156 32.6826C16.5725 32.5906 15.7533 32.7517 15.2631 32.8483C14.0834 33.081 12.6158 33.3712 11.5065 32.507C10.3675 31.6201 10.3577 30.1039 10.3499 28.8861C10.3465 28.3904 10.3422 27.5598 10.2004 27.3418C10.0582 27.1226 9.34124 26.7931 8.8679 26.5736C7.7752 26.0722 6.41246 25.4456 6.03934 24.0531C5.66378 22.6515 6.54859 21.4115 7.26057 20.414C7.54174 20.0201 8.01203 19.3614 8.02971 19.116C8.03947 18.8617 7.62624 18.1294 7.381 17.6916C6.7618 16.5904 6.05837 15.3407 6.52864 14.0434C7.00982 12.7141 8.44183 12.2288 9.59194 11.8386C10.0716 11.6767 10.8736 11.4048 11.0373 11.201C11.2079 10.9911 11.312 10.1496 11.3736 9.64759C11.5279 8.39609 11.7032 6.97907 12.857 6.20813C14.03 5.42091 15.4599 5.87234 16.6053 6.23307C17.125 6.39704 17.9087 6.64331 18.1864 6.5689C18.4693 6.4931 19.0307 5.88364 19.4026 5.48077C20.2488 4.5641 21.2072 3.52561 22.5872 3.59394C23.9706 3.66422 24.8373 4.81184 25.5997 5.82462C25.9076 6.2317 26.423 6.91429 26.6693 7.00824C26.9128 7.1016 27.7342 6.9385 28.2244 6.84192C29.4081 6.60818 30.8825 6.31746 31.9796 7.19885C33.0837 8.08529 33.0988 9.58489 33.1116 10.7902C33.1165 11.2911 33.1254 12.1289 33.2686 12.352C33.4104 12.5699 34.1576 12.9135 34.6047 13.1179C35.7033 13.6205 37.0715 14.247 37.4447 15.6396C37.8202 17.0412 36.9358 18.2824 36.2238 19.28C35.9439 19.6735 35.4723 20.3326 35.4546 20.5779C35.4458 20.8306 35.8514 21.5552 36.0944 21.9894C36.7164 23.1011 37.4216 24.3629 36.9166 25.6707C36.4154 26.9721 35.0593 27.4342 33.8642 27.8434C33.385 28.0066 32.5833 28.2799 32.4176 28.487C32.2488 28.6978 32.1459 29.5391 32.0829 30.0413C31.927 31.2918 31.753 32.7085 30.5999 33.4821C29.4265 34.2681 28.0058 33.8198 26.8666 33.4615C26.3528 33.2987 25.5763 33.0533 25.2999 33.1274C25.017 33.2032 24.4556 33.8127 24.0836 34.2156C23.4092 34.9427 22.6626 35.7534 21.6853 36.0153ZM14.3031 8.46474C14.2082 8.61397 14.1029 9.46701 14.0405 9.97617C13.9125 11.0092 13.7815 12.0777 13.1326 12.8845C12.4785 13.6982 11.4496 14.0476 10.4551 14.385C9.9816 14.5439 9.18861 14.8134 9.02829 15.0094C9.04932 15.1762 9.47128 15.9255 9.7223 16.3743C10.2383 17.2931 10.7735 18.2417 10.7104 19.2782C10.6502 20.2888 10.0382 21.1455 9.44663 21.9745C9.16134 22.3736 8.63183 23.1177 8.63753 23.3777C8.7469 23.5626 9.55785 23.9365 9.99401 24.1368C10.8844 24.5478 11.8918 25.0109 12.4582 25.8843C13.0251 26.7589 13.0325 27.8822 13.0391 28.8722C13.0423 29.3721 13.0476 30.2122 13.1896 30.4203C13.3781 30.4853 14.2659 30.31 14.744 30.2153C15.7585 30.0144 16.8073 29.807 17.7703 30.1722C18.7412 30.5408 19.3969 31.4097 20.0309 32.2496C20.3372 32.6558 20.8486 33.3338 21.0883 33.424C21.2227 33.3546 21.777 32.7499 22.1093 32.391C22.7949 31.6481 23.5707 30.806 24.6063 30.5285C25.6393 30.2517 26.7229 30.5942 27.6783 30.8946C28.1416 31.0403 28.9159 31.2877 29.152 31.2244C29.2479 31.0735 29.3532 30.2205 29.4157 29.7113C29.5433 28.677 29.6759 27.6094 30.3236 26.803C30.9773 25.988 32.0506 25.6225 32.9974 25.2992C33.4758 25.1376 34.2745 24.8638 34.4321 24.6631C34.4152 24.4909 33.9989 23.747 33.7502 23.3018C33.2402 22.3897 32.712 21.4463 32.7742 20.417C32.8344 19.4064 33.446 18.5484 34.038 17.7207C34.3146 17.3308 34.8263 16.6137 34.8467 16.337C34.6954 16.1146 33.912 15.7557 33.4886 15.5617C32.5946 15.153 31.5814 14.6887 31.0163 13.815C30.4488 12.9378 30.4367 11.8129 30.4252 10.8201C30.4213 10.3176 30.4114 9.47595 30.2707 9.26743C30.0909 9.21411 29.2496 9.38108 28.7461 9.47984C27.7304 9.68107 26.6802 9.88876 25.7156 9.52265C24.7447 9.15408 24.089 8.28516 23.455 7.4452C23.149 7.04035 22.6377 6.36226 22.3979 6.27215C22.2652 6.3425 21.7092 6.94628 21.3773 7.30649C20.6917 8.04935 19.9158 8.89154 18.8802 9.16903C17.8472 9.44583 16.7577 9.10206 15.7965 8.80048C15.3286 8.64754 14.5419 8.40075 14.3031 8.46474ZM34.8566 16.3524L34.8709 16.3485L34.8566 16.3524Z" fill="#1EC510"/>
</g>
<g filter="url(#filter1_d)">
<path d="M19.6619 24.8313C19.3058 24.8313 18.9646 24.6916 18.712 24.4376L15.1247 20.8503C14.5994 20.325 14.5994 19.4759 15.1247 18.9505C15.65 18.4252 16.4992 18.4252 17.0245 18.9505L19.5732 21.498L25.5628 14.3354C26.0385 13.7685 26.8835 13.6892 27.4559 14.1675C28.0256 14.6431 28.0994 15.4909 27.6252 16.0605L20.6924 24.3503C20.4506 24.6392 20.0986 24.8138 19.721 24.83C19.7022 24.8313 19.682 24.8313 19.6619 24.8313Z" fill="white"/>
</g>
<defs>
<filter id="filter0_d" x="0.00012207" y="0.563477" width="43.4828" height="45.5619" filterUnits="userSpaceOnUse" color-interpolation-filters="sRGB">
<feFlood flood-opacity="0" result="BackgroundImageFix"/>
<feColorMatrix in="SourceAlpha" type="matrix" values="0 0 0 0 0 0 0 0 0 0 0 0 0 0 0 0 0 0 127 0"/>
<feOffset dy="5"/>
<feGaussianBlur stdDeviation="1"/>
<feColorMatrix type="matrix" values="0 0 0 0 0.0405945 0 0 0 0 0.495833 0 0 0 0 0 0 0 0 0.14 0"/>
<feBlend mode="normal" in2="BackgroundImageFix" result="effect1_dropShadow"/>
<feBlend mode="normal" in="SourceGraphic" in2="effect1_dropShadow" result="shape"/>
</filter>
<filter id="filter1_d" x="7.73071" y="12.854" width="27.2066" height="24.9773" filterUnits="userSpaceOnUse" color-interpolation-filters="sRGB">
<feFlood flood-opacity="0" result="BackgroundImageFix"/>
<feColorMatrix in="SourceAlpha" type="matrix" values="0 0 0 0 0 0 0 0 0 0 0 0 0 0 0 0 0 0 127 0"/>
<feOffset dy="6"/>
<feGaussianBlur stdDeviation="3.5"/>
<feColorMatrix type="matrix" values="0 0 0 0 0 0 0 0 0 0 0 0 0 0 0 0 0 0 0.44 0"/>
<feBlend mode="normal" in2="BackgroundImageFix" result="effect1_dropShadow"/>
<feBlend mode="normal" in="SourceGraphic" in2="effect1_dropShadow" result="shape"/>
</filter>
</defs>
</svg>
