<svg width="118" height="119" viewBox="0 0 118 119" fill="none" xmlns="http://www.w3.org/2000/svg">
<path d="M32.0991 108.463L30.5292 110.059" stroke="#82D8FF" stroke-width="0.6" stroke-miterlimit="10" stroke-linecap="round" stroke-linejoin="round"/>
<path d="M37.5273 103.062L34.627 105.962" stroke="#82D8FF" stroke-width="0.6" stroke-miterlimit="10" stroke-linecap="round" stroke-linejoin="round"/>
<path d="M32.6045 103.407L21.6948 114.344" stroke="#82D8FF" stroke-width="0.6" stroke-miterlimit="10" stroke-linecap="round" stroke-linejoin="round"/>
<path d="M38.1926 97.8457L35.9575 100.054" stroke="#82D8FF" stroke-width="0.6" stroke-miterlimit="10" stroke-linecap="round" stroke-linejoin="round"/>
<path d="M24.7551 106.681L15.1492 116.313" stroke="#12B5FF" stroke-width="0.6" stroke-miterlimit="10" stroke-linecap="round" stroke-linejoin="round"/>
<path d="M39.2568 92.1787L29.0123 102.45" stroke="#12B5FF" stroke-width="0.6" stroke-miterlimit="10" stroke-linecap="round" stroke-linejoin="round"/>
<path d="M31.2209 95.6641L14.271 112.614" stroke="#82D8FF" stroke-width="0.6" stroke-miterlimit="10" stroke-linecap="round" stroke-linejoin="round"/>
<path d="M38.2458 88.6387L34.6536 92.2309" stroke="#82D8FF" stroke-width="0.6" stroke-miterlimit="10" stroke-linecap="round" stroke-linejoin="round"/>
<path d="M17.2246 105.11L13.1268 109.182" stroke="#82D8FF" stroke-width="0.6" stroke-miterlimit="10" stroke-linecap="round" stroke-linejoin="round"/>
<path d="M42.3169 80.0176L21.5086 100.799" stroke="#82D8FF" stroke-width="0.6" stroke-miterlimit="10" stroke-linecap="round" stroke-linejoin="round"/>
<path d="M25.6331 92.125L5.30372 112.454" stroke="#12B5FF" stroke-width="0.6" stroke-miterlimit="10" stroke-linecap="round" stroke-linejoin="round"/>
<path d="M34.6003 83.1582L29.8905 87.868" stroke="#12B5FF" stroke-width="0.6" stroke-miterlimit="10" stroke-linecap="round" stroke-linejoin="round"/>
<path d="M21.6682 91.5127L8.54993 104.631" stroke="#82D8FF" stroke-width="0.6" stroke-miterlimit="10" stroke-linecap="round" stroke-linejoin="round"/>
<path d="M35.0793 78.1025L25.3936 87.8149" stroke="#82D8FF" stroke-width="0.6" stroke-miterlimit="10" stroke-linecap="round" stroke-linejoin="round"/>
<path d="M10.8652 97.7666L4.00009 104.632" stroke="#12B5FF" stroke-width="0.6" stroke-miterlimit="10" stroke-linecap="round" stroke-linejoin="round"/>
<path d="M29.1455 79.459L15.841 92.7901" stroke="#12B5FF" stroke-width="0.6" stroke-miterlimit="10" stroke-linecap="round" stroke-linejoin="round"/>
<path d="M17.4907 86.5635L8.23076 95.8234" stroke="#82D8FF" stroke-width="0.6" stroke-miterlimit="10" stroke-linecap="round" stroke-linejoin="round"/>
<path d="M28.0544 76L21.1361 82.9184" stroke="#82D8FF" stroke-width="0.6" stroke-miterlimit="10" stroke-linecap="round" stroke-linejoin="round"/>
<path d="M9.26855 90.2354L5.64972 93.8276" stroke="#12B5FF" stroke-width="0.6" stroke-miterlimit="10" stroke-linecap="round" stroke-linejoin="round"/>
<path d="M22.5198 76.9844L13.3663 86.1113" stroke="#12B5FF" stroke-width="0.6" stroke-miterlimit="10" stroke-linecap="round" stroke-linejoin="round"/>
<path d="M11.1311 83.7969L8.92255 86.0054" stroke="#82D8FF" stroke-width="0.6" stroke-miterlimit="10" stroke-linecap="round" stroke-linejoin="round"/>
<path d="M15.0161 79.9121L13.4994 81.4288" stroke="#82D8FF" stroke-width="0.6" stroke-miterlimit="10" stroke-linecap="round" stroke-linejoin="round"/>
<path d="M60.6631 76.0129C61.2231 75.5584 62.0091 75.5057 62.6234 75.8846C63.236 76.263 63.5464 76.9881 63.3918 77.6933L59.2515 96.5326C58.6213 99.3721 57.2005 101.96 55.1434 104.017L42.344 116.816C41.8368 117.323 41.0661 117.457 40.4177 117.15C40.2398 117.065 40.0798 116.951 39.945 116.816C39.5923 116.464 39.4049 115.965 39.456 115.447L41.7994 92.0163C41.845 91.5676 42.0677 91.1551 42.4168 90.8694L60.6631 76.0129Z" fill="#005881"/>
<path d="M42.3635 57.7133C42.8179 57.1533 42.8707 56.3673 42.4918 55.753C42.1134 55.1403 41.3882 54.8299 40.6831 54.9845L21.8437 59.1249C19.0043 59.7551 16.4166 61.1759 14.3596 63.2329L1.56019 76.0323C1.05294 76.5396 0.919489 77.3103 1.22687 77.9586C1.31128 78.1366 1.4254 78.2966 1.56019 78.4314C1.91285 78.7841 2.41186 78.9715 2.929 78.9204L26.3601 76.5769C26.8087 76.5313 27.2212 76.3087 27.507 75.9596L42.3635 57.7133Z" fill="#003A55"/>
<path d="M97.9682 21.6426C97.8171 21.0347 97.3415 20.5591 96.7336 20.4079C95.9124 20.203 76.4249 15.5617 60.3367 31.6499C53.8406 38.146 38.1712 57.0439 23.8893 75.6084C21.817 78.3015 22.0642 82.1425 24.4621 84.5404L33.8358 93.9141C36.2337 96.3119 40.0747 96.5592 42.7678 94.4868C61.3323 80.205 80.2302 64.5355 86.7263 58.0395C102.814 41.9513 98.1733 22.4636 97.9682 21.6426Z" fill="#82D8FF"/>
<path d="M29.1491 89.227L24.4623 84.5402C22.0644 82.1423 21.8172 78.3013 23.8895 75.6082C38.1714 57.0437 53.8408 38.1458 60.3369 31.6497C76.4251 15.5615 95.9127 20.2026 96.7338 20.4078C97.0367 20.483 97.3066 20.6393 97.5201 20.8519L97.5223 20.8541L29.1493 89.2272L29.1491 89.227Z" fill="#65CFFF"/>
<path d="M65.1349 53.2409C69.1098 57.2158 75.5543 57.2158 79.5292 53.2409C83.5041 49.266 83.5041 42.8215 79.5292 38.8466C75.5543 34.8717 69.1098 34.8717 65.1349 38.8466C61.16 42.8215 61.16 49.266 65.1349 53.2409Z" fill="white"/>
<path d="M20.7523 97.6236C20.0893 96.9605 20.0899 95.8869 20.7523 95.2245L49.541 66.4359C50.2034 65.7734 51.277 65.7728 51.94 66.4359C52.603 67.0989 52.6024 68.1725 51.94 68.8349L23.1514 97.6236C22.4889 98.286 21.4153 98.2866 20.7523 97.6236Z" fill="#005881"/>
<path d="M96.7338 20.4076C96.1847 20.2706 87.2922 18.1598 76.6522 21.5753L96.8007 41.7238C100.216 31.0838 98.1056 22.1911 97.9684 21.6422C97.8174 21.0342 97.3418 20.5586 96.7338 20.4076Z" fill="#005880"/>
<path d="M97.5225 20.8535C97.3087 20.6397 97.0377 20.483 96.7338 20.4076C96.1847 20.2706 87.2922 18.1598 76.6522 21.5753L86.7264 31.6496L97.5225 20.8535Z" fill="#003A55"/>
<path d="M79.5293 53.241C83.5042 49.2661 83.5042 42.8216 79.5293 38.8467L65.135 53.241C69.1099 57.2159 75.5544 57.2159 79.5293 53.241Z" fill="white"/>
<path d="M63.9353 54.441C59.3059 49.8116 59.3053 42.2777 63.9353 37.6477C68.5654 33.0176 76.0993 33.0182 80.7287 37.6477C85.3581 42.2771 85.3587 49.811 80.7287 54.441C76.0987 59.0711 68.5648 59.0705 63.9353 54.441ZM78.3297 40.0467C75.0227 36.7398 69.6413 36.7398 66.3344 40.0467C63.0274 43.3537 63.0274 48.735 66.3344 52.042C69.6413 55.3489 75.0227 55.3489 78.3297 52.042C81.6366 48.735 81.6366 43.3537 78.3297 40.0467Z" fill="#0076AB"/>
</svg>
