<svg width="34" height="34" viewBox="0 0 34 34" fill="none" xmlns="http://www.w3.org/2000/svg">
<path d="M17 0C7.61259 0 0 7.61259 0 17C0 26.3874 7.61259 34 17 34C26.3874 34 34 26.3874 34 17C34 7.61259 26.3874 0 17 0ZM24.762 13.2548C24.7695 13.4221 24.7732 13.5902 24.7732 13.7591C24.7732 18.9151 20.8484 24.8608 13.6711 24.8611H13.6714H13.6711C11.4675 24.8611 9.41698 24.2152 7.69016 23.1083C7.99547 23.1444 8.30623 23.1623 8.62088 23.1623C10.4491 23.1623 12.1316 22.5387 13.4672 21.492C11.7591 21.4604 10.3189 20.3322 9.8219 18.7818C10.0598 18.8275 10.3044 18.8524 10.5552 18.8524C10.9114 18.8524 11.2564 18.8044 11.5843 18.7149C9.79881 18.3574 8.45383 16.7795 8.45383 14.89C8.45383 14.8724 8.45383 14.8566 8.45435 14.8402C8.98015 15.1326 9.58144 15.3085 10.2216 15.3282C9.17392 14.6291 8.48521 13.434 8.48521 12.0802C8.48521 11.3653 8.67847 10.6956 9.01361 10.1189C10.9378 12.48 13.8135 14.0327 17.0565 14.1959C16.9896 13.91 16.9551 13.6122 16.9551 13.3062C16.9551 11.1521 18.7027 9.40453 20.8575 9.40453C21.9799 9.40453 22.9937 9.87897 23.7057 10.6375C24.5947 10.4621 25.4294 10.1373 26.1835 9.69038C25.8917 10.6011 25.2733 11.3653 24.4676 11.8486C25.2569 11.7542 26.0092 11.5448 26.7083 11.2341C26.1861 12.0167 25.5239 12.7041 24.762 13.2548V13.2548Z" fill="#2DBDFF"/>
</svg>
