<svg width="243" height="229" fill="none" xmlns="http://www.w3.org/2000/svg">
  <path fill="#fff" d="M0 0h243v229H0z"/>
  <circle cx="121" cy="115" r="89.5" fill="#fff" stroke="#2DBDFF"/>
  <path d="M100.31 83.103H83.431a.862.862 0 01-.62-1.465l4.827-4.828a.862.862 0 000-1.207l-4.828-4.827a.862.862 0 01.621-1.466h16.879v13.793z" fill="#2DBDFF"/>
  <path d="M100.31 91.724A1.724 1.724 0 0198.586 90V69.31a1.724 1.724 0 113.449 0V90c0 .952-.772 1.724-1.725 1.724zm49.018 27.414c9.086 6.69 15.862 16.31 8.81 24.793-6.224 7.448-14.621 6.897-21.897.638l3.983-5.707a12.242 12.242 0 007.362 3.604 6.899 6.899 0 005.173-2.949 4.759 4.759 0 001.224-4.103c-.535-3.431-5.397-8.242-8.845-10.931l4.19-5.345z" fill="#0069E3"/>
  <path d="M105.276 135.914c-3.776-1.724-11.155-2.931-19.62 2.362l-1.828 1.103a5.172 5.172 0 01-7.294-2.12l-4.896-9.759a3.448 3.448 0 011.845-4.741c7.758-2.862 10.448 5.172 10.448 5.172a27.584 27.584 0 0125.207-6.31l1.517 13.207-5.379 1.086z" fill="#00A3ED"/>
  <path d="M127.897 142.552l3.913 1.965a5.173 5.173 0 007.018-2.465l16.155-35.155a5.174 5.174 0 00-2.655-6.897l-7.19-3.103-17.241 45.655z" fill="#0076FF"/>
  <path d="M122.724 100.345l-12.689 2.689-5.173-10.172a5.172 5.172 0 00-9.241 4.62l6.896 13.794a5.172 5.172 0 004.69 2.862c1.8-.176 3.579-.528 5.31-1.052l10.207-12.741z" fill="#00A3ED"/>
  <path d="M144.828 103.155c.207.138-.569-.5 5.172 4.224a5.033 5.033 0 004.293 1.104c.448 0 1.224-.414 9.104-4.052a5.173 5.173 0 014.965 9.069l-7.707 3.534a15.515 15.515 0 01-17.241-1.62c-3.742 4.103-7.759 9.81-8.621 15.965-1 7.018-4.345 9.949-6.896 11.173a9.052 9.052 0 01-3.449.896s-14.655 0-18.965 12.069l-.845 1.966A5.173 5.173 0 0197.466 160l-9.656-5.172a3.45 3.45 0 01-1.293-4.914c4.707-7.431 12.07-1.293 12.07-1.293 1.723-10.345 8.499-14.19 8.499-14.19-.276-11.017 5.983-24.017 12.069-33.224l25.673 1.948z" fill="#2DBDFF"/>
  <path d="M152.035 88.276c0 10.474-8.492 18.965-18.966 18.965s-18.965-8.49-18.965-18.965c0-10.474 8.491-18.966 18.965-18.966s18.966 8.492 18.966 18.966z" fill="#00A3ED"/>
  <path d="M152.035 86.552c-.931 9.73-9.105 17.159-18.88 17.159-9.774 0-17.948-7.429-18.879-17.16.931-9.73 9.105-17.159 18.879-17.159 9.775 0 17.949 7.43 18.88 17.16zm-70.69 22.414a1.724 1.724 0 01-1.724-1.725v-6.896a1.724 1.724 0 113.448 0v6.896c0 .953-.772 1.725-1.724 1.725z" fill="#2DBDFF"/>
  <path d="M84.793 105.517h-6.896a1.724 1.724 0 010-3.448h6.896a1.724 1.724 0 010 3.448zm39.655 56.897a1.724 1.724 0 01-1.724-1.724v-6.897a1.724 1.724 0 013.448 0v6.897c0 .952-.771 1.724-1.724 1.724z" fill="#2DBDFF"/>
  <path d="M127.897 158.966H121a1.724 1.724 0 010-3.449h6.897a1.724 1.724 0 010 3.449zm32.758-81.035a1.724 1.724 0 01-1.724-1.724V69.31a1.724 1.724 0 113.448 0v6.897c0 .952-.772 1.724-1.724 1.724z" fill="#2DBDFF"/>
  <path d="M164.104 74.483h-6.897a1.724 1.724 0 010-3.449h6.897a1.724 1.724 0 010 3.449z" fill="#2DBDFF"/>
  <path d="M143.414 88.276c0 10.258-16.328 15.827-26.914 9.224a18.967 18.967 0 010-18.448c10.448-6.587 26.914-1.121 26.914 9.224z" fill="#AFE6FF"/>
  <path d="M119.276 90a1.724 1.724 0 01-1.724-1.724c0-6.897 6.758-8.62 10.345-8.62a1.724 1.724 0 010 3.447c-.311 0-6.897.104-6.897 5.173 0 .952-.772 1.724-1.724 1.724z" fill="#5AD6FF"/>
  <path d="M143.414 88.276c0 10.258-16.328 15.827-26.914 9.224a18.581 18.581 0 01-2.138-6.052c6.345 2.724 17.242 4.345 26.966-9.069a9.694 9.694 0 012.086 5.897z" fill="#0076FF"/>
  <path d="M88.103 136.897c-1.258.637-1.517.81-4.275 2.482a5.172 5.172 0 01-7.294-2.12l-4.896-9.759a3.448 3.448 0 011.845-4.741c7.758-2.862 10.448 5.172 10.448 5.172l4.172 8.966z" fill="#0069E3"/>
  <path d="M106.552 153.155c-.604 1.069-.604 1.311-1.897 4.276a5.171 5.171 0 01-7.172 2.517l-9.655-5.172a3.449 3.449 0 01-1.31-4.862c4.706-7.431 12.068-1.293 12.068-1.293l7.966 4.534z" fill="#0076FF"/>
</svg>
