<svg width="243" height="229" fill="none" xmlns="http://www.w3.org/2000/svg">
  <path fill="#fff" d="M0 0h243v229H0z"/>
  <circle cx="121" cy="115" r="89.5" fill="#fff" stroke="#2DBDFF"/>
  <path d="M160.505 116.996h-.925a22.77 22.77 0 00-10.046 8.89l-.847 1.391c-12.38-8.365-25.26-8.435-37.585-2.157a128.3 128.3 0 00.879-20.217l-.504-13.235-.015-.154c2.119-.231 4.647-.712 5.646-1.382l.007-.007 1.565 1.463c1.747 1.647 4.853 2.217 6.769.767l7.316-5.534c3.974-3.006 4.239-8.883.551-12.235l-7.294-6.628a11.372 11.372 0 00-13.376-1.411l-9.227 5.376a11.374 11.374 0 00-5.517 8.094l-1.3 8.424-16.035 44.925a10.82 10.82 0 004.452 12.808l19.529 12.215a43.433 43.433 0 0042.5 2.003l.545.521A15.068 15.068 0 00157.907 165h2.598c.86 0 1.557-.697 1.557-1.558v-44.888c0-.86-.697-1.558-1.557-1.558z" fill="#2DBDFF"/>
  <path d="M161.538 157.277h-2.598c-3.831 0-7.52-1.463-10.313-4.087a1.084 1.084 0 00-1.221-.189 43.434 43.434 0 01-41.824-2.335L88.178 139.78a2.57 2.57 0 01-1.059-3.039l.008-.02 16.035-44.925 1.299-8.424a11.375 11.375 0 015.517-8.095l9.228-5.375a11.358 11.358 0 017.388-1.424l-.572-.52a11.372 11.372 0 00-13.376-1.411l-9.227 5.376a11.374 11.374 0 00-5.517 8.094l-1.3 8.424-16.035 44.925a10.82 10.82 0 004.452 12.808l19.529 12.215a43.433 43.433 0 0042.5 2.003l.545.521A15.068 15.068 0 00157.907 165h2.598c.86 0 1.557-.697 1.557-1.558v-6.257a1.56 1.56 0 01-.524.092z" fill="#00A3ED"/>
  <path d="M115.213 156.209c-.114 0-.229-.013-.345-.039-5.644-1.297-10.597-3.852-14.723-7.596a1.538 1.538 0 012.065-2.276c3.732 3.386 8.222 5.699 13.346 6.877a1.537 1.537 0 01-.343 3.034z" fill="#0076FF"/>
  <path d="M120.677 134.178a1.536 1.536 0 01-.738-2.885l.934-.51a18.881 18.881 0 0115.51-1.175 1.537 1.537 0 01-1.051 2.888 15.812 15.812 0 00-12.985.983l-.935.511a1.523 1.523 0 01-.735.188z" fill="#00A3ED"/>
  <path d="M151.605 107.768v-8.906c0-.437.354-.792.791-.792h3.483c.68 0 1.043-.8.596-1.312l-8.351-9.567a.79.79 0 00-1.192 0l-8.352 9.567a.792.792 0 00.597 1.312h3.482c.438 0 .792.355.792.792v8.906c0 .329.266.596.595.596h6.964a.596.596 0 00.595-.596zm-20.806 7.743v-7.333c0-.124.1-.224.224-.224h4.063a.224.224 0 00.169-.371l-7.527-8.623a.224.224 0 00-.337 0l-7.527 8.623a.224.224 0 00.169.371h4.063c.124 0 .224.1.224.224v7.333c0 .343.278.622.622.622h5.235a.623.623 0 00.622-.622z" fill="#0076FF"/>
</svg>
